<?xml version="1.0" encoding="UTF-8" standalone="no"?>
<!DOCTYPE svg PUBLIC "-//W3C//DTD SVG 1.1//EN"
 "http://www.w3.org/Graphics/SVG/1.1/DTD/svg11.dtd">
<!-- Generated by graphviz version 2.43.0 (0)
 -->
<!-- Title: /home/hirth/git/SIM&#45;VICUS.master2/externals/Vicus/src/VICUS_Material.cpp Pages: 1 -->
<svg width="1231pt" height="214pt"
 viewBox="0.00 0.00 1230.50 214.00" xmlns="http://www.w3.org/2000/svg" xmlns:xlink="http://www.w3.org/1999/xlink">
<g id="graph0" class="graph" transform="scale(1 1) rotate(0) translate(4 210)">
<title>/home/hirth/git/SIM&#45;VICUS.master2/externals/Vicus/src/VICUS_Material.cpp</title>
<!-- Node1 -->
<g id="Node000001" class="node">
<title>Node1</title>
<g id="a_Node000001"><a xlink:title=" ">
<polygon fill="#999999" stroke="#666666" points="805.5,-206 651.5,-206 651.5,-165 805.5,-165 805.5,-206"/>
<text text-anchor="start" x="659.5" y="-194" font-family="Helvetica,sans-Serif" font-size="10.00">/home/hirth/git/SIM</text>
<text text-anchor="start" x="659.5" y="-183" font-family="Helvetica,sans-Serif" font-size="10.00">&#45;VICUS.master2/externals</text>
<text text-anchor="middle" x="728.5" y="-172" font-family="Helvetica,sans-Serif" font-size="10.00">/Vicus/src/VICUS_Material.cpp</text>
</a>
</g>
</g>
<!-- Node2 -->
<g id="Node000002" class="node">
<title>Node2</title>
<g id="a_Node000002"><a xlink:href="_v_i_c_u_s___material_8h.html" target="_top" xlink:title=" ">
<polygon fill="white" stroke="#666666" points="513.5,-129 417.5,-129 417.5,-110 513.5,-110 513.5,-129"/>
<text text-anchor="middle" x="465.5" y="-117" font-family="Helvetica,sans-Serif" font-size="10.00">VICUS_Material.h</text>
</a>
</g>
</g>
<!-- Node1&#45;&gt;Node2 -->
<g id="edge1_Node000001_Node000002" class="edge">
<title>Node1&#45;&gt;Node2</title>
<g id="a_edge1_Node000001_Node000002"><a xlink:title=" ">
<path fill="none" stroke="#63b8ff" d="M651.37,-165.73C605.59,-154.59 549.15,-140.86 510.55,-131.46"/>
<polygon fill="#63b8ff" stroke="#63b8ff" points="511.19,-128.02 500.65,-129.05 509.54,-134.82 511.19,-128.02"/>
</a>
</g>
</g>
<!-- Node13 -->
<g id="Node000013" class="node">
<title>Node13</title>
<g id="a_Node000013"><a xlink:href="_v_i_c_u_s___keyword_list_8h.html" target="_top" xlink:title="Contains the declaration of class KeywordList.">
<polygon fill="white" stroke="#666666" points="1094.5,-129 978.5,-129 978.5,-110 1094.5,-110 1094.5,-129"/>
<text text-anchor="middle" x="1036.5" y="-117" font-family="Helvetica,sans-Serif" font-size="10.00">VICUS_KeywordList.h</text>
</a>
</g>
</g>
<!-- Node1&#45;&gt;Node13 -->
<g id="edge14_Node000001_Node000013" class="edge">
<title>Node1&#45;&gt;Node13</title>
<g id="a_edge14_Node000001_Node000013"><a xlink:title=" ">
<path fill="none" stroke="#63b8ff" d="M805.82,-168.43C862.05,-156.75 936.59,-141.26 985.52,-131.09"/>
<polygon fill="#63b8ff" stroke="#63b8ff" points="986.47,-134.47 995.55,-129.01 985.05,-127.62 986.47,-134.47"/>
</a>
</g>
</g>
<!-- Node3 -->
<g id="Node000003" class="node">
<title>Node3</title>
<g id="a_Node000003"><a xlink:href="_v_i_c_u_s___code_gen_macros_8h.html" target="_top" xlink:title=" ">
<polygon fill="white" stroke="#666666" points="135,-74 0,-74 0,-55 135,-55 135,-74"/>
<text text-anchor="middle" x="67.5" y="-62" font-family="Helvetica,sans-Serif" font-size="10.00">VICUS_CodeGenMacros.h</text>
</a>
</g>
</g>
<!-- Node2&#45;&gt;Node3 -->
<g id="edge2_Node000002_Node000003" class="edge">
<title>Node2&#45;&gt;Node3</title>
<g id="a_edge2_Node000002_Node000003"><a xlink:title=" ">
<path fill="none" stroke="#63b8ff" d="M417.49,-112.11C348.89,-102.97 222.21,-86.1 141.55,-75.36"/>
<polygon fill="#63b8ff" stroke="#63b8ff" points="141.83,-71.87 131.46,-74.02 140.91,-78.81 141.83,-71.87"/>
</a>
</g>
</g>
<!-- Node4 -->
<g id="Node000004" class="node">
<title>Node4</title>
<g id="a_Node000004"><a xlink:href="_v_i_c_u_s___constants_8h.html" target="_top" xlink:title="Contains global constants for the SIM&#45;VICUS data model.">
<polygon fill="white" stroke="#666666" points="180,-19 73,-19 73,0 180,0 180,-19"/>
<text text-anchor="middle" x="126.5" y="-7" font-family="Helvetica,sans-Serif" font-size="10.00">VICUS_Constants.h</text>
</a>
</g>
</g>
<!-- Node2&#45;&gt;Node4 -->
<g id="edge3_Node000002_Node000004" class="edge">
<title>Node2&#45;&gt;Node4</title>
<g id="a_edge3_Node000002_Node000004"><a xlink:title=" ">
<path fill="none" stroke="#63b8ff" d="M417.41,-114.97C347.31,-109.15 221.11,-95.96 181.5,-74 162.04,-63.21 146.24,-42.73 136.65,-27.93"/>
<polygon fill="#63b8ff" stroke="#63b8ff" points="139.49,-25.88 131.27,-19.2 133.53,-29.55 139.49,-25.88"/>
</a>
</g>
</g>
<!-- Node5 -->
<g id="Node000005" class="node">
<title>Node5</title>
<g id="a_Node000005"><a xlink:href="_v_i_c_u_s___abstract_d_b_element_8h.html" target="_top" xlink:title=" ">
<polygon fill="white" stroke="#666666" points="340,-74 191,-74 191,-55 340,-55 340,-74"/>
<text text-anchor="middle" x="265.5" y="-62" font-family="Helvetica,sans-Serif" font-size="10.00">VICUS_AbstractDBElement.h</text>
</a>
</g>
</g>
<!-- Node2&#45;&gt;Node5 -->
<g id="edge4_Node000002_Node000005" class="edge">
<title>Node2&#45;&gt;Node5</title>
<g id="a_edge4_Node000002_Node000005"><a xlink:title=" ">
<path fill="none" stroke="#63b8ff" d="M433.37,-109.98C399.35,-100.97 345.5,-86.7 308,-76.76"/>
<polygon fill="#63b8ff" stroke="#63b8ff" points="308.45,-73.26 297.89,-74.08 306.66,-80.03 308.45,-73.26"/>
</a>
</g>
</g>
<!-- Node7 -->
<g id="Node000007" class="node">
<title>Node7</title>
<g id="a_Node000007"><a xlink:title=" ">
<polygon fill="#e0e0e0" stroke="#999999" points="398,-19 351,-19 351,0 398,0 398,-19"/>
<text text-anchor="middle" x="374.5" y="-7" font-family="Helvetica,sans-Serif" font-size="10.00">QColor</text>
</a>
</g>
</g>
<!-- Node2&#45;&gt;Node7 -->
<g id="edge9_Node000002_Node000007" class="edge">
<title>Node2&#45;&gt;Node7</title>
<g id="a_edge9_Node000002_Node000007"><a xlink:title=" ">
<path fill="none" stroke="#63b8ff" d="M438.31,-109.95C420.81,-103.04 399.07,-91.52 386.5,-74 377.2,-61.04 374.53,-42.89 373.99,-29.31"/>
<polygon fill="#63b8ff" stroke="#63b8ff" points="377.49,-29.17 373.94,-19.19 370.49,-29.21 377.49,-29.17"/>
</a>
</g>
</g>
<!-- Node8 -->
<g id="Node000008" class="node">
<title>Node8</title>
<g id="a_Node000008"><a xlink:title=" ">
<polygon fill="#e0e0e0" stroke="#999999" points="445.5,-74 395.5,-74 395.5,-55 445.5,-55 445.5,-74"/>
<text text-anchor="middle" x="420.5" y="-62" font-family="Helvetica,sans-Serif" font-size="10.00">QString</text>
</a>
</g>
</g>
<!-- Node2&#45;&gt;Node8 -->
<g id="edge8_Node000002_Node000008" class="edge">
<title>Node2&#45;&gt;Node8</title>
<g id="a_edge8_Node000002_Node000008"><a xlink:title=" ">
<path fill="none" stroke="#63b8ff" d="M458.07,-109.75C451.65,-102.18 442.19,-91.05 434.38,-81.84"/>
<polygon fill="#63b8ff" stroke="#63b8ff" points="436.93,-79.45 427.79,-74.09 431.6,-83.98 436.93,-79.45"/>
</a>
</g>
</g>
<!-- Node9 -->
<g id="Node000009" class="node">
<title>Node9</title>
<g id="a_Node000009"><a xlink:title=" ">
<polygon fill="#e0e0e0" stroke="#999999" points="557,-74 464,-74 464,-55 557,-55 557,-74"/>
<text text-anchor="middle" x="510.5" y="-62" font-family="Helvetica,sans-Serif" font-size="10.00">QCoreApplication</text>
</a>
</g>
</g>
<!-- Node2&#45;&gt;Node9 -->
<g id="edge10_Node000002_Node000009" class="edge">
<title>Node2&#45;&gt;Node9</title>
<g id="a_edge10_Node000002_Node000009"><a xlink:title=" ">
<path fill="none" stroke="#63b8ff" d="M472.93,-109.75C479.35,-102.18 488.81,-91.05 496.62,-81.84"/>
<polygon fill="#63b8ff" stroke="#63b8ff" points="499.4,-83.98 503.21,-74.09 494.07,-79.45 499.4,-83.98"/>
</a>
</g>
</g>
<!-- Node10 -->
<g id="Node000010" class="node">
<title>Node10</title>
<g id="a_Node000010"><a xlink:title=" ">
<polygon fill="#e0e0e0" stroke="#999999" points="998,-74 907,-74 907,-55 998,-55 998,-74"/>
<text text-anchor="middle" x="952.5" y="-62" font-family="Helvetica,sans-Serif" font-size="10.00">IBK_Parameter.h</text>
</a>
</g>
</g>
<!-- Node2&#45;&gt;Node10 -->
<g id="edge11_Node000002_Node000010" class="edge">
<title>Node2&#45;&gt;Node10</title>
<g id="a_edge11_Node000002_Node000010"><a xlink:title=" ">
<path fill="none" stroke="#63b8ff" d="M513.54,-114.35C591.59,-107.44 751.04,-92.59 896.88,-74.01"/>
<polygon fill="#63b8ff" stroke="#63b8ff" points="897.43,-77.47 906.91,-72.73 896.54,-70.53 897.43,-77.47"/>
</a>
</g>
</g>
<!-- Node11 -->
<g id="Node000011" class="node">
<title>Node11</title>
<g id="a_Node000011"><a xlink:title=" ">
<polygon fill="#e0e0e0" stroke="#999999" points="754,-74 575,-74 575,-55 754,-55 754,-74"/>
<text text-anchor="middle" x="664.5" y="-62" font-family="Helvetica,sans-Serif" font-size="10.00">NANDRAD_LinearSplineParameter.h</text>
</a>
</g>
</g>
<!-- Node2&#45;&gt;Node11 -->
<g id="edge12_Node000002_Node000011" class="edge">
<title>Node2&#45;&gt;Node11</title>
<g id="a_edge12_Node000002_Node000011"><a xlink:title=" ">
<path fill="none" stroke="#63b8ff" d="M497.47,-109.98C531.32,-100.97 584.9,-86.7 622.21,-76.76"/>
<polygon fill="#63b8ff" stroke="#63b8ff" points="623.51,-80.04 632.28,-74.08 621.71,-73.27 623.51,-80.04"/>
</a>
</g>
</g>
<!-- Node12 -->
<g id="Node000012" class="node">
<title>Node12</title>
<g id="a_Node000012"><a xlink:title=" ">
<polygon fill="#e0e0e0" stroke="#999999" points="888.5,-74 772.5,-74 772.5,-55 888.5,-55 888.5,-74"/>
<text text-anchor="middle" x="830.5" y="-62" font-family="Helvetica,sans-Serif" font-size="10.00">NANDRAD_Material.h</text>
</a>
</g>
</g>
<!-- Node2&#45;&gt;Node12 -->
<g id="edge13_Node000002_Node000012" class="edge">
<title>Node2&#45;&gt;Node12</title>
<g id="a_edge13_Node000002_Node000012"><a xlink:title=" ">
<path fill="none" stroke="#63b8ff" d="M513.59,-111.52C577.29,-102.27 689.99,-85.9 762.41,-75.39"/>
<polygon fill="#63b8ff" stroke="#63b8ff" points="762.96,-78.84 772.35,-73.94 761.95,-71.92 762.96,-78.84"/>
</a>
</g>
</g>
<!-- Node5&#45;&gt;Node4 -->
<g id="edge7_Node000005_Node000004" class="edge">
<title>Node5&#45;&gt;Node4</title>
<g id="a_edge7_Node000005_Node000004"><a xlink:title=" ">
<path fill="none" stroke="#63b8ff" d="M243.17,-54.98C220.3,-46.27 184.54,-32.63 158.64,-22.75"/>
<polygon fill="#63b8ff" stroke="#63b8ff" points="159.83,-19.46 149.24,-19.17 157.34,-26 159.83,-19.46"/>
</a>
</g>
</g>
<!-- Node6 -->
<g id="Node000006" class="node">
<title>Node6</title>
<g id="a_Node000006"><a xlink:title=" ">
<polygon fill="#e0e0e0" stroke="#999999" points="333,-19 198,-19 198,0 333,0 333,-19"/>
<text text-anchor="middle" x="265.5" y="-7" font-family="Helvetica,sans-Serif" font-size="10.00">IBK_MultiLanguageString.h</text>
</a>
</g>
</g>
<!-- Node5&#45;&gt;Node6 -->
<g id="edge5_Node000005_Node000006" class="edge">
<title>Node5&#45;&gt;Node6</title>
<g id="a_edge5_Node000005_Node000006"><a xlink:title=" ">
<path fill="none" stroke="#63b8ff" d="M265.5,-54.75C265.5,-47.8 265.5,-37.85 265.5,-29.13"/>
<polygon fill="#63b8ff" stroke="#63b8ff" points="269,-29.09 265.5,-19.09 262,-29.09 269,-29.09"/>
</a>
</g>
</g>
<!-- Node5&#45;&gt;Node7 -->
<g id="edge6_Node000005_Node000007" class="edge">
<title>Node5&#45;&gt;Node7</title>
<g id="a_edge6_Node000005_Node000007"><a xlink:title=" ">
<path fill="none" stroke="#63b8ff" d="M283.01,-54.98C300.47,-46.5 327.51,-33.35 347.67,-23.54"/>
<polygon fill="#63b8ff" stroke="#63b8ff" points="349.21,-26.69 356.67,-19.17 346.14,-20.4 349.21,-26.69"/>
</a>
</g>
</g>
<!-- Node13&#45;&gt;Node10 -->
<g id="edge17_Node000013_Node000010" class="edge">
<title>Node13&#45;&gt;Node10</title>
<g id="a_edge17_Node000013_Node000010"><a xlink:title=" ">
<path fill="none" stroke="#63b8ff" d="M1023,-109.98C1010.1,-101.84 990.4,-89.41 975.1,-79.76"/>
<polygon fill="#63b8ff" stroke="#63b8ff" points="976.57,-76.55 966.24,-74.17 972.83,-82.47 976.57,-76.55"/>
</a>
</g>
</g>
<!-- Node14 -->
<g id="Node000014" class="node">
<title>Node14</title>
<g id="a_Node000014"><a xlink:title=" ">
<polygon fill="#e0e0e0" stroke="#999999" points="1057,-74 1016,-74 1016,-55 1057,-55 1057,-74"/>
<text text-anchor="middle" x="1036.5" y="-62" font-family="Helvetica,sans-Serif" font-size="10.00">string</text>
</a>
</g>
</g>
<!-- Node13&#45;&gt;Node14 -->
<g id="edge15_Node000013_Node000014" class="edge">
<title>Node13&#45;&gt;Node14</title>
<g id="a_edge15_Node000013_Node000014"><a xlink:title=" ">
<path fill="none" stroke="#63b8ff" d="M1036.5,-109.75C1036.5,-102.8 1036.5,-92.85 1036.5,-84.13"/>
<polygon fill="#63b8ff" stroke="#63b8ff" points="1040,-84.09 1036.5,-74.09 1033,-84.09 1040,-84.09"/>
</a>
</g>
</g>
<!-- Node15 -->
<g id="Node000015" class="node">
<title>Node15</title>
<g id="a_Node000015"><a xlink:title=" ">
<polygon fill="#e0e0e0" stroke="#999999" points="1126,-74 1075,-74 1075,-55 1126,-55 1126,-74"/>
<text text-anchor="middle" x="1100.5" y="-62" font-family="Helvetica,sans-Serif" font-size="10.00">typeinfo</text>
</a>
</g>
</g>
<!-- Node13&#45;&gt;Node15 -->
<g id="edge16_Node000013_Node000015" class="edge">
<title>Node13&#45;&gt;Node15</title>
<g id="a_edge16_Node000013_Node000015"><a xlink:title=" ">
<path fill="none" stroke="#63b8ff" d="M1046.78,-109.98C1056.34,-102.07 1070.78,-90.11 1082.28,-80.58"/>
<polygon fill="#63b8ff" stroke="#63b8ff" points="1084.56,-83.24 1090.03,-74.17 1080.1,-77.85 1084.56,-83.24"/>
</a>
</g>
</g>
<!-- Node16 -->
<g id="Node000016" class="node">
<title>Node16</title>
<g id="a_Node000016"><a xlink:title=" ">
<polygon fill="#e0e0e0" stroke="#999999" points="1222.5,-74 1144.5,-74 1144.5,-55 1222.5,-55 1222.5,-74"/>
<text text-anchor="middle" x="1183.5" y="-62" font-family="Helvetica,sans-Serif" font-size="10.00">IBK_IntPara.h</text>
</a>
</g>
</g>
<!-- Node13&#45;&gt;Node16 -->
<g id="edge18_Node000013_Node000016" class="edge">
<title>Node13&#45;&gt;Node16</title>
<g id="a_edge18_Node000013_Node000016"><a xlink:title=" ">
<path fill="none" stroke="#63b8ff" d="M1060.12,-109.98C1084.4,-101.23 1122.45,-87.51 1149.87,-77.62"/>
<polygon fill="#63b8ff" stroke="#63b8ff" points="1151.23,-80.85 1159.45,-74.17 1148.86,-74.27 1151.23,-80.85"/>
</a>
</g>
</g>
</g>
</svg>
