<?xml version="1.0" encoding="UTF-8" standalone="no"?>
<!DOCTYPE svg PUBLIC "-//W3C//DTD SVG 1.1//EN"
 "http://www.w3.org/Graphics/SVG/1.1/DTD/svg11.dtd">
<!-- Generated by graphviz version 2.43.0 (0)
 -->
<!-- Title: /home/hirth/git/SIM&#45;VICUS.master2/externals/Vicus/src/VICUS_Window.cpp Pages: 1 -->
<svg width="1824pt" height="269pt"
 viewBox="0.00 0.00 1823.50 269.00" xmlns="http://www.w3.org/2000/svg" xmlns:xlink="http://www.w3.org/1999/xlink">
<g id="graph0" class="graph" transform="scale(1 1) rotate(0) translate(4 265)">
<title>/home/hirth/git/SIM&#45;VICUS.master2/externals/Vicus/src/VICUS_Window.cpp</title>
<!-- Node1 -->
<g id="Node000001" class="node">
<title>Node1</title>
<g id="a_Node000001"><a xlink:title=" ">
<polygon fill="#999999" stroke="#666666" points="387,-261 234,-261 234,-220 387,-220 387,-261"/>
<text text-anchor="start" x="242" y="-249" font-family="Helvetica,sans-Serif" font-size="10.00">/home/hirth/git/SIM</text>
<text text-anchor="start" x="242" y="-238" font-family="Helvetica,sans-Serif" font-size="10.00">&#45;VICUS.master2/externals</text>
<text text-anchor="middle" x="310.5" y="-227" font-family="Helvetica,sans-Serif" font-size="10.00">/Vicus/src/VICUS_Window.cpp</text>
</a>
</g>
</g>
<!-- Node2 -->
<g id="Node000002" class="node">
<title>Node2</title>
<g id="a_Node000002"><a xlink:href="_v_i_c_u_s___window_8h.html" target="_top" xlink:title=" ">
<polygon fill="white" stroke="#666666" points="589,-184 494,-184 494,-165 589,-165 589,-184"/>
<text text-anchor="middle" x="541.5" y="-172" font-family="Helvetica,sans-Serif" font-size="10.00">VICUS_Window.h</text>
</a>
</g>
</g>
<!-- Node1&#45;&gt;Node2 -->
<g id="edge1_Node000001_Node000002" class="edge">
<title>Node1&#45;&gt;Node2</title>
<g id="a_edge1_Node000001_Node000002"><a xlink:title=" ">
<path fill="none" stroke="#63b8ff" d="M381.06,-219.95C420.38,-209.06 467.93,-195.88 501.01,-186.72"/>
<polygon fill="#63b8ff" stroke="#63b8ff" points="502.09,-190.05 510.79,-184.01 500.22,-183.31 502.09,-190.05"/>
</a>
</g>
</g>
<!-- Node9 -->
<g id="Node000009" class="node">
<title>Node9</title>
<g id="a_Node000009"><a xlink:href="_v_i_c_u_s___keyword_list_8h.html" target="_top" xlink:title="Contains the declaration of class KeywordList.">
<polygon fill="white" stroke="#666666" points="142.5,-74 26.5,-74 26.5,-55 142.5,-55 142.5,-74"/>
<text text-anchor="middle" x="84.5" y="-62" font-family="Helvetica,sans-Serif" font-size="10.00">VICUS_KeywordList.h</text>
</a>
</g>
</g>
<!-- Node1&#45;&gt;Node9 -->
<g id="edge53_Node000001_Node000009" class="edge">
<title>Node1&#45;&gt;Node9</title>
<g id="a_edge53_Node000001_Node000009"><a xlink:title=" ">
<path fill="none" stroke="#63b8ff" d="M285.01,-219.88C239.41,-184.77 144.82,-111.94 103.98,-80.5"/>
<polygon fill="#63b8ff" stroke="#63b8ff" points="105.96,-77.6 95.9,-74.27 101.68,-83.15 105.96,-77.6"/>
</a>
</g>
</g>
<!-- Node3 -->
<g id="Node000003" class="node">
<title>Node3</title>
<g id="a_Node000003"><a xlink:href="_v_i_c_u_s___code_gen_macros_8h.html" target="_top" xlink:title=" ">
<polygon fill="white" stroke="#666666" points="486,-74 351,-74 351,-55 486,-55 486,-74"/>
<text text-anchor="middle" x="418.5" y="-62" font-family="Helvetica,sans-Serif" font-size="10.00">VICUS_CodeGenMacros.h</text>
</a>
</g>
</g>
<!-- Node2&#45;&gt;Node3 -->
<g id="edge2_Node000002_Node000003" class="edge">
<title>Node2&#45;&gt;Node3</title>
<g id="a_edge2_Node000002_Node000003"><a xlink:title=" ">
<path fill="none" stroke="#63b8ff" d="M534.56,-164.69C524.22,-151.86 503.79,-127.63 483.5,-110 470.54,-98.74 454.66,-87.82 441.84,-79.62"/>
<polygon fill="#63b8ff" stroke="#63b8ff" points="443.47,-76.51 433.13,-74.16 439.75,-82.44 443.47,-76.51"/>
</a>
</g>
</g>
<!-- Node4 -->
<g id="Node000004" class="node">
<title>Node4</title>
<g id="a_Node000004"><a xlink:href="_v_i_c_u_s___constants_8h.html" target="_top" xlink:title="Contains global constants for the SIM&#45;VICUS data model.">
<polygon fill="white" stroke="#666666" points="963,-19 856,-19 856,0 963,0 963,-19"/>
<text text-anchor="middle" x="909.5" y="-7" font-family="Helvetica,sans-Serif" font-size="10.00">VICUS_Constants.h</text>
</a>
</g>
</g>
<!-- Node2&#45;&gt;Node4 -->
<g id="edge3_Node000002_Node000004" class="edge">
<title>Node2&#45;&gt;Node4</title>
<g id="a_edge3_Node000002_Node000004"><a xlink:title=" ">
<path fill="none" stroke="#63b8ff" d="M589.04,-171.99C767.06,-165.85 1386.94,-139.86 1442.5,-74 1447.95,-67.55 1448.22,-61.21 1442.5,-55 1411.29,-21.07 1107.79,-13.01 973.21,-11.09"/>
<polygon fill="#63b8ff" stroke="#63b8ff" points="973.09,-7.59 963.04,-10.95 973,-14.59 973.09,-7.59"/>
</a>
</g>
</g>
<!-- Node5 -->
<g id="Node000005" class="node">
<title>Node5</title>
<g id="a_Node000005"><a xlink:href="_v_i_c_u_s___abstract_d_b_element_8h.html" target="_top" xlink:title=" ">
<polygon fill="white" stroke="#666666" points="759,-74 610,-74 610,-55 759,-55 759,-74"/>
<text text-anchor="middle" x="684.5" y="-62" font-family="Helvetica,sans-Serif" font-size="10.00">VICUS_AbstractDBElement.h</text>
</a>
</g>
</g>
<!-- Node2&#45;&gt;Node5 -->
<g id="edge4_Node000002_Node000005" class="edge">
<title>Node2&#45;&gt;Node5</title>
<g id="a_edge4_Node000002_Node000005"><a xlink:title=" ">
<path fill="none" stroke="#63b8ff" d="M547.69,-164.79C557.36,-151.63 577.17,-126.5 598.5,-110 615.17,-97.1 636.15,-86.16 653.21,-78.36"/>
<polygon fill="#63b8ff" stroke="#63b8ff" points="655.01,-81.39 662.74,-74.13 652.18,-74.99 655.01,-81.39"/>
</a>
</g>
</g>
<!-- Node7 -->
<g id="Node000007" class="node">
<title>Node7</title>
<g id="a_Node000007"><a xlink:title=" ">
<polygon fill="#e0e0e0" stroke="#999999" points="454,-19 407,-19 407,0 454,0 454,-19"/>
<text text-anchor="middle" x="430.5" y="-7" font-family="Helvetica,sans-Serif" font-size="10.00">QColor</text>
</a>
</g>
</g>
<!-- Node2&#45;&gt;Node7 -->
<g id="edge52_Node000002_Node000007" class="edge">
<title>Node2&#45;&gt;Node7</title>
<g id="a_edge52_Node000002_Node000007"><a xlink:title=" ">
<path fill="none" stroke="#63b8ff" d="M493.86,-170.81C403.6,-165.24 214.9,-151.06 195.5,-129 175.37,-106.12 201.24,-72.65 224.5,-55 251.23,-34.71 345.44,-20.65 396.69,-14.31"/>
<polygon fill="#63b8ff" stroke="#63b8ff" points="397.42,-17.74 406.93,-13.07 396.58,-10.8 397.42,-17.74"/>
</a>
</g>
</g>
<!-- Node8 -->
<g id="Node000008" class="node">
<title>Node8</title>
<g id="a_Node000008"><a xlink:href="_v_i_c_u_s___window_frame_8h.html" target="_top" xlink:title=" ">
<polygon fill="white" stroke="#666666" points="475,-129 350,-129 350,-110 475,-110 475,-129"/>
<text text-anchor="middle" x="412.5" y="-117" font-family="Helvetica,sans-Serif" font-size="10.00">VICUS_WindowFrame.h</text>
</a>
</g>
</g>
<!-- Node2&#45;&gt;Node8 -->
<g id="edge8_Node000002_Node000008" class="edge">
<title>Node2&#45;&gt;Node8</title>
<g id="a_edge8_Node000002_Node000008"><a xlink:title=" ">
<path fill="none" stroke="#63b8ff" d="M520.77,-164.98C499.74,-156.34 466.95,-142.87 442.96,-133.02"/>
<polygon fill="#63b8ff" stroke="#63b8ff" points="444.18,-129.73 433.6,-129.17 441.52,-136.21 444.18,-129.73"/>
</a>
</g>
</g>
<!-- Node14 -->
<g id="Node000014" class="node">
<title>Node14</title>
<g id="a_Node000014"><a xlink:title=" ">
<polygon fill="#e0e0e0" stroke="#999999" points="554.5,-74 504.5,-74 504.5,-55 554.5,-55 554.5,-74"/>
<text text-anchor="middle" x="529.5" y="-62" font-family="Helvetica,sans-Serif" font-size="10.00">QString</text>
</a>
</g>
</g>
<!-- Node2&#45;&gt;Node14 -->
<g id="edge51_Node000002_Node000014" class="edge">
<title>Node2&#45;&gt;Node14</title>
<g id="a_edge51_Node000002_Node000014"><a xlink:title=" ">
<path fill="none" stroke="#63b8ff" d="M540.52,-164.66C538.57,-147.17 534.2,-107.8 531.59,-84.27"/>
<polygon fill="#63b8ff" stroke="#63b8ff" points="535.05,-83.71 530.46,-74.16 528.09,-84.48 535.05,-83.71"/>
</a>
</g>
</g>
<!-- Node15 -->
<g id="Node000015" class="node">
<title>Node15</title>
<g id="a_Node000015"><a xlink:href="_v_i_c_u_s___window_glazing_system_8h.html" target="_top" xlink:title=" ">
<polygon fill="white" stroke="#666666" points="771.5,-129 607.5,-129 607.5,-110 771.5,-110 771.5,-129"/>
<text text-anchor="middle" x="689.5" y="-117" font-family="Helvetica,sans-Serif" font-size="10.00">VICUS_WindowGlazingSystem.h</text>
</a>
</g>
</g>
<!-- Node2&#45;&gt;Node15 -->
<g id="edge19_Node000002_Node000015" class="edge">
<title>Node2&#45;&gt;Node15</title>
<g id="a_edge19_Node000002_Node000015"><a xlink:title=" ">
<path fill="none" stroke="#63b8ff" d="M565.28,-164.98C589.73,-156.23 628.03,-142.51 655.65,-132.62"/>
<polygon fill="#63b8ff" stroke="#63b8ff" points="657.05,-135.84 665.29,-129.17 654.69,-129.25 657.05,-135.84"/>
</a>
</g>
</g>
<!-- Node18 -->
<g id="Node000018" class="node">
<title>Node18</title>
<g id="a_Node000018"><a xlink:href="_v_i_c_u_s___window_divider_8h.html" target="_top" xlink:title=" ">
<polygon fill="white" stroke="#666666" points="332,-129 205,-129 205,-110 332,-110 332,-129"/>
<text text-anchor="middle" x="268.5" y="-117" font-family="Helvetica,sans-Serif" font-size="10.00">VICUS_WindowDivider.h</text>
</a>
</g>
</g>
<!-- Node2&#45;&gt;Node18 -->
<g id="edge28_Node000002_Node000018" class="edge">
<title>Node2&#45;&gt;Node18</title>
<g id="a_edge28_Node000002_Node000018"><a xlink:title=" ">
<path fill="none" stroke="#63b8ff" d="M497.64,-164.98C450.02,-155.74 373.92,-140.97 322.62,-131.01"/>
<polygon fill="#63b8ff" stroke="#63b8ff" points="323.19,-127.55 312.71,-129.08 321.86,-134.42 323.19,-127.55"/>
</a>
</g>
</g>
<!-- Node19 -->
<g id="Node000019" class="node">
<title>Node19</title>
<g id="a_Node000019"><a xlink:href="_v_i_c_u_s___database_8h.html" target="_top" xlink:title=" ">
<polygon fill="white" stroke="#666666" points="1631.5,-129 1527.5,-129 1527.5,-110 1631.5,-110 1631.5,-129"/>
<text text-anchor="middle" x="1579.5" y="-117" font-family="Helvetica,sans-Serif" font-size="10.00">VICUS_Database.h</text>
</a>
</g>
</g>
<!-- Node2&#45;&gt;Node19 -->
<g id="edge35_Node000002_Node000019" class="edge">
<title>Node2&#45;&gt;Node19</title>
<g id="a_edge35_Node000002_Node000019"><a xlink:title=" ">
<path fill="none" stroke="#63b8ff" d="M589.25,-172.21C728.95,-168.24 1148.91,-154.88 1496.5,-129 1503.2,-128.5 1510.19,-127.9 1517.15,-127.26"/>
<polygon fill="#63b8ff" stroke="#63b8ff" points="1517.67,-130.73 1527.29,-126.29 1517.01,-123.76 1517.67,-130.73"/>
</a>
</g>
</g>
<!-- Node24 -->
<g id="Node000024" class="node">
<title>Node24</title>
<g id="a_Node000024"><a xlink:href="_v_i_c_u_s___material_8h.html" target="_top" xlink:title=" ">
<polygon fill="white" stroke="#666666" points="1111.5,-129 1015.5,-129 1015.5,-110 1111.5,-110 1111.5,-129"/>
<text text-anchor="middle" x="1063.5" y="-117" font-family="Helvetica,sans-Serif" font-size="10.00">VICUS_Material.h</text>
</a>
</g>
</g>
<!-- Node2&#45;&gt;Node24 -->
<g id="edge41_Node000002_Node000024" class="edge">
<title>Node2&#45;&gt;Node24</title>
<g id="a_edge41_Node000002_Node000024"><a xlink:title=" ">
<path fill="none" stroke="#63b8ff" d="M589.21,-168.66C685.18,-158.91 901.26,-136.97 1005.32,-126.41"/>
<polygon fill="#63b8ff" stroke="#63b8ff" points="1005.74,-129.88 1015.34,-125.39 1005.03,-122.92 1005.74,-129.88"/>
</a>
</g>
</g>
<!-- Node5&#45;&gt;Node4 -->
<g id="edge7_Node000005_Node000004" class="edge">
<title>Node5&#45;&gt;Node4</title>
<g id="a_edge7_Node000005_Node000004"><a xlink:title=" ">
<path fill="none" stroke="#63b8ff" d="M720.65,-54.98C759.41,-45.86 821.05,-31.33 863.3,-21.38"/>
<polygon fill="#63b8ff" stroke="#63b8ff" points="864.14,-24.78 873.07,-19.08 862.53,-17.97 864.14,-24.78"/>
</a>
</g>
</g>
<!-- Node6 -->
<g id="Node000006" class="node">
<title>Node6</title>
<g id="a_Node000006"><a xlink:title=" ">
<polygon fill="#e0e0e0" stroke="#999999" points="729,-19 594,-19 594,0 729,0 729,-19"/>
<text text-anchor="middle" x="661.5" y="-7" font-family="Helvetica,sans-Serif" font-size="10.00">IBK_MultiLanguageString.h</text>
</a>
</g>
</g>
<!-- Node5&#45;&gt;Node6 -->
<g id="edge5_Node000005_Node000006" class="edge">
<title>Node5&#45;&gt;Node6</title>
<g id="a_edge5_Node000005_Node000006"><a xlink:title=" ">
<path fill="none" stroke="#63b8ff" d="M680.7,-54.75C677.59,-47.57 673.08,-37.18 669.21,-28.27"/>
<polygon fill="#63b8ff" stroke="#63b8ff" points="672.42,-26.87 665.23,-19.09 666,-29.66 672.42,-26.87"/>
</a>
</g>
</g>
<!-- Node5&#45;&gt;Node7 -->
<g id="edge6_Node000005_Node000007" class="edge">
<title>Node5&#45;&gt;Node7</title>
<g id="a_edge6_Node000005_Node000007"><a xlink:title=" ">
<path fill="none" stroke="#63b8ff" d="M643.69,-54.98C593.76,-44.57 510.17,-27.12 463.88,-17.47"/>
<polygon fill="#63b8ff" stroke="#63b8ff" points="464.56,-14.03 454.05,-15.41 463.13,-20.88 464.56,-14.03"/>
</a>
</g>
</g>
<!-- Node8&#45;&gt;Node3 -->
<g id="edge9_Node000008_Node000003" class="edge">
<title>Node8&#45;&gt;Node3</title>
<g id="a_edge9_Node000008_Node000003"><a xlink:title=" ">
<path fill="none" stroke="#63b8ff" d="M413.49,-109.75C414.28,-102.8 415.4,-92.85 416.39,-84.13"/>
<polygon fill="#63b8ff" stroke="#63b8ff" points="419.88,-84.42 417.53,-74.09 412.92,-83.63 419.88,-84.42"/>
</a>
</g>
</g>
<!-- Node8&#45;&gt;Node4 -->
<g id="edge10_Node000008_Node000004" class="edge">
<title>Node8&#45;&gt;Node4</title>
<g id="a_edge10_Node000008_Node000004"><a xlink:title=" ">
<path fill="none" stroke="#63b8ff" d="M389.75,-109.81C362.2,-98.08 321.78,-76.18 341.5,-55 378.23,-15.56 756.71,-23.94 845.9,-18.73"/>
<polygon fill="#63b8ff" stroke="#63b8ff" points="846.21,-22.22 855.91,-17.96 845.67,-15.24 846.21,-22.22"/>
</a>
</g>
</g>
<!-- Node8&#45;&gt;Node5 -->
<g id="edge11_Node000008_Node000005" class="edge">
<title>Node8&#45;&gt;Node5</title>
<g id="a_edge11_Node000008_Node000005"><a xlink:title=" ">
<path fill="none" stroke="#63b8ff" d="M456.2,-109.98C503.65,-100.74 579.47,-85.97 630.58,-76.01"/>
<polygon fill="#63b8ff" stroke="#63b8ff" points="631.31,-79.43 640.46,-74.08 629.97,-72.56 631.31,-79.43"/>
</a>
</g>
</g>
<!-- Node8&#45;&gt;Node7 -->
<g id="edge18_Node000008_Node000007" class="edge">
<title>Node8&#45;&gt;Node7</title>
<g id="a_edge18_Node000008_Node000007"><a xlink:title=" ">
<path fill="none" stroke="#63b8ff" d="M370.72,-109.93C334.01,-100.38 289.22,-82.56 308.5,-55 328.3,-26.7 368.09,-16.34 396.85,-12.57"/>
<polygon fill="#63b8ff" stroke="#63b8ff" points="397.34,-16.04 406.89,-11.47 396.57,-9.08 397.34,-16.04"/>
</a>
</g>
</g>
<!-- Node8&#45;&gt;Node9 -->
<g id="edge12_Node000008_Node000009" class="edge">
<title>Node8&#45;&gt;Node9</title>
<g id="a_edge12_Node000008_Node000009"><a xlink:title=" ">
<path fill="none" stroke="#63b8ff" d="M359.8,-109.98C301.91,-100.63 208.97,-85.61 147.33,-75.65"/>
<polygon fill="#63b8ff" stroke="#63b8ff" points="147.77,-72.18 137.34,-74.04 146.65,-79.09 147.77,-72.18"/>
</a>
</g>
</g>
<!-- Node8&#45;&gt;Node14 -->
<g id="edge17_Node000008_Node000014" class="edge">
<title>Node8&#45;&gt;Node14</title>
<g id="a_edge17_Node000008_Node000014"><a xlink:title=" ">
<path fill="none" stroke="#63b8ff" d="M431.3,-109.98C450.12,-101.46 479.32,-88.23 501,-78.41"/>
<polygon fill="#63b8ff" stroke="#63b8ff" points="502.7,-81.48 510.36,-74.17 499.81,-75.11 502.7,-81.48"/>
</a>
</g>
</g>
<!-- Node10 -->
<g id="Node000010" class="node">
<title>Node10</title>
<g id="a_Node000010"><a xlink:title=" ">
<polygon fill="#e0e0e0" stroke="#999999" points="41,-19 0,-19 0,0 41,0 41,-19"/>
<text text-anchor="middle" x="20.5" y="-7" font-family="Helvetica,sans-Serif" font-size="10.00">string</text>
</a>
</g>
</g>
<!-- Node9&#45;&gt;Node10 -->
<g id="edge13_Node000009_Node000010" class="edge">
<title>Node9&#45;&gt;Node10</title>
<g id="a_edge13_Node000009_Node000010"><a xlink:title=" ">
<path fill="none" stroke="#63b8ff" d="M74.22,-54.98C64.66,-47.07 50.22,-35.11 38.72,-25.58"/>
<polygon fill="#63b8ff" stroke="#63b8ff" points="40.9,-22.85 30.97,-19.17 36.44,-28.24 40.9,-22.85"/>
</a>
</g>
</g>
<!-- Node11 -->
<g id="Node000011" class="node">
<title>Node11</title>
<g id="a_Node000011"><a xlink:title=" ">
<polygon fill="#e0e0e0" stroke="#999999" points="110,-19 59,-19 59,0 110,0 110,-19"/>
<text text-anchor="middle" x="84.5" y="-7" font-family="Helvetica,sans-Serif" font-size="10.00">typeinfo</text>
</a>
</g>
</g>
<!-- Node9&#45;&gt;Node11 -->
<g id="edge14_Node000009_Node000011" class="edge">
<title>Node9&#45;&gt;Node11</title>
<g id="a_edge14_Node000009_Node000011"><a xlink:title=" ">
<path fill="none" stroke="#63b8ff" d="M84.5,-54.75C84.5,-47.8 84.5,-37.85 84.5,-29.13"/>
<polygon fill="#63b8ff" stroke="#63b8ff" points="88,-29.09 84.5,-19.09 81,-29.09 88,-29.09"/>
</a>
</g>
</g>
<!-- Node12 -->
<g id="Node000012" class="node">
<title>Node12</title>
<g id="a_Node000012"><a xlink:title=" ">
<polygon fill="#e0e0e0" stroke="#999999" points="838,-19 747,-19 747,0 838,0 838,-19"/>
<text text-anchor="middle" x="792.5" y="-7" font-family="Helvetica,sans-Serif" font-size="10.00">IBK_Parameter.h</text>
</a>
</g>
</g>
<!-- Node9&#45;&gt;Node12 -->
<g id="edge15_Node000009_Node000012" class="edge">
<title>Node9&#45;&gt;Node12</title>
<g id="a_edge15_Node000009_Node000012"><a xlink:title=" ">
<path fill="none" stroke="#63b8ff" d="M142.65,-60.18C276.65,-52.42 605.08,-32.8 736.67,-18.96"/>
<polygon fill="#63b8ff" stroke="#63b8ff" points="737.36,-22.41 746.92,-17.85 736.6,-15.45 737.36,-22.41"/>
</a>
</g>
</g>
<!-- Node13 -->
<g id="Node000013" class="node">
<title>Node13</title>
<g id="a_Node000013"><a xlink:title=" ">
<polygon fill="#e0e0e0" stroke="#999999" points="206.5,-19 128.5,-19 128.5,0 206.5,0 206.5,-19"/>
<text text-anchor="middle" x="167.5" y="-7" font-family="Helvetica,sans-Serif" font-size="10.00">IBK_IntPara.h</text>
</a>
</g>
</g>
<!-- Node9&#45;&gt;Node13 -->
<g id="edge16_Node000009_Node000013" class="edge">
<title>Node9&#45;&gt;Node13</title>
<g id="a_edge16_Node000009_Node000013"><a xlink:title=" ">
<path fill="none" stroke="#63b8ff" d="M97.84,-54.98C110.59,-46.84 130.05,-34.41 145.17,-24.76"/>
<polygon fill="#63b8ff" stroke="#63b8ff" points="147.38,-27.5 153.92,-19.17 143.61,-21.6 147.38,-27.5"/>
</a>
</g>
</g>
<!-- Node15&#45;&gt;Node3 -->
<g id="edge20_Node000015_Node000003" class="edge">
<title>Node15&#45;&gt;Node3</title>
<g id="a_edge20_Node000015_Node000003"><a xlink:title=" ">
<path fill="none" stroke="#63b8ff" d="M645.96,-109.98C598.69,-100.74 523.15,-85.97 472.22,-76.01"/>
<polygon fill="#63b8ff" stroke="#63b8ff" points="472.87,-72.57 462.38,-74.08 471.52,-79.44 472.87,-72.57"/>
</a>
</g>
</g>
<!-- Node15&#45;&gt;Node4 -->
<g id="edge21_Node000015_Node000004" class="edge">
<title>Node15&#45;&gt;Node4</title>
<g id="a_edge21_Node000015_Node000004"><a xlink:title=" ">
<path fill="none" stroke="#63b8ff" d="M744.94,-109.99C776.32,-103.46 815.38,-92.35 846.5,-74 866.88,-61.98 885.32,-41.77 896.91,-27.38"/>
<polygon fill="#63b8ff" stroke="#63b8ff" points="899.82,-29.34 903.19,-19.3 894.29,-25.05 899.82,-29.34"/>
</a>
</g>
</g>
<!-- Node15&#45;&gt;Node5 -->
<g id="edge22_Node000015_Node000005" class="edge">
<title>Node15&#45;&gt;Node5</title>
<g id="a_edge22_Node000015_Node000005"><a xlink:title=" ">
<path fill="none" stroke="#63b8ff" d="M688.67,-109.75C688.02,-102.8 687.08,-92.85 686.26,-84.13"/>
<polygon fill="#63b8ff" stroke="#63b8ff" points="689.73,-83.72 685.31,-74.09 682.77,-84.37 689.73,-83.72"/>
</a>
</g>
</g>
<!-- Node15&#45;&gt;Node7 -->
<g id="edge24_Node000015_Node000007" class="edge">
<title>Node15&#45;&gt;Node7</title>
<g id="a_edge24_Node000015_Node000007"><a xlink:title=" ">
<path fill="none" stroke="#63b8ff" d="M672.08,-109.86C654.11,-100.93 625.31,-86.57 600.5,-74 584.01,-65.64 580.54,-62.18 563.5,-55 530.47,-41.09 491.45,-28.46 464.25,-20.24"/>
<polygon fill="#63b8ff" stroke="#63b8ff" points="465.03,-16.82 454.45,-17.32 463.03,-23.53 465.03,-16.82"/>
</a>
</g>
</g>
<!-- Node15&#45;&gt;Node12 -->
<g id="edge26_Node000015_Node000012" class="edge">
<title>Node15&#45;&gt;Node12</title>
<g id="a_edge26_Node000015_Node000012"><a xlink:title=" ">
<path fill="none" stroke="#63b8ff" d="M771.56,-110.32C793.91,-103.89 815.72,-92.84 829.5,-74 840.94,-58.36 825.78,-38.93 811.56,-25.71"/>
<polygon fill="#63b8ff" stroke="#63b8ff" points="813.77,-22.99 803.93,-19.07 809.18,-28.27 813.77,-22.99"/>
</a>
</g>
</g>
<!-- Node15&#45;&gt;Node14 -->
<g id="edge23_Node000015_Node000014" class="edge">
<title>Node15&#45;&gt;Node14</title>
<g id="a_edge23_Node000015_Node000014"><a xlink:title=" ">
<path fill="none" stroke="#63b8ff" d="M663.79,-109.98C636.81,-101.05 594.22,-86.94 564.25,-77.01"/>
<polygon fill="#63b8ff" stroke="#63b8ff" points="565.21,-73.64 554.62,-73.82 563.01,-80.29 565.21,-73.64"/>
</a>
</g>
</g>
<!-- Node16 -->
<g id="Node000016" class="node">
<title>Node16</title>
<g id="a_Node000016"><a xlink:title=" ">
<polygon fill="#e0e0e0" stroke="#999999" points="820.5,-74 776.5,-74 776.5,-55 820.5,-55 820.5,-74"/>
<text text-anchor="middle" x="798.5" y="-62" font-family="Helvetica,sans-Serif" font-size="10.00">vector</text>
</a>
</g>
</g>
<!-- Node15&#45;&gt;Node16 -->
<g id="edge25_Node000015_Node000016" class="edge">
<title>Node15&#45;&gt;Node16</title>
<g id="a_edge25_Node000015_Node000016"><a xlink:title=" ">
<path fill="none" stroke="#63b8ff" d="M707.01,-109.98C724.47,-101.5 751.51,-88.35 771.67,-78.54"/>
<polygon fill="#63b8ff" stroke="#63b8ff" points="773.21,-81.69 780.67,-74.17 770.14,-75.4 773.21,-81.69"/>
</a>
</g>
</g>
<!-- Node17 -->
<g id="Node000017" class="node">
<title>Node17</title>
<g id="a_Node000017"><a xlink:title=" ">
<polygon fill="#e0e0e0" stroke="#999999" points="1094,-74 915,-74 915,-55 1094,-55 1094,-74"/>
<text text-anchor="middle" x="1004.5" y="-62" font-family="Helvetica,sans-Serif" font-size="10.00">NANDRAD_LinearSplineParameter.h</text>
</a>
</g>
</g>
<!-- Node15&#45;&gt;Node17 -->
<g id="edge27_Node000015_Node000017" class="edge">
<title>Node15&#45;&gt;Node17</title>
<g id="a_edge27_Node000015_Node000017"><a xlink:title=" ">
<path fill="none" stroke="#63b8ff" d="M740.11,-109.98C795.6,-100.65 884.59,-85.67 943.79,-75.71"/>
<polygon fill="#63b8ff" stroke="#63b8ff" points="944.47,-79.15 953.75,-74.04 943.31,-72.25 944.47,-79.15"/>
</a>
</g>
</g>
<!-- Node18&#45;&gt;Node3 -->
<g id="edge29_Node000018_Node000003" class="edge">
<title>Node18&#45;&gt;Node3</title>
<g id="a_edge29_Node000018_Node000003"><a xlink:title=" ">
<path fill="none" stroke="#63b8ff" d="M292.6,-109.98C317.38,-101.23 356.2,-87.51 384.19,-77.62"/>
<polygon fill="#63b8ff" stroke="#63b8ff" points="385.7,-80.8 393.96,-74.17 383.37,-74.2 385.7,-80.8"/>
</a>
</g>
</g>
<!-- Node18&#45;&gt;Node4 -->
<g id="edge30_Node000018_Node000004" class="edge">
<title>Node18&#45;&gt;Node4</title>
<g id="a_edge30_Node000018_Node000004"><a xlink:title=" ">
<path fill="none" stroke="#63b8ff" d="M274.29,-109.55C284.21,-95.1 305.99,-67.02 332.5,-55 434.03,-8.96 717.13,-29.5 845.8,-18.9"/>
<polygon fill="#63b8ff" stroke="#63b8ff" points="846.28,-22.37 855.91,-17.97 845.63,-15.4 846.28,-22.37"/>
</a>
</g>
</g>
<!-- Node18&#45;&gt;Node5 -->
<g id="edge31_Node000018_Node000005" class="edge">
<title>Node18&#45;&gt;Node5</title>
<g id="a_edge31_Node000018_Node000005"><a xlink:title=" ">
<path fill="none" stroke="#63b8ff" d="M332.13,-110.39C406.24,-100.95 528.58,-85.37 607.85,-75.27"/>
<polygon fill="#63b8ff" stroke="#63b8ff" points="608.3,-78.74 617.77,-74 607.41,-71.79 608.3,-78.74"/>
</a>
</g>
</g>
<!-- Node18&#45;&gt;Node7 -->
<g id="edge34_Node000018_Node000007" class="edge">
<title>Node18&#45;&gt;Node7</title>
<g id="a_edge34_Node000018_Node000007"><a xlink:title=" ">
<path fill="none" stroke="#63b8ff" d="M257.35,-109.95C242.1,-97.24 218.17,-72.91 232.5,-55 252.69,-29.77 345.62,-17.85 396.67,-13.12"/>
<polygon fill="#63b8ff" stroke="#63b8ff" points="397.24,-16.58 406.89,-12.21 396.62,-9.61 397.24,-16.58"/>
</a>
</g>
</g>
<!-- Node18&#45;&gt;Node9 -->
<g id="edge32_Node000018_Node000009" class="edge">
<title>Node18&#45;&gt;Node9</title>
<g id="a_edge32_Node000018_Node000009"><a xlink:title=" ">
<path fill="none" stroke="#63b8ff" d="M238.94,-109.98C207.78,-101.01 158.53,-86.82 124.04,-76.89"/>
<polygon fill="#63b8ff" stroke="#63b8ff" points="124.87,-73.49 114.29,-74.08 122.93,-80.21 124.87,-73.49"/>
</a>
</g>
</g>
<!-- Node18&#45;&gt;Node14 -->
<g id="edge33_Node000018_Node000014" class="edge">
<title>Node18&#45;&gt;Node14</title>
<g id="a_edge33_Node000018_Node000014"><a xlink:title=" ">
<path fill="none" stroke="#63b8ff" d="M314.94,-109.97C360.71,-101.42 432.59,-87.61 494.5,-74 494.6,-73.98 494.7,-73.96 494.8,-73.93"/>
<polygon fill="#63b8ff" stroke="#63b8ff" points="495.33,-77.4 504.3,-71.76 493.77,-70.58 495.33,-77.4"/>
</a>
</g>
</g>
<!-- Node19&#45;&gt;Node5 -->
<g id="edge37_Node000019_Node000005" class="edge">
<title>Node19&#45;&gt;Node5</title>
<g id="a_edge37_Node000019_Node000005"><a xlink:title=" ">
<path fill="none" stroke="#63b8ff" d="M1527.19,-116.49C1399.6,-111.41 1061.96,-96.85 769.53,-74.12"/>
<polygon fill="#63b8ff" stroke="#63b8ff" points="769.38,-70.6 759.14,-73.31 768.84,-77.58 769.38,-70.6"/>
</a>
</g>
</g>
<!-- Node20 -->
<g id="Node000020" class="node">
<title>Node20</title>
<g id="a_Node000020"><a xlink:title=" ">
<polygon fill="#e0e0e0" stroke="#999999" points="1546,-74 1511,-74 1511,-55 1546,-55 1546,-74"/>
<text text-anchor="middle" x="1528.5" y="-62" font-family="Helvetica,sans-Serif" font-size="10.00">map</text>
</a>
</g>
</g>
<!-- Node19&#45;&gt;Node20 -->
<g id="edge36_Node000019_Node000020" class="edge">
<title>Node19&#45;&gt;Node20</title>
<g id="a_edge36_Node000019_Node000020"><a xlink:title=" ">
<path fill="none" stroke="#63b8ff" d="M1571.08,-109.75C1563.73,-102.11 1552.87,-90.82 1543.96,-81.56"/>
<polygon fill="#63b8ff" stroke="#63b8ff" points="1546.22,-78.87 1536.76,-74.09 1541.18,-83.72 1546.22,-78.87"/>
</a>
</g>
</g>
<!-- Node21 -->
<g id="Node000021" class="node">
<title>Node21</title>
<g id="a_Node000021"><a xlink:title=" ">
<polygon fill="#e0e0e0" stroke="#999999" points="1631,-74 1564,-74 1564,-55 1631,-55 1631,-74"/>
<text text-anchor="middle" x="1597.5" y="-62" font-family="Helvetica,sans-Serif" font-size="10.00">IBK_Path.h</text>
</a>
</g>
</g>
<!-- Node19&#45;&gt;Node21 -->
<g id="edge38_Node000019_Node000021" class="edge">
<title>Node19&#45;&gt;Node21</title>
<g id="a_edge38_Node000019_Node000021"><a xlink:title=" ">
<path fill="none" stroke="#63b8ff" d="M1582.47,-109.75C1584.86,-102.72 1588.29,-92.62 1591.27,-83.84"/>
<polygon fill="#63b8ff" stroke="#63b8ff" points="1594.68,-84.68 1594.58,-74.09 1588.05,-82.43 1594.68,-84.68"/>
</a>
</g>
</g>
<!-- Node22 -->
<g id="Node000022" class="node">
<title>Node22</title>
<g id="a_Node000022"><a xlink:title=" ">
<polygon fill="#e0e0e0" stroke="#999999" points="1741.5,-74 1649.5,-74 1649.5,-55 1741.5,-55 1741.5,-74"/>
<text text-anchor="middle" x="1695.5" y="-62" font-family="Helvetica,sans-Serif" font-size="10.00">IBK_messages.h</text>
</a>
</g>
</g>
<!-- Node19&#45;&gt;Node22 -->
<g id="edge39_Node000019_Node000022" class="edge">
<title>Node19&#45;&gt;Node22</title>
<g id="a_edge39_Node000019_Node000022"><a xlink:title=" ">
<path fill="none" stroke="#63b8ff" d="M1598.14,-109.98C1616.8,-101.46 1645.75,-88.23 1667.24,-78.41"/>
<polygon fill="#63b8ff" stroke="#63b8ff" points="1668.88,-81.51 1676.52,-74.17 1665.97,-75.14 1668.88,-81.51"/>
</a>
</g>
</g>
<!-- Node23 -->
<g id="Node000023" class="node">
<title>Node23</title>
<g id="a_Node000023"><a xlink:title=" ">
<polygon fill="#e0e0e0" stroke="#999999" points="1815.5,-74 1759.5,-74 1759.5,-55 1815.5,-55 1815.5,-74"/>
<text text-anchor="middle" x="1787.5" y="-62" font-family="Helvetica,sans-Serif" font-size="10.00">tinyxml.h</text>
</a>
</g>
</g>
<!-- Node19&#45;&gt;Node23 -->
<g id="edge40_Node000019_Node000023" class="edge">
<title>Node19&#45;&gt;Node23</title>
<g id="a_edge40_Node000019_Node000023"><a xlink:title=" ">
<path fill="none" stroke="#63b8ff" d="M1612.92,-109.98C1650.24,-100.48 1710.51,-85.12 1749.57,-75.17"/>
<polygon fill="#63b8ff" stroke="#63b8ff" points="1750.67,-78.5 1759.5,-72.63 1748.94,-71.71 1750.67,-78.5"/>
</a>
</g>
</g>
<!-- Node24&#45;&gt;Node3 -->
<g id="edge42_Node000024_Node000003" class="edge">
<title>Node24&#45;&gt;Node3</title>
<g id="a_edge42_Node000024_Node000003"><a xlink:title=" ">
<path fill="none" stroke="#63b8ff" d="M1015.21,-115.24C918.79,-108.61 695.35,-92.68 496.16,-74.03"/>
<polygon fill="#63b8ff" stroke="#63b8ff" points="496.38,-70.54 486.09,-73.08 495.72,-77.51 496.38,-70.54"/>
</a>
</g>
</g>
<!-- Node24&#45;&gt;Node4 -->
<g id="edge43_Node000024_Node000004" class="edge">
<title>Node24&#45;&gt;Node4</title>
<g id="a_edge43_Node000024_Node000004"><a xlink:title=" ">
<path fill="none" stroke="#63b8ff" d="M1111.64,-117.53C1219.73,-114.51 1468.96,-102.37 1425.5,-55 1395.5,-22.3 1104.95,-13.57 973.51,-11.29"/>
<polygon fill="#63b8ff" stroke="#63b8ff" points="973.25,-7.78 963.19,-11.12 973.13,-14.78 973.25,-7.78"/>
</a>
</g>
</g>
<!-- Node24&#45;&gt;Node5 -->
<g id="edge44_Node000024_Node000005" class="edge">
<title>Node24&#45;&gt;Node5</title>
<g id="a_edge44_Node000024_Node000005"><a xlink:title=" ">
<path fill="none" stroke="#63b8ff" d="M1015.5,-111.79C949.83,-102.6 831.48,-86.05 755.53,-75.43"/>
<polygon fill="#63b8ff" stroke="#63b8ff" points="755.95,-71.96 745.57,-74.04 754.98,-78.89 755.95,-71.96"/>
</a>
</g>
</g>
<!-- Node24&#45;&gt;Node7 -->
<g id="edge46_Node000024_Node000007" class="edge">
<title>Node24&#45;&gt;Node7</title>
<g id="a_edge46_Node000024_Node000007"><a xlink:title=" ">
<path fill="none" stroke="#63b8ff" d="M1075.43,-109.96C1092.09,-97.03 1118.59,-72.19 1102.5,-55 1096.98,-49.1 600.11,-20.22 464.41,-12.44"/>
<polygon fill="#63b8ff" stroke="#63b8ff" points="464.38,-8.93 454.2,-11.85 463.98,-15.92 464.38,-8.93"/>
</a>
</g>
</g>
<!-- Node24&#45;&gt;Node12 -->
<g id="edge48_Node000024_Node000012" class="edge">
<title>Node24&#45;&gt;Node12</title>
<g id="a_edge48_Node000024_Node000012"><a xlink:title=" ">
<path fill="none" stroke="#63b8ff" d="M1087.13,-109.87C1115.17,-98.37 1155.85,-76.9 1136.5,-55 1095.35,-8.43 926.25,-26.31 848.1,-18.95"/>
<polygon fill="#63b8ff" stroke="#63b8ff" points="848.49,-15.47 838.15,-17.79 847.68,-22.42 848.49,-15.47"/>
</a>
</g>
</g>
<!-- Node24&#45;&gt;Node14 -->
<g id="edge45_Node000024_Node000014" class="edge">
<title>Node24&#45;&gt;Node14</title>
<g id="a_edge45_Node000024_Node000014"><a xlink:title=" ">
<path fill="none" stroke="#63b8ff" d="M1015.47,-114.26C931.34,-106.74 751.84,-90.33 600.5,-74 588.88,-72.75 576.2,-71.26 564.81,-69.89"/>
<polygon fill="#63b8ff" stroke="#63b8ff" points="565.14,-66.41 554.79,-68.67 564.29,-73.35 565.14,-66.41"/>
</a>
</g>
</g>
<!-- Node24&#45;&gt;Node17 -->
<g id="edge49_Node000024_Node000017" class="edge">
<title>Node24&#45;&gt;Node17</title>
<g id="a_edge49_Node000024_Node000017"><a xlink:title=" ">
<path fill="none" stroke="#63b8ff" d="M1054.02,-109.98C1045.3,-102.15 1032.16,-90.34 1021.6,-80.86"/>
<polygon fill="#63b8ff" stroke="#63b8ff" points="1023.93,-78.25 1014.15,-74.17 1019.25,-83.46 1023.93,-78.25"/>
</a>
</g>
</g>
<!-- Node25 -->
<g id="Node000025" class="node">
<title>Node25</title>
<g id="a_Node000025"><a xlink:title=" ">
<polygon fill="#e0e0e0" stroke="#999999" points="1282,-74 1189,-74 1189,-55 1282,-55 1282,-74"/>
<text text-anchor="middle" x="1235.5" y="-62" font-family="Helvetica,sans-Serif" font-size="10.00">QCoreApplication</text>
</a>
</g>
</g>
<!-- Node24&#45;&gt;Node25 -->
<g id="edge47_Node000024_Node000025" class="edge">
<title>Node24&#45;&gt;Node25</title>
<g id="a_edge47_Node000024_Node000025"><a xlink:title=" ">
<path fill="none" stroke="#63b8ff" d="M1091.13,-109.98C1120.01,-101.09 1165.51,-87.07 1197.7,-77.15"/>
<polygon fill="#63b8ff" stroke="#63b8ff" points="1199.12,-80.37 1207.65,-74.08 1197.06,-73.68 1199.12,-80.37"/>
</a>
</g>
</g>
<!-- Node26 -->
<g id="Node000026" class="node">
<title>Node26</title>
<g id="a_Node000026"><a xlink:title=" ">
<polygon fill="#e0e0e0" stroke="#999999" points="1416.5,-74 1300.5,-74 1300.5,-55 1416.5,-55 1416.5,-74"/>
<text text-anchor="middle" x="1358.5" y="-62" font-family="Helvetica,sans-Serif" font-size="10.00">NANDRAD_Material.h</text>
</a>
</g>
</g>
<!-- Node24&#45;&gt;Node26 -->
<g id="edge50_Node000024_Node000026" class="edge">
<title>Node24&#45;&gt;Node26</title>
<g id="a_edge50_Node000024_Node000026"><a xlink:title=" ">
<path fill="none" stroke="#63b8ff" d="M1110.9,-109.98C1162.57,-100.7 1245.27,-85.84 1300.71,-75.88"/>
<polygon fill="#63b8ff" stroke="#63b8ff" points="1301.51,-79.3 1310.73,-74.08 1300.27,-72.41 1301.51,-79.3"/>
</a>
</g>
</g>
</g>
</svg>
