<?xml version="1.0" encoding="UTF-8" standalone="no"?>
<!DOCTYPE svg PUBLIC "-//W3C//DTD SVG 1.1//EN"
 "http://www.w3.org/Graphics/SVG/1.1/DTD/svg11.dtd">
<!-- Generated by graphviz version 2.43.0 (0)
 -->
<!-- Title: /home/hirth/git/SIM&#45;VICUS.master2/externals/Vicus/src/VICUS_SubSurface.h Pages: 1 -->
<svg width="1820pt" height="577pt"
 viewBox="0.00 0.00 1819.50 577.00" xmlns="http://www.w3.org/2000/svg" xmlns:xlink="http://www.w3.org/1999/xlink">
<g id="graph0" class="graph" transform="scale(1 1) rotate(0) translate(4 573)">
<title>/home/hirth/git/SIM&#45;VICUS.master2/externals/Vicus/src/VICUS_SubSurface.h</title>
<!-- Node1 -->
<g id="Node000001" class="node">
<title>Node1</title>
<g id="a_Node000001"><a xlink:title=" ">
<polygon fill="#999999" stroke="#666666" points="1425.5,-569 1265.5,-569 1265.5,-528 1425.5,-528 1425.5,-569"/>
<text text-anchor="start" x="1273.5" y="-557" font-family="Helvetica,sans-Serif" font-size="10.00">/home/hirth/git/SIM</text>
<text text-anchor="start" x="1273.5" y="-546" font-family="Helvetica,sans-Serif" font-size="10.00">&#45;VICUS.master2/externals</text>
<text text-anchor="middle" x="1345.5" y="-535" font-family="Helvetica,sans-Serif" font-size="10.00">/Vicus/src/VICUS_SubSurface.h</text>
</a>
</g>
</g>
<!-- Node2 -->
<g id="Node000002" class="node">
<title>Node2</title>
<g id="a_Node000002"><a xlink:href="_v_i_c_u_s___sub_surface_8cpp.html" target="_top" xlink:title=" ">
<polygon fill="white" stroke="#666666" points="1186.5,-486.5 1016.5,-486.5 1016.5,-445.5 1186.5,-445.5 1186.5,-486.5"/>
<text text-anchor="start" x="1024.5" y="-474.5" font-family="Helvetica,sans-Serif" font-size="10.00">/home/hirth/git/SIM</text>
<text text-anchor="start" x="1024.5" y="-463.5" font-family="Helvetica,sans-Serif" font-size="10.00">&#45;VICUS.master2/externals</text>
<text text-anchor="middle" x="1101.5" y="-452.5" font-family="Helvetica,sans-Serif" font-size="10.00">/Vicus/src/VICUS_SubSurface.cpp</text>
</a>
</g>
</g>
<!-- Node1&#45;&gt;Node2 -->
<g id="edge1_Node000001_Node000002" class="edge">
<title>Node1&#45;&gt;Node2</title>
<g id="a_edge1_Node000001_Node000002"><a xlink:title=" ">
<path fill="none" stroke="#63b8ff" d="M1276.54,-524.75C1240.03,-512.7 1195.65,-498.06 1160.72,-486.54"/>
<polygon fill="#63b8ff" stroke="#63b8ff" points="1275.53,-528.1 1286.12,-527.91 1277.72,-521.45 1275.53,-528.1"/>
</a>
</g>
</g>
<!-- Node3 -->
<g id="Node000003" class="node">
<title>Node3</title>
<g id="a_Node000003"><a xlink:href="_v_i_c_u_s___surface_8h.html" target="_top" xlink:title=" ">
<polygon fill="white" stroke="#666666" points="1348,-486.5 1205,-486.5 1205,-445.5 1348,-445.5 1348,-486.5"/>
<text text-anchor="start" x="1213" y="-474.5" font-family="Helvetica,sans-Serif" font-size="10.00">/home/hirth/git/SIM</text>
<text text-anchor="start" x="1213" y="-463.5" font-family="Helvetica,sans-Serif" font-size="10.00">&#45;VICUS.master2/externals</text>
<text text-anchor="middle" x="1276.5" y="-452.5" font-family="Helvetica,sans-Serif" font-size="10.00">/Vicus/src/VICUS_Surface.h</text>
</a>
</g>
</g>
<!-- Node1&#45;&gt;Node3 -->
<g id="edge2_Node000001_Node000003" class="edge">
<title>Node1&#45;&gt;Node3</title>
<g id="a_edge2_Node000001_Node000003"><a xlink:title=" ">
<path fill="none" stroke="#63b8ff" d="M1321.88,-519.94C1312.5,-509 1301.94,-496.68 1293.36,-486.67"/>
<polygon fill="#63b8ff" stroke="#63b8ff" points="1319.28,-522.29 1328.44,-527.6 1324.59,-517.73 1319.28,-522.29"/>
</a>
</g>
</g>
<!-- Node25 -->
<g id="Node000025" class="node">
<title>Node25</title>
<g id="a_Node000025"><a xlink:href="_v_i_c_u_s__utilities_8h.html" target="_top" xlink:title=" ">
<polygon fill="white" stroke="#666666" points="1447.5,-134.5 1307.5,-134.5 1307.5,-93.5 1447.5,-93.5 1447.5,-134.5"/>
<text text-anchor="start" x="1315.5" y="-122.5" font-family="Helvetica,sans-Serif" font-size="10.00">/home/hirth/git/SIM</text>
<text text-anchor="start" x="1315.5" y="-111.5" font-family="Helvetica,sans-Serif" font-size="10.00">&#45;VICUS.master2/externals</text>
<text text-anchor="middle" x="1377.5" y="-100.5" font-family="Helvetica,sans-Serif" font-size="10.00">/Vicus/src/VICUS_utilities.h</text>
</a>
</g>
</g>
<!-- Node1&#45;&gt;Node25 -->
<g id="edge33_Node000001_Node000025" class="edge">
<title>Node1&#45;&gt;Node25</title>
<g id="a_edge33_Node000001_Node000025"><a xlink:title=" ">
<path fill="none" stroke="#63b8ff" d="M1365.24,-519.37C1385.94,-487.06 1415.5,-431.7 1415.5,-379 1415.5,-379 1415.5,-379 1415.5,-289 1415.5,-238.34 1412.85,-225.13 1400.5,-176 1396.94,-161.84 1391.13,-146.46 1386.24,-134.69"/>
<polygon fill="#63b8ff" stroke="#63b8ff" points="1362.23,-517.57 1359.67,-527.85 1368.08,-521.42 1362.23,-517.57"/>
</a>
</g>
</g>
<!-- Node28 -->
<g id="Node000028" class="node">
<title>Node28</title>
<g id="a_Node000028"><a xlink:href="ncg___v_i_c_u_s___sub_surface_8cpp.html" target="_top" xlink:title=" ">
<polygon fill="white" stroke="#666666" points="1579,-492 1444,-492 1444,-440 1579,-440 1579,-492"/>
<text text-anchor="start" x="1452" y="-480" font-family="Helvetica,sans-Serif" font-size="10.00">/home/hirth/git/SIM</text>
<text text-anchor="start" x="1452" y="-469" font-family="Helvetica,sans-Serif" font-size="10.00">&#45;VICUS.master2/externals</text>
<text text-anchor="start" x="1452" y="-458" font-family="Helvetica,sans-Serif" font-size="10.00">/Vicus/src/ncg/ncg_VICUS</text>
<text text-anchor="middle" x="1511.5" y="-447" font-family="Helvetica,sans-Serif" font-size="10.00">_SubSurface.cpp</text>
</a>
</g>
</g>
<!-- Node1&#45;&gt;Node28 -->
<g id="edge34_Node000001_Node000028" class="edge">
<title>Node1&#45;&gt;Node28</title>
<g id="a_edge34_Node000001_Node000028"><a xlink:title=" ">
<path fill="none" stroke="#63b8ff" d="M1395.21,-523.39C1415.57,-513.52 1439.12,-502.1 1459.69,-492.13"/>
<polygon fill="#63b8ff" stroke="#63b8ff" points="1393.58,-520.29 1386.11,-527.81 1396.63,-526.59 1393.58,-520.29"/>
</a>
</g>
</g>
<!-- Node4 -->
<g id="Node000004" class="node">
<title>Node4</title>
<g id="a_Node000004"><a xlink:href="_v_i_c_u_s___plain_geometry_8h.html" target="_top" xlink:title=" ">
<polygon fill="white" stroke="#666666" points="782.5,-398.5 610.5,-398.5 610.5,-357.5 782.5,-357.5 782.5,-398.5"/>
<text text-anchor="start" x="618.5" y="-386.5" font-family="Helvetica,sans-Serif" font-size="10.00">/home/hirth/git/SIM</text>
<text text-anchor="start" x="618.5" y="-375.5" font-family="Helvetica,sans-Serif" font-size="10.00">&#45;VICUS.master2/externals</text>
<text text-anchor="middle" x="696.5" y="-364.5" font-family="Helvetica,sans-Serif" font-size="10.00">/Vicus/src/VICUS_PlainGeometry.h</text>
</a>
</g>
</g>
<!-- Node3&#45;&gt;Node4 -->
<g id="edge3_Node000003_Node000004" class="edge">
<title>Node3&#45;&gt;Node4</title>
<g id="a_edge3_Node000003_Node000004"><a xlink:title=" ">
<path fill="none" stroke="#63b8ff" d="M1207.85,-442.85C1203.69,-441.81 1199.55,-440.85 1195.5,-440 1055.4,-410.77 1017.5,-421.9 875.5,-404 845.3,-400.19 812.29,-395.68 782.93,-391.55"/>
<polygon fill="#63b8ff" stroke="#63b8ff" points="1206.99,-446.24 1217.56,-445.41 1208.78,-439.47 1206.99,-446.24"/>
</a>
</g>
</g>
<!-- Node17 -->
<g id="Node000017" class="node">
<title>Node17</title>
<g id="a_Node000017"><a xlink:href="_v_i_c_u_s___room_8h.html" target="_top" xlink:title=" ">
<polygon fill="white" stroke="#666666" points="1344,-398.5 1209,-398.5 1209,-357.5 1344,-357.5 1344,-398.5"/>
<text text-anchor="start" x="1217" y="-386.5" font-family="Helvetica,sans-Serif" font-size="10.00">/home/hirth/git/SIM</text>
<text text-anchor="start" x="1217" y="-375.5" font-family="Helvetica,sans-Serif" font-size="10.00">&#45;VICUS.master2/externals</text>
<text text-anchor="middle" x="1276.5" y="-364.5" font-family="Helvetica,sans-Serif" font-size="10.00">/Vicus/src/VICUS_Room.h</text>
</a>
</g>
</g>
<!-- Node3&#45;&gt;Node17 -->
<g id="edge16_Node000003_Node000017" class="edge">
<title>Node3&#45;&gt;Node17</title>
<g id="a_edge16_Node000003_Node000017"><a xlink:title=" ">
<path fill="none" stroke="#63b8ff" d="M1276.5,-435.36C1276.5,-423.26 1276.5,-409.58 1276.5,-398.74"/>
<polygon fill="#63b8ff" stroke="#63b8ff" points="1273,-435.49 1276.5,-445.49 1280,-435.49 1273,-435.49"/>
</a>
</g>
</g>
<!-- Node24 -->
<g id="Node000024" class="node">
<title>Node24</title>
<g id="a_Node000024"><a xlink:href="_v_i_c_u_s___surface_8cpp.html" target="_top" xlink:title=" ">
<polygon fill="white" stroke="#666666" points="1038,-398.5 885,-398.5 885,-357.5 1038,-357.5 1038,-398.5"/>
<text text-anchor="start" x="893" y="-386.5" font-family="Helvetica,sans-Serif" font-size="10.00">/home/hirth/git/SIM</text>
<text text-anchor="start" x="893" y="-375.5" font-family="Helvetica,sans-Serif" font-size="10.00">&#45;VICUS.master2/externals</text>
<text text-anchor="middle" x="961.5" y="-364.5" font-family="Helvetica,sans-Serif" font-size="10.00">/Vicus/src/VICUS_Surface.cpp</text>
</a>
</g>
</g>
<!-- Node3&#45;&gt;Node24 -->
<g id="edge24_Node000003_Node000024" class="edge">
<title>Node3&#45;&gt;Node24</title>
<g id="a_edge24_Node000003_Node000024"><a xlink:title=" ">
<path fill="none" stroke="#63b8ff" d="M1205.02,-442.67C1201.81,-441.75 1198.62,-440.86 1195.5,-440 1129.81,-421.95 1112.31,-421.62 1046.5,-404 1040.11,-402.29 1033.47,-400.45 1026.84,-398.57"/>
<polygon fill="#63b8ff" stroke="#63b8ff" points="1204.12,-446.06 1214.7,-445.49 1206.08,-439.34 1204.12,-446.06"/>
</a>
</g>
</g>
<!-- Node3&#45;&gt;Node25 -->
<g id="edge25_Node000003_Node000025" class="edge">
<title>Node3&#45;&gt;Node25</title>
<g id="a_edge25_Node000003_Node000025"><a xlink:title=" ">
<path fill="none" stroke="#63b8ff" d="M1321.08,-439.46C1333.66,-429.99 1345.97,-418.06 1353.5,-404 1402,-313.47 1388.44,-183.7 1380.94,-134.72"/>
<polygon fill="#63b8ff" stroke="#63b8ff" points="1318.94,-436.69 1312.82,-445.33 1323,-442.4 1318.94,-436.69"/>
</a>
</g>
</g>
<!-- Node27 -->
<g id="Node000027" class="node">
<title>Node27</title>
<g id="a_Node000027"><a xlink:href="ncg___v_i_c_u_s___surface_8cpp.html" target="_top" xlink:title=" ">
<polygon fill="white" stroke="#666666" points="1191,-404 1056,-404 1056,-352 1191,-352 1191,-404"/>
<text text-anchor="start" x="1064" y="-392" font-family="Helvetica,sans-Serif" font-size="10.00">/home/hirth/git/SIM</text>
<text text-anchor="start" x="1064" y="-381" font-family="Helvetica,sans-Serif" font-size="10.00">&#45;VICUS.master2/externals</text>
<text text-anchor="start" x="1064" y="-370" font-family="Helvetica,sans-Serif" font-size="10.00">/Vicus/src/ncg/ncg_VICUS</text>
<text text-anchor="middle" x="1123.5" y="-359" font-family="Helvetica,sans-Serif" font-size="10.00">_Surface.cpp</text>
</a>
</g>
</g>
<!-- Node3&#45;&gt;Node27 -->
<g id="edge32_Node000003_Node000027" class="edge">
<title>Node3&#45;&gt;Node27</title>
<g id="a_edge32_Node000003_Node000027"><a xlink:title=" ">
<path fill="none" stroke="#63b8ff" d="M1233.06,-440.58C1212.79,-429.19 1188.69,-415.64 1168.26,-404.16"/>
<polygon fill="#63b8ff" stroke="#63b8ff" points="1231.35,-443.64 1241.78,-445.49 1234.78,-437.53 1231.35,-443.64"/>
</a>
</g>
</g>
<!-- Node5 -->
<g id="Node000005" class="node">
<title>Node5</title>
<g id="a_Node000005"><a xlink:href="_v_i_c_u_s___plain_geometry_8cpp.html" target="_top" xlink:title=" ">
<polygon fill="white" stroke="#666666" points="846.5,-310.5 664.5,-310.5 664.5,-269.5 846.5,-269.5 846.5,-310.5"/>
<text text-anchor="start" x="672.5" y="-298.5" font-family="Helvetica,sans-Serif" font-size="10.00">/home/hirth/git/SIM</text>
<text text-anchor="start" x="672.5" y="-287.5" font-family="Helvetica,sans-Serif" font-size="10.00">&#45;VICUS.master2/externals</text>
<text text-anchor="middle" x="755.5" y="-276.5" font-family="Helvetica,sans-Serif" font-size="10.00">/Vicus/src/VICUS_PlainGeometry.cpp</text>
</a>
</g>
</g>
<!-- Node4&#45;&gt;Node5 -->
<g id="edge4_Node000004_Node000005" class="edge">
<title>Node4&#45;&gt;Node5</title>
<g id="a_edge4_Node000004_Node000005"><a xlink:title=" ">
<path fill="none" stroke="#63b8ff" d="M715.58,-349.18C724.19,-336.64 734.14,-322.13 741.96,-310.74"/>
<polygon fill="#63b8ff" stroke="#63b8ff" points="712.66,-347.26 709.89,-357.49 718.43,-351.22 712.66,-347.26"/>
</a>
</g>
</g>
<!-- Node6 -->
<g id="Node000006" class="node">
<title>Node6</title>
<g id="a_Node000006"><a xlink:href="_v_i_c_u_s___project_8h.html" target="_top" xlink:title=" ">
<polygon fill="white" stroke="#666666" points="783.5,-134.5 643.5,-134.5 643.5,-93.5 783.5,-93.5 783.5,-134.5"/>
<text text-anchor="start" x="651.5" y="-122.5" font-family="Helvetica,sans-Serif" font-size="10.00">/home/hirth/git/SIM</text>
<text text-anchor="start" x="651.5" y="-111.5" font-family="Helvetica,sans-Serif" font-size="10.00">&#45;VICUS.master2/externals</text>
<text text-anchor="middle" x="713.5" y="-100.5" font-family="Helvetica,sans-Serif" font-size="10.00">/Vicus/src/VICUS_Project.h</text>
</a>
</g>
</g>
<!-- Node4&#45;&gt;Node6 -->
<g id="edge5_Node000004_Node000006" class="edge">
<title>Node4&#45;&gt;Node6</title>
<g id="a_edge5_Node000004_Node000006"><a xlink:title=" ">
<path fill="none" stroke="#63b8ff" d="M672.81,-349.24C665.82,-339.39 659.1,-327.8 655.5,-316 648.76,-293.89 651.23,-286.71 655.5,-264 664.62,-215.44 689.1,-162.37 703.17,-134.54"/>
<polygon fill="#63b8ff" stroke="#63b8ff" points="670.13,-351.51 678.93,-357.41 675.73,-347.31 670.13,-351.51"/>
</a>
</g>
</g>
<!-- Node16 -->
<g id="Node000016" class="node">
<title>Node16</title>
<g id="a_Node000016"><a xlink:href="ncg___v_i_c_u_s___plain_geometry_8cpp.html" target="_top" xlink:title=" ">
<polygon fill="white" stroke="#666666" points="608,-316 473,-316 473,-264 608,-264 608,-316"/>
<text text-anchor="start" x="481" y="-304" font-family="Helvetica,sans-Serif" font-size="10.00">/home/hirth/git/SIM</text>
<text text-anchor="start" x="481" y="-293" font-family="Helvetica,sans-Serif" font-size="10.00">&#45;VICUS.master2/externals</text>
<text text-anchor="start" x="481" y="-282" font-family="Helvetica,sans-Serif" font-size="10.00">/Vicus/src/ncg/ncg_VICUS</text>
<text text-anchor="middle" x="540.5" y="-271" font-family="Helvetica,sans-Serif" font-size="10.00">_PlainGeometry.cpp</text>
</a>
</g>
</g>
<!-- Node4&#45;&gt;Node16 -->
<g id="edge15_Node000004_Node000016" class="edge">
<title>Node4&#45;&gt;Node16</title>
<g id="a_edge15_Node000004_Node000016"><a xlink:title=" ">
<path fill="none" stroke="#63b8ff" d="M652.21,-352.58C631.54,-341.19 606.97,-327.64 586.13,-316.16"/>
<polygon fill="#63b8ff" stroke="#63b8ff" points="650.65,-355.72 661.1,-357.49 654.03,-349.59 650.65,-355.72"/>
</a>
</g>
</g>
<!-- Node7 -->
<g id="Node000007" class="node">
<title>Node7</title>
<g id="a_Node000007"><a xlink:href="_v_i_c_u_s___heat_load12831_export_8cpp.html" target="_top" xlink:title=" ">
<polygon fill="white" stroke="#666666" points="169,-52 0,-52 0,0 169,0 169,-52"/>
<text text-anchor="start" x="8" y="-40" font-family="Helvetica,sans-Serif" font-size="10.00">/home/hirth/git/SIM</text>
<text text-anchor="start" x="8" y="-29" font-family="Helvetica,sans-Serif" font-size="10.00">&#45;VICUS.master2/externals</text>
<text text-anchor="start" x="8" y="-18" font-family="Helvetica,sans-Serif" font-size="10.00">/Vicus/src/VICUS_HeatLoad12831</text>
<text text-anchor="middle" x="84.5" y="-7" font-family="Helvetica,sans-Serif" font-size="10.00">Export.cpp</text>
</a>
</g>
</g>
<!-- Node6&#45;&gt;Node7 -->
<g id="edge6_Node000006_Node000007" class="edge">
<title>Node6&#45;&gt;Node7</title>
<g id="a_edge6_Node000006_Node000007"><a xlink:title=" ">
<path fill="none" stroke="#63b8ff" d="M633.11,-107.52C527.96,-99.52 338.29,-82.19 178.5,-52 175.43,-51.42 172.31,-50.79 169.17,-50.13"/>
<polygon fill="#63b8ff" stroke="#63b8ff" points="633.1,-111.03 643.33,-108.29 633.62,-104.05 633.1,-111.03"/>
</a>
</g>
</g>
<!-- Node8 -->
<g id="Node000008" class="node">
<title>Node8</title>
<g id="a_Node000008"><a xlink:href="_v_i_c_u_s___interface_heat_conduction_8cpp.html" target="_top" xlink:title=" ">
<polygon fill="white" stroke="#666666" points="347.5,-52 187.5,-52 187.5,0 347.5,0 347.5,-52"/>
<text text-anchor="start" x="195.5" y="-40" font-family="Helvetica,sans-Serif" font-size="10.00">/home/hirth/git/SIM</text>
<text text-anchor="start" x="195.5" y="-29" font-family="Helvetica,sans-Serif" font-size="10.00">&#45;VICUS.master2/externals</text>
<text text-anchor="start" x="195.5" y="-18" font-family="Helvetica,sans-Serif" font-size="10.00">/Vicus/src/VICUS_InterfaceHeat</text>
<text text-anchor="middle" x="267.5" y="-7" font-family="Helvetica,sans-Serif" font-size="10.00">Conduction.cpp</text>
</a>
</g>
</g>
<!-- Node6&#45;&gt;Node8 -->
<g id="edge7_Node000006_Node000008" class="edge">
<title>Node6&#45;&gt;Node8</title>
<g id="a_edge7_Node000006_Node000008"><a xlink:title=" ">
<path fill="none" stroke="#63b8ff" d="M633.3,-101.75C560.63,-90.98 450.82,-73.24 356.5,-52 353.68,-51.37 350.82,-50.7 347.93,-50"/>
<polygon fill="#63b8ff" stroke="#63b8ff" points="632.9,-105.23 643.3,-103.22 633.92,-98.3 632.9,-105.23"/>
</a>
</g>
</g>
<!-- Node9 -->
<g id="Node000009" class="node">
<title>Node9</title>
<g id="a_Node000009"><a xlink:href="_v_i_c_u_s___network_8cpp.html" target="_top" xlink:title=" ">
<polygon fill="white" stroke="#666666" points="1643.5,-46.5 1487.5,-46.5 1487.5,-5.5 1643.5,-5.5 1643.5,-46.5"/>
<text text-anchor="start" x="1495.5" y="-34.5" font-family="Helvetica,sans-Serif" font-size="10.00">/home/hirth/git/SIM</text>
<text text-anchor="start" x="1495.5" y="-23.5" font-family="Helvetica,sans-Serif" font-size="10.00">&#45;VICUS.master2/externals</text>
<text text-anchor="middle" x="1565.5" y="-12.5" font-family="Helvetica,sans-Serif" font-size="10.00">/Vicus/src/VICUS_Network.cpp</text>
</a>
</g>
</g>
<!-- Node6&#45;&gt;Node9 -->
<g id="edge8_Node000006_Node000009" class="edge">
<title>Node6&#45;&gt;Node9</title>
<g id="a_edge8_Node000006_Node000009"><a xlink:title=" ">
<path fill="none" stroke="#63b8ff" d="M779.04,-90.88C783.57,-89.78 788.08,-88.8 792.5,-88 1092.91,-33.5 1177.39,-102.49 1478.5,-52 1486.87,-50.6 1495.58,-48.67 1504.11,-46.51"/>
<polygon fill="#63b8ff" stroke="#63b8ff" points="777.95,-87.55 769.16,-93.46 779.72,-94.32 777.95,-87.55"/>
</a>
</g>
</g>
<!-- Node10 -->
<g id="Node000010" class="node">
<title>Node10</title>
<g id="a_Node000010"><a xlink:href="_v_i_c_u_s___network_edge_8cpp.html" target="_top" xlink:title=" ">
<polygon fill="white" stroke="#666666" points="545,-46.5 366,-46.5 366,-5.5 545,-5.5 545,-46.5"/>
<text text-anchor="start" x="374" y="-34.5" font-family="Helvetica,sans-Serif" font-size="10.00">/home/hirth/git/SIM</text>
<text text-anchor="start" x="374" y="-23.5" font-family="Helvetica,sans-Serif" font-size="10.00">&#45;VICUS.master2/externals</text>
<text text-anchor="middle" x="455.5" y="-12.5" font-family="Helvetica,sans-Serif" font-size="10.00">/Vicus/src/VICUS_NetworkEdge.cpp</text>
</a>
</g>
</g>
<!-- Node6&#45;&gt;Node10 -->
<g id="edge9_Node000006_Node000010" class="edge">
<title>Node6&#45;&gt;Node10</title>
<g id="a_edge9_Node000006_Node000010"><a xlink:title=" ">
<path fill="none" stroke="#63b8ff" d="M645.36,-90.29C604.57,-76.69 553.26,-59.59 514.26,-46.59"/>
<polygon fill="#63b8ff" stroke="#63b8ff" points="644.36,-93.64 654.96,-93.49 646.58,-87 644.36,-93.64"/>
</a>
</g>
</g>
<!-- Node11 -->
<g id="Node000011" class="node">
<title>Node11</title>
<g id="a_Node000011"><a xlink:href="_v_i_c_u_s___project_8cpp.html" target="_top" xlink:title=" ">
<polygon fill="white" stroke="#666666" points="866.5,-46.5 716.5,-46.5 716.5,-5.5 866.5,-5.5 866.5,-46.5"/>
<text text-anchor="start" x="724.5" y="-34.5" font-family="Helvetica,sans-Serif" font-size="10.00">/home/hirth/git/SIM</text>
<text text-anchor="start" x="724.5" y="-23.5" font-family="Helvetica,sans-Serif" font-size="10.00">&#45;VICUS.master2/externals</text>
<text text-anchor="middle" x="791.5" y="-12.5" font-family="Helvetica,sans-Serif" font-size="10.00">/Vicus/src/VICUS_Project.cpp</text>
</a>
</g>
</g>
<!-- Node6&#45;&gt;Node11 -->
<g id="edge10_Node000006_Node000011" class="edge">
<title>Node6&#45;&gt;Node11</title>
<g id="a_edge10_Node000006_Node000011"><a xlink:title=" ">
<path fill="none" stroke="#63b8ff" d="M738.08,-85.9C749.59,-73.2 763.07,-58.35 773.6,-46.74"/>
<polygon fill="#63b8ff" stroke="#63b8ff" points="735.33,-83.73 731.2,-93.49 740.51,-88.43 735.33,-83.73"/>
</a>
</g>
</g>
<!-- Node12 -->
<g id="Node000012" class="node">
<title>Node12</title>
<g id="a_Node000012"><a xlink:href="_v_i_c_u_s___project_generator_8cpp.html" target="_top" xlink:title=" ">
<polygon fill="white" stroke="#666666" points="1076.5,-46.5 884.5,-46.5 884.5,-5.5 1076.5,-5.5 1076.5,-46.5"/>
<text text-anchor="start" x="892.5" y="-34.5" font-family="Helvetica,sans-Serif" font-size="10.00">/home/hirth/git/SIM</text>
<text text-anchor="start" x="892.5" y="-23.5" font-family="Helvetica,sans-Serif" font-size="10.00">&#45;VICUS.master2/externals</text>
<text text-anchor="middle" x="980.5" y="-12.5" font-family="Helvetica,sans-Serif" font-size="10.00">/Vicus/src/VICUS_ProjectGenerator.cpp</text>
</a>
</g>
</g>
<!-- Node6&#45;&gt;Node12 -->
<g id="edge11_Node000006_Node000012" class="edge">
<title>Node6&#45;&gt;Node12</title>
<g id="a_edge11_Node000006_Node000012"><a xlink:title=" ">
<path fill="none" stroke="#63b8ff" d="M783.75,-90.37C826,-76.76 879.25,-59.61 919.69,-46.59"/>
<polygon fill="#63b8ff" stroke="#63b8ff" points="782.53,-87.09 774.09,-93.49 784.68,-93.75 782.53,-87.09"/>
</a>
</g>
</g>
<!-- Node13 -->
<g id="Node000013" class="node">
<title>Node13</title>
<g id="a_Node000013"><a xlink:href="_v_i_c_u_s___sub_network_8cpp.html" target="_top" xlink:title=" ">
<polygon fill="white" stroke="#666666" points="1268,-46.5 1095,-46.5 1095,-5.5 1268,-5.5 1268,-46.5"/>
<text text-anchor="start" x="1103" y="-34.5" font-family="Helvetica,sans-Serif" font-size="10.00">/home/hirth/git/SIM</text>
<text text-anchor="start" x="1103" y="-23.5" font-family="Helvetica,sans-Serif" font-size="10.00">&#45;VICUS.master2/externals</text>
<text text-anchor="middle" x="1181.5" y="-12.5" font-family="Helvetica,sans-Serif" font-size="10.00">/Vicus/src/VICUS_SubNetwork.cpp</text>
</a>
</g>
</g>
<!-- Node6&#45;&gt;Node13 -->
<g id="edge12_Node000006_Node000013" class="edge">
<title>Node6&#45;&gt;Node13</title>
<g id="a_edge12_Node000006_Node000013"><a xlink:title=" ">
<path fill="none" stroke="#63b8ff" d="M780.79,-90.8C784.73,-89.78 788.66,-88.84 792.5,-88 920.7,-60.09 956.62,-76.59 1085.5,-52 1093.79,-50.42 1102.42,-48.53 1110.96,-46.5"/>
<polygon fill="#63b8ff" stroke="#63b8ff" points="779.72,-87.46 770.98,-93.46 781.55,-94.22 779.72,-87.46"/>
</a>
</g>
</g>
<!-- Node14 -->
<g id="Node000014" class="node">
<title>Node14</title>
<g id="a_Node000014"><a xlink:href="_v_i_c_u_s___supply_system_8cpp.html" target="_top" xlink:title=" ">
<polygon fill="white" stroke="#666666" points="1469,-46.5 1286,-46.5 1286,-5.5 1469,-5.5 1469,-46.5"/>
<text text-anchor="start" x="1294" y="-34.5" font-family="Helvetica,sans-Serif" font-size="10.00">/home/hirth/git/SIM</text>
<text text-anchor="start" x="1294" y="-23.5" font-family="Helvetica,sans-Serif" font-size="10.00">&#45;VICUS.master2/externals</text>
<text text-anchor="middle" x="1377.5" y="-12.5" font-family="Helvetica,sans-Serif" font-size="10.00">/Vicus/src/VICUS_SupplySystem.cpp</text>
</a>
</g>
</g>
<!-- Node6&#45;&gt;Node14 -->
<g id="edge13_Node000006_Node000014" class="edge">
<title>Node6&#45;&gt;Node14</title>
<g id="a_edge13_Node000006_Node000014"><a xlink:title=" ">
<path fill="none" stroke="#63b8ff" d="M779.31,-90.93C783.75,-89.83 788.17,-88.83 792.5,-88 1004.75,-47.12 1064.1,-86.34 1277.5,-52 1286.69,-50.52 1296.27,-48.61 1305.7,-46.51"/>
<polygon fill="#63b8ff" stroke="#63b8ff" points="778.39,-87.55 769.62,-93.49 780.18,-94.32 778.39,-87.55"/>
</a>
</g>
</g>
<!-- Node15 -->
<g id="Node000015" class="node">
<title>Node15</title>
<g id="a_Node000015"><a xlink:href="ncg___v_i_c_u_s___project_8cpp.html" target="_top" xlink:title=" ">
<polygon fill="white" stroke="#666666" points="698,-52 563,-52 563,0 698,0 698,-52"/>
<text text-anchor="start" x="571" y="-40" font-family="Helvetica,sans-Serif" font-size="10.00">/home/hirth/git/SIM</text>
<text text-anchor="start" x="571" y="-29" font-family="Helvetica,sans-Serif" font-size="10.00">&#45;VICUS.master2/externals</text>
<text text-anchor="start" x="571" y="-18" font-family="Helvetica,sans-Serif" font-size="10.00">/Vicus/src/ncg/ncg_VICUS</text>
<text text-anchor="middle" x="630.5" y="-7" font-family="Helvetica,sans-Serif" font-size="10.00">_Project.cpp</text>
</a>
</g>
</g>
<!-- Node6&#45;&gt;Node15 -->
<g id="edge14_Node000006_Node000015" class="edge">
<title>Node6&#45;&gt;Node15</title>
<g id="a_edge14_Node000006_Node000015"><a xlink:title=" ">
<path fill="none" stroke="#63b8ff" d="M687.72,-86.29C677.26,-75.45 665.25,-63 654.93,-52.32"/>
<polygon fill="#63b8ff" stroke="#63b8ff" points="685.2,-88.72 694.67,-93.49 690.24,-83.86 685.2,-88.72"/>
</a>
</g>
</g>
<!-- Node18 -->
<g id="Node000018" class="node">
<title>Node18</title>
<g id="a_Node000018"><a xlink:href="_v_i_c_u_s___building_level_8h.html" target="_top" xlink:title=" ">
<polygon fill="white" stroke="#666666" points="1032,-310.5 865,-310.5 865,-269.5 1032,-269.5 1032,-310.5"/>
<text text-anchor="start" x="873" y="-298.5" font-family="Helvetica,sans-Serif" font-size="10.00">/home/hirth/git/SIM</text>
<text text-anchor="start" x="873" y="-287.5" font-family="Helvetica,sans-Serif" font-size="10.00">&#45;VICUS.master2/externals</text>
<text text-anchor="middle" x="948.5" y="-276.5" font-family="Helvetica,sans-Serif" font-size="10.00">/Vicus/src/VICUS_BuildingLevel.h</text>
</a>
</g>
</g>
<!-- Node17&#45;&gt;Node18 -->
<g id="edge17_Node000017_Node000018" class="edge">
<title>Node17&#45;&gt;Node18</title>
<g id="a_edge17_Node000017_Node000018"><a xlink:title=" ">
<path fill="none" stroke="#63b8ff" d="M1209.39,-354.54C1206.39,-353.66 1203.42,-352.81 1200.5,-352 1130.24,-332.59 1111.24,-333.56 1040.5,-316 1033.59,-314.29 1026.41,-312.44 1019.24,-310.56"/>
<polygon fill="#63b8ff" stroke="#63b8ff" points="1208.41,-357.9 1219,-357.44 1210.44,-351.2 1208.41,-357.9"/>
</a>
</g>
</g>
<!-- Node22 -->
<g id="Node000022" class="node">
<title>Node22</title>
<g id="a_Node000022"><a xlink:href="_v_i_c_u_s___room_8cpp.html" target="_top" xlink:title=" ">
<polygon fill="white" stroke="#666666" points="1349.5,-310.5 1203.5,-310.5 1203.5,-269.5 1349.5,-269.5 1349.5,-310.5"/>
<text text-anchor="start" x="1211.5" y="-298.5" font-family="Helvetica,sans-Serif" font-size="10.00">/home/hirth/git/SIM</text>
<text text-anchor="start" x="1211.5" y="-287.5" font-family="Helvetica,sans-Serif" font-size="10.00">&#45;VICUS.master2/externals</text>
<text text-anchor="middle" x="1276.5" y="-276.5" font-family="Helvetica,sans-Serif" font-size="10.00">/Vicus/src/VICUS_Room.cpp</text>
</a>
</g>
</g>
<!-- Node17&#45;&gt;Node22 -->
<g id="edge22_Node000017_Node000022" class="edge">
<title>Node17&#45;&gt;Node22</title>
<g id="a_edge22_Node000017_Node000022"><a xlink:title=" ">
<path fill="none" stroke="#63b8ff" d="M1276.5,-347.36C1276.5,-335.26 1276.5,-321.58 1276.5,-310.74"/>
<polygon fill="#63b8ff" stroke="#63b8ff" points="1273,-347.49 1276.5,-357.49 1280,-347.49 1273,-347.49"/>
</a>
</g>
</g>
<!-- Node23 -->
<g id="Node000023" class="node">
<title>Node23</title>
<g id="a_Node000023"><a xlink:href="ncg___v_i_c_u_s___room_8cpp.html" target="_top" xlink:title=" ">
<polygon fill="white" stroke="#666666" points="1185,-316 1050,-316 1050,-264 1185,-264 1185,-316"/>
<text text-anchor="start" x="1058" y="-304" font-family="Helvetica,sans-Serif" font-size="10.00">/home/hirth/git/SIM</text>
<text text-anchor="start" x="1058" y="-293" font-family="Helvetica,sans-Serif" font-size="10.00">&#45;VICUS.master2/externals</text>
<text text-anchor="start" x="1058" y="-282" font-family="Helvetica,sans-Serif" font-size="10.00">/Vicus/src/ncg/ncg_VICUS</text>
<text text-anchor="middle" x="1117.5" y="-271" font-family="Helvetica,sans-Serif" font-size="10.00">_Room.cpp</text>
</a>
</g>
</g>
<!-- Node17&#45;&gt;Node23 -->
<g id="edge23_Node000017_Node000023" class="edge">
<title>Node17&#45;&gt;Node23</title>
<g id="a_edge23_Node000017_Node000023"><a xlink:title=" ">
<path fill="none" stroke="#63b8ff" d="M1231.36,-352.58C1210.29,-341.19 1185.24,-327.64 1164.01,-316.16"/>
<polygon fill="#63b8ff" stroke="#63b8ff" points="1229.96,-355.81 1240.42,-357.49 1233.29,-349.65 1229.96,-355.81"/>
</a>
</g>
</g>
<!-- Node19 -->
<g id="Node000019" class="node">
<title>Node19</title>
<g id="a_Node000019"><a xlink:href="_v_i_c_u_s___building_8h.html" target="_top" xlink:title=" ">
<polygon fill="white" stroke="#666666" points="902,-222.5 759,-222.5 759,-181.5 902,-181.5 902,-222.5"/>
<text text-anchor="start" x="767" y="-210.5" font-family="Helvetica,sans-Serif" font-size="10.00">/home/hirth/git/SIM</text>
<text text-anchor="start" x="767" y="-199.5" font-family="Helvetica,sans-Serif" font-size="10.00">&#45;VICUS.master2/externals</text>
<text text-anchor="middle" x="830.5" y="-188.5" font-family="Helvetica,sans-Serif" font-size="10.00">/Vicus/src/VICUS_Building.h</text>
</a>
</g>
</g>
<!-- Node18&#45;&gt;Node19 -->
<g id="edge18_Node000018_Node000019" class="edge">
<title>Node18&#45;&gt;Node19</title>
<g id="a_edge18_Node000018_Node000019"><a xlink:title=" ">
<path fill="none" stroke="#63b8ff" d="M913.28,-263.33C895.44,-250.33 874.12,-234.79 857.58,-222.74"/>
<polygon fill="#63b8ff" stroke="#63b8ff" points="911.58,-266.42 921.72,-269.49 915.7,-260.77 911.58,-266.42"/>
</a>
</g>
</g>
<!-- Node21 -->
<g id="Node000021" class="node">
<title>Node21</title>
<g id="a_Node000021"><a xlink:href="ncg___v_i_c_u_s___building_level_8cpp.html" target="_top" xlink:title=" ">
<polygon fill="white" stroke="#666666" points="1055,-228 920,-228 920,-176 1055,-176 1055,-228"/>
<text text-anchor="start" x="928" y="-216" font-family="Helvetica,sans-Serif" font-size="10.00">/home/hirth/git/SIM</text>
<text text-anchor="start" x="928" y="-205" font-family="Helvetica,sans-Serif" font-size="10.00">&#45;VICUS.master2/externals</text>
<text text-anchor="start" x="928" y="-194" font-family="Helvetica,sans-Serif" font-size="10.00">/Vicus/src/ncg/ncg_VICUS</text>
<text text-anchor="middle" x="987.5" y="-183" font-family="Helvetica,sans-Serif" font-size="10.00">_BuildingLevel.cpp</text>
</a>
</g>
</g>
<!-- Node18&#45;&gt;Node21 -->
<g id="edge21_Node000018_Node000021" class="edge">
<title>Node18&#45;&gt;Node21</title>
<g id="a_edge21_Node000018_Node000021"><a xlink:title=" ">
<path fill="none" stroke="#63b8ff" d="M961.62,-260.08C966.28,-249.79 971.5,-238.28 976.02,-228.32"/>
<polygon fill="#63b8ff" stroke="#63b8ff" points="958.29,-258.93 957.35,-269.49 964.67,-261.82 958.29,-258.93"/>
</a>
</g>
</g>
<!-- Node19&#45;&gt;Node6 -->
<g id="edge19_Node000019_Node000006" class="edge">
<title>Node19&#45;&gt;Node6</title>
<g id="a_edge19_Node000019_Node000006"><a xlink:title=" ">
<path fill="none" stroke="#63b8ff" d="M795.58,-175.33C777.89,-162.33 756.75,-146.79 740.35,-134.74"/>
<polygon fill="#63b8ff" stroke="#63b8ff" points="793.82,-178.38 803.95,-181.49 797.97,-172.74 793.82,-178.38"/>
</a>
</g>
</g>
<!-- Node20 -->
<g id="Node000020" class="node">
<title>Node20</title>
<g id="a_Node000020"><a xlink:href="ncg___v_i_c_u_s___building_8cpp.html" target="_top" xlink:title=" ">
<polygon fill="white" stroke="#666666" points="937,-140 802,-140 802,-88 937,-88 937,-140"/>
<text text-anchor="start" x="810" y="-128" font-family="Helvetica,sans-Serif" font-size="10.00">/home/hirth/git/SIM</text>
<text text-anchor="start" x="810" y="-117" font-family="Helvetica,sans-Serif" font-size="10.00">&#45;VICUS.master2/externals</text>
<text text-anchor="start" x="810" y="-106" font-family="Helvetica,sans-Serif" font-size="10.00">/Vicus/src/ncg/ncg_VICUS</text>
<text text-anchor="middle" x="869.5" y="-95" font-family="Helvetica,sans-Serif" font-size="10.00">_Building.cpp</text>
</a>
</g>
</g>
<!-- Node19&#45;&gt;Node20 -->
<g id="edge20_Node000019_Node000020" class="edge">
<title>Node19&#45;&gt;Node20</title>
<g id="a_edge20_Node000019_Node000020"><a xlink:title=" ">
<path fill="none" stroke="#63b8ff" d="M843.62,-172.08C848.28,-161.79 853.5,-150.28 858.02,-140.32"/>
<polygon fill="#63b8ff" stroke="#63b8ff" points="840.29,-170.93 839.35,-181.49 846.67,-173.82 840.29,-170.93"/>
</a>
</g>
</g>
<!-- Node25&#45;&gt;Node9 -->
<g id="edge26_Node000025_Node000009" class="edge">
<title>Node25&#45;&gt;Node9</title>
<g id="a_edge26_Node000025_Node000009"><a xlink:title=" ">
<path fill="none" stroke="#63b8ff" d="M1429.42,-89.25C1458.76,-75.83 1494.99,-59.26 1522.68,-46.59"/>
<polygon fill="#63b8ff" stroke="#63b8ff" points="1427.8,-86.14 1420.16,-93.49 1430.71,-92.51 1427.8,-86.14"/>
</a>
</g>
</g>
<!-- Node25&#45;&gt;Node11 -->
<g id="edge27_Node000025_Node000011" class="edge">
<title>Node25&#45;&gt;Node11</title>
<g id="a_edge27_Node000025_Node000011"><a xlink:title=" ">
<path fill="none" stroke="#63b8ff" d="M1297.47,-107.45C1197.83,-99.59 1022.79,-82.64 875.5,-52 868.05,-50.45 860.31,-48.55 852.67,-46.5"/>
<polygon fill="#63b8ff" stroke="#63b8ff" points="1297.22,-110.94 1307.47,-108.23 1297.77,-103.97 1297.22,-110.94"/>
</a>
</g>
</g>
<!-- Node25&#45;&gt;Node12 -->
<g id="edge28_Node000025_Node000012" class="edge">
<title>Node25&#45;&gt;Node12</title>
<g id="a_edge28_Node000025_Node000012"><a xlink:title=" ">
<path fill="none" stroke="#63b8ff" d="M1297.51,-96.91C1238.75,-84.95 1157.05,-67.99 1085.5,-52 1077.73,-50.26 1069.64,-48.41 1061.56,-46.54"/>
<polygon fill="#63b8ff" stroke="#63b8ff" points="1296.97,-100.38 1307.47,-98.94 1298.37,-93.52 1296.97,-100.38"/>
</a>
</g>
</g>
<!-- Node25&#45;&gt;Node13 -->
<g id="edge29_Node000025_Node000013" class="edge">
<title>Node25&#45;&gt;Node13</title>
<g id="a_edge29_Node000025_Node000013"><a xlink:title=" ">
<path fill="none" stroke="#63b8ff" d="M1323.76,-89.42C1293.11,-75.97 1255.14,-59.31 1226.14,-46.59"/>
<polygon fill="#63b8ff" stroke="#63b8ff" points="1322.46,-92.67 1333.02,-93.49 1325.27,-86.26 1322.46,-92.67"/>
</a>
</g>
</g>
<!-- Node25&#45;&gt;Node14 -->
<g id="edge30_Node000025_Node000014" class="edge">
<title>Node25&#45;&gt;Node14</title>
<g id="a_edge30_Node000025_Node000014"><a xlink:title=" ">
<path fill="none" stroke="#63b8ff" d="M1377.5,-83.36C1377.5,-71.26 1377.5,-57.58 1377.5,-46.74"/>
<polygon fill="#63b8ff" stroke="#63b8ff" points="1374,-83.49 1377.5,-93.49 1381,-83.49 1374,-83.49"/>
</a>
</g>
</g>
<!-- Node26 -->
<g id="Node000026" class="node">
<title>Node26</title>
<g id="a_Node000026"><a xlink:href="_v_i_c_u_s__utilities_8cpp.html" target="_top" xlink:title=" ">
<polygon fill="white" stroke="#666666" points="1811.5,-46.5 1661.5,-46.5 1661.5,-5.5 1811.5,-5.5 1811.5,-46.5"/>
<text text-anchor="start" x="1669.5" y="-34.5" font-family="Helvetica,sans-Serif" font-size="10.00">/home/hirth/git/SIM</text>
<text text-anchor="start" x="1669.5" y="-23.5" font-family="Helvetica,sans-Serif" font-size="10.00">&#45;VICUS.master2/externals</text>
<text text-anchor="middle" x="1736.5" y="-12.5" font-family="Helvetica,sans-Serif" font-size="10.00">/Vicus/src/VICUS_utilities.cpp</text>
</a>
</g>
</g>
<!-- Node25&#45;&gt;Node26 -->
<g id="edge31_Node000025_Node000026" class="edge">
<title>Node25&#45;&gt;Node26</title>
<g id="a_edge31_Node000025_Node000026"><a xlink:title=" ">
<path fill="none" stroke="#63b8ff" d="M1457.66,-96.79C1512.71,-85.27 1587.33,-68.9 1652.5,-52 1658.98,-50.32 1665.71,-48.48 1672.42,-46.58"/>
<polygon fill="#63b8ff" stroke="#63b8ff" points="1456.7,-93.41 1447.62,-98.88 1458.12,-100.27 1456.7,-93.41"/>
</a>
</g>
</g>
</g>
</svg>
