<?xml version="1.0" encoding="UTF-8" standalone="no"?>
<!DOCTYPE svg PUBLIC "-//W3C//DTD SVG 1.1//EN"
 "http://www.w3.org/Graphics/SVG/1.1/DTD/svg11.dtd">
<!-- Generated by graphviz version 2.43.0 (0)
 -->
<!-- Title: /home/hirth/git/SIM&#45;VICUS.master2/externals/Vicus/src/VICUS_SurfaceHeating.h Pages: 1 -->
<svg width="1004pt" height="214pt"
 viewBox="0.00 0.00 1004.48 214.00" xmlns="http://www.w3.org/2000/svg" xmlns:xlink="http://www.w3.org/1999/xlink">
<g id="graph0" class="graph" transform="scale(1 1) rotate(0) translate(4 210)">
<title>/home/hirth/git/SIM&#45;VICUS.master2/externals/Vicus/src/VICUS_SurfaceHeating.h</title>
<!-- Node1 -->
<g id="Node000001" class="node">
<title>Node1</title>
<g id="a_Node000001"><a xlink:title=" ">
<polygon fill="#999999" stroke="#666666" points="405.75,-206 229.75,-206 229.75,-165 405.75,-165 405.75,-206"/>
<text text-anchor="start" x="237.75" y="-194" font-family="Helvetica,sans-Serif" font-size="10.00">/home/hirth/git/SIM</text>
<text text-anchor="start" x="237.75" y="-183" font-family="Helvetica,sans-Serif" font-size="10.00">&#45;VICUS.master2/externals</text>
<text text-anchor="middle" x="317.75" y="-172" font-family="Helvetica,sans-Serif" font-size="10.00">/Vicus/src/VICUS_SurfaceHeating.h</text>
</a>
</g>
</g>
<!-- Node2 -->
<g id="Node000002" class="node">
<title>Node2</title>
<g id="a_Node000002"><a xlink:title=" ">
<polygon fill="#e0e0e0" stroke="#999999" points="609.25,-19 562.25,-19 562.25,0 609.25,0 609.25,-19"/>
<text text-anchor="middle" x="585.75" y="-7" font-family="Helvetica,sans-Serif" font-size="10.00">QColor</text>
</a>
</g>
</g>
<!-- Node1&#45;&gt;Node2 -->
<g id="edge1_Node000001_Node000002" class="edge">
<title>Node1&#45;&gt;Node2</title>
<g id="a_edge1_Node000001_Node000002"><a xlink:title=" ">
<path fill="none" stroke="#63b8ff" d="M405.97,-184.33C572.47,-181.86 922.59,-165.62 991.75,-74 1037.61,-13.24 724.83,-9.65 619.51,-10.14"/>
<polygon fill="#63b8ff" stroke="#63b8ff" points="619.4,-6.64 609.42,-10.21 619.44,-13.64 619.4,-6.64"/>
</a>
</g>
</g>
<!-- Node3 -->
<g id="Node000003" class="node">
<title>Node3</title>
<g id="a_Node000003"><a xlink:title=" ">
<polygon fill="#e0e0e0" stroke="#999999" points="104.25,-74 13.25,-74 13.25,-55 104.25,-55 104.25,-74"/>
<text text-anchor="middle" x="58.75" y="-62" font-family="Helvetica,sans-Serif" font-size="10.00">IBK_Parameter.h</text>
</a>
</g>
</g>
<!-- Node1&#45;&gt;Node3 -->
<g id="edge2_Node000001_Node000003" class="edge">
<title>Node1&#45;&gt;Node3</title>
<g id="a_edge2_Node000001_Node000003"><a xlink:title=" ">
<path fill="none" stroke="#63b8ff" d="M229.73,-173.01C191.27,-165.02 147,-151.56 111.75,-129 93.49,-117.32 78.34,-97.34 68.98,-82.9"/>
<polygon fill="#63b8ff" stroke="#63b8ff" points="71.93,-81.02 63.68,-74.36 65.98,-84.71 71.93,-81.02"/>
</a>
</g>
</g>
<!-- Node4 -->
<g id="Node000004" class="node">
<title>Node4</title>
<g id="a_Node000004"><a xlink:title=" ">
<polygon fill="#e0e0e0" stroke="#999999" points="246.25,-129 121.25,-129 121.25,-110 246.25,-110 246.25,-129"/>
<text text-anchor="middle" x="183.75" y="-117" font-family="Helvetica,sans-Serif" font-size="10.00">NANDRAD_DataTable.h</text>
</a>
</g>
</g>
<!-- Node1&#45;&gt;Node4 -->
<g id="edge3_Node000001_Node000004" class="edge">
<title>Node1&#45;&gt;Node4</title>
<g id="a_edge3_Node000001_Node000004"><a xlink:title=" ">
<path fill="none" stroke="#63b8ff" d="M276.81,-164.95C255.45,-154.75 229.89,-142.54 210.97,-133.5"/>
<polygon fill="#63b8ff" stroke="#63b8ff" points="212.27,-130.24 201.74,-129.09 209.25,-136.56 212.27,-130.24"/>
</a>
</g>
</g>
<!-- Node5 -->
<g id="Node000005" class="node">
<title>Node5</title>
<g id="a_Node000005"><a xlink:href="_v_i_c_u_s___code_gen_macros_8h.html" target="_top" xlink:title=" ">
<polygon fill="white" stroke="#666666" points="257.25,-74 122.25,-74 122.25,-55 257.25,-55 257.25,-74"/>
<text text-anchor="middle" x="189.75" y="-62" font-family="Helvetica,sans-Serif" font-size="10.00">VICUS_CodeGenMacros.h</text>
</a>
</g>
</g>
<!-- Node1&#45;&gt;Node5 -->
<g id="edge4_Node000001_Node000005" class="edge">
<title>Node1&#45;&gt;Node5</title>
<g id="a_edge4_Node000001_Node000005"><a xlink:title=" ">
<path fill="none" stroke="#63b8ff" d="M303.5,-164.88C291.5,-149.08 273.35,-126.8 254.75,-110 242.01,-98.49 226.13,-87.57 213.26,-79.43"/>
<polygon fill="#63b8ff" stroke="#63b8ff" points="214.85,-76.3 204.51,-74.02 211.17,-82.25 214.85,-76.3"/>
</a>
</g>
</g>
<!-- Node6 -->
<g id="Node000006" class="node">
<title>Node6</title>
<g id="a_Node000006"><a xlink:href="_v_i_c_u_s___constants_8h.html" target="_top" xlink:title="Contains global constants for the SIM&#45;VICUS data model.">
<polygon fill="white" stroke="#666666" points="339.25,-19 232.25,-19 232.25,0 339.25,0 339.25,-19"/>
<text text-anchor="middle" x="285.75" y="-7" font-family="Helvetica,sans-Serif" font-size="10.00">VICUS_Constants.h</text>
</a>
</g>
</g>
<!-- Node1&#45;&gt;Node6 -->
<g id="edge5_Node000001_Node000006" class="edge">
<title>Node1&#45;&gt;Node6</title>
<g id="a_edge5_Node000001_Node000006"><a xlink:title=" ">
<path fill="none" stroke="#63b8ff" d="M229.73,-170.61C185.91,-161.87 132.8,-148.49 87.75,-129 46.79,-111.28 24.97,-113.26 3.75,-74 -0.27,-66.57 -1.74,-61.42 3.75,-55 31.23,-22.84 147.47,-13.78 221.86,-11.32"/>
<polygon fill="#63b8ff" stroke="#63b8ff" points="222.18,-14.81 232.07,-11.01 221.97,-7.81 222.18,-14.81"/>
</a>
</g>
</g>
<!-- Node7 -->
<g id="Node000007" class="node">
<title>Node7</title>
<g id="a_Node000007"><a xlink:href="_v_i_c_u_s___abstract_d_b_element_8h.html" target="_top" xlink:title=" ">
<polygon fill="white" stroke="#666666" points="660.25,-74 511.25,-74 511.25,-55 660.25,-55 660.25,-74"/>
<text text-anchor="middle" x="585.75" y="-62" font-family="Helvetica,sans-Serif" font-size="10.00">VICUS_AbstractDBElement.h</text>
</a>
</g>
</g>
<!-- Node1&#45;&gt;Node7 -->
<g id="edge6_Node000001_Node000007" class="edge">
<title>Node1&#45;&gt;Node7</title>
<g id="a_edge6_Node000001_Node000007"><a xlink:title=" ">
<path fill="none" stroke="#63b8ff" d="M361.7,-164.98C417.02,-140.42 510.44,-98.94 557.23,-78.16"/>
<polygon fill="#63b8ff" stroke="#63b8ff" points="558.76,-81.31 566.48,-74.05 555.92,-74.91 558.76,-81.31"/>
</a>
</g>
</g>
<!-- Node9 -->
<g id="Node000009" class="node">
<title>Node9</title>
<g id="a_Node000009"><a xlink:href="_v_i_c_u_s___database_8h.html" target="_top" xlink:title=" ">
<polygon fill="white" stroke="#666666" points="789.75,-129 685.75,-129 685.75,-110 789.75,-110 789.75,-129"/>
<text text-anchor="middle" x="737.75" y="-117" font-family="Helvetica,sans-Serif" font-size="10.00">VICUS_Database.h</text>
</a>
</g>
</g>
<!-- Node1&#45;&gt;Node9 -->
<g id="edge10_Node000001_Node000009" class="edge">
<title>Node1&#45;&gt;Node9</title>
<g id="a_edge10_Node000001_Node000009"><a xlink:title=" ">
<path fill="none" stroke="#63b8ff" d="M405.79,-171.08C486.49,-158.79 603.97,-140.89 675.37,-130"/>
<polygon fill="#63b8ff" stroke="#63b8ff" points="676.2,-133.42 685.56,-128.45 675.15,-126.5 676.2,-133.42"/>
</a>
</g>
</g>
<!-- Node14 -->
<g id="Node000014" class="node">
<title>Node14</title>
<g id="a_Node000014"><a xlink:href="_v_i_c_u_s___network_pipe_8h.html" target="_top" xlink:title=" ">
<polygon fill="white" stroke="#666666" points="420.75,-129 302.75,-129 302.75,-110 420.75,-110 420.75,-129"/>
<text text-anchor="middle" x="361.75" y="-117" font-family="Helvetica,sans-Serif" font-size="10.00">VICUS_NetworkPipe.h</text>
</a>
</g>
</g>
<!-- Node1&#45;&gt;Node14 -->
<g id="edge16_Node000001_Node000014" class="edge">
<title>Node1&#45;&gt;Node14</title>
<g id="a_edge16_Node000001_Node000014"><a xlink:title=" ">
<path fill="none" stroke="#63b8ff" d="M331.19,-164.95C337.2,-156.2 344.22,-145.99 350.02,-137.56"/>
<polygon fill="#63b8ff" stroke="#63b8ff" points="352.94,-139.48 355.72,-129.26 347.17,-135.52 352.94,-139.48"/>
</a>
</g>
</g>
<!-- Node7&#45;&gt;Node2 -->
<g id="edge8_Node000007_Node000002" class="edge">
<title>Node7&#45;&gt;Node2</title>
<g id="a_edge8_Node000007_Node000002"><a xlink:title=" ">
<path fill="none" stroke="#63b8ff" d="M585.75,-54.75C585.75,-47.8 585.75,-37.85 585.75,-29.13"/>
<polygon fill="#63b8ff" stroke="#63b8ff" points="589.25,-29.09 585.75,-19.09 582.25,-29.09 589.25,-29.09"/>
</a>
</g>
</g>
<!-- Node7&#45;&gt;Node6 -->
<g id="edge9_Node000007_Node000006" class="edge">
<title>Node7&#45;&gt;Node6</title>
<g id="a_edge9_Node000007_Node000006"><a xlink:title=" ">
<path fill="none" stroke="#63b8ff" d="M537.55,-54.98C485,-45.7 400.89,-30.84 344.52,-20.88"/>
<polygon fill="#63b8ff" stroke="#63b8ff" points="344.78,-17.38 334.32,-19.08 343.56,-24.27 344.78,-17.38"/>
</a>
</g>
</g>
<!-- Node8 -->
<g id="Node000008" class="node">
<title>Node8</title>
<g id="a_Node000008"><a xlink:title=" ">
<polygon fill="#e0e0e0" stroke="#999999" points="518.25,-19 383.25,-19 383.25,0 518.25,0 518.25,-19"/>
<text text-anchor="middle" x="450.75" y="-7" font-family="Helvetica,sans-Serif" font-size="10.00">IBK_MultiLanguageString.h</text>
</a>
</g>
</g>
<!-- Node7&#45;&gt;Node8 -->
<g id="edge7_Node000007_Node000008" class="edge">
<title>Node7&#45;&gt;Node8</title>
<g id="a_edge7_Node000007_Node000008"><a xlink:title=" ">
<path fill="none" stroke="#63b8ff" d="M564.06,-54.98C541.95,-46.3 507.43,-32.75 482.29,-22.88"/>
<polygon fill="#63b8ff" stroke="#63b8ff" points="483.42,-19.57 472.83,-19.17 480.86,-26.08 483.42,-19.57"/>
</a>
</g>
</g>
<!-- Node9&#45;&gt;Node7 -->
<g id="edge12_Node000009_Node000007" class="edge">
<title>Node9&#45;&gt;Node7</title>
<g id="a_edge12_Node000009_Node000007"><a xlink:title=" ">
<path fill="none" stroke="#63b8ff" d="M713.33,-109.98C688.03,-101.16 648.29,-87.31 619.89,-77.41"/>
<polygon fill="#63b8ff" stroke="#63b8ff" points="620.95,-74.07 610.36,-74.08 618.65,-80.68 620.95,-74.07"/>
</a>
</g>
</g>
<!-- Node10 -->
<g id="Node000010" class="node">
<title>Node10</title>
<g id="a_Node000010"><a xlink:title=" ">
<polygon fill="#e0e0e0" stroke="#999999" points="787.25,-74 752.25,-74 752.25,-55 787.25,-55 787.25,-74"/>
<text text-anchor="middle" x="769.75" y="-62" font-family="Helvetica,sans-Serif" font-size="10.00">map</text>
</a>
</g>
</g>
<!-- Node9&#45;&gt;Node10 -->
<g id="edge11_Node000009_Node000010" class="edge">
<title>Node9&#45;&gt;Node10</title>
<g id="a_edge11_Node000009_Node000010"><a xlink:title=" ">
<path fill="none" stroke="#63b8ff" d="M743.03,-109.75C747.46,-102.42 753.91,-91.73 759.36,-82.7"/>
<polygon fill="#63b8ff" stroke="#63b8ff" points="762.39,-84.46 764.56,-74.09 756.4,-80.84 762.39,-84.46"/>
</a>
</g>
</g>
<!-- Node11 -->
<g id="Node000011" class="node">
<title>Node11</title>
<g id="a_Node000011"><a xlink:title=" ">
<polygon fill="#e0e0e0" stroke="#999999" points="872.25,-74 805.25,-74 805.25,-55 872.25,-55 872.25,-74"/>
<text text-anchor="middle" x="838.75" y="-62" font-family="Helvetica,sans-Serif" font-size="10.00">IBK_Path.h</text>
</a>
</g>
</g>
<!-- Node9&#45;&gt;Node11 -->
<g id="edge13_Node000009_Node000011" class="edge">
<title>Node9&#45;&gt;Node11</title>
<g id="a_edge13_Node000009_Node000011"><a xlink:title=" ">
<path fill="none" stroke="#63b8ff" d="M753.97,-109.98C769.93,-101.61 794.53,-88.7 813.12,-78.95"/>
<polygon fill="#63b8ff" stroke="#63b8ff" points="815,-81.92 822.22,-74.17 811.74,-75.72 815,-81.92"/>
</a>
</g>
</g>
<!-- Node12 -->
<g id="Node000012" class="node">
<title>Node12</title>
<g id="a_Node000012"><a xlink:title=" ">
<polygon fill="#e0e0e0" stroke="#999999" points="982.75,-74 890.75,-74 890.75,-55 982.75,-55 982.75,-74"/>
<text text-anchor="middle" x="936.75" y="-62" font-family="Helvetica,sans-Serif" font-size="10.00">IBK_messages.h</text>
</a>
</g>
</g>
<!-- Node9&#45;&gt;Node12 -->
<g id="edge14_Node000009_Node000012" class="edge">
<title>Node9&#45;&gt;Node12</title>
<g id="a_edge14_Node000009_Node000012"><a xlink:title=" ">
<path fill="none" stroke="#63b8ff" d="M769.72,-109.98C803.56,-100.97 857.14,-86.7 894.46,-76.76"/>
<polygon fill="#63b8ff" stroke="#63b8ff" points="895.76,-80.04 904.52,-74.08 893.96,-73.27 895.76,-80.04"/>
</a>
</g>
</g>
<!-- Node13 -->
<g id="Node000013" class="node">
<title>Node13</title>
<g id="a_Node000013"><a xlink:title=" ">
<polygon fill="#e0e0e0" stroke="#999999" points="733.75,-74 677.75,-74 677.75,-55 733.75,-55 733.75,-74"/>
<text text-anchor="middle" x="705.75" y="-62" font-family="Helvetica,sans-Serif" font-size="10.00">tinyxml.h</text>
</a>
</g>
</g>
<!-- Node9&#45;&gt;Node13 -->
<g id="edge15_Node000009_Node000013" class="edge">
<title>Node9&#45;&gt;Node13</title>
<g id="a_edge15_Node000009_Node000013"><a xlink:title=" ">
<path fill="none" stroke="#63b8ff" d="M732.46,-109.75C728.04,-102.42 721.58,-91.73 716.13,-82.7"/>
<polygon fill="#63b8ff" stroke="#63b8ff" points="719.1,-80.84 710.93,-74.09 713.11,-84.46 719.1,-80.84"/>
</a>
</g>
</g>
<!-- Node14&#45;&gt;Node2 -->
<g id="edge24_Node000014_Node000002" class="edge">
<title>Node14&#45;&gt;Node2</title>
<g id="a_edge24_Node000014_Node000002"><a xlink:title=" ">
<path fill="none" stroke="#63b8ff" d="M382.64,-109.88C403.39,-101.2 436.03,-87.24 463.75,-74 482.22,-65.18 530.67,-39.69 560.66,-23.82"/>
<polygon fill="#63b8ff" stroke="#63b8ff" points="562.48,-26.81 569.68,-19.04 559.21,-20.62 562.48,-26.81"/>
</a>
</g>
</g>
<!-- Node14&#45;&gt;Node3 -->
<g id="edge23_Node000014_Node000003" class="edge">
<title>Node14&#45;&gt;Node3</title>
<g id="a_edge23_Node000014_Node000003"><a xlink:title=" ">
<path fill="none" stroke="#63b8ff" d="M313.06,-109.98C258.78,-100.49 171.14,-85.16 114.24,-75.21"/>
<polygon fill="#63b8ff" stroke="#63b8ff" points="114.79,-71.75 104.33,-73.47 113.58,-78.64 114.79,-71.75"/>
</a>
</g>
</g>
<!-- Node14&#45;&gt;Node5 -->
<g id="edge19_Node000014_Node000005" class="edge">
<title>Node14&#45;&gt;Node5</title>
<g id="a_edge19_Node000014_Node000005"><a xlink:title=" ">
<path fill="none" stroke="#63b8ff" d="M334.11,-109.98C305.24,-101.09 259.74,-87.07 227.54,-77.15"/>
<polygon fill="#63b8ff" stroke="#63b8ff" points="228.19,-73.68 217.6,-74.08 226.12,-80.37 228.19,-73.68"/>
</a>
</g>
</g>
<!-- Node14&#45;&gt;Node6 -->
<g id="edge20_Node000014_Node000006" class="edge">
<title>Node14&#45;&gt;Node6</title>
<g id="a_edge20_Node000014_Node000006"><a xlink:title=" ">
<path fill="none" stroke="#63b8ff" d="M348.11,-109.75C336.51,-101.7 320.13,-88.78 309.75,-74 300.22,-60.44 293.92,-42.61 290.17,-29.3"/>
<polygon fill="#63b8ff" stroke="#63b8ff" points="293.5,-28.19 287.61,-19.38 286.72,-29.93 293.5,-28.19"/>
</a>
</g>
</g>
<!-- Node14&#45;&gt;Node7 -->
<g id="edge21_Node000014_Node000007" class="edge">
<title>Node14&#45;&gt;Node7</title>
<g id="a_edge21_Node000014_Node000007"><a xlink:title=" ">
<path fill="none" stroke="#63b8ff" d="M397.74,-109.98C436.24,-100.87 497.43,-86.4 539.49,-76.45"/>
<polygon fill="#63b8ff" stroke="#63b8ff" points="540.55,-79.79 549.48,-74.08 538.94,-72.98 540.55,-79.79"/>
</a>
</g>
</g>
<!-- Node14&#45;&gt;Node8 -->
<g id="edge22_Node000014_Node000008" class="edge">
<title>Node14&#45;&gt;Node8</title>
<g id="a_edge22_Node000014_Node000008"><a xlink:title=" ">
<path fill="none" stroke="#63b8ff" d="M354.67,-109.58C345.3,-96.61 331.22,-72.21 342.75,-55 353.36,-39.15 370.76,-28.94 388.52,-22.36"/>
<polygon fill="#63b8ff" stroke="#63b8ff" points="390.01,-25.55 398.39,-19.07 387.79,-18.91 390.01,-25.55"/>
</a>
</g>
</g>
<!-- Node15 -->
<g id="Node000015" class="node">
<title>Node15</title>
<g id="a_Node000015"><a xlink:title=" ">
<polygon fill="#e0e0e0" stroke="#999999" points="455.25,-74 414.25,-74 414.25,-55 455.25,-55 455.25,-74"/>
<text text-anchor="middle" x="434.75" y="-62" font-family="Helvetica,sans-Serif" font-size="10.00">string</text>
</a>
</g>
</g>
<!-- Node14&#45;&gt;Node15 -->
<g id="edge17_Node000014_Node000015" class="edge">
<title>Node14&#45;&gt;Node15</title>
<g id="a_edge17_Node000014_Node000015"><a xlink:title=" ">
<path fill="none" stroke="#63b8ff" d="M373.48,-109.98C384.48,-102 401.17,-89.88 414.35,-80.31"/>
<polygon fill="#63b8ff" stroke="#63b8ff" points="416.77,-82.88 422.8,-74.17 412.66,-77.21 416.77,-82.88"/>
</a>
</g>
</g>
<!-- Node16 -->
<g id="Node000016" class="node">
<title>Node16</title>
<g id="a_Node000016"><a xlink:title=" ">
<polygon fill="#e0e0e0" stroke="#999999" points="395.75,-74 351.75,-74 351.75,-55 395.75,-55 395.75,-74"/>
<text text-anchor="middle" x="373.75" y="-62" font-family="Helvetica,sans-Serif" font-size="10.00">vector</text>
</a>
</g>
</g>
<!-- Node14&#45;&gt;Node16 -->
<g id="edge18_Node000014_Node000016" class="edge">
<title>Node14&#45;&gt;Node16</title>
<g id="a_edge18_Node000014_Node000016"><a xlink:title=" ">
<path fill="none" stroke="#63b8ff" d="M363.73,-109.75C365.32,-102.72 367.61,-92.62 369.59,-83.84"/>
<polygon fill="#63b8ff" stroke="#63b8ff" points="373.01,-84.62 371.8,-74.09 366.18,-83.07 373.01,-84.62"/>
</a>
</g>
</g>
</g>
</svg>
