<?xml version="1.0" encoding="UTF-8" standalone="no"?>
<!DOCTYPE svg PUBLIC "-//W3C//DTD SVG 1.1//EN"
 "http://www.w3.org/Graphics/SVG/1.1/DTD/svg11.dtd">
<!-- Generated by graphviz version 2.43.0 (0)
 -->
<!-- Title: /home/hirth/git/SIM&#45;VICUS.master2/externals/Vicus/src/VICUS_SubSurface.h Pages: 1 -->
<svg width="942pt" height="159pt"
 viewBox="0.00 0.00 942.00 159.00" xmlns="http://www.w3.org/2000/svg" xmlns:xlink="http://www.w3.org/1999/xlink">
<g id="graph0" class="graph" transform="scale(1 1) rotate(0) translate(4 155)">
<title>/home/hirth/git/SIM&#45;VICUS.master2/externals/Vicus/src/VICUS_SubSurface.h</title>
<!-- Node1 -->
<g id="Node000001" class="node">
<title>Node1</title>
<g id="a_Node000001"><a xlink:title=" ">
<polygon fill="#999999" stroke="#666666" points="576.5,-151 416.5,-151 416.5,-110 576.5,-110 576.5,-151"/>
<text text-anchor="start" x="424.5" y="-139" font-family="Helvetica,sans-Serif" font-size="10.00">/home/hirth/git/SIM</text>
<text text-anchor="start" x="424.5" y="-128" font-family="Helvetica,sans-Serif" font-size="10.00">&#45;VICUS.master2/externals</text>
<text text-anchor="middle" x="496.5" y="-117" font-family="Helvetica,sans-Serif" font-size="10.00">/Vicus/src/VICUS_SubSurface.h</text>
</a>
</g>
</g>
<!-- Node2 -->
<g id="Node000002" class="node">
<title>Node2</title>
<g id="a_Node000002"><a xlink:href="_v_i_c_u_s___code_gen_macros_8h.html" target="_top" xlink:title=" ">
<polygon fill="white" stroke="#666666" points="135,-19 0,-19 0,0 135,0 135,-19"/>
<text text-anchor="middle" x="67.5" y="-7" font-family="Helvetica,sans-Serif" font-size="10.00">VICUS_CodeGenMacros.h</text>
</a>
</g>
</g>
<!-- Node1&#45;&gt;Node2 -->
<g id="edge1_Node000001_Node000002" class="edge">
<title>Node1&#45;&gt;Node2</title>
<g id="a_edge1_Node000001_Node000002"><a xlink:title=" ">
<path fill="none" stroke="#63b8ff" d="M416.19,-128.78C342.54,-125.41 231.94,-113.36 144.5,-74 119.7,-62.84 96.37,-41.5 82.03,-26.65"/>
<polygon fill="#63b8ff" stroke="#63b8ff" points="84.42,-24.09 75.03,-19.18 79.31,-28.87 84.42,-24.09"/>
</a>
</g>
</g>
<!-- Node3 -->
<g id="Node000003" class="node">
<title>Node3</title>
<g id="a_Node000003"><a xlink:href="_v_i_c_u_s___constants_8h.html" target="_top" xlink:title="Contains global constants for the SIM&#45;VICUS data model.">
<polygon fill="white" stroke="#666666" points="389,-19 282,-19 282,0 389,0 389,-19"/>
<text text-anchor="middle" x="335.5" y="-7" font-family="Helvetica,sans-Serif" font-size="10.00">VICUS_Constants.h</text>
</a>
</g>
</g>
<!-- Node1&#45;&gt;Node3 -->
<g id="edge2_Node000001_Node000003" class="edge">
<title>Node1&#45;&gt;Node3</title>
<g id="a_edge2_Node000001_Node000003"><a xlink:title=" ">
<path fill="none" stroke="#63b8ff" d="M429.57,-109.93C408.57,-101.39 386.47,-89.67 369.5,-74 356.03,-61.56 346.84,-42.54 341.44,-28.56"/>
<polygon fill="#63b8ff" stroke="#63b8ff" points="344.7,-27.28 338.04,-19.04 338.11,-29.63 344.7,-27.28"/>
</a>
</g>
</g>
<!-- Node4 -->
<g id="Node000004" class="node">
<title>Node4</title>
<g id="a_Node000004"><a xlink:href="_v_i_c_u_s___polygon2_d_8h.html" target="_top" xlink:title=" ">
<polygon fill="white" stroke="#666666" points="263.5,-74 153.5,-74 153.5,-55 263.5,-55 263.5,-74"/>
<text text-anchor="middle" x="208.5" y="-62" font-family="Helvetica,sans-Serif" font-size="10.00">VICUS_Polygon2D.h</text>
</a>
</g>
</g>
<!-- Node1&#45;&gt;Node4 -->
<g id="edge3_Node000001_Node000004" class="edge">
<title>Node1&#45;&gt;Node4</title>
<g id="a_edge3_Node000001_Node000004"><a xlink:title=" ">
<path fill="none" stroke="#63b8ff" d="M416.28,-111.67C365.12,-100.3 300.51,-85.95 257.03,-76.28"/>
<polygon fill="#63b8ff" stroke="#63b8ff" points="257.52,-72.81 247,-74.05 256,-79.64 257.52,-72.81"/>
</a>
</g>
</g>
<!-- Node6 -->
<g id="Node000006" class="node">
<title>Node6</title>
<g id="a_Node000006"><a xlink:href="_v_i_c_u_s___object_8h.html" target="_top" xlink:title=" ">
<polygon fill="white" stroke="#666666" points="468.5,-74 378.5,-74 378.5,-55 468.5,-55 468.5,-74"/>
<text text-anchor="middle" x="423.5" y="-62" font-family="Helvetica,sans-Serif" font-size="10.00">VICUS_Object.h</text>
</a>
</g>
</g>
<!-- Node1&#45;&gt;Node6 -->
<g id="edge6_Node000001_Node000006" class="edge">
<title>Node1&#45;&gt;Node6</title>
<g id="a_edge6_Node000001_Node000006"><a xlink:title=" ">
<path fill="none" stroke="#63b8ff" d="M474.2,-109.95C463.59,-100.65 451.08,-89.68 441.14,-80.96"/>
<polygon fill="#63b8ff" stroke="#63b8ff" points="443.32,-78.22 433.49,-74.26 438.7,-83.48 443.32,-78.22"/>
</a>
</g>
</g>
<!-- Node9 -->
<g id="Node000009" class="node">
<title>Node9</title>
<g id="a_Node000009"><a xlink:title=" ">
<polygon fill="#e0e0e0" stroke="#999999" points="567.5,-19 517.5,-19 517.5,0 567.5,0 567.5,-19"/>
<text text-anchor="middle" x="542.5" y="-7" font-family="Helvetica,sans-Serif" font-size="10.00">QString</text>
</a>
</g>
</g>
<!-- Node1&#45;&gt;Node9 -->
<g id="edge14_Node000001_Node000009" class="edge">
<title>Node1&#45;&gt;Node9</title>
<g id="a_edge14_Node000001_Node000009"><a xlink:title=" ">
<path fill="none" stroke="#63b8ff" d="M500.3,-109.73C503.6,-94.44 509.02,-72.92 516.5,-55 520.46,-45.5 526.11,-35.56 531.13,-27.49"/>
<polygon fill="#63b8ff" stroke="#63b8ff" points="534.12,-29.31 536.6,-19.01 528.24,-25.52 534.12,-29.31"/>
</a>
</g>
</g>
<!-- Node10 -->
<g id="Node000010" class="node">
<title>Node10</title>
<g id="a_Node000010"><a xlink:title=" ">
<polygon fill="#e0e0e0" stroke="#999999" points="664,-74 525,-74 525,-55 664,-55 664,-74"/>
<text text-anchor="middle" x="594.5" y="-62" font-family="Helvetica,sans-Serif" font-size="10.00">NANDRAD_IDVectorMap.h</text>
</a>
</g>
</g>
<!-- Node1&#45;&gt;Node10 -->
<g id="edge11_Node000001_Node000010" class="edge">
<title>Node1&#45;&gt;Node10</title>
<g id="a_edge11_Node000001_Node000010"><a xlink:title=" ">
<path fill="none" stroke="#63b8ff" d="M526.44,-109.95C541.35,-100.21 559.04,-88.65 572.66,-79.76"/>
<polygon fill="#63b8ff" stroke="#63b8ff" points="574.88,-82.49 581.34,-74.09 571.06,-76.63 574.88,-82.49"/>
</a>
</g>
</g>
<!-- Node11 -->
<g id="Node000011" class="node">
<title>Node11</title>
<g id="a_Node000011"><a xlink:title=" ">
<polygon fill="#e0e0e0" stroke="#999999" points="782.5,-74 682.5,-74 682.5,-55 782.5,-55 782.5,-74"/>
<text text-anchor="middle" x="732.5" y="-62" font-family="Helvetica,sans-Serif" font-size="10.00">IBK_LinearSpline.h</text>
</a>
</g>
</g>
<!-- Node1&#45;&gt;Node11 -->
<g id="edge12_Node000001_Node000011" class="edge">
<title>Node1&#45;&gt;Node11</title>
<g id="a_edge12_Node000001_Node000011"><a xlink:title=" ">
<path fill="none" stroke="#63b8ff" d="M568.59,-109.95C608.76,-99.06 657.34,-85.88 691.14,-76.72"/>
<polygon fill="#63b8ff" stroke="#63b8ff" points="692.39,-80 701.13,-74.01 690.56,-73.25 692.39,-80"/>
</a>
</g>
</g>
<!-- Node12 -->
<g id="Node000012" class="node">
<title>Node12</title>
<g id="a_Node000012"><a xlink:title=" ">
<polygon fill="#e0e0e0" stroke="#999999" points="868.5,-74 800.5,-74 800.5,-55 868.5,-55 868.5,-74"/>
<text text-anchor="middle" x="834.5" y="-62" font-family="Helvetica,sans-Serif" font-size="10.00">IBK_point.h</text>
</a>
</g>
</g>
<!-- Node1&#45;&gt;Node12 -->
<g id="edge13_Node000001_Node000012" class="edge">
<title>Node1&#45;&gt;Node12</title>
<g id="a_edge13_Node000001_Node000012"><a xlink:title=" ">
<path fill="none" stroke="#63b8ff" d="M576.67,-114.62C633.59,-104.01 712.08,-89.28 790.22,-74.23"/>
<polygon fill="#63b8ff" stroke="#63b8ff" points="791.08,-77.63 800.24,-72.3 789.76,-70.76 791.08,-77.63"/>
</a>
</g>
</g>
<!-- Node13 -->
<g id="Node000013" class="node">
<title>Node13</title>
<g id="a_Node000013"><a xlink:title=" ">
<polygon fill="#e0e0e0" stroke="#999999" points="934,-74 887,-74 887,-55 934,-55 934,-74"/>
<text text-anchor="middle" x="910.5" y="-62" font-family="Helvetica,sans-Serif" font-size="10.00">QColor</text>
</a>
</g>
</g>
<!-- Node1&#45;&gt;Node13 -->
<g id="edge15_Node000001_Node000013" class="edge">
<title>Node1&#45;&gt;Node13</title>
<g id="a_edge15_Node000001_Node000013"><a xlink:title=" ">
<path fill="none" stroke="#63b8ff" d="M576.84,-120.34C651.97,-111.2 767.44,-95.66 876.89,-73.92"/>
<polygon fill="#63b8ff" stroke="#63b8ff" points="877.66,-77.33 886.78,-71.94 876.28,-70.47 877.66,-77.33"/>
</a>
</g>
</g>
<!-- Node4&#45;&gt;Node2 -->
<g id="edge5_Node000004_Node000002" class="edge">
<title>Node4&#45;&gt;Node2</title>
<g id="a_edge5_Node000004_Node000002"><a xlink:title=" ">
<path fill="none" stroke="#63b8ff" d="M185.85,-54.98C162.65,-46.27 126.38,-32.63 100.1,-22.75"/>
<polygon fill="#63b8ff" stroke="#63b8ff" points="101.16,-19.41 90.57,-19.17 98.7,-25.97 101.16,-19.41"/>
</a>
</g>
</g>
<!-- Node5 -->
<g id="Node000005" class="node">
<title>Node5</title>
<g id="a_Node000005"><a xlink:title=" ">
<polygon fill="#e0e0e0" stroke="#999999" points="263.5,-19 153.5,-19 153.5,0 263.5,0 263.5,-19"/>
<text text-anchor="middle" x="208.5" y="-7" font-family="Helvetica,sans-Serif" font-size="10.00">IBKMK_Polygon2D.h</text>
</a>
</g>
</g>
<!-- Node4&#45;&gt;Node5 -->
<g id="edge4_Node000004_Node000005" class="edge">
<title>Node4&#45;&gt;Node5</title>
<g id="a_edge4_Node000004_Node000005"><a xlink:title=" ">
<path fill="none" stroke="#63b8ff" d="M208.5,-54.75C208.5,-47.8 208.5,-37.85 208.5,-29.13"/>
<polygon fill="#63b8ff" stroke="#63b8ff" points="212,-29.09 208.5,-19.09 205,-29.09 212,-29.09"/>
</a>
</g>
</g>
<!-- Node6&#45;&gt;Node3 -->
<g id="edge10_Node000006_Node000003" class="edge">
<title>Node6&#45;&gt;Node3</title>
<g id="a_edge10_Node000006_Node000003"><a xlink:title=" ">
<path fill="none" stroke="#63b8ff" d="M409.36,-54.98C395.71,-46.77 374.81,-34.18 358.72,-24.49"/>
<polygon fill="#63b8ff" stroke="#63b8ff" points="360.27,-21.33 349.9,-19.17 356.66,-27.33 360.27,-21.33"/>
</a>
</g>
</g>
<!-- Node7 -->
<g id="Node000007" class="node">
<title>Node7</title>
<g id="a_Node000007"><a xlink:title=" ">
<polygon fill="#e0e0e0" stroke="#999999" points="451.5,-19 407.5,-19 407.5,0 451.5,0 451.5,-19"/>
<text text-anchor="middle" x="429.5" y="-7" font-family="Helvetica,sans-Serif" font-size="10.00">vector</text>
</a>
</g>
</g>
<!-- Node6&#45;&gt;Node7 -->
<g id="edge7_Node000006_Node000007" class="edge">
<title>Node6&#45;&gt;Node7</title>
<g id="a_edge7_Node000006_Node000007"><a xlink:title=" ">
<path fill="none" stroke="#63b8ff" d="M424.49,-54.75C425.28,-47.8 426.4,-37.85 427.39,-29.13"/>
<polygon fill="#63b8ff" stroke="#63b8ff" points="430.88,-29.42 428.53,-19.09 423.92,-28.63 430.88,-29.42"/>
</a>
</g>
</g>
<!-- Node8 -->
<g id="Node000008" class="node">
<title>Node8</title>
<g id="a_Node000008"><a xlink:title=" ">
<polygon fill="#e0e0e0" stroke="#999999" points="499.5,-19 469.5,-19 469.5,0 499.5,0 499.5,-19"/>
<text text-anchor="middle" x="484.5" y="-7" font-family="Helvetica,sans-Serif" font-size="10.00">set</text>
</a>
</g>
</g>
<!-- Node6&#45;&gt;Node8 -->
<g id="edge8_Node000006_Node000008" class="edge">
<title>Node6&#45;&gt;Node8</title>
<g id="a_edge8_Node000006_Node000008"><a xlink:title=" ">
<path fill="none" stroke="#63b8ff" d="M433.3,-54.98C442.32,-47.15 455.91,-35.34 466.82,-25.86"/>
<polygon fill="#63b8ff" stroke="#63b8ff" points="469.27,-28.37 474.52,-19.17 464.68,-23.09 469.27,-28.37"/>
</a>
</g>
</g>
<!-- Node6&#45;&gt;Node9 -->
<g id="edge9_Node000006_Node000009" class="edge">
<title>Node6&#45;&gt;Node9</title>
<g id="a_edge9_Node000006_Node000009"><a xlink:title=" ">
<path fill="none" stroke="#63b8ff" d="M442.62,-54.98C461.85,-46.42 491.73,-33.11 513.81,-23.28"/>
<polygon fill="#63b8ff" stroke="#63b8ff" points="515.32,-26.44 523.03,-19.17 512.47,-20.04 515.32,-26.44"/>
</a>
</g>
</g>
</g>
</svg>
