<?xml version="1.0" encoding="UTF-8" standalone="no"?>
<!DOCTYPE svg PUBLIC "-//W3C//DTD SVG 1.1//EN"
 "http://www.w3.org/Graphics/SVG/1.1/DTD/svg11.dtd">
<!-- Generated by graphviz version 2.43.0 (0)
 -->
<!-- Title: /home/hirth/git/SIM&#45;VICUS.master2/externals/Vicus/src/VICUS_NetworkEdge.h Pages: 1 -->
<svg width="2007pt" height="390pt"
 viewBox="0.00 0.00 2007.00 390.00" xmlns="http://www.w3.org/2000/svg" xmlns:xlink="http://www.w3.org/1999/xlink">
<g id="graph0" class="graph" transform="scale(1 1) rotate(0) translate(4 386)">
<title>/home/hirth/git/SIM&#45;VICUS.master2/externals/Vicus/src/VICUS_NetworkEdge.h</title>
<!-- Node1 -->
<g id="Node000001" class="node">
<title>Node1</title>
<g id="a_Node000001"><a xlink:title=" ">
<polygon fill="#999999" stroke="#666666" points="735,-382 567,-382 567,-341 735,-341 735,-382"/>
<text text-anchor="start" x="575" y="-370" font-family="Helvetica,sans-Serif" font-size="10.00">/home/hirth/git/SIM</text>
<text text-anchor="start" x="575" y="-359" font-family="Helvetica,sans-Serif" font-size="10.00">&#45;VICUS.master2/externals</text>
<text text-anchor="middle" x="651" y="-348" font-family="Helvetica,sans-Serif" font-size="10.00">/Vicus/src/VICUS_NetworkEdge.h</text>
</a>
</g>
</g>
<!-- Node2 -->
<g id="Node000002" class="node">
<title>Node2</title>
<g id="a_Node000002"><a xlink:href="_v_i_c_u_s___network_8h.html" target="_top" xlink:title=" ">
<polygon fill="white" stroke="#666666" points="724,-299.5 578,-299.5 578,-258.5 724,-258.5 724,-299.5"/>
<text text-anchor="start" x="586" y="-287.5" font-family="Helvetica,sans-Serif" font-size="10.00">/home/hirth/git/SIM</text>
<text text-anchor="start" x="586" y="-276.5" font-family="Helvetica,sans-Serif" font-size="10.00">&#45;VICUS.master2/externals</text>
<text text-anchor="middle" x="651" y="-265.5" font-family="Helvetica,sans-Serif" font-size="10.00">/Vicus/src/VICUS_Network.h</text>
</a>
</g>
</g>
<!-- Node1&#45;&gt;Node2 -->
<g id="edge1_Node000001_Node000002" class="edge">
<title>Node1&#45;&gt;Node2</title>
<g id="a_edge1_Node000001_Node000002"><a xlink:title=" ">
<path fill="none" stroke="#63b8ff" d="M651,-330.37C651,-320.1 651,-308.9 651,-299.67"/>
<polygon fill="#63b8ff" stroke="#63b8ff" points="647.5,-330.6 651,-340.6 654.5,-330.6 647.5,-330.6"/>
</a>
</g>
</g>
<!-- Node7 -->
<g id="Node000007" class="node">
<title>Node7</title>
<g id="a_Node000007"><a xlink:href="_v_i_c_u_s___network_edge_8cpp.html" target="_top" xlink:title=" ">
<polygon fill="white" stroke="#666666" points="535.5,-123.5 356.5,-123.5 356.5,-82.5 535.5,-82.5 535.5,-123.5"/>
<text text-anchor="start" x="364.5" y="-111.5" font-family="Helvetica,sans-Serif" font-size="10.00">/home/hirth/git/SIM</text>
<text text-anchor="start" x="364.5" y="-100.5" font-family="Helvetica,sans-Serif" font-size="10.00">&#45;VICUS.master2/externals</text>
<text text-anchor="middle" x="446" y="-89.5" font-family="Helvetica,sans-Serif" font-size="10.00">/Vicus/src/VICUS_NetworkEdge.cpp</text>
</a>
</g>
</g>
<!-- Node1&#45;&gt;Node7 -->
<g id="edge14_Node000001_Node000007" class="edge">
<title>Node1&#45;&gt;Node7</title>
<g id="a_edge14_Node000001_Node000007"><a xlink:title=" ">
<path fill="none" stroke="#63b8ff" d="M601.97,-335.53C589.7,-327.27 577.61,-317.05 569,-305 531.52,-252.54 567.76,-217.97 531,-165 519.09,-147.84 500.73,-133.79 484.11,-123.51"/>
<polygon fill="#63b8ff" stroke="#63b8ff" points="600.13,-338.51 610.44,-340.94 603.9,-332.61 600.13,-338.51"/>
</a>
</g>
</g>
<!-- Node14 -->
<g id="Node000014" class="node">
<title>Node14</title>
<g id="a_Node000014"><a xlink:href="_v_i_c_u_s___network_line_8h.html" target="_top" xlink:title=" ">
<polygon fill="white" stroke="#666666" points="522,-211.5 358,-211.5 358,-170.5 522,-170.5 522,-211.5"/>
<text text-anchor="start" x="366" y="-199.5" font-family="Helvetica,sans-Serif" font-size="10.00">/home/hirth/git/SIM</text>
<text text-anchor="start" x="366" y="-188.5" font-family="Helvetica,sans-Serif" font-size="10.00">&#45;VICUS.master2/externals</text>
<text text-anchor="middle" x="440" y="-177.5" font-family="Helvetica,sans-Serif" font-size="10.00">/Vicus/src/VICUS_NetworkLine.h</text>
</a>
</g>
</g>
<!-- Node1&#45;&gt;Node14 -->
<g id="edge15_Node000001_Node000014" class="edge">
<title>Node1&#45;&gt;Node14</title>
<g id="a_edge15_Node000001_Node000014"><a xlink:title=" ">
<path fill="none" stroke="#63b8ff" d="M589.98,-336.82C571.69,-328.24 552.2,-317.53 536,-305 500.97,-277.92 469.68,-236.22 452.91,-211.77"/>
<polygon fill="#63b8ff" stroke="#63b8ff" points="588.57,-340.02 599.13,-340.98 591.47,-333.65 588.57,-340.02"/>
</a>
</g>
</g>
<!-- Node18 -->
<g id="Node000018" class="node">
<title>Node18</title>
<g id="a_Node000018"><a xlink:href="_v_i_c_u_s___network_node_8cpp.html" target="_top" xlink:title=" ">
<polygon fill="white" stroke="#666666" points="921.5,-299.5 742.5,-299.5 742.5,-258.5 921.5,-258.5 921.5,-299.5"/>
<text text-anchor="start" x="750.5" y="-287.5" font-family="Helvetica,sans-Serif" font-size="10.00">/home/hirth/git/SIM</text>
<text text-anchor="start" x="750.5" y="-276.5" font-family="Helvetica,sans-Serif" font-size="10.00">&#45;VICUS.master2/externals</text>
<text text-anchor="middle" x="832" y="-265.5" font-family="Helvetica,sans-Serif" font-size="10.00">/Vicus/src/VICUS_NetworkNode.cpp</text>
</a>
</g>
</g>
<!-- Node1&#45;&gt;Node18 -->
<g id="edge21_Node000001_Node000018" class="edge">
<title>Node1&#45;&gt;Node18</title>
<g id="a_edge21_Node000001_Node000018"><a xlink:title=" ">
<path fill="none" stroke="#63b8ff" d="M704.44,-336.73C731,-324.92 762.71,-310.82 787.87,-299.63"/>
<polygon fill="#63b8ff" stroke="#63b8ff" points="702.99,-333.55 695.28,-340.81 705.84,-339.94 702.99,-333.55"/>
</a>
</g>
</g>
<!-- Node19 -->
<g id="Node000019" class="node">
<title>Node19</title>
<g id="a_Node000019"><a xlink:href="ncg___v_i_c_u_s___network_edge_8cpp.html" target="_top" xlink:title=" ">
<polygon fill="white" stroke="#666666" points="1074.5,-305 939.5,-305 939.5,-253 1074.5,-253 1074.5,-305"/>
<text text-anchor="start" x="947.5" y="-293" font-family="Helvetica,sans-Serif" font-size="10.00">/home/hirth/git/SIM</text>
<text text-anchor="start" x="947.5" y="-282" font-family="Helvetica,sans-Serif" font-size="10.00">&#45;VICUS.master2/externals</text>
<text text-anchor="start" x="947.5" y="-271" font-family="Helvetica,sans-Serif" font-size="10.00">/Vicus/src/ncg/ncg_VICUS</text>
<text text-anchor="middle" x="1007" y="-260" font-family="Helvetica,sans-Serif" font-size="10.00">_NetworkEdge.cpp</text>
</a>
</g>
</g>
<!-- Node1&#45;&gt;Node19 -->
<g id="edge22_Node000001_Node000019" class="edge">
<title>Node1&#45;&gt;Node19</title>
<g id="a_edge22_Node000001_Node000019"><a xlink:title=" ">
<path fill="none" stroke="#63b8ff" d="M745.25,-344.78C799.87,-334.94 869.74,-321.08 931,-305 933.69,-304.29 936.42,-303.55 939.17,-302.77"/>
<polygon fill="#63b8ff" stroke="#63b8ff" points="744.46,-341.37 735.23,-346.57 745.69,-348.26 744.46,-341.37"/>
</a>
</g>
</g>
<!-- Node3 -->
<g id="Node000003" class="node">
<title>Node3</title>
<g id="a_Node000003"><a xlink:href="_v_i_c_u_s___network_8cpp.html" target="_top" xlink:title=" ">
<polygon fill="white" stroke="#666666" points="710,-123.5 554,-123.5 554,-82.5 710,-82.5 710,-123.5"/>
<text text-anchor="start" x="562" y="-111.5" font-family="Helvetica,sans-Serif" font-size="10.00">/home/hirth/git/SIM</text>
<text text-anchor="start" x="562" y="-100.5" font-family="Helvetica,sans-Serif" font-size="10.00">&#45;VICUS.master2/externals</text>
<text text-anchor="middle" x="632" y="-89.5" font-family="Helvetica,sans-Serif" font-size="10.00">/Vicus/src/VICUS_Network.cpp</text>
</a>
</g>
</g>
<!-- Node2&#45;&gt;Node3 -->
<g id="edge2_Node000002_Node000003" class="edge">
<title>Node2&#45;&gt;Node3</title>
<g id="a_edge2_Node000002_Node000003"><a xlink:title=" ">
<path fill="none" stroke="#63b8ff" d="M647.74,-248.11C643.84,-212.45 637.45,-153.87 634.13,-123.55"/>
<polygon fill="#63b8ff" stroke="#63b8ff" points="644.29,-248.82 648.86,-258.38 651.25,-248.06 644.29,-248.82"/>
</a>
</g>
</g>
<!-- Node4 -->
<g id="Node000004" class="node">
<title>Node4</title>
<g id="a_Node000004"><a xlink:href="_v_i_c_u_s___project_8h.html" target="_top" xlink:title=" ">
<polygon fill="white" stroke="#666666" points="1095,-211.5 955,-211.5 955,-170.5 1095,-170.5 1095,-211.5"/>
<text text-anchor="start" x="963" y="-199.5" font-family="Helvetica,sans-Serif" font-size="10.00">/home/hirth/git/SIM</text>
<text text-anchor="start" x="963" y="-188.5" font-family="Helvetica,sans-Serif" font-size="10.00">&#45;VICUS.master2/externals</text>
<text text-anchor="middle" x="1025" y="-177.5" font-family="Helvetica,sans-Serif" font-size="10.00">/Vicus/src/VICUS_Project.h</text>
</a>
</g>
</g>
<!-- Node2&#45;&gt;Node4 -->
<g id="edge3_Node000002_Node000004" class="edge">
<title>Node2&#45;&gt;Node4</title>
<g id="a_edge3_Node000002_Node000004"><a xlink:title=" ">
<path fill="none" stroke="#63b8ff" d="M723.68,-255.72C727.16,-254.77 730.62,-253.86 734,-253 808.9,-233.91 895.75,-216.28 954.94,-204.93"/>
<polygon fill="#63b8ff" stroke="#63b8ff" points="722.53,-252.41 713.83,-258.46 724.41,-259.15 722.53,-252.41"/>
</a>
</g>
</g>
<!-- Node13 -->
<g id="Node000013" class="node">
<title>Node13</title>
<g id="a_Node000013"><a xlink:href="ncg___v_i_c_u_s___network_8cpp.html" target="_top" xlink:title=" ">
<polygon fill="white" stroke="#666666" points="1248.5,-217 1113.5,-217 1113.5,-165 1248.5,-165 1248.5,-217"/>
<text text-anchor="start" x="1121.5" y="-205" font-family="Helvetica,sans-Serif" font-size="10.00">/home/hirth/git/SIM</text>
<text text-anchor="start" x="1121.5" y="-194" font-family="Helvetica,sans-Serif" font-size="10.00">&#45;VICUS.master2/externals</text>
<text text-anchor="start" x="1121.5" y="-183" font-family="Helvetica,sans-Serif" font-size="10.00">/Vicus/src/ncg/ncg_VICUS</text>
<text text-anchor="middle" x="1181" y="-172" font-family="Helvetica,sans-Serif" font-size="10.00">_Network.cpp</text>
</a>
</g>
</g>
<!-- Node2&#45;&gt;Node13 -->
<g id="edge13_Node000002_Node000013" class="edge">
<title>Node2&#45;&gt;Node13</title>
<g id="a_edge13_Node000002_Node000013"><a xlink:title=" ">
<path fill="none" stroke="#63b8ff" d="M720.73,-255.94C725.2,-254.85 729.65,-253.86 734,-253 896.1,-221.02 942.25,-250.71 1104,-217 1107.03,-216.37 1110.1,-215.66 1113.2,-214.9"/>
<polygon fill="#63b8ff" stroke="#63b8ff" points="719.76,-252.57 710.94,-258.44 721.5,-259.35 719.76,-252.57"/>
</a>
</g>
</g>
<!-- Node4&#45;&gt;Node3 -->
<g id="edge6_Node000004_Node000003" class="edge">
<title>Node4&#45;&gt;Node3</title>
<g id="a_edge6_Node000004_Node000003"><a xlink:title=" ">
<path fill="none" stroke="#63b8ff" d="M944.65,-175.87C882.7,-164.52 795.04,-147.47 719,-129 712.13,-127.33 704.98,-125.48 697.88,-123.55"/>
<polygon fill="#63b8ff" stroke="#63b8ff" points="944.29,-179.36 954.76,-177.71 945.55,-172.47 944.29,-179.36"/>
</a>
</g>
</g>
<!-- Node5 -->
<g id="Node000005" class="node">
<title>Node5</title>
<g id="a_Node000005"><a xlink:href="_v_i_c_u_s___heat_load12831_export_8cpp.html" target="_top" xlink:title=" ">
<polygon fill="white" stroke="#666666" points="1652.5,-129 1483.5,-129 1483.5,-77 1652.5,-77 1652.5,-129"/>
<text text-anchor="start" x="1491.5" y="-117" font-family="Helvetica,sans-Serif" font-size="10.00">/home/hirth/git/SIM</text>
<text text-anchor="start" x="1491.5" y="-106" font-family="Helvetica,sans-Serif" font-size="10.00">&#45;VICUS.master2/externals</text>
<text text-anchor="start" x="1491.5" y="-95" font-family="Helvetica,sans-Serif" font-size="10.00">/Vicus/src/VICUS_HeatLoad12831</text>
<text text-anchor="middle" x="1568" y="-84" font-family="Helvetica,sans-Serif" font-size="10.00">Export.cpp</text>
</a>
</g>
</g>
<!-- Node4&#45;&gt;Node5 -->
<g id="edge4_Node000004_Node000005" class="edge">
<title>Node4&#45;&gt;Node5</title>
<g id="a_edge4_Node000004_Node000005"><a xlink:title=" ">
<path fill="none" stroke="#63b8ff" d="M1092.53,-167.83C1096.73,-166.79 1100.91,-165.83 1105,-165 1266.93,-132.19 1312.44,-158.55 1475,-129 1477.8,-128.49 1480.63,-127.94 1483.49,-127.35"/>
<polygon fill="#63b8ff" stroke="#63b8ff" points="1091.52,-164.48 1082.75,-170.42 1093.31,-171.25 1091.52,-164.48"/>
</a>
</g>
</g>
<!-- Node6 -->
<g id="Node000006" class="node">
<title>Node6</title>
<g id="a_Node000006"><a xlink:href="_v_i_c_u_s___interface_heat_conduction_8cpp.html" target="_top" xlink:title=" ">
<polygon fill="white" stroke="#666666" points="1831,-129 1671,-129 1671,-77 1831,-77 1831,-129"/>
<text text-anchor="start" x="1679" y="-117" font-family="Helvetica,sans-Serif" font-size="10.00">/home/hirth/git/SIM</text>
<text text-anchor="start" x="1679" y="-106" font-family="Helvetica,sans-Serif" font-size="10.00">&#45;VICUS.master2/externals</text>
<text text-anchor="start" x="1679" y="-95" font-family="Helvetica,sans-Serif" font-size="10.00">/Vicus/src/VICUS_InterfaceHeat</text>
<text text-anchor="middle" x="1751" y="-84" font-family="Helvetica,sans-Serif" font-size="10.00">Conduction.cpp</text>
</a>
</g>
</g>
<!-- Node4&#45;&gt;Node6 -->
<g id="edge5_Node000004_Node000006" class="edge">
<title>Node4&#45;&gt;Node6</title>
<g id="a_edge5_Node000004_Node000006"><a xlink:title=" ">
<path fill="none" stroke="#63b8ff" d="M1091.65,-167.88C1096.14,-166.79 1100.62,-165.81 1105,-165 1348.9,-119.68 1417.47,-170.77 1662,-129 1664.85,-128.51 1667.73,-127.97 1670.64,-127.39"/>
<polygon fill="#63b8ff" stroke="#63b8ff" points="1090.63,-164.53 1081.83,-170.43 1092.39,-171.31 1090.63,-164.53"/>
</a>
</g>
</g>
<!-- Node4&#45;&gt;Node7 -->
<g id="edge7_Node000004_Node000007" class="edge">
<title>Node4&#45;&gt;Node7</title>
<g id="a_edge7_Node000004_Node000007"><a xlink:title=" ">
<path fill="none" stroke="#63b8ff" d="M944.44,-182.77C848.7,-173.48 684.37,-155.35 545,-129 536.64,-127.42 527.93,-125.55 519.31,-123.56"/>
<polygon fill="#63b8ff" stroke="#63b8ff" points="944.34,-186.27 954.63,-183.75 945.01,-179.31 944.34,-186.27"/>
</a>
</g>
</g>
<!-- Node8 -->
<g id="Node000008" class="node">
<title>Node8</title>
<g id="a_Node000008"><a xlink:href="_v_i_c_u_s___project_8cpp.html" target="_top" xlink:title=" ">
<polygon fill="white" stroke="#666666" points="1999,-123.5 1849,-123.5 1849,-82.5 1999,-82.5 1999,-123.5"/>
<text text-anchor="start" x="1857" y="-111.5" font-family="Helvetica,sans-Serif" font-size="10.00">/home/hirth/git/SIM</text>
<text text-anchor="start" x="1857" y="-100.5" font-family="Helvetica,sans-Serif" font-size="10.00">&#45;VICUS.master2/externals</text>
<text text-anchor="middle" x="1924" y="-89.5" font-family="Helvetica,sans-Serif" font-size="10.00">/Vicus/src/VICUS_Project.cpp</text>
</a>
</g>
</g>
<!-- Node4&#45;&gt;Node8 -->
<g id="edge8_Node000004_Node000008" class="edge">
<title>Node4&#45;&gt;Node8</title>
<g id="a_edge8_Node000004_Node000008"><a xlink:title=" ">
<path fill="none" stroke="#63b8ff" d="M1091.38,-167.86C1095.96,-166.77 1100.53,-165.8 1105,-165 1427.01,-107.76 1517.61,-184.04 1840,-129 1848.1,-127.62 1856.52,-125.71 1864.76,-123.55"/>
<polygon fill="#63b8ff" stroke="#63b8ff" points="1090.19,-164.56 1081.37,-170.44 1091.93,-171.34 1090.19,-164.56"/>
</a>
</g>
</g>
<!-- Node9 -->
<g id="Node000009" class="node">
<title>Node9</title>
<g id="a_Node000009"><a xlink:href="_v_i_c_u_s___project_generator_8cpp.html" target="_top" xlink:title=" ">
<polygon fill="white" stroke="#666666" points="920,-123.5 728,-123.5 728,-82.5 920,-82.5 920,-123.5"/>
<text text-anchor="start" x="736" y="-111.5" font-family="Helvetica,sans-Serif" font-size="10.00">/home/hirth/git/SIM</text>
<text text-anchor="start" x="736" y="-100.5" font-family="Helvetica,sans-Serif" font-size="10.00">&#45;VICUS.master2/externals</text>
<text text-anchor="middle" x="824" y="-89.5" font-family="Helvetica,sans-Serif" font-size="10.00">/Vicus/src/VICUS_ProjectGenerator.cpp</text>
</a>
</g>
</g>
<!-- Node4&#45;&gt;Node9 -->
<g id="edge9_Node000004_Node000009" class="edge">
<title>Node4&#45;&gt;Node9</title>
<g id="a_edge9_Node000004_Node000009"><a xlink:title=" ">
<path fill="none" stroke="#63b8ff" d="M969.89,-166.42C938.46,-152.97 899.52,-136.31 869.78,-123.59"/>
<polygon fill="#63b8ff" stroke="#63b8ff" points="968.82,-169.77 979.39,-170.49 971.57,-163.33 968.82,-169.77"/>
</a>
</g>
</g>
<!-- Node10 -->
<g id="Node000010" class="node">
<title>Node10</title>
<g id="a_Node000010"><a xlink:href="_v_i_c_u_s___sub_network_8cpp.html" target="_top" xlink:title=" ">
<polygon fill="white" stroke="#666666" points="1111.5,-123.5 938.5,-123.5 938.5,-82.5 1111.5,-82.5 1111.5,-123.5"/>
<text text-anchor="start" x="946.5" y="-111.5" font-family="Helvetica,sans-Serif" font-size="10.00">/home/hirth/git/SIM</text>
<text text-anchor="start" x="946.5" y="-100.5" font-family="Helvetica,sans-Serif" font-size="10.00">&#45;VICUS.master2/externals</text>
<text text-anchor="middle" x="1025" y="-89.5" font-family="Helvetica,sans-Serif" font-size="10.00">/Vicus/src/VICUS_SubNetwork.cpp</text>
</a>
</g>
</g>
<!-- Node4&#45;&gt;Node10 -->
<g id="edge10_Node000004_Node000010" class="edge">
<title>Node4&#45;&gt;Node10</title>
<g id="a_edge10_Node000004_Node000010"><a xlink:title=" ">
<path fill="none" stroke="#63b8ff" d="M1025,-160.36C1025,-148.26 1025,-134.58 1025,-123.74"/>
<polygon fill="#63b8ff" stroke="#63b8ff" points="1021.5,-160.49 1025,-170.49 1028.5,-160.49 1021.5,-160.49"/>
</a>
</g>
</g>
<!-- Node11 -->
<g id="Node000011" class="node">
<title>Node11</title>
<g id="a_Node000011"><a xlink:href="_v_i_c_u_s___supply_system_8cpp.html" target="_top" xlink:title=" ">
<polygon fill="white" stroke="#666666" points="1312.5,-123.5 1129.5,-123.5 1129.5,-82.5 1312.5,-82.5 1312.5,-123.5"/>
<text text-anchor="start" x="1137.5" y="-111.5" font-family="Helvetica,sans-Serif" font-size="10.00">/home/hirth/git/SIM</text>
<text text-anchor="start" x="1137.5" y="-100.5" font-family="Helvetica,sans-Serif" font-size="10.00">&#45;VICUS.master2/externals</text>
<text text-anchor="middle" x="1221" y="-89.5" font-family="Helvetica,sans-Serif" font-size="10.00">/Vicus/src/VICUS_SupplySystem.cpp</text>
</a>
</g>
</g>
<!-- Node4&#45;&gt;Node11 -->
<g id="edge11_Node000004_Node000011" class="edge">
<title>Node4&#45;&gt;Node11</title>
<g id="a_edge11_Node000004_Node000011"><a xlink:title=" ">
<path fill="none" stroke="#63b8ff" d="M1078.74,-166.42C1109.39,-152.97 1147.36,-136.31 1176.36,-123.59"/>
<polygon fill="#63b8ff" stroke="#63b8ff" points="1077.23,-163.26 1069.48,-170.49 1080.04,-169.67 1077.23,-163.26"/>
</a>
</g>
</g>
<!-- Node12 -->
<g id="Node000012" class="node">
<title>Node12</title>
<g id="a_Node000012"><a xlink:href="ncg___v_i_c_u_s___project_8cpp.html" target="_top" xlink:title=" ">
<polygon fill="white" stroke="#666666" points="1465.5,-129 1330.5,-129 1330.5,-77 1465.5,-77 1465.5,-129"/>
<text text-anchor="start" x="1338.5" y="-117" font-family="Helvetica,sans-Serif" font-size="10.00">/home/hirth/git/SIM</text>
<text text-anchor="start" x="1338.5" y="-106" font-family="Helvetica,sans-Serif" font-size="10.00">&#45;VICUS.master2/externals</text>
<text text-anchor="start" x="1338.5" y="-95" font-family="Helvetica,sans-Serif" font-size="10.00">/Vicus/src/ncg/ncg_VICUS</text>
<text text-anchor="middle" x="1398" y="-84" font-family="Helvetica,sans-Serif" font-size="10.00">_Project.cpp</text>
</a>
</g>
</g>
<!-- Node4&#45;&gt;Node12 -->
<g id="edge12_Node000004_Node000012" class="edge">
<title>Node4&#45;&gt;Node12</title>
<g id="a_edge12_Node000004_Node000012"><a xlink:title=" ">
<path fill="none" stroke="#63b8ff" d="M1094.55,-167.64C1098.07,-166.7 1101.57,-165.82 1105,-165 1200.11,-142.37 1227.07,-152.34 1322,-129 1324.7,-128.34 1327.44,-127.62 1330.2,-126.87"/>
<polygon fill="#63b8ff" stroke="#63b8ff" points="1093.31,-164.35 1084.6,-170.38 1095.17,-171.1 1093.31,-164.35"/>
</a>
</g>
</g>
<!-- Node14&#45;&gt;Node3 -->
<g id="edge16_Node000014_Node000003" class="edge">
<title>Node14&#45;&gt;Node3</title>
<g id="a_edge16_Node000014_Node000003"><a xlink:title=" ">
<path fill="none" stroke="#63b8ff" d="M493.03,-166.25C522.99,-152.83 559.99,-136.26 588.27,-123.59"/>
<polygon fill="#63b8ff" stroke="#63b8ff" points="491.26,-163.2 483.57,-170.49 494.12,-169.59 491.26,-163.2"/>
</a>
</g>
</g>
<!-- Node14&#45;&gt;Node7 -->
<g id="edge17_Node000014_Node000007" class="edge">
<title>Node14&#45;&gt;Node7</title>
<g id="a_edge17_Node000014_Node000007"><a xlink:title=" ">
<path fill="none" stroke="#63b8ff" d="M442.07,-160.36C442.91,-148.26 443.87,-134.58 444.62,-123.74"/>
<polygon fill="#63b8ff" stroke="#63b8ff" points="438.57,-160.27 441.36,-170.49 445.55,-160.75 438.57,-160.27"/>
</a>
</g>
</g>
<!-- Node15 -->
<g id="Node000015" class="node">
<title>Node15</title>
<g id="a_Node000015"><a xlink:href="_v_i_c_u_s___network_line_8cpp.html" target="_top" xlink:title=" ">
<polygon fill="white" stroke="#666666" points="174,-123.5 0,-123.5 0,-82.5 174,-82.5 174,-123.5"/>
<text text-anchor="start" x="8" y="-111.5" font-family="Helvetica,sans-Serif" font-size="10.00">/home/hirth/git/SIM</text>
<text text-anchor="start" x="8" y="-100.5" font-family="Helvetica,sans-Serif" font-size="10.00">&#45;VICUS.master2/externals</text>
<text text-anchor="middle" x="87" y="-89.5" font-family="Helvetica,sans-Serif" font-size="10.00">/Vicus/src/VICUS_NetworkLine.cpp</text>
</a>
</g>
</g>
<!-- Node14&#45;&gt;Node15 -->
<g id="edge18_Node000014_Node000015" class="edge">
<title>Node14&#45;&gt;Node15</title>
<g id="a_edge18_Node000014_Node000015"><a xlink:title=" ">
<path fill="none" stroke="#63b8ff" d="M347.76,-168.62C298.76,-157.13 237.54,-142.57 183,-129 175.98,-127.25 168.68,-125.41 161.38,-123.54"/>
<polygon fill="#63b8ff" stroke="#63b8ff" points="347.18,-172.08 357.71,-170.95 348.77,-165.26 347.18,-172.08"/>
</a>
</g>
</g>
<!-- Node16 -->
<g id="Node000016" class="node">
<title>Node16</title>
<g id="a_Node000016"><a xlink:href="_v_i_c_u_s___poly_line_8h.html" target="_top" xlink:title=" ">
<polygon fill="white" stroke="#666666" points="338,-123.5 192,-123.5 192,-82.5 338,-82.5 338,-123.5"/>
<text text-anchor="start" x="200" y="-111.5" font-family="Helvetica,sans-Serif" font-size="10.00">/home/hirth/git/SIM</text>
<text text-anchor="start" x="200" y="-100.5" font-family="Helvetica,sans-Serif" font-size="10.00">&#45;VICUS.master2/externals</text>
<text text-anchor="middle" x="265" y="-89.5" font-family="Helvetica,sans-Serif" font-size="10.00">/Vicus/src/VICUS_PolyLine.h</text>
</a>
</g>
</g>
<!-- Node14&#45;&gt;Node16 -->
<g id="edge19_Node000014_Node000016" class="edge">
<title>Node14&#45;&gt;Node16</title>
<g id="a_edge19_Node000014_Node000016"><a xlink:title=" ">
<path fill="none" stroke="#63b8ff" d="M391.31,-166.07C364.07,-152.68 330.53,-136.2 304.86,-123.59"/>
<polygon fill="#63b8ff" stroke="#63b8ff" points="389.77,-169.22 400.29,-170.49 392.86,-162.93 389.77,-169.22"/>
</a>
</g>
</g>
<!-- Node17 -->
<g id="Node000017" class="node">
<title>Node17</title>
<g id="a_Node000017"><a xlink:href="_v_i_c_u_s___poly_line_8cpp.html" target="_top" xlink:title=" ">
<polygon fill="white" stroke="#666666" points="343.5,-41 186.5,-41 186.5,0 343.5,0 343.5,-41"/>
<text text-anchor="start" x="194.5" y="-29" font-family="Helvetica,sans-Serif" font-size="10.00">/home/hirth/git/SIM</text>
<text text-anchor="start" x="194.5" y="-18" font-family="Helvetica,sans-Serif" font-size="10.00">&#45;VICUS.master2/externals</text>
<text text-anchor="middle" x="265" y="-7" font-family="Helvetica,sans-Serif" font-size="10.00">/Vicus/src/VICUS_PolyLine.cpp</text>
</a>
</g>
</g>
<!-- Node16&#45;&gt;Node17 -->
<g id="edge20_Node000016_Node000017" class="edge">
<title>Node16&#45;&gt;Node17</title>
<g id="a_edge20_Node000016_Node000017"><a xlink:title=" ">
<path fill="none" stroke="#63b8ff" d="M265,-71.87C265,-61.6 265,-50.4 265,-41.17"/>
<polygon fill="#63b8ff" stroke="#63b8ff" points="261.5,-72.1 265,-82.1 268.5,-72.1 261.5,-72.1"/>
</a>
</g>
</g>
</g>
</svg>
