<?xml version="1.0" encoding="UTF-8" standalone="no"?>
<!DOCTYPE svg PUBLIC "-//W3C//DTD SVG 1.1//EN"
 "http://www.w3.org/Graphics/SVG/1.1/DTD/svg11.dtd">
<!-- Generated by graphviz version 2.43.0 (0)
 -->
<!-- Title: /home/hirth/git/SIM&#45;VICUS.master2/externals/Vicus/src/VICUS_SubNetwork.h Pages: 1 -->
<svg width="1776pt" height="346pt"
 viewBox="0.00 0.00 1775.50 346.00" xmlns="http://www.w3.org/2000/svg" xmlns:xlink="http://www.w3.org/1999/xlink">
<g id="graph0" class="graph" transform="scale(1 1) rotate(0) translate(4 342)">
<title>/home/hirth/git/SIM&#45;VICUS.master2/externals/Vicus/src/VICUS_SubNetwork.h</title>
<!-- Node1 -->
<g id="Node000001" class="node">
<title>Node1</title>
<g id="a_Node000001"><a xlink:title=" ">
<polygon fill="#999999" stroke="#666666" points="656.5,-338 493.5,-338 493.5,-297 656.5,-297 656.5,-338"/>
<text text-anchor="start" x="501.5" y="-326" font-family="Helvetica,sans-Serif" font-size="10.00">/home/hirth/git/SIM</text>
<text text-anchor="start" x="501.5" y="-315" font-family="Helvetica,sans-Serif" font-size="10.00">&#45;VICUS.master2/externals</text>
<text text-anchor="middle" x="575" y="-304" font-family="Helvetica,sans-Serif" font-size="10.00">/Vicus/src/VICUS_SubNetwork.h</text>
</a>
</g>
</g>
<!-- Node2 -->
<g id="Node000002" class="node">
<title>Node2</title>
<g id="a_Node000002"><a xlink:href="_v_i_c_u_s___abstract_d_b_element_8h.html" target="_top" xlink:title=" ">
<polygon fill="white" stroke="#666666" points="651.5,-129 502.5,-129 502.5,-110 651.5,-110 651.5,-129"/>
<text text-anchor="middle" x="577" y="-117" font-family="Helvetica,sans-Serif" font-size="10.00">VICUS_AbstractDBElement.h</text>
</a>
</g>
</g>
<!-- Node1&#45;&gt;Node2 -->
<g id="edge1_Node000001_Node000002" class="edge">
<title>Node1&#45;&gt;Node2</title>
<g id="a_edge1_Node000001_Node000002"><a xlink:title=" ">
<path fill="none" stroke="#63b8ff" d="M575.2,-296.99C575.58,-259.25 576.43,-176.67 576.81,-139.41"/>
<polygon fill="#63b8ff" stroke="#63b8ff" points="580.31,-139.05 576.91,-129.02 573.31,-138.98 580.31,-139.05"/>
</a>
</g>
</g>
<!-- Node4 -->
<g id="Node000004" class="node">
<title>Node4</title>
<g id="a_Node000004"><a xlink:title=" ">
<polygon fill="#e0e0e0" stroke="#999999" points="512.5,-74 465.5,-74 465.5,-55 512.5,-55 512.5,-74"/>
<text text-anchor="middle" x="489" y="-62" font-family="Helvetica,sans-Serif" font-size="10.00">QColor</text>
</a>
</g>
</g>
<!-- Node1&#45;&gt;Node4 -->
<g id="edge54_Node000001_Node000004" class="edge">
<title>Node1&#45;&gt;Node4</title>
<g id="a_edge54_Node000001_Node000004"><a xlink:title=" ">
<path fill="none" stroke="#63b8ff" d="M493.28,-308.62C365.86,-294.43 129.17,-259.87 79,-195 55.89,-165.12 53.77,-138.12 79,-110 104.01,-82.13 361.91,-70.09 455.39,-66.62"/>
<polygon fill="#63b8ff" stroke="#63b8ff" points="455.58,-70.12 465.45,-66.26 455.33,-63.12 455.58,-70.12"/>
</a>
</g>
</g>
<!-- Node5 -->
<g id="Node000005" class="node">
<title>Node5</title>
<g id="a_Node000005"><a xlink:href="_v_i_c_u_s___constants_8h.html" target="_top" xlink:title="Contains global constants for the SIM&#45;VICUS data model.">
<polygon fill="white" stroke="#666666" points="935.5,-19 828.5,-19 828.5,0 935.5,0 935.5,-19"/>
<text text-anchor="middle" x="882" y="-7" font-family="Helvetica,sans-Serif" font-size="10.00">VICUS_Constants.h</text>
</a>
</g>
</g>
<!-- Node1&#45;&gt;Node5 -->
<g id="edge5_Node000001_Node000005" class="edge">
<title>Node1&#45;&gt;Node5</title>
<g id="a_edge5_Node000001_Node000005"><a xlink:title=" ">
<path fill="none" stroke="#63b8ff" d="M493.23,-314.15C334.48,-307.34 0,-281.12 0,-181 0,-181 0,-181 0,-118.5 0,-36 615.79,-15.97 818.3,-11.61"/>
<polygon fill="#63b8ff" stroke="#63b8ff" points="818.56,-15.1 828.48,-11.39 818.41,-8.11 818.56,-15.1"/>
</a>
</g>
</g>
<!-- Node6 -->
<g id="Node000006" class="node">
<title>Node6</title>
<g id="a_Node000006"><a xlink:href="_v_i_c_u_s___code_gen_macros_8h.html" target="_top" xlink:title=" ">
<polygon fill="white" stroke="#666666" points="1541.5,-19 1406.5,-19 1406.5,0 1541.5,0 1541.5,-19"/>
<text text-anchor="middle" x="1474" y="-7" font-family="Helvetica,sans-Serif" font-size="10.00">VICUS_CodeGenMacros.h</text>
</a>
</g>
</g>
<!-- Node1&#45;&gt;Node6 -->
<g id="edge6_Node000001_Node000006" class="edge">
<title>Node1&#45;&gt;Node6</title>
<g id="a_edge6_Node000001_Node000006"><a xlink:title=" ">
<path fill="none" stroke="#63b8ff" d="M656.54,-317.1C848.75,-317.63 1325.31,-313.42 1475,-261 1533.08,-240.66 1588,-242.53 1588,-181 1588,-181 1588,-181 1588,-118.5 1588,-72.47 1538.42,-40.18 1504.65,-23.53"/>
<polygon fill="#63b8ff" stroke="#63b8ff" points="1505.71,-20.16 1495.18,-19.05 1502.72,-26.49 1505.71,-20.16"/>
</a>
</g>
</g>
<!-- Node7 -->
<g id="Node000007" class="node">
<title>Node7</title>
<g id="a_Node000007"><a xlink:href="_v_i_c_u_s___database_8h.html" target="_top" xlink:title=" ">
<polygon fill="white" stroke="#666666" points="295,-189.5 191,-189.5 191,-170.5 295,-170.5 295,-189.5"/>
<text text-anchor="middle" x="243" y="-177.5" font-family="Helvetica,sans-Serif" font-size="10.00">VICUS_Database.h</text>
</a>
</g>
</g>
<!-- Node1&#45;&gt;Node7 -->
<g id="edge7_Node000001_Node000007" class="edge">
<title>Node1&#45;&gt;Node7</title>
<g id="a_edge7_Node000001_Node000007"><a xlink:title=" ">
<path fill="none" stroke="#63b8ff" d="M502.95,-296.98C470.43,-287.39 431.81,-274.9 398,-261 349.73,-241.15 296.2,-211.77 266.37,-194.69"/>
<polygon fill="#63b8ff" stroke="#63b8ff" points="267.97,-191.57 257.56,-189.6 264.47,-197.63 267.97,-191.57"/>
</a>
</g>
</g>
<!-- Node12 -->
<g id="Node000012" class="node">
<title>Node12</title>
<g id="a_Node000012"><a xlink:href="_v_i_c_u_s___network_component_8h.html" target="_top" xlink:title=" ">
<polygon fill="white" stroke="#666666" points="1055.5,-255.5 906.5,-255.5 906.5,-236.5 1055.5,-236.5 1055.5,-255.5"/>
<text text-anchor="middle" x="981" y="-243.5" font-family="Helvetica,sans-Serif" font-size="10.00">VICUS_NetworkComponent.h</text>
</a>
</g>
</g>
<!-- Node1&#45;&gt;Node12 -->
<g id="edge13_Node000001_Node000012" class="edge">
<title>Node1&#45;&gt;Node12</title>
<g id="a_edge13_Node000001_Node000012"><a xlink:title=" ">
<path fill="none" stroke="#63b8ff" d="M656.67,-302.52C734.91,-289.13 851.13,-269.23 921.13,-257.25"/>
<polygon fill="#63b8ff" stroke="#63b8ff" points="921.85,-260.68 931.11,-255.54 920.67,-253.78 921.85,-260.68"/>
</a>
</g>
</g>
<!-- Node24 -->
<g id="Node000024" class="node">
<title>Node24</title>
<g id="a_Node000024"><a xlink:href="_v_i_c_u_s___network_controller_8h.html" target="_top" xlink:title=" ">
<polygon fill="white" stroke="#666666" points="547,-255.5 407,-255.5 407,-236.5 547,-236.5 547,-255.5"/>
<text text-anchor="middle" x="477" y="-243.5" font-family="Helvetica,sans-Serif" font-size="10.00">VICUS_NetworkController.h</text>
</a>
</g>
</g>
<!-- Node1&#45;&gt;Node24 -->
<g id="edge40_Node000001_Node000024" class="edge">
<title>Node1&#45;&gt;Node24</title>
<g id="a_edge40_Node000001_Node000024"><a xlink:title=" ">
<path fill="none" stroke="#63b8ff" d="M547.44,-296.96C531.5,-285.65 511.79,-271.67 497.28,-261.38"/>
<polygon fill="#63b8ff" stroke="#63b8ff" points="499.17,-258.43 488.99,-255.5 495.12,-264.14 499.17,-258.43"/>
</a>
</g>
</g>
<!-- Node26 -->
<g id="Node000026" class="node">
<title>Node26</title>
<g id="a_Node000026"><a xlink:href="_v_i_c_u_s___network_element_8h.html" target="_top" xlink:title=" ">
<polygon fill="white" stroke="#666666" points="1466,-255.5 1332,-255.5 1332,-236.5 1466,-236.5 1466,-255.5"/>
<text text-anchor="middle" x="1399" y="-243.5" font-family="Helvetica,sans-Serif" font-size="10.00">VICUS_NetworkElement.h</text>
</a>
</g>
</g>
<!-- Node1&#45;&gt;Node26 -->
<g id="edge48_Node000001_Node000026" class="edge">
<title>Node1&#45;&gt;Node26</title>
<g id="a_edge48_Node000001_Node000026"><a xlink:title=" ">
<path fill="none" stroke="#63b8ff" d="M656.64,-309.61C815.81,-296.19 1165.62,-266.68 1321.45,-253.54"/>
<polygon fill="#63b8ff" stroke="#63b8ff" points="1322.21,-256.99 1331.88,-252.66 1321.62,-250.01 1322.21,-256.99"/>
</a>
</g>
</g>
<!-- Node28 -->
<g id="Node000028" class="node">
<title>Node28</title>
<g id="a_Node000028"><a xlink:title=" ">
<polygon fill="#e0e0e0" stroke="#999999" points="1767.5,-261 1616.5,-261 1616.5,-231 1767.5,-231 1767.5,-261"/>
<text text-anchor="start" x="1624.5" y="-249" font-family="Helvetica,sans-Serif" font-size="10.00">NANDRAD_HydraulicNetwork</text>
<text text-anchor="middle" x="1692" y="-238" font-family="Helvetica,sans-Serif" font-size="10.00">Element.h</text>
</a>
</g>
</g>
<!-- Node1&#45;&gt;Node28 -->
<g id="edge53_Node000001_Node000028" class="edge">
<title>Node1&#45;&gt;Node28</title>
<g id="a_edge53_Node000001_Node000028"><a xlink:title=" ">
<path fill="none" stroke="#63b8ff" d="M656.76,-314.87C830.97,-310.77 1251.48,-297.64 1602,-261 1603.47,-260.85 1604.96,-260.68 1606.46,-260.52"/>
<polygon fill="#63b8ff" stroke="#63b8ff" points="1606.94,-263.98 1616.45,-259.32 1606.1,-257.03 1606.94,-263.98"/>
</a>
</g>
</g>
<!-- Node3 -->
<g id="Node000003" class="node">
<title>Node3</title>
<g id="a_Node000003"><a xlink:title=" ">
<polygon fill="#e0e0e0" stroke="#999999" points="1165.5,-74 1030.5,-74 1030.5,-55 1165.5,-55 1165.5,-74"/>
<text text-anchor="middle" x="1098" y="-62" font-family="Helvetica,sans-Serif" font-size="10.00">IBK_MultiLanguageString.h</text>
</a>
</g>
</g>
<!-- Node2&#45;&gt;Node3 -->
<g id="edge2_Node000002_Node000003" class="edge">
<title>Node2&#45;&gt;Node3</title>
<g id="a_edge2_Node000002_Node000003"><a xlink:title=" ">
<path fill="none" stroke="#63b8ff" d="M651.65,-110.91C749.58,-100.94 920.62,-83.54 1020.13,-73.42"/>
<polygon fill="#63b8ff" stroke="#63b8ff" points="1020.53,-76.9 1030.12,-72.41 1019.82,-69.94 1020.53,-76.9"/>
</a>
</g>
</g>
<!-- Node2&#45;&gt;Node4 -->
<g id="edge3_Node000002_Node000004" class="edge">
<title>Node2&#45;&gt;Node4</title>
<g id="a_edge3_Node000002_Node000004"><a xlink:title=" ">
<path fill="none" stroke="#63b8ff" d="M562.86,-109.98C549.21,-101.77 528.31,-89.18 512.22,-79.49"/>
<polygon fill="#63b8ff" stroke="#63b8ff" points="513.77,-76.33 503.4,-74.17 510.16,-82.33 513.77,-76.33"/>
</a>
</g>
</g>
<!-- Node2&#45;&gt;Node5 -->
<g id="edge4_Node000002_Node000005" class="edge">
<title>Node2&#45;&gt;Node5</title>
<g id="a_edge4_Node000002_Node000005"><a xlink:title=" ">
<path fill="none" stroke="#63b8ff" d="M601.19,-109.94C655.24,-90.79 785.95,-44.51 848.09,-22.51"/>
<polygon fill="#63b8ff" stroke="#63b8ff" points="849.55,-25.7 857.81,-19.07 847.21,-19.1 849.55,-25.7"/>
</a>
</g>
</g>
<!-- Node7&#45;&gt;Node2 -->
<g id="edge9_Node000007_Node000002" class="edge">
<title>Node7&#45;&gt;Node2</title>
<g id="a_edge9_Node000007_Node000002"><a xlink:title=" ">
<path fill="none" stroke="#63b8ff" d="M278.4,-170.47C286.77,-168.57 295.68,-166.63 304,-165 373.1,-151.45 452.6,-138.83 507.92,-130.51"/>
<polygon fill="#63b8ff" stroke="#63b8ff" points="508.59,-133.95 517.96,-129.01 507.55,-127.03 508.59,-133.95"/>
</a>
</g>
</g>
<!-- Node8 -->
<g id="Node000008" class="node">
<title>Node8</title>
<g id="a_Node000008"><a xlink:title=" ">
<polygon fill="#e0e0e0" stroke="#999999" points="323.5,-129 288.5,-129 288.5,-110 323.5,-110 323.5,-129"/>
<text text-anchor="middle" x="306" y="-117" font-family="Helvetica,sans-Serif" font-size="10.00">map</text>
</a>
</g>
</g>
<!-- Node7&#45;&gt;Node8 -->
<g id="edge8_Node000007_Node000008" class="edge">
<title>Node7&#45;&gt;Node8</title>
<g id="a_edge8_Node000007_Node000008"><a xlink:title=" ">
<path fill="none" stroke="#63b8ff" d="M252.3,-170.37C261.97,-161.38 277.34,-147.11 289.16,-136.14"/>
<polygon fill="#63b8ff" stroke="#63b8ff" points="291.72,-138.54 296.67,-129.17 286.96,-133.41 291.72,-138.54"/>
</a>
</g>
</g>
<!-- Node9 -->
<g id="Node000009" class="node">
<title>Node9</title>
<g id="a_Node000009"><a xlink:title=" ">
<polygon fill="#e0e0e0" stroke="#999999" points="408.5,-129 341.5,-129 341.5,-110 408.5,-110 408.5,-129"/>
<text text-anchor="middle" x="375" y="-117" font-family="Helvetica,sans-Serif" font-size="10.00">IBK_Path.h</text>
</a>
</g>
</g>
<!-- Node7&#45;&gt;Node9 -->
<g id="edge10_Node000007_Node000009" class="edge">
<title>Node7&#45;&gt;Node9</title>
<g id="a_edge10_Node000007_Node000009"><a xlink:title=" ">
<path fill="none" stroke="#63b8ff" d="M262.19,-170.49C284.39,-160.66 321.12,-144.38 346.62,-133.08"/>
<polygon fill="#63b8ff" stroke="#63b8ff" points="348.06,-136.27 355.78,-129.02 345.22,-129.87 348.06,-136.27"/>
</a>
</g>
</g>
<!-- Node10 -->
<g id="Node000010" class="node">
<title>Node10</title>
<g id="a_Node000010"><a xlink:title=" ">
<polygon fill="#e0e0e0" stroke="#999999" points="196,-129 104,-129 104,-110 196,-110 196,-129"/>
<text text-anchor="middle" x="150" y="-117" font-family="Helvetica,sans-Serif" font-size="10.00">IBK_messages.h</text>
</a>
</g>
</g>
<!-- Node7&#45;&gt;Node10 -->
<g id="edge11_Node000007_Node000010" class="edge">
<title>Node7&#45;&gt;Node10</title>
<g id="a_edge11_Node000007_Node000010"><a xlink:title=" ">
<path fill="none" stroke="#63b8ff" d="M229.28,-170.37C214.3,-160.95 190.11,-145.73 172.38,-134.58"/>
<polygon fill="#63b8ff" stroke="#63b8ff" points="174.11,-131.53 163.78,-129.17 170.38,-137.45 174.11,-131.53"/>
</a>
</g>
</g>
<!-- Node11 -->
<g id="Node000011" class="node">
<title>Node11</title>
<g id="a_Node000011"><a xlink:title=" ">
<polygon fill="#e0e0e0" stroke="#999999" points="270,-129 214,-129 214,-110 270,-110 270,-129"/>
<text text-anchor="middle" x="242" y="-117" font-family="Helvetica,sans-Serif" font-size="10.00">tinyxml.h</text>
</a>
</g>
</g>
<!-- Node7&#45;&gt;Node11 -->
<g id="edge12_Node000007_Node000011" class="edge">
<title>Node7&#45;&gt;Node11</title>
<g id="a_edge12_Node000007_Node000011"><a xlink:title=" ">
<path fill="none" stroke="#63b8ff" d="M242.85,-170.37C242.71,-162.25 242.5,-149.81 242.32,-139.39"/>
<polygon fill="#63b8ff" stroke="#63b8ff" points="245.82,-139.11 242.15,-129.17 238.82,-139.23 245.82,-139.11"/>
</a>
</g>
</g>
<!-- Node12&#45;&gt;Node2 -->
<g id="edge20_Node000012_Node000002" class="edge">
<title>Node12&#45;&gt;Node2</title>
<g id="a_edge20_Node000012_Node000002"><a xlink:title=" ">
<path fill="none" stroke="#63b8ff" d="M949.23,-236.46C913.71,-226.8 854.55,-210.43 804,-195 735.54,-174.11 656.24,-147.53 611.81,-132.43"/>
<polygon fill="#63b8ff" stroke="#63b8ff" points="612.68,-129.02 602.08,-129.11 610.42,-135.65 612.68,-129.02"/>
</a>
</g>
</g>
<!-- Node12&#45;&gt;Node3 -->
<g id="edge14_Node000012_Node000003" class="edge">
<title>Node12&#45;&gt;Node3</title>
<g id="a_edge14_Node000012_Node000003"><a xlink:title=" ">
<path fill="none" stroke="#63b8ff" d="M1055.57,-236.49C1107.32,-228.88 1169.76,-215.67 1186,-195 1192.99,-186.1 1193.67,-125.27 1184,-110 1174.37,-94.81 1157.77,-84.54 1141.7,-77.74"/>
<polygon fill="#63b8ff" stroke="#63b8ff" points="1142.95,-74.47 1132.36,-74.12 1140.42,-80.99 1142.95,-74.47"/>
</a>
</g>
</g>
<!-- Node12&#45;&gt;Node4 -->
<g id="edge17_Node000012_Node000004" class="edge">
<title>Node12&#45;&gt;Node4</title>
<g id="a_edge17_Node000012_Node000004"><a xlink:title=" ">
<path fill="none" stroke="#63b8ff" d="M906.47,-238.26C783.09,-225.39 544.91,-192.76 494,-129 484.09,-116.59 483.73,-98.12 485.32,-84.29"/>
<polygon fill="#63b8ff" stroke="#63b8ff" points="488.77,-84.83 486.86,-74.41 481.86,-83.75 488.77,-84.83"/>
</a>
</g>
</g>
<!-- Node12&#45;&gt;Node5 -->
<g id="edge19_Node000012_Node000005" class="edge">
<title>Node12&#45;&gt;Node5</title>
<g id="a_edge19_Node000012_Node000005"><a xlink:title=" ">
<path fill="none" stroke="#63b8ff" d="M980.46,-236.13C979.99,-219.67 981.47,-184.34 1001,-165 1051.45,-115.03 1193.93,-166.56 1151,-110 1115.01,-62.59 1077.94,-94.35 1022,-74 981.17,-59.14 935.65,-37.5 907.92,-23.71"/>
<polygon fill="#63b8ff" stroke="#63b8ff" points="909.4,-20.54 898.89,-19.19 906.26,-26.8 909.4,-20.54"/>
</a>
</g>
</g>
<!-- Node12&#45;&gt;Node6 -->
<g id="edge18_Node000012_Node000006" class="edge">
<title>Node12&#45;&gt;Node6</title>
<g id="a_edge18_Node000012_Node000006"><a xlink:title=" ">
<path fill="none" stroke="#63b8ff" d="M1026.73,-236.44C1071.73,-227.59 1142.19,-212.63 1202,-195 1239.22,-184.03 1246.52,-175.08 1284,-165 1328.45,-153.05 1458.41,-164.27 1488,-129 1511.87,-100.55 1495.44,-53.82 1483.45,-28.38"/>
<polygon fill="#63b8ff" stroke="#63b8ff" points="1486.45,-26.56 1478.86,-19.17 1480.19,-29.69 1486.45,-26.56"/>
</a>
</g>
</g>
<!-- Node12&#45;&gt;Node7 -->
<g id="edge21_Node000012_Node000007" class="edge">
<title>Node12&#45;&gt;Node7</title>
<g id="a_edge21_Node000012_Node000007"><a xlink:title=" ">
<path fill="none" stroke="#63b8ff" d="M906.46,-243.19C781.32,-239.33 521.34,-227.77 304,-195 298.15,-194.12 292.03,-192.98 286.02,-191.73"/>
<polygon fill="#63b8ff" stroke="#63b8ff" points="286.58,-188.27 276.07,-189.55 285.09,-195.11 286.58,-188.27"/>
</a>
</g>
</g>
<!-- Node13 -->
<g id="Node000013" class="node">
<title>Node13</title>
<g id="a_Node000013"><a xlink:title=" ">
<polygon fill="#e0e0e0" stroke="#999999" points="1141.5,-129 1050.5,-129 1050.5,-110 1141.5,-110 1141.5,-129"/>
<text text-anchor="middle" x="1096" y="-117" font-family="Helvetica,sans-Serif" font-size="10.00">IBK_Parameter.h</text>
</a>
</g>
</g>
<!-- Node12&#45;&gt;Node13 -->
<g id="edge15_Node000012_Node000013" class="edge">
<title>Node12&#45;&gt;Node13</title>
<g id="a_edge15_Node000012_Node000013"><a xlink:title=" ">
<path fill="none" stroke="#63b8ff" d="M1045.35,-236.44C1093.9,-228.5 1154.68,-214.9 1170,-195 1178.13,-184.43 1176.56,-176.61 1170,-165 1161.83,-150.55 1146.88,-140.27 1132.54,-133.26"/>
<polygon fill="#63b8ff" stroke="#63b8ff" points="1133.85,-130.01 1123.29,-129.12 1130.99,-136.4 1133.85,-130.01"/>
</a>
</g>
</g>
<!-- Node14 -->
<g id="Node000014" class="node">
<title>Node14</title>
<g id="a_Node000014"><a xlink:title=" ">
<polygon fill="#e0e0e0" stroke="#999999" points="1371,-189.5 1293,-189.5 1293,-170.5 1371,-170.5 1371,-189.5"/>
<text text-anchor="middle" x="1332" y="-177.5" font-family="Helvetica,sans-Serif" font-size="10.00">IBK_IntPara.h</text>
</a>
</g>
</g>
<!-- Node12&#45;&gt;Node14 -->
<g id="edge16_Node000012_Node000014" class="edge">
<title>Node12&#45;&gt;Node14</title>
<g id="a_edge16_Node000012_Node000014"><a xlink:title=" ">
<path fill="none" stroke="#63b8ff" d="M1041.81,-236.47C1102.25,-227.6 1197.46,-212.57 1279,-195 1283.13,-194.11 1287.43,-193.11 1291.71,-192.06"/>
<polygon fill="#63b8ff" stroke="#63b8ff" points="1292.74,-195.41 1301.57,-189.55 1291.01,-188.62 1292.74,-195.41"/>
</a>
</g>
</g>
<!-- Node15 -->
<g id="Node000015" class="node">
<title>Node15</title>
<g id="a_Node000015"><a xlink:href="_v_i_c_u_s___schedule_8h.html" target="_top" xlink:title=" ">
<polygon fill="white" stroke="#666666" points="915,-189.5 813,-189.5 813,-170.5 915,-170.5 915,-189.5"/>
<text text-anchor="middle" x="864" y="-177.5" font-family="Helvetica,sans-Serif" font-size="10.00">VICUS_Schedule.h</text>
</a>
</g>
</g>
<!-- Node12&#45;&gt;Node15 -->
<g id="edge22_Node000012_Node000015" class="edge">
<title>Node12&#45;&gt;Node15</title>
<g id="a_edge22_Node000012_Node000015"><a xlink:title=" ">
<path fill="none" stroke="#63b8ff" d="M965.22,-236.37C945.59,-225.63 911.86,-207.18 888.77,-194.55"/>
<polygon fill="#63b8ff" stroke="#63b8ff" points="890.36,-191.43 879.9,-189.7 887,-197.57 890.36,-191.43"/>
</a>
</g>
</g>
<!-- Node23 -->
<g id="Node000023" class="node">
<title>Node23</title>
<g id="a_Node000023"><a xlink:title=" ">
<polygon fill="#e0e0e0" stroke="#999999" points="1160.5,-195 1009.5,-195 1009.5,-165 1160.5,-165 1160.5,-195"/>
<text text-anchor="start" x="1017.5" y="-183" font-family="Helvetica,sans-Serif" font-size="10.00">NANDRAD_HydraulicNetwork</text>
<text text-anchor="middle" x="1085" y="-172" font-family="Helvetica,sans-Serif" font-size="10.00">Component.h</text>
</a>
</g>
</g>
<!-- Node12&#45;&gt;Node23 -->
<g id="edge39_Node000012_Node000023" class="edge">
<title>Node12&#45;&gt;Node23</title>
<g id="a_edge39_Node000012_Node000023"><a xlink:title=" ">
<path fill="none" stroke="#63b8ff" d="M995.03,-236.37C1009.93,-227.2 1033.99,-212.39 1053.48,-200.4"/>
<polygon fill="#63b8ff" stroke="#63b8ff" points="1055.38,-203.34 1062.06,-195.12 1051.71,-197.38 1055.38,-203.34"/>
</a>
</g>
</g>
<!-- Node15&#45;&gt;Node2 -->
<g id="edge38_Node000015_Node000002" class="edge">
<title>Node15&#45;&gt;Node2</title>
<g id="a_edge38_Node000015_Node000002"><a xlink:title=" ">
<path fill="none" stroke="#63b8ff" d="M822.27,-170.49C771.04,-160.05 684.17,-142.35 628.75,-131.05"/>
<polygon fill="#63b8ff" stroke="#63b8ff" points="629.28,-127.58 618.78,-129.02 627.88,-134.44 629.28,-127.58"/>
</a>
</g>
</g>
<!-- Node15&#45;&gt;Node5 -->
<g id="edge28_Node000015_Node000005" class="edge">
<title>Node15&#45;&gt;Node5</title>
<g id="a_edge28_Node000015_Node000005"><a xlink:title=" ">
<path fill="none" stroke="#63b8ff" d="M864.92,-170.41C867.7,-144.39 876.07,-65.97 879.97,-29.51"/>
<polygon fill="#63b8ff" stroke="#63b8ff" points="883.48,-29.59 881.06,-19.27 876.52,-28.84 883.48,-29.59"/>
</a>
</g>
</g>
<!-- Node15&#45;&gt;Node6 -->
<g id="edge27_Node000015_Node000006" class="edge">
<title>Node15&#45;&gt;Node6</title>
<g id="a_edge27_Node000015_Node000006"><a xlink:title=" ">
<path fill="none" stroke="#63b8ff" d="M899.26,-170.48C908.86,-168.41 919.29,-166.4 929,-165 1036.63,-149.52 1327.13,-190.22 1417,-129 1434.64,-116.98 1456.93,-59.27 1467.66,-29.05"/>
<polygon fill="#63b8ff" stroke="#63b8ff" points="1471.07,-29.89 1471.06,-19.3 1464.46,-27.59 1471.07,-29.89"/>
</a>
</g>
</g>
<!-- Node15&#45;&gt;Node13 -->
<g id="edge25_Node000015_Node000013" class="edge">
<title>Node15&#45;&gt;Node13</title>
<g id="a_edge25_Node000015_Node000013"><a xlink:title=" ">
<path fill="none" stroke="#63b8ff" d="M897.73,-170.49C938.63,-160.18 1007.62,-142.78 1052.48,-131.47"/>
<polygon fill="#63b8ff" stroke="#63b8ff" points="1053.38,-134.86 1062.22,-129.02 1051.67,-128.07 1053.38,-134.86"/>
</a>
</g>
</g>
<!-- Node16 -->
<g id="Node000016" class="node">
<title>Node16</title>
<g id="a_Node000016"><a xlink:title=" ">
<polygon fill="#e0e0e0" stroke="#999999" points="770,-129 670,-129 670,-110 770,-110 770,-129"/>
<text text-anchor="middle" x="720" y="-117" font-family="Helvetica,sans-Serif" font-size="10.00">IBK_LinearSpline.h</text>
</a>
</g>
</g>
<!-- Node15&#45;&gt;Node16 -->
<g id="edge23_Node000015_Node000016" class="edge">
<title>Node15&#45;&gt;Node16</title>
<g id="a_edge23_Node000015_Node000016"><a xlink:title=" ">
<path fill="none" stroke="#63b8ff" d="M843.06,-170.49C818.64,-160.57 778.07,-144.09 750.23,-132.78"/>
<polygon fill="#63b8ff" stroke="#63b8ff" points="751.55,-129.54 740.96,-129.02 748.91,-136.02 751.55,-129.54"/>
</a>
</g>
</g>
<!-- Node17 -->
<g id="Node000017" class="node">
<title>Node17</title>
<g id="a_Node000017"><a xlink:title=" ">
<polygon fill="#e0e0e0" stroke="#999999" points="853.5,-129 788.5,-129 788.5,-110 853.5,-110 853.5,-129"/>
<text text-anchor="middle" x="821" y="-117" font-family="Helvetica,sans-Serif" font-size="10.00">IBK_Flag.h</text>
</a>
</g>
</g>
<!-- Node15&#45;&gt;Node17 -->
<g id="edge24_Node000015_Node000017" class="edge">
<title>Node15&#45;&gt;Node17</title>
<g id="a_edge24_Node000015_Node000017"><a xlink:title=" ">
<path fill="none" stroke="#63b8ff" d="M857.66,-170.37C851.3,-161.73 841.36,-148.2 833.43,-137.42"/>
<polygon fill="#63b8ff" stroke="#63b8ff" points="836.11,-135.15 827.37,-129.17 830.47,-139.3 836.11,-135.15"/>
</a>
</g>
</g>
<!-- Node18 -->
<g id="Node000018" class="node">
<title>Node18</title>
<g id="a_Node000018"><a xlink:title=" ">
<polygon fill="#e0e0e0" stroke="#999999" points="1032,-129 910,-129 910,-110 1032,-110 1032,-129"/>
<text text-anchor="middle" x="971" y="-117" font-family="Helvetica,sans-Serif" font-size="10.00">NANDRAD_Schedule.h</text>
</a>
</g>
</g>
<!-- Node15&#45;&gt;Node18 -->
<g id="edge26_Node000015_Node000018" class="edge">
<title>Node15&#45;&gt;Node18</title>
<g id="a_edge26_Node000015_Node000018"><a xlink:title=" ">
<path fill="none" stroke="#63b8ff" d="M879.79,-170.37C897.33,-160.78 925.88,-145.17 946.37,-133.97"/>
<polygon fill="#63b8ff" stroke="#63b8ff" points="948.05,-137.04 955.15,-129.17 944.69,-130.89 948.05,-137.04"/>
</a>
</g>
</g>
<!-- Node19 -->
<g id="Node000019" class="node">
<title>Node19</title>
<g id="a_Node000019"><a xlink:href="_v_i_c_u_s___schedule_interval_8h.html" target="_top" xlink:title=" ">
<polygon fill="white" stroke="#666666" points="1408,-129 1274,-129 1274,-110 1408,-110 1408,-129"/>
<text text-anchor="middle" x="1341" y="-117" font-family="Helvetica,sans-Serif" font-size="10.00">VICUS_ScheduleInterval.h</text>
</a>
</g>
</g>
<!-- Node15&#45;&gt;Node19 -->
<g id="edge29_Node000015_Node000019" class="edge">
<title>Node15&#45;&gt;Node19</title>
<g id="a_edge29_Node000015_Node000019"><a xlink:title=" ">
<path fill="none" stroke="#63b8ff" d="M900.31,-170.48C909.63,-168.48 919.66,-166.51 929,-165 1045.08,-146.28 1180.87,-133.33 1263.88,-126.41"/>
<polygon fill="#63b8ff" stroke="#63b8ff" points="1264.31,-129.88 1273.99,-125.57 1263.74,-122.91 1264.31,-129.88"/>
</a>
</g>
</g>
<!-- Node19&#45;&gt;Node3 -->
<g id="edge30_Node000019_Node000003" class="edge">
<title>Node19&#45;&gt;Node3</title>
<g id="a_edge30_Node000019_Node000003"><a xlink:title=" ">
<path fill="none" stroke="#63b8ff" d="M1301.96,-109.98C1259.92,-100.82 1192.96,-86.21 1147.32,-76.26"/>
<polygon fill="#63b8ff" stroke="#63b8ff" points="1147.86,-72.79 1137.35,-74.08 1146.37,-79.63 1147.86,-72.79"/>
</a>
</g>
</g>
<!-- Node19&#45;&gt;Node6 -->
<g id="edge31_Node000019_Node000006" class="edge">
<title>Node19&#45;&gt;Node6</title>
<g id="a_edge31_Node000019_Node000006"><a xlink:title=" ">
<path fill="none" stroke="#63b8ff" d="M1351.88,-109.66C1374.6,-91.22 1427.27,-48.45 1455.44,-25.57"/>
<polygon fill="#63b8ff" stroke="#63b8ff" points="1457.78,-28.18 1463.34,-19.16 1453.37,-22.75 1457.78,-28.18"/>
</a>
</g>
</g>
<!-- Node20 -->
<g id="Node000020" class="node">
<title>Node20</title>
<g id="a_Node000020"><a xlink:title=" ">
<polygon fill="#e0e0e0" stroke="#999999" points="1371,-19 1327,-19 1327,0 1371,0 1371,-19"/>
<text text-anchor="middle" x="1349" y="-7" font-family="Helvetica,sans-Serif" font-size="10.00">vector</text>
</a>
</g>
</g>
<!-- Node19&#45;&gt;Node20 -->
<g id="edge32_Node000019_Node000020" class="edge">
<title>Node19&#45;&gt;Node20</title>
<g id="a_edge32_Node000019_Node000020"><a xlink:title=" ">
<path fill="none" stroke="#63b8ff" d="M1341.65,-109.66C1342.95,-92.17 1345.87,-52.8 1347.61,-29.27"/>
<polygon fill="#63b8ff" stroke="#63b8ff" points="1351.11,-29.39 1348.36,-19.16 1344.13,-28.87 1351.11,-29.39"/>
</a>
</g>
</g>
<!-- Node21 -->
<g id="Node000021" class="node">
<title>Node21</title>
<g id="a_Node000021"><a xlink:href="_v_i_c_u_s___daily_cycle_8h.html" target="_top" xlink:title=" ">
<polygon fill="white" stroke="#666666" points="1332,-74 1222,-74 1222,-55 1332,-55 1332,-74"/>
<text text-anchor="middle" x="1277" y="-62" font-family="Helvetica,sans-Serif" font-size="10.00">VICUS_DailyCycle.h</text>
</a>
</g>
</g>
<!-- Node19&#45;&gt;Node21 -->
<g id="edge33_Node000019_Node000021" class="edge">
<title>Node19&#45;&gt;Node21</title>
<g id="a_edge33_Node000019_Node000021"><a xlink:title=" ">
<path fill="none" stroke="#63b8ff" d="M1330.72,-109.98C1321.16,-102.07 1306.72,-90.11 1295.22,-80.58"/>
<polygon fill="#63b8ff" stroke="#63b8ff" points="1297.4,-77.85 1287.47,-74.17 1292.94,-83.24 1297.4,-77.85"/>
</a>
</g>
</g>
<!-- Node21&#45;&gt;Node5 -->
<g id="edge35_Node000021_Node000005" class="edge">
<title>Node21&#45;&gt;Node5</title>
<g id="a_edge35_Node000021_Node000005"><a xlink:title=" ">
<path fill="none" stroke="#63b8ff" d="M1221.66,-56.07C1149.12,-46.34 1022.14,-29.3 945.68,-19.04"/>
<polygon fill="#63b8ff" stroke="#63b8ff" points="946.08,-15.57 935.7,-17.71 945.15,-22.5 946.08,-15.57"/>
</a>
</g>
</g>
<!-- Node21&#45;&gt;Node6 -->
<g id="edge34_Node000021_Node000006" class="edge">
<title>Node21&#45;&gt;Node6</title>
<g id="a_edge34_Node000021_Node000006"><a xlink:title=" ">
<path fill="none" stroke="#63b8ff" d="M1308.65,-54.98C1342.16,-45.97 1395.2,-31.7 1432.14,-21.76"/>
<polygon fill="#63b8ff" stroke="#63b8ff" points="1433.35,-25.06 1442.1,-19.08 1431.53,-18.3 1433.35,-25.06"/>
</a>
</g>
</g>
<!-- Node21&#45;&gt;Node20 -->
<g id="edge36_Node000021_Node000020" class="edge">
<title>Node21&#45;&gt;Node20</title>
<g id="a_edge36_Node000021_Node000020"><a xlink:title=" ">
<path fill="none" stroke="#63b8ff" d="M1288.57,-54.98C1299.42,-47 1315.88,-34.88 1328.88,-25.31"/>
<polygon fill="#63b8ff" stroke="#63b8ff" points="1331.24,-27.92 1337.22,-19.17 1327.09,-22.28 1331.24,-27.92"/>
</a>
</g>
</g>
<!-- Node22 -->
<g id="Node000022" class="node">
<title>Node22</title>
<g id="a_Node000022"><a xlink:title=" ">
<polygon fill="#e0e0e0" stroke="#999999" points="1297.5,-19 1256.5,-19 1256.5,0 1297.5,0 1297.5,-19"/>
<text text-anchor="middle" x="1277" y="-7" font-family="Helvetica,sans-Serif" font-size="10.00">string</text>
</a>
</g>
</g>
<!-- Node21&#45;&gt;Node22 -->
<g id="edge37_Node000021_Node000022" class="edge">
<title>Node21&#45;&gt;Node22</title>
<g id="a_edge37_Node000021_Node000022"><a xlink:title=" ">
<path fill="none" stroke="#63b8ff" d="M1277,-54.75C1277,-47.8 1277,-37.85 1277,-29.13"/>
<polygon fill="#63b8ff" stroke="#63b8ff" points="1280.5,-29.09 1277,-19.09 1273.5,-29.09 1280.5,-29.09"/>
</a>
</g>
</g>
<!-- Node24&#45;&gt;Node2 -->
<g id="edge41_Node000024_Node000002" class="edge">
<title>Node24&#45;&gt;Node2</title>
<g id="a_edge41_Node000024_Node000002"><a xlink:title=" ">
<path fill="none" stroke="#63b8ff" d="M483.87,-236.44C500.29,-216.01 542,-164.07 563.59,-137.19"/>
<polygon fill="#63b8ff" stroke="#63b8ff" points="566.55,-139.11 570.08,-129.12 561.09,-134.72 566.55,-139.11"/>
</a>
</g>
</g>
<!-- Node24&#45;&gt;Node4 -->
<g id="edge47_Node000024_Node000004" class="edge">
<title>Node24&#45;&gt;Node4</title>
<g id="a_edge47_Node000024_Node000004"><a xlink:title=" ">
<path fill="none" stroke="#63b8ff" d="M406.96,-243.09C273.44,-237.11 3.56,-212.35 95,-110 118.85,-83.3 364.08,-70.61 455.17,-66.79"/>
<polygon fill="#63b8ff" stroke="#63b8ff" points="455.4,-70.28 465.25,-66.38 455.11,-63.29 455.4,-70.28"/>
</a>
</g>
</g>
<!-- Node24&#45;&gt;Node5 -->
<g id="edge43_Node000024_Node000005" class="edge">
<title>Node24&#45;&gt;Node5</title>
<g id="a_edge43_Node000024_Node000005"><a xlink:title=" ">
<path fill="none" stroke="#63b8ff" d="M477.09,-236.09C477.15,-221.28 476.87,-190.69 474,-165 468.52,-115.84 423.89,-91.76 457,-55 480.68,-28.71 705.13,-16.89 817.94,-12.57"/>
<polygon fill="#63b8ff" stroke="#63b8ff" points="818.3,-16.06 828.17,-12.19 818.04,-9.07 818.3,-16.06"/>
</a>
</g>
</g>
<!-- Node24&#45;&gt;Node6 -->
<g id="edge42_Node000024_Node000006" class="edge">
<title>Node24&#45;&gt;Node6</title>
<g id="a_edge42_Node000024_Node000006"><a xlink:title=" ">
<path fill="none" stroke="#63b8ff" d="M547.29,-242.77C636.18,-238.68 793.4,-227.16 924,-195 959.66,-186.22 965.21,-173.26 1001,-165 1095.94,-143.08 1359.63,-186.9 1438,-129 1469.17,-105.97 1474.3,-56.62 1474.6,-29.44"/>
<polygon fill="#63b8ff" stroke="#63b8ff" points="1478.1,-29.25 1474.49,-19.28 1471.1,-29.32 1478.1,-29.25"/>
</a>
</g>
</g>
<!-- Node24&#45;&gt;Node7 -->
<g id="edge44_Node000024_Node000007" class="edge">
<title>Node24&#45;&gt;Node7</title>
<g id="a_edge44_Node000024_Node000007"><a xlink:title=" ">
<path fill="none" stroke="#63b8ff" d="M445.44,-236.37C403.72,-224.96 330.12,-204.83 284.09,-192.24"/>
<polygon fill="#63b8ff" stroke="#63b8ff" points="285,-188.86 274.43,-189.6 283.15,-195.61 285,-188.86"/>
</a>
</g>
</g>
<!-- Node24&#45;&gt;Node15 -->
<g id="edge45_Node000024_Node000015" class="edge">
<title>Node24&#45;&gt;Node15</title>
<g id="a_edge45_Node000024_Node000015"><a xlink:title=" ">
<path fill="none" stroke="#63b8ff" d="M528.79,-236.44C599.71,-224.71 726.83,-203.68 802.5,-191.17"/>
<polygon fill="#63b8ff" stroke="#63b8ff" points="803.53,-194.55 812.82,-189.46 802.39,-187.64 803.53,-194.55"/>
</a>
</g>
</g>
<!-- Node25 -->
<g id="Node000025" class="node">
<title>Node25</title>
<g id="a_Node000025"><a xlink:title=" ">
<polygon fill="#e0e0e0" stroke="#999999" points="464.5,-195 313.5,-195 313.5,-165 464.5,-165 464.5,-195"/>
<text text-anchor="start" x="321.5" y="-183" font-family="Helvetica,sans-Serif" font-size="10.00">NANDRAD_HydraulicNetwork</text>
<text text-anchor="middle" x="389" y="-172" font-family="Helvetica,sans-Serif" font-size="10.00">ControlElement.h</text>
</a>
</g>
</g>
<!-- Node24&#45;&gt;Node25 -->
<g id="edge46_Node000024_Node000025" class="edge">
<title>Node24&#45;&gt;Node25</title>
<g id="a_edge46_Node000024_Node000025"><a xlink:title=" ">
<path fill="none" stroke="#63b8ff" d="M465.13,-236.37C452.75,-227.36 432.89,-212.92 416.57,-201.05"/>
<polygon fill="#63b8ff" stroke="#63b8ff" points="418.55,-198.17 408.41,-195.12 414.44,-203.83 418.55,-198.17"/>
</a>
</g>
</g>
<!-- Node26&#45;&gt;Node5 -->
<g id="edge51_Node000026_Node000005" class="edge">
<title>Node26&#45;&gt;Node5</title>
<g id="a_edge51_Node000026_Node000005"><a xlink:title=" ">
<path fill="none" stroke="#63b8ff" d="M1399.54,-236.26C1400.03,-220.02 1398.69,-185.05 1380,-165 1343.48,-125.82 1312.11,-154.48 1265,-129 1219.45,-104.37 1222.3,-76.09 1175,-55 1101.04,-22.02 1007.27,-12.77 946,-10.54"/>
<polygon fill="#63b8ff" stroke="#63b8ff" points="945.81,-7.03 935.71,-10.22 945.59,-14.03 945.81,-7.03"/>
</a>
</g>
</g>
<!-- Node26&#45;&gt;Node6 -->
<g id="edge52_Node000026_Node000006" class="edge">
<title>Node26&#45;&gt;Node6</title>
<g id="a_edge52_Node000026_Node000006"><a xlink:title=" ">
<path fill="none" stroke="#63b8ff" d="M1410.64,-236.36C1439.64,-214.54 1513.65,-157.01 1526,-129 1539.27,-98.91 1539.75,-84.87 1526,-55 1520.25,-42.52 1509.09,-32.24 1498.58,-24.71"/>
<polygon fill="#63b8ff" stroke="#63b8ff" points="1500.3,-21.65 1490.03,-19.05 1496.43,-27.49 1500.3,-21.65"/>
</a>
</g>
</g>
<!-- Node26&#45;&gt;Node14 -->
<g id="edge50_Node000026_Node000014" class="edge">
<title>Node26&#45;&gt;Node14</title>
<g id="a_edge50_Node000026_Node000014"><a xlink:title=" ">
<path fill="none" stroke="#63b8ff" d="M1389.96,-236.37C1379.43,-226.31 1361.81,-209.48 1348.76,-197.01"/>
<polygon fill="#63b8ff" stroke="#63b8ff" points="1350.97,-194.28 1341.32,-189.91 1346.14,-199.34 1350.97,-194.28"/>
</a>
</g>
</g>
<!-- Node27 -->
<g id="Node000027" class="node">
<title>Node27</title>
<g id="a_Node000027"><a xlink:title=" ">
<polygon fill="#e0e0e0" stroke="#999999" points="1560,-189.5 1510,-189.5 1510,-170.5 1560,-170.5 1560,-189.5"/>
<text text-anchor="middle" x="1535" y="-177.5" font-family="Helvetica,sans-Serif" font-size="10.00">QString</text>
</a>
</g>
</g>
<!-- Node26&#45;&gt;Node27 -->
<g id="edge49_Node000026_Node000027" class="edge">
<title>Node26&#45;&gt;Node27</title>
<g id="a_edge49_Node000026_Node000027"><a xlink:title=" ">
<path fill="none" stroke="#63b8ff" d="M1417.34,-236.37C1440.46,-225.49 1480.41,-206.69 1507.27,-194.05"/>
<polygon fill="#63b8ff" stroke="#63b8ff" points="1508.96,-197.12 1516.51,-189.7 1505.98,-190.79 1508.96,-197.12"/>
</a>
</g>
</g>
</g>
</svg>
