<?xml version="1.0" encoding="UTF-8" standalone="no"?>
<!DOCTYPE svg PUBLIC "-//W3C//DTD SVG 1.1//EN"
 "http://www.w3.org/Graphics/SVG/1.1/DTD/svg11.dtd">
<!-- Generated by graphviz version 2.43.0 (0)
 -->
<!-- Title: /home/hirth/git/SIM&#45;VICUS.master2/externals/Vicus/src/VICUS_ArgsParser.cpp Pages: 1 -->
<svg width="175pt" height="159pt"
 viewBox="0.00 0.00 175.00 159.00" xmlns="http://www.w3.org/2000/svg" xmlns:xlink="http://www.w3.org/1999/xlink">
<g id="graph0" class="graph" transform="scale(1 1) rotate(0) translate(4 155)">
<title>/home/hirth/git/SIM&#45;VICUS.master2/externals/Vicus/src/VICUS_ArgsParser.cpp</title>
<!-- Node1 -->
<g id="Node000001" class="node">
<title>Node1</title>
<g id="a_Node000001"><a xlink:title=" ">
<polygon fill="#999999" stroke="#666666" points="167,-151 0,-151 0,-110 167,-110 167,-151"/>
<text text-anchor="start" x="8" y="-139" font-family="Helvetica,sans-Serif" font-size="10.00">/home/hirth/git/SIM</text>
<text text-anchor="start" x="8" y="-128" font-family="Helvetica,sans-Serif" font-size="10.00">&#45;VICUS.master2/externals</text>
<text text-anchor="middle" x="83.5" y="-117" font-family="Helvetica,sans-Serif" font-size="10.00">/Vicus/src/VICUS_ArgsParser.cpp</text>
</a>
</g>
</g>
<!-- Node2 -->
<g id="Node000002" class="node">
<title>Node2</title>
<g id="a_Node000002"><a xlink:href="_v_i_c_u_s___args_parser_8h.html" target="_top" xlink:title=" ">
<polygon fill="white" stroke="#666666" points="138.5,-74 28.5,-74 28.5,-55 138.5,-55 138.5,-74"/>
<text text-anchor="middle" x="83.5" y="-62" font-family="Helvetica,sans-Serif" font-size="10.00">VICUS_ArgsParser.h</text>
</a>
</g>
</g>
<!-- Node1&#45;&gt;Node2 -->
<g id="edge1_Node000001_Node000002" class="edge">
<title>Node1&#45;&gt;Node2</title>
<g id="a_edge1_Node000001_Node000002"><a xlink:title=" ">
<path fill="none" stroke="#63b8ff" d="M83.5,-109.95C83.5,-101.85 83.5,-92.5 83.5,-84.47"/>
<polygon fill="#63b8ff" stroke="#63b8ff" points="87,-84.26 83.5,-74.26 80,-84.26 87,-84.26"/>
</a>
</g>
</g>
<!-- Node3 -->
<g id="Node000003" class="node">
<title>Node3</title>
<g id="a_Node000003"><a xlink:title=" ">
<polygon fill="#e0e0e0" stroke="#999999" points="128,-19 39,-19 39,0 128,0 128,-19"/>
<text text-anchor="middle" x="83.5" y="-7" font-family="Helvetica,sans-Serif" font-size="10.00">IBK_ArgParser.h</text>
</a>
</g>
</g>
<!-- Node2&#45;&gt;Node3 -->
<g id="edge2_Node000002_Node000003" class="edge">
<title>Node2&#45;&gt;Node3</title>
<g id="a_edge2_Node000002_Node000003"><a xlink:title=" ">
<path fill="none" stroke="#63b8ff" d="M83.5,-54.75C83.5,-47.8 83.5,-37.85 83.5,-29.13"/>
<polygon fill="#63b8ff" stroke="#63b8ff" points="87,-29.09 83.5,-19.09 80,-29.09 87,-29.09"/>
</a>
</g>
</g>
</g>
</svg>
