<?xml version="1.0" encoding="UTF-8" standalone="no"?>
<!DOCTYPE svg PUBLIC "-//W3C//DTD SVG 1.1//EN"
 "http://www.w3.org/Graphics/SVG/1.1/DTD/svg11.dtd">
<!-- Generated by graphviz version 2.43.0 (0)
 -->
<!-- Title: /home/hirth/git/SIM&#45;VICUS.master2/externals/Vicus/src/VICUS_ZoneControlThermostat.cpp Pages: 1 -->
<svg width="1448pt" height="324pt"
 viewBox="0.00 0.00 1447.50 324.00" xmlns="http://www.w3.org/2000/svg" xmlns:xlink="http://www.w3.org/1999/xlink">
<g id="graph0" class="graph" transform="scale(1 1) rotate(0) translate(4 320)">
<title>/home/hirth/git/SIM&#45;VICUS.master2/externals/Vicus/src/VICUS_ZoneControlThermostat.cpp</title>
<!-- Node1 -->
<g id="Node000001" class="node">
<title>Node1</title>
<g id="a_Node000001"><a xlink:title=" ">
<polygon fill="#999999" stroke="#666666" points="997.5,-316 775.5,-316 775.5,-275 997.5,-275 997.5,-316"/>
<text text-anchor="start" x="783.5" y="-304" font-family="Helvetica,sans-Serif" font-size="10.00">/home/hirth/git/SIM</text>
<text text-anchor="start" x="783.5" y="-293" font-family="Helvetica,sans-Serif" font-size="10.00">&#45;VICUS.master2/externals</text>
<text text-anchor="middle" x="886.5" y="-282" font-family="Helvetica,sans-Serif" font-size="10.00">/Vicus/src/VICUS_ZoneControlThermostat.cpp</text>
</a>
</g>
</g>
<!-- Node2 -->
<g id="Node000002" class="node">
<title>Node2</title>
<g id="a_Node000002"><a xlink:href="_v_i_c_u_s___zone_control_thermostat_8h.html" target="_top" xlink:title=" ">
<polygon fill="white" stroke="#666666" points="913.5,-239 749.5,-239 749.5,-220 913.5,-220 913.5,-239"/>
<text text-anchor="middle" x="831.5" y="-227" font-family="Helvetica,sans-Serif" font-size="10.00">VICUS_ZoneControlThermostat.h</text>
</a>
</g>
</g>
<!-- Node1&#45;&gt;Node2 -->
<g id="edge1_Node000001_Node000002" class="edge">
<title>Node1&#45;&gt;Node2</title>
<g id="a_edge1_Node000001_Node000002"><a xlink:title=" ">
<path fill="none" stroke="#63b8ff" d="M869.7,-274.95C862.02,-266.02 853.03,-255.55 845.7,-247.02"/>
<polygon fill="#63b8ff" stroke="#63b8ff" points="848.2,-244.56 839.03,-239.26 842.89,-249.13 848.2,-244.56"/>
</a>
</g>
</g>
<!-- Node22 -->
<g id="Node000022" class="node">
<title>Node22</title>
<g id="a_Node000022"><a xlink:href="_v_i_c_u_s___keyword_list_8h.html" target="_top" xlink:title="Contains the declaration of class KeywordList.">
<polygon fill="white" stroke="#666666" points="1369.5,-184 1253.5,-184 1253.5,-165 1369.5,-165 1369.5,-184"/>
<text text-anchor="middle" x="1311.5" y="-172" font-family="Helvetica,sans-Serif" font-size="10.00">VICUS_KeywordList.h</text>
</a>
</g>
</g>
<!-- Node1&#45;&gt;Node22 -->
<g id="edge33_Node000001_Node000022" class="edge">
<title>Node1&#45;&gt;Node22</title>
<g id="a_edge33_Node000001_Node000022"><a xlink:title=" ">
<path fill="none" stroke="#63b8ff" d="M956.2,-274.98C1045.94,-249.86 1198.92,-207.02 1271.29,-186.76"/>
<polygon fill="#63b8ff" stroke="#63b8ff" points="1272.26,-190.12 1280.95,-184.05 1270.38,-183.38 1272.26,-190.12"/>
</a>
</g>
</g>
<!-- Node3 -->
<g id="Node000003" class="node">
<title>Node3</title>
<g id="a_Node000003"><a xlink:title=" ">
<polygon fill="#e0e0e0" stroke="#999999" points="719,-74 672,-74 672,-55 719,-55 719,-74"/>
<text text-anchor="middle" x="695.5" y="-62" font-family="Helvetica,sans-Serif" font-size="10.00">QColor</text>
</a>
</g>
</g>
<!-- Node2&#45;&gt;Node3 -->
<g id="edge2_Node000002_Node000003" class="edge">
<title>Node2&#45;&gt;Node3</title>
<g id="a_edge2_Node000002_Node000003"><a xlink:title=" ">
<path fill="none" stroke="#63b8ff" d="M913.71,-225.73C1036.49,-218.82 1245.53,-194.61 1168.5,-110 1139.01,-77.6 832.62,-68.33 729.3,-66.11"/>
<polygon fill="#63b8ff" stroke="#63b8ff" points="729.19,-62.61 719.12,-65.9 729.04,-69.61 729.19,-62.61"/>
</a>
</g>
</g>
<!-- Node4 -->
<g id="Node000004" class="node">
<title>Node4</title>
<g id="a_Node000004"><a xlink:title=" ">
<polygon fill="#e0e0e0" stroke="#999999" points="837,-129 746,-129 746,-110 837,-110 837,-129"/>
<text text-anchor="middle" x="791.5" y="-117" font-family="Helvetica,sans-Serif" font-size="10.00">IBK_Parameter.h</text>
</a>
</g>
</g>
<!-- Node2&#45;&gt;Node4 -->
<g id="edge3_Node000002_Node000004" class="edge">
<title>Node2&#45;&gt;Node4</title>
<g id="a_edge3_Node000002_Node000004"><a xlink:title=" ">
<path fill="none" stroke="#63b8ff" d="M828.23,-219.66C821.69,-202.01 806.9,-162.09 798.22,-138.64"/>
<polygon fill="#63b8ff" stroke="#63b8ff" points="801.46,-137.32 794.71,-129.16 794.9,-139.75 801.46,-137.32"/>
</a>
</g>
</g>
<!-- Node5 -->
<g id="Node000005" class="node">
<title>Node5</title>
<g id="a_Node000005"><a xlink:href="_v_i_c_u_s___code_gen_macros_8h.html" target="_top" xlink:title=" ">
<polygon fill="white" stroke="#666666" points="135,-19 0,-19 0,0 135,0 135,-19"/>
<text text-anchor="middle" x="67.5" y="-7" font-family="Helvetica,sans-Serif" font-size="10.00">VICUS_CodeGenMacros.h</text>
</a>
</g>
</g>
<!-- Node2&#45;&gt;Node5 -->
<g id="edge4_Node000002_Node000005" class="edge">
<title>Node2&#45;&gt;Node5</title>
<g id="a_edge4_Node000002_Node000005"><a xlink:title=" ">
<path fill="none" stroke="#63b8ff" d="M749.2,-223.95C558.76,-212.6 100.42,-180.18 54.5,-129 29.61,-101.26 46.17,-53.9 58.18,-28.26"/>
<polygon fill="#63b8ff" stroke="#63b8ff" points="61.32,-29.81 62.62,-19.29 55.05,-26.7 61.32,-29.81"/>
</a>
</g>
</g>
<!-- Node6 -->
<g id="Node000006" class="node">
<title>Node6</title>
<g id="a_Node000006"><a xlink:href="_v_i_c_u_s___constants_8h.html" target="_top" xlink:title="Contains global constants for the SIM&#45;VICUS data model.">
<polygon fill="white" stroke="#666666" points="497,-19 390,-19 390,0 497,0 497,-19"/>
<text text-anchor="middle" x="443.5" y="-7" font-family="Helvetica,sans-Serif" font-size="10.00">VICUS_Constants.h</text>
</a>
</g>
</g>
<!-- Node2&#45;&gt;Node6 -->
<g id="edge5_Node000002_Node000006" class="edge">
<title>Node2&#45;&gt;Node6</title>
<g id="a_edge5_Node000002_Node000006"><a xlink:title=" ">
<path fill="none" stroke="#63b8ff" d="M913.77,-228.74C1003.94,-227.2 1140.71,-218.92 1177.5,-184 1201.57,-161.15 1209.36,-134.97 1187.5,-110 1142.87,-59.01 679.6,-25.19 507.45,-14.3"/>
<polygon fill="#63b8ff" stroke="#63b8ff" points="507.47,-10.8 497.27,-13.67 507.03,-17.78 507.47,-10.8"/>
</a>
</g>
</g>
<!-- Node7 -->
<g id="Node000007" class="node">
<title>Node7</title>
<g id="a_Node000007"><a xlink:href="_v_i_c_u_s___abstract_d_b_element_8h.html" target="_top" xlink:title=" ">
<polygon fill="white" stroke="#666666" points="728,-129 579,-129 579,-110 728,-110 728,-129"/>
<text text-anchor="middle" x="653.5" y="-117" font-family="Helvetica,sans-Serif" font-size="10.00">VICUS_AbstractDBElement.h</text>
</a>
</g>
</g>
<!-- Node2&#45;&gt;Node7 -->
<g id="edge6_Node000002_Node000007" class="edge">
<title>Node2&#45;&gt;Node7</title>
<g id="a_edge6_Node000002_Node000007"><a xlink:title=" ">
<path fill="none" stroke="#63b8ff" d="M817.23,-219.84C786.51,-201.2 713.85,-157.11 676.52,-134.46"/>
<polygon fill="#63b8ff" stroke="#63b8ff" points="678.2,-131.39 667.83,-129.2 674.57,-137.38 678.2,-131.39"/>
</a>
</g>
</g>
<!-- Node9 -->
<g id="Node000009" class="node">
<title>Node9</title>
<g id="a_Node000009"><a xlink:href="_v_i_c_u_s___schedule_8h.html" target="_top" xlink:title=" ">
<polygon fill="white" stroke="#666666" points="438.5,-184 336.5,-184 336.5,-165 438.5,-165 438.5,-184"/>
<text text-anchor="middle" x="387.5" y="-172" font-family="Helvetica,sans-Serif" font-size="10.00">VICUS_Schedule.h</text>
</a>
</g>
</g>
<!-- Node2&#45;&gt;Node9 -->
<g id="edge10_Node000002_Node000009" class="edge">
<title>Node2&#45;&gt;Node9</title>
<g id="a_edge10_Node000002_Node000009"><a xlink:title=" ">
<path fill="none" stroke="#63b8ff" d="M760.16,-219.98C673.89,-209.69 530.14,-192.53 448.69,-182.8"/>
<polygon fill="#63b8ff" stroke="#63b8ff" points="448.94,-179.31 438.59,-181.6 448.11,-186.26 448.94,-179.31"/>
</a>
</g>
</g>
<!-- Node17 -->
<g id="Node000017" class="node">
<title>Node17</title>
<g id="a_Node000017"><a xlink:href="_v_i_c_u_s___database_8h.html" target="_top" xlink:title=" ">
<polygon fill="white" stroke="#666666" points="958.5,-184 854.5,-184 854.5,-165 958.5,-165 958.5,-184"/>
<text text-anchor="middle" x="906.5" y="-172" font-family="Helvetica,sans-Serif" font-size="10.00">VICUS_Database.h</text>
</a>
</g>
</g>
<!-- Node2&#45;&gt;Node17 -->
<g id="edge27_Node000002_Node000017" class="edge">
<title>Node2&#45;&gt;Node17</title>
<g id="a_edge27_Node000002_Node000017"><a xlink:title=" ">
<path fill="none" stroke="#63b8ff" d="M843.55,-219.98C854.96,-211.92 872.33,-199.65 885.93,-190.03"/>
<polygon fill="#63b8ff" stroke="#63b8ff" points="888.08,-192.8 894.23,-184.17 884.04,-187.08 888.08,-192.8"/>
</a>
</g>
</g>
<!-- Node7&#45;&gt;Node3 -->
<g id="edge8_Node000007_Node000003" class="edge">
<title>Node7&#45;&gt;Node3</title>
<g id="a_edge8_Node000007_Node000003"><a xlink:title=" ">
<path fill="none" stroke="#63b8ff" d="M660.44,-109.75C666.37,-102.26 675.07,-91.28 682.32,-82.13"/>
<polygon fill="#63b8ff" stroke="#63b8ff" points="685.23,-84.1 688.69,-74.09 679.74,-79.75 685.23,-84.1"/>
</a>
</g>
</g>
<!-- Node7&#45;&gt;Node6 -->
<g id="edge9_Node000007_Node000006" class="edge">
<title>Node7&#45;&gt;Node6</title>
<g id="a_edge9_Node000007_Node000006"><a xlink:title=" ">
<path fill="none" stroke="#63b8ff" d="M636.67,-109.84C600.02,-91 512.81,-46.14 469.22,-23.73"/>
<polygon fill="#63b8ff" stroke="#63b8ff" points="470.61,-20.51 460.12,-19.05 467.41,-26.73 470.61,-20.51"/>
</a>
</g>
</g>
<!-- Node8 -->
<g id="Node000008" class="node">
<title>Node8</title>
<g id="a_Node000008"><a xlink:title=" ">
<polygon fill="#e0e0e0" stroke="#999999" points="518,-74 383,-74 383,-55 518,-55 518,-74"/>
<text text-anchor="middle" x="450.5" y="-62" font-family="Helvetica,sans-Serif" font-size="10.00">IBK_MultiLanguageString.h</text>
</a>
</g>
</g>
<!-- Node7&#45;&gt;Node8 -->
<g id="edge7_Node000007_Node000008" class="edge">
<title>Node7&#45;&gt;Node8</title>
<g id="a_edge7_Node000007_Node000008"><a xlink:title=" ">
<path fill="none" stroke="#63b8ff" d="M620.88,-109.98C586.21,-100.93 531.24,-86.58 493.15,-76.64"/>
<polygon fill="#63b8ff" stroke="#63b8ff" points="493.93,-73.22 483.37,-74.08 492.16,-79.99 493.93,-73.22"/>
</a>
</g>
</g>
<!-- Node9&#45;&gt;Node4 -->
<g id="edge13_Node000009_Node000004" class="edge">
<title>Node9&#45;&gt;Node4</title>
<g id="a_edge13_Node000009_Node000004"><a xlink:title=" ">
<path fill="none" stroke="#63b8ff" d="M438.71,-167.4C504.79,-159.44 623.59,-144.79 735.76,-129.07"/>
<polygon fill="#63b8ff" stroke="#63b8ff" points="736.48,-132.5 745.9,-127.64 735.51,-125.57 736.48,-132.5"/>
</a>
</g>
</g>
<!-- Node9&#45;&gt;Node5 -->
<g id="edge15_Node000009_Node000005" class="edge">
<title>Node9&#45;&gt;Node5</title>
<g id="a_edge15_Node000009_Node000005"><a xlink:title=" ">
<path fill="none" stroke="#63b8ff" d="M336.36,-174.1C255.25,-173.85 102.76,-168.03 68.5,-129 44.28,-101.4 53.35,-54.68 61.06,-28.92"/>
<polygon fill="#63b8ff" stroke="#63b8ff" points="64.43,-29.87 64.18,-19.28 57.77,-27.71 64.43,-29.87"/>
</a>
</g>
</g>
<!-- Node9&#45;&gt;Node6 -->
<g id="edge16_Node000009_Node000006" class="edge">
<title>Node9&#45;&gt;Node6</title>
<g id="a_edge16_Node000009_Node000006"><a xlink:title=" ">
<path fill="none" stroke="#63b8ff" d="M336.47,-173.95C256.83,-173.45 108.66,-167.23 75.5,-129 69.97,-122.62 71.28,-117.32 75.5,-110 99.87,-67.73 124.56,-71.42 170.5,-55 239.57,-30.32 323.41,-19.25 379.8,-14.33"/>
<polygon fill="#63b8ff" stroke="#63b8ff" points="380.32,-17.8 390,-13.48 379.74,-10.83 380.32,-17.8"/>
</a>
</g>
</g>
<!-- Node9&#45;&gt;Node7 -->
<g id="edge26_Node000009_Node000007" class="edge">
<title>Node9&#45;&gt;Node7</title>
<g id="a_edge26_Node000009_Node000007"><a xlink:title=" ">
<path fill="none" stroke="#63b8ff" d="M430.24,-164.98C476.54,-155.76 550.48,-141.03 600.46,-131.07"/>
<polygon fill="#63b8ff" stroke="#63b8ff" points="601.3,-134.47 610.43,-129.08 599.94,-127.6 601.3,-134.47"/>
</a>
</g>
</g>
<!-- Node10 -->
<g id="Node000010" class="node">
<title>Node10</title>
<g id="a_Node000010"><a xlink:title=" ">
<polygon fill="#e0e0e0" stroke="#999999" points="336.5,-129 236.5,-129 236.5,-110 336.5,-110 336.5,-129"/>
<text text-anchor="middle" x="286.5" y="-117" font-family="Helvetica,sans-Serif" font-size="10.00">IBK_LinearSpline.h</text>
</a>
</g>
</g>
<!-- Node9&#45;&gt;Node10 -->
<g id="edge11_Node000009_Node000010" class="edge">
<title>Node9&#45;&gt;Node10</title>
<g id="a_edge11_Node000009_Node000010"><a xlink:title=" ">
<path fill="none" stroke="#63b8ff" d="M371.27,-164.98C355.32,-156.61 330.72,-143.7 312.12,-133.95"/>
<polygon fill="#63b8ff" stroke="#63b8ff" points="313.5,-130.72 303.02,-129.17 310.25,-136.92 313.5,-130.72"/>
</a>
</g>
</g>
<!-- Node11 -->
<g id="Node000011" class="node">
<title>Node11</title>
<g id="a_Node000011"><a xlink:title=" ">
<polygon fill="#e0e0e0" stroke="#999999" points="420,-129 355,-129 355,-110 420,-110 420,-129"/>
<text text-anchor="middle" x="387.5" y="-117" font-family="Helvetica,sans-Serif" font-size="10.00">IBK_Flag.h</text>
</a>
</g>
</g>
<!-- Node9&#45;&gt;Node11 -->
<g id="edge12_Node000009_Node000011" class="edge">
<title>Node9&#45;&gt;Node11</title>
<g id="a_edge12_Node000009_Node000011"><a xlink:title=" ">
<path fill="none" stroke="#63b8ff" d="M387.5,-164.75C387.5,-157.8 387.5,-147.85 387.5,-139.13"/>
<polygon fill="#63b8ff" stroke="#63b8ff" points="391,-139.09 387.5,-129.09 384,-139.09 391,-139.09"/>
</a>
</g>
</g>
<!-- Node12 -->
<g id="Node000012" class="node">
<title>Node12</title>
<g id="a_Node000012"><a xlink:title=" ">
<polygon fill="#e0e0e0" stroke="#999999" points="560.5,-129 438.5,-129 438.5,-110 560.5,-110 560.5,-129"/>
<text text-anchor="middle" x="499.5" y="-117" font-family="Helvetica,sans-Serif" font-size="10.00">NANDRAD_Schedule.h</text>
</a>
</g>
</g>
<!-- Node9&#45;&gt;Node12 -->
<g id="edge14_Node000009_Node000012" class="edge">
<title>Node9&#45;&gt;Node12</title>
<g id="a_edge14_Node000009_Node000012"><a xlink:title=" ">
<path fill="none" stroke="#63b8ff" d="M405.49,-164.98C423.43,-156.5 451.22,-143.35 471.93,-133.54"/>
<polygon fill="#63b8ff" stroke="#63b8ff" points="473.64,-136.61 481.18,-129.17 470.64,-130.28 473.64,-136.61"/>
</a>
</g>
</g>
<!-- Node13 -->
<g id="Node000013" class="node">
<title>Node13</title>
<g id="a_Node000013"><a xlink:href="_v_i_c_u_s___schedule_interval_8h.html" target="_top" xlink:title=" ">
<polygon fill="white" stroke="#666666" points="218.5,-129 84.5,-129 84.5,-110 218.5,-110 218.5,-129"/>
<text text-anchor="middle" x="151.5" y="-117" font-family="Helvetica,sans-Serif" font-size="10.00">VICUS_ScheduleInterval.h</text>
</a>
</g>
</g>
<!-- Node9&#45;&gt;Node13 -->
<g id="edge17_Node000009_Node000013" class="edge">
<title>Node9&#45;&gt;Node13</title>
<g id="a_edge17_Node000009_Node000013"><a xlink:title=" ">
<path fill="none" stroke="#63b8ff" d="M349.58,-164.98C308.85,-155.84 244,-141.27 199.68,-131.32"/>
<polygon fill="#63b8ff" stroke="#63b8ff" points="200.24,-127.86 189.71,-129.08 198.7,-134.69 200.24,-127.86"/>
</a>
</g>
</g>
<!-- Node13&#45;&gt;Node5 -->
<g id="edge19_Node000013_Node000005" class="edge">
<title>Node13&#45;&gt;Node5</title>
<g id="a_edge19_Node000013_Node000005"><a xlink:title=" ">
<path fill="none" stroke="#63b8ff" d="M144.63,-109.66C130.59,-91.61 98.44,-50.28 80.39,-27.08"/>
<polygon fill="#63b8ff" stroke="#63b8ff" points="83.14,-24.9 74.23,-19.16 77.61,-29.2 83.14,-24.9"/>
</a>
</g>
</g>
<!-- Node13&#45;&gt;Node8 -->
<g id="edge18_Node000013_Node000008" class="edge">
<title>Node13&#45;&gt;Node8</title>
<g id="a_edge18_Node000013_Node000008"><a xlink:title=" ">
<path fill="none" stroke="#63b8ff" d="M199.54,-109.98C251.91,-100.7 335.74,-85.84 391.93,-75.88"/>
<polygon fill="#63b8ff" stroke="#63b8ff" points="392.85,-79.27 402.08,-74.08 391.63,-72.38 392.85,-79.27"/>
</a>
</g>
</g>
<!-- Node14 -->
<g id="Node000014" class="node">
<title>Node14</title>
<g id="a_Node000014"><a xlink:title=" ">
<polygon fill="#e0e0e0" stroke="#999999" points="209.5,-19 165.5,-19 165.5,0 209.5,0 209.5,-19"/>
<text text-anchor="middle" x="187.5" y="-7" font-family="Helvetica,sans-Serif" font-size="10.00">vector</text>
</a>
</g>
</g>
<!-- Node13&#45;&gt;Node14 -->
<g id="edge20_Node000013_Node000014" class="edge">
<title>Node13&#45;&gt;Node14</title>
<g id="a_edge20_Node000013_Node000014"><a xlink:title=" ">
<path fill="none" stroke="#63b8ff" d="M153.88,-109.81C157.3,-97.52 163.9,-74.39 170.5,-55 173.46,-46.29 177.06,-36.75 180.18,-28.74"/>
<polygon fill="#63b8ff" stroke="#63b8ff" points="183.49,-29.88 183.92,-19.29 176.98,-27.31 183.49,-29.88"/>
</a>
</g>
</g>
<!-- Node15 -->
<g id="Node000015" class="node">
<title>Node15</title>
<g id="a_Node000015"><a xlink:href="_v_i_c_u_s___daily_cycle_8h.html" target="_top" xlink:title=" ">
<polygon fill="white" stroke="#666666" points="289.5,-74 179.5,-74 179.5,-55 289.5,-55 289.5,-74"/>
<text text-anchor="middle" x="234.5" y="-62" font-family="Helvetica,sans-Serif" font-size="10.00">VICUS_DailyCycle.h</text>
</a>
</g>
</g>
<!-- Node13&#45;&gt;Node15 -->
<g id="edge21_Node000013_Node000015" class="edge">
<title>Node13&#45;&gt;Node15</title>
<g id="a_edge21_Node000013_Node000015"><a xlink:title=" ">
<path fill="none" stroke="#63b8ff" d="M164.84,-109.98C177.59,-101.84 197.05,-89.41 212.17,-79.76"/>
<polygon fill="#63b8ff" stroke="#63b8ff" points="214.38,-82.5 220.92,-74.17 210.61,-76.6 214.38,-82.5"/>
</a>
</g>
</g>
<!-- Node15&#45;&gt;Node5 -->
<g id="edge22_Node000015_Node000005" class="edge">
<title>Node15&#45;&gt;Node5</title>
<g id="a_edge22_Node000015_Node000005"><a xlink:title=" ">
<path fill="none" stroke="#63b8ff" d="M207.67,-54.98C179.63,-46.09 135.45,-32.07 104.2,-22.15"/>
<polygon fill="#63b8ff" stroke="#63b8ff" points="105.13,-18.77 94.54,-19.08 103.01,-25.44 105.13,-18.77"/>
</a>
</g>
</g>
<!-- Node15&#45;&gt;Node6 -->
<g id="edge23_Node000015_Node000006" class="edge">
<title>Node15&#45;&gt;Node6</title>
<g id="a_edge23_Node000015_Node000006"><a xlink:title=" ">
<path fill="none" stroke="#63b8ff" d="M268.08,-54.98C303.85,-45.91 360.62,-31.52 399.84,-21.57"/>
<polygon fill="#63b8ff" stroke="#63b8ff" points="400.82,-24.93 409.66,-19.08 399.1,-18.15 400.82,-24.93"/>
</a>
</g>
</g>
<!-- Node15&#45;&gt;Node14 -->
<g id="edge24_Node000015_Node000014" class="edge">
<title>Node15&#45;&gt;Node14</title>
<g id="a_edge24_Node000015_Node000014"><a xlink:title=" ">
<path fill="none" stroke="#63b8ff" d="M226.74,-54.75C220.03,-47.18 210.16,-36.05 201.99,-26.84"/>
<polygon fill="#63b8ff" stroke="#63b8ff" points="204.37,-24.25 195.12,-19.09 199.13,-28.89 204.37,-24.25"/>
</a>
</g>
</g>
<!-- Node16 -->
<g id="Node000016" class="node">
<title>Node16</title>
<g id="a_Node000016"><a xlink:title=" ">
<polygon fill="#e0e0e0" stroke="#999999" points="938,-19 897,-19 897,0 938,0 938,-19"/>
<text text-anchor="middle" x="917.5" y="-7" font-family="Helvetica,sans-Serif" font-size="10.00">string</text>
</a>
</g>
</g>
<!-- Node15&#45;&gt;Node16 -->
<g id="edge25_Node000015_Node000016" class="edge">
<title>Node15&#45;&gt;Node16</title>
<g id="a_edge25_Node000015_Node000016"><a xlink:title=" ">
<path fill="none" stroke="#63b8ff" d="M289.53,-59.23C426.7,-48.59 780.44,-21.14 886.8,-12.88"/>
<polygon fill="#63b8ff" stroke="#63b8ff" points="887.17,-16.36 896.87,-12.1 886.63,-9.39 887.17,-16.36"/>
</a>
</g>
</g>
<!-- Node17&#45;&gt;Node7 -->
<g id="edge29_Node000017_Node000007" class="edge">
<title>Node17&#45;&gt;Node7</title>
<g id="a_edge29_Node000017_Node000007"><a xlink:title=" ">
<path fill="none" stroke="#63b8ff" d="M865.85,-164.98C822,-155.8 752.08,-141.15 704.55,-131.19"/>
<polygon fill="#63b8ff" stroke="#63b8ff" points="704.97,-127.71 694.47,-129.08 703.54,-134.56 704.97,-127.71"/>
</a>
</g>
</g>
<!-- Node18 -->
<g id="Node000018" class="node">
<title>Node18</title>
<g id="a_Node000018"><a xlink:title=" ">
<polygon fill="#e0e0e0" stroke="#999999" points="890,-129 855,-129 855,-110 890,-110 890,-129"/>
<text text-anchor="middle" x="872.5" y="-117" font-family="Helvetica,sans-Serif" font-size="10.00">map</text>
</a>
</g>
</g>
<!-- Node17&#45;&gt;Node18 -->
<g id="edge28_Node000017_Node000018" class="edge">
<title>Node17&#45;&gt;Node18</title>
<g id="a_edge28_Node000017_Node000018"><a xlink:title=" ">
<path fill="none" stroke="#63b8ff" d="M900.89,-164.75C896.18,-157.42 889.33,-146.73 883.53,-137.7"/>
<polygon fill="#63b8ff" stroke="#63b8ff" points="886.36,-135.62 878.01,-129.09 880.46,-139.4 886.36,-135.62"/>
</a>
</g>
</g>
<!-- Node19 -->
<g id="Node000019" class="node">
<title>Node19</title>
<g id="a_Node000019"><a xlink:title=" ">
<polygon fill="#e0e0e0" stroke="#999999" points="975,-129 908,-129 908,-110 975,-110 975,-129"/>
<text text-anchor="middle" x="941.5" y="-117" font-family="Helvetica,sans-Serif" font-size="10.00">IBK_Path.h</text>
</a>
</g>
</g>
<!-- Node17&#45;&gt;Node19 -->
<g id="edge30_Node000017_Node000019" class="edge">
<title>Node17&#45;&gt;Node19</title>
<g id="a_edge30_Node000017_Node000019"><a xlink:title=" ">
<path fill="none" stroke="#63b8ff" d="M912.28,-164.75C917.12,-157.42 924.18,-146.73 930.14,-137.7"/>
<polygon fill="#63b8ff" stroke="#63b8ff" points="933.24,-139.36 935.83,-129.09 927.4,-135.5 933.24,-139.36"/>
</a>
</g>
</g>
<!-- Node20 -->
<g id="Node000020" class="node">
<title>Node20</title>
<g id="a_Node000020"><a xlink:title=" ">
<polygon fill="#e0e0e0" stroke="#999999" points="1085.5,-129 993.5,-129 993.5,-110 1085.5,-110 1085.5,-129"/>
<text text-anchor="middle" x="1039.5" y="-117" font-family="Helvetica,sans-Serif" font-size="10.00">IBK_messages.h</text>
</a>
</g>
</g>
<!-- Node17&#45;&gt;Node20 -->
<g id="edge31_Node000017_Node000020" class="edge">
<title>Node17&#45;&gt;Node20</title>
<g id="a_edge31_Node000017_Node000020"><a xlink:title=" ">
<path fill="none" stroke="#63b8ff" d="M927.87,-164.98C949.65,-156.3 983.66,-142.75 1008.42,-132.88"/>
<polygon fill="#63b8ff" stroke="#63b8ff" points="1009.75,-136.12 1017.74,-129.17 1007.16,-129.62 1009.75,-136.12"/>
</a>
</g>
</g>
<!-- Node21 -->
<g id="Node000021" class="node">
<title>Node21</title>
<g id="a_Node000021"><a xlink:title=" ">
<polygon fill="#e0e0e0" stroke="#999999" points="1159.5,-129 1103.5,-129 1103.5,-110 1159.5,-110 1159.5,-129"/>
<text text-anchor="middle" x="1131.5" y="-117" font-family="Helvetica,sans-Serif" font-size="10.00">tinyxml.h</text>
</a>
</g>
</g>
<!-- Node17&#45;&gt;Node21 -->
<g id="edge32_Node000017_Node000021" class="edge">
<title>Node17&#45;&gt;Node21</title>
<g id="a_edge32_Node000017_Node000021"><a xlink:title=" ">
<path fill="none" stroke="#63b8ff" d="M942.65,-164.98C983.96,-155.25 1051.29,-139.39 1093.4,-129.47"/>
<polygon fill="#63b8ff" stroke="#63b8ff" points="1094.34,-132.85 1103.27,-127.15 1092.74,-126.03 1094.34,-132.85"/>
</a>
</g>
</g>
<!-- Node22&#45;&gt;Node4 -->
<g id="edge36_Node000022_Node000004" class="edge">
<title>Node22&#45;&gt;Node4</title>
<g id="a_edge36_Node000022_Node000004"><a xlink:title=" ">
<path fill="none" stroke="#63b8ff" d="M1253.25,-169.08C1166.81,-162.28 999.24,-148.11 847.13,-129.14"/>
<polygon fill="#63b8ff" stroke="#63b8ff" points="847.5,-125.66 837.14,-127.88 846.62,-132.6 847.5,-125.66"/>
</a>
</g>
</g>
<!-- Node22&#45;&gt;Node16 -->
<g id="edge34_Node000022_Node000016" class="edge">
<title>Node22&#45;&gt;Node16</title>
<g id="a_edge34_Node000022_Node000016"><a xlink:title=" ">
<path fill="none" stroke="#63b8ff" d="M1305.86,-164.68C1300.15,-155.73 1291.12,-141.46 1283.5,-129 1263.53,-96.36 1271.38,-76.16 1239.5,-55 1192.09,-23.54 1019.58,-14.03 948.47,-11.41"/>
<polygon fill="#63b8ff" stroke="#63b8ff" points="948.46,-7.91 938.35,-11.06 948.22,-14.91 948.46,-7.91"/>
</a>
</g>
</g>
<!-- Node23 -->
<g id="Node000023" class="node">
<title>Node23</title>
<g id="a_Node000023"><a xlink:title=" ">
<polygon fill="#e0e0e0" stroke="#999999" points="1343,-129 1292,-129 1292,-110 1343,-110 1343,-129"/>
<text text-anchor="middle" x="1317.5" y="-117" font-family="Helvetica,sans-Serif" font-size="10.00">typeinfo</text>
</a>
</g>
</g>
<!-- Node22&#45;&gt;Node23 -->
<g id="edge35_Node000022_Node000023" class="edge">
<title>Node22&#45;&gt;Node23</title>
<g id="a_edge35_Node000022_Node000023"><a xlink:title=" ">
<path fill="none" stroke="#63b8ff" d="M1312.49,-164.75C1313.28,-157.8 1314.4,-147.85 1315.39,-139.13"/>
<polygon fill="#63b8ff" stroke="#63b8ff" points="1318.88,-139.42 1316.53,-129.09 1311.92,-138.63 1318.88,-139.42"/>
</a>
</g>
</g>
<!-- Node24 -->
<g id="Node000024" class="node">
<title>Node24</title>
<g id="a_Node000024"><a xlink:title=" ">
<polygon fill="#e0e0e0" stroke="#999999" points="1439.5,-129 1361.5,-129 1361.5,-110 1439.5,-110 1439.5,-129"/>
<text text-anchor="middle" x="1400.5" y="-117" font-family="Helvetica,sans-Serif" font-size="10.00">IBK_IntPara.h</text>
</a>
</g>
</g>
<!-- Node22&#45;&gt;Node24 -->
<g id="edge37_Node000022_Node000024" class="edge">
<title>Node22&#45;&gt;Node24</title>
<g id="a_edge37_Node000022_Node000024"><a xlink:title=" ">
<path fill="none" stroke="#63b8ff" d="M1325.8,-164.98C1339.6,-156.77 1360.74,-144.18 1377.01,-134.49"/>
<polygon fill="#63b8ff" stroke="#63b8ff" points="1379.14,-137.29 1385.94,-129.17 1375.56,-131.28 1379.14,-137.29"/>
</a>
</g>
</g>
</g>
</svg>
