<?xml version="1.0" encoding="UTF-8" standalone="no"?>
<!DOCTYPE svg PUBLIC "-//W3C//DTD SVG 1.1//EN"
 "http://www.w3.org/Graphics/SVG/1.1/DTD/svg11.dtd">
<!-- Generated by graphviz version 2.43.0 (0)
 -->
<!-- Title: /home/hirth/git/SIM&#45;VICUS.master2/externals/Vicus/src/VICUS_Material.h Pages: 1 -->
<svg width="1006pt" height="159pt"
 viewBox="0.00 0.00 1005.50 159.00" xmlns="http://www.w3.org/2000/svg" xmlns:xlink="http://www.w3.org/1999/xlink">
<g id="graph0" class="graph" transform="scale(1 1) rotate(0) translate(4 155)">
<title>/home/hirth/git/SIM&#45;VICUS.master2/externals/Vicus/src/VICUS_Material.h</title>
<!-- Node1 -->
<g id="Node000001" class="node">
<title>Node1</title>
<g id="a_Node000001"><a xlink:title=" ">
<polygon fill="#999999" stroke="#666666" points="492,-151 349,-151 349,-110 492,-110 492,-151"/>
<text text-anchor="start" x="357" y="-139" font-family="Helvetica,sans-Serif" font-size="10.00">/home/hirth/git/SIM</text>
<text text-anchor="start" x="357" y="-128" font-family="Helvetica,sans-Serif" font-size="10.00">&#45;VICUS.master2/externals</text>
<text text-anchor="middle" x="420.5" y="-117" font-family="Helvetica,sans-Serif" font-size="10.00">/Vicus/src/VICUS_Material.h</text>
</a>
</g>
</g>
<!-- Node2 -->
<g id="Node000002" class="node">
<title>Node2</title>
<g id="a_Node000002"><a xlink:href="_v_i_c_u_s___code_gen_macros_8h.html" target="_top" xlink:title=" ">
<polygon fill="white" stroke="#666666" points="135,-74 0,-74 0,-55 135,-55 135,-74"/>
<text text-anchor="middle" x="67.5" y="-62" font-family="Helvetica,sans-Serif" font-size="10.00">VICUS_CodeGenMacros.h</text>
</a>
</g>
</g>
<!-- Node1&#45;&gt;Node2 -->
<g id="edge1_Node000001_Node000002" class="edge">
<title>Node1&#45;&gt;Node2</title>
<g id="a_edge1_Node000001_Node000002"><a xlink:title=" ">
<path fill="none" stroke="#63b8ff" d="M348.64,-116.47C282.38,-104.46 185.32,-86.86 124.32,-75.8"/>
<polygon fill="#63b8ff" stroke="#63b8ff" points="124.94,-72.36 114.48,-74.02 123.7,-79.25 124.94,-72.36"/>
</a>
</g>
</g>
<!-- Node3 -->
<g id="Node000003" class="node">
<title>Node3</title>
<g id="a_Node000003"><a xlink:href="_v_i_c_u_s___constants_8h.html" target="_top" xlink:title="Contains global constants for the SIM&#45;VICUS data model.">
<polygon fill="white" stroke="#666666" points="180,-19 73,-19 73,0 180,0 180,-19"/>
<text text-anchor="middle" x="126.5" y="-7" font-family="Helvetica,sans-Serif" font-size="10.00">VICUS_Constants.h</text>
</a>
</g>
</g>
<!-- Node1&#45;&gt;Node3 -->
<g id="edge2_Node000001_Node000003" class="edge">
<title>Node1&#45;&gt;Node3</title>
<g id="a_edge2_Node000001_Node000003"><a xlink:title=" ">
<path fill="none" stroke="#63b8ff" d="M348.79,-124.31C299.18,-118.06 233.22,-104.3 182.5,-74 163.25,-62.5 147.05,-42.15 137.11,-27.59"/>
<polygon fill="#63b8ff" stroke="#63b8ff" points="139.9,-25.46 131.51,-19 134.04,-29.29 139.9,-25.46"/>
</a>
</g>
</g>
<!-- Node4 -->
<g id="Node000004" class="node">
<title>Node4</title>
<g id="a_Node000004"><a xlink:href="_v_i_c_u_s___abstract_d_b_element_8h.html" target="_top" xlink:title=" ">
<polygon fill="white" stroke="#666666" points="340,-74 191,-74 191,-55 340,-55 340,-74"/>
<text text-anchor="middle" x="265.5" y="-62" font-family="Helvetica,sans-Serif" font-size="10.00">VICUS_AbstractDBElement.h</text>
</a>
</g>
</g>
<!-- Node1&#45;&gt;Node4 -->
<g id="edge3_Node000001_Node000004" class="edge">
<title>Node1&#45;&gt;Node4</title>
<g id="a_edge3_Node000001_Node000004"><a xlink:title=" ">
<path fill="none" stroke="#63b8ff" d="M373.15,-109.95C347.98,-99.56 317.79,-87.09 295.79,-78.01"/>
<polygon fill="#63b8ff" stroke="#63b8ff" points="296.89,-74.67 286.31,-74.09 294.22,-81.14 296.89,-74.67"/>
</a>
</g>
</g>
<!-- Node6 -->
<g id="Node000006" class="node">
<title>Node6</title>
<g id="a_Node000006"><a xlink:title=" ">
<polygon fill="#e0e0e0" stroke="#999999" points="398,-19 351,-19 351,0 398,0 398,-19"/>
<text text-anchor="middle" x="374.5" y="-7" font-family="Helvetica,sans-Serif" font-size="10.00">QColor</text>
</a>
</g>
</g>
<!-- Node1&#45;&gt;Node6 -->
<g id="edge8_Node000001_Node000006" class="edge">
<title>Node1&#45;&gt;Node6</title>
<g id="a_edge8_Node000001_Node000006"><a xlink:title=" ">
<path fill="none" stroke="#63b8ff" d="M406.04,-109.86C399.16,-99.64 391.38,-86.65 386.5,-74 380.94,-59.59 377.89,-42.31 376.26,-29.42"/>
<polygon fill="#63b8ff" stroke="#63b8ff" points="379.73,-28.96 375.16,-19.4 372.77,-29.73 379.73,-28.96"/>
</a>
</g>
</g>
<!-- Node7 -->
<g id="Node000007" class="node">
<title>Node7</title>
<g id="a_Node000007"><a xlink:title=" ">
<polygon fill="#e0e0e0" stroke="#999999" points="445.5,-74 395.5,-74 395.5,-55 445.5,-55 445.5,-74"/>
<text text-anchor="middle" x="420.5" y="-62" font-family="Helvetica,sans-Serif" font-size="10.00">QString</text>
</a>
</g>
</g>
<!-- Node1&#45;&gt;Node7 -->
<g id="edge7_Node000001_Node000007" class="edge">
<title>Node1&#45;&gt;Node7</title>
<g id="a_edge7_Node000001_Node000007"><a xlink:title=" ">
<path fill="none" stroke="#63b8ff" d="M420.5,-109.95C420.5,-101.85 420.5,-92.5 420.5,-84.47"/>
<polygon fill="#63b8ff" stroke="#63b8ff" points="424,-84.26 420.5,-74.26 417,-84.26 424,-84.26"/>
</a>
</g>
</g>
<!-- Node8 -->
<g id="Node000008" class="node">
<title>Node8</title>
<g id="a_Node000008"><a xlink:title=" ">
<polygon fill="#e0e0e0" stroke="#999999" points="557,-74 464,-74 464,-55 557,-55 557,-74"/>
<text text-anchor="middle" x="510.5" y="-62" font-family="Helvetica,sans-Serif" font-size="10.00">QCoreApplication</text>
</a>
</g>
</g>
<!-- Node1&#45;&gt;Node8 -->
<g id="edge9_Node000001_Node000008" class="edge">
<title>Node1&#45;&gt;Node8</title>
<g id="a_edge9_Node000001_Node000008"><a xlink:title=" ">
<path fill="none" stroke="#63b8ff" d="M447.99,-109.95C461.47,-100.37 477.43,-89.02 489.85,-80.19"/>
<polygon fill="#63b8ff" stroke="#63b8ff" points="492.06,-82.91 498.18,-74.26 488,-77.2 492.06,-82.91"/>
</a>
</g>
</g>
<!-- Node9 -->
<g id="Node000009" class="node">
<title>Node9</title>
<g id="a_Node000009"><a xlink:title=" ">
<polygon fill="#e0e0e0" stroke="#999999" points="666,-74 575,-74 575,-55 666,-55 666,-74"/>
<text text-anchor="middle" x="620.5" y="-62" font-family="Helvetica,sans-Serif" font-size="10.00">IBK_Parameter.h</text>
</a>
</g>
</g>
<!-- Node1&#45;&gt;Node9 -->
<g id="edge10_Node000001_Node000009" class="edge">
<title>Node1&#45;&gt;Node9</title>
<g id="a_edge10_Node000001_Node000009"><a xlink:title=" ">
<path fill="none" stroke="#63b8ff" d="M481.59,-109.95C515.2,-99.2 555.74,-86.22 584.33,-77.07"/>
<polygon fill="#63b8ff" stroke="#63b8ff" points="585.45,-80.39 593.91,-74.01 583.32,-73.72 585.45,-80.39"/>
</a>
</g>
</g>
<!-- Node10 -->
<g id="Node000010" class="node">
<title>Node10</title>
<g id="a_Node000010"><a xlink:title=" ">
<polygon fill="#e0e0e0" stroke="#999999" points="863,-74 684,-74 684,-55 863,-55 863,-74"/>
<text text-anchor="middle" x="773.5" y="-62" font-family="Helvetica,sans-Serif" font-size="10.00">NANDRAD_LinearSplineParameter.h</text>
</a>
</g>
</g>
<!-- Node1&#45;&gt;Node10 -->
<g id="edge11_Node000001_Node000010" class="edge">
<title>Node1&#45;&gt;Node10</title>
<g id="a_edge11_Node000001_Node000010"><a xlink:title=" ">
<path fill="none" stroke="#63b8ff" d="M492.36,-116.47C558.62,-104.46 655.68,-86.86 716.68,-75.8"/>
<polygon fill="#63b8ff" stroke="#63b8ff" points="717.3,-79.25 726.52,-74.02 716.06,-72.36 717.3,-79.25"/>
</a>
</g>
</g>
<!-- Node11 -->
<g id="Node000011" class="node">
<title>Node11</title>
<g id="a_Node000011"><a xlink:title=" ">
<polygon fill="#e0e0e0" stroke="#999999" points="997.5,-74 881.5,-74 881.5,-55 997.5,-55 997.5,-74"/>
<text text-anchor="middle" x="939.5" y="-62" font-family="Helvetica,sans-Serif" font-size="10.00">NANDRAD_Material.h</text>
</a>
</g>
</g>
<!-- Node1&#45;&gt;Node11 -->
<g id="edge12_Node000001_Node000011" class="edge">
<title>Node1&#45;&gt;Node11</title>
<g id="a_edge12_Node000001_Node000011"><a xlink:title=" ">
<path fill="none" stroke="#63b8ff" d="M492.14,-120.79C579.19,-110.19 730.83,-91.66 871.3,-74.15"/>
<polygon fill="#63b8ff" stroke="#63b8ff" points="871.91,-77.6 881.4,-72.89 871.04,-70.65 871.91,-77.6"/>
</a>
</g>
</g>
<!-- Node4&#45;&gt;Node3 -->
<g id="edge6_Node000004_Node000003" class="edge">
<title>Node4&#45;&gt;Node3</title>
<g id="a_edge6_Node000004_Node000003"><a xlink:title=" ">
<path fill="none" stroke="#63b8ff" d="M243.17,-54.98C220.3,-46.27 184.54,-32.63 158.64,-22.75"/>
<polygon fill="#63b8ff" stroke="#63b8ff" points="159.83,-19.46 149.24,-19.17 157.34,-26 159.83,-19.46"/>
</a>
</g>
</g>
<!-- Node5 -->
<g id="Node000005" class="node">
<title>Node5</title>
<g id="a_Node000005"><a xlink:title=" ">
<polygon fill="#e0e0e0" stroke="#999999" points="333,-19 198,-19 198,0 333,0 333,-19"/>
<text text-anchor="middle" x="265.5" y="-7" font-family="Helvetica,sans-Serif" font-size="10.00">IBK_MultiLanguageString.h</text>
</a>
</g>
</g>
<!-- Node4&#45;&gt;Node5 -->
<g id="edge4_Node000004_Node000005" class="edge">
<title>Node4&#45;&gt;Node5</title>
<g id="a_edge4_Node000004_Node000005"><a xlink:title=" ">
<path fill="none" stroke="#63b8ff" d="M265.5,-54.75C265.5,-47.8 265.5,-37.85 265.5,-29.13"/>
<polygon fill="#63b8ff" stroke="#63b8ff" points="269,-29.09 265.5,-19.09 262,-29.09 269,-29.09"/>
</a>
</g>
</g>
<!-- Node4&#45;&gt;Node6 -->
<g id="edge5_Node000004_Node000006" class="edge">
<title>Node4&#45;&gt;Node6</title>
<g id="a_edge5_Node000004_Node000006"><a xlink:title=" ">
<path fill="none" stroke="#63b8ff" d="M283.01,-54.98C300.47,-46.5 327.51,-33.35 347.67,-23.54"/>
<polygon fill="#63b8ff" stroke="#63b8ff" points="349.21,-26.69 356.67,-19.17 346.14,-20.4 349.21,-26.69"/>
</a>
</g>
</g>
</g>
</svg>
