<?xml version="1.0" encoding="UTF-8" standalone="no"?>
<!DOCTYPE svg PUBLIC "-//W3C//DTD SVG 1.1//EN"
 "http://www.w3.org/Graphics/SVG/1.1/DTD/svg11.dtd">
<!-- Generated by graphviz version 2.43.0 (0)
 -->
<!-- Title: /home/hirth/git/SIM&#45;VICUS.master2/externals/Vicus/src/VICUS_BTFReader.cpp Pages: 1 -->
<svg width="1534pt" height="159pt"
 viewBox="0.00 0.00 1534.00 159.00" xmlns="http://www.w3.org/2000/svg" xmlns:xlink="http://www.w3.org/1999/xlink">
<g id="graph0" class="graph" transform="scale(1 1) rotate(0) translate(4 155)">
<title>/home/hirth/git/SIM&#45;VICUS.master2/externals/Vicus/src/VICUS_BTFReader.cpp</title>
<!-- Node1 -->
<g id="Node000001" class="node">
<title>Node1</title>
<g id="a_Node000001"><a xlink:title=" ">
<polygon fill="#999999" stroke="#666666" points="785,-151 616,-151 616,-110 785,-110 785,-151"/>
<text text-anchor="start" x="624" y="-139" font-family="Helvetica,sans-Serif" font-size="10.00">/home/hirth/git/SIM</text>
<text text-anchor="start" x="624" y="-128" font-family="Helvetica,sans-Serif" font-size="10.00">&#45;VICUS.master2/externals</text>
<text text-anchor="middle" x="700.5" y="-117" font-family="Helvetica,sans-Serif" font-size="10.00">/Vicus/src/VICUS_BTFReader.cpp</text>
</a>
</g>
</g>
<!-- Node2 -->
<g id="Node000002" class="node">
<title>Node2</title>
<g id="a_Node000002"><a xlink:href="_v_i_c_u_s___b_t_f_reader_8h.html" target="_top" xlink:title=" ">
<polygon fill="white" stroke="#666666" points="260,-74 149,-74 149,-55 260,-55 260,-74"/>
<text text-anchor="middle" x="204.5" y="-62" font-family="Helvetica,sans-Serif" font-size="10.00">VICUS_BTFReader.h</text>
</a>
</g>
</g>
<!-- Node1&#45;&gt;Node2 -->
<g id="edge1_Node000001_Node000002" class="edge">
<title>Node1&#45;&gt;Node2</title>
<g id="a_edge1_Node000001_Node000002"><a xlink:title=" ">
<path fill="none" stroke="#63b8ff" d="M615.8,-118.57C518.02,-105.95 359.28,-85.47 270.31,-73.99"/>
<polygon fill="#63b8ff" stroke="#63b8ff" points="270.71,-70.51 260.35,-72.71 269.82,-77.46 270.71,-70.51"/>
</a>
</g>
</g>
<!-- Node3 -->
<g id="Node000003" class="node">
<title>Node3</title>
<g id="a_Node000003"><a xlink:title=" ">
<polygon fill="#e0e0e0" stroke="#999999" points="35,-19 0,-19 0,0 35,0 35,-19"/>
<text text-anchor="middle" x="17.5" y="-7" font-family="Helvetica,sans-Serif" font-size="10.00">map</text>
</a>
</g>
</g>
<!-- Node1&#45;&gt;Node3 -->
<g id="edge11_Node000001_Node000003" class="edge">
<title>Node1&#45;&gt;Node3</title>
<g id="a_edge11_Node000001_Node000003"><a xlink:title=" ">
<path fill="none" stroke="#63b8ff" d="M615.82,-127.35C473.54,-122.8 193.09,-109.51 101.5,-74 74.5,-63.53 48.76,-41.71 33.05,-26.59"/>
<polygon fill="#63b8ff" stroke="#63b8ff" points="35.36,-23.95 25.8,-19.39 30.43,-28.92 35.36,-23.95"/>
</a>
</g>
</g>
<!-- Node4 -->
<g id="Node000004" class="node">
<title>Node4</title>
<g id="a_Node000004"><a xlink:title=" ">
<polygon fill="#e0e0e0" stroke="#999999" points="97.5,-19 53.5,-19 53.5,0 97.5,0 97.5,-19"/>
<text text-anchor="middle" x="75.5" y="-7" font-family="Helvetica,sans-Serif" font-size="10.00">vector</text>
</a>
</g>
</g>
<!-- Node1&#45;&gt;Node4 -->
<g id="edge8_Node000001_Node000004" class="edge">
<title>Node1&#45;&gt;Node4</title>
<g id="a_edge8_Node000001_Node000004"><a xlink:title=" ">
<path fill="none" stroke="#63b8ff" d="M615.75,-129.17C477.32,-127.34 209.87,-118 127.5,-74 108.32,-63.76 93.53,-43.17 84.71,-28.2"/>
<polygon fill="#63b8ff" stroke="#63b8ff" points="87.71,-26.39 79.79,-19.35 81.59,-29.79 87.71,-26.39"/>
</a>
</g>
</g>
<!-- Node5 -->
<g id="Node000005" class="node">
<title>Node5</title>
<g id="a_Node000005"><a xlink:title=" ">
<polygon fill="#e0e0e0" stroke="#999999" points="155.5,-19 115.5,-19 115.5,0 155.5,0 155.5,-19"/>
<text text-anchor="middle" x="135.5" y="-7" font-family="Helvetica,sans-Serif" font-size="10.00">utility</text>
</a>
</g>
</g>
<!-- Node1&#45;&gt;Node5 -->
<g id="edge12_Node000001_Node000005" class="edge">
<title>Node1&#45;&gt;Node5</title>
<g id="a_edge12_Node000001_Node000005"><a xlink:title=" ">
<path fill="none" stroke="#63b8ff" d="M615.97,-127C467.65,-121.76 173.09,-107.25 140.5,-74 129.26,-62.53 129.16,-43.65 131.18,-29.45"/>
<polygon fill="#63b8ff" stroke="#63b8ff" points="134.68,-29.77 133.08,-19.29 127.8,-28.48 134.68,-29.77"/>
</a>
</g>
</g>
<!-- Node6 -->
<g id="Node000006" class="node">
<title>Node6</title>
<g id="a_Node000006"><a xlink:title=" ">
<polygon fill="#e0e0e0" stroke="#999999" points="435.5,-19 343.5,-19 343.5,0 435.5,0 435.5,-19"/>
<text text-anchor="middle" x="389.5" y="-7" font-family="Helvetica,sans-Serif" font-size="10.00">IBK_UnitVector.h</text>
</a>
</g>
</g>
<!-- Node1&#45;&gt;Node6 -->
<g id="edge13_Node000001_Node000006" class="edge">
<title>Node1&#45;&gt;Node6</title>
<g id="a_edge13_Node000001_Node000006"><a xlink:title=" ">
<path fill="none" stroke="#63b8ff" d="M615.68,-129.97C512.32,-128.52 346.59,-119 307.5,-74 289.23,-52.96 323.01,-34.16 352.59,-22.57"/>
<polygon fill="#63b8ff" stroke="#63b8ff" points="353.83,-25.84 361.98,-19.07 351.38,-19.29 353.83,-25.84"/>
</a>
</g>
</g>
<!-- Node9 -->
<g id="Node000009" class="node">
<title>Node9</title>
<g id="a_Node000009"><a xlink:title=" ">
<polygon fill="#e0e0e0" stroke="#999999" points="366.5,-74 316.5,-74 316.5,-55 366.5,-55 366.5,-74"/>
<text text-anchor="middle" x="341.5" y="-62" font-family="Helvetica,sans-Serif" font-size="10.00">fstream</text>
</a>
</g>
</g>
<!-- Node1&#45;&gt;Node9 -->
<g id="edge9_Node000001_Node000009" class="edge">
<title>Node1&#45;&gt;Node9</title>
<g id="a_edge9_Node000001_Node000009"><a xlink:title=" ">
<path fill="none" stroke="#63b8ff" d="M615.99,-116.87C552.64,-106.98 463.63,-92.21 376.74,-74.13"/>
<polygon fill="#63b8ff" stroke="#63b8ff" points="377.21,-70.65 366.7,-72.03 375.77,-77.5 377.21,-70.65"/>
</a>
</g>
</g>
<!-- Node10 -->
<g id="Node000010" class="node">
<title>Node10</title>
<g id="a_Node000010"><a xlink:title=" ">
<polygon fill="#e0e0e0" stroke="#999999" points="436.5,-74 384.5,-74 384.5,-55 436.5,-55 436.5,-74"/>
<text text-anchor="middle" x="410.5" y="-62" font-family="Helvetica,sans-Serif" font-size="10.00">sstream</text>
</a>
</g>
</g>
<!-- Node1&#45;&gt;Node10 -->
<g id="edge10_Node000001_Node000010" class="edge">
<title>Node1&#45;&gt;Node10</title>
<g id="a_edge10_Node000001_Node000010"><a xlink:title=" ">
<path fill="none" stroke="#63b8ff" d="M615.97,-111.63C568.79,-101.53 508.7,-88.47 446.81,-74.26"/>
<polygon fill="#63b8ff" stroke="#63b8ff" points="447.39,-70.8 436.86,-71.97 445.82,-77.63 447.39,-70.8"/>
</a>
</g>
</g>
<!-- Node11 -->
<g id="Node000011" class="node">
<title>Node11</title>
<g id="a_Node000011"><a xlink:title=" ">
<polygon fill="#e0e0e0" stroke="#999999" points="544.5,-74 454.5,-74 454.5,-55 544.5,-55 544.5,-74"/>
<text text-anchor="middle" x="499.5" y="-62" font-family="Helvetica,sans-Serif" font-size="10.00">IBK_Exception.h</text>
</a>
</g>
</g>
<!-- Node1&#45;&gt;Node11 -->
<g id="edge14_Node000001_Node000011" class="edge">
<title>Node1&#45;&gt;Node11</title>
<g id="a_edge14_Node000001_Node000011"><a xlink:title=" ">
<path fill="none" stroke="#63b8ff" d="M639.1,-109.95C605.33,-99.2 564.58,-86.22 535.85,-77.07"/>
<polygon fill="#63b8ff" stroke="#63b8ff" points="536.81,-73.71 526.22,-74.01 534.69,-80.38 536.81,-73.71"/>
</a>
</g>
</g>
<!-- Node12 -->
<g id="Node000012" class="node">
<title>Node12</title>
<g id="a_Node000012"><a xlink:title=" ">
<polygon fill="#e0e0e0" stroke="#999999" points="636.5,-74 562.5,-74 562.5,-55 636.5,-55 636.5,-74"/>
<text text-anchor="middle" x="599.5" y="-62" font-family="Helvetica,sans-Serif" font-size="10.00">IBK_assert.h</text>
</a>
</g>
</g>
<!-- Node1&#45;&gt;Node12 -->
<g id="edge15_Node000001_Node000012" class="edge">
<title>Node1&#45;&gt;Node12</title>
<g id="a_edge15_Node000001_Node000012"><a xlink:title=" ">
<path fill="none" stroke="#63b8ff" d="M669.65,-109.95C654.13,-100.12 635.69,-88.43 621.61,-79.51"/>
<polygon fill="#63b8ff" stroke="#63b8ff" points="623.38,-76.49 613.06,-74.09 619.63,-82.4 623.38,-76.49"/>
</a>
</g>
</g>
<!-- Node13 -->
<g id="Node000013" class="node">
<title>Node13</title>
<g id="a_Node000013"><a xlink:title=" ">
<polygon fill="#e0e0e0" stroke="#999999" points="746.5,-74 654.5,-74 654.5,-55 746.5,-55 746.5,-74"/>
<text text-anchor="middle" x="700.5" y="-62" font-family="Helvetica,sans-Serif" font-size="10.00">IBK_messages.h</text>
</a>
</g>
</g>
<!-- Node1&#45;&gt;Node13 -->
<g id="edge16_Node000001_Node000013" class="edge">
<title>Node1&#45;&gt;Node13</title>
<g id="a_edge16_Node000001_Node000013"><a xlink:title=" ">
<path fill="none" stroke="#63b8ff" d="M700.5,-109.95C700.5,-101.85 700.5,-92.5 700.5,-84.47"/>
<polygon fill="#63b8ff" stroke="#63b8ff" points="704,-84.26 700.5,-74.26 697,-84.26 704,-84.26"/>
</a>
</g>
</g>
<!-- Node14 -->
<g id="Node000014" class="node">
<title>Node14</title>
<g id="a_Node000014"><a xlink:title=" ">
<polygon fill="#e0e0e0" stroke="#999999" points="862.5,-74 764.5,-74 764.5,-55 862.5,-55 862.5,-74"/>
<text text-anchor="middle" x="813.5" y="-62" font-family="Helvetica,sans-Serif" font-size="10.00">IBK_InputOutput.h</text>
</a>
</g>
</g>
<!-- Node1&#45;&gt;Node14 -->
<g id="edge17_Node000001_Node000014" class="edge">
<title>Node1&#45;&gt;Node14</title>
<g id="a_edge17_Node000001_Node000014"><a xlink:title=" ">
<path fill="none" stroke="#63b8ff" d="M735.02,-109.95C752.54,-100.03 773.4,-88.21 789.21,-79.25"/>
<polygon fill="#63b8ff" stroke="#63b8ff" points="791.35,-82.07 798.33,-74.09 787.9,-75.97 791.35,-82.07"/>
</a>
</g>
</g>
<!-- Node15 -->
<g id="Node000015" class="node">
<title>Node15</title>
<g id="a_Node000015"><a xlink:title=" ">
<polygon fill="#e0e0e0" stroke="#999999" points="924,-74 881,-74 881,-55 924,-55 924,-74"/>
<text text-anchor="middle" x="902.5" y="-62" font-family="Helvetica,sans-Serif" font-size="10.00">QMap</text>
</a>
</g>
</g>
<!-- Node1&#45;&gt;Node15 -->
<g id="edge18_Node000001_Node000015" class="edge">
<title>Node1&#45;&gt;Node15</title>
<g id="a_edge18_Node000001_Node000015"><a xlink:title=" ">
<path fill="none" stroke="#63b8ff" d="M762.2,-109.95C798.32,-98.51 842.38,-84.55 871.38,-75.36"/>
<polygon fill="#63b8ff" stroke="#63b8ff" points="872.49,-78.68 880.97,-72.32 870.38,-72.01 872.49,-78.68"/>
</a>
</g>
</g>
<!-- Node16 -->
<g id="Node000016" class="node">
<title>Node16</title>
<g id="a_Node000016"><a xlink:title=" ">
<polygon fill="#e0e0e0" stroke="#999999" points="982.5,-74 942.5,-74 942.5,-55 982.5,-55 982.5,-74"/>
<text text-anchor="middle" x="962.5" y="-62" font-family="Helvetica,sans-Serif" font-size="10.00">QFile</text>
</a>
</g>
</g>
<!-- Node1&#45;&gt;Node16 -->
<g id="edge19_Node000001_Node000016" class="edge">
<title>Node1&#45;&gt;Node16</title>
<g id="a_edge19_Node000001_Node000016"><a xlink:title=" ">
<path fill="none" stroke="#63b8ff" d="M785.16,-110.44C826.97,-100.76 878.36,-88.47 932.48,-74.17"/>
<polygon fill="#63b8ff" stroke="#63b8ff" points="933.49,-77.53 942.26,-71.58 931.69,-70.76 933.49,-77.53"/>
</a>
</g>
</g>
<!-- Node17 -->
<g id="Node000017" class="node">
<title>Node17</title>
<g id="a_Node000017"><a xlink:title=" ">
<polygon fill="#e0e0e0" stroke="#999999" points="1056.5,-74 1000.5,-74 1000.5,-55 1056.5,-55 1056.5,-74"/>
<text text-anchor="middle" x="1028.5" y="-62" font-family="Helvetica,sans-Serif" font-size="10.00">QFileInfo</text>
</a>
</g>
</g>
<!-- Node1&#45;&gt;Node17 -->
<g id="edge20_Node000001_Node000017" class="edge">
<title>Node1&#45;&gt;Node17</title>
<g id="a_edge20_Node000001_Node000017"><a xlink:title=" ">
<path fill="none" stroke="#63b8ff" d="M785.03,-114.24C840.69,-103.99 915.42,-89.85 990.17,-74.22"/>
<polygon fill="#63b8ff" stroke="#63b8ff" points="991.17,-77.59 1000.24,-72.11 989.74,-70.74 991.17,-77.59"/>
</a>
</g>
</g>
<!-- Node18 -->
<g id="Node000018" class="node">
<title>Node18</title>
<g id="a_Node000018"><a xlink:title=" ">
<polygon fill="#e0e0e0" stroke="#999999" points="1124.5,-74 1074.5,-74 1074.5,-55 1124.5,-55 1124.5,-74"/>
<text text-anchor="middle" x="1099.5" y="-62" font-family="Helvetica,sans-Serif" font-size="10.00">QString</text>
</a>
</g>
</g>
<!-- Node1&#45;&gt;Node18 -->
<g id="edge21_Node000001_Node000018" class="edge">
<title>Node1&#45;&gt;Node18</title>
<g id="a_edge21_Node000001_Node000018"><a xlink:title=" ">
<path fill="none" stroke="#63b8ff" d="M785.34,-118.9C857.18,-109.4 963.04,-94.15 1064.22,-74.1"/>
<polygon fill="#63b8ff" stroke="#63b8ff" points="1065.19,-77.47 1074.31,-72.08 1063.82,-70.61 1065.19,-77.47"/>
</a>
</g>
</g>
<!-- Node19 -->
<g id="Node000019" class="node">
<title>Node19</title>
<g id="a_Node000019"><a xlink:title=" ">
<polygon fill="#e0e0e0" stroke="#999999" points="1182.5,-74 1142.5,-74 1142.5,-55 1182.5,-55 1182.5,-74"/>
<text text-anchor="middle" x="1162.5" y="-62" font-family="Helvetica,sans-Serif" font-size="10.00">QList</text>
</a>
</g>
</g>
<!-- Node1&#45;&gt;Node19 -->
<g id="edge22_Node000001_Node000019" class="edge">
<title>Node1&#45;&gt;Node19</title>
<g id="a_edge22_Node000001_Node000019"><a xlink:title=" ">
<path fill="none" stroke="#63b8ff" d="M785.38,-122.61C870.93,-114.75 1006.77,-99.82 1132.52,-73.9"/>
<polygon fill="#63b8ff" stroke="#63b8ff" points="1133.25,-77.33 1142.32,-71.86 1131.82,-70.47 1133.25,-77.33"/>
</a>
</g>
</g>
<!-- Node20 -->
<g id="Node000020" class="node">
<title>Node20</title>
<g id="a_Node000020"><a xlink:title=" ">
<polygon fill="#e0e0e0" stroke="#999999" points="1294,-74 1201,-74 1201,-55 1294,-55 1294,-74"/>
<text text-anchor="middle" x="1247.5" y="-62" font-family="Helvetica,sans-Serif" font-size="10.00">QCoreApplication</text>
</a>
</g>
</g>
<!-- Node1&#45;&gt;Node20 -->
<g id="edge23_Node000001_Node000020" class="edge">
<title>Node1&#45;&gt;Node20</title>
<g id="a_edge23_Node000001_Node000020"><a xlink:title=" ">
<path fill="none" stroke="#63b8ff" d="M785.33,-120.9C881.11,-110.97 1041.84,-93.63 1190.54,-74.08"/>
<polygon fill="#63b8ff" stroke="#63b8ff" points="1191.31,-77.51 1200.77,-72.73 1190.4,-70.57 1191.31,-77.51"/>
</a>
</g>
</g>
<!-- Node21 -->
<g id="Node000021" class="node">
<title>Node21</title>
<g id="a_Node000021"><a xlink:title=" ">
<polygon fill="#e0e0e0" stroke="#999999" points="1409,-74 1312,-74 1312,-55 1409,-55 1409,-74"/>
<text text-anchor="middle" x="1360.5" y="-62" font-family="Helvetica,sans-Serif" font-size="10.00">DATAIO_DataIO.h</text>
</a>
</g>
</g>
<!-- Node1&#45;&gt;Node21 -->
<g id="edge24_Node000001_Node000021" class="edge">
<title>Node1&#45;&gt;Node21</title>
<g id="a_edge24_Node000001_Node000021"><a xlink:title=" ">
<path fill="none" stroke="#63b8ff" d="M785.05,-123.23C899.78,-114.38 1111.41,-96.86 1301.52,-74.18"/>
<polygon fill="#63b8ff" stroke="#63b8ff" points="1302.2,-77.63 1311.71,-72.96 1301.36,-70.68 1302.2,-77.63"/>
</a>
</g>
</g>
<!-- Node22 -->
<g id="Node000022" class="node">
<title>Node22</title>
<g id="a_Node000022"><a xlink:title=" ">
<polygon fill="#e0e0e0" stroke="#999999" points="1526,-74 1427,-74 1427,-55 1526,-55 1526,-74"/>
<text text-anchor="middle" x="1476.5" y="-62" font-family="Helvetica,sans-Serif" font-size="10.00">DATAIO_GeoFile.h</text>
</a>
</g>
</g>
<!-- Node1&#45;&gt;Node22 -->
<g id="edge25_Node000001_Node000022" class="edge">
<title>Node1&#45;&gt;Node22</title>
<g id="a_edge25_Node000001_Node000022"><a xlink:title=" ">
<path fill="none" stroke="#63b8ff" d="M785.23,-124.83C917.81,-117.11 1182.56,-100.02 1416.78,-74.12"/>
<polygon fill="#63b8ff" stroke="#63b8ff" points="1417.3,-77.59 1426.85,-73 1416.53,-70.63 1417.3,-77.59"/>
</a>
</g>
</g>
<!-- Node2&#45;&gt;Node3 -->
<g id="edge2_Node000002_Node000003" class="edge">
<title>Node2&#45;&gt;Node3</title>
<g id="a_edge2_Node000002_Node000003"><a xlink:title=" ">
<path fill="none" stroke="#63b8ff" d="M172.53,-54.95C142.13,-46.74 94.89,-33.8 44.89,-19.04"/>
<polygon fill="#63b8ff" stroke="#63b8ff" points="45.78,-15.65 35.19,-16.16 43.79,-22.36 45.78,-15.65"/>
</a>
</g>
</g>
<!-- Node2&#45;&gt;Node4 -->
<g id="edge3_Node000002_Node000004" class="edge">
<title>Node2&#45;&gt;Node4</title>
<g id="a_edge3_Node000002_Node000004"><a xlink:title=" ">
<path fill="none" stroke="#63b8ff" d="M183.77,-54.98C162.74,-46.34 129.95,-32.87 105.96,-23.02"/>
<polygon fill="#63b8ff" stroke="#63b8ff" points="107.18,-19.73 96.6,-19.17 104.52,-26.21 107.18,-19.73"/>
</a>
</g>
</g>
<!-- Node2&#45;&gt;Node5 -->
<g id="edge4_Node000002_Node000005" class="edge">
<title>Node2&#45;&gt;Node5</title>
<g id="a_edge4_Node000002_Node000005"><a xlink:title=" ">
<path fill="none" stroke="#63b8ff" d="M193.41,-54.98C183.01,-47 167.24,-34.88 154.78,-25.31"/>
<polygon fill="#63b8ff" stroke="#63b8ff" points="156.85,-22.49 146.79,-19.17 152.59,-28.04 156.85,-22.49"/>
</a>
</g>
</g>
<!-- Node2&#45;&gt;Node6 -->
<g id="edge5_Node000002_Node000006" class="edge">
<title>Node2&#45;&gt;Node6</title>
<g id="a_edge5_Node000002_Node000006"><a xlink:title=" ">
<path fill="none" stroke="#63b8ff" d="M234.22,-54.98C265.55,-46.01 315.07,-31.82 349.74,-21.89"/>
<polygon fill="#63b8ff" stroke="#63b8ff" points="350.89,-25.2 359.54,-19.08 348.97,-18.47 350.89,-25.2"/>
</a>
</g>
</g>
<!-- Node7 -->
<g id="Node000007" class="node">
<title>Node7</title>
<g id="a_Node000007"><a xlink:title=" ">
<polygon fill="#e0e0e0" stroke="#999999" points="241.5,-19 173.5,-19 173.5,0 241.5,0 241.5,-19"/>
<text text-anchor="middle" x="207.5" y="-7" font-family="Helvetica,sans-Serif" font-size="10.00">IBK_Time.h</text>
</a>
</g>
</g>
<!-- Node2&#45;&gt;Node7 -->
<g id="edge6_Node000002_Node000007" class="edge">
<title>Node2&#45;&gt;Node7</title>
<g id="a_edge6_Node000002_Node000007"><a xlink:title=" ">
<path fill="none" stroke="#63b8ff" d="M205,-54.75C205.39,-47.8 205.95,-37.85 206.45,-29.13"/>
<polygon fill="#63b8ff" stroke="#63b8ff" points="209.94,-29.27 207.01,-19.09 202.95,-28.88 209.94,-29.27"/>
</a>
</g>
</g>
<!-- Node8 -->
<g id="Node000008" class="node">
<title>Node8</title>
<g id="a_Node000008"><a xlink:title=" ">
<polygon fill="#e0e0e0" stroke="#999999" points="325,-19 260,-19 260,0 325,0 325,-19"/>
<text text-anchor="middle" x="292.5" y="-7" font-family="Helvetica,sans-Serif" font-size="10.00">QStringList</text>
</a>
</g>
</g>
<!-- Node2&#45;&gt;Node8 -->
<g id="edge7_Node000002_Node000008" class="edge">
<title>Node2&#45;&gt;Node8</title>
<g id="a_edge7_Node000002_Node000008"><a xlink:title=" ">
<path fill="none" stroke="#63b8ff" d="M218.64,-54.98C232.29,-46.77 253.19,-34.18 269.28,-24.49"/>
<polygon fill="#63b8ff" stroke="#63b8ff" points="271.34,-27.33 278.1,-19.17 267.73,-21.33 271.34,-27.33"/>
</a>
</g>
</g>
</g>
</svg>
