<?xml version="1.0" encoding="UTF-8" standalone="no"?>
<!DOCTYPE svg PUBLIC "-//W3C//DTD SVG 1.1//EN"
 "http://www.w3.org/Graphics/SVG/1.1/DTD/svg11.dtd">
<!-- Generated by graphviz version 2.43.0 (0)
 -->
<!-- Title: /home/hirth/git/SIM&#45;VICUS.master2/externals/Vicus/src/VICUS_Schedule.h Pages: 1 -->
<svg width="1039pt" height="214pt"
 viewBox="0.00 0.00 1038.50 214.00" xmlns="http://www.w3.org/2000/svg" xmlns:xlink="http://www.w3.org/1999/xlink">
<g id="graph0" class="graph" transform="scale(1 1) rotate(0) translate(4 210)">
<title>/home/hirth/git/SIM&#45;VICUS.master2/externals/Vicus/src/VICUS_Schedule.h</title>
<!-- Node1 -->
<g id="Node000001" class="node">
<title>Node1</title>
<g id="a_Node000001"><a xlink:title=" ">
<polygon fill="#999999" stroke="#666666" points="490.5,-206 341.5,-206 341.5,-165 490.5,-165 490.5,-206"/>
<text text-anchor="start" x="349.5" y="-194" font-family="Helvetica,sans-Serif" font-size="10.00">/home/hirth/git/SIM</text>
<text text-anchor="start" x="349.5" y="-183" font-family="Helvetica,sans-Serif" font-size="10.00">&#45;VICUS.master2/externals</text>
<text text-anchor="middle" x="416" y="-172" font-family="Helvetica,sans-Serif" font-size="10.00">/Vicus/src/VICUS_Schedule.h</text>
</a>
</g>
</g>
<!-- Node2 -->
<g id="Node000002" class="node">
<title>Node2</title>
<g id="a_Node000002"><a xlink:title=" ">
<polygon fill="#e0e0e0" stroke="#999999" points="100,-129 0,-129 0,-110 100,-110 100,-129"/>
<text text-anchor="middle" x="50" y="-117" font-family="Helvetica,sans-Serif" font-size="10.00">IBK_LinearSpline.h</text>
</a>
</g>
</g>
<!-- Node1&#45;&gt;Node2 -->
<g id="edge1_Node000001_Node000002" class="edge">
<title>Node1&#45;&gt;Node2</title>
<g id="a_edge1_Node000001_Node000002"><a xlink:title=" ">
<path fill="none" stroke="#63b8ff" d="M341.49,-171.47C272.79,-159.46 172.16,-141.86 108.91,-130.8"/>
<polygon fill="#63b8ff" stroke="#63b8ff" points="109.16,-127.29 98.71,-129.02 107.96,-134.19 109.16,-127.29"/>
</a>
</g>
</g>
<!-- Node3 -->
<g id="Node000003" class="node">
<title>Node3</title>
<g id="a_Node000003"><a xlink:title=" ">
<polygon fill="#e0e0e0" stroke="#999999" points="183.5,-129 118.5,-129 118.5,-110 183.5,-110 183.5,-129"/>
<text text-anchor="middle" x="151" y="-117" font-family="Helvetica,sans-Serif" font-size="10.00">IBK_Flag.h</text>
</a>
</g>
</g>
<!-- Node1&#45;&gt;Node3 -->
<g id="edge2_Node000001_Node000003" class="edge">
<title>Node1&#45;&gt;Node3</title>
<g id="a_edge2_Node000001_Node000003"><a xlink:title=" ">
<path fill="none" stroke="#63b8ff" d="M341.48,-166.5C293.74,-154.97 233.49,-140.42 193.68,-130.81"/>
<polygon fill="#63b8ff" stroke="#63b8ff" points="194.31,-127.36 183.77,-128.41 192.67,-134.16 194.31,-127.36"/>
</a>
</g>
</g>
<!-- Node4 -->
<g id="Node000004" class="node">
<title>Node4</title>
<g id="a_Node000004"><a xlink:title=" ">
<polygon fill="#e0e0e0" stroke="#999999" points="292.5,-129 201.5,-129 201.5,-110 292.5,-110 292.5,-129"/>
<text text-anchor="middle" x="247" y="-117" font-family="Helvetica,sans-Serif" font-size="10.00">IBK_Parameter.h</text>
</a>
</g>
</g>
<!-- Node1&#45;&gt;Node4 -->
<g id="edge3_Node000001_Node000004" class="edge">
<title>Node1&#45;&gt;Node4</title>
<g id="a_edge3_Node000001_Node000004"><a xlink:title=" ">
<path fill="none" stroke="#63b8ff" d="M364.38,-164.95C336.56,-154.42 303.12,-141.75 279.06,-132.64"/>
<polygon fill="#63b8ff" stroke="#63b8ff" points="280.28,-129.36 269.69,-129.09 277.8,-135.91 280.28,-129.36"/>
</a>
</g>
</g>
<!-- Node5 -->
<g id="Node000005" class="node">
<title>Node5</title>
<g id="a_Node000005"><a xlink:title=" ">
<polygon fill="#e0e0e0" stroke="#999999" points="433,-129 311,-129 311,-110 433,-110 433,-129"/>
<text text-anchor="middle" x="372" y="-117" font-family="Helvetica,sans-Serif" font-size="10.00">NANDRAD_Schedule.h</text>
</a>
</g>
</g>
<!-- Node1&#45;&gt;Node5 -->
<g id="edge4_Node000001_Node000005" class="edge">
<title>Node1&#45;&gt;Node5</title>
<g id="a_edge4_Node000001_Node000005"><a xlink:title=" ">
<path fill="none" stroke="#63b8ff" d="M402.56,-164.95C396.55,-156.2 389.52,-145.99 383.73,-137.56"/>
<polygon fill="#63b8ff" stroke="#63b8ff" points="386.57,-135.52 378.02,-129.26 380.8,-139.48 386.57,-135.52"/>
</a>
</g>
</g>
<!-- Node6 -->
<g id="Node000006" class="node">
<title>Node6</title>
<g id="a_Node000006"><a xlink:href="_v_i_c_u_s___code_gen_macros_8h.html" target="_top" xlink:title=" ">
<polygon fill="white" stroke="#666666" points="547.5,-19 412.5,-19 412.5,0 547.5,0 547.5,-19"/>
<text text-anchor="middle" x="480" y="-7" font-family="Helvetica,sans-Serif" font-size="10.00">VICUS_CodeGenMacros.h</text>
</a>
</g>
</g>
<!-- Node1&#45;&gt;Node6 -->
<g id="edge5_Node000001_Node000006" class="edge">
<title>Node1&#45;&gt;Node6</title>
<g id="a_edge5_Node000001_Node000006"><a xlink:title=" ">
<path fill="none" stroke="#63b8ff" d="M425.89,-164.99C431.03,-154.47 437.22,-141.18 442,-129 455.64,-94.28 468.16,-52.49 474.88,-28.96"/>
<polygon fill="#63b8ff" stroke="#63b8ff" points="478.27,-29.83 477.61,-19.26 471.53,-27.93 478.27,-29.83"/>
</a>
</g>
</g>
<!-- Node7 -->
<g id="Node000007" class="node">
<title>Node7</title>
<g id="a_Node000007"><a xlink:href="_v_i_c_u_s___constants_8h.html" target="_top" xlink:title="Contains global constants for the SIM&#45;VICUS data model.">
<polygon fill="white" stroke="#666666" points="910.5,-19 803.5,-19 803.5,0 910.5,0 910.5,-19"/>
<text text-anchor="middle" x="857" y="-7" font-family="Helvetica,sans-Serif" font-size="10.00">VICUS_Constants.h</text>
</a>
</g>
</g>
<!-- Node1&#45;&gt;Node7 -->
<g id="edge6_Node000001_Node000007" class="edge">
<title>Node1&#45;&gt;Node7</title>
<g id="a_edge6_Node000001_Node000007"><a xlink:title=" ">
<path fill="none" stroke="#63b8ff" d="M490.77,-173.9C598.23,-157.21 788.82,-121.74 838,-74 849.99,-62.36 854.49,-43.5 856.14,-29.35"/>
<polygon fill="#63b8ff" stroke="#63b8ff" points="859.64,-29.49 856.94,-19.24 852.66,-28.94 859.64,-29.49"/>
</a>
</g>
</g>
<!-- Node8 -->
<g id="Node000008" class="node">
<title>Node8</title>
<g id="a_Node000008"><a xlink:href="_v_i_c_u_s___schedule_interval_8h.html" target="_top" xlink:title=" ">
<polygon fill="white" stroke="#666666" points="623,-129 489,-129 489,-110 623,-110 623,-129"/>
<text text-anchor="middle" x="556" y="-117" font-family="Helvetica,sans-Serif" font-size="10.00">VICUS_ScheduleInterval.h</text>
</a>
</g>
</g>
<!-- Node1&#45;&gt;Node8 -->
<g id="edge7_Node000001_Node000008" class="edge">
<title>Node1&#45;&gt;Node8</title>
<g id="a_edge7_Node000001_Node000008"><a xlink:title=" ">
<path fill="none" stroke="#63b8ff" d="M458.77,-164.95C481.29,-154.65 508.28,-142.31 528.1,-133.25"/>
<polygon fill="#63b8ff" stroke="#63b8ff" points="529.57,-136.43 537.21,-129.09 526.66,-130.07 529.57,-136.43"/>
</a>
</g>
</g>
<!-- Node13 -->
<g id="Node000013" class="node">
<title>Node13</title>
<g id="a_Node000013"><a xlink:href="_v_i_c_u_s___abstract_d_b_element_8h.html" target="_top" xlink:title=" ">
<polygon fill="white" stroke="#666666" points="1030.5,-129 881.5,-129 881.5,-110 1030.5,-110 1030.5,-129"/>
<text text-anchor="middle" x="956" y="-117" font-family="Helvetica,sans-Serif" font-size="10.00">VICUS_AbstractDBElement.h</text>
</a>
</g>
</g>
<!-- Node1&#45;&gt;Node13 -->
<g id="edge16_Node000001_Node000013" class="edge">
<title>Node1&#45;&gt;Node13</title>
<g id="a_edge16_Node000001_Node000013"><a xlink:title=" ">
<path fill="none" stroke="#63b8ff" d="M490.52,-175.67C591.04,-163.75 769.48,-142.61 873.8,-130.24"/>
<polygon fill="#63b8ff" stroke="#63b8ff" points="874.45,-133.69 883.97,-129.04 873.63,-126.74 874.45,-133.69"/>
</a>
</g>
</g>
<!-- Node8&#45;&gt;Node6 -->
<g id="edge9_Node000008_Node000006" class="edge">
<title>Node8&#45;&gt;Node6</title>
<g id="a_edge9_Node000008_Node000006"><a xlink:title=" ">
<path fill="none" stroke="#63b8ff" d="M549.78,-109.66C537.14,-91.69 508.25,-50.64 491.88,-27.38"/>
<polygon fill="#63b8ff" stroke="#63b8ff" points="494.71,-25.32 486.09,-19.16 488.99,-29.35 494.71,-25.32"/>
</a>
</g>
</g>
<!-- Node9 -->
<g id="Node000009" class="node">
<title>Node9</title>
<g id="a_Node000009"><a xlink:title=" ">
<polygon fill="#e0e0e0" stroke="#999999" points="828.5,-74 693.5,-74 693.5,-55 828.5,-55 828.5,-74"/>
<text text-anchor="middle" x="761" y="-62" font-family="Helvetica,sans-Serif" font-size="10.00">IBK_MultiLanguageString.h</text>
</a>
</g>
</g>
<!-- Node8&#45;&gt;Node9 -->
<g id="edge8_Node000008_Node000009" class="edge">
<title>Node8&#45;&gt;Node9</title>
<g id="a_edge8_Node000008_Node000009"><a xlink:title=" ">
<path fill="none" stroke="#63b8ff" d="M588.94,-109.98C623.95,-100.93 679.47,-86.58 717.93,-76.64"/>
<polygon fill="#63b8ff" stroke="#63b8ff" points="719,-79.97 727.81,-74.08 717.25,-73.2 719,-79.97"/>
</a>
</g>
</g>
<!-- Node10 -->
<g id="Node000010" class="node">
<title>Node10</title>
<g id="a_Node000010"><a xlink:title=" ">
<polygon fill="#e0e0e0" stroke="#999999" points="610,-19 566,-19 566,0 610,0 610,-19"/>
<text text-anchor="middle" x="588" y="-7" font-family="Helvetica,sans-Serif" font-size="10.00">vector</text>
</a>
</g>
</g>
<!-- Node8&#45;&gt;Node10 -->
<g id="edge10_Node000008_Node000010" class="edge">
<title>Node8&#45;&gt;Node10</title>
<g id="a_edge10_Node000008_Node000010"><a xlink:title=" ">
<path fill="none" stroke="#63b8ff" d="M554.32,-109.61C552.33,-97.08 549.98,-73.68 556,-55 559.34,-44.62 566.1,-34.62 572.55,-26.74"/>
<polygon fill="#63b8ff" stroke="#63b8ff" points="575.29,-28.92 579.25,-19.1 570.03,-24.31 575.29,-28.92"/>
</a>
</g>
</g>
<!-- Node11 -->
<g id="Node000011" class="node">
<title>Node11</title>
<g id="a_Node000011"><a xlink:href="_v_i_c_u_s___daily_cycle_8h.html" target="_top" xlink:title=" ">
<polygon fill="white" stroke="#666666" points="675,-74 565,-74 565,-55 675,-55 675,-74"/>
<text text-anchor="middle" x="620" y="-62" font-family="Helvetica,sans-Serif" font-size="10.00">VICUS_DailyCycle.h</text>
</a>
</g>
</g>
<!-- Node8&#45;&gt;Node11 -->
<g id="edge11_Node000008_Node000011" class="edge">
<title>Node8&#45;&gt;Node11</title>
<g id="a_edge11_Node000008_Node000011"><a xlink:title=" ">
<path fill="none" stroke="#63b8ff" d="M566.28,-109.98C575.84,-102.07 590.28,-90.11 601.78,-80.58"/>
<polygon fill="#63b8ff" stroke="#63b8ff" points="604.06,-83.24 609.53,-74.17 599.6,-77.85 604.06,-83.24"/>
</a>
</g>
</g>
<!-- Node11&#45;&gt;Node6 -->
<g id="edge12_Node000011_Node000006" class="edge">
<title>Node11&#45;&gt;Node6</title>
<g id="a_edge12_Node000011_Node000006"><a xlink:title=" ">
<path fill="none" stroke="#63b8ff" d="M597.51,-54.98C574.48,-46.27 538.46,-32.63 512.37,-22.75"/>
<polygon fill="#63b8ff" stroke="#63b8ff" points="513.49,-19.44 502.9,-19.17 511.02,-25.98 513.49,-19.44"/>
</a>
</g>
</g>
<!-- Node11&#45;&gt;Node7 -->
<g id="edge13_Node000011_Node000007" class="edge">
<title>Node11&#45;&gt;Node7</title>
<g id="a_edge13_Node000011_Node000007"><a xlink:title=" ">
<path fill="none" stroke="#63b8ff" d="M658.08,-54.98C698.99,-45.84 764.11,-31.27 808.62,-21.32"/>
<polygon fill="#63b8ff" stroke="#63b8ff" points="809.63,-24.68 818.62,-19.08 808.1,-17.85 809.63,-24.68"/>
</a>
</g>
</g>
<!-- Node11&#45;&gt;Node10 -->
<g id="edge14_Node000011_Node000010" class="edge">
<title>Node11&#45;&gt;Node10</title>
<g id="a_edge14_Node000011_Node000010"><a xlink:title=" ">
<path fill="none" stroke="#63b8ff" d="M614.72,-54.75C610.29,-47.42 603.84,-36.73 598.38,-27.7"/>
<polygon fill="#63b8ff" stroke="#63b8ff" points="601.35,-25.84 593.19,-19.09 595.36,-29.46 601.35,-25.84"/>
</a>
</g>
</g>
<!-- Node12 -->
<g id="Node000012" class="node">
<title>Node12</title>
<g id="a_Node000012"><a xlink:title=" ">
<polygon fill="#e0e0e0" stroke="#999999" points="669.5,-19 628.5,-19 628.5,0 669.5,0 669.5,-19"/>
<text text-anchor="middle" x="649" y="-7" font-family="Helvetica,sans-Serif" font-size="10.00">string</text>
</a>
</g>
</g>
<!-- Node11&#45;&gt;Node12 -->
<g id="edge15_Node000011_Node000012" class="edge">
<title>Node11&#45;&gt;Node12</title>
<g id="a_edge15_Node000011_Node000012"><a xlink:title=" ">
<path fill="none" stroke="#63b8ff" d="M624.79,-54.75C628.76,-47.49 634.53,-36.95 639.43,-27.98"/>
<polygon fill="#63b8ff" stroke="#63b8ff" points="642.57,-29.54 644.3,-19.09 636.43,-26.18 642.57,-29.54"/>
</a>
</g>
</g>
<!-- Node13&#45;&gt;Node7 -->
<g id="edge19_Node000013_Node000007" class="edge">
<title>Node13&#45;&gt;Node7</title>
<g id="a_edge19_Node000013_Node000007"><a xlink:title=" ">
<path fill="none" stroke="#63b8ff" d="M947.9,-109.66C931.28,-91.54 893.13,-49.91 871.91,-26.77"/>
<polygon fill="#63b8ff" stroke="#63b8ff" points="874.27,-24.16 864.94,-19.16 869.11,-28.89 874.27,-24.16"/>
</a>
</g>
</g>
<!-- Node13&#45;&gt;Node9 -->
<g id="edge17_Node000013_Node000009" class="edge">
<title>Node13&#45;&gt;Node9</title>
<g id="a_edge17_Node000013_Node000009"><a xlink:title=" ">
<path fill="none" stroke="#63b8ff" d="M924.67,-109.98C891.51,-100.97 839,-86.7 802.44,-76.76"/>
<polygon fill="#63b8ff" stroke="#63b8ff" points="803.14,-73.33 792.58,-74.08 801.31,-80.08 803.14,-73.33"/>
</a>
</g>
</g>
<!-- Node14 -->
<g id="Node000014" class="node">
<title>Node14</title>
<g id="a_Node000014"><a xlink:title=" ">
<polygon fill="#e0e0e0" stroke="#999999" points="979.5,-74 932.5,-74 932.5,-55 979.5,-55 979.5,-74"/>
<text text-anchor="middle" x="956" y="-62" font-family="Helvetica,sans-Serif" font-size="10.00">QColor</text>
</a>
</g>
</g>
<!-- Node13&#45;&gt;Node14 -->
<g id="edge18_Node000013_Node000014" class="edge">
<title>Node13&#45;&gt;Node14</title>
<g id="a_edge18_Node000013_Node000014"><a xlink:title=" ">
<path fill="none" stroke="#63b8ff" d="M956,-109.75C956,-102.8 956,-92.85 956,-84.13"/>
<polygon fill="#63b8ff" stroke="#63b8ff" points="959.5,-84.09 956,-74.09 952.5,-84.09 959.5,-84.09"/>
</a>
</g>
</g>
</g>
</svg>
