<?xml version="1.0" encoding="UTF-8" standalone="no"?>
<!DOCTYPE svg PUBLIC "-//W3C//DTD SVG 1.1//EN"
 "http://www.w3.org/Graphics/SVG/1.1/DTD/svg11.dtd">
<!-- Generated by graphviz version 2.43.0 (0)
 -->
<!-- Title: /home/hirth/git/SIM&#45;VICUS.master2/externals/Vicus/src/VICUS_BoundaryCondition.cpp Pages: 1 -->
<svg width="1916pt" height="390pt"
 viewBox="0.00 0.00 1915.50 390.00" xmlns="http://www.w3.org/2000/svg" xmlns:xlink="http://www.w3.org/1999/xlink">
<g id="graph0" class="graph" transform="scale(1 1) rotate(0) translate(4 386)">
<title>/home/hirth/git/SIM&#45;VICUS.master2/externals/Vicus/src/VICUS_BoundaryCondition.cpp</title>
<!-- Node1 -->
<g id="Node000001" class="node">
<title>Node1</title>
<g id="a_Node000001"><a xlink:title=" ">
<polygon fill="#999999" stroke="#666666" points="914,-382 712,-382 712,-341 914,-341 914,-382"/>
<text text-anchor="start" x="720" y="-370" font-family="Helvetica,sans-Serif" font-size="10.00">/home/hirth/git/SIM</text>
<text text-anchor="start" x="720" y="-359" font-family="Helvetica,sans-Serif" font-size="10.00">&#45;VICUS.master2/externals</text>
<text text-anchor="middle" x="813" y="-348" font-family="Helvetica,sans-Serif" font-size="10.00">/Vicus/src/VICUS_BoundaryCondition.cpp</text>
</a>
</g>
</g>
<!-- Node2 -->
<g id="Node000002" class="node">
<title>Node2</title>
<g id="a_Node000002"><a xlink:href="_v_i_c_u_s___boundary_condition_8h.html" target="_top" xlink:title=" ">
<polygon fill="white" stroke="#666666" points="885,-305 741,-305 741,-286 885,-286 885,-305"/>
<text text-anchor="middle" x="813" y="-293" font-family="Helvetica,sans-Serif" font-size="10.00">VICUS_BoundaryCondition.h</text>
</a>
</g>
</g>
<!-- Node1&#45;&gt;Node2 -->
<g id="edge1_Node000001_Node000002" class="edge">
<title>Node1&#45;&gt;Node2</title>
<g id="a_edge1_Node000001_Node000002"><a xlink:title=" ">
<path fill="none" stroke="#63b8ff" d="M813,-340.95C813,-332.85 813,-323.5 813,-315.47"/>
<polygon fill="#63b8ff" stroke="#63b8ff" points="816.5,-315.26 813,-305.26 809.5,-315.26 816.5,-315.26"/>
</a>
</g>
</g>
<!-- Node3 -->
<g id="Node000003" class="node">
<title>Node3</title>
<g id="a_Node000003"><a xlink:title=" ">
<polygon fill="#e0e0e0" stroke="#999999" points="192,-184 142,-184 142,-165 192,-165 192,-184"/>
<text text-anchor="middle" x="167" y="-172" font-family="Helvetica,sans-Serif" font-size="10.00">QString</text>
</a>
</g>
</g>
<!-- Node2&#45;&gt;Node3 -->
<g id="edge2_Node000002_Node000003" class="edge">
<title>Node2&#45;&gt;Node3</title>
<g id="a_edge2_Node000002_Node000003"><a xlink:title=" ">
<path fill="none" stroke="#63b8ff" d="M740.69,-289.42C663.85,-283.23 539.06,-270.93 433,-250 348.93,-233.41 252.62,-203.68 202.12,-187.24"/>
<polygon fill="#63b8ff" stroke="#63b8ff" points="202.95,-183.83 192.36,-184.04 200.77,-190.48 202.95,-183.83"/>
</a>
</g>
</g>
<!-- Node4 -->
<g id="Node000004" class="node">
<title>Node4</title>
<g id="a_Node000004"><a xlink:title=" ">
<polygon fill="#e0e0e0" stroke="#999999" points="303.5,-184 210.5,-184 210.5,-165 303.5,-165 303.5,-184"/>
<text text-anchor="middle" x="257" y="-172" font-family="Helvetica,sans-Serif" font-size="10.00">QCoreApplication</text>
</a>
</g>
</g>
<!-- Node2&#45;&gt;Node4 -->
<g id="edge3_Node000002_Node000004" class="edge">
<title>Node2&#45;&gt;Node4</title>
<g id="a_edge3_Node000002_Node000004"><a xlink:title=" ">
<path fill="none" stroke="#63b8ff" d="M759.87,-285.97C709.33,-277.63 631.25,-264.16 564,-250 468.87,-229.98 358.3,-201.97 299.28,-186.63"/>
<polygon fill="#63b8ff" stroke="#63b8ff" points="300.12,-183.23 289.56,-184.1 298.36,-190.01 300.12,-183.23"/>
</a>
</g>
</g>
<!-- Node5 -->
<g id="Node000005" class="node">
<title>Node5</title>
<g id="a_Node000005"><a xlink:title=" ">
<polygon fill="#e0e0e0" stroke="#999999" points="790,-19 746,-19 746,0 790,0 790,-19"/>
<text text-anchor="middle" x="768" y="-7" font-family="Helvetica,sans-Serif" font-size="10.00">vector</text>
</a>
</g>
</g>
<!-- Node2&#45;&gt;Node5 -->
<g id="edge4_Node000002_Node000005" class="edge">
<title>Node2&#45;&gt;Node5</title>
<g id="a_edge4_Node000002_Node000005"><a xlink:title=" ">
<path fill="none" stroke="#63b8ff" d="M740.99,-295.23C589.04,-295.89 240.58,-292.54 131,-250 81.63,-230.84 38,-228.46 38,-175.5 38,-175.5 38,-175.5 38,-118.5 38,-80.58 60.81,-71.42 95,-55 221.04,5.52 580.1,-39.97 735.82,-18.7"/>
<polygon fill="#63b8ff" stroke="#63b8ff" points="736.41,-22.15 745.77,-17.2 735.36,-15.23 736.41,-22.15"/>
</a>
</g>
</g>
<!-- Node6 -->
<g id="Node000006" class="node">
<title>Node6</title>
<g id="a_Node000006"><a xlink:title=" ">
<polygon fill="#e0e0e0" stroke="#999999" points="1419.5,-129 1328.5,-129 1328.5,-110 1419.5,-110 1419.5,-129"/>
<text text-anchor="middle" x="1374" y="-117" font-family="Helvetica,sans-Serif" font-size="10.00">IBK_Parameter.h</text>
</a>
</g>
</g>
<!-- Node2&#45;&gt;Node6 -->
<g id="edge5_Node000002_Node000006" class="edge">
<title>Node2&#45;&gt;Node6</title>
<g id="a_edge5_Node000002_Node000006"><a xlink:title=" ">
<path fill="none" stroke="#63b8ff" d="M840.44,-285.99C932.61,-257.4 1231.23,-164.78 1336.69,-132.07"/>
<polygon fill="#63b8ff" stroke="#63b8ff" points="1337.77,-135.4 1346.28,-129.1 1335.7,-128.72 1337.77,-135.4"/>
</a>
</g>
</g>
<!-- Node7 -->
<g id="Node000007" class="node">
<title>Node7</title>
<g id="a_Node000007"><a xlink:title=" ">
<polygon fill="#e0e0e0" stroke="#999999" points="251.5,-74 116.5,-74 116.5,-55 251.5,-55 251.5,-74"/>
<text text-anchor="middle" x="184" y="-62" font-family="Helvetica,sans-Serif" font-size="10.00">IBK_MultiLanguageString.h</text>
</a>
</g>
</g>
<!-- Node2&#45;&gt;Node7 -->
<g id="edge6_Node000002_Node000007" class="edge">
<title>Node2&#45;&gt;Node7</title>
<g id="a_edge6_Node000002_Node000007"><a xlink:title=" ">
<path fill="none" stroke="#63b8ff" d="M740.88,-292.69C584.84,-288.32 225.91,-275.59 177,-250 137.55,-229.36 112.07,-207.89 124,-165 132.96,-132.79 155.47,-100.58 170.23,-81.87"/>
<polygon fill="#63b8ff" stroke="#63b8ff" points="172.99,-84.02 176.57,-74.05 167.55,-79.61 172.99,-84.02"/>
</a>
</g>
</g>
<!-- Node8 -->
<g id="Node000008" class="node">
<title>Node8</title>
<g id="a_Node000008"><a xlink:title=" ">
<polygon fill="#e0e0e0" stroke="#999999" points="1330.5,-250 1173.5,-250 1173.5,-220 1330.5,-220 1330.5,-250"/>
<text text-anchor="start" x="1181.5" y="-238" font-family="Helvetica,sans-Serif" font-size="10.00">NANDRAD_InterfaceLongWave</text>
<text text-anchor="middle" x="1252" y="-227" font-family="Helvetica,sans-Serif" font-size="10.00">Emission.h</text>
</a>
</g>
</g>
<!-- Node2&#45;&gt;Node8 -->
<g id="edge7_Node000002_Node000008" class="edge">
<title>Node2&#45;&gt;Node8</title>
<g id="a_edge7_Node000002_Node000008"><a xlink:title=" ">
<path fill="none" stroke="#63b8ff" d="M882.64,-285.99C952.56,-277.34 1063.33,-263.35 1159,-250 1160.47,-249.8 1161.94,-249.59 1163.43,-249.38"/>
<polygon fill="#63b8ff" stroke="#63b8ff" points="1163.97,-252.84 1173.37,-247.96 1162.98,-245.91 1163.97,-252.84"/>
</a>
</g>
</g>
<!-- Node9 -->
<g id="Node000009" class="node">
<title>Node9</title>
<g id="a_Node000009"><a xlink:title=" ">
<polygon fill="#e0e0e0" stroke="#999999" points="1537,-244.5 1349,-244.5 1349,-225.5 1537,-225.5 1537,-244.5"/>
<text text-anchor="middle" x="1443" y="-232.5" font-family="Helvetica,sans-Serif" font-size="10.00">NANDRAD_InterfaceSolarAbsorption.h</text>
</a>
</g>
</g>
<!-- Node2&#45;&gt;Node9 -->
<g id="edge8_Node000002_Node000009" class="edge">
<title>Node2&#45;&gt;Node9</title>
<g id="a_edge8_Node000002_Node000009"><a xlink:title=" ">
<path fill="none" stroke="#63b8ff" d="M885.14,-289.58C986.76,-282.37 1177.77,-267.86 1340,-250 1351.1,-248.78 1362.85,-247.33 1374.29,-245.83"/>
<polygon fill="#63b8ff" stroke="#63b8ff" points="1374.79,-249.3 1384.24,-244.51 1373.86,-242.36 1374.79,-249.3"/>
</a>
</g>
</g>
<!-- Node10 -->
<g id="Node000010" class="node">
<title>Node10</title>
<g id="a_Node000010"><a xlink:title=" ">
<polygon fill="#e0e0e0" stroke="#999999" points="1738.5,-244.5 1555.5,-244.5 1555.5,-225.5 1738.5,-225.5 1738.5,-244.5"/>
<text text-anchor="middle" x="1647" y="-232.5" font-family="Helvetica,sans-Serif" font-size="10.00">NANDRAD_InterfaceVaporDiffusion.h</text>
</a>
</g>
</g>
<!-- Node2&#45;&gt;Node10 -->
<g id="edge9_Node000002_Node000010" class="edge">
<title>Node2&#45;&gt;Node10</title>
<g id="a_edge9_Node000002_Node000010"><a xlink:title=" ">
<path fill="none" stroke="#63b8ff" d="M885.2,-291.96C1016.81,-286.93 1304.48,-274.03 1546,-250 1557.38,-248.87 1569.44,-247.42 1581.12,-245.88"/>
<polygon fill="#63b8ff" stroke="#63b8ff" points="1581.82,-249.32 1591.26,-244.51 1580.88,-242.38 1581.82,-249.32"/>
</a>
</g>
</g>
<!-- Node11 -->
<g id="Node000011" class="node">
<title>Node11</title>
<g id="a_Node000011"><a xlink:title=" ">
<polygon fill="#e0e0e0" stroke="#999999" points="1907.5,-244.5 1756.5,-244.5 1756.5,-225.5 1907.5,-225.5 1907.5,-244.5"/>
<text text-anchor="middle" x="1832" y="-232.5" font-family="Helvetica,sans-Serif" font-size="10.00">NANDRAD_InterfaceAirFlow.h</text>
</a>
</g>
</g>
<!-- Node2&#45;&gt;Node11 -->
<g id="edge10_Node000002_Node000011" class="edge">
<title>Node2&#45;&gt;Node11</title>
<g id="a_edge10_Node000002_Node000011"><a xlink:title=" ">
<path fill="none" stroke="#63b8ff" d="M885.07,-293.95C1042.24,-292.13 1427.44,-284.22 1748,-250 1757.28,-249.01 1767.1,-247.65 1776.62,-246.18"/>
<polygon fill="#63b8ff" stroke="#63b8ff" points="1777.48,-249.58 1786.8,-244.54 1776.37,-242.67 1777.48,-249.58"/>
</a>
</g>
</g>
<!-- Node12 -->
<g id="Node000012" class="node">
<title>Node12</title>
<g id="a_Node000012"><a xlink:href="_v_i_c_u_s___code_gen_macros_8h.html" target="_top" xlink:title=" ">
<polygon fill="white" stroke="#666666" points="1039.5,-19 904.5,-19 904.5,0 1039.5,0 1039.5,-19"/>
<text text-anchor="middle" x="972" y="-7" font-family="Helvetica,sans-Serif" font-size="10.00">VICUS_CodeGenMacros.h</text>
</a>
</g>
</g>
<!-- Node2&#45;&gt;Node12 -->
<g id="edge11_Node000002_Node000012" class="edge">
<title>Node2&#45;&gt;Node12</title>
<g id="a_edge11_Node000002_Node000012"><a xlink:title=" ">
<path fill="none" stroke="#63b8ff" d="M856.79,-285.96C991.64,-259.24 1393.74,-176.17 1429,-129 1476.38,-65.61 1192.22,-30.42 1049.76,-16.96"/>
<polygon fill="#63b8ff" stroke="#63b8ff" points="1050.03,-13.47 1039.75,-16.03 1049.38,-20.44 1050.03,-13.47"/>
</a>
</g>
</g>
<!-- Node13 -->
<g id="Node000013" class="node">
<title>Node13</title>
<g id="a_Node000013"><a xlink:href="_v_i_c_u_s___constants_8h.html" target="_top" xlink:title="Contains global constants for the SIM&#45;VICUS data model.">
<polygon fill="white" stroke="#666666" points="727.5,-19 620.5,-19 620.5,0 727.5,0 727.5,-19"/>
<text text-anchor="middle" x="674" y="-7" font-family="Helvetica,sans-Serif" font-size="10.00">VICUS_Constants.h</text>
</a>
</g>
</g>
<!-- Node2&#45;&gt;Node13 -->
<g id="edge12_Node000002_Node000013" class="edge">
<title>Node2&#45;&gt;Node13</title>
<g id="a_edge12_Node000002_Node000013"><a xlink:title=" ">
<path fill="none" stroke="#63b8ff" d="M740.83,-293.73C563.09,-291.33 114.29,-282.14 55,-250 18.82,-230.39 0,-216.66 0,-175.5 0,-175.5 0,-175.5 0,-118.5 0,-80.58 22.94,-71.69 57,-55 105.74,-31.12 462.23,-17.2 610.05,-12.41"/>
<polygon fill="#63b8ff" stroke="#63b8ff" points="610.44,-15.9 620.32,-12.08 610.22,-8.9 610.44,-15.9"/>
</a>
</g>
</g>
<!-- Node14 -->
<g id="Node000014" class="node">
<title>Node14</title>
<g id="a_Node000014"><a xlink:href="_v_i_c_u_s___abstract_d_b_element_8h.html" target="_top" xlink:title=" ">
<polygon fill="white" stroke="#666666" points="340.5,-129 191.5,-129 191.5,-110 340.5,-110 340.5,-129"/>
<text text-anchor="middle" x="266" y="-117" font-family="Helvetica,sans-Serif" font-size="10.00">VICUS_AbstractDBElement.h</text>
</a>
</g>
</g>
<!-- Node2&#45;&gt;Node14 -->
<g id="edge13_Node000002_Node000014" class="edge">
<title>Node2&#45;&gt;Node14</title>
<g id="a_edge13_Node000002_Node000014"><a xlink:title=" ">
<path fill="none" stroke="#63b8ff" d="M740.93,-295.05C580.28,-294.47 201.52,-282.49 133,-184 113.63,-156.16 149.99,-140.12 189.55,-131.13"/>
<polygon fill="#63b8ff" stroke="#63b8ff" points="190.31,-134.55 199.37,-129.05 188.86,-127.7 190.31,-134.55"/>
</a>
</g>
</g>
<!-- Node16 -->
<g id="Node000016" class="node">
<title>Node16</title>
<g id="a_Node000016"><a xlink:href="_v_i_c_u_s___interface_heat_conduction_8h.html" target="_top" xlink:title=" ">
<polygon fill="white" stroke="#666666" points="743,-244.5 573,-244.5 573,-225.5 743,-225.5 743,-244.5"/>
<text text-anchor="middle" x="658" y="-232.5" font-family="Helvetica,sans-Serif" font-size="10.00">VICUS_InterfaceHeatConduction.h</text>
</a>
</g>
</g>
<!-- Node2&#45;&gt;Node16 -->
<g id="edge17_Node000002_Node000016" class="edge">
<title>Node2&#45;&gt;Node16</title>
<g id="a_edge17_Node000002_Node000016"><a xlink:title=" ">
<path fill="none" stroke="#63b8ff" d="M790.46,-285.99C764.06,-276.03 720.12,-259.45 690.15,-248.13"/>
<polygon fill="#63b8ff" stroke="#63b8ff" points="691.16,-244.77 680.57,-244.52 688.69,-251.32 691.16,-244.77"/>
</a>
</g>
</g>
<!-- Node18 -->
<g id="Node000018" class="node">
<title>Node18</title>
<g id="a_Node000018"><a xlink:href="_v_i_c_u_s___schedule_8h.html" target="_top" xlink:title=" ">
<polygon fill="white" stroke="#666666" points="1041,-184 939,-184 939,-165 1041,-165 1041,-184"/>
<text text-anchor="middle" x="990" y="-172" font-family="Helvetica,sans-Serif" font-size="10.00">VICUS_Schedule.h</text>
</a>
</g>
</g>
<!-- Node2&#45;&gt;Node18 -->
<g id="edge49_Node000002_Node000018" class="edge">
<title>Node2&#45;&gt;Node18</title>
<g id="a_edge49_Node000002_Node000018"><a xlink:title=" ">
<path fill="none" stroke="#63b8ff" d="M825.73,-285.94C855.69,-265.8 930.94,-215.21 968.28,-190.1"/>
<polygon fill="#63b8ff" stroke="#63b8ff" points="970.56,-192.79 976.91,-184.3 966.66,-186.98 970.56,-192.79"/>
</a>
</g>
</g>
<!-- Node14&#45;&gt;Node7 -->
<g id="edge14_Node000014_Node000007" class="edge">
<title>Node14&#45;&gt;Node7</title>
<g id="a_edge14_Node000014_Node000007"><a xlink:title=" ">
<path fill="none" stroke="#63b8ff" d="M252.83,-109.98C240.23,-101.84 221,-89.41 206.06,-79.76"/>
<polygon fill="#63b8ff" stroke="#63b8ff" points="207.71,-76.66 197.41,-74.17 203.91,-82.54 207.71,-76.66"/>
</a>
</g>
</g>
<!-- Node14&#45;&gt;Node13 -->
<g id="edge16_Node000014_Node000013" class="edge">
<title>Node14&#45;&gt;Node13</title>
<g id="a_edge16_Node000014_Node000013"><a xlink:title=" ">
<path fill="none" stroke="#63b8ff" d="M267.93,-109.79C271.54,-95.69 280.79,-68.11 300,-55 349.07,-21.52 516.87,-13.15 610.16,-11.11"/>
<polygon fill="#63b8ff" stroke="#63b8ff" points="610.4,-14.6 620.32,-10.9 610.26,-7.61 610.4,-14.6"/>
</a>
</g>
</g>
<!-- Node15 -->
<g id="Node000015" class="node">
<title>Node15</title>
<g id="a_Node000015"><a xlink:title=" ">
<polygon fill="#e0e0e0" stroke="#999999" points="355.5,-74 308.5,-74 308.5,-55 355.5,-55 355.5,-74"/>
<text text-anchor="middle" x="332" y="-62" font-family="Helvetica,sans-Serif" font-size="10.00">QColor</text>
</a>
</g>
</g>
<!-- Node14&#45;&gt;Node15 -->
<g id="edge15_Node000014_Node000015" class="edge">
<title>Node14&#45;&gt;Node15</title>
<g id="a_edge15_Node000014_Node000015"><a xlink:title=" ">
<path fill="none" stroke="#63b8ff" d="M276.6,-109.98C286.46,-102.07 301.35,-90.11 313.22,-80.58"/>
<polygon fill="#63b8ff" stroke="#63b8ff" points="315.6,-83.16 321.2,-74.17 311.21,-77.7 315.6,-83.16"/>
</a>
</g>
</g>
<!-- Node16&#45;&gt;Node3 -->
<g id="edge18_Node000016_Node000003" class="edge">
<title>Node16&#45;&gt;Node3</title>
<g id="a_edge18_Node000016_Node000003"><a xlink:title=" ">
<path fill="none" stroke="#63b8ff" d="M572.65,-227.95C480.69,-220.66 330.25,-206.51 202,-184 201.9,-183.98 201.8,-183.96 201.7,-183.95"/>
<polygon fill="#63b8ff" stroke="#63b8ff" points="202.65,-180.57 192.15,-182.02 201.26,-187.43 202.65,-180.57"/>
</a>
</g>
</g>
<!-- Node16&#45;&gt;Node4 -->
<g id="edge19_Node000016_Node000004" class="edge">
<title>Node16&#45;&gt;Node4</title>
<g id="a_edge19_Node000016_Node000004"><a xlink:title=" ">
<path fill="none" stroke="#63b8ff" d="M599.69,-225.49C523.14,-214.33 389.61,-194.85 313.81,-183.79"/>
<polygon fill="#63b8ff" stroke="#63b8ff" points="313.91,-180.26 303.51,-182.28 312.9,-187.19 313.91,-180.26"/>
</a>
</g>
</g>
<!-- Node16&#45;&gt;Node5 -->
<g id="edge20_Node000016_Node000005" class="edge">
<title>Node16&#45;&gt;Node5</title>
<g id="a_edge20_Node000016_Node000005"><a xlink:title=" ">
<path fill="none" stroke="#63b8ff" d="M572.99,-227.11C510.44,-220.38 423.97,-207.58 351,-184 333.03,-178.19 330.7,-171.58 313,-165 251.97,-142.31 228.78,-159.01 171,-129 132.41,-108.96 77.14,-86.61 107,-55 153.4,-5.87 631.37,-28.53 735.66,-18.47"/>
<polygon fill="#63b8ff" stroke="#63b8ff" points="736.29,-21.92 745.77,-17.2 735.41,-14.98 736.29,-21.92"/>
</a>
</g>
</g>
<!-- Node16&#45;&gt;Node6 -->
<g id="edge21_Node000016_Node000006" class="edge">
<title>Node16&#45;&gt;Node6</title>
<g id="a_edge21_Node000016_Node000006"><a xlink:title=" ">
<path fill="none" stroke="#63b8ff" d="M743.13,-230.23C823.49,-225.03 946.73,-212.74 1050,-184 1070.13,-178.4 1072.96,-170.91 1093,-165 1098.39,-163.41 1238.09,-141.6 1318.44,-129.11"/>
<polygon fill="#63b8ff" stroke="#63b8ff" points="1319.07,-132.56 1328.41,-127.57 1317.99,-125.64 1319.07,-132.56"/>
</a>
</g>
</g>
<!-- Node16&#45;&gt;Node7 -->
<g id="edge22_Node000016_Node000007" class="edge">
<title>Node16&#45;&gt;Node7</title>
<g id="a_edge22_Node000016_Node000007"><a xlink:title=" ">
<path fill="none" stroke="#63b8ff" d="M649.1,-225.34C632.8,-210.09 596.36,-178.73 559,-165 480.21,-136.05 239.45,-191.12 183,-129 172.13,-117.04 174.04,-97.95 177.65,-83.82"/>
<polygon fill="#63b8ff" stroke="#63b8ff" points="181.02,-84.77 180.57,-74.18 174.32,-82.74 181.02,-84.77"/>
</a>
</g>
</g>
<!-- Node16&#45;&gt;Node12 -->
<g id="edge24_Node000016_Node000012" class="edge">
<title>Node16&#45;&gt;Node12</title>
<g id="a_edge24_Node000016_Node000012"><a xlink:title=" ">
<path fill="none" stroke="#63b8ff" d="M693.04,-225.49C743.41,-211.89 837.22,-181.32 901,-129 934.26,-101.72 955.77,-54.49 965.66,-28.66"/>
<polygon fill="#63b8ff" stroke="#63b8ff" points="969.04,-29.62 969.19,-19.02 962.47,-27.21 969.04,-29.62"/>
</a>
</g>
</g>
<!-- Node16&#45;&gt;Node13 -->
<g id="edge25_Node000016_Node000013" class="edge">
<title>Node16&#45;&gt;Node13</title>
<g id="a_edge25_Node000016_Node000013"><a xlink:title=" ">
<path fill="none" stroke="#63b8ff" d="M675.33,-225.43C690,-217.1 710.04,-202.94 719,-184 732.2,-156.11 697.93,-67.28 681.83,-28.69"/>
<polygon fill="#63b8ff" stroke="#63b8ff" points="684.94,-27.07 677.82,-19.23 678.5,-29.8 684.94,-27.07"/>
</a>
</g>
</g>
<!-- Node17 -->
<g id="Node000017" class="node">
<title>Node17</title>
<g id="a_Node000017"><a xlink:title=" ">
<polygon fill="#e0e0e0" stroke="#999999" points="550,-184 360,-184 360,-165 550,-165 550,-184"/>
<text text-anchor="middle" x="455" y="-172" font-family="Helvetica,sans-Serif" font-size="10.00">NANDRAD_InterfaceHeatConduction.h</text>
</a>
</g>
</g>
<!-- Node16&#45;&gt;Node17 -->
<g id="edge23_Node000016_Node000017" class="edge">
<title>Node16&#45;&gt;Node17</title>
<g id="a_edge23_Node000016_Node000017"><a xlink:title=" ">
<path fill="none" stroke="#63b8ff" d="M628.48,-225.49C593.08,-215.29 533.6,-198.15 494.32,-186.83"/>
<polygon fill="#63b8ff" stroke="#63b8ff" points="495.13,-183.42 484.55,-184.02 493.19,-190.15 495.13,-183.42"/>
</a>
</g>
</g>
<!-- Node16&#45;&gt;Node18 -->
<g id="edge26_Node000016_Node000018" class="edge">
<title>Node16&#45;&gt;Node18</title>
<g id="a_edge26_Node000016_Node000018"><a xlink:title=" ">
<path fill="none" stroke="#63b8ff" d="M706.28,-225.49C766.02,-214.97 867.69,-197.05 931.72,-185.77"/>
<polygon fill="#63b8ff" stroke="#63b8ff" points="932.43,-189.2 941.67,-184.02 931.21,-182.31 932.43,-189.2"/>
</a>
</g>
</g>
<!-- Node25 -->
<g id="Node000025" class="node">
<title>Node25</title>
<g id="a_Node000025"><a xlink:href="_v_i_c_u_s___database_8h.html" target="_top" xlink:title=" ">
<polygon fill="white" stroke="#666666" points="710,-184 606,-184 606,-165 710,-165 710,-184"/>
<text text-anchor="middle" x="658" y="-172" font-family="Helvetica,sans-Serif" font-size="10.00">VICUS_Database.h</text>
</a>
</g>
</g>
<!-- Node16&#45;&gt;Node25 -->
<g id="edge43_Node000016_Node000025" class="edge">
<title>Node16&#45;&gt;Node25</title>
<g id="a_edge43_Node000016_Node000025"><a xlink:title=" ">
<path fill="none" stroke="#63b8ff" d="M658,-225.37C658,-217.25 658,-204.81 658,-194.39"/>
<polygon fill="#63b8ff" stroke="#63b8ff" points="661.5,-194.17 658,-184.17 654.5,-194.17 661.5,-194.17"/>
</a>
</g>
</g>
<!-- Node18&#45;&gt;Node6 -->
<g id="edge29_Node000018_Node000006" class="edge">
<title>Node18&#45;&gt;Node6</title>
<g id="a_edge29_Node000018_Node000006"><a xlink:title=" ">
<path fill="none" stroke="#63b8ff" d="M1041.3,-166.68C1115.93,-156.74 1251.87,-138.56 1318.34,-129.06"/>
<polygon fill="#63b8ff" stroke="#63b8ff" points="1318.99,-132.51 1328.39,-127.62 1317.99,-125.58 1318.99,-132.51"/>
</a>
</g>
</g>
<!-- Node18&#45;&gt;Node12 -->
<g id="edge31_Node000018_Node000012" class="edge">
<title>Node18&#45;&gt;Node12</title>
<g id="a_edge31_Node000018_Node000012"><a xlink:title=" ">
<path fill="none" stroke="#63b8ff" d="M1034.44,-164.99C1083.01,-155.24 1155.02,-139.29 1163,-129 1168.17,-122.33 1167.38,-117.22 1163,-110 1133.01,-60.56 1069.55,-34.54 1024,-21.69"/>
<polygon fill="#63b8ff" stroke="#63b8ff" points="1024.85,-18.3 1014.29,-19.07 1023.03,-25.05 1024.85,-18.3"/>
</a>
</g>
</g>
<!-- Node18&#45;&gt;Node13 -->
<g id="edge32_Node000018_Node000013" class="edge">
<title>Node18&#45;&gt;Node13</title>
<g id="a_edge32_Node000018_Node000013"><a xlink:title=" ">
<path fill="none" stroke="#63b8ff" d="M938.85,-169.08C877.43,-162.91 778.92,-150.07 749,-129 717.9,-107.1 726.68,-86.92 706,-55 699.92,-45.62 692.68,-35.47 686.63,-27.24"/>
<polygon fill="#63b8ff" stroke="#63b8ff" points="689.41,-25.12 680.63,-19.19 683.8,-29.3 689.41,-25.12"/>
</a>
</g>
</g>
<!-- Node18&#45;&gt;Node14 -->
<g id="edge42_Node000018_Node000014" class="edge">
<title>Node18&#45;&gt;Node14</title>
<g id="a_edge42_Node000018_Node000014"><a xlink:title=" ">
<path fill="none" stroke="#63b8ff" d="M938.94,-170.5C832.02,-164.09 576.53,-148.16 350.7,-129.03"/>
<polygon fill="#63b8ff" stroke="#63b8ff" points="350.9,-125.54 340.64,-128.18 350.31,-132.51 350.9,-125.54"/>
</a>
</g>
</g>
<!-- Node19 -->
<g id="Node000019" class="node">
<title>Node19</title>
<g id="a_Node000019"><a xlink:title=" ">
<polygon fill="#e0e0e0" stroke="#999999" points="1310,-129 1210,-129 1210,-110 1310,-110 1310,-129"/>
<text text-anchor="middle" x="1260" y="-117" font-family="Helvetica,sans-Serif" font-size="10.00">IBK_LinearSpline.h</text>
</a>
</g>
</g>
<!-- Node18&#45;&gt;Node19 -->
<g id="edge27_Node000018_Node000019" class="edge">
<title>Node18&#45;&gt;Node19</title>
<g id="a_edge27_Node000018_Node000019"><a xlink:title=" ">
<path fill="none" stroke="#63b8ff" d="M1033.38,-164.98C1080.38,-155.76 1155.43,-141.03 1206.16,-131.07"/>
<polygon fill="#63b8ff" stroke="#63b8ff" points="1207.14,-134.44 1216.28,-129.08 1205.79,-127.57 1207.14,-134.44"/>
</a>
</g>
</g>
<!-- Node20 -->
<g id="Node000020" class="node">
<title>Node20</title>
<g id="a_Node000020"><a xlink:title=" ">
<polygon fill="#e0e0e0" stroke="#999999" points="1013.5,-129 948.5,-129 948.5,-110 1013.5,-110 1013.5,-129"/>
<text text-anchor="middle" x="981" y="-117" font-family="Helvetica,sans-Serif" font-size="10.00">IBK_Flag.h</text>
</a>
</g>
</g>
<!-- Node18&#45;&gt;Node20 -->
<g id="edge28_Node000018_Node000020" class="edge">
<title>Node18&#45;&gt;Node20</title>
<g id="a_edge28_Node000018_Node000020"><a xlink:title=" ">
<path fill="none" stroke="#63b8ff" d="M988.51,-164.75C987.33,-157.8 985.64,-147.85 984.16,-139.13"/>
<polygon fill="#63b8ff" stroke="#63b8ff" points="987.58,-138.36 982.46,-129.09 980.68,-139.53 987.58,-138.36"/>
</a>
</g>
</g>
<!-- Node21 -->
<g id="Node000021" class="node">
<title>Node21</title>
<g id="a_Node000021"><a xlink:title=" ">
<polygon fill="#e0e0e0" stroke="#999999" points="1154,-129 1032,-129 1032,-110 1154,-110 1154,-129"/>
<text text-anchor="middle" x="1093" y="-117" font-family="Helvetica,sans-Serif" font-size="10.00">NANDRAD_Schedule.h</text>
</a>
</g>
</g>
<!-- Node18&#45;&gt;Node21 -->
<g id="edge30_Node000018_Node000021" class="edge">
<title>Node18&#45;&gt;Node21</title>
<g id="a_edge30_Node000018_Node000021"><a xlink:title=" ">
<path fill="none" stroke="#63b8ff" d="M1006.55,-164.98C1022.89,-156.57 1048.13,-143.59 1067.13,-133.81"/>
<polygon fill="#63b8ff" stroke="#63b8ff" points="1068.86,-136.86 1076.15,-129.17 1065.66,-130.63 1068.86,-136.86"/>
</a>
</g>
</g>
<!-- Node22 -->
<g id="Node000022" class="node">
<title>Node22</title>
<g id="a_Node000022"><a xlink:href="_v_i_c_u_s___schedule_interval_8h.html" target="_top" xlink:title=" ">
<polygon fill="white" stroke="#666666" points="892,-129 758,-129 758,-110 892,-110 892,-129"/>
<text text-anchor="middle" x="825" y="-117" font-family="Helvetica,sans-Serif" font-size="10.00">VICUS_ScheduleInterval.h</text>
</a>
</g>
</g>
<!-- Node18&#45;&gt;Node22 -->
<g id="edge33_Node000018_Node000022" class="edge">
<title>Node18&#45;&gt;Node22</title>
<g id="a_edge33_Node000018_Node000022"><a xlink:title=" ">
<path fill="none" stroke="#63b8ff" d="M963.49,-164.98C935.79,-156.09 892.14,-142.07 861.26,-132.15"/>
<polygon fill="#63b8ff" stroke="#63b8ff" points="862.31,-128.81 851.72,-129.08 860.17,-135.47 862.31,-128.81"/>
</a>
</g>
</g>
<!-- Node22&#45;&gt;Node5 -->
<g id="edge36_Node000022_Node000005" class="edge">
<title>Node22&#45;&gt;Node5</title>
<g id="a_edge36_Node000022_Node000005"><a xlink:title=" ">
<path fill="none" stroke="#63b8ff" d="M815.61,-109.81C807.03,-101.4 794.58,-87.92 787,-74 779.34,-59.93 774.39,-42.38 771.47,-29.3"/>
<polygon fill="#63b8ff" stroke="#63b8ff" points="774.83,-28.26 769.41,-19.16 767.97,-29.65 774.83,-28.26"/>
</a>
</g>
</g>
<!-- Node22&#45;&gt;Node7 -->
<g id="edge34_Node000022_Node000007" class="edge">
<title>Node22&#45;&gt;Node7</title>
<g id="a_edge34_Node000022_Node000007"><a xlink:title=" ">
<path fill="none" stroke="#63b8ff" d="M757.91,-112.95C638.2,-103.05 388.43,-82.4 261.55,-71.91"/>
<polygon fill="#63b8ff" stroke="#63b8ff" points="261.78,-68.42 251.52,-71.08 261.2,-75.4 261.78,-68.42"/>
</a>
</g>
</g>
<!-- Node22&#45;&gt;Node12 -->
<g id="edge35_Node000022_Node000012" class="edge">
<title>Node22&#45;&gt;Node12</title>
<g id="a_edge35_Node000022_Node000012"><a xlink:title=" ">
<path fill="none" stroke="#63b8ff" d="M848.18,-109.91C867.22,-102.2 894.31,-89.7 915,-74 932.62,-60.63 949.07,-41.26 959.73,-27.43"/>
<polygon fill="#63b8ff" stroke="#63b8ff" points="962.65,-29.37 965.85,-19.26 957.05,-25.17 962.65,-29.37"/>
</a>
</g>
</g>
<!-- Node23 -->
<g id="Node000023" class="node">
<title>Node23</title>
<g id="a_Node000023"><a xlink:href="_v_i_c_u_s___daily_cycle_8h.html" target="_top" xlink:title=" ">
<polygon fill="white" stroke="#666666" points="906,-74 796,-74 796,-55 906,-55 906,-74"/>
<text text-anchor="middle" x="851" y="-62" font-family="Helvetica,sans-Serif" font-size="10.00">VICUS_DailyCycle.h</text>
</a>
</g>
</g>
<!-- Node22&#45;&gt;Node23 -->
<g id="edge37_Node000022_Node000023" class="edge">
<title>Node22&#45;&gt;Node23</title>
<g id="a_edge37_Node000022_Node000023"><a xlink:title=" ">
<path fill="none" stroke="#63b8ff" d="M829.29,-109.75C832.81,-102.57 837.91,-92.18 842.28,-83.27"/>
<polygon fill="#63b8ff" stroke="#63b8ff" points="845.52,-84.61 846.79,-74.09 839.24,-81.53 845.52,-84.61"/>
</a>
</g>
</g>
<!-- Node23&#45;&gt;Node5 -->
<g id="edge40_Node000023_Node000005" class="edge">
<title>Node23&#45;&gt;Node5</title>
<g id="a_edge40_Node000023_Node000005"><a xlink:title=" ">
<path fill="none" stroke="#63b8ff" d="M837.66,-54.98C824.91,-46.84 805.45,-34.41 790.33,-24.76"/>
<polygon fill="#63b8ff" stroke="#63b8ff" points="791.89,-21.6 781.58,-19.17 788.12,-27.5 791.89,-21.6"/>
</a>
</g>
</g>
<!-- Node23&#45;&gt;Node12 -->
<g id="edge38_Node000023_Node000012" class="edge">
<title>Node23&#45;&gt;Node12</title>
<g id="a_edge38_Node000023_Node000012"><a xlink:title=" ">
<path fill="none" stroke="#63b8ff" d="M870.44,-54.98C889.99,-46.42 920.38,-33.11 942.82,-23.28"/>
<polygon fill="#63b8ff" stroke="#63b8ff" points="944.45,-26.39 952.21,-19.17 941.64,-19.98 944.45,-26.39"/>
</a>
</g>
</g>
<!-- Node23&#45;&gt;Node13 -->
<g id="edge39_Node000023_Node000013" class="edge">
<title>Node23&#45;&gt;Node13</title>
<g id="a_edge39_Node000023_Node000013"><a xlink:title=" ">
<path fill="none" stroke="#63b8ff" d="M822.56,-54.98C792.72,-46.05 745.62,-31.94 712.47,-22.02"/>
<polygon fill="#63b8ff" stroke="#63b8ff" points="713.24,-18.6 702.66,-19.08 711.24,-25.3 713.24,-18.6"/>
</a>
</g>
</g>
<!-- Node24 -->
<g id="Node000024" class="node">
<title>Node24</title>
<g id="a_Node000024"><a xlink:title=" ">
<polygon fill="#e0e0e0" stroke="#999999" points="871.5,-19 830.5,-19 830.5,0 871.5,0 871.5,-19"/>
<text text-anchor="middle" x="851" y="-7" font-family="Helvetica,sans-Serif" font-size="10.00">string</text>
</a>
</g>
</g>
<!-- Node23&#45;&gt;Node24 -->
<g id="edge41_Node000023_Node000024" class="edge">
<title>Node23&#45;&gt;Node24</title>
<g id="a_edge41_Node000023_Node000024"><a xlink:title=" ">
<path fill="none" stroke="#63b8ff" d="M851,-54.75C851,-47.8 851,-37.85 851,-29.13"/>
<polygon fill="#63b8ff" stroke="#63b8ff" points="854.5,-29.09 851,-19.09 847.5,-29.09 854.5,-29.09"/>
</a>
</g>
</g>
<!-- Node25&#45;&gt;Node14 -->
<g id="edge45_Node000025_Node000014" class="edge">
<title>Node25&#45;&gt;Node14</title>
<g id="a_edge45_Node000025_Node000014"><a xlink:title=" ">
<path fill="none" stroke="#63b8ff" d="M605.95,-166.46C537.48,-157.21 416.79,-140.89 339.16,-130.39"/>
<polygon fill="#63b8ff" stroke="#63b8ff" points="339.36,-126.89 328.98,-129.01 338.42,-133.82 339.36,-126.89"/>
</a>
</g>
</g>
<!-- Node26 -->
<g id="Node000026" class="node">
<title>Node26</title>
<g id="a_Node000026"><a xlink:title=" ">
<polygon fill="#e0e0e0" stroke="#999999" points="663.5,-129 628.5,-129 628.5,-110 663.5,-110 663.5,-129"/>
<text text-anchor="middle" x="646" y="-117" font-family="Helvetica,sans-Serif" font-size="10.00">map</text>
</a>
</g>
</g>
<!-- Node25&#45;&gt;Node26 -->
<g id="edge44_Node000025_Node000026" class="edge">
<title>Node25&#45;&gt;Node26</title>
<g id="a_edge44_Node000025_Node000026"><a xlink:title=" ">
<path fill="none" stroke="#63b8ff" d="M656.02,-164.75C654.43,-157.72 652.14,-147.62 650.15,-138.84"/>
<polygon fill="#63b8ff" stroke="#63b8ff" points="653.57,-138.07 647.94,-129.09 646.74,-139.62 653.57,-138.07"/>
</a>
</g>
</g>
<!-- Node27 -->
<g id="Node000027" class="node">
<title>Node27</title>
<g id="a_Node000027"><a xlink:title=" ">
<polygon fill="#e0e0e0" stroke="#999999" points="425.5,-129 358.5,-129 358.5,-110 425.5,-110 425.5,-129"/>
<text text-anchor="middle" x="392" y="-117" font-family="Helvetica,sans-Serif" font-size="10.00">IBK_Path.h</text>
</a>
</g>
</g>
<!-- Node25&#45;&gt;Node27 -->
<g id="edge46_Node000025_Node000027" class="edge">
<title>Node25&#45;&gt;Node27</title>
<g id="a_edge46_Node000025_Node000027"><a xlink:title=" ">
<path fill="none" stroke="#63b8ff" d="M615.26,-164.98C566.04,-155.18 485.59,-139.15 435.89,-129.24"/>
<polygon fill="#63b8ff" stroke="#63b8ff" points="436.26,-125.75 425.77,-127.23 434.89,-132.62 436.26,-125.75"/>
</a>
</g>
</g>
<!-- Node28 -->
<g id="Node000028" class="node">
<title>Node28</title>
<g id="a_Node000028"><a xlink:title=" ">
<polygon fill="#e0e0e0" stroke="#999999" points="536,-129 444,-129 444,-110 536,-110 536,-129"/>
<text text-anchor="middle" x="490" y="-117" font-family="Helvetica,sans-Serif" font-size="10.00">IBK_messages.h</text>
</a>
</g>
</g>
<!-- Node25&#45;&gt;Node28 -->
<g id="edge47_Node000025_Node000028" class="edge">
<title>Node25&#45;&gt;Node28</title>
<g id="a_edge47_Node000025_Node000028"><a xlink:title=" ">
<path fill="none" stroke="#63b8ff" d="M631.01,-164.98C602.8,-156.09 558.36,-142.07 526.92,-132.15"/>
<polygon fill="#63b8ff" stroke="#63b8ff" points="527.79,-128.75 517.2,-129.08 525.69,-135.43 527.79,-128.75"/>
</a>
</g>
</g>
<!-- Node29 -->
<g id="Node000029" class="node">
<title>Node29</title>
<g id="a_Node000029"><a xlink:title=" ">
<polygon fill="#e0e0e0" stroke="#999999" points="610,-129 554,-129 554,-110 610,-110 610,-129"/>
<text text-anchor="middle" x="582" y="-117" font-family="Helvetica,sans-Serif" font-size="10.00">tinyxml.h</text>
</a>
</g>
</g>
<!-- Node25&#45;&gt;Node29 -->
<g id="edge48_Node000025_Node000029" class="edge">
<title>Node25&#45;&gt;Node29</title>
<g id="a_edge48_Node000025_Node000029"><a xlink:title=" ">
<path fill="none" stroke="#63b8ff" d="M645.79,-164.98C634.22,-156.92 616.62,-144.65 602.84,-135.03"/>
<polygon fill="#63b8ff" stroke="#63b8ff" points="604.64,-132.02 594.43,-129.17 600.63,-137.76 604.64,-132.02"/>
</a>
</g>
</g>
</g>
</svg>
