<?xml version="1.0" encoding="UTF-8" standalone="no"?>
<!DOCTYPE svg PUBLIC "-//W3C//DTD SVG 1.1//EN"
 "http://www.w3.org/Graphics/SVG/1.1/DTD/svg11.dtd">
<!-- Generated by graphviz version 2.43.0 (0)
 -->
<!-- Title: /home/hirth/git/SIM&#45;VICUS.master2/externals/Vicus/src/VICUS_NetworkPipe.cpp Pages: 1 -->
<svg width="838pt" height="214pt"
 viewBox="0.00 0.00 838.00 214.00" xmlns="http://www.w3.org/2000/svg" xmlns:xlink="http://www.w3.org/1999/xlink">
<g id="graph0" class="graph" transform="scale(1 1) rotate(0) translate(4 210)">
<title>/home/hirth/git/SIM&#45;VICUS.master2/externals/Vicus/src/VICUS_NetworkPipe.cpp</title>
<!-- Node1 -->
<g id="Node000001" class="node">
<title>Node1</title>
<g id="a_Node000001"><a xlink:title=" ">
<polygon fill="#999999" stroke="#666666" points="413.5,-206 237.5,-206 237.5,-165 413.5,-165 413.5,-206"/>
<text text-anchor="start" x="245.5" y="-194" font-family="Helvetica,sans-Serif" font-size="10.00">/home/hirth/git/SIM</text>
<text text-anchor="start" x="245.5" y="-183" font-family="Helvetica,sans-Serif" font-size="10.00">&#45;VICUS.master2/externals</text>
<text text-anchor="middle" x="325.5" y="-172" font-family="Helvetica,sans-Serif" font-size="10.00">/Vicus/src/VICUS_NetworkPipe.cpp</text>
</a>
</g>
</g>
<!-- Node2 -->
<g id="Node000002" class="node">
<title>Node2</title>
<g id="a_Node000002"><a xlink:href="_v_i_c_u_s___network_pipe_8h.html" target="_top" xlink:title=" ">
<polygon fill="white" stroke="#666666" points="523.5,-129 405.5,-129 405.5,-110 523.5,-110 523.5,-129"/>
<text text-anchor="middle" x="464.5" y="-117" font-family="Helvetica,sans-Serif" font-size="10.00">VICUS_NetworkPipe.h</text>
</a>
</g>
</g>
<!-- Node1&#45;&gt;Node2 -->
<g id="edge1_Node000001_Node000002" class="edge">
<title>Node1&#45;&gt;Node2</title>
<g id="a_edge1_Node000001_Node000002"><a xlink:title=" ">
<path fill="none" stroke="#63b8ff" d="M367.96,-164.95C390.23,-154.7 416.88,-142.43 436.53,-133.38"/>
<polygon fill="#63b8ff" stroke="#63b8ff" points="438.22,-136.45 445.84,-129.09 435.29,-130.1 438.22,-136.45"/>
</a>
</g>
</g>
<!-- Node11 -->
<g id="Node000011" class="node">
<title>Node11</title>
<g id="a_Node000011"><a xlink:href="_v_i_c_u_s___keyword_list_8h.html" target="_top" xlink:title="Contains the declaration of class KeywordList.">
<polygon fill="white" stroke="#666666" points="244.5,-129 128.5,-129 128.5,-110 244.5,-110 244.5,-129"/>
<text text-anchor="middle" x="186.5" y="-117" font-family="Helvetica,sans-Serif" font-size="10.00">VICUS_KeywordList.h</text>
</a>
</g>
</g>
<!-- Node1&#45;&gt;Node11 -->
<g id="edge13_Node000001_Node000011" class="edge">
<title>Node1&#45;&gt;Node11</title>
<g id="a_edge13_Node000001_Node000011"><a xlink:title=" ">
<path fill="none" stroke="#63b8ff" d="M283.04,-164.95C260.77,-154.7 234.12,-142.43 214.47,-133.38"/>
<polygon fill="#63b8ff" stroke="#63b8ff" points="215.71,-130.1 205.16,-129.09 212.78,-136.45 215.71,-130.1"/>
</a>
</g>
</g>
<!-- Node3 -->
<g id="Node000003" class="node">
<title>Node3</title>
<g id="a_Node000003"><a xlink:title=" ">
<polygon fill="#e0e0e0" stroke="#999999" points="207,-74 166,-74 166,-55 207,-55 207,-74"/>
<text text-anchor="middle" x="186.5" y="-62" font-family="Helvetica,sans-Serif" font-size="10.00">string</text>
</a>
</g>
</g>
<!-- Node2&#45;&gt;Node3 -->
<g id="edge2_Node000002_Node000003" class="edge">
<title>Node2&#45;&gt;Node3</title>
<g id="a_edge2_Node000002_Node000003"><a xlink:title=" ">
<path fill="none" stroke="#63b8ff" d="M406.53,-109.96C358.1,-102.42 287.1,-90.4 216.92,-74.14"/>
<polygon fill="#63b8ff" stroke="#63b8ff" points="217.56,-70.69 207.02,-71.81 215.96,-77.51 217.56,-70.69"/>
</a>
</g>
</g>
<!-- Node4 -->
<g id="Node000004" class="node">
<title>Node4</title>
<g id="a_Node000004"><a xlink:title=" ">
<polygon fill="#e0e0e0" stroke="#999999" points="378.5,-74 334.5,-74 334.5,-55 378.5,-55 378.5,-74"/>
<text text-anchor="middle" x="356.5" y="-62" font-family="Helvetica,sans-Serif" font-size="10.00">vector</text>
</a>
</g>
</g>
<!-- Node2&#45;&gt;Node4 -->
<g id="edge3_Node000002_Node000004" class="edge">
<title>Node2&#45;&gt;Node4</title>
<g id="a_edge3_Node000002_Node000004"><a xlink:title=" ">
<path fill="none" stroke="#63b8ff" d="M447.15,-109.98C429.93,-101.54 403.3,-88.47 383.35,-78.68"/>
<polygon fill="#63b8ff" stroke="#63b8ff" points="384.69,-75.43 374.17,-74.17 381.6,-81.72 384.69,-75.43"/>
</a>
</g>
</g>
<!-- Node5 -->
<g id="Node000005" class="node">
<title>Node5</title>
<g id="a_Node000005"><a xlink:href="_v_i_c_u_s___code_gen_macros_8h.html" target="_top" xlink:title=" ">
<polygon fill="white" stroke="#666666" points="532,-74 397,-74 397,-55 532,-55 532,-74"/>
<text text-anchor="middle" x="464.5" y="-62" font-family="Helvetica,sans-Serif" font-size="10.00">VICUS_CodeGenMacros.h</text>
</a>
</g>
</g>
<!-- Node2&#45;&gt;Node5 -->
<g id="edge4_Node000002_Node000005" class="edge">
<title>Node2&#45;&gt;Node5</title>
<g id="a_edge4_Node000002_Node000005"><a xlink:title=" ">
<path fill="none" stroke="#63b8ff" d="M464.5,-109.75C464.5,-102.8 464.5,-92.85 464.5,-84.13"/>
<polygon fill="#63b8ff" stroke="#63b8ff" points="468,-84.09 464.5,-74.09 461,-84.09 468,-84.09"/>
</a>
</g>
</g>
<!-- Node6 -->
<g id="Node000006" class="node">
<title>Node6</title>
<g id="a_Node000006"><a xlink:href="_v_i_c_u_s___constants_8h.html" target="_top" xlink:title="Contains global constants for the SIM&#45;VICUS data model.">
<polygon fill="white" stroke="#666666" points="612,-19 505,-19 505,0 612,0 612,-19"/>
<text text-anchor="middle" x="558.5" y="-7" font-family="Helvetica,sans-Serif" font-size="10.00">VICUS_Constants.h</text>
</a>
</g>
</g>
<!-- Node2&#45;&gt;Node6 -->
<g id="edge5_Node000002_Node000006" class="edge">
<title>Node2&#45;&gt;Node6</title>
<g id="a_edge5_Node000002_Node000006"><a xlink:title=" ">
<path fill="none" stroke="#63b8ff" d="M488.74,-109.95C505.59,-102.82 527.3,-91.05 540.5,-74 550.47,-61.12 554.92,-42.95 556.9,-29.35"/>
<polygon fill="#63b8ff" stroke="#63b8ff" points="560.4,-29.55 558.06,-19.22 553.45,-28.76 560.4,-29.55"/>
</a>
</g>
</g>
<!-- Node7 -->
<g id="Node000007" class="node">
<title>Node7</title>
<g id="a_Node000007"><a xlink:href="_v_i_c_u_s___abstract_d_b_element_8h.html" target="_top" xlink:title=" ">
<polygon fill="white" stroke="#666666" points="737,-74 588,-74 588,-55 737,-55 737,-74"/>
<text text-anchor="middle" x="662.5" y="-62" font-family="Helvetica,sans-Serif" font-size="10.00">VICUS_AbstractDBElement.h</text>
</a>
</g>
</g>
<!-- Node2&#45;&gt;Node7 -->
<g id="edge6_Node000002_Node000007" class="edge">
<title>Node2&#45;&gt;Node7</title>
<g id="a_edge6_Node000002_Node000007"><a xlink:title=" ">
<path fill="none" stroke="#63b8ff" d="M496.31,-109.98C529.99,-100.97 583.3,-86.7 620.42,-76.76"/>
<polygon fill="#63b8ff" stroke="#63b8ff" points="621.68,-80.05 630.44,-74.08 619.87,-73.29 621.68,-80.05"/>
</a>
</g>
</g>
<!-- Node8 -->
<g id="Node000008" class="node">
<title>Node8</title>
<g id="a_Node000008"><a xlink:title=" ">
<polygon fill="#e0e0e0" stroke="#999999" points="765,-19 630,-19 630,0 765,0 765,-19"/>
<text text-anchor="middle" x="697.5" y="-7" font-family="Helvetica,sans-Serif" font-size="10.00">IBK_MultiLanguageString.h</text>
</a>
</g>
</g>
<!-- Node2&#45;&gt;Node8 -->
<g id="edge10_Node000002_Node000008" class="edge">
<title>Node2&#45;&gt;Node8</title>
<g id="a_edge10_Node000002_Node000008"><a xlink:title=" ">
<path fill="none" stroke="#63b8ff" d="M523.61,-117.8C597.46,-115.52 717.55,-106.72 745.5,-74 759.31,-57.84 739.19,-38.17 720.93,-25.05"/>
<polygon fill="#63b8ff" stroke="#63b8ff" points="722.52,-21.89 712.28,-19.17 718.59,-27.68 722.52,-21.89"/>
</a>
</g>
</g>
<!-- Node9 -->
<g id="Node000009" class="node">
<title>Node9</title>
<g id="a_Node000009"><a xlink:title=" ">
<polygon fill="#e0e0e0" stroke="#999999" points="830,-19 783,-19 783,0 830,0 830,-19"/>
<text text-anchor="middle" x="806.5" y="-7" font-family="Helvetica,sans-Serif" font-size="10.00">QColor</text>
</a>
</g>
</g>
<!-- Node2&#45;&gt;Node9 -->
<g id="edge12_Node000002_Node000009" class="edge">
<title>Node2&#45;&gt;Node9</title>
<g id="a_edge12_Node000002_Node000009"><a xlink:title=" ">
<path fill="none" stroke="#63b8ff" d="M523.54,-115.11C598.48,-109.89 722.7,-97.87 761.5,-74 778.89,-63.3 791.43,-43.1 798.79,-28.35"/>
<polygon fill="#63b8ff" stroke="#63b8ff" points="802,-29.74 803.05,-19.19 795.66,-26.78 802,-29.74"/>
</a>
</g>
</g>
<!-- Node10 -->
<g id="Node000010" class="node">
<title>Node10</title>
<g id="a_Node000010"><a xlink:title=" ">
<polygon fill="#e0e0e0" stroke="#999999" points="316,-74 225,-74 225,-55 316,-55 316,-74"/>
<text text-anchor="middle" x="270.5" y="-62" font-family="Helvetica,sans-Serif" font-size="10.00">IBK_Parameter.h</text>
</a>
</g>
</g>
<!-- Node2&#45;&gt;Node10 -->
<g id="edge11_Node000002_Node000010" class="edge">
<title>Node2&#45;&gt;Node10</title>
<g id="a_edge11_Node000002_Node000010"><a xlink:title=" ">
<path fill="none" stroke="#63b8ff" d="M433.33,-109.98C400.34,-100.97 348.1,-86.7 311.73,-76.76"/>
<polygon fill="#63b8ff" stroke="#63b8ff" points="312.48,-73.34 301.91,-74.08 310.64,-80.09 312.48,-73.34"/>
</a>
</g>
</g>
<!-- Node7&#45;&gt;Node6 -->
<g id="edge9_Node000007_Node000006" class="edge">
<title>Node7&#45;&gt;Node6</title>
<g id="a_edge9_Node000007_Node000006"><a xlink:title=" ">
<path fill="none" stroke="#63b8ff" d="M645.79,-54.98C629.29,-46.57 603.8,-33.59 584.62,-23.81"/>
<polygon fill="#63b8ff" stroke="#63b8ff" points="586.01,-20.59 575.51,-19.17 582.83,-26.83 586.01,-20.59"/>
</a>
</g>
</g>
<!-- Node7&#45;&gt;Node8 -->
<g id="edge7_Node000007_Node000008" class="edge">
<title>Node7&#45;&gt;Node8</title>
<g id="a_edge7_Node000007_Node000008"><a xlink:title=" ">
<path fill="none" stroke="#63b8ff" d="M668.28,-54.75C673.12,-47.42 680.18,-36.73 686.14,-27.7"/>
<polygon fill="#63b8ff" stroke="#63b8ff" points="689.24,-29.36 691.83,-19.09 683.4,-25.5 689.24,-29.36"/>
</a>
</g>
</g>
<!-- Node7&#45;&gt;Node9 -->
<g id="edge8_Node000007_Node000009" class="edge">
<title>Node7&#45;&gt;Node9</title>
<g id="a_edge8_Node000007_Node000009"><a xlink:title=" ">
<path fill="none" stroke="#63b8ff" d="M685.64,-54.98C709.32,-46.27 746.37,-32.63 773.21,-22.75"/>
<polygon fill="#63b8ff" stroke="#63b8ff" points="774.77,-25.91 782.94,-19.17 772.35,-19.34 774.77,-25.91"/>
</a>
</g>
</g>
<!-- Node11&#45;&gt;Node3 -->
<g id="edge14_Node000011_Node000003" class="edge">
<title>Node11&#45;&gt;Node3</title>
<g id="a_edge14_Node000011_Node000003"><a xlink:title=" ">
<path fill="none" stroke="#63b8ff" d="M186.5,-109.75C186.5,-102.8 186.5,-92.85 186.5,-84.13"/>
<polygon fill="#63b8ff" stroke="#63b8ff" points="190,-84.09 186.5,-74.09 183,-84.09 190,-84.09"/>
</a>
</g>
</g>
<!-- Node11&#45;&gt;Node10 -->
<g id="edge16_Node000011_Node000010" class="edge">
<title>Node11&#45;&gt;Node10</title>
<g id="a_edge16_Node000011_Node000010"><a xlink:title=" ">
<path fill="none" stroke="#63b8ff" d="M200,-109.98C212.9,-101.84 232.6,-89.41 247.9,-79.76"/>
<polygon fill="#63b8ff" stroke="#63b8ff" points="250.17,-82.47 256.76,-74.17 246.43,-76.55 250.17,-82.47"/>
</a>
</g>
</g>
<!-- Node12 -->
<g id="Node000012" class="node">
<title>Node12</title>
<g id="a_Node000012"><a xlink:title=" ">
<polygon fill="#e0e0e0" stroke="#999999" points="51,-74 0,-74 0,-55 51,-55 51,-74"/>
<text text-anchor="middle" x="25.5" y="-62" font-family="Helvetica,sans-Serif" font-size="10.00">typeinfo</text>
</a>
</g>
</g>
<!-- Node11&#45;&gt;Node12 -->
<g id="edge15_Node000011_Node000012" class="edge">
<title>Node11&#45;&gt;Node12</title>
<g id="a_edge15_Node000011_Node000012"><a xlink:title=" ">
<path fill="none" stroke="#63b8ff" d="M160.63,-109.98C133.56,-101.07 90.88,-87.02 60.74,-77.1"/>
<polygon fill="#63b8ff" stroke="#63b8ff" points="61.63,-73.71 51.04,-73.91 59.44,-80.36 61.63,-73.71"/>
</a>
</g>
</g>
<!-- Node13 -->
<g id="Node000013" class="node">
<title>Node13</title>
<g id="a_Node000013"><a xlink:title=" ">
<polygon fill="#e0e0e0" stroke="#999999" points="147.5,-74 69.5,-74 69.5,-55 147.5,-55 147.5,-74"/>
<text text-anchor="middle" x="108.5" y="-62" font-family="Helvetica,sans-Serif" font-size="10.00">IBK_IntPara.h</text>
</a>
</g>
</g>
<!-- Node11&#45;&gt;Node13 -->
<g id="edge17_Node000011_Node000013" class="edge">
<title>Node11&#45;&gt;Node13</title>
<g id="a_edge17_Node000011_Node000013"><a xlink:title=" ">
<path fill="none" stroke="#63b8ff" d="M173.97,-109.98C162.1,-101.92 144.04,-89.65 129.89,-80.03"/>
<polygon fill="#63b8ff" stroke="#63b8ff" points="131.5,-76.9 121.26,-74.17 127.56,-82.69 131.5,-76.9"/>
</a>
</g>
</g>
</g>
</svg>
