<?xml version="1.0" encoding="UTF-8" standalone="no"?>
<!DOCTYPE svg PUBLIC "-//W3C//DTD SVG 1.1//EN"
 "http://www.w3.org/Graphics/SVG/1.1/DTD/svg11.dtd">
<!-- Generated by graphviz version 2.43.0 (0)
 -->
<!-- Title: /home/hirth/git/SIM&#45;VICUS.master2/externals/Vicus/src/VICUS_ZoneControlThermostat.h Pages: 1 -->
<svg width="1651pt" height="401pt"
 viewBox="0.00 0.00 1651.00 401.00" xmlns="http://www.w3.org/2000/svg" xmlns:xlink="http://www.w3.org/1999/xlink">
<g id="graph0" class="graph" transform="scale(1 1) rotate(0) translate(4 397)">
<title>/home/hirth/git/SIM&#45;VICUS.master2/externals/Vicus/src/VICUS_ZoneControlThermostat.h</title>
<!-- Node1 -->
<g id="Node000001" class="node">
<title>Node1</title>
<g id="a_Node000001"><a xlink:title=" ">
<polygon fill="#999999" stroke="#666666" points="1096.5,-393 884.5,-393 884.5,-352 1096.5,-352 1096.5,-393"/>
<text text-anchor="start" x="892.5" y="-381" font-family="Helvetica,sans-Serif" font-size="10.00">/home/hirth/git/SIM</text>
<text text-anchor="start" x="892.5" y="-370" font-family="Helvetica,sans-Serif" font-size="10.00">&#45;VICUS.master2/externals</text>
<text text-anchor="middle" x="990.5" y="-359" font-family="Helvetica,sans-Serif" font-size="10.00">/Vicus/src/VICUS_ZoneControlThermostat.h</text>
</a>
</g>
</g>
<!-- Node2 -->
<g id="Node000002" class="node">
<title>Node2</title>
<g id="a_Node000002"><a xlink:href="_v_i_c_u_s___acoustic_template_8h.html" target="_top" xlink:title=" ">
<polygon fill="white" stroke="#666666" points="755,-310.5 568,-310.5 568,-269.5 755,-269.5 755,-310.5"/>
<text text-anchor="start" x="576" y="-298.5" font-family="Helvetica,sans-Serif" font-size="10.00">/home/hirth/git/SIM</text>
<text text-anchor="start" x="576" y="-287.5" font-family="Helvetica,sans-Serif" font-size="10.00">&#45;VICUS.master2/externals</text>
<text text-anchor="middle" x="661.5" y="-276.5" font-family="Helvetica,sans-Serif" font-size="10.00">/Vicus/src/VICUS_AcousticTemplate.h</text>
</a>
</g>
</g>
<!-- Node1&#45;&gt;Node2 -->
<g id="edge1_Node000001_Node000002" class="edge">
<title>Node1&#45;&gt;Node2</title>
<g id="a_edge1_Node000001_Node000002"><a xlink:title=" ">
<path fill="none" stroke="#63b8ff" d="M900.79,-349.58C859.05,-339.38 808.74,-327.07 763.5,-316 756.24,-314.22 748.69,-312.37 741.12,-310.52"/>
<polygon fill="#63b8ff" stroke="#63b8ff" points="900.11,-353.02 910.66,-351.99 901.77,-346.22 900.11,-353.02"/>
</a>
</g>
</g>
<!-- Node5 -->
<g id="Node000005" class="node">
<title>Node5</title>
<g id="a_Node000005"><a xlink:href="_v_i_c_u_s___zone_control_thermostat_8cpp.html" target="_top" xlink:title=" ">
<polygon fill="white" stroke="#666666" points="994.5,-310.5 772.5,-310.5 772.5,-269.5 994.5,-269.5 994.5,-310.5"/>
<text text-anchor="start" x="780.5" y="-298.5" font-family="Helvetica,sans-Serif" font-size="10.00">/home/hirth/git/SIM</text>
<text text-anchor="start" x="780.5" y="-287.5" font-family="Helvetica,sans-Serif" font-size="10.00">&#45;VICUS.master2/externals</text>
<text text-anchor="middle" x="883.5" y="-276.5" font-family="Helvetica,sans-Serif" font-size="10.00">/Vicus/src/VICUS_ZoneControlThermostat.cpp</text>
</a>
</g>
</g>
<!-- Node1&#45;&gt;Node5 -->
<g id="edge4_Node000001_Node000005" class="edge">
<title>Node1&#45;&gt;Node5</title>
<g id="a_edge4_Node000001_Node000005"><a xlink:title=" ">
<path fill="none" stroke="#63b8ff" d="M956.24,-345.72C941.18,-334.4 923.78,-321.31 909.78,-310.77"/>
<polygon fill="#63b8ff" stroke="#63b8ff" points="954.23,-348.59 964.32,-351.81 958.44,-343 954.23,-348.59"/>
</a>
</g>
</g>
<!-- Node6 -->
<g id="Node000006" class="node">
<title>Node6</title>
<g id="a_Node000006"><a xlink:href="_v_i_c_u_s___zone_template_8h.html" target="_top" xlink:title=" ">
<polygon fill="white" stroke="#666666" points="1182.5,-310.5 1012.5,-310.5 1012.5,-269.5 1182.5,-269.5 1182.5,-310.5"/>
<text text-anchor="start" x="1020.5" y="-298.5" font-family="Helvetica,sans-Serif" font-size="10.00">/home/hirth/git/SIM</text>
<text text-anchor="start" x="1020.5" y="-287.5" font-family="Helvetica,sans-Serif" font-size="10.00">&#45;VICUS.master2/externals</text>
<text text-anchor="middle" x="1097.5" y="-276.5" font-family="Helvetica,sans-Serif" font-size="10.00">/Vicus/src/VICUS_ZoneTemplate.h</text>
</a>
</g>
</g>
<!-- Node1&#45;&gt;Node6 -->
<g id="edge5_Node000001_Node000006" class="edge">
<title>Node1&#45;&gt;Node6</title>
<g id="a_edge5_Node000001_Node000006"><a xlink:title=" ">
<path fill="none" stroke="#63b8ff" d="M1024.76,-345.72C1039.82,-334.4 1057.22,-321.31 1071.22,-310.77"/>
<polygon fill="#63b8ff" stroke="#63b8ff" points="1022.56,-343 1016.68,-351.81 1026.77,-348.59 1022.56,-343"/>
</a>
</g>
</g>
<!-- Node21 -->
<g id="Node000021" class="node">
<title>Node21</title>
<g id="a_Node000021"><a xlink:href="ncg___v_i_c_u_s___zone_control_thermostat_8cpp.html" target="_top" xlink:title=" ">
<polygon fill="white" stroke="#666666" points="1344,-316 1201,-316 1201,-264 1344,-264 1344,-316"/>
<text text-anchor="start" x="1209" y="-304" font-family="Helvetica,sans-Serif" font-size="10.00">/home/hirth/git/SIM</text>
<text text-anchor="start" x="1209" y="-293" font-family="Helvetica,sans-Serif" font-size="10.00">&#45;VICUS.master2/externals</text>
<text text-anchor="start" x="1209" y="-282" font-family="Helvetica,sans-Serif" font-size="10.00">/Vicus/src/ncg/ncg_VICUS</text>
<text text-anchor="middle" x="1272.5" y="-271" font-family="Helvetica,sans-Serif" font-size="10.00">_ZoneControlThermostat.cpp</text>
</a>
</g>
</g>
<!-- Node1&#45;&gt;Node21 -->
<g id="edge20_Node000001_Node000021" class="edge">
<title>Node1&#45;&gt;Node21</title>
<g id="a_edge20_Node000001_Node000021"><a xlink:title=" ">
<path fill="none" stroke="#63b8ff" d="M1073.28,-349.24C1109.62,-339.32 1152.75,-327.33 1191.5,-316 1194.61,-315.09 1197.78,-314.15 1200.98,-313.2"/>
<polygon fill="#63b8ff" stroke="#63b8ff" points="1071.94,-345.98 1063.22,-351.99 1073.79,-352.73 1071.94,-345.98"/>
</a>
</g>
</g>
<!-- Node3 -->
<g id="Node000003" class="node">
<title>Node3</title>
<g id="a_Node000003"><a xlink:href="_v_i_c_u_s___acoustic_template_8cpp.html" target="_top" xlink:title=" ">
<polygon fill="white" stroke="#666666" points="599,-222.5 402,-222.5 402,-181.5 599,-181.5 599,-222.5"/>
<text text-anchor="start" x="410" y="-210.5" font-family="Helvetica,sans-Serif" font-size="10.00">/home/hirth/git/SIM</text>
<text text-anchor="start" x="410" y="-199.5" font-family="Helvetica,sans-Serif" font-size="10.00">&#45;VICUS.master2/externals</text>
<text text-anchor="middle" x="500.5" y="-188.5" font-family="Helvetica,sans-Serif" font-size="10.00">/Vicus/src/VICUS_AcousticTemplate.cpp</text>
</a>
</g>
</g>
<!-- Node2&#45;&gt;Node3 -->
<g id="edge2_Node000002_Node000003" class="edge">
<title>Node2&#45;&gt;Node3</title>
<g id="a_edge2_Node000002_Node000003"><a xlink:title=" ">
<path fill="none" stroke="#63b8ff" d="M616.05,-264.72C591.11,-251.4 560.58,-235.09 537.17,-222.59"/>
<polygon fill="#63b8ff" stroke="#63b8ff" points="614.5,-267.86 624.97,-269.49 617.8,-261.69 614.5,-267.86"/>
</a>
</g>
</g>
<!-- Node4 -->
<g id="Node000004" class="node">
<title>Node4</title>
<g id="a_Node000004"><a xlink:href="ncg___v_i_c_u_s___acoustic_template_8cpp.html" target="_top" xlink:title=" ">
<polygon fill="white" stroke="#666666" points="752,-228 617,-228 617,-176 752,-176 752,-228"/>
<text text-anchor="start" x="625" y="-216" font-family="Helvetica,sans-Serif" font-size="10.00">/home/hirth/git/SIM</text>
<text text-anchor="start" x="625" y="-205" font-family="Helvetica,sans-Serif" font-size="10.00">&#45;VICUS.master2/externals</text>
<text text-anchor="start" x="625" y="-194" font-family="Helvetica,sans-Serif" font-size="10.00">/Vicus/src/ncg/ncg_VICUS</text>
<text text-anchor="middle" x="684.5" y="-183" font-family="Helvetica,sans-Serif" font-size="10.00">_AcousticTemplate.cpp</text>
</a>
</g>
</g>
<!-- Node2&#45;&gt;Node4 -->
<g id="edge3_Node000002_Node000004" class="edge">
<title>Node2&#45;&gt;Node4</title>
<g id="a_edge3_Node000002_Node000004"><a xlink:title=" ">
<path fill="none" stroke="#63b8ff" d="M669.32,-259.76C672.05,-249.55 675.09,-238.18 677.73,-228.32"/>
<polygon fill="#63b8ff" stroke="#63b8ff" points="665.92,-258.92 666.72,-269.49 672.68,-260.73 665.92,-258.92"/>
</a>
</g>
</g>
<!-- Node7 -->
<g id="Node000007" class="node">
<title>Node7</title>
<g id="a_Node000007"><a xlink:href="_v_i_c_u_s___embedded_database_8h.html" target="_top" xlink:title=" ">
<polygon fill="white" stroke="#666666" points="989,-222.5 792,-222.5 792,-181.5 989,-181.5 989,-222.5"/>
<text text-anchor="start" x="800" y="-210.5" font-family="Helvetica,sans-Serif" font-size="10.00">/home/hirth/git/SIM</text>
<text text-anchor="start" x="800" y="-199.5" font-family="Helvetica,sans-Serif" font-size="10.00">&#45;VICUS.master2/externals</text>
<text text-anchor="middle" x="890.5" y="-188.5" font-family="Helvetica,sans-Serif" font-size="10.00">/Vicus/src/VICUS_EmbeddedDatabase.h</text>
</a>
</g>
</g>
<!-- Node6&#45;&gt;Node7 -->
<g id="edge6_Node000006_Node000007" class="edge">
<title>Node6&#45;&gt;Node7</title>
<g id="a_edge6_Node000006_Node000007"><a xlink:title=" ">
<path fill="none" stroke="#63b8ff" d="M1041.17,-265.6C1008.72,-252.12 968.4,-235.37 937.64,-222.59"/>
<polygon fill="#63b8ff" stroke="#63b8ff" points="1039.95,-268.88 1050.53,-269.49 1042.64,-262.42 1039.95,-268.88"/>
</a>
</g>
</g>
<!-- Node19 -->
<g id="Node000019" class="node">
<title>Node19</title>
<g id="a_Node000019"><a xlink:href="_v_i_c_u_s___zone_template_8cpp.html" target="_top" xlink:title=" ">
<polygon fill="white" stroke="#666666" points="1188,-222.5 1007,-222.5 1007,-181.5 1188,-181.5 1188,-222.5"/>
<text text-anchor="start" x="1015" y="-210.5" font-family="Helvetica,sans-Serif" font-size="10.00">/home/hirth/git/SIM</text>
<text text-anchor="start" x="1015" y="-199.5" font-family="Helvetica,sans-Serif" font-size="10.00">&#45;VICUS.master2/externals</text>
<text text-anchor="middle" x="1097.5" y="-188.5" font-family="Helvetica,sans-Serif" font-size="10.00">/Vicus/src/VICUS_ZoneTemplate.cpp</text>
</a>
</g>
</g>
<!-- Node6&#45;&gt;Node19 -->
<g id="edge18_Node000006_Node000019" class="edge">
<title>Node6&#45;&gt;Node19</title>
<g id="a_edge18_Node000006_Node000019"><a xlink:title=" ">
<path fill="none" stroke="#63b8ff" d="M1097.5,-259.36C1097.5,-247.26 1097.5,-233.58 1097.5,-222.74"/>
<polygon fill="#63b8ff" stroke="#63b8ff" points="1094,-259.49 1097.5,-269.49 1101,-259.49 1094,-259.49"/>
</a>
</g>
</g>
<!-- Node20 -->
<g id="Node000020" class="node">
<title>Node20</title>
<g id="a_Node000020"><a xlink:href="ncg___v_i_c_u_s___zone_template_8cpp.html" target="_top" xlink:title=" ">
<polygon fill="white" stroke="#666666" points="1341,-228 1206,-228 1206,-176 1341,-176 1341,-228"/>
<text text-anchor="start" x="1214" y="-216" font-family="Helvetica,sans-Serif" font-size="10.00">/home/hirth/git/SIM</text>
<text text-anchor="start" x="1214" y="-205" font-family="Helvetica,sans-Serif" font-size="10.00">&#45;VICUS.master2/externals</text>
<text text-anchor="start" x="1214" y="-194" font-family="Helvetica,sans-Serif" font-size="10.00">/Vicus/src/ncg/ncg_VICUS</text>
<text text-anchor="middle" x="1273.5" y="-183" font-family="Helvetica,sans-Serif" font-size="10.00">_ZoneTemplate.cpp</text>
</a>
</g>
</g>
<!-- Node6&#45;&gt;Node20 -->
<g id="edge19_Node000006_Node000020" class="edge">
<title>Node6&#45;&gt;Node20</title>
<g id="a_edge19_Node000006_Node000020"><a xlink:title=" ">
<path fill="none" stroke="#63b8ff" d="M1146.53,-265.04C1170.04,-253.55 1198.2,-239.8 1222.01,-228.16"/>
<polygon fill="#63b8ff" stroke="#63b8ff" points="1144.89,-261.95 1137.44,-269.49 1147.96,-268.24 1144.89,-261.95"/>
</a>
</g>
</g>
<!-- Node8 -->
<g id="Node000008" class="node">
<title>Node8</title>
<g id="a_Node000008"><a xlink:href="_v_i_c_u_s___project_8h.html" target="_top" xlink:title=" ">
<polygon fill="white" stroke="#666666" points="882.5,-134.5 742.5,-134.5 742.5,-93.5 882.5,-93.5 882.5,-134.5"/>
<text text-anchor="start" x="750.5" y="-122.5" font-family="Helvetica,sans-Serif" font-size="10.00">/home/hirth/git/SIM</text>
<text text-anchor="start" x="750.5" y="-111.5" font-family="Helvetica,sans-Serif" font-size="10.00">&#45;VICUS.master2/externals</text>
<text text-anchor="middle" x="812.5" y="-100.5" font-family="Helvetica,sans-Serif" font-size="10.00">/Vicus/src/VICUS_Project.h</text>
</a>
</g>
</g>
<!-- Node7&#45;&gt;Node8 -->
<g id="edge7_Node000007_Node000008" class="edge">
<title>Node7&#45;&gt;Node8</title>
<g id="a_edge7_Node000007_Node000008"><a xlink:title=" ">
<path fill="none" stroke="#63b8ff" d="M865.92,-173.9C854.41,-161.2 840.93,-146.35 830.4,-134.74"/>
<polygon fill="#63b8ff" stroke="#63b8ff" points="863.49,-176.43 872.8,-181.49 868.67,-171.73 863.49,-176.43"/>
</a>
</g>
</g>
<!-- Node18 -->
<g id="Node000018" class="node">
<title>Node18</title>
<g id="a_Node000018"><a xlink:href="ncg___v_i_c_u_s___embedded_database_8cpp.html" target="_top" xlink:title=" ">
<polygon fill="white" stroke="#666666" points="1036,-140 901,-140 901,-88 1036,-88 1036,-140"/>
<text text-anchor="start" x="909" y="-128" font-family="Helvetica,sans-Serif" font-size="10.00">/home/hirth/git/SIM</text>
<text text-anchor="start" x="909" y="-117" font-family="Helvetica,sans-Serif" font-size="10.00">&#45;VICUS.master2/externals</text>
<text text-anchor="start" x="909" y="-106" font-family="Helvetica,sans-Serif" font-size="10.00">/Vicus/src/ncg/ncg_VICUS</text>
<text text-anchor="middle" x="968.5" y="-95" font-family="Helvetica,sans-Serif" font-size="10.00">_EmbeddedDatabase.cpp</text>
</a>
</g>
</g>
<!-- Node7&#45;&gt;Node18 -->
<g id="edge17_Node000007_Node000018" class="edge">
<title>Node7&#45;&gt;Node18</title>
<g id="a_edge17_Node000007_Node000018"><a xlink:title=" ">
<path fill="none" stroke="#63b8ff" d="M915.01,-173.97C924.77,-163.21 935.94,-150.9 945.54,-140.32"/>
<polygon fill="#63b8ff" stroke="#63b8ff" points="912.33,-171.73 908.2,-181.49 917.51,-176.43 912.33,-171.73"/>
</a>
</g>
</g>
<!-- Node9 -->
<g id="Node000009" class="node">
<title>Node9</title>
<g id="a_Node000009"><a xlink:href="_v_i_c_u_s___heat_load12831_export_8cpp.html" target="_top" xlink:title=" ">
<polygon fill="white" stroke="#666666" points="169,-52 0,-52 0,0 169,0 169,-52"/>
<text text-anchor="start" x="8" y="-40" font-family="Helvetica,sans-Serif" font-size="10.00">/home/hirth/git/SIM</text>
<text text-anchor="start" x="8" y="-29" font-family="Helvetica,sans-Serif" font-size="10.00">&#45;VICUS.master2/externals</text>
<text text-anchor="start" x="8" y="-18" font-family="Helvetica,sans-Serif" font-size="10.00">/Vicus/src/VICUS_HeatLoad12831</text>
<text text-anchor="middle" x="84.5" y="-7" font-family="Helvetica,sans-Serif" font-size="10.00">Export.cpp</text>
</a>
</g>
</g>
<!-- Node8&#45;&gt;Node9 -->
<g id="edge8_Node000008_Node000009" class="edge">
<title>Node8&#45;&gt;Node9</title>
<g id="a_edge8_Node000008_Node000009"><a xlink:title=" ">
<path fill="none" stroke="#63b8ff" d="M731.81,-109.48C610.79,-103.25 375.46,-87.42 178.5,-52 175.43,-51.45 172.3,-50.84 169.16,-50.2"/>
<polygon fill="#63b8ff" stroke="#63b8ff" points="731.93,-112.99 742.09,-110 732.28,-106 731.93,-112.99"/>
</a>
</g>
</g>
<!-- Node10 -->
<g id="Node000010" class="node">
<title>Node10</title>
<g id="a_Node000010"><a xlink:href="_v_i_c_u_s___interface_heat_conduction_8cpp.html" target="_top" xlink:title=" ">
<polygon fill="white" stroke="#666666" points="347.5,-52 187.5,-52 187.5,0 347.5,0 347.5,-52"/>
<text text-anchor="start" x="195.5" y="-40" font-family="Helvetica,sans-Serif" font-size="10.00">/home/hirth/git/SIM</text>
<text text-anchor="start" x="195.5" y="-29" font-family="Helvetica,sans-Serif" font-size="10.00">&#45;VICUS.master2/externals</text>
<text text-anchor="start" x="195.5" y="-18" font-family="Helvetica,sans-Serif" font-size="10.00">/Vicus/src/VICUS_InterfaceHeat</text>
<text text-anchor="middle" x="267.5" y="-7" font-family="Helvetica,sans-Serif" font-size="10.00">Conduction.cpp</text>
</a>
</g>
</g>
<!-- Node8&#45;&gt;Node10 -->
<g id="edge9_Node000008_Node000010" class="edge">
<title>Node8&#45;&gt;Node10</title>
<g id="a_edge9_Node000008_Node000010"><a xlink:title=" ">
<path fill="none" stroke="#63b8ff" d="M732.43,-105.74C640.92,-96.64 486.94,-78.91 356.5,-52 353.67,-51.42 350.8,-50.79 347.91,-50.13"/>
<polygon fill="#63b8ff" stroke="#63b8ff" points="732.16,-109.23 742.46,-106.72 732.85,-102.26 732.16,-109.23"/>
</a>
</g>
</g>
<!-- Node11 -->
<g id="Node000011" class="node">
<title>Node11</title>
<g id="a_Node000011"><a xlink:href="_v_i_c_u_s___network_8cpp.html" target="_top" xlink:title=" ">
<polygon fill="white" stroke="#666666" points="521.5,-46.5 365.5,-46.5 365.5,-5.5 521.5,-5.5 521.5,-46.5"/>
<text text-anchor="start" x="373.5" y="-34.5" font-family="Helvetica,sans-Serif" font-size="10.00">/home/hirth/git/SIM</text>
<text text-anchor="start" x="373.5" y="-23.5" font-family="Helvetica,sans-Serif" font-size="10.00">&#45;VICUS.master2/externals</text>
<text text-anchor="middle" x="443.5" y="-12.5" font-family="Helvetica,sans-Serif" font-size="10.00">/Vicus/src/VICUS_Network.cpp</text>
</a>
</g>
</g>
<!-- Node8&#45;&gt;Node11 -->
<g id="edge10_Node000008_Node000011" class="edge">
<title>Node8&#45;&gt;Node11</title>
<g id="a_edge10_Node000008_Node000011"><a xlink:title=" ">
<path fill="none" stroke="#63b8ff" d="M732.41,-97.16C675.78,-85.6 598.21,-69.03 530.5,-52 523.79,-50.31 516.82,-48.47 509.88,-46.57"/>
<polygon fill="#63b8ff" stroke="#63b8ff" points="731.88,-100.62 742.37,-99.19 733.27,-93.76 731.88,-100.62"/>
</a>
</g>
</g>
<!-- Node12 -->
<g id="Node000012" class="node">
<title>Node12</title>
<g id="a_Node000012"><a xlink:href="_v_i_c_u_s___network_edge_8cpp.html" target="_top" xlink:title=" ">
<polygon fill="white" stroke="#666666" points="719,-46.5 540,-46.5 540,-5.5 719,-5.5 719,-46.5"/>
<text text-anchor="start" x="548" y="-34.5" font-family="Helvetica,sans-Serif" font-size="10.00">/home/hirth/git/SIM</text>
<text text-anchor="start" x="548" y="-23.5" font-family="Helvetica,sans-Serif" font-size="10.00">&#45;VICUS.master2/externals</text>
<text text-anchor="middle" x="629.5" y="-12.5" font-family="Helvetica,sans-Serif" font-size="10.00">/Vicus/src/VICUS_NetworkEdge.cpp</text>
</a>
</g>
</g>
<!-- Node8&#45;&gt;Node12 -->
<g id="edge11_Node000008_Node000012" class="edge">
<title>Node8&#45;&gt;Node12</title>
<g id="a_edge11_Node000008_Node000012"><a xlink:title=" ">
<path fill="none" stroke="#63b8ff" d="M761.59,-89.07C733.1,-75.68 698.02,-59.2 671.18,-46.59"/>
<polygon fill="#63b8ff" stroke="#63b8ff" points="760.44,-92.4 770.97,-93.49 763.41,-86.06 760.44,-92.4"/>
</a>
</g>
</g>
<!-- Node13 -->
<g id="Node000013" class="node">
<title>Node13</title>
<g id="a_Node000013"><a xlink:href="_v_i_c_u_s___project_8cpp.html" target="_top" xlink:title=" ">
<polygon fill="white" stroke="#666666" points="887.5,-46.5 737.5,-46.5 737.5,-5.5 887.5,-5.5 887.5,-46.5"/>
<text text-anchor="start" x="745.5" y="-34.5" font-family="Helvetica,sans-Serif" font-size="10.00">/home/hirth/git/SIM</text>
<text text-anchor="start" x="745.5" y="-23.5" font-family="Helvetica,sans-Serif" font-size="10.00">&#45;VICUS.master2/externals</text>
<text text-anchor="middle" x="812.5" y="-12.5" font-family="Helvetica,sans-Serif" font-size="10.00">/Vicus/src/VICUS_Project.cpp</text>
</a>
</g>
</g>
<!-- Node8&#45;&gt;Node13 -->
<g id="edge12_Node000008_Node000013" class="edge">
<title>Node8&#45;&gt;Node13</title>
<g id="a_edge12_Node000008_Node000013"><a xlink:title=" ">
<path fill="none" stroke="#63b8ff" d="M812.5,-83.36C812.5,-71.26 812.5,-57.58 812.5,-46.74"/>
<polygon fill="#63b8ff" stroke="#63b8ff" points="809,-83.49 812.5,-93.49 816,-83.49 809,-83.49"/>
</a>
</g>
</g>
<!-- Node14 -->
<g id="Node000014" class="node">
<title>Node14</title>
<g id="a_Node000014"><a xlink:href="_v_i_c_u_s___project_generator_8cpp.html" target="_top" xlink:title=" ">
<polygon fill="white" stroke="#666666" points="1097.5,-46.5 905.5,-46.5 905.5,-5.5 1097.5,-5.5 1097.5,-46.5"/>
<text text-anchor="start" x="913.5" y="-34.5" font-family="Helvetica,sans-Serif" font-size="10.00">/home/hirth/git/SIM</text>
<text text-anchor="start" x="913.5" y="-23.5" font-family="Helvetica,sans-Serif" font-size="10.00">&#45;VICUS.master2/externals</text>
<text text-anchor="middle" x="1001.5" y="-12.5" font-family="Helvetica,sans-Serif" font-size="10.00">/Vicus/src/VICUS_ProjectGenerator.cpp</text>
</a>
</g>
</g>
<!-- Node8&#45;&gt;Node14 -->
<g id="edge13_Node000008_Node000014" class="edge">
<title>Node8&#45;&gt;Node14</title>
<g id="a_edge13_Node000008_Node000014"><a xlink:title=" ">
<path fill="none" stroke="#63b8ff" d="M864.7,-89.25C894.19,-75.83 930.61,-59.26 958.46,-46.59"/>
<polygon fill="#63b8ff" stroke="#63b8ff" points="863.04,-86.16 855.39,-93.49 865.94,-92.53 863.04,-86.16"/>
</a>
</g>
</g>
<!-- Node15 -->
<g id="Node000015" class="node">
<title>Node15</title>
<g id="a_Node000015"><a xlink:href="_v_i_c_u_s___sub_network_8cpp.html" target="_top" xlink:title=" ">
<polygon fill="white" stroke="#666666" points="1289,-46.5 1116,-46.5 1116,-5.5 1289,-5.5 1289,-46.5"/>
<text text-anchor="start" x="1124" y="-34.5" font-family="Helvetica,sans-Serif" font-size="10.00">/home/hirth/git/SIM</text>
<text text-anchor="start" x="1124" y="-23.5" font-family="Helvetica,sans-Serif" font-size="10.00">&#45;VICUS.master2/externals</text>
<text text-anchor="middle" x="1202.5" y="-12.5" font-family="Helvetica,sans-Serif" font-size="10.00">/Vicus/src/VICUS_SubNetwork.cpp</text>
</a>
</g>
</g>
<!-- Node8&#45;&gt;Node15 -->
<g id="edge14_Node000008_Node000015" class="edge">
<title>Node8&#45;&gt;Node15</title>
<g id="a_edge14_Node000008_Node000015"><a xlink:title=" ">
<path fill="none" stroke="#63b8ff" d="M881.18,-90.64C884.65,-89.7 888.11,-88.82 891.5,-88 985.7,-65.33 1011.75,-72.23 1106.5,-52 1114.25,-50.35 1122.31,-48.48 1130.33,-46.53"/>
<polygon fill="#63b8ff" stroke="#63b8ff" points="880.03,-87.32 871.35,-93.38 881.92,-94.06 880.03,-87.32"/>
</a>
</g>
</g>
<!-- Node16 -->
<g id="Node000016" class="node">
<title>Node16</title>
<g id="a_Node000016"><a xlink:href="_v_i_c_u_s___supply_system_8cpp.html" target="_top" xlink:title=" ">
<polygon fill="white" stroke="#666666" points="1490,-46.5 1307,-46.5 1307,-5.5 1490,-5.5 1490,-46.5"/>
<text text-anchor="start" x="1315" y="-34.5" font-family="Helvetica,sans-Serif" font-size="10.00">/home/hirth/git/SIM</text>
<text text-anchor="start" x="1315" y="-23.5" font-family="Helvetica,sans-Serif" font-size="10.00">&#45;VICUS.master2/externals</text>
<text text-anchor="middle" x="1398.5" y="-12.5" font-family="Helvetica,sans-Serif" font-size="10.00">/Vicus/src/VICUS_SupplySystem.cpp</text>
</a>
</g>
</g>
<!-- Node8&#45;&gt;Node16 -->
<g id="edge15_Node000008_Node000016" class="edge">
<title>Node8&#45;&gt;Node16</title>
<g id="a_edge15_Node000008_Node000016"><a xlink:title=" ">
<path fill="none" stroke="#63b8ff" d="M878.93,-90.85C883.16,-89.79 887.37,-88.83 891.5,-88 1069.57,-52.39 1119.42,-82.11 1298.5,-52 1307.5,-50.49 1316.88,-48.58 1326.14,-46.51"/>
<polygon fill="#63b8ff" stroke="#63b8ff" points="877.84,-87.52 869.07,-93.47 879.64,-94.28 877.84,-87.52"/>
</a>
</g>
</g>
<!-- Node17 -->
<g id="Node000017" class="node">
<title>Node17</title>
<g id="a_Node000017"><a xlink:href="ncg___v_i_c_u_s___project_8cpp.html" target="_top" xlink:title=" ">
<polygon fill="white" stroke="#666666" points="1643,-52 1508,-52 1508,0 1643,0 1643,-52"/>
<text text-anchor="start" x="1516" y="-40" font-family="Helvetica,sans-Serif" font-size="10.00">/home/hirth/git/SIM</text>
<text text-anchor="start" x="1516" y="-29" font-family="Helvetica,sans-Serif" font-size="10.00">&#45;VICUS.master2/externals</text>
<text text-anchor="start" x="1516" y="-18" font-family="Helvetica,sans-Serif" font-size="10.00">/Vicus/src/ncg/ncg_VICUS</text>
<text text-anchor="middle" x="1575.5" y="-7" font-family="Helvetica,sans-Serif" font-size="10.00">_Project.cpp</text>
</a>
</g>
</g>
<!-- Node8&#45;&gt;Node17 -->
<g id="edge16_Node000008_Node000017" class="edge">
<title>Node8&#45;&gt;Node17</title>
<g id="a_edge16_Node000008_Node000017"><a xlink:title=" ">
<path fill="none" stroke="#63b8ff" d="M878.3,-90.85C882.74,-89.77 887.17,-88.8 891.5,-88 1157.68,-38.79 1233.6,-102.72 1499.5,-52 1502.23,-51.48 1505,-50.89 1507.78,-50.24"/>
<polygon fill="#63b8ff" stroke="#63b8ff" points="877.39,-87.47 868.6,-93.39 879.16,-94.24 877.39,-87.47"/>
</a>
</g>
</g>
</g>
</svg>
