<?xml version="1.0" encoding="UTF-8" standalone="no"?>
<!DOCTYPE svg PUBLIC "-//W3C//DTD SVG 1.1//EN"
 "http://www.w3.org/Graphics/SVG/1.1/DTD/svg11.dtd">
<!-- Generated by graphviz version 2.43.0 (0)
 -->
<!-- Title: /home/hirth/git/SIM&#45;VICUS.master2/externals/Vicus/src/VICUS_Surface.cpp Pages: 1 -->
<svg width="1350pt" height="280pt"
 viewBox="0.00 0.00 1349.50 280.00" xmlns="http://www.w3.org/2000/svg" xmlns:xlink="http://www.w3.org/1999/xlink">
<g id="graph0" class="graph" transform="scale(1 1) rotate(0) translate(4 276)">
<title>/home/hirth/git/SIM&#45;VICUS.master2/externals/Vicus/src/VICUS_Surface.cpp</title>
<!-- Node1 -->
<g id="Node000001" class="node">
<title>Node1</title>
<g id="a_Node000001"><a xlink:title=" ">
<polygon fill="#999999" stroke="#666666" points="1098.5,-272 945.5,-272 945.5,-231 1098.5,-231 1098.5,-272"/>
<text text-anchor="start" x="953.5" y="-260" font-family="Helvetica,sans-Serif" font-size="10.00">/home/hirth/git/SIM</text>
<text text-anchor="start" x="953.5" y="-249" font-family="Helvetica,sans-Serif" font-size="10.00">&#45;VICUS.master2/externals</text>
<text text-anchor="middle" x="1022" y="-238" font-family="Helvetica,sans-Serif" font-size="10.00">/Vicus/src/VICUS_Surface.cpp</text>
</a>
</g>
</g>
<!-- Node2 -->
<g id="Node000002" class="node">
<title>Node2</title>
<g id="a_Node000002"><a xlink:href="_v_i_c_u_s___surface_8h.html" target="_top" xlink:title=" ">
<polygon fill="white" stroke="#666666" points="875.5,-195 780.5,-195 780.5,-176 875.5,-176 875.5,-195"/>
<text text-anchor="middle" x="828" y="-183" font-family="Helvetica,sans-Serif" font-size="10.00">VICUS_Surface.h</text>
</a>
</g>
</g>
<!-- Node1&#45;&gt;Node2 -->
<g id="edge1_Node000001_Node000002" class="edge">
<title>Node1&#45;&gt;Node2</title>
<g id="a_edge1_Node000001_Node000002"><a xlink:title=" ">
<path fill="none" stroke="#63b8ff" d="M962.74,-230.95C930.29,-220.24 891.16,-207.34 863.45,-198.19"/>
<polygon fill="#63b8ff" stroke="#63b8ff" points="864.38,-194.82 853.79,-195.01 862.19,-201.46 864.38,-194.82"/>
</a>
</g>
</g>
<!-- Node22 -->
<g id="Node000022" class="node">
<title>Node22</title>
<g id="a_Node000022"><a xlink:title=" ">
<polygon fill="#e0e0e0" stroke="#999999" points="1022,-195 894,-195 894,-176 1022,-176 1022,-195"/>
<text text-anchor="middle" x="958" y="-183" font-family="Helvetica,sans-Serif" font-size="10.00">IBKMK_3DCalculations.h</text>
</a>
</g>
</g>
<!-- Node1&#45;&gt;Node22 -->
<g id="edge37_Node000001_Node000022" class="edge">
<title>Node1&#45;&gt;Node22</title>
<g id="a_edge37_Node000001_Node000022"><a xlink:title=" ">
<path fill="none" stroke="#63b8ff" d="M1002.45,-230.95C993.33,-221.83 982.61,-211.11 973.99,-202.49"/>
<polygon fill="#63b8ff" stroke="#63b8ff" points="976.31,-199.86 966.76,-195.26 971.36,-204.81 976.31,-199.86"/>
</a>
</g>
</g>
<!-- Node23 -->
<g id="Node000023" class="node">
<title>Node23</title>
<g id="a_Node000023"><a xlink:title=" ">
<polygon fill="#e0e0e0" stroke="#999999" points="1132,-195 1040,-195 1040,-176 1132,-176 1132,-195"/>
<text text-anchor="middle" x="1086" y="-183" font-family="Helvetica,sans-Serif" font-size="10.00">IBK_messages.h</text>
</a>
</g>
</g>
<!-- Node1&#45;&gt;Node23 -->
<g id="edge38_Node000001_Node000023" class="edge">
<title>Node1&#45;&gt;Node23</title>
<g id="a_edge38_Node000001_Node000023"><a xlink:title=" ">
<path fill="none" stroke="#63b8ff" d="M1041.55,-230.95C1050.67,-221.83 1061.39,-211.11 1070.01,-202.49"/>
<polygon fill="#63b8ff" stroke="#63b8ff" points="1072.64,-204.81 1077.24,-195.26 1067.69,-199.86 1072.64,-204.81"/>
</a>
</g>
</g>
<!-- Node24 -->
<g id="Node000024" class="node">
<title>Node24</title>
<g id="a_Node000024"><a xlink:title=" ">
<polygon fill="#e0e0e0" stroke="#999999" points="1206,-195 1150,-195 1150,-176 1206,-176 1206,-195"/>
<text text-anchor="middle" x="1178" y="-183" font-family="Helvetica,sans-Serif" font-size="10.00">tinyxml.h</text>
</a>
</g>
</g>
<!-- Node1&#45;&gt;Node24 -->
<g id="edge39_Node000001_Node000024" class="edge">
<title>Node1&#45;&gt;Node24</title>
<g id="a_edge39_Node000001_Node000024"><a xlink:title=" ">
<path fill="none" stroke="#63b8ff" d="M1069.65,-230.95C1094.98,-220.56 1125.37,-208.09 1147.51,-199.01"/>
<polygon fill="#63b8ff" stroke="#63b8ff" points="1149.13,-202.13 1157.06,-195.09 1146.48,-195.65 1149.13,-202.13"/>
</a>
</g>
</g>
<!-- Node3 -->
<g id="Node000003" class="node">
<title>Node3</title>
<g id="a_Node000003"><a xlink:href="_v_i_c_u_s___code_gen_macros_8h.html" target="_top" xlink:title=" ">
<polygon fill="white" stroke="#666666" points="519.5,-19 384.5,-19 384.5,0 519.5,0 519.5,-19"/>
<text text-anchor="middle" x="452" y="-7" font-family="Helvetica,sans-Serif" font-size="10.00">VICUS_CodeGenMacros.h</text>
</a>
</g>
</g>
<!-- Node2&#45;&gt;Node3 -->
<g id="edge2_Node000002_Node000003" class="edge">
<title>Node2&#45;&gt;Node3</title>
<g id="a_edge2_Node000002_Node000003"><a xlink:title=" ">
<path fill="none" stroke="#63b8ff" d="M780.31,-182.48C708.86,-177.06 573.3,-157.24 488,-85 470.91,-70.53 461.29,-46.07 456.37,-29.14"/>
<polygon fill="#63b8ff" stroke="#63b8ff" points="459.71,-28.07 453.79,-19.28 452.94,-29.85 459.71,-28.07"/>
</a>
</g>
</g>
<!-- Node4 -->
<g id="Node000004" class="node">
<title>Node4</title>
<g id="a_Node000004"><a xlink:href="_v_i_c_u_s___constants_8h.html" target="_top" xlink:title="Contains global constants for the SIM&#45;VICUS data model.">
<polygon fill="white" stroke="#666666" points="883.5,-19 776.5,-19 776.5,0 883.5,0 883.5,-19"/>
<text text-anchor="middle" x="830" y="-7" font-family="Helvetica,sans-Serif" font-size="10.00">VICUS_Constants.h</text>
</a>
</g>
</g>
<!-- Node2&#45;&gt;Node4 -->
<g id="edge3_Node000002_Node000004" class="edge">
<title>Node2&#45;&gt;Node4</title>
<g id="a_edge3_Node000002_Node000004"><a xlink:title=" ">
<path fill="none" stroke="#63b8ff" d="M828.1,-175.63C828.41,-148.64 829.35,-67.03 829.78,-29.61"/>
<polygon fill="#63b8ff" stroke="#63b8ff" points="833.29,-29.18 829.9,-19.14 826.29,-29.1 833.29,-29.18"/>
</a>
</g>
</g>
<!-- Node5 -->
<g id="Node000005" class="node">
<title>Node5</title>
<g id="a_Node000005"><a xlink:href="_v_i_c_u_s___plane_geometry_8h.html" target="_top" xlink:title=" ">
<polygon fill="white" stroke="#666666" points="446,-140 318,-140 318,-121 446,-121 446,-140"/>
<text text-anchor="middle" x="382" y="-128" font-family="Helvetica,sans-Serif" font-size="10.00">VICUS_PlaneGeometry.h</text>
</a>
</g>
</g>
<!-- Node2&#45;&gt;Node5 -->
<g id="edge4_Node000002_Node000005" class="edge">
<title>Node2&#45;&gt;Node5</title>
<g id="a_edge4_Node000002_Node000005"><a xlink:title=" ">
<path fill="none" stroke="#63b8ff" d="M780.27,-178.83C702.62,-169.6 548.38,-151.27 456.29,-140.33"/>
<polygon fill="#63b8ff" stroke="#63b8ff" points="456.55,-136.83 446.21,-139.13 455.72,-143.79 456.55,-136.83"/>
</a>
</g>
</g>
<!-- Node7 -->
<g id="Node000007" class="node">
<title>Node7</title>
<g id="a_Node000007"><a xlink:href="_v_i_c_u_s___object_8h.html" target="_top" xlink:title=" ">
<polygon fill="white" stroke="#666666" points="762,-79.5 672,-79.5 672,-60.5 762,-60.5 762,-79.5"/>
<text text-anchor="middle" x="717" y="-67.5" font-family="Helvetica,sans-Serif" font-size="10.00">VICUS_Object.h</text>
</a>
</g>
</g>
<!-- Node2&#45;&gt;Node7 -->
<g id="edge21_Node000002_Node000007" class="edge">
<title>Node2&#45;&gt;Node7</title>
<g id="a_edge21_Node000002_Node000007"><a xlink:title=" ">
<path fill="none" stroke="#63b8ff" d="M816.81,-175.77C805.97,-167.12 789.27,-153.28 776,-140 759.21,-123.2 741.74,-102.26 730.21,-87.89"/>
<polygon fill="#63b8ff" stroke="#63b8ff" points="732.81,-85.54 723.86,-79.88 727.33,-89.89 732.81,-85.54"/>
</a>
</g>
</g>
<!-- Node10 -->
<g id="Node000010" class="node">
<title>Node10</title>
<g id="a_Node000010"><a xlink:title=" ">
<polygon fill="#e0e0e0" stroke="#999999" points="952,-19 902,-19 902,0 952,0 952,-19"/>
<text text-anchor="middle" x="927" y="-7" font-family="Helvetica,sans-Serif" font-size="10.00">QString</text>
</a>
</g>
</g>
<!-- Node2&#45;&gt;Node10 -->
<g id="edge35_Node000002_Node000010" class="edge">
<title>Node2&#45;&gt;Node10</title>
<g id="a_edge35_Node000002_Node000010"><a xlink:title=" ">
<path fill="none" stroke="#63b8ff" d="M833.05,-175.63C848.6,-148.29 896.05,-64.9 916.94,-28.18"/>
<polygon fill="#63b8ff" stroke="#63b8ff" points="920.18,-29.57 922.08,-19.14 914.09,-26.1 920.18,-29.57"/>
</a>
</g>
</g>
<!-- Node11 -->
<g id="Node000011" class="node">
<title>Node11</title>
<g id="a_Node000011"><a xlink:href="_v_i_c_u_s___polygon3_d_8h.html" target="_top" xlink:title=" ">
<polygon fill="white" stroke="#666666" points="218,-79.5 108,-79.5 108,-60.5 218,-60.5 218,-79.5"/>
<text text-anchor="middle" x="163" y="-67.5" font-family="Helvetica,sans-Serif" font-size="10.00">VICUS_Polygon3D.h</text>
</a>
</g>
</g>
<!-- Node2&#45;&gt;Node11 -->
<g id="edge32_Node000002_Node000011" class="edge">
<title>Node2&#45;&gt;Node11</title>
<g id="a_edge32_Node000002_Node000011"><a xlink:title=" ">
<path fill="none" stroke="#63b8ff" d="M780.24,-182.57C669.34,-177.74 397.19,-163.79 309,-140 263,-127.59 213.72,-101.24 185.8,-84.94"/>
<polygon fill="#63b8ff" stroke="#63b8ff" points="187.24,-81.72 176.85,-79.63 183.67,-87.74 187.24,-81.72"/>
</a>
</g>
</g>
<!-- Node17 -->
<g id="Node000017" class="node">
<title>Node17</title>
<g id="a_Node000017"><a xlink:href="_v_i_c_u_s___sub_surface_8h.html" target="_top" xlink:title=" ">
<polygon fill="white" stroke="#666666" points="1007.5,-140 894.5,-140 894.5,-121 1007.5,-121 1007.5,-140"/>
<text text-anchor="middle" x="951" y="-128" font-family="Helvetica,sans-Serif" font-size="10.00">VICUS_SubSurface.h</text>
</a>
</g>
</g>
<!-- Node2&#45;&gt;Node17 -->
<g id="edge22_Node000002_Node000017" class="edge">
<title>Node2&#45;&gt;Node17</title>
<g id="a_edge22_Node000002_Node000017"><a xlink:title=" ">
<path fill="none" stroke="#63b8ff" d="M847.76,-175.98C867.73,-167.38 898.8,-153.99 921.65,-144.15"/>
<polygon fill="#63b8ff" stroke="#63b8ff" points="923.08,-147.34 930.88,-140.17 920.31,-140.91 923.08,-147.34"/>
</a>
</g>
</g>
<!-- Node18 -->
<g id="Node000018" class="node">
<title>Node18</title>
<g id="a_Node000018"><a xlink:title=" ">
<polygon fill="#e0e0e0" stroke="#999999" points="1157.5,-79.5 1018.5,-79.5 1018.5,-60.5 1157.5,-60.5 1157.5,-79.5"/>
<text text-anchor="middle" x="1088" y="-67.5" font-family="Helvetica,sans-Serif" font-size="10.00">NANDRAD_IDVectorMap.h</text>
</a>
</g>
</g>
<!-- Node2&#45;&gt;Node18 -->
<g id="edge34_Node000002_Node000018" class="edge">
<title>Node2&#45;&gt;Node18</title>
<g id="a_edge34_Node000002_Node000018"><a xlink:title=" ">
<path fill="none" stroke="#63b8ff" d="M875.61,-176.29C923.3,-167.54 992.98,-153.16 1017,-140 1040.91,-126.9 1062.45,-103.54 1075.38,-87.67"/>
<polygon fill="#63b8ff" stroke="#63b8ff" points="1078.19,-89.75 1081.63,-79.73 1072.69,-85.42 1078.19,-89.75"/>
</a>
</g>
</g>
<!-- Node19 -->
<g id="Node000019" class="node">
<title>Node19</title>
<g id="a_Node000019"><a xlink:title=" ">
<polygon fill="#e0e0e0" stroke="#999999" points="1276,-79.5 1176,-79.5 1176,-60.5 1276,-60.5 1276,-79.5"/>
<text text-anchor="middle" x="1226" y="-67.5" font-family="Helvetica,sans-Serif" font-size="10.00">IBK_LinearSpline.h</text>
</a>
</g>
</g>
<!-- Node2&#45;&gt;Node19 -->
<g id="edge33_Node000002_Node000019" class="edge">
<title>Node2&#45;&gt;Node19</title>
<g id="a_edge33_Node000002_Node000019"><a xlink:title=" ">
<path fill="none" stroke="#63b8ff" d="M875.72,-176.92C919.85,-169.38 987.01,-156.56 1044,-140 1099.32,-123.93 1161.67,-98.66 1197.15,-83.58"/>
<polygon fill="#63b8ff" stroke="#63b8ff" points="1198.61,-86.76 1206.42,-79.61 1195.85,-80.33 1198.61,-86.76"/>
</a>
</g>
</g>
<!-- Node21 -->
<g id="Node000021" class="node">
<title>Node21</title>
<g id="a_Node000021"><a xlink:title=" ">
<polygon fill="#e0e0e0" stroke="#999999" points="1341.5,-79.5 1294.5,-79.5 1294.5,-60.5 1341.5,-60.5 1341.5,-79.5"/>
<text text-anchor="middle" x="1318" y="-67.5" font-family="Helvetica,sans-Serif" font-size="10.00">QColor</text>
</a>
</g>
</g>
<!-- Node2&#45;&gt;Node21 -->
<g id="edge36_Node000002_Node000021" class="edge">
<title>Node2&#45;&gt;Node21</title>
<g id="a_edge36_Node000002_Node000021"><a xlink:title=" ">
<path fill="none" stroke="#63b8ff" d="M875.68,-176.81C938.61,-166.57 1046,-148.72 1085,-140 1174.97,-119.89 1197.93,-115.29 1285,-85 1286.43,-84.5 1287.89,-83.97 1289.36,-83.42"/>
<polygon fill="#63b8ff" stroke="#63b8ff" points="1290.98,-86.54 1298.97,-79.58 1288.39,-80.04 1290.98,-86.54"/>
</a>
</g>
</g>
<!-- Node5&#45;&gt;Node3 -->
<g id="edge6_Node000005_Node000003" class="edge">
<title>Node5&#45;&gt;Node3</title>
<g id="a_edge6_Node000005_Node000003"><a xlink:title=" ">
<path fill="none" stroke="#63b8ff" d="M389.88,-120.74C397.42,-112.07 408.85,-98.22 417,-85 428.34,-66.62 438.49,-43.98 444.9,-28.51"/>
<polygon fill="#63b8ff" stroke="#63b8ff" points="448.21,-29.67 448.71,-19.09 441.72,-27.05 448.21,-29.67"/>
</a>
</g>
</g>
<!-- Node6 -->
<g id="Node000006" class="node">
<title>Node6</title>
<g id="a_Node000006"><a xlink:title=" ">
<polygon fill="#e0e0e0" stroke="#999999" points="231.5,-19 128.5,-19 128.5,0 231.5,0 231.5,-19"/>
<text text-anchor="middle" x="180" y="-7" font-family="Helvetica,sans-Serif" font-size="10.00">IBKMK_Vector3D.h</text>
</a>
</g>
</g>
<!-- Node5&#45;&gt;Node6 -->
<g id="edge5_Node000005_Node000006" class="edge">
<title>Node5&#45;&gt;Node6</title>
<g id="a_edge5_Node000005_Node000006"><a xlink:title=" ">
<path fill="none" stroke="#63b8ff" d="M350.82,-120.97C326.42,-113.53 292.19,-101.36 265,-85 250.45,-76.25 216.74,-45.29 196.41,-26.15"/>
<polygon fill="#63b8ff" stroke="#63b8ff" points="198.77,-23.56 189.1,-19.23 193.96,-28.64 198.77,-23.56"/>
</a>
</g>
</g>
<!-- Node5&#45;&gt;Node7 -->
<g id="edge7_Node000005_Node000007" class="edge">
<title>Node5&#45;&gt;Node7</title>
<g id="a_edge7_Node000005_Node000007"><a xlink:title=" ">
<path fill="none" stroke="#63b8ff" d="M443.86,-120.97C500.16,-112.87 585.46,-99.76 659,-85 663.76,-84.04 668.73,-82.97 673.66,-81.85"/>
<polygon fill="#63b8ff" stroke="#63b8ff" points="674.72,-85.19 683.67,-79.51 673.13,-78.38 674.72,-85.19"/>
</a>
</g>
</g>
<!-- Node5&#45;&gt;Node11 -->
<g id="edge12_Node000005_Node000011" class="edge">
<title>Node5&#45;&gt;Node11</title>
<g id="a_edge12_Node000005_Node000011"><a xlink:title=" ">
<path fill="none" stroke="#63b8ff" d="M350.16,-120.99C311.72,-110.73 246.97,-93.43 204.61,-82.12"/>
<polygon fill="#63b8ff" stroke="#63b8ff" points="205.45,-78.72 194.88,-79.52 203.64,-85.48 205.45,-78.72"/>
</a>
</g>
</g>
<!-- Node13 -->
<g id="Node000013" class="node">
<title>Node13</title>
<g id="a_Node000013"><a xlink:href="_v_i_c_u_s___polygon2_d_8h.html" target="_top" xlink:title=" ">
<polygon fill="white" stroke="#666666" points="650,-79.5 540,-79.5 540,-60.5 650,-60.5 650,-79.5"/>
<text text-anchor="middle" x="595" y="-67.5" font-family="Helvetica,sans-Serif" font-size="10.00">VICUS_Polygon2D.h</text>
</a>
</g>
</g>
<!-- Node5&#45;&gt;Node13 -->
<g id="edge15_Node000005_Node000013" class="edge">
<title>Node5&#45;&gt;Node13</title>
<g id="a_edge15_Node000005_Node000013"><a xlink:title=" ">
<path fill="none" stroke="#63b8ff" d="M412.97,-120.99C450.28,-110.75 513.06,-93.5 554.27,-82.19"/>
<polygon fill="#63b8ff" stroke="#63b8ff" points="555.27,-85.54 563.99,-79.52 553.42,-78.79 555.27,-85.54"/>
</a>
</g>
</g>
<!-- Node15 -->
<g id="Node000015" class="node">
<title>Node15</title>
<g id="a_Node000015"><a xlink:href="_v_i_c_u_s___plane_triangulation_data_8h.html" target="_top" xlink:title=" ">
<polygon fill="white" stroke="#666666" points="408,-85 274,-85 274,-55 408,-55 408,-85"/>
<text text-anchor="start" x="282" y="-73" font-family="Helvetica,sans-Serif" font-size="10.00">VICUS_PlaneTriangulation</text>
<text text-anchor="middle" x="341" y="-62" font-family="Helvetica,sans-Serif" font-size="10.00">Data.h</text>
</a>
</g>
</g>
<!-- Node5&#45;&gt;Node15 -->
<g id="edge18_Node000005_Node000015" class="edge">
<title>Node5&#45;&gt;Node15</title>
<g id="a_edge18_Node000005_Node000015"><a xlink:title=" ">
<path fill="none" stroke="#63b8ff" d="M375.95,-120.87C370.9,-113.67 363.48,-103.07 356.76,-93.49"/>
<polygon fill="#63b8ff" stroke="#63b8ff" points="359.5,-91.29 350.89,-85.11 353.77,-95.31 359.5,-91.29"/>
</a>
</g>
</g>
<!-- Node7&#45;&gt;Node4 -->
<g id="edge11_Node000007_Node000004" class="edge">
<title>Node7&#45;&gt;Node4</title>
<g id="a_edge11_Node000007_Node000004"><a xlink:title=" ">
<path fill="none" stroke="#63b8ff" d="M733.67,-60.37C752.28,-50.73 782.62,-35.03 804.28,-23.81"/>
<polygon fill="#63b8ff" stroke="#63b8ff" points="805.99,-26.87 813.26,-19.17 802.77,-20.66 805.99,-26.87"/>
</a>
</g>
</g>
<!-- Node8 -->
<g id="Node000008" class="node">
<title>Node8</title>
<g id="a_Node000008"><a xlink:title=" ">
<polygon fill="#e0e0e0" stroke="#999999" points="758,-19 714,-19 714,0 758,0 758,-19"/>
<text text-anchor="middle" x="736" y="-7" font-family="Helvetica,sans-Serif" font-size="10.00">vector</text>
</a>
</g>
</g>
<!-- Node7&#45;&gt;Node8 -->
<g id="edge8_Node000007_Node000008" class="edge">
<title>Node7&#45;&gt;Node8</title>
<g id="a_edge8_Node000007_Node000008"><a xlink:title=" ">
<path fill="none" stroke="#63b8ff" d="M719.8,-60.37C722.5,-52.07 726.65,-39.28 730.08,-28.72"/>
<polygon fill="#63b8ff" stroke="#63b8ff" points="733.42,-29.76 733.18,-19.17 726.77,-27.6 733.42,-29.76"/>
</a>
</g>
</g>
<!-- Node9 -->
<g id="Node000009" class="node">
<title>Node9</title>
<g id="a_Node000009"><a xlink:title=" ">
<polygon fill="#e0e0e0" stroke="#999999" points="696,-19 666,-19 666,0 696,0 696,-19"/>
<text text-anchor="middle" x="681" y="-7" font-family="Helvetica,sans-Serif" font-size="10.00">set</text>
</a>
</g>
</g>
<!-- Node7&#45;&gt;Node9 -->
<g id="edge9_Node000007_Node000009" class="edge">
<title>Node7&#45;&gt;Node9</title>
<g id="a_edge9_Node000007_Node000009"><a xlink:title=" ">
<path fill="none" stroke="#63b8ff" d="M711.69,-60.37C706.42,-51.81 698.21,-38.47 691.61,-27.74"/>
<polygon fill="#63b8ff" stroke="#63b8ff" points="694.56,-25.85 686.33,-19.17 688.59,-29.52 694.56,-25.85"/>
</a>
</g>
</g>
<!-- Node7&#45;&gt;Node10 -->
<g id="edge10_Node000007_Node000010" class="edge">
<title>Node7&#45;&gt;Node10</title>
<g id="a_edge10_Node000007_Node000010"><a xlink:title=" ">
<path fill="none" stroke="#63b8ff" d="M747.54,-60.49C785.92,-49.8 851.65,-31.49 892.02,-20.25"/>
<polygon fill="#63b8ff" stroke="#63b8ff" points="893.01,-23.6 901.7,-17.55 891.13,-16.86 893.01,-23.6"/>
</a>
</g>
</g>
<!-- Node11&#45;&gt;Node3 -->
<g id="edge14_Node000011_Node000003" class="edge">
<title>Node11&#45;&gt;Node3</title>
<g id="a_edge14_Node000011_Node000003"><a xlink:title=" ">
<path fill="none" stroke="#63b8ff" d="M205.02,-60.49C256.6,-50.05 344.08,-32.35 399.89,-21.05"/>
<polygon fill="#63b8ff" stroke="#63b8ff" points="400.82,-24.43 409.93,-19.02 399.43,-17.57 400.82,-24.43"/>
</a>
</g>
</g>
<!-- Node12 -->
<g id="Node000012" class="node">
<title>Node12</title>
<g id="a_Node000012"><a xlink:title=" ">
<polygon fill="#e0e0e0" stroke="#999999" points="110,-19 0,-19 0,0 110,0 110,-19"/>
<text text-anchor="middle" x="55" y="-7" font-family="Helvetica,sans-Serif" font-size="10.00">IBKMK_Polygon3D.h</text>
</a>
</g>
</g>
<!-- Node11&#45;&gt;Node12 -->
<g id="edge13_Node000011_Node000012" class="edge">
<title>Node11&#45;&gt;Node12</title>
<g id="a_edge13_Node000011_Node000012"><a xlink:title=" ">
<path fill="none" stroke="#63b8ff" d="M147.06,-60.37C129.36,-50.78 100.54,-35.17 79.86,-23.97"/>
<polygon fill="#63b8ff" stroke="#63b8ff" points="81.46,-20.85 71,-19.17 78.13,-27.01 81.46,-20.85"/>
</a>
</g>
</g>
<!-- Node13&#45;&gt;Node3 -->
<g id="edge17_Node000013_Node000003" class="edge">
<title>Node13&#45;&gt;Node3</title>
<g id="a_edge17_Node000013_Node000003"><a xlink:title=" ">
<path fill="none" stroke="#63b8ff" d="M574.21,-60.49C550.06,-50.62 510.02,-34.23 482.38,-22.93"/>
<polygon fill="#63b8ff" stroke="#63b8ff" points="483.4,-19.56 472.82,-19.02 480.75,-26.04 483.4,-19.56"/>
</a>
</g>
</g>
<!-- Node14 -->
<g id="Node000014" class="node">
<title>Node14</title>
<g id="a_Node000014"><a xlink:title=" ">
<polygon fill="#e0e0e0" stroke="#999999" points="648,-19 538,-19 538,0 648,0 648,-19"/>
<text text-anchor="middle" x="593" y="-7" font-family="Helvetica,sans-Serif" font-size="10.00">IBKMK_Polygon2D.h</text>
</a>
</g>
</g>
<!-- Node13&#45;&gt;Node14 -->
<g id="edge16_Node000013_Node000014" class="edge">
<title>Node13&#45;&gt;Node14</title>
<g id="a_edge16_Node000013_Node000014"><a xlink:title=" ">
<path fill="none" stroke="#63b8ff" d="M594.7,-60.37C594.43,-52.25 594,-39.81 593.65,-29.39"/>
<polygon fill="#63b8ff" stroke="#63b8ff" points="597.14,-29.04 593.3,-19.17 590.14,-29.28 597.14,-29.04"/>
</a>
</g>
</g>
<!-- Node15&#45;&gt;Node6 -->
<g id="edge19_Node000015_Node000006" class="edge">
<title>Node15&#45;&gt;Node6</title>
<g id="a_edge19_Node000015_Node000006"><a xlink:title=" ">
<path fill="none" stroke="#63b8ff" d="M302.44,-54.99C275.21,-45.1 239.12,-31.98 213.18,-22.56"/>
<polygon fill="#63b8ff" stroke="#63b8ff" points="214.37,-19.26 203.78,-19.14 211.98,-25.84 214.37,-19.26"/>
</a>
</g>
</g>
<!-- Node16 -->
<g id="Node000016" class="node">
<title>Node16</title>
<g id="a_Node000016"><a xlink:title=" ">
<polygon fill="#e0e0e0" stroke="#999999" points="366.5,-19 249.5,-19 249.5,0 366.5,0 366.5,-19"/>
<text text-anchor="middle" x="308" y="-7" font-family="Helvetica,sans-Serif" font-size="10.00">IBKMK_Triangulation.h</text>
</a>
</g>
</g>
<!-- Node15&#45;&gt;Node16 -->
<g id="edge20_Node000015_Node000016" class="edge">
<title>Node15&#45;&gt;Node16</title>
<g id="a_edge20_Node000015_Node000016"><a xlink:title=" ">
<path fill="none" stroke="#63b8ff" d="M333.01,-54.84C328.47,-46.78 322.73,-36.62 317.9,-28.06"/>
<polygon fill="#63b8ff" stroke="#63b8ff" points="320.91,-26.26 312.94,-19.27 314.81,-29.7 320.91,-26.26"/>
</a>
</g>
</g>
<!-- Node17&#45;&gt;Node3 -->
<g id="edge23_Node000017_Node000003" class="edge">
<title>Node17&#45;&gt;Node3</title>
<g id="a_edge23_Node000017_Node000003"><a xlink:title=" ">
<path fill="none" stroke="#63b8ff" d="M894.27,-127.95C794.99,-124.51 594.29,-114.09 531,-85 502.99,-72.13 478.54,-45.31 464.52,-27.61"/>
<polygon fill="#63b8ff" stroke="#63b8ff" points="467.03,-25.13 458.18,-19.31 461.47,-29.38 467.03,-25.13"/>
</a>
</g>
</g>
<!-- Node17&#45;&gt;Node4 -->
<g id="edge24_Node000017_Node000004" class="edge">
<title>Node17&#45;&gt;Node4</title>
<g id="a_edge24_Node000017_Node000004"><a xlink:title=" ">
<path fill="none" stroke="#63b8ff" d="M942.3,-120.94C922.16,-101.14 872.11,-51.91 846.17,-26.4"/>
<polygon fill="#63b8ff" stroke="#63b8ff" points="848.53,-23.82 838.95,-19.3 843.63,-28.81 848.53,-23.82"/>
</a>
</g>
</g>
<!-- Node17&#45;&gt;Node7 -->
<g id="edge26_Node000017_Node000007" class="edge">
<title>Node17&#45;&gt;Node7</title>
<g id="a_edge26_Node000017_Node000007"><a xlink:title=" ">
<path fill="none" stroke="#63b8ff" d="M916.97,-120.99C875.73,-110.68 806.14,-93.28 760.89,-81.97"/>
<polygon fill="#63b8ff" stroke="#63b8ff" points="761.62,-78.55 751.07,-79.52 759.92,-85.34 761.62,-78.55"/>
</a>
</g>
</g>
<!-- Node17&#45;&gt;Node10 -->
<g id="edge30_Node000017_Node000010" class="edge">
<title>Node17&#45;&gt;Node10</title>
<g id="a_edge30_Node000017_Node000010"><a xlink:title=" ">
<path fill="none" stroke="#63b8ff" d="M943.33,-120.7C936.48,-112.21 926.95,-98.68 923,-85 917.69,-66.57 919.86,-44.54 922.63,-29.24"/>
<polygon fill="#63b8ff" stroke="#63b8ff" points="926.06,-29.93 924.66,-19.43 919.21,-28.51 926.06,-29.93"/>
</a>
</g>
</g>
<!-- Node17&#45;&gt;Node13 -->
<g id="edge25_Node000017_Node000013" class="edge">
<title>Node17&#45;&gt;Node13</title>
<g id="a_edge25_Node000017_Node000013"><a xlink:title=" ">
<path fill="none" stroke="#63b8ff" d="M894.3,-121.59C836.12,-113.27 743.04,-99.41 663,-85 657.15,-83.95 651.03,-82.78 644.96,-81.58"/>
<polygon fill="#63b8ff" stroke="#63b8ff" points="645.34,-78.09 634.85,-79.55 643.96,-84.95 645.34,-78.09"/>
</a>
</g>
</g>
<!-- Node17&#45;&gt;Node18 -->
<g id="edge27_Node000017_Node000018" class="edge">
<title>Node17&#45;&gt;Node18</title>
<g id="a_edge27_Node000017_Node000018"><a xlink:title=" ">
<path fill="none" stroke="#63b8ff" d="M970.92,-120.99C993.95,-111.16 1032.08,-94.88 1058.54,-83.58"/>
<polygon fill="#63b8ff" stroke="#63b8ff" points="1060.23,-86.66 1068.05,-79.52 1057.48,-80.22 1060.23,-86.66"/>
</a>
</g>
</g>
<!-- Node17&#45;&gt;Node19 -->
<g id="edge28_Node000017_Node000019" class="edge">
<title>Node17&#45;&gt;Node19</title>
<g id="a_edge28_Node000017_Node000019"><a xlink:title=" ">
<path fill="none" stroke="#63b8ff" d="M994.52,-120.93C1038.2,-112.24 1107.38,-98.21 1167,-85 1171.46,-84.01 1176.1,-82.96 1180.73,-81.89"/>
<polygon fill="#63b8ff" stroke="#63b8ff" points="1181.84,-85.22 1190.79,-79.54 1180.25,-78.4 1181.84,-85.22"/>
</a>
</g>
</g>
<!-- Node20 -->
<g id="Node000020" class="node">
<title>Node20</title>
<g id="a_Node000020"><a xlink:title=" ">
<polygon fill="#e0e0e0" stroke="#999999" points="1000,-79.5 932,-79.5 932,-60.5 1000,-60.5 1000,-79.5"/>
<text text-anchor="middle" x="966" y="-67.5" font-family="Helvetica,sans-Serif" font-size="10.00">IBK_point.h</text>
</a>
</g>
</g>
<!-- Node17&#45;&gt;Node20 -->
<g id="edge29_Node000017_Node000020" class="edge">
<title>Node17&#45;&gt;Node20</title>
<g id="a_edge29_Node000017_Node000020"><a xlink:title=" ">
<path fill="none" stroke="#63b8ff" d="M953.21,-120.87C955.32,-112.66 958.55,-100.04 961.24,-89.55"/>
<polygon fill="#63b8ff" stroke="#63b8ff" points="964.68,-90.22 963.78,-79.67 957.9,-88.48 964.68,-90.22"/>
</a>
</g>
</g>
<!-- Node17&#45;&gt;Node21 -->
<g id="edge31_Node000017_Node000021" class="edge">
<title>Node17&#45;&gt;Node21</title>
<g id="a_edge31_Node000017_Node000021"><a xlink:title=" ">
<path fill="none" stroke="#63b8ff" d="M1007.76,-126.59C1074.96,-122.08 1189.78,-111.03 1285,-85 1286.89,-84.48 1288.82,-83.88 1290.74,-83.22"/>
<polygon fill="#63b8ff" stroke="#63b8ff" points="1292.08,-86.46 1300.16,-79.6 1289.57,-79.92 1292.08,-86.46"/>
</a>
</g>
</g>
</g>
</svg>
