<?xml version="1.0" encoding="UTF-8" standalone="no"?>
<!DOCTYPE svg PUBLIC "-//W3C//DTD SVG 1.1//EN"
 "http://www.w3.org/Graphics/SVG/1.1/DTD/svg11.dtd">
<!-- Generated by graphviz version 2.43.0 (0)
 -->
<!-- Title: /home/hirth/git/SIM&#45;VICUS.master2/externals/Vicus/src/VICUS_InterfaceHeatConduction.h Pages: 1 -->
<svg width="1740pt" height="500pt"
 viewBox="0.00 0.00 1740.00 500.00" xmlns="http://www.w3.org/2000/svg" xmlns:xlink="http://www.w3.org/1999/xlink">
<g id="graph0" class="graph" transform="scale(1 1) rotate(0) translate(4 496)">
<title>/home/hirth/git/SIM&#45;VICUS.master2/externals/Vicus/src/VICUS_InterfaceHeatConduction.h</title>
<!-- Node1 -->
<g id="Node000001" class="node">
<title>Node1</title>
<g id="a_Node000001"><a xlink:title=" ">
<polygon fill="#999999" stroke="#666666" points="1635.5,-492 1475.5,-492 1475.5,-440 1635.5,-440 1635.5,-492"/>
<text text-anchor="start" x="1483.5" y="-480" font-family="Helvetica,sans-Serif" font-size="10.00">/home/hirth/git/SIM</text>
<text text-anchor="start" x="1483.5" y="-469" font-family="Helvetica,sans-Serif" font-size="10.00">&#45;VICUS.master2/externals</text>
<text text-anchor="start" x="1483.5" y="-458" font-family="Helvetica,sans-Serif" font-size="10.00">/Vicus/src/VICUS_InterfaceHeat</text>
<text text-anchor="middle" x="1555.5" y="-447" font-family="Helvetica,sans-Serif" font-size="10.00">Conduction.h</text>
</a>
</g>
</g>
<!-- Node2 -->
<g id="Node000002" class="node">
<title>Node2</title>
<g id="a_Node000002"><a xlink:href="_v_i_c_u_s___boundary_condition_8h.html" target="_top" xlink:title=" ">
<polygon fill="white" stroke="#666666" points="1232,-398.5 1041,-398.5 1041,-357.5 1232,-357.5 1232,-398.5"/>
<text text-anchor="start" x="1049" y="-386.5" font-family="Helvetica,sans-Serif" font-size="10.00">/home/hirth/git/SIM</text>
<text text-anchor="start" x="1049" y="-375.5" font-family="Helvetica,sans-Serif" font-size="10.00">&#45;VICUS.master2/externals</text>
<text text-anchor="middle" x="1136.5" y="-364.5" font-family="Helvetica,sans-Serif" font-size="10.00">/Vicus/src/VICUS_BoundaryCondition.h</text>
</a>
</g>
</g>
<!-- Node1&#45;&gt;Node2 -->
<g id="edge1_Node000001_Node000002" class="edge">
<title>Node1&#45;&gt;Node2</title>
<g id="a_edge1_Node000001_Node000002"><a xlink:title=" ">
<path fill="none" stroke="#63b8ff" d="M1465.23,-446.47C1396.33,-432.33 1301.62,-412.89 1231.56,-398.51"/>
<polygon fill="#63b8ff" stroke="#63b8ff" points="1464.71,-449.94 1475.21,-448.52 1466.12,-443.08 1464.71,-449.94"/>
</a>
</g>
</g>
<!-- Node9 -->
<g id="Node000009" class="node">
<title>Node9</title>
<g id="a_Node000009"><a xlink:href="_v_i_c_u_s___interface_heat_conduction_8cpp.html" target="_top" xlink:title=" ">
<polygon fill="white" stroke="#666666" points="1643.5,-52 1483.5,-52 1483.5,0 1643.5,0 1643.5,-52"/>
<text text-anchor="start" x="1491.5" y="-40" font-family="Helvetica,sans-Serif" font-size="10.00">/home/hirth/git/SIM</text>
<text text-anchor="start" x="1491.5" y="-29" font-family="Helvetica,sans-Serif" font-size="10.00">&#45;VICUS.master2/externals</text>
<text text-anchor="start" x="1491.5" y="-18" font-family="Helvetica,sans-Serif" font-size="10.00">/Vicus/src/VICUS_InterfaceHeat</text>
<text text-anchor="middle" x="1563.5" y="-7" font-family="Helvetica,sans-Serif" font-size="10.00">Conduction.cpp</text>
</a>
</g>
</g>
<!-- Node1&#45;&gt;Node9 -->
<g id="edge24_Node000001_Node000009" class="edge">
<title>Node1&#45;&gt;Node9</title>
<g id="a_edge24_Node000001_Node000009"><a xlink:title=" ">
<path fill="none" stroke="#63b8ff" d="M1555.5,-429.71C1555.5,-394.55 1555.5,-339.05 1555.5,-291 1555.5,-291 1555.5,-291 1555.5,-201 1555.5,-147.93 1559.26,-85.85 1561.62,-52.05"/>
<polygon fill="#63b8ff" stroke="#63b8ff" points="1552,-429.93 1555.5,-439.93 1559,-429.93 1552,-429.93"/>
</a>
</g>
</g>
<!-- Node23 -->
<g id="Node000023" class="node">
<title>Node23</title>
<g id="a_Node000023"><a xlink:href="ncg___v_i_c_u_s___interface_heat_conduction_8cpp.html" target="_top" xlink:title=" ">
<polygon fill="white" stroke="#666666" points="1732,-404 1583,-404 1583,-352 1732,-352 1732,-404"/>
<text text-anchor="start" x="1591" y="-392" font-family="Helvetica,sans-Serif" font-size="10.00">/home/hirth/git/SIM</text>
<text text-anchor="start" x="1591" y="-381" font-family="Helvetica,sans-Serif" font-size="10.00">&#45;VICUS.master2/externals</text>
<text text-anchor="start" x="1591" y="-370" font-family="Helvetica,sans-Serif" font-size="10.00">/Vicus/src/ncg/ncg_VICUS</text>
<text text-anchor="middle" x="1657.5" y="-359" font-family="Helvetica,sans-Serif" font-size="10.00">_InterfaceHeatConduction.cpp</text>
</a>
</g>
</g>
<!-- Node1&#45;&gt;Node23 -->
<g id="edge25_Node000001_Node000023" class="edge">
<title>Node1&#45;&gt;Node23</title>
<g id="a_edge25_Node000001_Node000023"><a xlink:title=" ">
<path fill="none" stroke="#63b8ff" d="M1592.97,-433.41C1604.35,-423.82 1616.69,-413.41 1627.51,-404.29"/>
<polygon fill="#63b8ff" stroke="#63b8ff" points="1590.67,-430.77 1585.28,-439.89 1595.18,-436.12 1590.67,-430.77"/>
</a>
</g>
</g>
<!-- Node3 -->
<g id="Node000003" class="node">
<title>Node3</title>
<g id="a_Node000003"><a xlink:href="_v_i_c_u_s___boundary_condition_8cpp.html" target="_top" xlink:title=" ">
<polygon fill="white" stroke="#666666" points="864.5,-310.5 662.5,-310.5 662.5,-269.5 864.5,-269.5 864.5,-310.5"/>
<text text-anchor="start" x="670.5" y="-298.5" font-family="Helvetica,sans-Serif" font-size="10.00">/home/hirth/git/SIM</text>
<text text-anchor="start" x="670.5" y="-287.5" font-family="Helvetica,sans-Serif" font-size="10.00">&#45;VICUS.master2/externals</text>
<text text-anchor="middle" x="763.5" y="-276.5" font-family="Helvetica,sans-Serif" font-size="10.00">/Vicus/src/VICUS_BoundaryCondition.cpp</text>
</a>
</g>
</g>
<!-- Node2&#45;&gt;Node3 -->
<g id="edge2_Node000002_Node000003" class="edge">
<title>Node2&#45;&gt;Node3</title>
<g id="a_edge2_Node000002_Node000003"><a xlink:title=" ">
<path fill="none" stroke="#63b8ff" d="M1042.05,-355.22C982.35,-341.46 905.85,-323.82 848.13,-310.51"/>
<polygon fill="#63b8ff" stroke="#63b8ff" points="1041.33,-358.65 1051.86,-357.49 1042.9,-351.83 1041.33,-358.65"/>
</a>
</g>
</g>
<!-- Node4 -->
<g id="Node000004" class="node">
<title>Node4</title>
<g id="a_Node000004"><a xlink:href="_v_i_c_u_s___component_8h.html" target="_top" xlink:title=" ">
<polygon fill="white" stroke="#666666" points="1042,-310.5 883,-310.5 883,-269.5 1042,-269.5 1042,-310.5"/>
<text text-anchor="start" x="891" y="-298.5" font-family="Helvetica,sans-Serif" font-size="10.00">/home/hirth/git/SIM</text>
<text text-anchor="start" x="891" y="-287.5" font-family="Helvetica,sans-Serif" font-size="10.00">&#45;VICUS.master2/externals</text>
<text text-anchor="middle" x="962.5" y="-276.5" font-family="Helvetica,sans-Serif" font-size="10.00">/Vicus/src/VICUS_Component.h</text>
</a>
</g>
</g>
<!-- Node2&#45;&gt;Node4 -->
<g id="edge3_Node000002_Node000004" class="edge">
<title>Node2&#45;&gt;Node4</title>
<g id="a_edge3_Node000002_Node000004"><a xlink:title=" ">
<path fill="none" stroke="#63b8ff" d="M1087.74,-352.9C1060.71,-339.54 1027.54,-323.15 1002.13,-310.59"/>
<polygon fill="#63b8ff" stroke="#63b8ff" points="1086.5,-356.19 1097.02,-357.49 1089.6,-349.92 1086.5,-356.19"/>
</a>
</g>
</g>
<!-- Node6 -->
<g id="Node000006" class="node">
<title>Node6</title>
<g id="a_Node000006"><a xlink:href="_v_i_c_u_s___embedded_database_8h.html" target="_top" xlink:title=" ">
<polygon fill="white" stroke="#666666" points="1121,-222.5 924,-222.5 924,-181.5 1121,-181.5 1121,-222.5"/>
<text text-anchor="start" x="932" y="-210.5" font-family="Helvetica,sans-Serif" font-size="10.00">/home/hirth/git/SIM</text>
<text text-anchor="start" x="932" y="-199.5" font-family="Helvetica,sans-Serif" font-size="10.00">&#45;VICUS.master2/externals</text>
<text text-anchor="middle" x="1022.5" y="-188.5" font-family="Helvetica,sans-Serif" font-size="10.00">/Vicus/src/VICUS_EmbeddedDatabase.h</text>
</a>
</g>
</g>
<!-- Node2&#45;&gt;Node6 -->
<g id="edge18_Node000002_Node000006" class="edge">
<title>Node2&#45;&gt;Node6</title>
<g id="a_edge18_Node000002_Node000006"><a xlink:title=" ">
<path fill="none" stroke="#63b8ff" d="M1113.63,-349.61C1105.39,-339.31 1096.22,-327.34 1088.5,-316 1067.02,-284.45 1045.31,-245.64 1032.92,-222.69"/>
<polygon fill="#63b8ff" stroke="#63b8ff" points="1110.99,-351.9 1120,-357.47 1116.43,-347.49 1110.99,-351.9"/>
</a>
</g>
</g>
<!-- Node19 -->
<g id="Node000019" class="node">
<title>Node19</title>
<g id="a_Node000019"><a xlink:href="_v_i_c_u_s___sub_surface_component_8h.html" target="_top" xlink:title=" ">
<polygon fill="white" stroke="#666666" points="1307.5,-310.5 1097.5,-310.5 1097.5,-269.5 1307.5,-269.5 1307.5,-310.5"/>
<text text-anchor="start" x="1105.5" y="-298.5" font-family="Helvetica,sans-Serif" font-size="10.00">/home/hirth/git/SIM</text>
<text text-anchor="start" x="1105.5" y="-287.5" font-family="Helvetica,sans-Serif" font-size="10.00">&#45;VICUS.master2/externals</text>
<text text-anchor="middle" x="1202.5" y="-276.5" font-family="Helvetica,sans-Serif" font-size="10.00">/Vicus/src/VICUS_SubSurfaceComponent.h</text>
</a>
</g>
</g>
<!-- Node2&#45;&gt;Node19 -->
<g id="edge19_Node000002_Node000019" class="edge">
<title>Node2&#45;&gt;Node19</title>
<g id="a_edge19_Node000002_Node000019"><a xlink:title=" ">
<path fill="none" stroke="#63b8ff" d="M1157.57,-349.54C1167.26,-336.92 1178.52,-322.24 1187.35,-310.74"/>
<polygon fill="#63b8ff" stroke="#63b8ff" points="1154.79,-347.42 1151.48,-357.49 1160.34,-351.68 1154.79,-347.42"/>
</a>
</g>
</g>
<!-- Node22 -->
<g id="Node000022" class="node">
<title>Node22</title>
<g id="a_Node000022"><a xlink:href="ncg___v_i_c_u_s___boundary_condition_8cpp.html" target="_top" xlink:title=" ">
<polygon fill="white" stroke="#666666" points="1461,-316 1326,-316 1326,-264 1461,-264 1461,-316"/>
<text text-anchor="start" x="1334" y="-304" font-family="Helvetica,sans-Serif" font-size="10.00">/home/hirth/git/SIM</text>
<text text-anchor="start" x="1334" y="-293" font-family="Helvetica,sans-Serif" font-size="10.00">&#45;VICUS.master2/externals</text>
<text text-anchor="start" x="1334" y="-282" font-family="Helvetica,sans-Serif" font-size="10.00">/Vicus/src/ncg/ncg_VICUS</text>
<text text-anchor="middle" x="1393.5" y="-271" font-family="Helvetica,sans-Serif" font-size="10.00">_BoundaryCondition.cpp</text>
</a>
</g>
</g>
<!-- Node2&#45;&gt;Node22 -->
<g id="edge23_Node000002_Node000022" class="edge">
<title>Node2&#45;&gt;Node22</title>
<g id="a_edge23_Node000002_Node000022"><a xlink:title=" ">
<path fill="none" stroke="#63b8ff" d="M1204.64,-354.2C1242.12,-341.66 1288.47,-326.15 1325.87,-313.63"/>
<polygon fill="#63b8ff" stroke="#63b8ff" points="1203.19,-350.99 1194.82,-357.49 1205.41,-357.63 1203.19,-350.99"/>
</a>
</g>
</g>
<!-- Node5 -->
<g id="Node000005" class="node">
<title>Node5</title>
<g id="a_Node000005"><a xlink:href="_v_i_c_u_s___component_8cpp.html" target="_top" xlink:title=" ">
<polygon fill="white" stroke="#666666" points="752.5,-222.5 582.5,-222.5 582.5,-181.5 752.5,-181.5 752.5,-222.5"/>
<text text-anchor="start" x="590.5" y="-210.5" font-family="Helvetica,sans-Serif" font-size="10.00">/home/hirth/git/SIM</text>
<text text-anchor="start" x="590.5" y="-199.5" font-family="Helvetica,sans-Serif" font-size="10.00">&#45;VICUS.master2/externals</text>
<text text-anchor="middle" x="667.5" y="-188.5" font-family="Helvetica,sans-Serif" font-size="10.00">/Vicus/src/VICUS_Component.cpp</text>
</a>
</g>
</g>
<!-- Node4&#45;&gt;Node5 -->
<g id="edge4_Node000004_Node000005" class="edge">
<title>Node4&#45;&gt;Node5</title>
<g id="a_edge4_Node000004_Node000005"><a xlink:title=" ">
<path fill="none" stroke="#63b8ff" d="M885.75,-266.63C838.84,-252.95 779.42,-235.63 734.43,-222.51"/>
<polygon fill="#63b8ff" stroke="#63b8ff" points="884.98,-270.05 895.56,-269.49 886.94,-263.33 884.98,-270.05"/>
</a>
</g>
</g>
<!-- Node4&#45;&gt;Node6 -->
<g id="edge5_Node000004_Node000006" class="edge">
<title>Node4&#45;&gt;Node6</title>
<g id="a_edge5_Node000004_Node000006"><a xlink:title=" ">
<path fill="none" stroke="#63b8ff" d="M981.91,-261.18C990.65,-248.64 1000.78,-234.13 1008.73,-222.74"/>
<polygon fill="#63b8ff" stroke="#63b8ff" points="978.97,-259.28 976.11,-269.49 984.71,-263.29 978.97,-259.28"/>
</a>
</g>
</g>
<!-- Node18 -->
<g id="Node000018" class="node">
<title>Node18</title>
<g id="a_Node000018"><a xlink:href="ncg___v_i_c_u_s___component_8cpp.html" target="_top" xlink:title=" ">
<polygon fill="white" stroke="#666666" points="906,-228 771,-228 771,-176 906,-176 906,-228"/>
<text text-anchor="start" x="779" y="-216" font-family="Helvetica,sans-Serif" font-size="10.00">/home/hirth/git/SIM</text>
<text text-anchor="start" x="779" y="-205" font-family="Helvetica,sans-Serif" font-size="10.00">&#45;VICUS.master2/externals</text>
<text text-anchor="start" x="779" y="-194" font-family="Helvetica,sans-Serif" font-size="10.00">/Vicus/src/ncg/ncg_VICUS</text>
<text text-anchor="middle" x="838.5" y="-183" font-family="Helvetica,sans-Serif" font-size="10.00">_Component.cpp</text>
</a>
</g>
</g>
<!-- Node4&#45;&gt;Node18 -->
<g id="edge17_Node000004_Node000018" class="edge">
<title>Node4&#45;&gt;Node18</title>
<g id="a_edge17_Node000004_Node000018"><a xlink:title=" ">
<path fill="none" stroke="#63b8ff" d="M925.77,-263.53C909.75,-252.41 891,-239.41 875,-228.32"/>
<polygon fill="#63b8ff" stroke="#63b8ff" points="924.15,-266.66 934.36,-269.49 928.14,-260.91 924.15,-266.66"/>
</a>
</g>
</g>
<!-- Node7 -->
<g id="Node000007" class="node">
<title>Node7</title>
<g id="a_Node000007"><a xlink:href="_v_i_c_u_s___project_8h.html" target="_top" xlink:title=" ">
<polygon fill="white" stroke="#666666" points="922.5,-134.5 782.5,-134.5 782.5,-93.5 922.5,-93.5 922.5,-134.5"/>
<text text-anchor="start" x="790.5" y="-122.5" font-family="Helvetica,sans-Serif" font-size="10.00">/home/hirth/git/SIM</text>
<text text-anchor="start" x="790.5" y="-111.5" font-family="Helvetica,sans-Serif" font-size="10.00">&#45;VICUS.master2/externals</text>
<text text-anchor="middle" x="852.5" y="-100.5" font-family="Helvetica,sans-Serif" font-size="10.00">/Vicus/src/VICUS_Project.h</text>
</a>
</g>
</g>
<!-- Node6&#45;&gt;Node7 -->
<g id="edge6_Node000006_Node000007" class="edge">
<title>Node6&#45;&gt;Node7</title>
<g id="a_edge6_Node000006_Node000007"><a xlink:title=" ">
<path fill="none" stroke="#63b8ff" d="M974.86,-176.9C948.45,-163.54 916.05,-147.15 891.22,-134.59"/>
<polygon fill="#63b8ff" stroke="#63b8ff" points="973.42,-180.09 983.92,-181.49 976.58,-173.85 973.42,-180.09"/>
</a>
</g>
</g>
<!-- Node17 -->
<g id="Node000017" class="node">
<title>Node17</title>
<g id="a_Node000017"><a xlink:href="ncg___v_i_c_u_s___embedded_database_8cpp.html" target="_top" xlink:title=" ">
<polygon fill="white" stroke="#666666" points="1090,-140 955,-140 955,-88 1090,-88 1090,-140"/>
<text text-anchor="start" x="963" y="-128" font-family="Helvetica,sans-Serif" font-size="10.00">/home/hirth/git/SIM</text>
<text text-anchor="start" x="963" y="-117" font-family="Helvetica,sans-Serif" font-size="10.00">&#45;VICUS.master2/externals</text>
<text text-anchor="start" x="963" y="-106" font-family="Helvetica,sans-Serif" font-size="10.00">/Vicus/src/ncg/ncg_VICUS</text>
<text text-anchor="middle" x="1022.5" y="-95" font-family="Helvetica,sans-Serif" font-size="10.00">_EmbeddedDatabase.cpp</text>
</a>
</g>
</g>
<!-- Node6&#45;&gt;Node17 -->
<g id="edge16_Node000006_Node000017" class="edge">
<title>Node6&#45;&gt;Node17</title>
<g id="a_edge16_Node000006_Node000017"><a xlink:title=" ">
<path fill="none" stroke="#63b8ff" d="M1022.5,-171.44C1022.5,-161.31 1022.5,-150.08 1022.5,-140.32"/>
<polygon fill="#63b8ff" stroke="#63b8ff" points="1019,-171.49 1022.5,-181.49 1026,-171.49 1019,-171.49"/>
</a>
</g>
</g>
<!-- Node8 -->
<g id="Node000008" class="node">
<title>Node8</title>
<g id="a_Node000008"><a xlink:href="_v_i_c_u_s___heat_load12831_export_8cpp.html" target="_top" xlink:title=" ">
<polygon fill="white" stroke="#666666" points="169,-52 0,-52 0,0 169,0 169,-52"/>
<text text-anchor="start" x="8" y="-40" font-family="Helvetica,sans-Serif" font-size="10.00">/home/hirth/git/SIM</text>
<text text-anchor="start" x="8" y="-29" font-family="Helvetica,sans-Serif" font-size="10.00">&#45;VICUS.master2/externals</text>
<text text-anchor="start" x="8" y="-18" font-family="Helvetica,sans-Serif" font-size="10.00">/Vicus/src/VICUS_HeatLoad12831</text>
<text text-anchor="middle" x="84.5" y="-7" font-family="Helvetica,sans-Serif" font-size="10.00">Export.cpp</text>
</a>
</g>
</g>
<!-- Node7&#45;&gt;Node8 -->
<g id="edge7_Node000007_Node000008" class="edge">
<title>Node7&#45;&gt;Node8</title>
<g id="a_edge7_Node000007_Node000008"><a xlink:title=" ">
<path fill="none" stroke="#63b8ff" d="M772.09,-110.13C645.13,-104.62 390.84,-89.56 178.5,-52 175.42,-51.46 172.3,-50.86 169.16,-50.22"/>
<polygon fill="#63b8ff" stroke="#63b8ff" points="771.98,-113.63 782.12,-110.56 772.28,-106.64 771.98,-113.63"/>
</a>
</g>
</g>
<!-- Node7&#45;&gt;Node9 -->
<g id="edge8_Node000007_Node000009" class="edge">
<title>Node7&#45;&gt;Node9</title>
<g id="a_edge8_Node000007_Node000009"><a xlink:title=" ">
<path fill="none" stroke="#63b8ff" d="M928.97,-91.18C934.54,-89.98 940.09,-88.9 945.5,-88 1177.94,-49.23 1242.28,-92.08 1474.5,-52 1477.35,-51.51 1480.23,-50.96 1483.14,-50.37"/>
<polygon fill="#63b8ff" stroke="#63b8ff" points="927.93,-87.83 918.96,-93.46 929.48,-94.66 927.93,-87.83"/>
</a>
</g>
</g>
<!-- Node10 -->
<g id="Node000010" class="node">
<title>Node10</title>
<g id="a_Node000010"><a xlink:href="_v_i_c_u_s___network_8cpp.html" target="_top" xlink:title=" ">
<polygon fill="white" stroke="#666666" points="343.5,-46.5 187.5,-46.5 187.5,-5.5 343.5,-5.5 343.5,-46.5"/>
<text text-anchor="start" x="195.5" y="-34.5" font-family="Helvetica,sans-Serif" font-size="10.00">/home/hirth/git/SIM</text>
<text text-anchor="start" x="195.5" y="-23.5" font-family="Helvetica,sans-Serif" font-size="10.00">&#45;VICUS.master2/externals</text>
<text text-anchor="middle" x="265.5" y="-12.5" font-family="Helvetica,sans-Serif" font-size="10.00">/Vicus/src/VICUS_Network.cpp</text>
</a>
</g>
</g>
<!-- Node7&#45;&gt;Node10 -->
<g id="edge9_Node000007_Node000010" class="edge">
<title>Node7&#45;&gt;Node10</title>
<g id="a_edge9_Node000007_Node000010"><a xlink:title=" ">
<path fill="none" stroke="#63b8ff" d="M772.12,-107.14C672.8,-98.99 499,-81.79 352.5,-52 344.95,-50.47 337.11,-48.6 329.36,-46.59"/>
<polygon fill="#63b8ff" stroke="#63b8ff" points="772.13,-110.65 782.38,-107.97 772.69,-103.67 772.13,-110.65"/>
</a>
</g>
</g>
<!-- Node11 -->
<g id="Node000011" class="node">
<title>Node11</title>
<g id="a_Node000011"><a xlink:href="_v_i_c_u_s___network_edge_8cpp.html" target="_top" xlink:title=" ">
<polygon fill="white" stroke="#666666" points="541,-46.5 362,-46.5 362,-5.5 541,-5.5 541,-46.5"/>
<text text-anchor="start" x="370" y="-34.5" font-family="Helvetica,sans-Serif" font-size="10.00">/home/hirth/git/SIM</text>
<text text-anchor="start" x="370" y="-23.5" font-family="Helvetica,sans-Serif" font-size="10.00">&#45;VICUS.master2/externals</text>
<text text-anchor="middle" x="451.5" y="-12.5" font-family="Helvetica,sans-Serif" font-size="10.00">/Vicus/src/VICUS_NetworkEdge.cpp</text>
</a>
</g>
</g>
<!-- Node7&#45;&gt;Node11 -->
<g id="edge10_Node000007_Node000011" class="edge">
<title>Node7&#45;&gt;Node11</title>
<g id="a_edge10_Node000007_Node000011"><a xlink:title=" ">
<path fill="none" stroke="#63b8ff" d="M772.47,-97.92C711.48,-86.17 625.48,-69.03 550.5,-52 542.98,-50.29 535.16,-48.44 527.35,-46.55"/>
<polygon fill="#63b8ff" stroke="#63b8ff" points="771.94,-101.38 782.42,-99.84 773.26,-94.51 771.94,-101.38"/>
</a>
</g>
</g>
<!-- Node12 -->
<g id="Node000012" class="node">
<title>Node12</title>
<g id="a_Node000012"><a xlink:href="_v_i_c_u_s___project_8cpp.html" target="_top" xlink:title=" ">
<polygon fill="white" stroke="#666666" points="709.5,-46.5 559.5,-46.5 559.5,-5.5 709.5,-5.5 709.5,-46.5"/>
<text text-anchor="start" x="567.5" y="-34.5" font-family="Helvetica,sans-Serif" font-size="10.00">/home/hirth/git/SIM</text>
<text text-anchor="start" x="567.5" y="-23.5" font-family="Helvetica,sans-Serif" font-size="10.00">&#45;VICUS.master2/externals</text>
<text text-anchor="middle" x="634.5" y="-12.5" font-family="Helvetica,sans-Serif" font-size="10.00">/Vicus/src/VICUS_Project.cpp</text>
</a>
</g>
</g>
<!-- Node7&#45;&gt;Node12 -->
<g id="edge11_Node000007_Node000012" class="edge">
<title>Node7&#45;&gt;Node12</title>
<g id="a_edge11_Node000007_Node000012"><a xlink:title=" ">
<path fill="none" stroke="#63b8ff" d="M793.61,-89.77C759.37,-76.26 716.68,-59.42 684.15,-46.59"/>
<polygon fill="#63b8ff" stroke="#63b8ff" points="792.45,-93.07 803.03,-93.49 795.01,-86.56 792.45,-93.07"/>
</a>
</g>
</g>
<!-- Node13 -->
<g id="Node000013" class="node">
<title>Node13</title>
<g id="a_Node000013"><a xlink:href="_v_i_c_u_s___project_generator_8cpp.html" target="_top" xlink:title=" ">
<polygon fill="white" stroke="#666666" points="919.5,-46.5 727.5,-46.5 727.5,-5.5 919.5,-5.5 919.5,-46.5"/>
<text text-anchor="start" x="735.5" y="-34.5" font-family="Helvetica,sans-Serif" font-size="10.00">/home/hirth/git/SIM</text>
<text text-anchor="start" x="735.5" y="-23.5" font-family="Helvetica,sans-Serif" font-size="10.00">&#45;VICUS.master2/externals</text>
<text text-anchor="middle" x="823.5" y="-12.5" font-family="Helvetica,sans-Serif" font-size="10.00">/Vicus/src/VICUS_ProjectGenerator.cpp</text>
</a>
</g>
</g>
<!-- Node7&#45;&gt;Node13 -->
<g id="edge12_Node000007_Node000013" class="edge">
<title>Node7&#45;&gt;Node13</title>
<g id="a_edge12_Node000007_Node000013"><a xlink:title=" ">
<path fill="none" stroke="#63b8ff" d="M842.63,-83.73C838.52,-71.53 833.85,-57.69 830.15,-46.74"/>
<polygon fill="#63b8ff" stroke="#63b8ff" points="839.41,-85.13 845.92,-93.49 846.04,-82.89 839.41,-85.13"/>
</a>
</g>
</g>
<!-- Node14 -->
<g id="Node000014" class="node">
<title>Node14</title>
<g id="a_Node000014"><a xlink:href="_v_i_c_u_s___sub_network_8cpp.html" target="_top" xlink:title=" ">
<polygon fill="white" stroke="#666666" points="1111,-46.5 938,-46.5 938,-5.5 1111,-5.5 1111,-46.5"/>
<text text-anchor="start" x="946" y="-34.5" font-family="Helvetica,sans-Serif" font-size="10.00">/home/hirth/git/SIM</text>
<text text-anchor="start" x="946" y="-23.5" font-family="Helvetica,sans-Serif" font-size="10.00">&#45;VICUS.master2/externals</text>
<text text-anchor="middle" x="1024.5" y="-12.5" font-family="Helvetica,sans-Serif" font-size="10.00">/Vicus/src/VICUS_SubNetwork.cpp</text>
</a>
</g>
</g>
<!-- Node7&#45;&gt;Node14 -->
<g id="edge13_Node000007_Node000014" class="edge">
<title>Node7&#45;&gt;Node14</title>
<g id="a_edge13_Node000007_Node000014"><a xlink:title=" ">
<path fill="none" stroke="#63b8ff" d="M900.7,-88.9C927.42,-75.54 960.21,-59.15 985.33,-46.59"/>
<polygon fill="#63b8ff" stroke="#63b8ff" points="898.91,-85.88 891.53,-93.49 902.04,-92.14 898.91,-85.88"/>
</a>
</g>
</g>
<!-- Node15 -->
<g id="Node000015" class="node">
<title>Node15</title>
<g id="a_Node000015"><a xlink:href="_v_i_c_u_s___supply_system_8cpp.html" target="_top" xlink:title=" ">
<polygon fill="white" stroke="#666666" points="1312,-46.5 1129,-46.5 1129,-5.5 1312,-5.5 1312,-46.5"/>
<text text-anchor="start" x="1137" y="-34.5" font-family="Helvetica,sans-Serif" font-size="10.00">/home/hirth/git/SIM</text>
<text text-anchor="start" x="1137" y="-23.5" font-family="Helvetica,sans-Serif" font-size="10.00">&#45;VICUS.master2/externals</text>
<text text-anchor="middle" x="1220.5" y="-12.5" font-family="Helvetica,sans-Serif" font-size="10.00">/Vicus/src/VICUS_SupplySystem.cpp</text>
</a>
</g>
</g>
<!-- Node7&#45;&gt;Node15 -->
<g id="edge14_Node000007_Node000015" class="edge">
<title>Node7&#45;&gt;Node15</title>
<g id="a_edge14_Node000007_Node000015"><a xlink:title=" ">
<path fill="none" stroke="#63b8ff" d="M932.42,-91.19C936.84,-90.09 941.22,-89.02 945.5,-88 1022.33,-69.74 1042.49,-69.49 1119.5,-52 1127.07,-50.28 1134.95,-48.43 1142.82,-46.55"/>
<polygon fill="#63b8ff" stroke="#63b8ff" points="931.55,-87.8 922.72,-93.66 933.27,-94.59 931.55,-87.8"/>
</a>
</g>
</g>
<!-- Node16 -->
<g id="Node000016" class="node">
<title>Node16</title>
<g id="a_Node000016"><a xlink:href="ncg___v_i_c_u_s___project_8cpp.html" target="_top" xlink:title=" ">
<polygon fill="white" stroke="#666666" points="1465,-52 1330,-52 1330,0 1465,0 1465,-52"/>
<text text-anchor="start" x="1338" y="-40" font-family="Helvetica,sans-Serif" font-size="10.00">/home/hirth/git/SIM</text>
<text text-anchor="start" x="1338" y="-29" font-family="Helvetica,sans-Serif" font-size="10.00">&#45;VICUS.master2/externals</text>
<text text-anchor="start" x="1338" y="-18" font-family="Helvetica,sans-Serif" font-size="10.00">/Vicus/src/ncg/ncg_VICUS</text>
<text text-anchor="middle" x="1397.5" y="-7" font-family="Helvetica,sans-Serif" font-size="10.00">_Project.cpp</text>
</a>
</g>
</g>
<!-- Node7&#45;&gt;Node16 -->
<g id="edge15_Node000007_Node000016" class="edge">
<title>Node7&#45;&gt;Node16</title>
<g id="a_edge15_Node000007_Node000016"><a xlink:title=" ">
<path fill="none" stroke="#63b8ff" d="M930.04,-91.12C935.25,-89.97 940.44,-88.92 945.5,-88 1110.69,-58.11 1157.2,-86.44 1321.5,-52 1324.22,-51.43 1326.98,-50.8 1329.75,-50.11"/>
<polygon fill="#63b8ff" stroke="#63b8ff" points="928.97,-87.78 920.01,-93.44 930.54,-94.6 928.97,-87.78"/>
</a>
</g>
</g>
<!-- Node19&#45;&gt;Node6 -->
<g id="edge20_Node000019_Node000006" class="edge">
<title>Node19&#45;&gt;Node6</title>
<g id="a_edge20_Node000019_Node000006"><a xlink:title=" ">
<path fill="none" stroke="#63b8ff" d="M1152.42,-265.07C1124.4,-251.68 1089.9,-235.2 1063.49,-222.59"/>
<polygon fill="#63b8ff" stroke="#63b8ff" points="1151.12,-268.33 1161.66,-269.49 1154.14,-262.02 1151.12,-268.33"/>
</a>
</g>
</g>
<!-- Node20 -->
<g id="Node000020" class="node">
<title>Node20</title>
<g id="a_Node000020"><a xlink:href="_v_i_c_u_s___sub_surface_component_8cpp.html" target="_top" xlink:title=" ">
<polygon fill="white" stroke="#666666" points="1360,-222.5 1139,-222.5 1139,-181.5 1360,-181.5 1360,-222.5"/>
<text text-anchor="start" x="1147" y="-210.5" font-family="Helvetica,sans-Serif" font-size="10.00">/home/hirth/git/SIM</text>
<text text-anchor="start" x="1147" y="-199.5" font-family="Helvetica,sans-Serif" font-size="10.00">&#45;VICUS.master2/externals</text>
<text text-anchor="middle" x="1249.5" y="-188.5" font-family="Helvetica,sans-Serif" font-size="10.00">/Vicus/src/VICUS_SubSurfaceComponent.cpp</text>
</a>
</g>
</g>
<!-- Node19&#45;&gt;Node20 -->
<g id="edge21_Node000019_Node000020" class="edge">
<title>Node19&#45;&gt;Node20</title>
<g id="a_edge21_Node000019_Node000020"><a xlink:title=" ">
<path fill="none" stroke="#63b8ff" d="M1218.1,-260.46C1224.86,-248.09 1232.61,-233.91 1238.71,-222.74"/>
<polygon fill="#63b8ff" stroke="#63b8ff" points="1214.89,-259.03 1213.17,-269.49 1221.03,-262.39 1214.89,-259.03"/>
</a>
</g>
</g>
<!-- Node21 -->
<g id="Node000021" class="node">
<title>Node21</title>
<g id="a_Node000021"><a xlink:href="ncg___v_i_c_u_s___sub_surface_component_8cpp.html" target="_top" xlink:title=" ">
<polygon fill="white" stroke="#666666" points="1520.5,-228 1378.5,-228 1378.5,-176 1520.5,-176 1520.5,-228"/>
<text text-anchor="start" x="1386.5" y="-216" font-family="Helvetica,sans-Serif" font-size="10.00">/home/hirth/git/SIM</text>
<text text-anchor="start" x="1386.5" y="-205" font-family="Helvetica,sans-Serif" font-size="10.00">&#45;VICUS.master2/externals</text>
<text text-anchor="start" x="1386.5" y="-194" font-family="Helvetica,sans-Serif" font-size="10.00">/Vicus/src/ncg/ncg_VICUS</text>
<text text-anchor="middle" x="1449.5" y="-183" font-family="Helvetica,sans-Serif" font-size="10.00">_SubSurfaceComponent.cpp</text>
</a>
</g>
</g>
<!-- Node19&#45;&gt;Node21 -->
<g id="edge22_Node000019_Node000021" class="edge">
<title>Node19&#45;&gt;Node21</title>
<g id="a_edge22_Node000019_Node000021"><a xlink:title=" ">
<path fill="none" stroke="#63b8ff" d="M1268.35,-266.07C1302.21,-254.28 1343.54,-239.89 1378.16,-227.84"/>
<polygon fill="#63b8ff" stroke="#63b8ff" points="1266.84,-262.89 1258.55,-269.49 1269.14,-269.5 1266.84,-262.89"/>
</a>
</g>
</g>
</g>
</svg>
