<?xml version="1.0" encoding="UTF-8" standalone="no"?>
<!DOCTYPE svg PUBLIC "-//W3C//DTD SVG 1.1//EN"
 "http://www.w3.org/Graphics/SVG/1.1/DTD/svg11.dtd">
<!-- Generated by graphviz version 2.43.0 (0)
 -->
<!-- Title: /home/hirth/git/SIM&#45;VICUS.master2/externals/Vicus/src/VICUS_NetworkController.h Pages: 1 -->
<svg width="1403pt" height="280pt"
 viewBox="0.00 0.00 1403.37 280.00" xmlns="http://www.w3.org/2000/svg" xmlns:xlink="http://www.w3.org/1999/xlink">
<g id="graph0" class="graph" transform="scale(1 1) rotate(0) translate(4 276)">
<title>/home/hirth/git/SIM&#45;VICUS.master2/externals/Vicus/src/VICUS_NetworkController.h</title>
<!-- Node1 -->
<g id="Node000001" class="node">
<title>Node1</title>
<g id="a_Node000001"><a xlink:title=" ">
<polygon fill="#999999" stroke="#666666" points="528.37,-272 341.37,-272 341.37,-231 528.37,-231 528.37,-272"/>
<text text-anchor="start" x="349.37" y="-260" font-family="Helvetica,sans-Serif" font-size="10.00">/home/hirth/git/SIM</text>
<text text-anchor="start" x="349.37" y="-249" font-family="Helvetica,sans-Serif" font-size="10.00">&#45;VICUS.master2/externals</text>
<text text-anchor="middle" x="434.87" y="-238" font-family="Helvetica,sans-Serif" font-size="10.00">/Vicus/src/VICUS_NetworkController.h</text>
</a>
</g>
</g>
<!-- Node2 -->
<g id="Node000002" class="node">
<title>Node2</title>
<g id="a_Node000002"><a xlink:href="_v_i_c_u_s___abstract_d_b_element_8h.html" target="_top" xlink:title=" ">
<polygon fill="white" stroke="#666666" points="509.37,-129 360.37,-129 360.37,-110 509.37,-110 509.37,-129"/>
<text text-anchor="middle" x="434.87" y="-117" font-family="Helvetica,sans-Serif" font-size="10.00">VICUS_AbstractDBElement.h</text>
</a>
</g>
</g>
<!-- Node1&#45;&gt;Node2 -->
<g id="edge1_Node000001_Node000002" class="edge">
<title>Node1&#45;&gt;Node2</title>
<g id="a_edge1_Node000001_Node000002"><a xlink:title=" ">
<path fill="none" stroke="#63b8ff" d="M434.87,-230.76C434.87,-205.86 434.87,-163.38 434.87,-139.06"/>
<polygon fill="#63b8ff" stroke="#63b8ff" points="438.37,-139.01 434.87,-129.01 431.37,-139.01 438.37,-139.01"/>
</a>
</g>
</g>
<!-- Node4 -->
<g id="Node000004" class="node">
<title>Node4</title>
<g id="a_Node000004"><a xlink:title=" ">
<polygon fill="#e0e0e0" stroke="#999999" points="252.37,-74 205.37,-74 205.37,-55 252.37,-55 252.37,-74"/>
<text text-anchor="middle" x="228.87" y="-62" font-family="Helvetica,sans-Serif" font-size="10.00">QColor</text>
</a>
</g>
</g>
<!-- Node1&#45;&gt;Node4 -->
<g id="edge31_Node000001_Node000004" class="edge">
<title>Node1&#45;&gt;Node4</title>
<g id="a_edge31_Node000001_Node000004"><a xlink:title=" ">
<path fill="none" stroke="#63b8ff" d="M340.9,-235.82C232.61,-216.74 64.8,-179.76 27.87,-129 -14.54,-70.71 127.29,-64.53 194.96,-64.77"/>
<polygon fill="#63b8ff" stroke="#63b8ff" points="195.12,-68.28 205.15,-64.86 195.18,-61.28 195.12,-68.28"/>
</a>
</g>
</g>
<!-- Node5 -->
<g id="Node000005" class="node">
<title>Node5</title>
<g id="a_Node000005"><a xlink:href="_v_i_c_u_s___constants_8h.html" target="_top" xlink:title="Contains global constants for the SIM&#45;VICUS data model.">
<polygon fill="white" stroke="#666666" points="714.37,-19 607.37,-19 607.37,0 714.37,0 714.37,-19"/>
<text text-anchor="middle" x="660.87" y="-7" font-family="Helvetica,sans-Serif" font-size="10.00">VICUS_Constants.h</text>
</a>
</g>
</g>
<!-- Node1&#45;&gt;Node5 -->
<g id="edge6_Node000001_Node000005" class="edge">
<title>Node1&#45;&gt;Node5</title>
<g id="a_edge6_Node000001_Node000005"><a xlink:title=" ">
<path fill="none" stroke="#63b8ff" d="M341.3,-250.47C193.69,-247.01 -68.15,-225.07 16.87,-110 84.9,-17.92 447.89,-9.25 596.93,-9.65"/>
<polygon fill="#63b8ff" stroke="#63b8ff" points="597.27,-13.15 607.28,-9.69 597.3,-6.15 597.27,-13.15"/>
</a>
</g>
</g>
<!-- Node6 -->
<g id="Node000006" class="node">
<title>Node6</title>
<g id="a_Node000006"><a xlink:href="_v_i_c_u_s___code_gen_macros_8h.html" target="_top" xlink:title=" ">
<polygon fill="white" stroke="#666666" points="1127.37,-19 992.37,-19 992.37,0 1127.37,0 1127.37,-19"/>
<text text-anchor="middle" x="1059.87" y="-7" font-family="Helvetica,sans-Serif" font-size="10.00">VICUS_CodeGenMacros.h</text>
</a>
</g>
</g>
<!-- Node1&#45;&gt;Node6 -->
<g id="edge5_Node000001_Node000006" class="edge">
<title>Node1&#45;&gt;Node6</title>
<g id="a_edge5_Node000001_Node000006"><a xlink:title=" ">
<path fill="none" stroke="#63b8ff" d="M528.4,-250.22C712.9,-247.45 1113.14,-229.68 1196.87,-129 1233.99,-84.37 1146.34,-42.48 1094.56,-22.6"/>
<polygon fill="#63b8ff" stroke="#63b8ff" points="1095.63,-19.26 1085.03,-19.03 1093.17,-25.81 1095.63,-19.26"/>
</a>
</g>
</g>
<!-- Node7 -->
<g id="Node000007" class="node">
<title>Node7</title>
<g id="a_Node000007"><a xlink:href="_v_i_c_u_s___database_8h.html" target="_top" xlink:title=" ">
<polygon fill="white" stroke="#666666" points="344.87,-189.5 240.87,-189.5 240.87,-170.5 344.87,-170.5 344.87,-189.5"/>
<text text-anchor="middle" x="292.87" y="-177.5" font-family="Helvetica,sans-Serif" font-size="10.00">VICUS_Database.h</text>
</a>
</g>
</g>
<!-- Node1&#45;&gt;Node7 -->
<g id="edge7_Node000001_Node000007" class="edge">
<title>Node1&#45;&gt;Node7</title>
<g id="a_edge7_Node000001_Node000007"><a xlink:title=" ">
<path fill="none" stroke="#63b8ff" d="M394.94,-230.96C370.75,-219.12 340.57,-204.35 319.32,-193.95"/>
<polygon fill="#63b8ff" stroke="#63b8ff" points="320.76,-190.76 310.24,-189.5 317.69,-197.04 320.76,-190.76"/>
</a>
</g>
</g>
<!-- Node12 -->
<g id="Node000012" class="node">
<title>Node12</title>
<g id="a_Node000012"><a xlink:href="_v_i_c_u_s___schedule_8h.html" target="_top" xlink:title=" ">
<polygon fill="white" stroke="#666666" points="831.87,-189.5 729.87,-189.5 729.87,-170.5 831.87,-170.5 831.87,-189.5"/>
<text text-anchor="middle" x="780.87" y="-177.5" font-family="Helvetica,sans-Serif" font-size="10.00">VICUS_Schedule.h</text>
</a>
</g>
</g>
<!-- Node1&#45;&gt;Node12 -->
<g id="edge13_Node000001_Node000012" class="edge">
<title>Node1&#45;&gt;Node12</title>
<g id="a_edge13_Node000001_Node000012"><a xlink:title=" ">
<path fill="none" stroke="#63b8ff" d="M528.5,-231.69C592.8,-218.78 675.78,-202.11 728.68,-191.48"/>
<polygon fill="#63b8ff" stroke="#63b8ff" points="729.4,-194.91 738.51,-189.51 728.02,-188.05 729.4,-194.91"/>
</a>
</g>
</g>
<!-- Node21 -->
<g id="Node000021" class="node">
<title>Node21</title>
<g id="a_Node000021"><a xlink:title=" ">
<polygon fill="#e0e0e0" stroke="#999999" points="1395.37,-195 1244.37,-195 1244.37,-165 1395.37,-165 1395.37,-195"/>
<text text-anchor="start" x="1252.37" y="-183" font-family="Helvetica,sans-Serif" font-size="10.00">NANDRAD_HydraulicNetwork</text>
<text text-anchor="middle" x="1319.87" y="-172" font-family="Helvetica,sans-Serif" font-size="10.00">ControlElement.h</text>
</a>
</g>
</g>
<!-- Node1&#45;&gt;Node21 -->
<g id="edge30_Node000001_Node000021" class="edge">
<title>Node1&#45;&gt;Node21</title>
<g id="a_edge30_Node000001_Node000021"><a xlink:title=" ">
<path fill="none" stroke="#63b8ff" d="M528.42,-246.54C677.28,-239.66 977.06,-223.44 1229.87,-195 1231.34,-194.83 1232.83,-194.66 1234.32,-194.48"/>
<polygon fill="#63b8ff" stroke="#63b8ff" points="1234.82,-197.95 1244.31,-193.23 1233.95,-191 1234.82,-197.95"/>
</a>
</g>
</g>
<!-- Node3 -->
<g id="Node000003" class="node">
<title>Node3</title>
<g id="a_Node000003"><a xlink:title=" ">
<polygon fill="#e0e0e0" stroke="#999999" points="754.37,-74 619.37,-74 619.37,-55 754.37,-55 754.37,-74"/>
<text text-anchor="middle" x="686.87" y="-62" font-family="Helvetica,sans-Serif" font-size="10.00">IBK_MultiLanguageString.h</text>
</a>
</g>
</g>
<!-- Node2&#45;&gt;Node3 -->
<g id="edge2_Node000002_Node000003" class="edge">
<title>Node2&#45;&gt;Node3</title>
<g id="a_edge2_Node000002_Node000003"><a xlink:title=" ">
<path fill="none" stroke="#63b8ff" d="M475.36,-109.98C519.04,-100.8 588.68,-86.15 636.02,-76.19"/>
<polygon fill="#63b8ff" stroke="#63b8ff" points="637,-79.57 646.06,-74.08 635.56,-72.72 637,-79.57"/>
</a>
</g>
</g>
<!-- Node2&#45;&gt;Node4 -->
<g id="edge3_Node000002_Node000004" class="edge">
<title>Node2&#45;&gt;Node4</title>
<g id="a_edge3_Node000002_Node000004"><a xlink:title=" ">
<path fill="none" stroke="#63b8ff" d="M401.77,-109.98C363.45,-100.13 300.7,-83.98 262.26,-74.09"/>
<polygon fill="#63b8ff" stroke="#63b8ff" points="263.13,-70.7 252.57,-71.6 261.39,-77.48 263.13,-70.7"/>
</a>
</g>
</g>
<!-- Node2&#45;&gt;Node5 -->
<g id="edge4_Node000002_Node000005" class="edge">
<title>Node2&#45;&gt;Node5</title>
<g id="a_edge4_Node000002_Node000005"><a xlink:title=" ">
<path fill="none" stroke="#63b8ff" d="M452.98,-109.84C492.59,-90.92 587.07,-45.77 633.78,-23.45"/>
<polygon fill="#63b8ff" stroke="#63b8ff" points="635.47,-26.52 642.98,-19.05 632.45,-20.2 635.47,-26.52"/>
</a>
</g>
</g>
<!-- Node7&#45;&gt;Node2 -->
<g id="edge9_Node000007_Node000002" class="edge">
<title>Node7&#45;&gt;Node2</title>
<g id="a_edge9_Node000007_Node000002"><a xlink:title=" ">
<path fill="none" stroke="#63b8ff" d="M313.52,-170.49C337.49,-160.62 377.26,-144.23 404.7,-132.93"/>
<polygon fill="#63b8ff" stroke="#63b8ff" points="406.28,-136.06 414.2,-129.02 403.62,-129.59 406.28,-136.06"/>
</a>
</g>
</g>
<!-- Node8 -->
<g id="Node000008" class="node">
<title>Node8</title>
<g id="a_Node000008"><a xlink:title=" ">
<polygon fill="#e0e0e0" stroke="#999999" points="342.37,-129 307.37,-129 307.37,-110 342.37,-110 342.37,-129"/>
<text text-anchor="middle" x="324.87" y="-117" font-family="Helvetica,sans-Serif" font-size="10.00">map</text>
</a>
</g>
</g>
<!-- Node7&#45;&gt;Node8 -->
<g id="edge8_Node000007_Node000008" class="edge">
<title>Node7&#45;&gt;Node8</title>
<g id="a_edge8_Node000007_Node000008"><a xlink:title=" ">
<path fill="none" stroke="#63b8ff" d="M297.59,-170.37C302.22,-161.9 309.42,-148.74 315.26,-138.07"/>
<polygon fill="#63b8ff" stroke="#63b8ff" points="318.4,-139.62 320.13,-129.17 312.26,-136.26 318.4,-139.62"/>
</a>
</g>
</g>
<!-- Node9 -->
<g id="Node000009" class="node">
<title>Node9</title>
<g id="a_Node000009"><a xlink:title=" ">
<polygon fill="#e0e0e0" stroke="#999999" points="104.37,-129 37.37,-129 37.37,-110 104.37,-110 104.37,-129"/>
<text text-anchor="middle" x="70.87" y="-117" font-family="Helvetica,sans-Serif" font-size="10.00">IBK_Path.h</text>
</a>
</g>
</g>
<!-- Node7&#45;&gt;Node9 -->
<g id="edge10_Node000007_Node000009" class="edge">
<title>Node7&#45;&gt;Node9</title>
<g id="a_edge10_Node000007_Node000009"><a xlink:title=" ">
<path fill="none" stroke="#63b8ff" d="M260.59,-170.49C221.62,-160.23 155.99,-142.93 113.05,-131.62"/>
<polygon fill="#63b8ff" stroke="#63b8ff" points="113.75,-128.18 103.19,-129.02 111.97,-134.95 113.75,-128.18"/>
</a>
</g>
</g>
<!-- Node10 -->
<g id="Node000010" class="node">
<title>Node10</title>
<g id="a_Node000010"><a xlink:title=" ">
<polygon fill="#e0e0e0" stroke="#999999" points="214.87,-129 122.87,-129 122.87,-110 214.87,-110 214.87,-129"/>
<text text-anchor="middle" x="168.87" y="-117" font-family="Helvetica,sans-Serif" font-size="10.00">IBK_messages.h</text>
</a>
</g>
</g>
<!-- Node7&#45;&gt;Node10 -->
<g id="edge11_Node000007_Node000010" class="edge">
<title>Node7&#45;&gt;Node10</title>
<g id="a_edge11_Node000007_Node000010"><a xlink:title=" ">
<path fill="none" stroke="#63b8ff" d="M274.84,-170.49C254.17,-160.75 220.09,-144.66 196.17,-133.38"/>
<polygon fill="#63b8ff" stroke="#63b8ff" points="197.46,-130.12 186.92,-129.02 194.47,-136.45 197.46,-130.12"/>
</a>
</g>
</g>
<!-- Node11 -->
<g id="Node000011" class="node">
<title>Node11</title>
<g id="a_Node000011"><a xlink:title=" ">
<polygon fill="#e0e0e0" stroke="#999999" points="288.87,-129 232.87,-129 232.87,-110 288.87,-110 288.87,-129"/>
<text text-anchor="middle" x="260.87" y="-117" font-family="Helvetica,sans-Serif" font-size="10.00">tinyxml.h</text>
</a>
</g>
</g>
<!-- Node7&#45;&gt;Node11 -->
<g id="edge12_Node000007_Node000011" class="edge">
<title>Node7&#45;&gt;Node11</title>
<g id="a_edge12_Node000007_Node000011"><a xlink:title=" ">
<path fill="none" stroke="#63b8ff" d="M288.15,-170.37C283.51,-161.9 276.32,-148.74 270.48,-138.07"/>
<polygon fill="#63b8ff" stroke="#63b8ff" points="273.48,-136.26 265.61,-129.17 267.34,-139.62 273.48,-136.26"/>
</a>
</g>
</g>
<!-- Node12&#45;&gt;Node2 -->
<g id="edge29_Node000012_Node000002" class="edge">
<title>Node12&#45;&gt;Node2</title>
<g id="a_edge29_Node000012_Node000002"><a xlink:title=" ">
<path fill="none" stroke="#63b8ff" d="M730.56,-170.49C668.16,-159.94 561.9,-141.98 495.19,-130.7"/>
<polygon fill="#63b8ff" stroke="#63b8ff" points="495.68,-127.23 485.24,-129.02 494.52,-134.13 495.68,-127.23"/>
</a>
</g>
</g>
<!-- Node12&#45;&gt;Node5 -->
<g id="edge19_Node000012_Node000005" class="edge">
<title>Node12&#45;&gt;Node5</title>
<g id="a_edge19_Node000012_Node000005"><a xlink:title=" ">
<path fill="none" stroke="#63b8ff" d="M802.22,-170.3C827.71,-158.54 865.2,-136.01 850.87,-110 823.42,-60.17 761.05,-34.38 715.23,-21.68"/>
<polygon fill="#63b8ff" stroke="#63b8ff" points="715.99,-18.26 705.43,-19.09 714.21,-25.03 715.99,-18.26"/>
</a>
</g>
</g>
<!-- Node12&#45;&gt;Node6 -->
<g id="edge18_Node000012_Node000006" class="edge">
<title>Node12&#45;&gt;Node6</title>
<g id="a_edge18_Node000012_Node000006"><a xlink:title=" ">
<path fill="none" stroke="#63b8ff" d="M832.06,-175.98C899.42,-170.89 1012.59,-158.17 1040.87,-129 1066.77,-102.29 1065.78,-55.18 1062.81,-29.13"/>
<polygon fill="#63b8ff" stroke="#63b8ff" points="1066.26,-28.52 1061.45,-19.08 1059.33,-29.46 1066.26,-28.52"/>
</a>
</g>
</g>
<!-- Node13 -->
<g id="Node000013" class="node">
<title>Node13</title>
<g id="a_Node000013"><a xlink:title=" ">
<polygon fill="#e0e0e0" stroke="#999999" points="1187.87,-129 1087.87,-129 1087.87,-110 1187.87,-110 1187.87,-129"/>
<text text-anchor="middle" x="1137.87" y="-117" font-family="Helvetica,sans-Serif" font-size="10.00">IBK_LinearSpline.h</text>
</a>
</g>
</g>
<!-- Node12&#45;&gt;Node13 -->
<g id="edge14_Node000012_Node000013" class="edge">
<title>Node12&#45;&gt;Node13</title>
<g id="a_edge14_Node000012_Node000013"><a xlink:title=" ">
<path fill="none" stroke="#63b8ff" d="M832.02,-170.62C896.84,-160 1008.43,-141.71 1077.4,-130.41"/>
<polygon fill="#63b8ff" stroke="#63b8ff" points="1078.38,-133.8 1087.68,-128.72 1077.24,-126.89 1078.38,-133.8"/>
</a>
</g>
</g>
<!-- Node14 -->
<g id="Node000014" class="node">
<title>Node14</title>
<g id="a_Node000014"><a xlink:title=" ">
<polygon fill="#e0e0e0" stroke="#999999" points="592.37,-129 527.37,-129 527.37,-110 592.37,-110 592.37,-129"/>
<text text-anchor="middle" x="559.87" y="-117" font-family="Helvetica,sans-Serif" font-size="10.00">IBK_Flag.h</text>
</a>
</g>
</g>
<!-- Node12&#45;&gt;Node14 -->
<g id="edge15_Node000012_Node000014" class="edge">
<title>Node12&#45;&gt;Node14</title>
<g id="a_edge15_Node000012_Node000014"><a xlink:title=" ">
<path fill="none" stroke="#63b8ff" d="M748.73,-170.49C709.94,-160.23 644.61,-142.93 601.86,-131.62"/>
<polygon fill="#63b8ff" stroke="#63b8ff" points="602.61,-128.19 592.04,-129.02 600.81,-134.96 602.61,-128.19"/>
</a>
</g>
</g>
<!-- Node15 -->
<g id="Node000015" class="node">
<title>Node15</title>
<g id="a_Node000015"><a xlink:title=" ">
<polygon fill="#e0e0e0" stroke="#999999" points="701.37,-129 610.37,-129 610.37,-110 701.37,-110 701.37,-129"/>
<text text-anchor="middle" x="655.87" y="-117" font-family="Helvetica,sans-Serif" font-size="10.00">IBK_Parameter.h</text>
</a>
</g>
</g>
<!-- Node12&#45;&gt;Node15 -->
<g id="edge16_Node000012_Node000015" class="edge">
<title>Node12&#45;&gt;Node15</title>
<g id="a_edge16_Node000012_Node000015"><a xlink:title=" ">
<path fill="none" stroke="#63b8ff" d="M762.69,-170.49C741.86,-160.75 707.5,-144.66 683.39,-133.38"/>
<polygon fill="#63b8ff" stroke="#63b8ff" points="684.61,-130.09 674.07,-129.02 681.64,-136.43 684.61,-130.09"/>
</a>
</g>
</g>
<!-- Node16 -->
<g id="Node000016" class="node">
<title>Node16</title>
<g id="a_Node000016"><a xlink:title=" ">
<polygon fill="#e0e0e0" stroke="#999999" points="841.87,-129 719.87,-129 719.87,-110 841.87,-110 841.87,-129"/>
<text text-anchor="middle" x="780.87" y="-117" font-family="Helvetica,sans-Serif" font-size="10.00">NANDRAD_Schedule.h</text>
</a>
</g>
</g>
<!-- Node12&#45;&gt;Node16 -->
<g id="edge17_Node000012_Node000016" class="edge">
<title>Node12&#45;&gt;Node16</title>
<g id="a_edge17_Node000012_Node000016"><a xlink:title=" ">
<path fill="none" stroke="#63b8ff" d="M780.87,-170.37C780.87,-162.25 780.87,-149.81 780.87,-139.39"/>
<polygon fill="#63b8ff" stroke="#63b8ff" points="784.37,-139.17 780.87,-129.17 777.37,-139.17 784.37,-139.17"/>
</a>
</g>
</g>
<!-- Node17 -->
<g id="Node000017" class="node">
<title>Node17</title>
<g id="a_Node000017"><a xlink:href="_v_i_c_u_s___schedule_interval_8h.html" target="_top" xlink:title=" ">
<polygon fill="white" stroke="#666666" points="1031.87,-129 897.87,-129 897.87,-110 1031.87,-110 1031.87,-129"/>
<text text-anchor="middle" x="964.87" y="-117" font-family="Helvetica,sans-Serif" font-size="10.00">VICUS_ScheduleInterval.h</text>
</a>
</g>
</g>
<!-- Node12&#45;&gt;Node17 -->
<g id="edge20_Node000012_Node000017" class="edge">
<title>Node12&#45;&gt;Node17</title>
<g id="a_edge20_Node000012_Node000017"><a xlink:title=" ">
<path fill="none" stroke="#63b8ff" d="M807.62,-170.49C839.51,-160.36 892.94,-143.37 928.54,-132.05"/>
<polygon fill="#63b8ff" stroke="#63b8ff" points="929.61,-135.38 938.08,-129.02 927.49,-128.71 929.61,-135.38"/>
</a>
</g>
</g>
<!-- Node17&#45;&gt;Node3 -->
<g id="edge21_Node000017_Node000003" class="edge">
<title>Node17&#45;&gt;Node3</title>
<g id="a_edge21_Node000017_Node000003"><a xlink:title=" ">
<path fill="none" stroke="#63b8ff" d="M920.2,-109.98C871.71,-100.74 794.22,-85.97 741.98,-76.01"/>
<polygon fill="#63b8ff" stroke="#63b8ff" points="742.36,-72.52 731.88,-74.08 741.05,-79.39 742.36,-72.52"/>
</a>
</g>
</g>
<!-- Node17&#45;&gt;Node6 -->
<g id="edge22_Node000017_Node000006" class="edge">
<title>Node17&#45;&gt;Node6</title>
<g id="a_edge22_Node000017_Node000006"><a xlink:title=" ">
<path fill="none" stroke="#63b8ff" d="M972.64,-109.66C988.59,-91.54 1025.2,-49.91 1045.56,-26.77"/>
<polygon fill="#63b8ff" stroke="#63b8ff" points="1048.28,-28.98 1052.25,-19.16 1043.02,-24.36 1048.28,-28.98"/>
</a>
</g>
</g>
<!-- Node18 -->
<g id="Node000018" class="node">
<title>Node18</title>
<g id="a_Node000018"><a xlink:title=" ">
<polygon fill="#e0e0e0" stroke="#999999" points="973.87,-19 929.87,-19 929.87,0 973.87,0 973.87,-19"/>
<text text-anchor="middle" x="951.87" y="-7" font-family="Helvetica,sans-Serif" font-size="10.00">vector</text>
</a>
</g>
</g>
<!-- Node17&#45;&gt;Node18 -->
<g id="edge23_Node000017_Node000018" class="edge">
<title>Node17&#45;&gt;Node18</title>
<g id="a_edge23_Node000017_Node000018"><a xlink:title=" ">
<path fill="none" stroke="#63b8ff" d="M965.64,-109.82C966.56,-97.54 967.65,-74.43 964.87,-55 963.61,-46.24 961.04,-36.79 958.51,-28.86"/>
<polygon fill="#63b8ff" stroke="#63b8ff" points="961.75,-27.54 955.21,-19.2 955.13,-29.8 961.75,-27.54"/>
</a>
</g>
</g>
<!-- Node19 -->
<g id="Node000019" class="node">
<title>Node19</title>
<g id="a_Node000019"><a xlink:href="_v_i_c_u_s___daily_cycle_8h.html" target="_top" xlink:title=" ">
<polygon fill="white" stroke="#666666" points="955.87,-74 845.87,-74 845.87,-55 955.87,-55 955.87,-74"/>
<text text-anchor="middle" x="900.87" y="-62" font-family="Helvetica,sans-Serif" font-size="10.00">VICUS_DailyCycle.h</text>
</a>
</g>
</g>
<!-- Node17&#45;&gt;Node19 -->
<g id="edge24_Node000017_Node000019" class="edge">
<title>Node17&#45;&gt;Node19</title>
<g id="a_edge24_Node000017_Node000019"><a xlink:title=" ">
<path fill="none" stroke="#63b8ff" d="M954.59,-109.98C945.03,-102.07 930.59,-90.11 919.08,-80.58"/>
<polygon fill="#63b8ff" stroke="#63b8ff" points="921.27,-77.85 911.34,-74.17 916.81,-83.24 921.27,-77.85"/>
</a>
</g>
</g>
<!-- Node19&#45;&gt;Node5 -->
<g id="edge26_Node000019_Node000005" class="edge">
<title>Node19&#45;&gt;Node5</title>
<g id="a_edge26_Node000019_Node000005"><a xlink:title=" ">
<path fill="none" stroke="#63b8ff" d="M862.31,-54.98C820.79,-45.82 754.66,-31.21 709.58,-21.26"/>
<polygon fill="#63b8ff" stroke="#63b8ff" points="710.25,-17.82 699.73,-19.08 708.74,-24.66 710.25,-17.82"/>
</a>
</g>
</g>
<!-- Node19&#45;&gt;Node6 -->
<g id="edge25_Node000019_Node000006" class="edge">
<title>Node19&#45;&gt;Node6</title>
<g id="a_edge25_Node000019_Node000006"><a xlink:title=" ">
<path fill="none" stroke="#63b8ff" d="M926.41,-54.98C952.99,-46.13 994.81,-32.19 1024.54,-22.28"/>
<polygon fill="#63b8ff" stroke="#63b8ff" points="1025.74,-25.56 1034.12,-19.08 1023.53,-18.92 1025.74,-25.56"/>
</a>
</g>
</g>
<!-- Node19&#45;&gt;Node18 -->
<g id="edge27_Node000019_Node000018" class="edge">
<title>Node19&#45;&gt;Node18</title>
<g id="a_edge27_Node000019_Node000018"><a xlink:title=" ">
<path fill="none" stroke="#63b8ff" d="M909.29,-54.75C916.64,-47.11 927.5,-35.82 936.41,-26.56"/>
<polygon fill="#63b8ff" stroke="#63b8ff" points="939.19,-28.72 943.6,-19.09 934.15,-23.87 939.19,-28.72"/>
</a>
</g>
</g>
<!-- Node20 -->
<g id="Node000020" class="node">
<title>Node20</title>
<g id="a_Node000020"><a xlink:title=" ">
<polygon fill="#e0e0e0" stroke="#999999" points="911.37,-19 870.37,-19 870.37,0 911.37,0 911.37,-19"/>
<text text-anchor="middle" x="890.87" y="-7" font-family="Helvetica,sans-Serif" font-size="10.00">string</text>
</a>
</g>
</g>
<!-- Node19&#45;&gt;Node20 -->
<g id="edge28_Node000019_Node000020" class="edge">
<title>Node19&#45;&gt;Node20</title>
<g id="a_edge28_Node000019_Node000020"><a xlink:title=" ">
<path fill="none" stroke="#63b8ff" d="M899.22,-54.75C897.91,-47.8 896.03,-37.85 894.38,-29.13"/>
<polygon fill="#63b8ff" stroke="#63b8ff" points="897.78,-28.27 892.49,-19.09 890.9,-29.56 897.78,-28.27"/>
</a>
</g>
</g>
</g>
</svg>
