<?xml version="1.0" encoding="UTF-8" standalone="no"?>
<!DOCTYPE svg PUBLIC "-//W3C//DTD SVG 1.1//EN"
 "http://www.w3.org/Graphics/SVG/1.1/DTD/svg11.dtd">
<!-- Generated by graphviz version 2.43.0 (0)
 -->
<!-- Title: /home/hirth/git/SIM&#45;VICUS.master2/externals/Vicus/src/VICUS_NetworkComponent.h Pages: 1 -->
<svg width="1429pt" height="280pt"
 viewBox="0.00 0.00 1429.25 280.00" xmlns="http://www.w3.org/2000/svg" xmlns:xlink="http://www.w3.org/1999/xlink">
<g id="graph0" class="graph" transform="scale(1 1) rotate(0) translate(4 276)">
<title>/home/hirth/git/SIM&#45;VICUS.master2/externals/Vicus/src/VICUS_NetworkComponent.h</title>
<!-- Node1 -->
<g id="Node000001" class="node">
<title>Node1</title>
<g id="a_Node000001"><a xlink:title=" ">
<polygon fill="#999999" stroke="#666666" points="605.75,-272 409.75,-272 409.75,-231 605.75,-231 605.75,-272"/>
<text text-anchor="start" x="417.75" y="-260" font-family="Helvetica,sans-Serif" font-size="10.00">/home/hirth/git/SIM</text>
<text text-anchor="start" x="417.75" y="-249" font-family="Helvetica,sans-Serif" font-size="10.00">&#45;VICUS.master2/externals</text>
<text text-anchor="middle" x="507.75" y="-238" font-family="Helvetica,sans-Serif" font-size="10.00">/Vicus/src/VICUS_NetworkComponent.h</text>
</a>
</g>
</g>
<!-- Node2 -->
<g id="Node000002" class="node">
<title>Node2</title>
<g id="a_Node000002"><a xlink:title=" ">
<polygon fill="#e0e0e0" stroke="#999999" points="701.25,-74 566.25,-74 566.25,-55 701.25,-55 701.25,-74"/>
<text text-anchor="middle" x="633.75" y="-62" font-family="Helvetica,sans-Serif" font-size="10.00">IBK_MultiLanguageString.h</text>
</a>
</g>
</g>
<!-- Node1&#45;&gt;Node2 -->
<g id="edge1_Node000001_Node000002" class="edge">
<title>Node1&#45;&gt;Node2</title>
<g id="a_edge1_Node000001_Node000002"><a xlink:title=" ">
<path fill="none" stroke="#63b8ff" d="M530.17,-230.73C554.31,-208.31 592.25,-169.56 614.75,-129 622.52,-114.99 627.46,-97.44 630.34,-84.34"/>
<polygon fill="#63b8ff" stroke="#63b8ff" points="633.85,-84.67 632.37,-74.18 626.98,-83.3 633.85,-84.67"/>
</a>
</g>
</g>
<!-- Node3 -->
<g id="Node000003" class="node">
<title>Node3</title>
<g id="a_Node000003"><a xlink:title=" ">
<polygon fill="#e0e0e0" stroke="#999999" points="605.25,-129 514.25,-129 514.25,-110 605.25,-110 605.25,-129"/>
<text text-anchor="middle" x="559.75" y="-117" font-family="Helvetica,sans-Serif" font-size="10.00">IBK_Parameter.h</text>
</a>
</g>
</g>
<!-- Node1&#45;&gt;Node3 -->
<g id="edge2_Node000001_Node000003" class="edge">
<title>Node1&#45;&gt;Node3</title>
<g id="a_edge2_Node000001_Node000003"><a xlink:title=" ">
<path fill="none" stroke="#63b8ff" d="M515.65,-230.76C525.69,-205.64 542.9,-162.61 552.59,-138.4"/>
<polygon fill="#63b8ff" stroke="#63b8ff" points="555.88,-139.6 556.34,-129.01 549.38,-137 555.88,-139.6"/>
</a>
</g>
</g>
<!-- Node4 -->
<g id="Node000004" class="node">
<title>Node4</title>
<g id="a_Node000004"><a xlink:title=" ">
<polygon fill="#e0e0e0" stroke="#999999" points="231.75,-189.5 153.75,-189.5 153.75,-170.5 231.75,-170.5 231.75,-189.5"/>
<text text-anchor="middle" x="192.75" y="-177.5" font-family="Helvetica,sans-Serif" font-size="10.00">IBK_IntPara.h</text>
</a>
</g>
</g>
<!-- Node1&#45;&gt;Node4 -->
<g id="edge3_Node000001_Node000004" class="edge">
<title>Node1&#45;&gt;Node4</title>
<g id="a_edge3_Node000001_Node000004"><a xlink:title=" ">
<path fill="none" stroke="#63b8ff" d="M409.68,-232.04C359.02,-222.02 296.33,-208.86 240.75,-195 237.36,-194.16 233.85,-193.23 230.35,-192.27"/>
<polygon fill="#63b8ff" stroke="#63b8ff" points="231.14,-188.86 220.57,-189.52 229.24,-195.6 231.14,-188.86"/>
</a>
</g>
</g>
<!-- Node5 -->
<g id="Node000005" class="node">
<title>Node5</title>
<g id="a_Node000005"><a xlink:title=" ">
<polygon fill="#e0e0e0" stroke="#999999" points="240.25,-74 193.25,-74 193.25,-55 240.25,-55 240.25,-74"/>
<text text-anchor="middle" x="216.75" y="-62" font-family="Helvetica,sans-Serif" font-size="10.00">QColor</text>
</a>
</g>
</g>
<!-- Node1&#45;&gt;Node5 -->
<g id="edge4_Node000001_Node000005" class="edge">
<title>Node1&#45;&gt;Node5</title>
<g id="a_edge4_Node000001_Node000005"><a xlink:title=" ">
<path fill="none" stroke="#63b8ff" d="M409.66,-242.11C278.2,-228.4 56.58,-195.75 15.75,-129 11.34,-121.8 10.46,-116.58 15.75,-110 36.37,-84.32 131.48,-72.55 183.13,-67.97"/>
<polygon fill="#63b8ff" stroke="#63b8ff" points="183.48,-71.46 193.15,-67.13 182.89,-64.48 183.48,-71.46"/>
</a>
</g>
</g>
<!-- Node6 -->
<g id="Node000006" class="node">
<title>Node6</title>
<g id="a_Node000006"><a xlink:href="_v_i_c_u_s___code_gen_macros_8h.html" target="_top" xlink:title=" ">
<polygon fill="white" stroke="#666666" points="1269.25,-19 1134.25,-19 1134.25,0 1269.25,0 1269.25,-19"/>
<text text-anchor="middle" x="1201.75" y="-7" font-family="Helvetica,sans-Serif" font-size="10.00">VICUS_CodeGenMacros.h</text>
</a>
</g>
</g>
<!-- Node1&#45;&gt;Node6 -->
<g id="edge5_Node000001_Node000006" class="edge">
<title>Node1&#45;&gt;Node6</title>
<g id="a_edge5_Node000001_Node000006"><a xlink:title=" ">
<path fill="none" stroke="#63b8ff" d="M606.03,-246.14C776.91,-236.55 1118.79,-207.8 1204.75,-129 1229.55,-106.26 1227.49,-87.97 1220.75,-55 1218.85,-45.74 1214.95,-36.03 1211.18,-28.04"/>
<polygon fill="#63b8ff" stroke="#63b8ff" points="1214.26,-26.37 1206.62,-19.02 1208.01,-29.53 1214.26,-26.37"/>
</a>
</g>
</g>
<!-- Node7 -->
<g id="Node000007" class="node">
<title>Node7</title>
<g id="a_Node000007"><a xlink:href="_v_i_c_u_s___constants_8h.html" target="_top" xlink:title="Contains global constants for the SIM&#45;VICUS data model.">
<polygon fill="white" stroke="#666666" points="743.25,-19 636.25,-19 636.25,0 743.25,0 743.25,-19"/>
<text text-anchor="middle" x="689.75" y="-7" font-family="Helvetica,sans-Serif" font-size="10.00">VICUS_Constants.h</text>
</a>
</g>
</g>
<!-- Node1&#45;&gt;Node7 -->
<g id="edge6_Node000001_Node000007" class="edge">
<title>Node1&#45;&gt;Node7</title>
<g id="a_edge6_Node000001_Node000007"><a xlink:title=" ">
<path fill="none" stroke="#63b8ff" d="M409.59,-247.34C295.56,-242.14 115.65,-228.73 57.75,-195 20.07,-173.05 -17.05,-145.15 8.75,-110 56.99,-44.27 103.78,-70.89 183.75,-55 340.64,-23.83 529.24,-14.49 625.84,-11.69"/>
<polygon fill="#63b8ff" stroke="#63b8ff" points="626.13,-15.19 636.03,-11.41 625.94,-8.19 626.13,-15.19"/>
</a>
</g>
</g>
<!-- Node8 -->
<g id="Node000008" class="node">
<title>Node8</title>
<g id="a_Node000008"><a xlink:href="_v_i_c_u_s___abstract_d_b_element_8h.html" target="_top" xlink:title=" ">
<polygon fill="white" stroke="#666666" points="496.25,-129 347.25,-129 347.25,-110 496.25,-110 496.25,-129"/>
<text text-anchor="middle" x="421.75" y="-117" font-family="Helvetica,sans-Serif" font-size="10.00">VICUS_AbstractDBElement.h</text>
</a>
</g>
</g>
<!-- Node1&#45;&gt;Node8 -->
<g id="edge7_Node000001_Node000008" class="edge">
<title>Node1&#45;&gt;Node8</title>
<g id="a_edge7_Node000001_Node000008"><a xlink:title=" ">
<path fill="none" stroke="#63b8ff" d="M494.69,-230.76C477.84,-205.3 448.84,-161.45 432.95,-137.44"/>
<polygon fill="#63b8ff" stroke="#63b8ff" points="435.82,-135.42 427.38,-129.01 429.98,-139.28 435.82,-135.42"/>
</a>
</g>
</g>
<!-- Node9 -->
<g id="Node000009" class="node">
<title>Node9</title>
<g id="a_Node000009"><a xlink:href="_v_i_c_u_s___database_8h.html" target="_top" xlink:title=" ">
<polygon fill="white" stroke="#666666" points="353.75,-189.5 249.75,-189.5 249.75,-170.5 353.75,-170.5 353.75,-189.5"/>
<text text-anchor="middle" x="301.75" y="-177.5" font-family="Helvetica,sans-Serif" font-size="10.00">VICUS_Database.h</text>
</a>
</g>
</g>
<!-- Node1&#45;&gt;Node9 -->
<g id="edge11_Node000001_Node000009" class="edge">
<title>Node1&#45;&gt;Node9</title>
<g id="a_edge11_Node000001_Node000009"><a xlink:title=" ">
<path fill="none" stroke="#63b8ff" d="M449.82,-230.96C413.31,-218.64 367.39,-203.15 336.44,-192.71"/>
<polygon fill="#63b8ff" stroke="#63b8ff" points="337.55,-189.38 326.95,-189.5 335.31,-196.02 337.55,-189.38"/>
</a>
</g>
</g>
<!-- Node14 -->
<g id="Node000014" class="node">
<title>Node14</title>
<g id="a_Node000014"><a xlink:href="_v_i_c_u_s___schedule_8h.html" target="_top" xlink:title=" ">
<polygon fill="white" stroke="#666666" points="863.75,-189.5 761.75,-189.5 761.75,-170.5 863.75,-170.5 863.75,-189.5"/>
<text text-anchor="middle" x="812.75" y="-177.5" font-family="Helvetica,sans-Serif" font-size="10.00">VICUS_Schedule.h</text>
</a>
</g>
</g>
<!-- Node1&#45;&gt;Node14 -->
<g id="edge17_Node000001_Node000014" class="edge">
<title>Node1&#45;&gt;Node14</title>
<g id="a_edge17_Node000001_Node000014"><a xlink:title=" ">
<path fill="none" stroke="#63b8ff" d="M593.52,-230.96C649.21,-218.26 719.7,-202.2 765.48,-191.77"/>
<polygon fill="#63b8ff" stroke="#63b8ff" points="766.46,-195.14 775.43,-189.5 764.9,-188.31 766.46,-195.14"/>
</a>
</g>
</g>
<!-- Node22 -->
<g id="Node000022" class="node">
<title>Node22</title>
<g id="a_Node000022"><a xlink:title=" ">
<polygon fill="#e0e0e0" stroke="#999999" points="1421.25,-195 1270.25,-195 1270.25,-165 1421.25,-165 1421.25,-195"/>
<text text-anchor="start" x="1278.25" y="-183" font-family="Helvetica,sans-Serif" font-size="10.00">NANDRAD_HydraulicNetwork</text>
<text text-anchor="middle" x="1345.75" y="-172" font-family="Helvetica,sans-Serif" font-size="10.00">Component.h</text>
</a>
</g>
</g>
<!-- Node1&#45;&gt;Node22 -->
<g id="edge34_Node000001_Node000022" class="edge">
<title>Node1&#45;&gt;Node22</title>
<g id="a_edge34_Node000001_Node000022"><a xlink:title=" ">
<path fill="none" stroke="#63b8ff" d="M606,-245.73C749.21,-238.2 1023.53,-221.63 1255.75,-195 1257.22,-194.83 1258.71,-194.66 1260.2,-194.47"/>
<polygon fill="#63b8ff" stroke="#63b8ff" points="1260.71,-197.94 1270.18,-193.2 1259.82,-190.99 1260.71,-197.94"/>
</a>
</g>
</g>
<!-- Node8&#45;&gt;Node2 -->
<g id="edge8_Node000008_Node000002" class="edge">
<title>Node8&#45;&gt;Node2</title>
<g id="a_edge8_Node000008_Node000002"><a xlink:title=" ">
<path fill="none" stroke="#63b8ff" d="M455.81,-109.98C492.17,-100.89 549.92,-86.46 589.71,-76.51"/>
<polygon fill="#63b8ff" stroke="#63b8ff" points="590.57,-79.9 599.42,-74.08 588.87,-73.11 590.57,-79.9"/>
</a>
</g>
</g>
<!-- Node8&#45;&gt;Node5 -->
<g id="edge9_Node000008_Node000005" class="edge">
<title>Node8&#45;&gt;Node5</title>
<g id="a_edge9_Node000008_Node000005"><a xlink:title=" ">
<path fill="none" stroke="#63b8ff" d="M388.81,-109.98C350.84,-100.17 288.76,-84.12 250.47,-74.22"/>
<polygon fill="#63b8ff" stroke="#63b8ff" points="250.89,-70.71 240.34,-71.6 249.14,-77.49 250.89,-70.71"/>
</a>
</g>
</g>
<!-- Node8&#45;&gt;Node7 -->
<g id="edge10_Node000008_Node000007" class="edge">
<title>Node8&#45;&gt;Node7</title>
<g id="a_edge10_Node000008_Node000007"><a xlink:title=" ">
<path fill="none" stroke="#63b8ff" d="M438.65,-109.86C464.11,-97.02 513.96,-72.54 557.75,-55 588.9,-42.52 625.07,-30.49 651.66,-22.1"/>
<polygon fill="#63b8ff" stroke="#63b8ff" points="652.85,-25.39 661.35,-19.06 650.76,-18.71 652.85,-25.39"/>
</a>
</g>
</g>
<!-- Node9&#45;&gt;Node8 -->
<g id="edge13_Node000009_Node000008" class="edge">
<title>Node9&#45;&gt;Node8</title>
<g id="a_edge13_Node000009_Node000008"><a xlink:title=" ">
<path fill="none" stroke="#63b8ff" d="M319.2,-170.49C339.1,-160.79 371.89,-144.81 395.02,-133.53"/>
<polygon fill="#63b8ff" stroke="#63b8ff" points="396.82,-136.54 404.28,-129.02 393.75,-130.25 396.82,-136.54"/>
</a>
</g>
</g>
<!-- Node10 -->
<g id="Node000010" class="node">
<title>Node10</title>
<g id="a_Node000010"><a xlink:title=" ">
<polygon fill="#e0e0e0" stroke="#999999" points="60.25,-129 25.25,-129 25.25,-110 60.25,-110 60.25,-129"/>
<text text-anchor="middle" x="42.75" y="-117" font-family="Helvetica,sans-Serif" font-size="10.00">map</text>
</a>
</g>
</g>
<!-- Node9&#45;&gt;Node10 -->
<g id="edge12_Node000009_Node000010" class="edge">
<title>Node9&#45;&gt;Node10</title>
<g id="a_edge12_Node000009_Node000010"><a xlink:title=" ">
<path fill="none" stroke="#63b8ff" d="M265,-170.45C257.01,-168.62 248.6,-166.72 240.75,-165 167.59,-148.95 145.96,-149.12 70.3,-129.19"/>
<polygon fill="#63b8ff" stroke="#63b8ff" points="70.86,-125.72 60.29,-126.52 69.05,-132.48 70.86,-125.72"/>
</a>
</g>
</g>
<!-- Node11 -->
<g id="Node000011" class="node">
<title>Node11</title>
<g id="a_Node000011"><a xlink:title=" ">
<polygon fill="#e0e0e0" stroke="#999999" points="145.25,-129 78.25,-129 78.25,-110 145.25,-110 145.25,-129"/>
<text text-anchor="middle" x="111.75" y="-117" font-family="Helvetica,sans-Serif" font-size="10.00">IBK_Path.h</text>
</a>
</g>
</g>
<!-- Node9&#45;&gt;Node11 -->
<g id="edge14_Node000009_Node000011" class="edge">
<title>Node9&#45;&gt;Node11</title>
<g id="a_edge14_Node000009_Node000011"><a xlink:title=" ">
<path fill="none" stroke="#63b8ff" d="M274.12,-170.49C241.19,-160.36 186.02,-143.37 149.26,-132.05"/>
<polygon fill="#63b8ff" stroke="#63b8ff" points="150,-128.61 139.41,-129.02 147.94,-135.3 150,-128.61"/>
</a>
</g>
</g>
<!-- Node12 -->
<g id="Node000012" class="node">
<title>Node12</title>
<g id="a_Node000012"><a xlink:title=" ">
<polygon fill="#e0e0e0" stroke="#999999" points="255.75,-129 163.75,-129 163.75,-110 255.75,-110 255.75,-129"/>
<text text-anchor="middle" x="209.75" y="-117" font-family="Helvetica,sans-Serif" font-size="10.00">IBK_messages.h</text>
</a>
</g>
</g>
<!-- Node9&#45;&gt;Node12 -->
<g id="edge15_Node000009_Node000012" class="edge">
<title>Node9&#45;&gt;Node12</title>
<g id="a_edge15_Node000009_Node000012"><a xlink:title=" ">
<path fill="none" stroke="#63b8ff" d="M288.17,-170.37C273.36,-160.95 249.42,-145.73 231.88,-134.58"/>
<polygon fill="#63b8ff" stroke="#63b8ff" points="233.69,-131.58 223.38,-129.17 229.94,-137.49 233.69,-131.58"/>
</a>
</g>
</g>
<!-- Node13 -->
<g id="Node000013" class="node">
<title>Node13</title>
<g id="a_Node000013"><a xlink:title=" ">
<polygon fill="#e0e0e0" stroke="#999999" points="329.75,-129 273.75,-129 273.75,-110 329.75,-110 329.75,-129"/>
<text text-anchor="middle" x="301.75" y="-117" font-family="Helvetica,sans-Serif" font-size="10.00">tinyxml.h</text>
</a>
</g>
</g>
<!-- Node9&#45;&gt;Node13 -->
<g id="edge16_Node000009_Node000013" class="edge">
<title>Node9&#45;&gt;Node13</title>
<g id="a_edge16_Node000009_Node000013"><a xlink:title=" ">
<path fill="none" stroke="#63b8ff" d="M301.75,-170.37C301.75,-162.25 301.75,-149.81 301.75,-139.39"/>
<polygon fill="#63b8ff" stroke="#63b8ff" points="305.25,-139.17 301.75,-129.17 298.25,-139.17 305.25,-139.17"/>
</a>
</g>
</g>
<!-- Node14&#45;&gt;Node3 -->
<g id="edge20_Node000014_Node000003" class="edge">
<title>Node14&#45;&gt;Node3</title>
<g id="a_edge20_Node000014_Node000003"><a xlink:title=" ">
<path fill="none" stroke="#63b8ff" d="M775.96,-170.49C731.18,-160.14 655.49,-142.64 606.59,-131.33"/>
<polygon fill="#63b8ff" stroke="#63b8ff" points="607.11,-127.86 596.58,-129.02 605.53,-134.68 607.11,-127.86"/>
</a>
</g>
</g>
<!-- Node14&#45;&gt;Node6 -->
<g id="edge22_Node000014_Node000006" class="edge">
<title>Node14&#45;&gt;Node6</title>
<g id="a_edge22_Node000014_Node000006"><a xlink:title=" ">
<path fill="none" stroke="#63b8ff" d="M863.97,-179.44C955.23,-179.08 1140.55,-172.81 1184.75,-129 1211.11,-102.87 1208.96,-55.54 1205.26,-29.29"/>
<polygon fill="#63b8ff" stroke="#63b8ff" points="1208.67,-28.47 1203.6,-19.16 1201.76,-29.6 1208.67,-28.47"/>
</a>
</g>
</g>
<!-- Node14&#45;&gt;Node7 -->
<g id="edge23_Node000014_Node000007" class="edge">
<title>Node14&#45;&gt;Node7</title>
<g id="a_edge23_Node000014_Node000007"><a xlink:title=" ">
<path fill="none" stroke="#63b8ff" d="M824.66,-170.39C841.07,-157.44 867.23,-132.1 854.75,-110 828.44,-63.41 770.59,-36.2 730.89,-22.34"/>
<polygon fill="#63b8ff" stroke="#63b8ff" points="731.81,-18.95 721.22,-19.1 729.59,-25.59 731.81,-18.95"/>
</a>
</g>
</g>
<!-- Node14&#45;&gt;Node8 -->
<g id="edge33_Node000014_Node000008" class="edge">
<title>Node14&#45;&gt;Node8</title>
<g id="a_edge33_Node000014_Node000008"><a xlink:title=" ">
<path fill="none" stroke="#63b8ff" d="M761.63,-171.35C691.7,-160.89 566.08,-142.09 488.7,-130.52"/>
<polygon fill="#63b8ff" stroke="#63b8ff" points="488.99,-127.02 478.58,-129 487.95,-133.94 488.99,-127.02"/>
</a>
</g>
</g>
<!-- Node15 -->
<g id="Node000015" class="node">
<title>Node15</title>
<g id="a_Node000015"><a xlink:title=" ">
<polygon fill="#e0e0e0" stroke="#999999" points="761.75,-129 661.75,-129 661.75,-110 761.75,-110 761.75,-129"/>
<text text-anchor="middle" x="711.75" y="-117" font-family="Helvetica,sans-Serif" font-size="10.00">IBK_LinearSpline.h</text>
</a>
</g>
</g>
<!-- Node14&#45;&gt;Node15 -->
<g id="edge18_Node000014_Node000015" class="edge">
<title>Node14&#45;&gt;Node15</title>
<g id="a_edge18_Node000014_Node000015"><a xlink:title=" ">
<path fill="none" stroke="#63b8ff" d="M797.84,-170.37C781.43,-160.86 754.82,-145.45 735.52,-134.27"/>
<polygon fill="#63b8ff" stroke="#63b8ff" points="737.12,-131.15 726.71,-129.17 733.61,-137.21 737.12,-131.15"/>
</a>
</g>
</g>
<!-- Node16 -->
<g id="Node000016" class="node">
<title>Node16</title>
<g id="a_Node000016"><a xlink:title=" ">
<polygon fill="#e0e0e0" stroke="#999999" points="845.25,-129 780.25,-129 780.25,-110 845.25,-110 845.25,-129"/>
<text text-anchor="middle" x="812.75" y="-117" font-family="Helvetica,sans-Serif" font-size="10.00">IBK_Flag.h</text>
</a>
</g>
</g>
<!-- Node14&#45;&gt;Node16 -->
<g id="edge19_Node000014_Node000016" class="edge">
<title>Node14&#45;&gt;Node16</title>
<g id="a_edge19_Node000014_Node000016"><a xlink:title=" ">
<path fill="none" stroke="#63b8ff" d="M812.75,-170.37C812.75,-162.25 812.75,-149.81 812.75,-139.39"/>
<polygon fill="#63b8ff" stroke="#63b8ff" points="816.25,-139.17 812.75,-129.17 809.25,-139.17 816.25,-139.17"/>
</a>
</g>
</g>
<!-- Node17 -->
<g id="Node000017" class="node">
<title>Node17</title>
<g id="a_Node000017"><a xlink:title=" ">
<polygon fill="#e0e0e0" stroke="#999999" points="1023.75,-129 901.75,-129 901.75,-110 1023.75,-110 1023.75,-129"/>
<text text-anchor="middle" x="962.75" y="-117" font-family="Helvetica,sans-Serif" font-size="10.00">NANDRAD_Schedule.h</text>
</a>
</g>
</g>
<!-- Node14&#45;&gt;Node17 -->
<g id="edge21_Node000014_Node000017" class="edge">
<title>Node14&#45;&gt;Node17</title>
<g id="a_edge21_Node000014_Node000017"><a xlink:title=" ">
<path fill="none" stroke="#63b8ff" d="M834.56,-170.49C860,-160.57 902.26,-144.09 931.26,-132.78"/>
<polygon fill="#63b8ff" stroke="#63b8ff" points="932.86,-135.91 940.91,-129.02 930.32,-129.39 932.86,-135.91"/>
</a>
</g>
</g>
<!-- Node18 -->
<g id="Node000018" class="node">
<title>Node18</title>
<g id="a_Node000018"><a xlink:href="_v_i_c_u_s___schedule_interval_8h.html" target="_top" xlink:title=" ">
<polygon fill="white" stroke="#666666" points="1175.75,-129 1041.75,-129 1041.75,-110 1175.75,-110 1175.75,-129"/>
<text text-anchor="middle" x="1108.75" y="-117" font-family="Helvetica,sans-Serif" font-size="10.00">VICUS_ScheduleInterval.h</text>
</a>
</g>
</g>
<!-- Node14&#45;&gt;Node18 -->
<g id="edge24_Node000014_Node000018" class="edge">
<title>Node14&#45;&gt;Node18</title>
<g id="a_edge24_Node000014_Node000018"><a xlink:title=" ">
<path fill="none" stroke="#63b8ff" d="M855.79,-170.49C908.73,-160.03 998.59,-142.27 1055.73,-130.98"/>
<polygon fill="#63b8ff" stroke="#63b8ff" points="1056.52,-134.39 1065.65,-129.02 1055.17,-127.52 1056.52,-134.39"/>
</a>
</g>
</g>
<!-- Node18&#45;&gt;Node2 -->
<g id="edge25_Node000018_Node000002" class="edge">
<title>Node18&#45;&gt;Node2</title>
<g id="a_edge25_Node000018_Node000002"><a xlink:title=" ">
<path fill="none" stroke="#63b8ff" d="M1041.61,-110.99C1038.62,-110.66 1035.65,-110.32 1032.75,-110 921.15,-97.54 791.99,-83.14 711.57,-74.17"/>
<polygon fill="#63b8ff" stroke="#63b8ff" points="711.85,-70.68 701.52,-73.05 711.07,-77.64 711.85,-70.68"/>
</a>
</g>
</g>
<!-- Node18&#45;&gt;Node6 -->
<g id="edge26_Node000018_Node000006" class="edge">
<title>Node18&#45;&gt;Node6</title>
<g id="a_edge26_Node000018_Node000006"><a xlink:title=" ">
<path fill="none" stroke="#63b8ff" d="M1116.36,-109.66C1131.97,-91.54 1167.81,-49.91 1187.74,-26.77"/>
<polygon fill="#63b8ff" stroke="#63b8ff" points="1190.42,-29.02 1194.29,-19.16 1185.11,-24.45 1190.42,-29.02"/>
</a>
</g>
</g>
<!-- Node19 -->
<g id="Node000019" class="node">
<title>Node19</title>
<g id="a_Node000019"><a xlink:title=" ">
<polygon fill="#e0e0e0" stroke="#999999" points="1113.75,-19 1069.75,-19 1069.75,0 1113.75,0 1113.75,-19"/>
<text text-anchor="middle" x="1091.75" y="-7" font-family="Helvetica,sans-Serif" font-size="10.00">vector</text>
</a>
</g>
</g>
<!-- Node18&#45;&gt;Node19 -->
<g id="edge27_Node000018_Node000019" class="edge">
<title>Node18&#45;&gt;Node19</title>
<g id="a_edge27_Node000018_Node000019"><a xlink:title=" ">
<path fill="none" stroke="#63b8ff" d="M1107.36,-109.66C1104.6,-92.17 1098.41,-52.8 1094.7,-29.27"/>
<polygon fill="#63b8ff" stroke="#63b8ff" points="1098.12,-28.49 1093.11,-19.16 1091.21,-29.58 1098.12,-28.49"/>
</a>
</g>
</g>
<!-- Node20 -->
<g id="Node000020" class="node">
<title>Node20</title>
<g id="a_Node000020"><a xlink:href="_v_i_c_u_s___daily_cycle_8h.html" target="_top" xlink:title=" ">
<polygon fill="white" stroke="#666666" points="1081.75,-74 971.75,-74 971.75,-55 1081.75,-55 1081.75,-74"/>
<text text-anchor="middle" x="1026.75" y="-62" font-family="Helvetica,sans-Serif" font-size="10.00">VICUS_DailyCycle.h</text>
</a>
</g>
</g>
<!-- Node18&#45;&gt;Node20 -->
<g id="edge28_Node000018_Node000020" class="edge">
<title>Node18&#45;&gt;Node20</title>
<g id="a_edge28_Node000018_Node000020"><a xlink:title=" ">
<path fill="none" stroke="#63b8ff" d="M1095.57,-109.98C1082.98,-101.84 1063.74,-89.41 1048.81,-79.76"/>
<polygon fill="#63b8ff" stroke="#63b8ff" points="1050.46,-76.66 1040.16,-74.17 1046.66,-82.54 1050.46,-76.66"/>
</a>
</g>
</g>
<!-- Node20&#45;&gt;Node6 -->
<g id="edge29_Node000020_Node000006" class="edge">
<title>Node20&#45;&gt;Node6</title>
<g id="a_edge29_Node000020_Node000006"><a xlink:title=" ">
<path fill="none" stroke="#63b8ff" d="M1054.86,-54.98C1084.37,-46.05 1130.94,-31.94 1163.72,-22.02"/>
<polygon fill="#63b8ff" stroke="#63b8ff" points="1164.85,-25.33 1173.41,-19.08 1162.82,-18.63 1164.85,-25.33"/>
</a>
</g>
</g>
<!-- Node20&#45;&gt;Node7 -->
<g id="edge30_Node000020_Node000007" class="edge">
<title>Node20&#45;&gt;Node7</title>
<g id="a_edge30_Node000020_Node000007"><a xlink:title=" ">
<path fill="none" stroke="#63b8ff" d="M972.6,-54.98C912.94,-45.6 817.07,-30.52 753.74,-20.56"/>
<polygon fill="#63b8ff" stroke="#63b8ff" points="753.9,-17.05 743.48,-18.95 752.81,-23.96 753.9,-17.05"/>
</a>
</g>
</g>
<!-- Node20&#45;&gt;Node19 -->
<g id="edge31_Node000020_Node000019" class="edge">
<title>Node20&#45;&gt;Node19</title>
<g id="a_edge31_Node000020_Node000019"><a xlink:title=" ">
<path fill="none" stroke="#63b8ff" d="M1037.19,-54.98C1046.89,-47.07 1061.56,-35.11 1073.25,-25.58"/>
<polygon fill="#63b8ff" stroke="#63b8ff" points="1075.58,-28.2 1081.11,-19.17 1071.15,-22.78 1075.58,-28.2"/>
</a>
</g>
</g>
<!-- Node21 -->
<g id="Node000021" class="node">
<title>Node21</title>
<g id="a_Node000021"><a xlink:title=" ">
<polygon fill="#e0e0e0" stroke="#999999" points="1047.25,-19 1006.25,-19 1006.25,0 1047.25,0 1047.25,-19"/>
<text text-anchor="middle" x="1026.75" y="-7" font-family="Helvetica,sans-Serif" font-size="10.00">string</text>
</a>
</g>
</g>
<!-- Node20&#45;&gt;Node21 -->
<g id="edge32_Node000020_Node000021" class="edge">
<title>Node20&#45;&gt;Node21</title>
<g id="a_edge32_Node000020_Node000021"><a xlink:title=" ">
<path fill="none" stroke="#63b8ff" d="M1026.75,-54.75C1026.75,-47.8 1026.75,-37.85 1026.75,-29.13"/>
<polygon fill="#63b8ff" stroke="#63b8ff" points="1030.25,-29.09 1026.75,-19.09 1023.25,-29.09 1030.25,-29.09"/>
</a>
</g>
</g>
</g>
</svg>
