<?xml version="1.0" encoding="UTF-8" standalone="no"?>
<!DOCTYPE svg PUBLIC "-//W3C//DTD SVG 1.1//EN"
 "http://www.w3.org/Graphics/SVG/1.1/DTD/svg11.dtd">
<!-- Generated by graphviz version 2.43.0 (0)
 -->
<!-- Title: /home/hirth/git/SIM&#45;VICUS.master2/externals/Vicus/src/VICUS_Infiltration.h Pages: 1 -->
<svg width="514pt" height="159pt"
 viewBox="0.00 0.00 514.41 159.00" xmlns="http://www.w3.org/2000/svg" xmlns:xlink="http://www.w3.org/1999/xlink">
<g id="graph0" class="graph" transform="scale(1 1) rotate(0) translate(4 155)">
<title>/home/hirth/git/SIM&#45;VICUS.master2/externals/Vicus/src/VICUS_Infiltration.h</title>
<!-- Node1 -->
<g id="Node000001" class="node">
<title>Node1</title>
<g id="a_Node000001"><a xlink:title=" ">
<polygon fill="#999999" stroke="#666666" points="266.91,-151 114.91,-151 114.91,-110 266.91,-110 266.91,-151"/>
<text text-anchor="start" x="122.91" y="-139" font-family="Helvetica,sans-Serif" font-size="10.00">/home/hirth/git/SIM</text>
<text text-anchor="start" x="122.91" y="-128" font-family="Helvetica,sans-Serif" font-size="10.00">&#45;VICUS.master2/externals</text>
<text text-anchor="middle" x="190.91" y="-117" font-family="Helvetica,sans-Serif" font-size="10.00">/Vicus/src/VICUS_Infiltration.h</text>
</a>
</g>
</g>
<!-- Node2 -->
<g id="Node000002" class="node">
<title>Node2</title>
<g id="a_Node000002"><a xlink:title=" ">
<polygon fill="#e0e0e0" stroke="#999999" points="119.41,-19 72.41,-19 72.41,0 119.41,0 119.41,-19"/>
<text text-anchor="middle" x="95.91" y="-7" font-family="Helvetica,sans-Serif" font-size="10.00">QColor</text>
</a>
</g>
</g>
<!-- Node1&#45;&gt;Node2 -->
<g id="edge1_Node000001_Node000002" class="edge">
<title>Node1&#45;&gt;Node2</title>
<g id="a_edge1_Node000001_Node000002"><a xlink:title=" ">
<path fill="none" stroke="#63b8ff" d="M114.89,-116.3C69.68,-106.73 18.53,-92.27 4.91,-74 -14.07,-48.52 29.18,-29.51 62.35,-19.22"/>
<polygon fill="#63b8ff" stroke="#63b8ff" points="63.64,-22.49 72.25,-16.3 61.66,-15.77 63.64,-22.49"/>
</a>
</g>
</g>
<!-- Node3 -->
<g id="Node000003" class="node">
<title>Node3</title>
<g id="a_Node000003"><a xlink:title=" ">
<polygon fill="#e0e0e0" stroke="#999999" points="105.41,-74 14.41,-74 14.41,-55 105.41,-55 105.41,-74"/>
<text text-anchor="middle" x="59.91" y="-62" font-family="Helvetica,sans-Serif" font-size="10.00">IBK_Parameter.h</text>
</a>
</g>
</g>
<!-- Node1&#45;&gt;Node3 -->
<g id="edge2_Node000001_Node000003" class="edge">
<title>Node1&#45;&gt;Node3</title>
<g id="a_edge2_Node000001_Node000003"><a xlink:title=" ">
<path fill="none" stroke="#63b8ff" d="M150.9,-109.95C130.01,-99.75 105.02,-87.54 86.53,-78.5"/>
<polygon fill="#63b8ff" stroke="#63b8ff" points="88.02,-75.34 77.5,-74.09 84.95,-81.63 88.02,-75.34"/>
</a>
</g>
</g>
<!-- Node4 -->
<g id="Node000004" class="node">
<title>Node4</title>
<g id="a_Node000004"><a xlink:href="_v_i_c_u_s___code_gen_macros_8h.html" target="_top" xlink:title=" ">
<polygon fill="white" stroke="#666666" points="258.41,-74 123.41,-74 123.41,-55 258.41,-55 258.41,-74"/>
<text text-anchor="middle" x="190.91" y="-62" font-family="Helvetica,sans-Serif" font-size="10.00">VICUS_CodeGenMacros.h</text>
</a>
</g>
</g>
<!-- Node1&#45;&gt;Node4 -->
<g id="edge3_Node000001_Node000004" class="edge">
<title>Node1&#45;&gt;Node4</title>
<g id="a_edge3_Node000001_Node000004"><a xlink:title=" ">
<path fill="none" stroke="#63b8ff" d="M190.91,-109.95C190.91,-101.85 190.91,-92.5 190.91,-84.47"/>
<polygon fill="#63b8ff" stroke="#63b8ff" points="194.41,-84.26 190.91,-74.26 187.41,-84.26 194.41,-84.26"/>
</a>
</g>
</g>
<!-- Node5 -->
<g id="Node000005" class="node">
<title>Node5</title>
<g id="a_Node000005"><a xlink:href="_v_i_c_u_s___constants_8h.html" target="_top" xlink:title="Contains global constants for the SIM&#45;VICUS data model.">
<polygon fill="white" stroke="#666666" points="506.41,-19 399.41,-19 399.41,0 506.41,0 506.41,-19"/>
<text text-anchor="middle" x="452.91" y="-7" font-family="Helvetica,sans-Serif" font-size="10.00">VICUS_Constants.h</text>
</a>
</g>
</g>
<!-- Node1&#45;&gt;Node5 -->
<g id="edge4_Node000001_Node000005" class="edge">
<title>Node1&#45;&gt;Node5</title>
<g id="a_edge4_Node000001_Node000005"><a xlink:title=" ">
<path fill="none" stroke="#63b8ff" d="M267.06,-120.55C329,-111.77 409.94,-96.44 433.91,-74 446.11,-62.58 450.58,-43.69 452.17,-29.48"/>
<polygon fill="#63b8ff" stroke="#63b8ff" points="455.68,-29.54 452.92,-19.31 448.7,-29.03 455.68,-29.54"/>
</a>
</g>
</g>
<!-- Node6 -->
<g id="Node000006" class="node">
<title>Node6</title>
<g id="a_Node000006"><a xlink:href="_v_i_c_u_s___abstract_d_b_element_8h.html" target="_top" xlink:title=" ">
<polygon fill="white" stroke="#666666" points="425.41,-74 276.41,-74 276.41,-55 425.41,-55 425.41,-74"/>
<text text-anchor="middle" x="350.91" y="-62" font-family="Helvetica,sans-Serif" font-size="10.00">VICUS_AbstractDBElement.h</text>
</a>
</g>
</g>
<!-- Node1&#45;&gt;Node6 -->
<g id="edge5_Node000001_Node000006" class="edge">
<title>Node1&#45;&gt;Node6</title>
<g id="a_edge5_Node000001_Node000006"><a xlink:title=" ">
<path fill="none" stroke="#63b8ff" d="M239.79,-109.95C265.89,-99.51 297.22,-86.98 319.95,-77.88"/>
<polygon fill="#63b8ff" stroke="#63b8ff" points="321.45,-81.06 329.43,-74.09 318.85,-74.56 321.45,-81.06"/>
</a>
</g>
</g>
<!-- Node6&#45;&gt;Node2 -->
<g id="edge7_Node000006_Node000002" class="edge">
<title>Node6&#45;&gt;Node2</title>
<g id="a_edge7_Node000006_Node000002"><a xlink:title=" ">
<path fill="none" stroke="#63b8ff" d="M309.94,-54.98C259.81,-44.57 175.89,-27.12 129.43,-17.47"/>
<polygon fill="#63b8ff" stroke="#63b8ff" points="130.06,-14.02 119.56,-15.41 128.64,-20.88 130.06,-14.02"/>
</a>
</g>
</g>
<!-- Node6&#45;&gt;Node5 -->
<g id="edge8_Node000006_Node000005" class="edge">
<title>Node6&#45;&gt;Node5</title>
<g id="a_edge8_Node000006_Node000005"><a xlink:title=" ">
<path fill="none" stroke="#63b8ff" d="M367.3,-54.98C383.49,-46.57 408.48,-33.59 427.29,-23.81"/>
<polygon fill="#63b8ff" stroke="#63b8ff" points="428.97,-26.89 436.23,-19.17 425.74,-20.68 428.97,-26.89"/>
</a>
</g>
</g>
<!-- Node7 -->
<g id="Node000007" class="node">
<title>Node7</title>
<g id="a_Node000007"><a xlink:title=" ">
<polygon fill="#e0e0e0" stroke="#999999" points="381.41,-19 246.41,-19 246.41,0 381.41,0 381.41,-19"/>
<text text-anchor="middle" x="313.91" y="-7" font-family="Helvetica,sans-Serif" font-size="10.00">IBK_MultiLanguageString.h</text>
</a>
</g>
</g>
<!-- Node6&#45;&gt;Node7 -->
<g id="edge6_Node000006_Node000007" class="edge">
<title>Node6&#45;&gt;Node7</title>
<g id="a_edge6_Node000006_Node000007"><a xlink:title=" ">
<path fill="none" stroke="#63b8ff" d="M344.8,-54.75C339.63,-47.34 332.07,-36.5 325.72,-27.41"/>
<polygon fill="#63b8ff" stroke="#63b8ff" points="328.5,-25.29 319.91,-19.09 322.76,-29.29 328.5,-25.29"/>
</a>
</g>
</g>
</g>
</svg>
