<?xml version="1.0" encoding="UTF-8" standalone="no"?>
<!DOCTYPE svg PUBLIC "-//W3C//DTD SVG 1.1//EN"
 "http://www.w3.org/Graphics/SVG/1.1/DTD/svg11.dtd">
<!-- Generated by graphviz version 2.43.0 (0)
 -->
<!-- Title: /home/hirth/git/SIM&#45;VICUS.master2/externals/Vicus/src/VICUS_ViewSettings.h Pages: 1 -->
<svg width="502pt" height="159pt"
 viewBox="0.00 0.00 502.00 159.00" xmlns="http://www.w3.org/2000/svg" xmlns:xlink="http://www.w3.org/1999/xlink">
<g id="graph0" class="graph" transform="scale(1 1) rotate(0) translate(4 155)">
<title>/home/hirth/git/SIM&#45;VICUS.master2/externals/Vicus/src/VICUS_ViewSettings.h</title>
<!-- Node1 -->
<g id="Node000001" class="node">
<title>Node1</title>
<g id="a_Node000001"><a xlink:title=" ">
<polygon fill="#999999" stroke="#666666" points="295,-151 128,-151 128,-110 295,-110 295,-151"/>
<text text-anchor="start" x="136" y="-139" font-family="Helvetica,sans-Serif" font-size="10.00">/home/hirth/git/SIM</text>
<text text-anchor="start" x="136" y="-128" font-family="Helvetica,sans-Serif" font-size="10.00">&#45;VICUS.master2/externals</text>
<text text-anchor="middle" x="211.5" y="-117" font-family="Helvetica,sans-Serif" font-size="10.00">/Vicus/src/VICUS_ViewSettings.h</text>
</a>
</g>
</g>
<!-- Node2 -->
<g id="Node000002" class="node">
<title>Node2</title>
<g id="a_Node000002"><a xlink:title=" ">
<polygon fill="#e0e0e0" stroke="#999999" points="65,-74 0,-74 0,-55 65,-55 65,-74"/>
<text text-anchor="middle" x="32.5" y="-62" font-family="Helvetica,sans-Serif" font-size="10.00">IBK_Flag.h</text>
</a>
</g>
</g>
<!-- Node1&#45;&gt;Node2 -->
<g id="edge1_Node000001_Node000002" class="edge">
<title>Node1&#45;&gt;Node2</title>
<g id="a_edge1_Node000001_Node000002"><a xlink:title=" ">
<path fill="none" stroke="#63b8ff" d="M156.82,-109.95C127.23,-99.37 91.63,-86.64 66.12,-77.52"/>
<polygon fill="#63b8ff" stroke="#63b8ff" points="67.12,-74.16 56.53,-74.09 64.77,-80.75 67.12,-74.16"/>
</a>
</g>
</g>
<!-- Node3 -->
<g id="Node000003" class="node">
<title>Node3</title>
<g id="a_Node000003"><a xlink:title=" ">
<polygon fill="#e0e0e0" stroke="#999999" points="117,-19 70,-19 70,0 117,0 117,-19"/>
<text text-anchor="middle" x="93.5" y="-7" font-family="Helvetica,sans-Serif" font-size="10.00">QColor</text>
</a>
</g>
</g>
<!-- Node1&#45;&gt;Node3 -->
<g id="edge2_Node000001_Node000003" class="edge">
<title>Node1&#45;&gt;Node3</title>
<g id="a_edge2_Node000001_Node000003"><a xlink:title=" ">
<path fill="none" stroke="#63b8ff" d="M185.31,-109.83C172.48,-99.7 157.11,-86.81 144.5,-74 129.99,-59.27 115.41,-40.64 105.58,-27.38"/>
<polygon fill="#63b8ff" stroke="#63b8ff" points="108.31,-25.19 99.59,-19.17 102.66,-29.31 108.31,-25.19"/>
</a>
</g>
</g>
<!-- Node4 -->
<g id="Node000004" class="node">
<title>Node4</title>
<g id="a_Node000004"><a xlink:title=" ">
<polygon fill="#e0e0e0" stroke="#999999" points="494,-19 423,-19 423,0 494,0 494,-19"/>
<text text-anchor="middle" x="458.5" y="-7" font-family="Helvetica,sans-Serif" font-size="10.00">QQuaternion</text>
</a>
</g>
</g>
<!-- Node1&#45;&gt;Node4 -->
<g id="edge3_Node000001_Node000004" class="edge">
<title>Node1&#45;&gt;Node4</title>
<g id="a_edge3_Node000001_Node000004"><a xlink:title=" ">
<path fill="none" stroke="#63b8ff" d="M295.26,-121.02C357.09,-112.89 433.93,-98.19 454.5,-74 464.89,-61.78 464.78,-43 462.74,-29.03"/>
<polygon fill="#63b8ff" stroke="#63b8ff" points="466.15,-28.24 460.85,-19.07 459.28,-29.55 466.15,-28.24"/>
</a>
</g>
</g>
<!-- Node5 -->
<g id="Node000005" class="node">
<title>Node5</title>
<g id="a_Node000005"><a xlink:title=" ">
<polygon fill="#e0e0e0" stroke="#999999" points="238,-19 135,-19 135,0 238,0 238,-19"/>
<text text-anchor="middle" x="186.5" y="-7" font-family="Helvetica,sans-Serif" font-size="10.00">IBKMK_Vector3D.h</text>
</a>
</g>
</g>
<!-- Node1&#45;&gt;Node5 -->
<g id="edge4_Node000001_Node000005" class="edge">
<title>Node1&#45;&gt;Node5</title>
<g id="a_edge4_Node000001_Node000005"><a xlink:title=" ">
<path fill="none" stroke="#63b8ff" d="M180.82,-109.99C169.03,-100.68 156.87,-88.4 150.5,-74 143.03,-57.11 155.74,-38.87 168.06,-26.29"/>
<polygon fill="#63b8ff" stroke="#63b8ff" points="170.65,-28.66 175.51,-19.25 165.84,-23.58 170.65,-28.66"/>
</a>
</g>
</g>
<!-- Node6 -->
<g id="Node000006" class="node">
<title>Node6</title>
<g id="a_Node000006"><a xlink:href="_v_i_c_u_s___code_gen_macros_8h.html" target="_top" xlink:title=" ">
<polygon fill="white" stroke="#666666" points="391,-19 256,-19 256,0 391,0 391,-19"/>
<text text-anchor="middle" x="323.5" y="-7" font-family="Helvetica,sans-Serif" font-size="10.00">VICUS_CodeGenMacros.h</text>
</a>
</g>
</g>
<!-- Node1&#45;&gt;Node6 -->
<g id="edge5_Node000001_Node000006" class="edge">
<title>Node1&#45;&gt;Node6</title>
<g id="a_edge5_Node000001_Node000006"><a xlink:title=" ">
<path fill="none" stroke="#63b8ff" d="M234.89,-109.75C246.59,-99.49 260.73,-86.52 272.5,-74 286.67,-58.93 301.29,-40.36 311.23,-27.2"/>
<polygon fill="#63b8ff" stroke="#63b8ff" points="314.12,-29.17 317.29,-19.06 308.51,-24.99 314.12,-29.17"/>
</a>
</g>
</g>
<!-- Node7 -->
<g id="Node000007" class="node">
<title>Node7</title>
<g id="a_Node000007"><a xlink:href="_v_i_c_u_s___rotation_matrix_8h.html" target="_top" xlink:title=" ">
<polygon fill="white" stroke="#666666" points="445,-74 320,-74 320,-55 445,-55 445,-74"/>
<text text-anchor="middle" x="382.5" y="-62" font-family="Helvetica,sans-Serif" font-size="10.00">VICUS_RotationMatrix.h</text>
</a>
</g>
</g>
<!-- Node1&#45;&gt;Node7 -->
<g id="edge6_Node000001_Node000007" class="edge">
<title>Node1&#45;&gt;Node7</title>
<g id="a_edge6_Node000001_Node000007"><a xlink:title=" ">
<path fill="none" stroke="#63b8ff" d="M263.73,-109.95C291.88,-99.42 325.72,-86.75 350.06,-77.64"/>
<polygon fill="#63b8ff" stroke="#63b8ff" points="351.4,-80.88 359.54,-74.09 348.95,-74.32 351.4,-80.88"/>
</a>
</g>
</g>
<!-- Node8 -->
<g id="Node000008" class="node">
<title>Node8</title>
<g id="a_Node000008"><a xlink:href="_v_i_c_u_s___grid_plane_8h.html" target="_top" xlink:title=" ">
<polygon fill="white" stroke="#666666" points="263.5,-74 159.5,-74 159.5,-55 263.5,-55 263.5,-74"/>
<text text-anchor="middle" x="211.5" y="-62" font-family="Helvetica,sans-Serif" font-size="10.00">VICUS_GridPlane.h</text>
</a>
</g>
</g>
<!-- Node1&#45;&gt;Node8 -->
<g id="edge9_Node000001_Node000008" class="edge">
<title>Node1&#45;&gt;Node8</title>
<g id="a_edge9_Node000001_Node000008"><a xlink:title=" ">
<path fill="none" stroke="#63b8ff" d="M211.5,-109.95C211.5,-101.85 211.5,-92.5 211.5,-84.47"/>
<polygon fill="#63b8ff" stroke="#63b8ff" points="215,-84.26 211.5,-74.26 208,-84.26 215,-84.26"/>
</a>
</g>
</g>
<!-- Node7&#45;&gt;Node4 -->
<g id="edge7_Node000007_Node000004" class="edge">
<title>Node7&#45;&gt;Node4</title>
<g id="a_edge7_Node000007_Node000004"><a xlink:title=" ">
<path fill="none" stroke="#63b8ff" d="M394.71,-54.98C406.28,-46.92 423.88,-34.65 437.66,-25.03"/>
<polygon fill="#63b8ff" stroke="#63b8ff" points="439.87,-27.76 446.07,-19.17 435.86,-22.02 439.87,-27.76"/>
</a>
</g>
</g>
<!-- Node7&#45;&gt;Node6 -->
<g id="edge8_Node000007_Node000006" class="edge">
<title>Node7&#45;&gt;Node6</title>
<g id="a_edge8_Node000007_Node000006"><a xlink:title=" ">
<path fill="none" stroke="#63b8ff" d="M373.02,-54.98C364.3,-47.15 351.16,-35.34 340.6,-25.86"/>
<polygon fill="#63b8ff" stroke="#63b8ff" points="342.93,-23.25 333.15,-19.17 338.25,-28.46 342.93,-23.25"/>
</a>
</g>
</g>
<!-- Node8&#45;&gt;Node3 -->
<g id="edge10_Node000008_Node000003" class="edge">
<title>Node8&#45;&gt;Node3</title>
<g id="a_edge10_Node000008_Node000003"><a xlink:title=" ">
<path fill="none" stroke="#63b8ff" d="M192.54,-54.98C173.47,-46.42 143.84,-33.11 121.95,-23.28"/>
<polygon fill="#63b8ff" stroke="#63b8ff" points="123.36,-20.07 112.8,-19.17 120.49,-26.46 123.36,-20.07"/>
</a>
</g>
</g>
<!-- Node8&#45;&gt;Node5 -->
<g id="edge11_Node000008_Node000005" class="edge">
<title>Node8&#45;&gt;Node5</title>
<g id="a_edge11_Node000008_Node000005"><a xlink:title=" ">
<path fill="none" stroke="#63b8ff" d="M207.37,-54.75C203.99,-47.57 199.08,-37.18 194.88,-28.27"/>
<polygon fill="#63b8ff" stroke="#63b8ff" points="197.98,-26.64 190.55,-19.09 191.65,-29.63 197.98,-26.64"/>
</a>
</g>
</g>
<!-- Node8&#45;&gt;Node6 -->
<g id="edge12_Node000008_Node000006" class="edge">
<title>Node8&#45;&gt;Node6</title>
<g id="a_edge12_Node000008_Node000006"><a xlink:title=" ">
<path fill="none" stroke="#63b8ff" d="M229.49,-54.98C247.43,-46.5 275.22,-33.35 295.93,-23.54"/>
<polygon fill="#63b8ff" stroke="#63b8ff" points="297.64,-26.61 305.18,-19.17 294.64,-20.28 297.64,-26.61"/>
</a>
</g>
</g>
</g>
</svg>
