<?xml version="1.0" encoding="UTF-8" standalone="no"?>
<!DOCTYPE svg PUBLIC "-//W3C//DTD SVG 1.1//EN"
 "http://www.w3.org/Graphics/SVG/1.1/DTD/svg11.dtd">
<!-- Generated by graphviz version 2.43.0 (0)
 -->
<!-- Title: /home/hirth/git/SIM&#45;VICUS.master2/externals/Vicus/src/VICUS_Polygon2D.h Pages: 1 -->
<svg width="1819pt" height="654pt"
 viewBox="0.00 0.00 1818.50 654.00" xmlns="http://www.w3.org/2000/svg" xmlns:xlink="http://www.w3.org/1999/xlink">
<g id="graph0" class="graph" transform="scale(1 1) rotate(0) translate(4 650)">
<title>/home/hirth/git/SIM&#45;VICUS.master2/externals/Vicus/src/VICUS_Polygon2D.h</title>
<!-- Node1 -->
<g id="Node000001" class="node">
<title>Node1</title>
<g id="a_Node000001"><a xlink:title=" ">
<polygon fill="#999999" stroke="#666666" points="1359,-646 1202,-646 1202,-605 1359,-605 1359,-646"/>
<text text-anchor="start" x="1210" y="-634" font-family="Helvetica,sans-Serif" font-size="10.00">/home/hirth/git/SIM</text>
<text text-anchor="start" x="1210" y="-623" font-family="Helvetica,sans-Serif" font-size="10.00">&#45;VICUS.master2/externals</text>
<text text-anchor="middle" x="1280.5" y="-612" font-family="Helvetica,sans-Serif" font-size="10.00">/Vicus/src/VICUS_Polygon2D.h</text>
</a>
</g>
</g>
<!-- Node2 -->
<g id="Node000002" class="node">
<title>Node2</title>
<g id="a_Node000002"><a xlink:href="_v_i_c_u_s___plain_geometry_8h.html" target="_top" xlink:title=" ">
<polygon fill="white" stroke="#666666" points="823.5,-398.5 651.5,-398.5 651.5,-357.5 823.5,-357.5 823.5,-398.5"/>
<text text-anchor="start" x="659.5" y="-386.5" font-family="Helvetica,sans-Serif" font-size="10.00">/home/hirth/git/SIM</text>
<text text-anchor="start" x="659.5" y="-375.5" font-family="Helvetica,sans-Serif" font-size="10.00">&#45;VICUS.master2/externals</text>
<text text-anchor="middle" x="737.5" y="-364.5" font-family="Helvetica,sans-Serif" font-size="10.00">/Vicus/src/VICUS_PlainGeometry.h</text>
</a>
</g>
</g>
<!-- Node1&#45;&gt;Node2 -->
<g id="edge1_Node000001_Node000002" class="edge">
<title>Node1&#45;&gt;Node2</title>
<g id="a_edge1_Node000001_Node000002"><a xlink:title=" ">
<path fill="none" stroke="#63b8ff" d="M1193.84,-602.1C1161.11,-592.88 1123.75,-581.44 1090.5,-569 1013.95,-540.35 995.65,-530.39 923.5,-492 866.96,-461.92 803.75,-422.13 767.49,-398.68"/>
<polygon fill="#63b8ff" stroke="#63b8ff" points="1193.27,-605.58 1203.84,-604.89 1195.15,-598.83 1193.27,-605.58"/>
</a>
</g>
</g>
<!-- Node15 -->
<g id="Node000015" class="node">
<title>Node15</title>
<g id="a_Node000015"><a xlink:href="_v_i_c_u_s___plane_geometry_8h.html" target="_top" xlink:title=" ">
<polygon fill="white" stroke="#666666" points="1275,-569 1100,-569 1100,-528 1275,-528 1275,-569"/>
<text text-anchor="start" x="1108" y="-557" font-family="Helvetica,sans-Serif" font-size="10.00">/home/hirth/git/SIM</text>
<text text-anchor="start" x="1108" y="-546" font-family="Helvetica,sans-Serif" font-size="10.00">&#45;VICUS.master2/externals</text>
<text text-anchor="middle" x="1187.5" y="-535" font-family="Helvetica,sans-Serif" font-size="10.00">/Vicus/src/VICUS_PlaneGeometry.h</text>
</a>
</g>
</g>
<!-- Node1&#45;&gt;Node15 -->
<g id="edge14_Node000001_Node000015" class="edge">
<title>Node1&#45;&gt;Node15</title>
<g id="a_edge14_Node000001_Node000015"><a xlink:title=" ">
<path fill="none" stroke="#63b8ff" d="M1248.07,-598.35C1236.15,-588.73 1222.86,-578.01 1211.77,-569.07"/>
<polygon fill="#63b8ff" stroke="#63b8ff" points="1246.08,-601.24 1256.07,-604.79 1250.48,-595.79 1246.08,-601.24"/>
</a>
</g>
</g>
<!-- Node29 -->
<g id="Node000029" class="node">
<title>Node29</title>
<g id="a_Node000029"><a xlink:href="_v_i_c_u_s___polygon2_d_8cpp.html" target="_top" xlink:title=" ">
<polygon fill="white" stroke="#666666" points="1639,-569 1472,-569 1472,-528 1639,-528 1639,-569"/>
<text text-anchor="start" x="1480" y="-557" font-family="Helvetica,sans-Serif" font-size="10.00">/home/hirth/git/SIM</text>
<text text-anchor="start" x="1480" y="-546" font-family="Helvetica,sans-Serif" font-size="10.00">&#45;VICUS.master2/externals</text>
<text text-anchor="middle" x="1555.5" y="-535" font-family="Helvetica,sans-Serif" font-size="10.00">/Vicus/src/VICUS_Polygon2D.cpp</text>
</a>
</g>
</g>
<!-- Node1&#45;&gt;Node29 -->
<g id="edge35_Node000001_Node000029" class="edge">
<title>Node1&#45;&gt;Node29</title>
<g id="a_edge35_Node000001_Node000029"><a xlink:title=" ">
<path fill="none" stroke="#63b8ff" d="M1361.72,-602.35C1400.47,-591.78 1446.42,-579.25 1483.85,-569.04"/>
<polygon fill="#63b8ff" stroke="#63b8ff" points="1360.76,-598.98 1352.04,-604.99 1362.6,-605.74 1360.76,-598.98"/>
</a>
</g>
</g>
<!-- Node30 -->
<g id="Node000030" class="node">
<title>Node30</title>
<g id="a_Node000030"><a xlink:href="_v_i_c_u_s___sub_surface_8h.html" target="_top" xlink:title=" ">
<polygon fill="white" stroke="#666666" points="1453.5,-569 1293.5,-569 1293.5,-528 1453.5,-528 1453.5,-569"/>
<text text-anchor="start" x="1301.5" y="-557" font-family="Helvetica,sans-Serif" font-size="10.00">/home/hirth/git/SIM</text>
<text text-anchor="start" x="1301.5" y="-546" font-family="Helvetica,sans-Serif" font-size="10.00">&#45;VICUS.master2/externals</text>
<text text-anchor="middle" x="1373.5" y="-535" font-family="Helvetica,sans-Serif" font-size="10.00">/Vicus/src/VICUS_SubSurface.h</text>
</a>
</g>
</g>
<!-- Node1&#45;&gt;Node30 -->
<g id="edge36_Node000001_Node000030" class="edge">
<title>Node1&#45;&gt;Node30</title>
<g id="a_edge36_Node000001_Node000030"><a xlink:title=" ">
<path fill="none" stroke="#63b8ff" d="M1312.93,-598.35C1324.85,-588.73 1338.14,-578.01 1349.23,-569.07"/>
<polygon fill="#63b8ff" stroke="#63b8ff" points="1310.52,-595.79 1304.93,-604.79 1314.92,-601.24 1310.52,-595.79"/>
</a>
</g>
</g>
<!-- Node3 -->
<g id="Node000003" class="node">
<title>Node3</title>
<g id="a_Node000003"><a xlink:href="_v_i_c_u_s___plain_geometry_8cpp.html" target="_top" xlink:title=" ">
<polygon fill="white" stroke="#666666" points="613.5,-310.5 431.5,-310.5 431.5,-269.5 613.5,-269.5 613.5,-310.5"/>
<text text-anchor="start" x="439.5" y="-298.5" font-family="Helvetica,sans-Serif" font-size="10.00">/home/hirth/git/SIM</text>
<text text-anchor="start" x="439.5" y="-287.5" font-family="Helvetica,sans-Serif" font-size="10.00">&#45;VICUS.master2/externals</text>
<text text-anchor="middle" x="522.5" y="-276.5" font-family="Helvetica,sans-Serif" font-size="10.00">/Vicus/src/VICUS_PlainGeometry.cpp</text>
</a>
</g>
</g>
<!-- Node2&#45;&gt;Node3 -->
<g id="edge2_Node000002_Node000003" class="edge">
<title>Node2&#45;&gt;Node3</title>
<g id="a_edge2_Node000002_Node000003"><a xlink:title=" ">
<path fill="none" stroke="#63b8ff" d="M679.42,-353.77C645.65,-340.26 603.55,-323.42 571.47,-310.59"/>
<polygon fill="#63b8ff" stroke="#63b8ff" points="678.13,-357.02 688.71,-357.49 680.73,-350.52 678.13,-357.02"/>
</a>
</g>
</g>
<!-- Node4 -->
<g id="Node000004" class="node">
<title>Node4</title>
<g id="a_Node000004"><a xlink:href="_v_i_c_u_s___project_8h.html" target="_top" xlink:title=" ">
<polygon fill="white" stroke="#666666" points="860.5,-134.5 720.5,-134.5 720.5,-93.5 860.5,-93.5 860.5,-134.5"/>
<text text-anchor="start" x="728.5" y="-122.5" font-family="Helvetica,sans-Serif" font-size="10.00">/home/hirth/git/SIM</text>
<text text-anchor="start" x="728.5" y="-111.5" font-family="Helvetica,sans-Serif" font-size="10.00">&#45;VICUS.master2/externals</text>
<text text-anchor="middle" x="790.5" y="-100.5" font-family="Helvetica,sans-Serif" font-size="10.00">/Vicus/src/VICUS_Project.h</text>
</a>
</g>
</g>
<!-- Node2&#45;&gt;Node4 -->
<g id="edge3_Node000002_Node000004" class="edge">
<title>Node2&#45;&gt;Node4</title>
<g id="a_edge3_Node000002_Node000004"><a xlink:title=" ">
<path fill="none" stroke="#63b8ff" d="M691.88,-351.58C679.38,-342.16 667.38,-330.23 660.5,-316 650.44,-295.19 652.39,-285.64 660.5,-264 681.29,-208.55 733.09,-160.18 764.67,-134.52"/>
<polygon fill="#63b8ff" stroke="#63b8ff" points="689.93,-354.49 700.12,-357.4 693.97,-348.77 689.93,-354.49"/>
</a>
</g>
</g>
<!-- Node14 -->
<g id="Node000014" class="node">
<title>Node14</title>
<g id="a_Node000014"><a xlink:href="ncg___v_i_c_u_s___plain_geometry_8cpp.html" target="_top" xlink:title=" ">
<polygon fill="white" stroke="#666666" points="805,-316 670,-316 670,-264 805,-264 805,-316"/>
<text text-anchor="start" x="678" y="-304" font-family="Helvetica,sans-Serif" font-size="10.00">/home/hirth/git/SIM</text>
<text text-anchor="start" x="678" y="-293" font-family="Helvetica,sans-Serif" font-size="10.00">&#45;VICUS.master2/externals</text>
<text text-anchor="start" x="678" y="-282" font-family="Helvetica,sans-Serif" font-size="10.00">/Vicus/src/ncg/ncg_VICUS</text>
<text text-anchor="middle" x="737.5" y="-271" font-family="Helvetica,sans-Serif" font-size="10.00">_PlainGeometry.cpp</text>
</a>
</g>
</g>
<!-- Node2&#45;&gt;Node14 -->
<g id="edge13_Node000002_Node000014" class="edge">
<title>Node2&#45;&gt;Node14</title>
<g id="a_edge13_Node000002_Node000014"><a xlink:title=" ">
<path fill="none" stroke="#63b8ff" d="M737.5,-347.44C737.5,-337.31 737.5,-326.08 737.5,-316.32"/>
<polygon fill="#63b8ff" stroke="#63b8ff" points="734,-347.49 737.5,-357.49 741,-347.49 734,-347.49"/>
</a>
</g>
</g>
<!-- Node5 -->
<g id="Node000005" class="node">
<title>Node5</title>
<g id="a_Node000005"><a xlink:href="_v_i_c_u_s___heat_load12831_export_8cpp.html" target="_top" xlink:title=" ">
<polygon fill="white" stroke="#666666" points="519,-52 350,-52 350,0 519,0 519,-52"/>
<text text-anchor="start" x="358" y="-40" font-family="Helvetica,sans-Serif" font-size="10.00">/home/hirth/git/SIM</text>
<text text-anchor="start" x="358" y="-29" font-family="Helvetica,sans-Serif" font-size="10.00">&#45;VICUS.master2/externals</text>
<text text-anchor="start" x="358" y="-18" font-family="Helvetica,sans-Serif" font-size="10.00">/Vicus/src/VICUS_HeatLoad12831</text>
<text text-anchor="middle" x="434.5" y="-7" font-family="Helvetica,sans-Serif" font-size="10.00">Export.cpp</text>
</a>
</g>
</g>
<!-- Node4&#45;&gt;Node5 -->
<g id="edge4_Node000004_Node000005" class="edge">
<title>Node4&#45;&gt;Node5</title>
<g id="a_edge4_Node000004_Node000005"><a xlink:title=" ">
<path fill="none" stroke="#63b8ff" d="M710.47,-95.05C658.51,-83.22 589.38,-67.18 528.5,-52 525.39,-51.22 522.22,-50.43 519.02,-49.61"/>
<polygon fill="#63b8ff" stroke="#63b8ff" points="709.77,-98.48 720.3,-97.28 711.32,-91.65 709.77,-98.48"/>
</a>
</g>
</g>
<!-- Node6 -->
<g id="Node000006" class="node">
<title>Node6</title>
<g id="a_Node000006"><a xlink:href="_v_i_c_u_s___interface_heat_conduction_8cpp.html" target="_top" xlink:title=" ">
<polygon fill="white" stroke="#666666" points="697.5,-52 537.5,-52 537.5,0 697.5,0 697.5,-52"/>
<text text-anchor="start" x="545.5" y="-40" font-family="Helvetica,sans-Serif" font-size="10.00">/home/hirth/git/SIM</text>
<text text-anchor="start" x="545.5" y="-29" font-family="Helvetica,sans-Serif" font-size="10.00">&#45;VICUS.master2/externals</text>
<text text-anchor="start" x="545.5" y="-18" font-family="Helvetica,sans-Serif" font-size="10.00">/Vicus/src/VICUS_InterfaceHeat</text>
<text text-anchor="middle" x="617.5" y="-7" font-family="Helvetica,sans-Serif" font-size="10.00">Conduction.cpp</text>
</a>
</g>
</g>
<!-- Node4&#45;&gt;Node6 -->
<g id="edge5_Node000004_Node000006" class="edge">
<title>Node4&#45;&gt;Node6</title>
<g id="a_edge5_Node000004_Node000006"><a xlink:title=" ">
<path fill="none" stroke="#63b8ff" d="M742,-88.89C718.95,-77.43 691.42,-63.74 668.11,-52.16"/>
<polygon fill="#63b8ff" stroke="#63b8ff" points="740.73,-92.17 751.24,-93.49 743.85,-85.9 740.73,-92.17"/>
</a>
</g>
</g>
<!-- Node7 -->
<g id="Node000007" class="node">
<title>Node7</title>
<g id="a_Node000007"><a xlink:href="_v_i_c_u_s___network_8cpp.html" target="_top" xlink:title=" ">
<polygon fill="white" stroke="#666666" points="1642.5,-46.5 1486.5,-46.5 1486.5,-5.5 1642.5,-5.5 1642.5,-46.5"/>
<text text-anchor="start" x="1494.5" y="-34.5" font-family="Helvetica,sans-Serif" font-size="10.00">/home/hirth/git/SIM</text>
<text text-anchor="start" x="1494.5" y="-23.5" font-family="Helvetica,sans-Serif" font-size="10.00">&#45;VICUS.master2/externals</text>
<text text-anchor="middle" x="1564.5" y="-12.5" font-family="Helvetica,sans-Serif" font-size="10.00">/Vicus/src/VICUS_Network.cpp</text>
</a>
</g>
</g>
<!-- Node4&#45;&gt;Node7 -->
<g id="edge6_Node000004_Node000007" class="edge">
<title>Node4&#45;&gt;Node7</title>
<g id="a_edge6_Node000004_Node000007"><a xlink:title=" ">
<path fill="none" stroke="#63b8ff" d="M870.52,-94.55C883.5,-92.03 896.83,-89.72 909.5,-88 1160.14,-53.91 1228.26,-95.18 1477.5,-52 1485.71,-50.58 1494.24,-48.67 1502.62,-46.55"/>
<polygon fill="#63b8ff" stroke="#63b8ff" points="869.81,-91.12 860.68,-96.51 871.18,-97.99 869.81,-91.12"/>
</a>
</g>
</g>
<!-- Node8 -->
<g id="Node000008" class="node">
<title>Node8</title>
<g id="a_Node000008"><a xlink:href="_v_i_c_u_s___network_edge_8cpp.html" target="_top" xlink:title=" ">
<polygon fill="white" stroke="#666666" points="179,-46.5 0,-46.5 0,-5.5 179,-5.5 179,-46.5"/>
<text text-anchor="start" x="8" y="-34.5" font-family="Helvetica,sans-Serif" font-size="10.00">/home/hirth/git/SIM</text>
<text text-anchor="start" x="8" y="-23.5" font-family="Helvetica,sans-Serif" font-size="10.00">&#45;VICUS.master2/externals</text>
<text text-anchor="middle" x="89.5" y="-12.5" font-family="Helvetica,sans-Serif" font-size="10.00">/Vicus/src/VICUS_NetworkEdge.cpp</text>
</a>
</g>
</g>
<!-- Node4&#45;&gt;Node8 -->
<g id="edge7_Node000004_Node000008" class="edge">
<title>Node4&#45;&gt;Node8</title>
<g id="a_edge7_Node000004_Node000008"><a xlink:title=" ">
<path fill="none" stroke="#63b8ff" d="M710.18,-108.69C594.11,-101.6 373.06,-84.87 187.5,-52 178.86,-50.47 169.85,-48.58 160.95,-46.54"/>
<polygon fill="#63b8ff" stroke="#63b8ff" points="710.2,-112.2 720.4,-109.31 710.62,-105.21 710.2,-112.2"/>
</a>
</g>
</g>
<!-- Node9 -->
<g id="Node000009" class="node">
<title>Node9</title>
<g id="a_Node000009"><a xlink:href="_v_i_c_u_s___project_8cpp.html" target="_top" xlink:title=" ">
<polygon fill="white" stroke="#666666" points="865.5,-46.5 715.5,-46.5 715.5,-5.5 865.5,-5.5 865.5,-46.5"/>
<text text-anchor="start" x="723.5" y="-34.5" font-family="Helvetica,sans-Serif" font-size="10.00">/home/hirth/git/SIM</text>
<text text-anchor="start" x="723.5" y="-23.5" font-family="Helvetica,sans-Serif" font-size="10.00">&#45;VICUS.master2/externals</text>
<text text-anchor="middle" x="790.5" y="-12.5" font-family="Helvetica,sans-Serif" font-size="10.00">/Vicus/src/VICUS_Project.cpp</text>
</a>
</g>
</g>
<!-- Node4&#45;&gt;Node9 -->
<g id="edge8_Node000004_Node000009" class="edge">
<title>Node4&#45;&gt;Node9</title>
<g id="a_edge8_Node000004_Node000009"><a xlink:title=" ">
<path fill="none" stroke="#63b8ff" d="M790.5,-83.36C790.5,-71.26 790.5,-57.58 790.5,-46.74"/>
<polygon fill="#63b8ff" stroke="#63b8ff" points="787,-83.49 790.5,-93.49 794,-83.49 787,-83.49"/>
</a>
</g>
</g>
<!-- Node10 -->
<g id="Node000010" class="node">
<title>Node10</title>
<g id="a_Node000010"><a xlink:href="_v_i_c_u_s___project_generator_8cpp.html" target="_top" xlink:title=" ">
<polygon fill="white" stroke="#666666" points="1075.5,-46.5 883.5,-46.5 883.5,-5.5 1075.5,-5.5 1075.5,-46.5"/>
<text text-anchor="start" x="891.5" y="-34.5" font-family="Helvetica,sans-Serif" font-size="10.00">/home/hirth/git/SIM</text>
<text text-anchor="start" x="891.5" y="-23.5" font-family="Helvetica,sans-Serif" font-size="10.00">&#45;VICUS.master2/externals</text>
<text text-anchor="middle" x="979.5" y="-12.5" font-family="Helvetica,sans-Serif" font-size="10.00">/Vicus/src/VICUS_ProjectGenerator.cpp</text>
</a>
</g>
</g>
<!-- Node4&#45;&gt;Node10 -->
<g id="edge9_Node000004_Node000010" class="edge">
<title>Node4&#45;&gt;Node10</title>
<g id="a_edge9_Node000004_Node000010"><a xlink:title=" ">
<path fill="none" stroke="#63b8ff" d="M842.7,-89.25C872.19,-75.83 908.61,-59.26 936.46,-46.59"/>
<polygon fill="#63b8ff" stroke="#63b8ff" points="841.04,-86.16 833.39,-93.49 843.94,-92.53 841.04,-86.16"/>
</a>
</g>
</g>
<!-- Node11 -->
<g id="Node000011" class="node">
<title>Node11</title>
<g id="a_Node000011"><a xlink:href="_v_i_c_u_s___sub_network_8cpp.html" target="_top" xlink:title=" ">
<polygon fill="white" stroke="#666666" points="1267,-46.5 1094,-46.5 1094,-5.5 1267,-5.5 1267,-46.5"/>
<text text-anchor="start" x="1102" y="-34.5" font-family="Helvetica,sans-Serif" font-size="10.00">/home/hirth/git/SIM</text>
<text text-anchor="start" x="1102" y="-23.5" font-family="Helvetica,sans-Serif" font-size="10.00">&#45;VICUS.master2/externals</text>
<text text-anchor="middle" x="1180.5" y="-12.5" font-family="Helvetica,sans-Serif" font-size="10.00">/Vicus/src/VICUS_SubNetwork.cpp</text>
</a>
</g>
</g>
<!-- Node4&#45;&gt;Node11 -->
<g id="edge10_Node000004_Node000011" class="edge">
<title>Node4&#45;&gt;Node11</title>
<g id="a_edge10_Node000004_Node000011"><a xlink:title=" ">
<path fill="none" stroke="#63b8ff" d="M870.53,-96.14C883.55,-93.41 896.9,-90.62 909.5,-88 987.24,-71.84 1007.16,-70.01 1084.5,-52 1091.88,-50.28 1099.56,-48.41 1107.22,-46.5"/>
<polygon fill="#63b8ff" stroke="#63b8ff" points="869.72,-92.73 860.65,-98.21 871.16,-99.58 869.72,-92.73"/>
</a>
</g>
</g>
<!-- Node12 -->
<g id="Node000012" class="node">
<title>Node12</title>
<g id="a_Node000012"><a xlink:href="_v_i_c_u_s___supply_system_8cpp.html" target="_top" xlink:title=" ">
<polygon fill="white" stroke="#666666" points="1468,-46.5 1285,-46.5 1285,-5.5 1468,-5.5 1468,-46.5"/>
<text text-anchor="start" x="1293" y="-34.5" font-family="Helvetica,sans-Serif" font-size="10.00">/home/hirth/git/SIM</text>
<text text-anchor="start" x="1293" y="-23.5" font-family="Helvetica,sans-Serif" font-size="10.00">&#45;VICUS.master2/externals</text>
<text text-anchor="middle" x="1376.5" y="-12.5" font-family="Helvetica,sans-Serif" font-size="10.00">/Vicus/src/VICUS_SupplySystem.cpp</text>
</a>
</g>
</g>
<!-- Node4&#45;&gt;Node12 -->
<g id="edge11_Node000004_Node000012" class="edge">
<title>Node4&#45;&gt;Node12</title>
<g id="a_edge11_Node000004_Node000012"><a xlink:title=" ">
<path fill="none" stroke="#63b8ff" d="M870.58,-94.93C883.55,-92.37 896.86,-89.94 909.5,-88 1071.05,-63.16 1114.41,-79.71 1275.5,-52 1284.4,-50.47 1293.68,-48.58 1302.84,-46.54"/>
<polygon fill="#63b8ff" stroke="#63b8ff" points="869.85,-91.51 860.74,-96.92 871.24,-98.37 869.85,-91.51"/>
</a>
</g>
</g>
<!-- Node13 -->
<g id="Node000013" class="node">
<title>Node13</title>
<g id="a_Node000013"><a xlink:href="ncg___v_i_c_u_s___project_8cpp.html" target="_top" xlink:title=" ">
<polygon fill="white" stroke="#666666" points="332,-52 197,-52 197,0 332,0 332,-52"/>
<text text-anchor="start" x="205" y="-40" font-family="Helvetica,sans-Serif" font-size="10.00">/home/hirth/git/SIM</text>
<text text-anchor="start" x="205" y="-29" font-family="Helvetica,sans-Serif" font-size="10.00">&#45;VICUS.master2/externals</text>
<text text-anchor="start" x="205" y="-18" font-family="Helvetica,sans-Serif" font-size="10.00">/Vicus/src/ncg/ncg_VICUS</text>
<text text-anchor="middle" x="264.5" y="-7" font-family="Helvetica,sans-Serif" font-size="10.00">_Project.cpp</text>
</a>
</g>
</g>
<!-- Node4&#45;&gt;Node13 -->
<g id="edge12_Node000004_Node000013" class="edge">
<title>Node4&#45;&gt;Node13</title>
<g id="a_edge12_Node000004_Node000013"><a xlink:title=" ">
<path fill="none" stroke="#63b8ff" d="M710.2,-106.58C619.57,-98.31 468.11,-81.38 340.5,-52 337.79,-51.38 335.04,-50.7 332.28,-49.98"/>
<polygon fill="#63b8ff" stroke="#63b8ff" points="710.13,-110.09 720.41,-107.5 710.76,-103.12 710.13,-110.09"/>
</a>
</g>
</g>
<!-- Node16 -->
<g id="Node000016" class="node">
<title>Node16</title>
<g id="a_Node000016"><a xlink:href="_v_i_c_u_s___plane_geometry_8cpp.html" target="_top" xlink:title=" ">
<polygon fill="white" stroke="#666666" points="1118,-486.5 933,-486.5 933,-445.5 1118,-445.5 1118,-486.5"/>
<text text-anchor="start" x="941" y="-474.5" font-family="Helvetica,sans-Serif" font-size="10.00">/home/hirth/git/SIM</text>
<text text-anchor="start" x="941" y="-463.5" font-family="Helvetica,sans-Serif" font-size="10.00">&#45;VICUS.master2/externals</text>
<text text-anchor="middle" x="1025.5" y="-452.5" font-family="Helvetica,sans-Serif" font-size="10.00">/Vicus/src/VICUS_PlaneGeometry.cpp</text>
</a>
</g>
</g>
<!-- Node15&#45;&gt;Node16 -->
<g id="edge15_Node000015_Node000016" class="edge">
<title>Node15&#45;&gt;Node16</title>
<g id="a_edge15_Node000015_Node000016"><a xlink:title=" ">
<path fill="none" stroke="#63b8ff" d="M1138.73,-523.27C1115.16,-511.55 1087.22,-497.67 1065,-486.63"/>
<polygon fill="#63b8ff" stroke="#63b8ff" points="1137.36,-526.49 1147.87,-527.81 1140.47,-520.22 1137.36,-526.49"/>
</a>
</g>
</g>
<!-- Node17 -->
<g id="Node000017" class="node">
<title>Node17</title>
<g id="a_Node000017"><a xlink:href="_v_i_c_u_s___surface_8h.html" target="_top" xlink:title=" ">
<polygon fill="white" stroke="#666666" points="1279,-486.5 1136,-486.5 1136,-445.5 1279,-445.5 1279,-486.5"/>
<text text-anchor="start" x="1144" y="-474.5" font-family="Helvetica,sans-Serif" font-size="10.00">/home/hirth/git/SIM</text>
<text text-anchor="start" x="1144" y="-463.5" font-family="Helvetica,sans-Serif" font-size="10.00">&#45;VICUS.master2/externals</text>
<text text-anchor="middle" x="1207.5" y="-452.5" font-family="Helvetica,sans-Serif" font-size="10.00">/Vicus/src/VICUS_Surface.h</text>
</a>
</g>
</g>
<!-- Node15&#45;&gt;Node17 -->
<g id="edge16_Node000015_Node000017" class="edge">
<title>Node15&#45;&gt;Node17</title>
<g id="a_edge16_Node000015_Node000017"><a xlink:title=" ">
<path fill="none" stroke="#63b8ff" d="M1194.91,-517.69C1197.48,-507.34 1200.3,-496 1202.61,-486.67"/>
<polygon fill="#63b8ff" stroke="#63b8ff" points="1191.46,-517.05 1192.44,-527.6 1198.25,-518.74 1191.46,-517.05"/>
</a>
</g>
</g>
<!-- Node17&#45;&gt;Node2 -->
<g id="edge17_Node000017_Node000002" class="edge">
<title>Node17&#45;&gt;Node2</title>
<g id="a_edge17_Node000017_Node000002"><a xlink:title=" ">
<path fill="none" stroke="#63b8ff" d="M1138.84,-442.9C1134.68,-441.85 1130.55,-440.87 1126.5,-440 999.08,-412.68 963.56,-428.15 835.5,-404 827.13,-402.42 818.42,-400.54 809.79,-398.54"/>
<polygon fill="#63b8ff" stroke="#63b8ff" points="1137.98,-446.29 1148.54,-445.49 1139.78,-439.53 1137.98,-446.29"/>
</a>
</g>
</g>
<!-- Node18 -->
<g id="Node000018" class="node">
<title>Node18</title>
<g id="a_Node000018"><a xlink:href="_v_i_c_u_s___room_8h.html" target="_top" xlink:title=" ">
<polygon fill="white" stroke="#666666" points="1133,-398.5 998,-398.5 998,-357.5 1133,-357.5 1133,-398.5"/>
<text text-anchor="start" x="1006" y="-386.5" font-family="Helvetica,sans-Serif" font-size="10.00">/home/hirth/git/SIM</text>
<text text-anchor="start" x="1006" y="-375.5" font-family="Helvetica,sans-Serif" font-size="10.00">&#45;VICUS.master2/externals</text>
<text text-anchor="middle" x="1065.5" y="-364.5" font-family="Helvetica,sans-Serif" font-size="10.00">/Vicus/src/VICUS_Room.h</text>
</a>
</g>
</g>
<!-- Node17&#45;&gt;Node18 -->
<g id="edge18_Node000017_Node000018" class="edge">
<title>Node17&#45;&gt;Node18</title>
<g id="a_edge18_Node000017_Node000018"><a xlink:title=" ">
<path fill="none" stroke="#63b8ff" d="M1166.58,-440.22C1144.82,-427.04 1118.44,-411.06 1098.09,-398.74"/>
<polygon fill="#63b8ff" stroke="#63b8ff" points="1164.91,-443.3 1175.28,-445.49 1168.54,-437.31 1164.91,-443.3"/>
</a>
</g>
</g>
<!-- Node25 -->
<g id="Node000025" class="node">
<title>Node25</title>
<g id="a_Node000025"><a xlink:href="_v_i_c_u_s___surface_8cpp.html" target="_top" xlink:title=" ">
<polygon fill="white" stroke="#666666" points="1304,-398.5 1151,-398.5 1151,-357.5 1304,-357.5 1304,-398.5"/>
<text text-anchor="start" x="1159" y="-386.5" font-family="Helvetica,sans-Serif" font-size="10.00">/home/hirth/git/SIM</text>
<text text-anchor="start" x="1159" y="-375.5" font-family="Helvetica,sans-Serif" font-size="10.00">&#45;VICUS.master2/externals</text>
<text text-anchor="middle" x="1227.5" y="-364.5" font-family="Helvetica,sans-Serif" font-size="10.00">/Vicus/src/VICUS_Surface.cpp</text>
</a>
</g>
</g>
<!-- Node17&#45;&gt;Node25 -->
<g id="edge26_Node000017_Node000025" class="edge">
<title>Node17&#45;&gt;Node25</title>
<g id="a_edge26_Node000017_Node000025"><a xlink:title=" ">
<path fill="none" stroke="#63b8ff" d="M1214.31,-435.73C1217.14,-423.53 1220.36,-409.69 1222.91,-398.74"/>
<polygon fill="#63b8ff" stroke="#63b8ff" points="1210.89,-434.95 1212.04,-445.49 1217.71,-436.54 1210.89,-434.95"/>
</a>
</g>
</g>
<!-- Node26 -->
<g id="Node000026" class="node">
<title>Node26</title>
<g id="a_Node000026"><a xlink:href="_v_i_c_u_s__utilities_8h.html" target="_top" xlink:title=" ">
<polygon fill="white" stroke="#666666" points="1424.5,-134.5 1284.5,-134.5 1284.5,-93.5 1424.5,-93.5 1424.5,-134.5"/>
<text text-anchor="start" x="1292.5" y="-122.5" font-family="Helvetica,sans-Serif" font-size="10.00">/home/hirth/git/SIM</text>
<text text-anchor="start" x="1292.5" y="-111.5" font-family="Helvetica,sans-Serif" font-size="10.00">&#45;VICUS.master2/externals</text>
<text text-anchor="middle" x="1354.5" y="-100.5" font-family="Helvetica,sans-Serif" font-size="10.00">/Vicus/src/VICUS_utilities.h</text>
</a>
</g>
</g>
<!-- Node17&#45;&gt;Node26 -->
<g id="edge27_Node000017_Node000026" class="edge">
<title>Node17&#45;&gt;Node26</title>
<g id="a_edge27_Node000017_Node000026"><a xlink:title=" ">
<path fill="none" stroke="#63b8ff" d="M1270.29,-440.58C1286.4,-431.43 1302.09,-419.4 1312.5,-404 1342.46,-359.69 1351.56,-192.09 1353.84,-134.54"/>
<polygon fill="#63b8ff" stroke="#63b8ff" points="1268.5,-437.57 1261.33,-445.37 1271.8,-443.74 1268.5,-437.57"/>
</a>
</g>
</g>
<!-- Node28 -->
<g id="Node000028" class="node">
<title>Node28</title>
<g id="a_Node000028"><a xlink:href="ncg___v_i_c_u_s___surface_8cpp.html" target="_top" xlink:title=" ">
<polygon fill="white" stroke="#666666" points="980,-404 845,-404 845,-352 980,-352 980,-404"/>
<text text-anchor="start" x="853" y="-392" font-family="Helvetica,sans-Serif" font-size="10.00">/home/hirth/git/SIM</text>
<text text-anchor="start" x="853" y="-381" font-family="Helvetica,sans-Serif" font-size="10.00">&#45;VICUS.master2/externals</text>
<text text-anchor="start" x="853" y="-370" font-family="Helvetica,sans-Serif" font-size="10.00">/Vicus/src/ncg/ncg_VICUS</text>
<text text-anchor="middle" x="912.5" y="-359" font-family="Helvetica,sans-Serif" font-size="10.00">_Surface.cpp</text>
</a>
</g>
</g>
<!-- Node17&#45;&gt;Node28 -->
<g id="edge34_Node000017_Node000028" class="edge">
<title>Node17&#45;&gt;Node28</title>
<g id="a_edge34_Node000017_Node000028"><a xlink:title=" ">
<path fill="none" stroke="#63b8ff" d="M1135.49,-442.59C1132.45,-441.71 1129.45,-440.84 1126.5,-440 1065.54,-422.65 1049.3,-421.91 988.5,-404 985.84,-403.21 983.12,-402.4 980.39,-401.56"/>
<polygon fill="#63b8ff" stroke="#63b8ff" points="1134.65,-446 1145.23,-445.48 1136.63,-439.28 1134.65,-446"/>
</a>
</g>
</g>
<!-- Node19 -->
<g id="Node000019" class="node">
<title>Node19</title>
<g id="a_Node000019"><a xlink:href="_v_i_c_u_s___building_level_8h.html" target="_top" xlink:title=" ">
<polygon fill="white" stroke="#666666" points="1308,-310.5 1141,-310.5 1141,-269.5 1308,-269.5 1308,-310.5"/>
<text text-anchor="start" x="1149" y="-298.5" font-family="Helvetica,sans-Serif" font-size="10.00">/home/hirth/git/SIM</text>
<text text-anchor="start" x="1149" y="-287.5" font-family="Helvetica,sans-Serif" font-size="10.00">&#45;VICUS.master2/externals</text>
<text text-anchor="middle" x="1224.5" y="-276.5" font-family="Helvetica,sans-Serif" font-size="10.00">/Vicus/src/VICUS_BuildingLevel.h</text>
</a>
</g>
</g>
<!-- Node18&#45;&gt;Node19 -->
<g id="edge19_Node000018_Node000019" class="edge">
<title>Node18&#45;&gt;Node19</title>
<g id="a_edge19_Node000018_Node000019"><a xlink:title=" ">
<path fill="none" stroke="#63b8ff" d="M1110.38,-352.72C1135.02,-339.4 1165.17,-323.09 1188.29,-310.59"/>
<polygon fill="#63b8ff" stroke="#63b8ff" points="1108.71,-349.65 1101.58,-357.49 1112.04,-355.81 1108.71,-349.65"/>
</a>
</g>
</g>
<!-- Node23 -->
<g id="Node000023" class="node">
<title>Node23</title>
<g id="a_Node000023"><a xlink:href="_v_i_c_u_s___room_8cpp.html" target="_top" xlink:title=" ">
<polygon fill="white" stroke="#666666" points="1122.5,-310.5 976.5,-310.5 976.5,-269.5 1122.5,-269.5 1122.5,-310.5"/>
<text text-anchor="start" x="984.5" y="-298.5" font-family="Helvetica,sans-Serif" font-size="10.00">/home/hirth/git/SIM</text>
<text text-anchor="start" x="984.5" y="-287.5" font-family="Helvetica,sans-Serif" font-size="10.00">&#45;VICUS.master2/externals</text>
<text text-anchor="middle" x="1049.5" y="-276.5" font-family="Helvetica,sans-Serif" font-size="10.00">/Vicus/src/VICUS_Room.cpp</text>
</a>
</g>
</g>
<!-- Node18&#45;&gt;Node23 -->
<g id="edge24_Node000018_Node000023" class="edge">
<title>Node18&#45;&gt;Node23</title>
<g id="a_edge24_Node000018_Node000023"><a xlink:title=" ">
<path fill="none" stroke="#63b8ff" d="M1059.99,-347.36C1057.73,-335.26 1055.19,-321.58 1053.17,-310.74"/>
<polygon fill="#63b8ff" stroke="#63b8ff" points="1056.6,-348.29 1061.87,-357.49 1063.48,-347.01 1056.6,-348.29"/>
</a>
</g>
</g>
<!-- Node24 -->
<g id="Node000024" class="node">
<title>Node24</title>
<g id="a_Node000024"><a xlink:href="ncg___v_i_c_u_s___room_8cpp.html" target="_top" xlink:title=" ">
<polygon fill="white" stroke="#666666" points="958,-316 823,-316 823,-264 958,-264 958,-316"/>
<text text-anchor="start" x="831" y="-304" font-family="Helvetica,sans-Serif" font-size="10.00">/home/hirth/git/SIM</text>
<text text-anchor="start" x="831" y="-293" font-family="Helvetica,sans-Serif" font-size="10.00">&#45;VICUS.master2/externals</text>
<text text-anchor="start" x="831" y="-282" font-family="Helvetica,sans-Serif" font-size="10.00">/Vicus/src/ncg/ncg_VICUS</text>
<text text-anchor="middle" x="890.5" y="-271" font-family="Helvetica,sans-Serif" font-size="10.00">_Room.cpp</text>
</a>
</g>
</g>
<!-- Node18&#45;&gt;Node24 -->
<g id="edge25_Node000018_Node000024" class="edge">
<title>Node18&#45;&gt;Node24</title>
<g id="a_edge25_Node000018_Node000024"><a xlink:title=" ">
<path fill="none" stroke="#63b8ff" d="M1016.75,-353.04C993.37,-341.55 965.38,-327.8 941.69,-316.16"/>
<polygon fill="#63b8ff" stroke="#63b8ff" points="1015.27,-356.22 1025.79,-357.49 1018.36,-349.93 1015.27,-356.22"/>
</a>
</g>
</g>
<!-- Node20 -->
<g id="Node000020" class="node">
<title>Node20</title>
<g id="a_Node000020"><a xlink:href="_v_i_c_u_s___building_8h.html" target="_top" xlink:title=" ">
<polygon fill="white" stroke="#666666" points="1058,-222.5 915,-222.5 915,-181.5 1058,-181.5 1058,-222.5"/>
<text text-anchor="start" x="923" y="-210.5" font-family="Helvetica,sans-Serif" font-size="10.00">/home/hirth/git/SIM</text>
<text text-anchor="start" x="923" y="-199.5" font-family="Helvetica,sans-Serif" font-size="10.00">&#45;VICUS.master2/externals</text>
<text text-anchor="middle" x="986.5" y="-188.5" font-family="Helvetica,sans-Serif" font-size="10.00">/Vicus/src/VICUS_Building.h</text>
</a>
</g>
</g>
<!-- Node19&#45;&gt;Node20 -->
<g id="edge20_Node000019_Node000020" class="edge">
<title>Node19&#45;&gt;Node20</title>
<g id="a_edge20_Node000019_Node000020"><a xlink:title=" ">
<path fill="none" stroke="#63b8ff" d="M1160.69,-265.94C1123.22,-252.4 1076.37,-235.48 1040.7,-222.59"/>
<polygon fill="#63b8ff" stroke="#63b8ff" points="1159.9,-269.38 1170.49,-269.49 1162.28,-262.8 1159.9,-269.38"/>
</a>
</g>
</g>
<!-- Node22 -->
<g id="Node000022" class="node">
<title>Node22</title>
<g id="a_Node000022"><a xlink:href="ncg___v_i_c_u_s___building_level_8cpp.html" target="_top" xlink:title=" ">
<polygon fill="white" stroke="#666666" points="1292,-228 1157,-228 1157,-176 1292,-176 1292,-228"/>
<text text-anchor="start" x="1165" y="-216" font-family="Helvetica,sans-Serif" font-size="10.00">/home/hirth/git/SIM</text>
<text text-anchor="start" x="1165" y="-205" font-family="Helvetica,sans-Serif" font-size="10.00">&#45;VICUS.master2/externals</text>
<text text-anchor="start" x="1165" y="-194" font-family="Helvetica,sans-Serif" font-size="10.00">/Vicus/src/ncg/ncg_VICUS</text>
<text text-anchor="middle" x="1224.5" y="-183" font-family="Helvetica,sans-Serif" font-size="10.00">_BuildingLevel.cpp</text>
</a>
</g>
</g>
<!-- Node19&#45;&gt;Node22 -->
<g id="edge23_Node000019_Node000022" class="edge">
<title>Node19&#45;&gt;Node22</title>
<g id="a_edge23_Node000019_Node000022"><a xlink:title=" ">
<path fill="none" stroke="#63b8ff" d="M1224.5,-259.44C1224.5,-249.31 1224.5,-238.08 1224.5,-228.32"/>
<polygon fill="#63b8ff" stroke="#63b8ff" points="1221,-259.49 1224.5,-269.49 1228,-259.49 1221,-259.49"/>
</a>
</g>
</g>
<!-- Node20&#45;&gt;Node4 -->
<g id="edge21_Node000020_Node000004" class="edge">
<title>Node20&#45;&gt;Node4</title>
<g id="a_edge21_Node000020_Node000004"><a xlink:title=" ">
<path fill="none" stroke="#63b8ff" d="M932.76,-177.42C902.11,-163.97 864.14,-147.31 835.14,-134.59"/>
<polygon fill="#63b8ff" stroke="#63b8ff" points="931.46,-180.67 942.02,-181.49 934.27,-174.26 931.46,-180.67"/>
</a>
</g>
</g>
<!-- Node21 -->
<g id="Node000021" class="node">
<title>Node21</title>
<g id="a_Node000021"><a xlink:href="ncg___v_i_c_u_s___building_8cpp.html" target="_top" xlink:title=" ">
<polygon fill="white" stroke="#666666" points="1054,-140 919,-140 919,-88 1054,-88 1054,-140"/>
<text text-anchor="start" x="927" y="-128" font-family="Helvetica,sans-Serif" font-size="10.00">/home/hirth/git/SIM</text>
<text text-anchor="start" x="927" y="-117" font-family="Helvetica,sans-Serif" font-size="10.00">&#45;VICUS.master2/externals</text>
<text text-anchor="start" x="927" y="-106" font-family="Helvetica,sans-Serif" font-size="10.00">/Vicus/src/ncg/ncg_VICUS</text>
<text text-anchor="middle" x="986.5" y="-95" font-family="Helvetica,sans-Serif" font-size="10.00">_Building.cpp</text>
</a>
</g>
</g>
<!-- Node20&#45;&gt;Node21 -->
<g id="edge22_Node000020_Node000021" class="edge">
<title>Node20&#45;&gt;Node21</title>
<g id="a_edge22_Node000020_Node000021"><a xlink:title=" ">
<path fill="none" stroke="#63b8ff" d="M986.5,-171.44C986.5,-161.31 986.5,-150.08 986.5,-140.32"/>
<polygon fill="#63b8ff" stroke="#63b8ff" points="983,-171.49 986.5,-181.49 990,-171.49 983,-171.49"/>
</a>
</g>
</g>
<!-- Node26&#45;&gt;Node7 -->
<g id="edge28_Node000026_Node000007" class="edge">
<title>Node26&#45;&gt;Node7</title>
<g id="a_edge28_Node000026_Node000007"><a xlink:title=" ">
<path fill="none" stroke="#63b8ff" d="M1411.65,-89.6C1444.57,-76.12 1485.47,-59.37 1516.67,-46.59"/>
<polygon fill="#63b8ff" stroke="#63b8ff" points="1410.08,-86.46 1402.15,-93.49 1412.73,-92.93 1410.08,-86.46"/>
</a>
</g>
</g>
<!-- Node26&#45;&gt;Node9 -->
<g id="edge29_Node000026_Node000009" class="edge">
<title>Node26&#45;&gt;Node9</title>
<g id="a_edge29_Node000026_Node000009"><a xlink:title=" ">
<path fill="none" stroke="#63b8ff" d="M1274.15,-106.82C1178.28,-98.51 1013.48,-81.31 874.5,-52 867.2,-50.46 859.62,-48.6 852.14,-46.59"/>
<polygon fill="#63b8ff" stroke="#63b8ff" points="1274.09,-110.32 1284.35,-107.69 1274.69,-103.35 1274.09,-110.32"/>
</a>
</g>
</g>
<!-- Node26&#45;&gt;Node10 -->
<g id="edge30_Node000026_Node000010" class="edge">
<title>Node26&#45;&gt;Node10</title>
<g id="a_edge30_Node000026_Node000010"><a xlink:title=" ">
<path fill="none" stroke="#63b8ff" d="M1274.42,-95.16C1220.67,-83.13 1148.29,-66.8 1084.5,-52 1076.92,-50.24 1069.05,-48.4 1061.16,-46.54"/>
<polygon fill="#63b8ff" stroke="#63b8ff" points="1273.72,-98.59 1284.24,-97.36 1275.24,-91.76 1273.72,-98.59"/>
</a>
</g>
</g>
<!-- Node26&#45;&gt;Node11 -->
<g id="edge31_Node000026_Node000011" class="edge">
<title>Node26&#45;&gt;Node11</title>
<g id="a_edge31_Node000026_Node000011"><a xlink:title=" ">
<path fill="none" stroke="#63b8ff" d="M1305.74,-88.9C1278.71,-75.54 1245.54,-59.15 1220.13,-46.59"/>
<polygon fill="#63b8ff" stroke="#63b8ff" points="1304.5,-92.19 1315.02,-93.49 1307.6,-85.92 1304.5,-92.19"/>
</a>
</g>
</g>
<!-- Node26&#45;&gt;Node12 -->
<g id="edge32_Node000026_Node000012" class="edge">
<title>Node26&#45;&gt;Node12</title>
<g id="a_edge32_Node000026_Node000012"><a xlink:title=" ">
<path fill="none" stroke="#63b8ff" d="M1361.99,-83.73C1365.11,-71.53 1368.65,-57.69 1371.45,-46.74"/>
<polygon fill="#63b8ff" stroke="#63b8ff" points="1358.58,-82.93 1359.49,-93.49 1365.36,-84.66 1358.58,-82.93"/>
</a>
</g>
</g>
<!-- Node27 -->
<g id="Node000027" class="node">
<title>Node27</title>
<g id="a_Node000027"><a xlink:href="_v_i_c_u_s__utilities_8cpp.html" target="_top" xlink:title=" ">
<polygon fill="white" stroke="#666666" points="1810.5,-46.5 1660.5,-46.5 1660.5,-5.5 1810.5,-5.5 1810.5,-46.5"/>
<text text-anchor="start" x="1668.5" y="-34.5" font-family="Helvetica,sans-Serif" font-size="10.00">/home/hirth/git/SIM</text>
<text text-anchor="start" x="1668.5" y="-23.5" font-family="Helvetica,sans-Serif" font-size="10.00">&#45;VICUS.master2/externals</text>
<text text-anchor="middle" x="1735.5" y="-12.5" font-family="Helvetica,sans-Serif" font-size="10.00">/Vicus/src/VICUS_utilities.cpp</text>
</a>
</g>
</g>
<!-- Node26&#45;&gt;Node27 -->
<g id="edge33_Node000026_Node000027" class="edge">
<title>Node26&#45;&gt;Node27</title>
<g id="a_edge33_Node000026_Node000027"><a xlink:title=" ">
<path fill="none" stroke="#63b8ff" d="M1434.96,-98.43C1494.96,-87.09 1578.74,-70.26 1651.5,-52 1658.14,-50.33 1665.04,-48.48 1671.91,-46.56"/>
<polygon fill="#63b8ff" stroke="#63b8ff" points="1433.98,-95.05 1424.8,-100.34 1435.27,-101.93 1433.98,-95.05"/>
</a>
</g>
</g>
<!-- Node30&#45;&gt;Node17 -->
<g id="edge38_Node000030_Node000017" class="edge">
<title>Node30&#45;&gt;Node17</title>
<g id="a_edge38_Node000030_Node000017"><a xlink:title=" ">
<path fill="none" stroke="#63b8ff" d="M1323.85,-523.42C1299.62,-511.67 1270.85,-497.72 1247.98,-486.63"/>
<polygon fill="#63b8ff" stroke="#63b8ff" points="1322.37,-526.59 1332.89,-527.81 1325.42,-520.29 1322.37,-526.59"/>
</a>
</g>
</g>
<!-- Node30&#45;&gt;Node26 -->
<g id="edge39_Node000030_Node000026" class="edge">
<title>Node30&#45;&gt;Node26</title>
<g id="a_edge39_Node000030_Node000026"><a xlink:title=" ">
<path fill="none" stroke="#63b8ff" d="M1373.5,-517.69C1373.5,-484.01 1373.5,-427.57 1373.5,-379 1373.5,-379 1373.5,-379 1373.5,-289 1373.5,-232.78 1363.58,-166.95 1358.07,-134.76"/>
<polygon fill="#63b8ff" stroke="#63b8ff" points="1370,-517.78 1373.5,-527.78 1377,-517.78 1370,-517.78"/>
</a>
</g>
</g>
<!-- Node31 -->
<g id="Node000031" class="node">
<title>Node31</title>
<g id="a_Node000031"><a xlink:href="_v_i_c_u_s___sub_surface_8cpp.html" target="_top" xlink:title=" ">
<polygon fill="white" stroke="#666666" points="1571.5,-486.5 1401.5,-486.5 1401.5,-445.5 1571.5,-445.5 1571.5,-486.5"/>
<text text-anchor="start" x="1409.5" y="-474.5" font-family="Helvetica,sans-Serif" font-size="10.00">/home/hirth/git/SIM</text>
<text text-anchor="start" x="1409.5" y="-463.5" font-family="Helvetica,sans-Serif" font-size="10.00">&#45;VICUS.master2/externals</text>
<text text-anchor="middle" x="1486.5" y="-452.5" font-family="Helvetica,sans-Serif" font-size="10.00">/Vicus/src/VICUS_SubSurface.cpp</text>
</a>
</g>
</g>
<!-- Node30&#45;&gt;Node31 -->
<g id="edge37_Node000030_Node000031" class="edge">
<title>Node30&#45;&gt;Node31</title>
<g id="a_edge37_Node000030_Node000031"><a xlink:title=" ">
<path fill="none" stroke="#63b8ff" d="M1409.68,-521.72C1425.58,-510.4 1443.96,-497.31 1458.75,-486.77"/>
<polygon fill="#63b8ff" stroke="#63b8ff" points="1407.26,-519.15 1401.14,-527.81 1411.32,-524.86 1407.26,-519.15"/>
</a>
</g>
</g>
<!-- Node32 -->
<g id="Node000032" class="node">
<title>Node32</title>
<g id="a_Node000032"><a xlink:href="ncg___v_i_c_u_s___sub_surface_8cpp.html" target="_top" xlink:title=" ">
<polygon fill="white" stroke="#666666" points="1725,-492 1590,-492 1590,-440 1725,-440 1725,-492"/>
<text text-anchor="start" x="1598" y="-480" font-family="Helvetica,sans-Serif" font-size="10.00">/home/hirth/git/SIM</text>
<text text-anchor="start" x="1598" y="-469" font-family="Helvetica,sans-Serif" font-size="10.00">&#45;VICUS.master2/externals</text>
<text text-anchor="start" x="1598" y="-458" font-family="Helvetica,sans-Serif" font-size="10.00">/Vicus/src/ncg/ncg_VICUS</text>
<text text-anchor="middle" x="1657.5" y="-447" font-family="Helvetica,sans-Serif" font-size="10.00">_SubSurface.cpp</text>
</a>
</g>
</g>
<!-- Node30&#45;&gt;Node32 -->
<g id="edge40_Node000030_Node000032" class="edge">
<title>Node30&#45;&gt;Node32</title>
<g id="a_edge40_Node000030_Node000032"><a xlink:title=" ">
<path fill="none" stroke="#63b8ff" d="M1460.24,-525.32C1497.4,-515.54 1541.2,-503.64 1580.5,-492 1583.6,-491.08 1586.76,-490.13 1589.96,-489.15"/>
<polygon fill="#63b8ff" stroke="#63b8ff" points="1459.23,-521.96 1450.44,-527.89 1461.01,-528.74 1459.23,-521.96"/>
</a>
</g>
</g>
</g>
</svg>
