<?xml version="1.0" encoding="UTF-8" standalone="no"?>
<!DOCTYPE svg PUBLIC "-//W3C//DTD SVG 1.1//EN"
 "http://www.w3.org/Graphics/SVG/1.1/DTD/svg11.dtd">
<!-- Generated by graphviz version 2.43.0 (0)
 -->
<!-- Title: /home/hirth/git/SIM&#45;VICUS.master2/externals/Vicus/src/VICUS_Construction.cpp Pages: 1 -->
<svg width="1410pt" height="324pt"
 viewBox="0.00 0.00 1409.80 324.00" xmlns="http://www.w3.org/2000/svg" xmlns:xlink="http://www.w3.org/1999/xlink">
<g id="graph0" class="graph" transform="scale(1 1) rotate(0) translate(4 320)">
<title>/home/hirth/git/SIM&#45;VICUS.master2/externals/Vicus/src/VICUS_Construction.cpp</title>
<!-- Node1 -->
<g id="Node000001" class="node">
<title>Node1</title>
<g id="a_Node000001"><a xlink:title=" ">
<polygon fill="#999999" stroke="#666666" points="1211.09,-316 1036.09,-316 1036.09,-275 1211.09,-275 1211.09,-316"/>
<text text-anchor="start" x="1044.09" y="-304" font-family="Helvetica,sans-Serif" font-size="10.00">/home/hirth/git/SIM</text>
<text text-anchor="start" x="1044.09" y="-293" font-family="Helvetica,sans-Serif" font-size="10.00">&#45;VICUS.master2/externals</text>
<text text-anchor="middle" x="1123.59" y="-282" font-family="Helvetica,sans-Serif" font-size="10.00">/Vicus/src/VICUS_Construction.cpp</text>
</a>
</g>
</g>
<!-- Node2 -->
<g id="Node000002" class="node">
<title>Node2</title>
<g id="a_Node000002"><a xlink:href="_v_i_c_u_s___construction_8h.html" target="_top" xlink:title=" ">
<polygon fill="white" stroke="#666666" points="1182.09,-239 1065.09,-239 1065.09,-220 1182.09,-220 1182.09,-239"/>
<text text-anchor="middle" x="1123.59" y="-227" font-family="Helvetica,sans-Serif" font-size="10.00">VICUS_Construction.h</text>
</a>
</g>
</g>
<!-- Node1&#45;&gt;Node2 -->
<g id="edge1_Node000001_Node000002" class="edge">
<title>Node1&#45;&gt;Node2</title>
<g id="a_edge1_Node000001_Node000002"><a xlink:title=" ">
<path fill="none" stroke="#63b8ff" d="M1123.59,-274.95C1123.59,-266.85 1123.59,-257.5 1123.59,-249.47"/>
<polygon fill="#63b8ff" stroke="#63b8ff" points="1127.09,-249.26 1123.59,-239.26 1120.09,-249.26 1127.09,-249.26"/>
</a>
</g>
</g>
<!-- Node3 -->
<g id="Node000003" class="node">
<title>Node3</title>
<g id="a_Node000003"><a xlink:href="_v_i_c_u_s___code_gen_macros_8h.html" target="_top" xlink:title=" ">
<polygon fill="white" stroke="#666666" points="1159.09,-74 1024.09,-74 1024.09,-55 1159.09,-55 1159.09,-74"/>
<text text-anchor="middle" x="1091.59" y="-62" font-family="Helvetica,sans-Serif" font-size="10.00">VICUS_CodeGenMacros.h</text>
</a>
</g>
</g>
<!-- Node2&#45;&gt;Node3 -->
<g id="edge2_Node000002_Node000003" class="edge">
<title>Node2&#45;&gt;Node3</title>
<g id="a_edge2_Node000002_Node000003"><a xlink:title=" ">
<path fill="none" stroke="#63b8ff" d="M1099.13,-219.86C1083.32,-212.85 1064,-201.27 1054.59,-184 1036.21,-150.27 1061.36,-106.07 1078.33,-82.33"/>
<polygon fill="#63b8ff" stroke="#63b8ff" points="1081.15,-84.4 1084.33,-74.29 1075.54,-80.21 1081.15,-84.4"/>
</a>
</g>
</g>
<!-- Node4 -->
<g id="Node000004" class="node">
<title>Node4</title>
<g id="a_Node000004"><a xlink:href="_v_i_c_u_s___constants_8h.html" target="_top" xlink:title="Contains global constants for the SIM&#45;VICUS data model.">
<polygon fill="white" stroke="#666666" points="568.09,-19 461.09,-19 461.09,0 568.09,0 568.09,-19"/>
<text text-anchor="middle" x="514.59" y="-7" font-family="Helvetica,sans-Serif" font-size="10.00">VICUS_Constants.h</text>
</a>
</g>
</g>
<!-- Node2&#45;&gt;Node4 -->
<g id="edge3_Node000002_Node000004" class="edge">
<title>Node2&#45;&gt;Node4</title>
<g id="a_edge3_Node000002_Node000004"><a xlink:title=" ">
<path fill="none" stroke="#63b8ff" d="M1064.85,-225.07C843.98,-211.56 72.55,-158.57 6.59,-74 -52.89,2.27 329.07,-27.77 450.72,-18.85"/>
<polygon fill="#63b8ff" stroke="#63b8ff" points="451.35,-22.3 461,-17.93 450.73,-15.33 451.35,-22.3"/>
</a>
</g>
</g>
<!-- Node5 -->
<g id="Node000005" class="node">
<title>Node5</title>
<g id="a_Node000005"><a xlink:href="_v_i_c_u_s___material_layer_8h.html" target="_top" xlink:title=" ">
<polygon fill="white" stroke="#666666" points="1183.09,-184 1064.09,-184 1064.09,-165 1183.09,-165 1183.09,-184"/>
<text text-anchor="middle" x="1123.59" y="-172" font-family="Helvetica,sans-Serif" font-size="10.00">VICUS_MaterialLayer.h</text>
</a>
</g>
</g>
<!-- Node2&#45;&gt;Node5 -->
<g id="edge4_Node000002_Node000005" class="edge">
<title>Node2&#45;&gt;Node5</title>
<g id="a_edge4_Node000002_Node000005"><a xlink:title=" ">
<path fill="none" stroke="#63b8ff" d="M1123.59,-219.75C1123.59,-212.8 1123.59,-202.85 1123.59,-194.13"/>
<polygon fill="#63b8ff" stroke="#63b8ff" points="1127.09,-194.09 1123.59,-184.09 1120.09,-194.09 1127.09,-194.09"/>
</a>
</g>
</g>
<!-- Node6 -->
<g id="Node000006" class="node">
<title>Node6</title>
<g id="a_Node000006"><a xlink:href="_v_i_c_u_s___database_8h.html" target="_top" xlink:title=" ">
<polygon fill="white" stroke="#666666" points="338.59,-129 234.59,-129 234.59,-110 338.59,-110 338.59,-129"/>
<text text-anchor="middle" x="286.59" y="-117" font-family="Helvetica,sans-Serif" font-size="10.00">VICUS_Database.h</text>
</a>
</g>
</g>
<!-- Node2&#45;&gt;Node6 -->
<g id="edge36_Node000002_Node000006" class="edge">
<title>Node2&#45;&gt;Node6</title>
<g id="a_edge36_Node000002_Node000006"><a xlink:title=" ">
<path fill="none" stroke="#63b8ff" d="M1064.97,-222.9C985.16,-215.1 837.88,-200.11 712.59,-184 582.84,-167.31 431.47,-143.78 348.63,-130.55"/>
<polygon fill="#63b8ff" stroke="#63b8ff" points="349.06,-127.07 338.63,-128.95 347.95,-133.98 349.06,-127.07"/>
</a>
</g>
</g>
<!-- Node8 -->
<g id="Node000008" class="node">
<title>Node8</title>
<g id="a_Node000008"><a xlink:href="_v_i_c_u_s___abstract_d_b_element_8h.html" target="_top" xlink:title=" ">
<polygon fill="white" stroke="#666666" points="487.09,-74 338.09,-74 338.09,-55 487.09,-55 487.09,-74"/>
<text text-anchor="middle" x="412.59" y="-62" font-family="Helvetica,sans-Serif" font-size="10.00">VICUS_AbstractDBElement.h</text>
</a>
</g>
</g>
<!-- Node2&#45;&gt;Node8 -->
<g id="edge35_Node000002_Node000008" class="edge">
<title>Node2&#45;&gt;Node8</title>
<g id="a_edge35_Node000002_Node000008"><a xlink:title=" ">
<path fill="none" stroke="#63b8ff" d="M1086.37,-219.97C966.76,-192.55 592.36,-106.71 459.74,-76.31"/>
<polygon fill="#63b8ff" stroke="#63b8ff" points="460.41,-72.87 449.88,-74.05 458.84,-79.69 460.41,-72.87"/>
</a>
</g>
</g>
<!-- Node10 -->
<g id="Node000010" class="node">
<title>Node10</title>
<g id="a_Node000010"><a xlink:title=" ">
<polygon fill="#e0e0e0" stroke="#999999" points="1019.09,-19 972.09,-19 972.09,0 1019.09,0 1019.09,-19"/>
<text text-anchor="middle" x="995.59" y="-7" font-family="Helvetica,sans-Serif" font-size="10.00">QColor</text>
</a>
</g>
</g>
<!-- Node2&#45;&gt;Node10 -->
<g id="edge31_Node000002_Node000010" class="edge">
<title>Node2&#45;&gt;Node10</title>
<g id="a_edge31_Node000002_Node000010"><a xlink:title=" ">
<path fill="none" stroke="#63b8ff" d="M1182.14,-228.58C1227.77,-225.91 1290.71,-215.95 1335.59,-184 1385.56,-148.43 1425.42,-100.77 1384.59,-55 1361.11,-28.68 1119.98,-15.79 1029.58,-11.85"/>
<polygon fill="#63b8ff" stroke="#63b8ff" points="1029.46,-8.34 1019.33,-11.41 1029.17,-15.34 1029.46,-8.34"/>
</a>
</g>
</g>
<!-- Node14 -->
<g id="Node000014" class="node">
<title>Node14</title>
<g id="a_Node000014"><a xlink:href="_v_i_c_u_s___material_8h.html" target="_top" xlink:title=" ">
<polygon fill="white" stroke="#666666" points="994.59,-129 898.59,-129 898.59,-110 994.59,-110 994.59,-129"/>
<text text-anchor="middle" x="946.59" y="-117" font-family="Helvetica,sans-Serif" font-size="10.00">VICUS_Material.h</text>
</a>
</g>
</g>
<!-- Node2&#45;&gt;Node14 -->
<g id="edge37_Node000002_Node000014" class="edge">
<title>Node2&#45;&gt;Node14</title>
<g id="a_edge37_Node000002_Node000014"><a xlink:title=" ">
<path fill="none" stroke="#63b8ff" d="M1091.09,-220C1067.03,-212.77 1034.14,-200.86 1008.59,-184 989,-171.07 970.76,-151.03 959.21,-136.93"/>
<polygon fill="#63b8ff" stroke="#63b8ff" points="961.89,-134.69 952.93,-129.04 956.42,-139.04 961.89,-134.69"/>
</a>
</g>
</g>
<!-- Node15 -->
<g id="Node000015" class="node">
<title>Node15</title>
<g id="a_Node000015"><a xlink:title=" ">
<polygon fill="#e0e0e0" stroke="#999999" points="1265.59,-74 1215.59,-74 1215.59,-55 1265.59,-55 1265.59,-74"/>
<text text-anchor="middle" x="1240.59" y="-62" font-family="Helvetica,sans-Serif" font-size="10.00">QString</text>
</a>
</g>
</g>
<!-- Node2&#45;&gt;Node15 -->
<g id="edge30_Node000002_Node000015" class="edge">
<title>Node2&#45;&gt;Node15</title>
<g id="a_edge30_Node000002_Node000015"><a xlink:title=" ">
<path fill="none" stroke="#63b8ff" d="M1182.27,-220.12C1234.33,-209.16 1307.03,-184.33 1339.59,-129 1343.87,-121.72 1344.18,-117.09 1339.59,-110 1332.14,-98.48 1301.11,-85.66 1275.76,-76.75"/>
<polygon fill="#63b8ff" stroke="#63b8ff" points="1276.62,-73.35 1266.03,-73.42 1274.35,-79.97 1276.62,-73.35"/>
</a>
</g>
</g>
<!-- Node17 -->
<g id="Node000017" class="node">
<title>Node17</title>
<g id="a_Node000017"><a xlink:title=" ">
<polygon fill="#e0e0e0" stroke="#999999" points="1375.09,-74 1284.09,-74 1284.09,-55 1375.09,-55 1375.09,-74"/>
<text text-anchor="middle" x="1329.59" y="-62" font-family="Helvetica,sans-Serif" font-size="10.00">IBK_Parameter.h</text>
</a>
</g>
</g>
<!-- Node2&#45;&gt;Node17 -->
<g id="edge34_Node000002_Node000017" class="edge">
<title>Node2&#45;&gt;Node17</title>
<g id="a_edge34_Node000002_Node000017"><a xlink:title=" ">
<path fill="none" stroke="#63b8ff" d="M1182.24,-224.2C1220.86,-219.13 1271.19,-208.07 1309.59,-184 1336.35,-167.22 1343.97,-158.75 1354.59,-129 1360.3,-113.02 1351.79,-95.04 1343.19,-82.31"/>
<polygon fill="#63b8ff" stroke="#63b8ff" points="1345.87,-80.03 1337.11,-74.06 1340.23,-84.19 1345.87,-80.03"/>
</a>
</g>
</g>
<!-- Node20 -->
<g id="Node000020" class="node">
<title>Node20</title>
<g id="a_Node000020"><a xlink:title=" ">
<polygon fill="#e0e0e0" stroke="#999999" points="1246.59,-129 1202.59,-129 1202.59,-110 1246.59,-110 1246.59,-129"/>
<text text-anchor="middle" x="1224.59" y="-117" font-family="Helvetica,sans-Serif" font-size="10.00">vector</text>
</a>
</g>
</g>
<!-- Node2&#45;&gt;Node20 -->
<g id="edge32_Node000002_Node000020" class="edge">
<title>Node2&#45;&gt;Node20</title>
<g id="a_edge32_Node000002_Node000020"><a xlink:title=" ">
<path fill="none" stroke="#63b8ff" d="M1141.91,-219.85C1156.77,-212.11 1177.49,-199.59 1191.59,-184 1203.56,-170.77 1212.49,-152.4 1218.02,-138.82"/>
<polygon fill="#63b8ff" stroke="#63b8ff" points="1221.41,-139.74 1221.72,-129.15 1214.87,-137.24 1221.41,-139.74"/>
</a>
</g>
</g>
<!-- Node21 -->
<g id="Node000021" class="node">
<title>Node21</title>
<g id="a_Node000021"><a xlink:title=" ">
<polygon fill="#e0e0e0" stroke="#999999" points="1330.09,-129 1265.09,-129 1265.09,-110 1330.09,-110 1330.09,-129"/>
<text text-anchor="middle" x="1297.59" y="-117" font-family="Helvetica,sans-Serif" font-size="10.00">IBK_Flag.h</text>
</a>
</g>
</g>
<!-- Node2&#45;&gt;Node21 -->
<g id="edge33_Node000002_Node000021" class="edge">
<title>Node2&#45;&gt;Node21</title>
<g id="a_edge33_Node000002_Node000021"><a xlink:title=" ">
<path fill="none" stroke="#63b8ff" d="M1143.22,-219.91C1161.62,-211.58 1189.65,-198.15 1212.59,-184 1236.76,-169.1 1262.64,-149.12 1279.41,-135.58"/>
<polygon fill="#63b8ff" stroke="#63b8ff" points="1281.75,-138.18 1287.29,-129.15 1277.33,-132.76 1281.75,-138.18"/>
</a>
</g>
</g>
<!-- Node5&#45;&gt;Node3 -->
<g id="edge5_Node000005_Node000003" class="edge">
<title>Node5&#45;&gt;Node3</title>
<g id="a_edge5_Node000005_Node000003"><a xlink:title=" ">
<path fill="none" stroke="#63b8ff" d="M1112.6,-164.99C1103.14,-156.9 1090.16,-143.81 1084.59,-129 1079.1,-114.4 1081.75,-96.68 1085.26,-83.67"/>
<polygon fill="#63b8ff" stroke="#63b8ff" points="1088.63,-84.61 1088.25,-74.03 1081.95,-82.54 1088.63,-84.61"/>
</a>
</g>
</g>
<!-- Node5&#45;&gt;Node4 -->
<g id="edge6_Node000005_Node000004" class="edge">
<title>Node5&#45;&gt;Node4</title>
<g id="a_edge6_Node000005_Node000004"><a xlink:title=" ">
<path fill="none" stroke="#63b8ff" d="M1125.03,-164.94C1127.36,-152.42 1132.6,-128.56 1141.59,-110 1153.37,-85.66 1186.05,-74.76 1167.59,-55 1147.67,-33.67 739,-17.91 578.5,-12.52"/>
<polygon fill="#63b8ff" stroke="#63b8ff" points="578.4,-9.02 568.29,-12.18 578.17,-16.01 578.4,-9.02"/>
</a>
</g>
</g>
<!-- Node5&#45;&gt;Node6 -->
<g id="edge7_Node000005_Node000006" class="edge">
<title>Node5&#45;&gt;Node6</title>
<g id="a_edge7_Node000005_Node000006"><a xlink:title=" ">
<path fill="none" stroke="#63b8ff" d="M1064.07,-169.73C911.1,-160.04 505.31,-134.35 349.1,-124.46"/>
<polygon fill="#63b8ff" stroke="#63b8ff" points="348.94,-120.94 338.74,-123.8 348.5,-127.93 348.94,-120.94"/>
</a>
</g>
</g>
<!-- Node5&#45;&gt;Node14 -->
<g id="edge16_Node000005_Node000014" class="edge">
<title>Node5&#45;&gt;Node14</title>
<g id="a_edge16_Node000005_Node000014"><a xlink:title=" ">
<path fill="none" stroke="#63b8ff" d="M1095.15,-164.98C1065.31,-156.05 1018.21,-141.94 985.06,-132.02"/>
<polygon fill="#63b8ff" stroke="#63b8ff" points="985.84,-128.6 975.25,-129.08 983.83,-135.3 985.84,-128.6"/>
</a>
</g>
</g>
<!-- Node5&#45;&gt;Node15 -->
<g id="edge26_Node000005_Node000015" class="edge">
<title>Node5&#45;&gt;Node15</title>
<g id="a_edge26_Node000005_Node000015"><a xlink:title=" ">
<path fill="none" stroke="#63b8ff" d="M1126.92,-164.72C1132.3,-151.49 1144.01,-126.26 1160.59,-110 1174.31,-96.55 1192.92,-85.88 1208.73,-78.36"/>
<polygon fill="#63b8ff" stroke="#63b8ff" points="1210.49,-81.41 1218.15,-74.09 1207.6,-75.03 1210.49,-81.41"/>
</a>
</g>
</g>
<!-- Node5&#45;&gt;Node17 -->
<g id="edge29_Node000005_Node000017" class="edge">
<title>Node5&#45;&gt;Node17</title>
<g id="a_edge29_Node000005_Node000017"><a xlink:title=" ">
<path fill="none" stroke="#63b8ff" d="M1130.89,-164.86C1142.75,-151.34 1167.49,-125.17 1193.59,-110 1220.06,-94.61 1252.57,-83.73 1279.17,-76.58"/>
<polygon fill="#63b8ff" stroke="#63b8ff" points="1280.24,-79.91 1289.04,-74.02 1278.49,-73.14 1280.24,-79.91"/>
</a>
</g>
</g>
<!-- Node5&#45;&gt;Node20 -->
<g id="edge27_Node000005_Node000020" class="edge">
<title>Node5&#45;&gt;Node20</title>
<g id="a_edge27_Node000005_Node000020"><a xlink:title=" ">
<path fill="none" stroke="#63b8ff" d="M1139.82,-164.98C1155.77,-156.61 1180.37,-143.7 1198.97,-133.95"/>
<polygon fill="#63b8ff" stroke="#63b8ff" points="1200.84,-136.92 1208.07,-129.17 1197.59,-130.72 1200.84,-136.92"/>
</a>
</g>
</g>
<!-- Node5&#45;&gt;Node21 -->
<g id="edge28_Node000005_Node000021" class="edge">
<title>Node5&#45;&gt;Node21</title>
<g id="a_edge28_Node000005_Node000021"><a xlink:title=" ">
<path fill="none" stroke="#63b8ff" d="M1151.55,-164.98C1180.89,-156.05 1227.19,-141.94 1259.78,-132.02"/>
<polygon fill="#63b8ff" stroke="#63b8ff" points="1260.87,-135.34 1269.42,-129.08 1258.83,-128.65 1260.87,-135.34"/>
</a>
</g>
</g>
<!-- Node7 -->
<g id="Node000007" class="node">
<title>Node7</title>
<g id="a_Node000007"><a xlink:title=" ">
<polygon fill="#e0e0e0" stroke="#999999" points="235.09,-74 200.09,-74 200.09,-55 235.09,-55 235.09,-74"/>
<text text-anchor="middle" x="217.59" y="-62" font-family="Helvetica,sans-Serif" font-size="10.00">map</text>
</a>
</g>
</g>
<!-- Node6&#45;&gt;Node7 -->
<g id="edge8_Node000006_Node000007" class="edge">
<title>Node6&#45;&gt;Node7</title>
<g id="a_edge8_Node000006_Node000007"><a xlink:title=" ">
<path fill="none" stroke="#63b8ff" d="M275.51,-109.98C265.11,-102 249.33,-89.88 236.87,-80.31"/>
<polygon fill="#63b8ff" stroke="#63b8ff" points="238.94,-77.49 228.88,-74.17 234.68,-83.04 238.94,-77.49"/>
</a>
</g>
</g>
<!-- Node6&#45;&gt;Node8 -->
<g id="edge9_Node000006_Node000008" class="edge">
<title>Node6&#45;&gt;Node8</title>
<g id="a_edge9_Node000006_Node000008"><a xlink:title=" ">
<path fill="none" stroke="#63b8ff" d="M306.84,-109.98C327.29,-101.38 359.12,-87.99 382.52,-78.15"/>
<polygon fill="#63b8ff" stroke="#63b8ff" points="384.12,-81.27 391.98,-74.17 381.4,-74.82 384.12,-81.27"/>
</a>
</g>
</g>
<!-- Node11 -->
<g id="Node000011" class="node">
<title>Node11</title>
<g id="a_Node000011"><a xlink:title=" ">
<polygon fill="#e0e0e0" stroke="#999999" points="320.09,-74 253.09,-74 253.09,-55 320.09,-55 320.09,-74"/>
<text text-anchor="middle" x="286.59" y="-62" font-family="Helvetica,sans-Serif" font-size="10.00">IBK_Path.h</text>
</a>
</g>
</g>
<!-- Node6&#45;&gt;Node11 -->
<g id="edge13_Node000006_Node000011" class="edge">
<title>Node6&#45;&gt;Node11</title>
<g id="a_edge13_Node000006_Node000011"><a xlink:title=" ">
<path fill="none" stroke="#63b8ff" d="M286.59,-109.75C286.59,-102.8 286.59,-92.85 286.59,-84.13"/>
<polygon fill="#63b8ff" stroke="#63b8ff" points="290.09,-84.09 286.59,-74.09 283.09,-84.09 290.09,-84.09"/>
</a>
</g>
</g>
<!-- Node12 -->
<g id="Node000012" class="node">
<title>Node12</title>
<g id="a_Node000012"><a xlink:title=" ">
<polygon fill="#e0e0e0" stroke="#999999" points="107.59,-74 15.59,-74 15.59,-55 107.59,-55 107.59,-74"/>
<text text-anchor="middle" x="61.59" y="-62" font-family="Helvetica,sans-Serif" font-size="10.00">IBK_messages.h</text>
</a>
</g>
</g>
<!-- Node6&#45;&gt;Node12 -->
<g id="edge14_Node000006_Node000012" class="edge">
<title>Node6&#45;&gt;Node12</title>
<g id="a_edge14_Node000006_Node000012"><a xlink:title=" ">
<path fill="none" stroke="#63b8ff" d="M250.44,-109.98C211.69,-100.86 150.04,-86.33 107.79,-76.38"/>
<polygon fill="#63b8ff" stroke="#63b8ff" points="108.56,-72.97 98.02,-74.08 106.96,-79.78 108.56,-72.97"/>
</a>
</g>
</g>
<!-- Node13 -->
<g id="Node000013" class="node">
<title>Node13</title>
<g id="a_Node000013"><a xlink:title=" ">
<polygon fill="#e0e0e0" stroke="#999999" points="181.59,-74 125.59,-74 125.59,-55 181.59,-55 181.59,-74"/>
<text text-anchor="middle" x="153.59" y="-62" font-family="Helvetica,sans-Serif" font-size="10.00">tinyxml.h</text>
</a>
</g>
</g>
<!-- Node6&#45;&gt;Node13 -->
<g id="edge15_Node000006_Node000013" class="edge">
<title>Node6&#45;&gt;Node13</title>
<g id="a_edge15_Node000006_Node000013"><a xlink:title=" ">
<path fill="none" stroke="#63b8ff" d="M265.22,-109.98C243.44,-101.3 209.43,-87.75 184.67,-77.88"/>
<polygon fill="#63b8ff" stroke="#63b8ff" points="185.93,-74.62 175.35,-74.17 183.34,-81.12 185.93,-74.62"/>
</a>
</g>
</g>
<!-- Node8&#45;&gt;Node4 -->
<g id="edge12_Node000008_Node000004" class="edge">
<title>Node8&#45;&gt;Node4</title>
<g id="a_edge12_Node000008_Node000004"><a xlink:title=" ">
<path fill="none" stroke="#63b8ff" d="M428.98,-54.98C445.17,-46.57 470.16,-33.59 488.97,-23.81"/>
<polygon fill="#63b8ff" stroke="#63b8ff" points="490.65,-26.89 497.91,-19.17 487.42,-20.68 490.65,-26.89"/>
</a>
</g>
</g>
<!-- Node9 -->
<g id="Node000009" class="node">
<title>Node9</title>
<g id="a_Node000009"><a xlink:title=" ">
<polygon fill="#e0e0e0" stroke="#999999" points="443.09,-19 308.09,-19 308.09,0 443.09,0 443.09,-19"/>
<text text-anchor="middle" x="375.59" y="-7" font-family="Helvetica,sans-Serif" font-size="10.00">IBK_MultiLanguageString.h</text>
</a>
</g>
</g>
<!-- Node8&#45;&gt;Node9 -->
<g id="edge10_Node000008_Node000009" class="edge">
<title>Node8&#45;&gt;Node9</title>
<g id="a_edge10_Node000008_Node000009"><a xlink:title=" ">
<path fill="none" stroke="#63b8ff" d="M406.48,-54.75C401.31,-47.34 393.75,-36.5 387.4,-27.41"/>
<polygon fill="#63b8ff" stroke="#63b8ff" points="390.18,-25.29 381.59,-19.09 384.44,-29.29 390.18,-25.29"/>
</a>
</g>
</g>
<!-- Node8&#45;&gt;Node10 -->
<g id="edge11_Node000008_Node000010" class="edge">
<title>Node8&#45;&gt;Node10</title>
<g id="a_edge11_Node000008_Node000010"><a xlink:title=" ">
<path fill="none" stroke="#63b8ff" d="M487.32,-56.71C615,-45.1 870.23,-21.9 961.87,-13.57"/>
<polygon fill="#63b8ff" stroke="#63b8ff" points="962.32,-17.04 971.96,-12.65 961.69,-10.07 962.32,-17.04"/>
</a>
</g>
</g>
<!-- Node14&#45;&gt;Node3 -->
<g id="edge17_Node000014_Node000003" class="edge">
<title>Node14&#45;&gt;Node3</title>
<g id="a_edge17_Node000014_Node000003"><a xlink:title=" ">
<path fill="none" stroke="#63b8ff" d="M969.89,-109.98C993.84,-101.23 1031.37,-87.51 1058.42,-77.62"/>
<polygon fill="#63b8ff" stroke="#63b8ff" points="1059.68,-80.89 1067.87,-74.17 1057.28,-74.32 1059.68,-80.89"/>
</a>
</g>
</g>
<!-- Node14&#45;&gt;Node4 -->
<g id="edge18_Node000014_Node000004" class="edge">
<title>Node14&#45;&gt;Node4</title>
<g id="a_edge18_Node000014_Node000004"><a xlink:title=" ">
<path fill="none" stroke="#63b8ff" d="M898.39,-116.28C795.44,-111.11 561.18,-96.94 533.59,-74 520.61,-63.2 516.26,-43.91 514.92,-29.42"/>
<polygon fill="#63b8ff" stroke="#63b8ff" points="518.4,-28.88 514.39,-19.08 511.41,-29.25 518.4,-28.88"/>
</a>
</g>
</g>
<!-- Node14&#45;&gt;Node8 -->
<g id="edge19_Node000014_Node000008" class="edge">
<title>Node14&#45;&gt;Node8</title>
<g id="a_edge19_Node000014_Node000008"><a xlink:title=" ">
<path fill="none" stroke="#63b8ff" d="M898.26,-113.7C807.55,-104.7 610.74,-85.17 497.47,-73.92"/>
<polygon fill="#63b8ff" stroke="#63b8ff" points="497.75,-70.43 487.45,-72.93 497.05,-77.4 497.75,-70.43"/>
</a>
</g>
</g>
<!-- Node14&#45;&gt;Node10 -->
<g id="edge21_Node000014_Node000010" class="edge">
<title>Node14&#45;&gt;Node10</title>
<g id="a_edge21_Node000014_Node000010"><a xlink:title=" ">
<path fill="none" stroke="#63b8ff" d="M953.65,-109.78C960.34,-101.14 970.3,-87.31 976.59,-74 983.44,-59.52 988.46,-42.01 991.61,-29.05"/>
<polygon fill="#63b8ff" stroke="#63b8ff" points="995.09,-29.54 993.9,-19.02 988.27,-27.99 995.09,-29.54"/>
</a>
</g>
</g>
<!-- Node14&#45;&gt;Node15 -->
<g id="edge20_Node000014_Node000015" class="edge">
<title>Node14&#45;&gt;Node15</title>
<g id="a_edge20_Node000014_Node000015"><a xlink:title=" ">
<path fill="none" stroke="#63b8ff" d="M993.83,-109.98C1052.87,-99.34 1152.57,-81.37 1205.36,-71.85"/>
<polygon fill="#63b8ff" stroke="#63b8ff" points="1206.04,-75.28 1215.26,-70.07 1204.8,-68.4 1206.04,-75.28"/>
</a>
</g>
</g>
<!-- Node16 -->
<g id="Node000016" class="node">
<title>Node16</title>
<g id="a_Node000016"><a xlink:title=" ">
<polygon fill="#e0e0e0" stroke="#999999" points="636.09,-74 543.09,-74 543.09,-55 636.09,-55 636.09,-74"/>
<text text-anchor="middle" x="589.59" y="-62" font-family="Helvetica,sans-Serif" font-size="10.00">QCoreApplication</text>
</a>
</g>
</g>
<!-- Node14&#45;&gt;Node16 -->
<g id="edge22_Node000014_Node000016" class="edge">
<title>Node14&#45;&gt;Node16</title>
<g id="a_edge22_Node000014_Node000016"><a xlink:title=" ">
<path fill="none" stroke="#63b8ff" d="M898.46,-111.51C840.88,-103.13 741.3,-88.57 646.18,-74.23"/>
<polygon fill="#63b8ff" stroke="#63b8ff" points="646.51,-70.74 636.1,-72.71 645.46,-77.66 646.51,-70.74"/>
</a>
</g>
</g>
<!-- Node14&#45;&gt;Node17 -->
<g id="edge23_Node000014_Node000017" class="edge">
<title>Node14&#45;&gt;Node17</title>
<g id="a_edge23_Node000014_Node000017"><a xlink:title=" ">
<path fill="none" stroke="#63b8ff" d="M994.71,-112.26C1056.73,-104.14 1168.2,-89.35 1274.08,-74.05"/>
<polygon fill="#63b8ff" stroke="#63b8ff" points="1274.59,-77.51 1283.98,-72.62 1273.58,-70.59 1274.59,-77.51"/>
</a>
</g>
</g>
<!-- Node18 -->
<g id="Node000018" class="node">
<title>Node18</title>
<g id="a_Node000018"><a xlink:title=" ">
<polygon fill="#e0e0e0" stroke="#999999" points="833.09,-74 654.09,-74 654.09,-55 833.09,-55 833.09,-74"/>
<text text-anchor="middle" x="743.59" y="-62" font-family="Helvetica,sans-Serif" font-size="10.00">NANDRAD_LinearSplineParameter.h</text>
</a>
</g>
</g>
<!-- Node14&#45;&gt;Node18 -->
<g id="edge24_Node000014_Node000018" class="edge">
<title>Node14&#45;&gt;Node18</title>
<g id="a_edge24_Node000014_Node000018"><a xlink:title=" ">
<path fill="none" stroke="#63b8ff" d="M913.98,-109.98C879.3,-100.93 824.33,-86.58 786.24,-76.64"/>
<polygon fill="#63b8ff" stroke="#63b8ff" points="787.02,-73.22 776.46,-74.08 785.25,-79.99 787.02,-73.22"/>
</a>
</g>
</g>
<!-- Node19 -->
<g id="Node000019" class="node">
<title>Node19</title>
<g id="a_Node000019"><a xlink:title=" ">
<polygon fill="#e0e0e0" stroke="#999999" points="967.59,-74 851.59,-74 851.59,-55 967.59,-55 967.59,-74"/>
<text text-anchor="middle" x="909.59" y="-62" font-family="Helvetica,sans-Serif" font-size="10.00">NANDRAD_Material.h</text>
</a>
</g>
</g>
<!-- Node14&#45;&gt;Node19 -->
<g id="edge25_Node000014_Node000019" class="edge">
<title>Node14&#45;&gt;Node19</title>
<g id="a_edge25_Node000014_Node000019"><a xlink:title=" ">
<path fill="none" stroke="#63b8ff" d="M940.48,-109.75C935.31,-102.34 927.75,-91.5 921.4,-82.41"/>
<polygon fill="#63b8ff" stroke="#63b8ff" points="924.18,-80.29 915.59,-74.09 918.44,-84.29 924.18,-80.29"/>
</a>
</g>
</g>
</g>
</svg>
