<?xml version="1.0" encoding="UTF-8" standalone="no"?>
<!DOCTYPE svg PUBLIC "-//W3C//DTD SVG 1.1//EN"
 "http://www.w3.org/Graphics/SVG/1.1/DTD/svg11.dtd">
<!-- Generated by graphviz version 2.43.0 (0)
 -->
<!-- Title: /home/hirth/git/SIM&#45;VICUS.master2/externals/Vicus/src/VICUS_BuildingLevel.h Pages: 1 -->
<svg width="1446pt" height="335pt"
 viewBox="0.00 0.00 1446.00 335.00" xmlns="http://www.w3.org/2000/svg" xmlns:xlink="http://www.w3.org/1999/xlink">
<g id="graph0" class="graph" transform="scale(1 1) rotate(0) translate(4 331)">
<title>/home/hirth/git/SIM&#45;VICUS.master2/externals/Vicus/src/VICUS_BuildingLevel.h</title>
<!-- Node1 -->
<g id="Node000001" class="node">
<title>Node1</title>
<g id="a_Node000001"><a xlink:title=" ">
<polygon fill="#999999" stroke="#666666" points="611.5,-327 444.5,-327 444.5,-286 611.5,-286 611.5,-327"/>
<text text-anchor="start" x="452.5" y="-315" font-family="Helvetica,sans-Serif" font-size="10.00">/home/hirth/git/SIM</text>
<text text-anchor="start" x="452.5" y="-304" font-family="Helvetica,sans-Serif" font-size="10.00">&#45;VICUS.master2/externals</text>
<text text-anchor="middle" x="528" y="-293" font-family="Helvetica,sans-Serif" font-size="10.00">/Vicus/src/VICUS_BuildingLevel.h</text>
</a>
</g>
</g>
<!-- Node2 -->
<g id="Node000002" class="node">
<title>Node2</title>
<g id="a_Node000002"><a xlink:href="_v_i_c_u_s___code_gen_macros_8h.html" target="_top" xlink:title=" ">
<polygon fill="white" stroke="#666666" points="1432.5,-19 1297.5,-19 1297.5,0 1432.5,0 1432.5,-19"/>
<text text-anchor="middle" x="1365" y="-7" font-family="Helvetica,sans-Serif" font-size="10.00">VICUS_CodeGenMacros.h</text>
</a>
</g>
</g>
<!-- Node1&#45;&gt;Node2 -->
<g id="edge1_Node000001_Node000002" class="edge">
<title>Node1&#45;&gt;Node2</title>
<g id="a_edge1_Node000001_Node000002"><a xlink:title=" ">
<path fill="none" stroke="#63b8ff" d="M611.57,-303.27C836.54,-296.16 1438,-269.4 1438,-186.5 1438,-186.5 1438,-186.5 1438,-129.5 1438,-87.19 1404.06,-47.25 1382.46,-26.12"/>
<polygon fill="#63b8ff" stroke="#63b8ff" points="1384.82,-23.54 1375.15,-19.22 1380.02,-28.63 1384.82,-23.54"/>
</a>
</g>
</g>
<!-- Node3 -->
<g id="Node000003" class="node">
<title>Node3</title>
<g id="a_Node000003"><a xlink:href="_v_i_c_u_s___constants_8h.html" target="_top" xlink:title="Contains global constants for the SIM&#45;VICUS data model.">
<polygon fill="white" stroke="#666666" points="129.5,-19 22.5,-19 22.5,0 129.5,0 129.5,-19"/>
<text text-anchor="middle" x="76" y="-7" font-family="Helvetica,sans-Serif" font-size="10.00">VICUS_Constants.h</text>
</a>
</g>
</g>
<!-- Node1&#45;&gt;Node3 -->
<g id="edge2_Node000001_Node000003" class="edge">
<title>Node1&#45;&gt;Node3</title>
<g id="a_edge2_Node000001_Node000003"><a xlink:title=" ">
<path fill="none" stroke="#63b8ff" d="M444.34,-303.78C295.46,-298.43 0,-276.47 0,-186.5 0,-186.5 0,-186.5 0,-129.5 0,-86.71 35.34,-46.94 57.82,-25.97"/>
<polygon fill="#63b8ff" stroke="#63b8ff" points="60.34,-28.42 65.43,-19.13 55.66,-23.21 60.34,-28.42"/>
</a>
</g>
</g>
<!-- Node4 -->
<g id="Node000004" class="node">
<title>Node4</title>
<g id="a_Node000004"><a xlink:href="_v_i_c_u_s___room_8h.html" target="_top" xlink:title=" ">
<polygon fill="white" stroke="#666666" points="572,-250 484,-250 484,-231 572,-231 572,-250"/>
<text text-anchor="middle" x="528" y="-238" font-family="Helvetica,sans-Serif" font-size="10.00">VICUS_Room.h</text>
</a>
</g>
</g>
<!-- Node1&#45;&gt;Node4 -->
<g id="edge3_Node000001_Node000004" class="edge">
<title>Node1&#45;&gt;Node4</title>
<g id="a_edge3_Node000001_Node000004"><a xlink:title=" ">
<path fill="none" stroke="#63b8ff" d="M528,-285.95C528,-277.85 528,-268.5 528,-260.47"/>
<polygon fill="#63b8ff" stroke="#63b8ff" points="531.5,-260.26 528,-250.26 524.5,-260.26 531.5,-260.26"/>
</a>
</g>
</g>
<!-- Node8 -->
<g id="Node000008" class="node">
<title>Node8</title>
<g id="a_Node000008"><a xlink:href="_v_i_c_u_s___object_8h.html" target="_top" xlink:title=" ">
<polygon fill="white" stroke="#666666" points="812,-79.5 722,-79.5 722,-60.5 812,-60.5 812,-79.5"/>
<text text-anchor="middle" x="767" y="-67.5" font-family="Helvetica,sans-Serif" font-size="10.00">VICUS_Object.h</text>
</a>
</g>
</g>
<!-- Node1&#45;&gt;Node8 -->
<g id="edge45_Node000001_Node000008" class="edge">
<title>Node1&#45;&gt;Node8</title>
<g id="a_edge45_Node000001_Node000008"><a xlink:title=" ">
<path fill="none" stroke="#63b8ff" d="M559.55,-285.88C602.58,-257.85 680,-202.77 730,-140 742.54,-124.26 752.95,-103.64 759.5,-89.06"/>
<polygon fill="#63b8ff" stroke="#63b8ff" points="762.81,-90.23 763.56,-79.66 756.38,-87.45 762.81,-90.23"/>
</a>
</g>
</g>
<!-- Node11 -->
<g id="Node000011" class="node">
<title>Node11</title>
<g id="a_Node000011"><a xlink:title=" ">
<polygon fill="#e0e0e0" stroke="#999999" points="215,-19 165,-19 165,0 215,0 215,-19"/>
<text text-anchor="middle" x="190" y="-7" font-family="Helvetica,sans-Serif" font-size="10.00">QString</text>
</a>
</g>
</g>
<!-- Node1&#45;&gt;Node11 -->
<g id="edge46_Node000001_Node000011" class="edge">
<title>Node1&#45;&gt;Node11</title>
<g id="a_edge46_Node000001_Node000011"><a xlink:title=" ">
<path fill="none" stroke="#63b8ff" d="M467.58,-285.98C399.35,-261.34 288.54,-213.12 217,-140 196.22,-118.76 187.85,-113.36 179,-85 173.24,-66.52 177.82,-44.5 182.71,-29.21"/>
<polygon fill="#63b8ff" stroke="#63b8ff" points="186.14,-30.01 186.18,-19.41 179.54,-27.67 186.14,-30.01"/>
</a>
</g>
</g>
<!-- Node4&#45;&gt;Node2 -->
<g id="edge4_Node000004_Node000002" class="edge">
<title>Node4&#45;&gt;Node2</title>
<g id="a_edge4_Node000004_Node000002"><a xlink:title=" ">
<path fill="none" stroke="#63b8ff" d="M572.05,-236.59C682.7,-228.53 980.69,-202.32 1221,-140 1287.32,-122.8 1326.15,-141.43 1365,-85 1376.2,-68.73 1374.04,-45.35 1370.47,-29.14"/>
<polygon fill="#63b8ff" stroke="#63b8ff" points="1373.8,-28.05 1367.92,-19.24 1367.02,-29.79 1373.8,-28.05"/>
</a>
</g>
</g>
<!-- Node4&#45;&gt;Node3 -->
<g id="edge5_Node000004_Node000003" class="edge">
<title>Node4&#45;&gt;Node3</title>
<g id="a_edge5_Node000004_Node000003"><a xlink:title=" ">
<path fill="none" stroke="#63b8ff" d="M483.91,-236.83C435.42,-232.62 356.01,-221.91 293,-195 215.65,-161.96 200.86,-142 139,-85 119.63,-67.15 100.55,-43.5 88.55,-27.68"/>
<polygon fill="#63b8ff" stroke="#63b8ff" points="91.14,-25.3 82.36,-19.38 85.53,-29.48 91.14,-25.3"/>
</a>
</g>
</g>
<!-- Node5 -->
<g id="Node000005" class="node">
<title>Node5</title>
<g id="a_Node000005"><a xlink:href="_v_i_c_u_s___surface_8h.html" target="_top" xlink:title=" ">
<polygon fill="white" stroke="#666666" points="631.5,-195 536.5,-195 536.5,-176 631.5,-176 631.5,-195"/>
<text text-anchor="middle" x="584" y="-183" font-family="Helvetica,sans-Serif" font-size="10.00">VICUS_Surface.h</text>
</a>
</g>
</g>
<!-- Node4&#45;&gt;Node5 -->
<g id="edge6_Node000004_Node000005" class="edge">
<title>Node4&#45;&gt;Node5</title>
<g id="a_edge6_Node000004_Node000005"><a xlink:title=" ">
<path fill="none" stroke="#63b8ff" d="M537,-230.98C545.19,-223.23 557.51,-211.58 567.47,-202.14"/>
<polygon fill="#63b8ff" stroke="#63b8ff" points="569.98,-204.59 574.84,-195.17 565.17,-199.5 569.98,-204.59"/>
</a>
</g>
</g>
<!-- Node4&#45;&gt;Node8 -->
<g id="edge42_Node000004_Node000008" class="edge">
<title>Node4&#45;&gt;Node8</title>
<g id="a_edge42_Node000004_Node000008"><a xlink:title=" ">
<path fill="none" stroke="#63b8ff" d="M558.56,-230.97C582,-223.6 614.55,-211.52 640,-195 687.6,-164.1 732.45,-113.48 753.86,-87.51"/>
<polygon fill="#63b8ff" stroke="#63b8ff" points="756.61,-89.68 760.2,-79.71 751.17,-85.26 756.61,-89.68"/>
</a>
</g>
</g>
<!-- Node4&#45;&gt;Node11 -->
<g id="edge43_Node000004_Node000011" class="edge">
<title>Node4&#45;&gt;Node11</title>
<g id="a_edge43_Node000004_Node000011"><a xlink:title=" ">
<path fill="none" stroke="#63b8ff" d="M483.99,-234.51C408.17,-223.27 254.84,-188.28 190,-85 179.49,-68.27 181.53,-44.98 184.87,-28.92"/>
<polygon fill="#63b8ff" stroke="#63b8ff" points="188.29,-29.66 187.26,-19.12 181.49,-28 188.29,-29.66"/>
</a>
</g>
</g>
<!-- Node23 -->
<g id="Node000023" class="node">
<title>Node23</title>
<g id="a_Node000023"><a xlink:title=" ">
<polygon fill="#e0e0e0" stroke="#999999" points="518.5,-195 427.5,-195 427.5,-176 518.5,-176 518.5,-195"/>
<text text-anchor="middle" x="473" y="-183" font-family="Helvetica,sans-Serif" font-size="10.00">IBK_Parameter.h</text>
</a>
</g>
</g>
<!-- Node4&#45;&gt;Node23 -->
<g id="edge44_Node000004_Node000023" class="edge">
<title>Node4&#45;&gt;Node23</title>
<g id="a_edge44_Node000004_Node000023"><a xlink:title=" ">
<path fill="none" stroke="#63b8ff" d="M518.92,-230.75C510.91,-223.03 499.04,-211.6 489.38,-202.28"/>
<polygon fill="#63b8ff" stroke="#63b8ff" points="491.54,-199.51 481.91,-195.09 486.69,-204.55 491.54,-199.51"/>
</a>
</g>
</g>
<!-- Node5&#45;&gt;Node2 -->
<g id="edge7_Node000005_Node000002" class="edge">
<title>Node5&#45;&gt;Node2</title>
<g id="a_edge7_Node000005_Node000002"><a xlink:title=" ">
<path fill="none" stroke="#63b8ff" d="M631.82,-183.24C726.66,-180.16 945.09,-170.14 1126,-140 1224.14,-123.65 1271.29,-153.97 1343,-85 1358.01,-70.57 1362.91,-46.45 1364.45,-29.58"/>
<polygon fill="#63b8ff" stroke="#63b8ff" points="1367.96,-29.45 1365.05,-19.26 1360.97,-29.04 1367.96,-29.45"/>
</a>
</g>
</g>
<!-- Node5&#45;&gt;Node3 -->
<g id="edge8_Node000005_Node000003" class="edge">
<title>Node5&#45;&gt;Node3</title>
<g id="a_edge8_Node000005_Node000003"><a xlink:title=" ">
<path fill="none" stroke="#63b8ff" d="M536.24,-177.18C459.9,-165.44 317.85,-143.35 307,-140 252.1,-123.05 240.17,-113.01 190,-85 156.07,-66.06 118.72,-40.73 96.32,-25.02"/>
<polygon fill="#63b8ff" stroke="#63b8ff" points="98.15,-22.03 87.97,-19.12 94.12,-27.75 98.15,-22.03"/>
</a>
</g>
</g>
<!-- Node6 -->
<g id="Node000006" class="node">
<title>Node6</title>
<g id="a_Node000006"><a xlink:href="_v_i_c_u_s___plane_geometry_8h.html" target="_top" xlink:title=" ">
<polygon fill="white" stroke="#666666" points="1069,-140 941,-140 941,-121 1069,-121 1069,-140"/>
<text text-anchor="middle" x="1005" y="-128" font-family="Helvetica,sans-Serif" font-size="10.00">VICUS_PlaneGeometry.h</text>
</a>
</g>
</g>
<!-- Node5&#45;&gt;Node6 -->
<g id="edge9_Node000005_Node000006" class="edge">
<title>Node5&#45;&gt;Node6</title>
<g id="a_edge9_Node000005_Node000006"><a xlink:title=" ">
<path fill="none" stroke="#63b8ff" d="M631.88,-178.47C704.86,-169.29 844.49,-151.71 930.7,-140.85"/>
<polygon fill="#63b8ff" stroke="#63b8ff" points="931.2,-144.32 940.69,-139.6 930.33,-137.37 931.2,-144.32"/>
</a>
</g>
</g>
<!-- Node5&#45;&gt;Node8 -->
<g id="edge26_Node000005_Node000008" class="edge">
<title>Node5&#45;&gt;Node8</title>
<g id="a_edge26_Node000005_Node000008"><a xlink:title=" ">
<path fill="none" stroke="#63b8ff" d="M597.75,-175.97C629.02,-156.58 705.68,-109.03 744.17,-85.16"/>
<polygon fill="#63b8ff" stroke="#63b8ff" points="746.43,-87.88 753.09,-79.63 742.74,-81.93 746.43,-87.88"/>
</a>
</g>
</g>
<!-- Node5&#45;&gt;Node11 -->
<g id="edge40_Node000005_Node000011" class="edge">
<title>Node5&#45;&gt;Node11</title>
<g id="a_edge40_Node000005_Node000011"><a xlink:title=" ">
<path fill="none" stroke="#63b8ff" d="M542.05,-175.95C449.12,-156.64 232.27,-109.46 209,-85 194.8,-70.07 190.82,-46.05 189.89,-29.34"/>
<polygon fill="#63b8ff" stroke="#63b8ff" points="193.39,-29.05 189.65,-19.14 186.39,-29.22 193.39,-29.05"/>
</a>
</g>
</g>
<!-- Node12 -->
<g id="Node000012" class="node">
<title>Node12</title>
<g id="a_Node000012"><a xlink:href="_v_i_c_u_s___polygon3_d_8h.html" target="_top" xlink:title=" ">
<polygon fill="white" stroke="#666666" points="1334,-79.5 1224,-79.5 1224,-60.5 1334,-60.5 1334,-79.5"/>
<text text-anchor="middle" x="1279" y="-67.5" font-family="Helvetica,sans-Serif" font-size="10.00">VICUS_Polygon3D.h</text>
</a>
</g>
</g>
<!-- Node5&#45;&gt;Node12 -->
<g id="edge37_Node000005_Node000012" class="edge">
<title>Node5&#45;&gt;Node12</title>
<g id="a_edge37_Node000005_Node000012"><a xlink:title=" ">
<path fill="none" stroke="#63b8ff" d="M631.56,-184C720.3,-182.24 916.73,-174.42 1078,-140 1140.77,-126.6 1211.04,-99.55 1249.64,-83.59"/>
<polygon fill="#63b8ff" stroke="#63b8ff" points="1251.32,-86.68 1259.2,-79.6 1248.62,-80.22 1251.32,-86.68"/>
</a>
</g>
</g>
<!-- Node18 -->
<g id="Node000018" class="node">
<title>Node18</title>
<g id="a_Node000018"><a xlink:href="_v_i_c_u_s___sub_surface_8h.html" target="_top" xlink:title=" ">
<polygon fill="white" stroke="#666666" points="595.5,-140 482.5,-140 482.5,-121 595.5,-121 595.5,-140"/>
<text text-anchor="middle" x="539" y="-128" font-family="Helvetica,sans-Serif" font-size="10.00">VICUS_SubSurface.h</text>
</a>
</g>
</g>
<!-- Node5&#45;&gt;Node18 -->
<g id="edge27_Node000005_Node000018" class="edge">
<title>Node5&#45;&gt;Node18</title>
<g id="a_edge27_Node000005_Node000018"><a xlink:title=" ">
<path fill="none" stroke="#63b8ff" d="M576.57,-175.75C570.15,-168.18 560.69,-157.05 552.88,-147.84"/>
<polygon fill="#63b8ff" stroke="#63b8ff" points="555.43,-145.45 546.29,-140.09 550.1,-149.98 555.43,-145.45"/>
</a>
</g>
</g>
<!-- Node19 -->
<g id="Node000019" class="node">
<title>Node19</title>
<g id="a_Node000019"><a xlink:title=" ">
<polygon fill="#e0e0e0" stroke="#999999" points="703.5,-79.5 564.5,-79.5 564.5,-60.5 703.5,-60.5 703.5,-79.5"/>
<text text-anchor="middle" x="634" y="-67.5" font-family="Helvetica,sans-Serif" font-size="10.00">NANDRAD_IDVectorMap.h</text>
</a>
</g>
</g>
<!-- Node5&#45;&gt;Node19 -->
<g id="edge39_Node000005_Node000019" class="edge">
<title>Node5&#45;&gt;Node19</title>
<g id="a_edge39_Node000005_Node000019"><a xlink:title=" ">
<path fill="none" stroke="#63b8ff" d="M587.87,-175.98C591.92,-167.04 598.45,-152.55 604,-140 611.66,-122.67 620.27,-102.83 626.29,-88.89"/>
<polygon fill="#63b8ff" stroke="#63b8ff" points="629.59,-90.08 630.34,-79.51 623.16,-87.31 629.59,-90.08"/>
</a>
</g>
</g>
<!-- Node20 -->
<g id="Node000020" class="node">
<title>Node20</title>
<g id="a_Node000020"><a xlink:title=" ">
<polygon fill="#e0e0e0" stroke="#999999" points="318,-79.5 218,-79.5 218,-60.5 318,-60.5 318,-79.5"/>
<text text-anchor="middle" x="268" y="-67.5" font-family="Helvetica,sans-Serif" font-size="10.00">IBK_LinearSpline.h</text>
</a>
</g>
</g>
<!-- Node5&#45;&gt;Node20 -->
<g id="edge38_Node000005_Node000020" class="edge">
<title>Node5&#45;&gt;Node20</title>
<g id="a_edge38_Node000005_Node000020"><a xlink:title=" ">
<path fill="none" stroke="#63b8ff" d="M553.26,-176C523.53,-167.58 477.34,-153.95 438,-140 387.59,-122.13 330.16,-98.01 296.62,-83.54"/>
<polygon fill="#63b8ff" stroke="#63b8ff" points="297.98,-80.31 287.41,-79.55 295.2,-86.73 297.98,-80.31"/>
</a>
</g>
</g>
<!-- Node22 -->
<g id="Node000022" class="node">
<title>Node22</title>
<g id="a_Node000022"><a xlink:title=" ">
<polygon fill="#e0e0e0" stroke="#999999" points="383.5,-79.5 336.5,-79.5 336.5,-60.5 383.5,-60.5 383.5,-79.5"/>
<text text-anchor="middle" x="360" y="-67.5" font-family="Helvetica,sans-Serif" font-size="10.00">QColor</text>
</a>
</g>
</g>
<!-- Node5&#45;&gt;Node22 -->
<g id="edge41_Node000005_Node000022" class="edge">
<title>Node5&#45;&gt;Node22</title>
<g id="a_edge41_Node000005_Node000022"><a xlink:title=" ">
<path fill="none" stroke="#63b8ff" d="M559.23,-175.92C536.39,-167.69 501.77,-154.42 473,-140 439.59,-123.25 403.03,-99.94 380.81,-85.16"/>
<polygon fill="#63b8ff" stroke="#63b8ff" points="382.74,-82.24 372.48,-79.58 378.84,-88.06 382.74,-82.24"/>
</a>
</g>
</g>
<!-- Node6&#45;&gt;Node2 -->
<g id="edge11_Node000006_Node000002" class="edge">
<title>Node6&#45;&gt;Node2</title>
<g id="a_edge11_Node000006_Node000002"><a xlink:title=" ">
<path fill="none" stroke="#63b8ff" d="M1054.8,-120.97C1088.85,-114.01 1134.45,-102.44 1172,-85 1193.13,-75.18 1194,-65.11 1215,-55 1246.44,-39.86 1284.11,-28.71 1313.83,-21.35"/>
<polygon fill="#63b8ff" stroke="#63b8ff" points="1314.68,-24.75 1323.58,-19.01 1313.04,-17.94 1314.68,-24.75"/>
</a>
</g>
</g>
<!-- Node7 -->
<g id="Node000007" class="node">
<title>Node7</title>
<g id="a_Node000007"><a xlink:title=" ">
<polygon fill="#e0e0e0" stroke="#999999" points="887.5,-19 784.5,-19 784.5,0 887.5,0 887.5,-19"/>
<text text-anchor="middle" x="836" y="-7" font-family="Helvetica,sans-Serif" font-size="10.00">IBKMK_Vector3D.h</text>
</a>
</g>
</g>
<!-- Node6&#45;&gt;Node7 -->
<g id="edge10_Node000006_Node000007" class="edge">
<title>Node6&#45;&gt;Node7</title>
<g id="a_edge10_Node000006_Node000007"><a xlink:title=" ">
<path fill="none" stroke="#63b8ff" d="M940.93,-123.52C912.52,-117.77 880.68,-106.6 859,-85 844.2,-70.25 838.88,-46.2 837,-29.43"/>
<polygon fill="#63b8ff" stroke="#63b8ff" points="840.46,-28.87 836.17,-19.18 833.49,-29.43 840.46,-28.87"/>
</a>
</g>
</g>
<!-- Node6&#45;&gt;Node8 -->
<g id="edge12_Node000006_Node000008" class="edge">
<title>Node6&#45;&gt;Node8</title>
<g id="a_edge12_Node000006_Node000008"><a xlink:title=" ">
<path fill="none" stroke="#63b8ff" d="M970.39,-120.99C928.44,-110.68 857.66,-93.28 811.64,-81.97"/>
<polygon fill="#63b8ff" stroke="#63b8ff" points="812.2,-78.5 801.65,-79.52 810.52,-85.3 812.2,-78.5"/>
</a>
</g>
</g>
<!-- Node6&#45;&gt;Node12 -->
<g id="edge17_Node000006_Node000012" class="edge">
<title>Node6&#45;&gt;Node12</title>
<g id="a_edge17_Node000006_Node000012"><a xlink:title=" ">
<path fill="none" stroke="#63b8ff" d="M1044.84,-120.99C1093.65,-110.57 1176.34,-92.92 1229.26,-81.62"/>
<polygon fill="#63b8ff" stroke="#63b8ff" points="1230.06,-85.03 1239.11,-79.52 1228.6,-78.18 1230.06,-85.03"/>
</a>
</g>
</g>
<!-- Node14 -->
<g id="Node000014" class="node">
<title>Node14</title>
<g id="a_Node000014"><a xlink:href="_v_i_c_u_s___polygon2_d_8h.html" target="_top" xlink:title=" ">
<polygon fill="white" stroke="#666666" points="1130,-79.5 1020,-79.5 1020,-60.5 1130,-60.5 1130,-79.5"/>
<text text-anchor="middle" x="1075" y="-67.5" font-family="Helvetica,sans-Serif" font-size="10.00">VICUS_Polygon2D.h</text>
</a>
</g>
</g>
<!-- Node6&#45;&gt;Node14 -->
<g id="edge20_Node000006_Node000014" class="edge">
<title>Node6&#45;&gt;Node14</title>
<g id="a_edge20_Node000006_Node000014"><a xlink:title=" ">
<path fill="none" stroke="#63b8ff" d="M1015.33,-120.87C1026.19,-111.8 1043.49,-97.34 1056.67,-86.32"/>
<polygon fill="#63b8ff" stroke="#63b8ff" points="1059.2,-88.77 1064.63,-79.67 1054.71,-83.39 1059.2,-88.77"/>
</a>
</g>
</g>
<!-- Node16 -->
<g id="Node000016" class="node">
<title>Node16</title>
<g id="a_Node000016"><a xlink:href="_v_i_c_u_s___plane_triangulation_data_8h.html" target="_top" xlink:title=" ">
<polygon fill="white" stroke="#666666" points="1002,-85 868,-85 868,-55 1002,-55 1002,-85"/>
<text text-anchor="start" x="876" y="-73" font-family="Helvetica,sans-Serif" font-size="10.00">VICUS_PlaneTriangulation</text>
<text text-anchor="middle" x="935" y="-62" font-family="Helvetica,sans-Serif" font-size="10.00">Data.h</text>
</a>
</g>
</g>
<!-- Node6&#45;&gt;Node16 -->
<g id="edge23_Node000006_Node000016" class="edge">
<title>Node6&#45;&gt;Node16</title>
<g id="a_edge23_Node000006_Node000016"><a xlink:title=" ">
<path fill="none" stroke="#63b8ff" d="M994.67,-120.87C985.52,-113.22 971.81,-101.76 959.83,-91.75"/>
<polygon fill="#63b8ff" stroke="#63b8ff" points="961.81,-88.84 951.89,-85.11 957.32,-94.21 961.81,-88.84"/>
</a>
</g>
</g>
<!-- Node8&#45;&gt;Node3 -->
<g id="edge16_Node000008_Node000003" class="edge">
<title>Node8&#45;&gt;Node3</title>
<g id="a_edge16_Node000008_Node000003"><a xlink:title=" ">
<path fill="none" stroke="#63b8ff" d="M737.52,-60.43C729.32,-58.34 720.37,-56.32 712,-55 467.42,-16.29 402.73,-40.09 156,-19 150.83,-18.56 145.47,-18.06 140.09,-17.55"/>
<polygon fill="#63b8ff" stroke="#63b8ff" points="140.06,-14.03 129.76,-16.52 139.37,-20.99 140.06,-14.03"/>
</a>
</g>
</g>
<!-- Node9 -->
<g id="Node000009" class="node">
<title>Node9</title>
<g id="a_Node000009"><a xlink:title=" ">
<polygon fill="#e0e0e0" stroke="#999999" points="718,-19 674,-19 674,0 718,0 718,-19"/>
<text text-anchor="middle" x="696" y="-7" font-family="Helvetica,sans-Serif" font-size="10.00">vector</text>
</a>
</g>
</g>
<!-- Node8&#45;&gt;Node9 -->
<g id="edge13_Node000008_Node000009" class="edge">
<title>Node8&#45;&gt;Node9</title>
<g id="a_edge13_Node000008_Node000009"><a xlink:title=" ">
<path fill="none" stroke="#63b8ff" d="M756.52,-60.37C745.51,-51.3 727.96,-36.84 714.59,-25.82"/>
<polygon fill="#63b8ff" stroke="#63b8ff" points="716.46,-22.83 706.52,-19.17 712.01,-28.23 716.46,-22.83"/>
</a>
</g>
</g>
<!-- Node10 -->
<g id="Node000010" class="node">
<title>Node10</title>
<g id="a_Node000010"><a xlink:title=" ">
<polygon fill="#e0e0e0" stroke="#999999" points="766,-19 736,-19 736,0 766,0 766,-19"/>
<text text-anchor="middle" x="751" y="-7" font-family="Helvetica,sans-Serif" font-size="10.00">set</text>
</a>
</g>
</g>
<!-- Node8&#45;&gt;Node10 -->
<g id="edge14_Node000008_Node000010" class="edge">
<title>Node8&#45;&gt;Node10</title>
<g id="a_edge14_Node000008_Node000010"><a xlink:title=" ">
<path fill="none" stroke="#63b8ff" d="M764.64,-60.37C762.39,-52.16 758.94,-39.54 756.07,-29.05"/>
<polygon fill="#63b8ff" stroke="#63b8ff" points="759.38,-27.89 753.37,-19.17 752.63,-29.74 759.38,-27.89"/>
</a>
</g>
</g>
<!-- Node8&#45;&gt;Node11 -->
<g id="edge15_Node000008_Node000011" class="edge">
<title>Node8&#45;&gt;Node11</title>
<g id="a_edge15_Node000008_Node000011"><a xlink:title=" ">
<path fill="none" stroke="#63b8ff" d="M737.22,-60.47C729.1,-58.4 720.26,-56.39 712,-55 530.52,-24.38 309.81,-14.36 225.26,-11.51"/>
<polygon fill="#63b8ff" stroke="#63b8ff" points="225.28,-8.01 215.18,-11.18 225.06,-15.01 225.28,-8.01"/>
</a>
</g>
</g>
<!-- Node12&#45;&gt;Node2 -->
<g id="edge19_Node000012_Node000002" class="edge">
<title>Node12&#45;&gt;Node2</title>
<g id="a_edge19_Node000012_Node000002"><a xlink:title=" ">
<path fill="none" stroke="#63b8ff" d="M1291.69,-60.37C1305.41,-51.04 1327.5,-36.01 1343.85,-24.88"/>
<polygon fill="#63b8ff" stroke="#63b8ff" points="1345.96,-27.69 1352.26,-19.17 1342.02,-21.9 1345.96,-27.69"/>
</a>
</g>
</g>
<!-- Node13 -->
<g id="Node000013" class="node">
<title>Node13</title>
<g id="a_Node000013"><a xlink:title=" ">
<polygon fill="#e0e0e0" stroke="#999999" points="1279,-19 1169,-19 1169,0 1279,0 1279,-19"/>
<text text-anchor="middle" x="1224" y="-7" font-family="Helvetica,sans-Serif" font-size="10.00">IBKMK_Polygon3D.h</text>
</a>
</g>
</g>
<!-- Node12&#45;&gt;Node13 -->
<g id="edge18_Node000012_Node000013" class="edge">
<title>Node12&#45;&gt;Node13</title>
<g id="a_edge18_Node000012_Node000013"><a xlink:title=" ">
<path fill="none" stroke="#63b8ff" d="M1270.88,-60.37C1262.6,-51.55 1249.53,-37.66 1239.3,-26.77"/>
<polygon fill="#63b8ff" stroke="#63b8ff" points="1241.55,-24.06 1232.15,-19.17 1236.45,-28.85 1241.55,-24.06"/>
</a>
</g>
</g>
<!-- Node14&#45;&gt;Node2 -->
<g id="edge22_Node000014_Node000002" class="edge">
<title>Node14&#45;&gt;Node2</title>
<g id="a_edge22_Node000014_Node000002"><a xlink:title=" ">
<path fill="none" stroke="#63b8ff" d="M1116.96,-60.48C1125.89,-58.67 1135.25,-56.77 1144,-55 1201.66,-43.35 1267.79,-30.04 1312.57,-21.04"/>
<polygon fill="#63b8ff" stroke="#63b8ff" points="1313.52,-24.41 1322.63,-19.01 1312.14,-17.55 1313.52,-24.41"/>
</a>
</g>
</g>
<!-- Node15 -->
<g id="Node000015" class="node">
<title>Node15</title>
<g id="a_Node000015"><a xlink:title=" ">
<polygon fill="#e0e0e0" stroke="#999999" points="1151,-19 1041,-19 1041,0 1151,0 1151,-19"/>
<text text-anchor="middle" x="1096" y="-7" font-family="Helvetica,sans-Serif" font-size="10.00">IBKMK_Polygon2D.h</text>
</a>
</g>
</g>
<!-- Node14&#45;&gt;Node15 -->
<g id="edge21_Node000014_Node000015" class="edge">
<title>Node14&#45;&gt;Node15</title>
<g id="a_edge21_Node000014_Node000015"><a xlink:title=" ">
<path fill="none" stroke="#63b8ff" d="M1078.1,-60.37C1081.08,-52.07 1085.67,-39.28 1089.46,-28.72"/>
<polygon fill="#63b8ff" stroke="#63b8ff" points="1092.8,-29.76 1092.89,-19.17 1086.22,-27.4 1092.8,-29.76"/>
</a>
</g>
</g>
<!-- Node16&#45;&gt;Node7 -->
<g id="edge24_Node000016_Node000007" class="edge">
<title>Node16&#45;&gt;Node7</title>
<g id="a_edge24_Node000016_Node000007"><a xlink:title=" ">
<path fill="none" stroke="#63b8ff" d="M911.29,-54.99C895.65,-45.75 875.26,-33.7 859.64,-24.47"/>
<polygon fill="#63b8ff" stroke="#63b8ff" points="861.01,-21.21 850.62,-19.14 857.45,-27.24 861.01,-21.21"/>
</a>
</g>
</g>
<!-- Node17 -->
<g id="Node000017" class="node">
<title>Node17</title>
<g id="a_Node000017"><a xlink:title=" ">
<polygon fill="#e0e0e0" stroke="#999999" points="1022.5,-19 905.5,-19 905.5,0 1022.5,0 1022.5,-19"/>
<text text-anchor="middle" x="964" y="-7" font-family="Helvetica,sans-Serif" font-size="10.00">IBKMK_Triangulation.h</text>
</a>
</g>
</g>
<!-- Node16&#45;&gt;Node17 -->
<g id="edge25_Node000016_Node000017" class="edge">
<title>Node16&#45;&gt;Node17</title>
<g id="a_edge25_Node000016_Node000017"><a xlink:title=" ">
<path fill="none" stroke="#63b8ff" d="M942.02,-54.84C945.97,-46.87 950.94,-36.84 955.16,-28.33"/>
<polygon fill="#63b8ff" stroke="#63b8ff" points="958.35,-29.78 959.65,-19.27 952.08,-26.67 958.35,-29.78"/>
</a>
</g>
</g>
<!-- Node18&#45;&gt;Node2 -->
<g id="edge28_Node000018_Node000002" class="edge">
<title>Node18&#45;&gt;Node2</title>
<g id="a_edge28_Node000018_Node000002"><a xlink:title=" ">
<path fill="none" stroke="#63b8ff" d="M595.86,-129.96C726.11,-130.26 1042.32,-126.55 1139,-85 1157.21,-77.17 1154.44,-64.19 1172,-55 1207.5,-36.42 1250.68,-25.53 1287.19,-19.18"/>
<polygon fill="#63b8ff" stroke="#63b8ff" points="1288,-22.6 1297.29,-17.51 1286.86,-15.69 1288,-22.6"/>
</a>
</g>
</g>
<!-- Node18&#45;&gt;Node3 -->
<g id="edge29_Node000018_Node000003" class="edge">
<title>Node18&#45;&gt;Node3</title>
<g id="a_edge29_Node000018_Node000003"><a xlink:title=" ">
<path fill="none" stroke="#63b8ff" d="M512.78,-120.91C490.33,-113.03 457.52,-100.3 431,-85 412.06,-74.07 412.16,-63.47 392,-55 369.27,-45.45 225.35,-27.66 139.78,-17.71"/>
<polygon fill="#63b8ff" stroke="#63b8ff" points="139.98,-14.21 129.65,-16.54 139.18,-21.17 139.98,-14.21"/>
</a>
</g>
</g>
<!-- Node18&#45;&gt;Node8 -->
<g id="edge31_Node000018_Node000008" class="edge">
<title>Node18&#45;&gt;Node8</title>
<g id="a_edge31_Node000018_Node000008"><a xlink:title=" ">
<path fill="none" stroke="#63b8ff" d="M572.15,-120.99C612.26,-110.7 679.86,-93.36 723.95,-82.04"/>
<polygon fill="#63b8ff" stroke="#63b8ff" points="724.99,-85.39 733.81,-79.52 723.25,-78.61 724.99,-85.39"/>
</a>
</g>
</g>
<!-- Node18&#45;&gt;Node11 -->
<g id="edge35_Node000018_Node000011" class="edge">
<title>Node18&#45;&gt;Node11</title>
<g id="a_edge35_Node000018_Node000011"><a xlink:title=" ">
<path fill="none" stroke="#63b8ff" d="M539.25,-120.78C539.17,-104.99 536.54,-71.78 517,-55 473.91,-18 301.45,-11.62 225.84,-10.62"/>
<polygon fill="#63b8ff" stroke="#63b8ff" points="225.45,-7.12 215.41,-10.51 225.37,-14.12 225.45,-7.12"/>
</a>
</g>
</g>
<!-- Node18&#45;&gt;Node14 -->
<g id="edge30_Node000018_Node000014" class="edge">
<title>Node18&#45;&gt;Node14</title>
<g id="a_edge30_Node000018_Node000014"><a xlink:title=" ">
<path fill="none" stroke="#63b8ff" d="M595.58,-126.39C684.45,-121.01 861.97,-108.24 1011,-85 1016.98,-84.07 1023.23,-82.92 1029.39,-81.68"/>
<polygon fill="#63b8ff" stroke="#63b8ff" points="1030.53,-85.02 1039.6,-79.55 1029.09,-78.17 1030.53,-85.02"/>
</a>
</g>
</g>
<!-- Node18&#45;&gt;Node19 -->
<g id="edge32_Node000018_Node000019" class="edge">
<title>Node18&#45;&gt;Node19</title>
<g id="a_edge32_Node000018_Node000019"><a xlink:title=" ">
<path fill="none" stroke="#63b8ff" d="M553.02,-120.87C568.31,-111.45 593.03,-96.23 611.14,-85.08"/>
<polygon fill="#63b8ff" stroke="#63b8ff" points="613.25,-87.89 619.92,-79.67 609.57,-81.93 613.25,-87.89"/>
</a>
</g>
</g>
<!-- Node18&#45;&gt;Node20 -->
<g id="edge33_Node000018_Node000020" class="edge">
<title>Node18&#45;&gt;Node20</title>
<g id="a_edge33_Node000018_Node000020"><a xlink:title=" ">
<path fill="none" stroke="#63b8ff" d="M496.7,-120.96C453.85,-112.23 385.72,-98.13 327,-85 322.55,-84 317.91,-82.94 313.28,-81.87"/>
<polygon fill="#63b8ff" stroke="#63b8ff" points="313.75,-78.39 303.22,-79.52 312.16,-85.2 313.75,-78.39"/>
</a>
</g>
</g>
<!-- Node21 -->
<g id="Node000021" class="node">
<title>Node21</title>
<g id="a_Node000021"><a xlink:title=" ">
<polygon fill="#e0e0e0" stroke="#999999" points="508,-79.5 440,-79.5 440,-60.5 508,-60.5 508,-79.5"/>
<text text-anchor="middle" x="474" y="-67.5" font-family="Helvetica,sans-Serif" font-size="10.00">IBK_point.h</text>
</a>
</g>
</g>
<!-- Node18&#45;&gt;Node21 -->
<g id="edge34_Node000018_Node000021" class="edge">
<title>Node18&#45;&gt;Node21</title>
<g id="a_edge34_Node000018_Node000021"><a xlink:title=" ">
<path fill="none" stroke="#63b8ff" d="M529.41,-120.87C519.42,-111.88 503.57,-97.61 491.37,-86.64"/>
<polygon fill="#63b8ff" stroke="#63b8ff" points="493.4,-83.76 483.63,-79.67 488.72,-88.96 493.4,-83.76"/>
</a>
</g>
</g>
<!-- Node18&#45;&gt;Node22 -->
<g id="edge36_Node000018_Node000022" class="edge">
<title>Node18&#45;&gt;Node22</title>
<g id="a_edge36_Node000018_Node000022"><a xlink:title=" ">
<path fill="none" stroke="#63b8ff" d="M510.51,-120.94C481.94,-112.26 436.74,-98.24 398,-85 396.15,-84.37 394.26,-83.71 392.35,-83.04"/>
<polygon fill="#63b8ff" stroke="#63b8ff" points="393.44,-79.71 382.85,-79.62 391.07,-86.29 393.44,-79.71"/>
</a>
</g>
</g>
</g>
</svg>
