<?xml version="1.0" encoding="UTF-8" standalone="no"?>
<!DOCTYPE svg PUBLIC "-//W3C//DTD SVG 1.1//EN"
 "http://www.w3.org/Graphics/SVG/1.1/DTD/svg11.dtd">
<!-- Generated by graphviz version 2.43.0 (0)
 -->
<!-- Title: /home/hirth/git/SIM&#45;VICUS.master2/externals/Vicus/src/VICUS_Room.cpp Pages: 1 -->
<svg width="1506pt" height="335pt"
 viewBox="0.00 0.00 1506.00 335.00" xmlns="http://www.w3.org/2000/svg" xmlns:xlink="http://www.w3.org/1999/xlink">
<g id="graph0" class="graph" transform="scale(1 1) rotate(0) translate(4 331)">
<title>/home/hirth/git/SIM&#45;VICUS.master2/externals/Vicus/src/VICUS_Room.cpp</title>
<!-- Node1 -->
<g id="Node000001" class="node">
<title>Node1</title>
<g id="a_Node000001"><a xlink:title=" ">
<polygon fill="#999999" stroke="#666666" points="1288,-327 1142,-327 1142,-286 1288,-286 1288,-327"/>
<text text-anchor="start" x="1150" y="-315" font-family="Helvetica,sans-Serif" font-size="10.00">/home/hirth/git/SIM</text>
<text text-anchor="start" x="1150" y="-304" font-family="Helvetica,sans-Serif" font-size="10.00">&#45;VICUS.master2/externals</text>
<text text-anchor="middle" x="1215" y="-293" font-family="Helvetica,sans-Serif" font-size="10.00">/Vicus/src/VICUS_Room.cpp</text>
</a>
</g>
</g>
<!-- Node2 -->
<g id="Node000002" class="node">
<title>Node2</title>
<g id="a_Node000002"><a xlink:href="_v_i_c_u_s___room_8h.html" target="_top" xlink:title=" ">
<polygon fill="white" stroke="#666666" points="512,-250 424,-250 424,-231 512,-231 512,-250"/>
<text text-anchor="middle" x="468" y="-238" font-family="Helvetica,sans-Serif" font-size="10.00">VICUS_Room.h</text>
</a>
</g>
</g>
<!-- Node1&#45;&gt;Node2 -->
<g id="edge1_Node000001_Node000002" class="edge">
<title>Node1&#45;&gt;Node2</title>
<g id="a_edge1_Node000001_Node000002"><a xlink:title=" ">
<path fill="none" stroke="#63b8ff" d="M1141.67,-299.22C992.07,-286.4 654.65,-257.49 522.52,-246.17"/>
<polygon fill="#63b8ff" stroke="#63b8ff" points="522.51,-242.66 512.25,-245.29 521.91,-249.63 522.51,-242.66"/>
</a>
</g>
</g>
<!-- Node24 -->
<g id="Node000024" class="node">
<title>Node24</title>
<g id="a_Node000024"><a xlink:href="_v_i_c_u_s___keyword_list_8h.html" target="_top" xlink:title="Contains the declaration of class KeywordList.">
<polygon fill="white" stroke="#666666" points="1170,-250 1054,-250 1054,-231 1170,-231 1170,-250"/>
<text text-anchor="middle" x="1112" y="-238" font-family="Helvetica,sans-Serif" font-size="10.00">VICUS_KeywordList.h</text>
</a>
</g>
</g>
<!-- Node1&#45;&gt;Node24 -->
<g id="edge43_Node000001_Node000024" class="edge">
<title>Node1&#45;&gt;Node24</title>
<g id="a_edge43_Node000001_Node000024"><a xlink:title=" ">
<path fill="none" stroke="#63b8ff" d="M1183.54,-285.95C1167.72,-276.12 1148.91,-264.43 1134.55,-255.51"/>
<polygon fill="#63b8ff" stroke="#63b8ff" points="1136.17,-252.4 1125.83,-250.09 1132.47,-258.34 1136.17,-252.4"/>
</a>
</g>
</g>
<!-- Node28 -->
<g id="Node000028" class="node">
<title>Node28</title>
<g id="a_Node000028"><a xlink:title=" ">
<polygon fill="#e0e0e0" stroke="#999999" points="1241.5,-250 1188.5,-250 1188.5,-231 1241.5,-231 1241.5,-250"/>
<text text-anchor="middle" x="1215" y="-238" font-family="Helvetica,sans-Serif" font-size="10.00">QDebug</text>
</a>
</g>
</g>
<!-- Node1&#45;&gt;Node28 -->
<g id="edge48_Node000001_Node000028" class="edge">
<title>Node1&#45;&gt;Node28</title>
<g id="a_edge48_Node000001_Node000028"><a xlink:title=" ">
<path fill="none" stroke="#63b8ff" d="M1215,-285.95C1215,-277.85 1215,-268.5 1215,-260.47"/>
<polygon fill="#63b8ff" stroke="#63b8ff" points="1218.5,-260.26 1215,-250.26 1211.5,-260.26 1218.5,-260.26"/>
</a>
</g>
</g>
<!-- Node29 -->
<g id="Node000029" class="node">
<title>Node29</title>
<g id="a_Node000029"><a xlink:title=" ">
<polygon fill="#e0e0e0" stroke="#999999" points="1388,-250 1260,-250 1260,-231 1388,-231 1388,-250"/>
<text text-anchor="middle" x="1324" y="-238" font-family="Helvetica,sans-Serif" font-size="10.00">IBKMK_3DCalculations.h</text>
</a>
</g>
</g>
<!-- Node1&#45;&gt;Node29 -->
<g id="edge49_Node000001_Node000029" class="edge">
<title>Node1&#45;&gt;Node29</title>
<g id="a_edge49_Node000001_Node000029"><a xlink:title=" ">
<path fill="none" stroke="#63b8ff" d="M1248.3,-285.95C1265.2,-276.03 1285.32,-264.21 1300.57,-255.25"/>
<polygon fill="#63b8ff" stroke="#63b8ff" points="1302.52,-258.17 1309.37,-250.09 1298.97,-252.14 1302.52,-258.17"/>
</a>
</g>
</g>
<!-- Node30 -->
<g id="Node000030" class="node">
<title>Node30</title>
<g id="a_Node000030"><a xlink:title=" ">
<polygon fill="#e0e0e0" stroke="#999999" points="1498,-250 1406,-250 1406,-231 1498,-231 1498,-250"/>
<text text-anchor="middle" x="1452" y="-238" font-family="Helvetica,sans-Serif" font-size="10.00">IBK_messages.h</text>
</a>
</g>
</g>
<!-- Node1&#45;&gt;Node30 -->
<g id="edge50_Node000001_Node000030" class="edge">
<title>Node1&#45;&gt;Node30</title>
<g id="a_edge50_Node000001_Node000030"><a xlink:title=" ">
<path fill="none" stroke="#63b8ff" d="M1287.4,-285.95C1327.74,-275.06 1376.52,-261.88 1410.46,-252.72"/>
<polygon fill="#63b8ff" stroke="#63b8ff" points="1411.75,-255.99 1420.49,-250.01 1409.93,-249.24 1411.75,-255.99"/>
</a>
</g>
</g>
<!-- Node3 -->
<g id="Node000003" class="node">
<title>Node3</title>
<g id="a_Node000003"><a xlink:href="_v_i_c_u_s___code_gen_macros_8h.html" target="_top" xlink:title=" ">
<polygon fill="white" stroke="#666666" points="945.5,-19 810.5,-19 810.5,0 945.5,0 945.5,-19"/>
<text text-anchor="middle" x="878" y="-7" font-family="Helvetica,sans-Serif" font-size="10.00">VICUS_CodeGenMacros.h</text>
</a>
</g>
</g>
<!-- Node2&#45;&gt;Node3 -->
<g id="edge2_Node000002_Node000003" class="edge">
<title>Node2&#45;&gt;Node3</title>
<g id="a_edge2_Node000002_Node000003"><a xlink:title=" ">
<path fill="none" stroke="#63b8ff" d="M512.17,-236.93C618.14,-229.77 881.93,-205.56 935,-140 963.71,-104.53 920.73,-52.34 894.99,-26.38"/>
<polygon fill="#63b8ff" stroke="#63b8ff" points="897.26,-23.7 887.66,-19.21 892.36,-28.7 897.26,-23.7"/>
</a>
</g>
</g>
<!-- Node4 -->
<g id="Node000004" class="node">
<title>Node4</title>
<g id="a_Node000004"><a xlink:href="_v_i_c_u_s___constants_8h.html" target="_top" xlink:title="Contains global constants for the SIM&#45;VICUS data model.">
<polygon fill="white" stroke="#666666" points="197.5,-19 90.5,-19 90.5,0 197.5,0 197.5,-19"/>
<text text-anchor="middle" x="144" y="-7" font-family="Helvetica,sans-Serif" font-size="10.00">VICUS_Constants.h</text>
</a>
</g>
</g>
<!-- Node2&#45;&gt;Node4 -->
<g id="edge3_Node000002_Node000004" class="edge">
<title>Node2&#45;&gt;Node4</title>
<g id="a_edge3_Node000002_Node000004"><a xlink:title=" ">
<path fill="none" stroke="#63b8ff" d="M423.91,-232.05C358.5,-219.74 233.24,-191.26 138,-140 95.88,-117.33 48.71,-96.77 72,-55 80.04,-40.58 94.9,-30.24 109.04,-23.18"/>
<polygon fill="#63b8ff" stroke="#63b8ff" points="110.51,-26.36 118.15,-19.01 107.6,-19.99 110.51,-26.36"/>
</a>
</g>
</g>
<!-- Node5 -->
<g id="Node000005" class="node">
<title>Node5</title>
<g id="a_Node000005"><a xlink:href="_v_i_c_u_s___surface_8h.html" target="_top" xlink:title=" ">
<polygon fill="white" stroke="#666666" points="515.5,-195 420.5,-195 420.5,-176 515.5,-176 515.5,-195"/>
<text text-anchor="middle" x="468" y="-183" font-family="Helvetica,sans-Serif" font-size="10.00">VICUS_Surface.h</text>
</a>
</g>
</g>
<!-- Node2&#45;&gt;Node5 -->
<g id="edge4_Node000002_Node000005" class="edge">
<title>Node2&#45;&gt;Node5</title>
<g id="a_edge4_Node000002_Node000005"><a xlink:title=" ">
<path fill="none" stroke="#63b8ff" d="M468,-230.75C468,-223.8 468,-213.85 468,-205.13"/>
<polygon fill="#63b8ff" stroke="#63b8ff" points="471.5,-205.09 468,-195.09 464.5,-205.09 471.5,-205.09"/>
</a>
</g>
</g>
<!-- Node8 -->
<g id="Node000008" class="node">
<title>Node8</title>
<g id="a_Node000008"><a xlink:href="_v_i_c_u_s___object_8h.html" target="_top" xlink:title=" ">
<polygon fill="white" stroke="#666666" points="322,-79.5 232,-79.5 232,-60.5 322,-60.5 322,-79.5"/>
<text text-anchor="middle" x="277" y="-67.5" font-family="Helvetica,sans-Serif" font-size="10.00">VICUS_Object.h</text>
</a>
</g>
</g>
<!-- Node2&#45;&gt;Node8 -->
<g id="edge40_Node000002_Node000008" class="edge">
<title>Node2&#45;&gt;Node8</title>
<g id="a_edge40_Node000002_Node000008"><a xlink:title=" ">
<path fill="none" stroke="#63b8ff" d="M451.89,-230.99C423.67,-215.56 364.48,-180.75 324,-140 308.73,-124.63 295.27,-103.68 286.71,-88.91"/>
<polygon fill="#63b8ff" stroke="#63b8ff" points="289.55,-86.82 281.6,-79.81 283.44,-90.25 289.55,-86.82"/>
</a>
</g>
</g>
<!-- Node11 -->
<g id="Node000011" class="node">
<title>Node11</title>
<g id="a_Node000011"><a xlink:title=" ">
<polygon fill="#e0e0e0" stroke="#999999" points="50,-19 0,-19 0,0 50,0 50,-19"/>
<text text-anchor="middle" x="25" y="-7" font-family="Helvetica,sans-Serif" font-size="10.00">QString</text>
</a>
</g>
</g>
<!-- Node2&#45;&gt;Node11 -->
<g id="edge41_Node000002_Node000011" class="edge">
<title>Node2&#45;&gt;Node11</title>
<g id="a_edge41_Node000002_Node000011"><a xlink:title=" ">
<path fill="none" stroke="#63b8ff" d="M423.81,-237.43C350.13,-231.98 200.35,-212.15 100,-140 72.44,-120.18 64.07,-114.34 47,-85 36.85,-67.55 31.05,-45.04 27.98,-29.35"/>
<polygon fill="#63b8ff" stroke="#63b8ff" points="31.39,-28.54 26.21,-19.3 24.5,-29.76 31.39,-28.54"/>
</a>
</g>
</g>
<!-- Node23 -->
<g id="Node000023" class="node">
<title>Node23</title>
<g id="a_Node000023"><a xlink:title=" ">
<polygon fill="#e0e0e0" stroke="#999999" points="1073.5,-195 982.5,-195 982.5,-176 1073.5,-176 1073.5,-195"/>
<text text-anchor="middle" x="1028" y="-183" font-family="Helvetica,sans-Serif" font-size="10.00">IBK_Parameter.h</text>
</a>
</g>
</g>
<!-- Node2&#45;&gt;Node23 -->
<g id="edge42_Node000002_Node000023" class="edge">
<title>Node2&#45;&gt;Node23</title>
<g id="a_edge42_Node000002_Node000023"><a xlink:title=" ">
<path fill="none" stroke="#63b8ff" d="M512.22,-236.34C599.51,-229.93 800.04,-214.36 968,-195 969.47,-194.83 970.96,-194.65 972.46,-194.47"/>
<polygon fill="#63b8ff" stroke="#63b8ff" points="973.01,-197.93 982.5,-193.2 972.13,-190.99 973.01,-197.93"/>
</a>
</g>
</g>
<!-- Node5&#45;&gt;Node3 -->
<g id="edge5_Node000005_Node000003" class="edge">
<title>Node5&#45;&gt;Node3</title>
<g id="a_edge5_Node000005_Node000003"><a xlink:title=" ">
<path fill="none" stroke="#63b8ff" d="M511.66,-176C608.39,-156.8 834.17,-109.82 859,-85 873.57,-70.43 877.48,-46.34 878.28,-29.51"/>
<polygon fill="#63b8ff" stroke="#63b8ff" points="881.79,-29.28 878.44,-19.23 874.79,-29.17 881.79,-29.28"/>
</a>
</g>
</g>
<!-- Node5&#45;&gt;Node4 -->
<g id="edge6_Node000005_Node000004" class="edge">
<title>Node5&#45;&gt;Node4</title>
<g id="a_edge6_Node000005_Node000004"><a xlink:title=" ">
<path fill="none" stroke="#63b8ff" d="M420.49,-179.63C326.29,-168.87 121.39,-139.58 81,-85 73.07,-74.28 74.87,-66.84 81,-55 88.04,-41.41 101.34,-31.09 113.92,-23.82"/>
<polygon fill="#63b8ff" stroke="#63b8ff" points="115.67,-26.86 122.85,-19.07 112.38,-20.68 115.67,-26.86"/>
</a>
</g>
</g>
<!-- Node6 -->
<g id="Node000006" class="node">
<title>Node6</title>
<g id="a_Node000006"><a xlink:href="_v_i_c_u_s___plane_geometry_8h.html" target="_top" xlink:title=" ">
<polygon fill="white" stroke="#666666" points="926,-140 798,-140 798,-121 926,-121 926,-140"/>
<text text-anchor="middle" x="862" y="-128" font-family="Helvetica,sans-Serif" font-size="10.00">VICUS_PlaneGeometry.h</text>
</a>
</g>
</g>
<!-- Node5&#45;&gt;Node6 -->
<g id="edge7_Node000005_Node000006" class="edge">
<title>Node5&#45;&gt;Node6</title>
<g id="a_edge7_Node000005_Node000006"><a xlink:title=" ">
<path fill="none" stroke="#63b8ff" d="M515.53,-178.11C583.44,-168.97 708.84,-152.1 788.7,-141.36"/>
<polygon fill="#63b8ff" stroke="#63b8ff" points="789.24,-144.82 798.69,-140.02 788.31,-137.88 789.24,-144.82"/>
</a>
</g>
</g>
<!-- Node5&#45;&gt;Node8 -->
<g id="edge24_Node000005_Node000008" class="edge">
<title>Node5&#45;&gt;Node8</title>
<g id="a_edge24_Node000005_Node000008"><a xlink:title=" ">
<path fill="none" stroke="#63b8ff" d="M436.48,-175.95C412.27,-168.57 378.58,-156.48 352,-140 328.4,-125.37 305.55,-102.74 291.4,-87.43"/>
<polygon fill="#63b8ff" stroke="#63b8ff" points="293.78,-84.84 284.48,-79.77 288.59,-89.53 293.78,-84.84"/>
</a>
</g>
</g>
<!-- Node5&#45;&gt;Node11 -->
<g id="edge38_Node000005_Node000011" class="edge">
<title>Node5&#45;&gt;Node11</title>
<g id="a_edge38_Node000005_Node000011"><a xlink:title=" ">
<path fill="none" stroke="#63b8ff" d="M420.42,-181.33C341.57,-175.55 187.61,-161.82 138,-140 86.69,-117.43 49.84,-58.25 33.85,-28.35"/>
<polygon fill="#63b8ff" stroke="#63b8ff" points="36.77,-26.38 29.08,-19.1 30.55,-29.59 36.77,-26.38"/>
</a>
</g>
</g>
<!-- Node12 -->
<g id="Node000012" class="node">
<title>Node12</title>
<g id="a_Node000012"><a xlink:href="_v_i_c_u_s___polygon3_d_8h.html" target="_top" xlink:title=" ">
<polygon fill="white" stroke="#666666" points="1282,-79.5 1172,-79.5 1172,-60.5 1282,-60.5 1282,-79.5"/>
<text text-anchor="middle" x="1227" y="-67.5" font-family="Helvetica,sans-Serif" font-size="10.00">VICUS_Polygon3D.h</text>
</a>
</g>
</g>
<!-- Node5&#45;&gt;Node12 -->
<g id="edge35_Node000005_Node000012" class="edge">
<title>Node5&#45;&gt;Node12</title>
<g id="a_edge35_Node000005_Node000012"><a xlink:title=" ">
<path fill="none" stroke="#63b8ff" d="M515.67,-182.12C600.48,-177.4 782.92,-165.09 935,-140 1026.2,-124.95 1131.27,-97.61 1187.16,-82.25"/>
<polygon fill="#63b8ff" stroke="#63b8ff" points="1188.3,-85.57 1197.01,-79.53 1186.44,-78.82 1188.3,-85.57"/>
</a>
</g>
</g>
<!-- Node18 -->
<g id="Node000018" class="node">
<title>Node18</title>
<g id="a_Node000018"><a xlink:href="_v_i_c_u_s___sub_surface_8h.html" target="_top" xlink:title=" ">
<polygon fill="white" stroke="#666666" points="474.5,-140 361.5,-140 361.5,-121 474.5,-121 474.5,-140"/>
<text text-anchor="middle" x="418" y="-128" font-family="Helvetica,sans-Serif" font-size="10.00">VICUS_SubSurface.h</text>
</a>
</g>
</g>
<!-- Node5&#45;&gt;Node18 -->
<g id="edge25_Node000005_Node000018" class="edge">
<title>Node5&#45;&gt;Node18</title>
<g id="a_edge25_Node000005_Node000018"><a xlink:title=" ">
<path fill="none" stroke="#63b8ff" d="M459.74,-175.75C452.54,-168.11 441.89,-156.82 433.15,-147.56"/>
<polygon fill="#63b8ff" stroke="#63b8ff" points="435.51,-144.96 426.1,-140.09 430.42,-149.76 435.51,-144.96"/>
</a>
</g>
</g>
<!-- Node19 -->
<g id="Node000019" class="node">
<title>Node19</title>
<g id="a_Node000019"><a xlink:title=" ">
<polygon fill="#e0e0e0" stroke="#999999" points="603.5,-79.5 464.5,-79.5 464.5,-60.5 603.5,-60.5 603.5,-79.5"/>
<text text-anchor="middle" x="534" y="-67.5" font-family="Helvetica,sans-Serif" font-size="10.00">NANDRAD_IDVectorMap.h</text>
</a>
</g>
</g>
<!-- Node5&#45;&gt;Node19 -->
<g id="edge37_Node000005_Node000019" class="edge">
<title>Node5&#45;&gt;Node19</title>
<g id="a_edge37_Node000005_Node000019"><a xlink:title=" ">
<path fill="none" stroke="#63b8ff" d="M472.96,-175.97C483.76,-157.4 509.57,-113.01 523.93,-88.32"/>
<polygon fill="#63b8ff" stroke="#63b8ff" points="526.98,-90.03 528.98,-79.63 520.93,-86.52 526.98,-90.03"/>
</a>
</g>
</g>
<!-- Node20 -->
<g id="Node000020" class="node">
<title>Node20</title>
<g id="a_Node000020"><a xlink:title=" ">
<polygon fill="#e0e0e0" stroke="#999999" points="722,-79.5 622,-79.5 622,-60.5 722,-60.5 722,-79.5"/>
<text text-anchor="middle" x="672" y="-67.5" font-family="Helvetica,sans-Serif" font-size="10.00">IBK_LinearSpline.h</text>
</a>
</g>
</g>
<!-- Node5&#45;&gt;Node20 -->
<g id="edge36_Node000005_Node000020" class="edge">
<title>Node5&#45;&gt;Node20</title>
<g id="a_edge36_Node000005_Node000020"><a xlink:title=" ">
<path fill="none" stroke="#63b8ff" d="M483.33,-175.97C518.48,-156.41 605.1,-108.22 647.64,-84.56"/>
<polygon fill="#63b8ff" stroke="#63b8ff" points="649.45,-87.55 656.49,-79.63 646.05,-81.43 649.45,-87.55"/>
</a>
</g>
</g>
<!-- Node22 -->
<g id="Node000022" class="node">
<title>Node22</title>
<g id="a_Node000022"><a xlink:title=" ">
<polygon fill="#e0e0e0" stroke="#999999" points="137.5,-79.5 90.5,-79.5 90.5,-60.5 137.5,-60.5 137.5,-79.5"/>
<text text-anchor="middle" x="114" y="-67.5" font-family="Helvetica,sans-Serif" font-size="10.00">QColor</text>
</a>
</g>
</g>
<!-- Node5&#45;&gt;Node22 -->
<g id="edge39_Node000005_Node000022" class="edge">
<title>Node5&#45;&gt;Node22</title>
<g id="a_edge39_Node000005_Node000022"><a xlink:title=" ">
<path fill="none" stroke="#63b8ff" d="M439.08,-175.95C383.27,-159.32 256.97,-121.1 152,-85 150.16,-84.37 148.26,-83.7 146.36,-83.03"/>
<polygon fill="#63b8ff" stroke="#63b8ff" points="147.44,-79.7 136.85,-79.6 145.07,-86.29 147.44,-79.7"/>
</a>
</g>
</g>
<!-- Node6&#45;&gt;Node3 -->
<g id="edge9_Node000006_Node000003" class="edge">
<title>Node6&#45;&gt;Node3</title>
<g id="a_edge9_Node000006_Node000003"><a xlink:title=" ">
<path fill="none" stroke="#63b8ff" d="M870.21,-120.8C877.54,-112.38 887.75,-98.9 892,-85 897.75,-66.18 892.01,-43.94 886.24,-28.68"/>
<polygon fill="#63b8ff" stroke="#63b8ff" points="889.44,-27.27 882.38,-19.37 882.97,-29.95 889.44,-27.27"/>
</a>
</g>
</g>
<!-- Node7 -->
<g id="Node000007" class="node">
<title>Node7</title>
<g id="a_Node000007"><a xlink:title=" ">
<polygon fill="#e0e0e0" stroke="#999999" points="1201.5,-19 1098.5,-19 1098.5,0 1201.5,0 1201.5,-19"/>
<text text-anchor="middle" x="1150" y="-7" font-family="Helvetica,sans-Serif" font-size="10.00">IBKMK_Vector3D.h</text>
</a>
</g>
</g>
<!-- Node6&#45;&gt;Node7 -->
<g id="edge8_Node000006_Node000007" class="edge">
<title>Node6&#45;&gt;Node7</title>
<g id="a_edge8_Node000006_Node000007"><a xlink:title=" ">
<path fill="none" stroke="#63b8ff" d="M926.14,-126.11C994.18,-121.24 1095.83,-109.94 1125,-85 1141.25,-71.11 1146.97,-46.32 1148.97,-29.17"/>
<polygon fill="#63b8ff" stroke="#63b8ff" points="1152.46,-29.46 1149.81,-19.19 1145.48,-28.86 1152.46,-29.46"/>
</a>
</g>
</g>
<!-- Node6&#45;&gt;Node8 -->
<g id="edge10_Node000006_Node000008" class="edge">
<title>Node6&#45;&gt;Node8</title>
<g id="a_edge10_Node000006_Node000008"><a xlink:title=" ">
<path fill="none" stroke="#63b8ff" d="M797.8,-127.64C697.52,-123.94 497.89,-113.41 331,-85 326.18,-84.18 321.16,-83.14 316.21,-82"/>
<polygon fill="#63b8ff" stroke="#63b8ff" points="316.78,-78.53 306.23,-79.55 315.11,-85.33 316.78,-78.53"/>
</a>
</g>
</g>
<!-- Node6&#45;&gt;Node12 -->
<g id="edge15_Node000006_Node000012" class="edge">
<title>Node6&#45;&gt;Node12</title>
<g id="a_edge15_Node000006_Node000012"><a xlink:title=" ">
<path fill="none" stroke="#63b8ff" d="M925.09,-120.96C985.12,-112.62 1077.91,-99.14 1158,-85 1163.94,-83.95 1170.15,-82.79 1176.31,-81.59"/>
<polygon fill="#63b8ff" stroke="#63b8ff" points="1177.44,-84.94 1186.57,-79.56 1176.08,-78.07 1177.44,-84.94"/>
</a>
</g>
</g>
<!-- Node14 -->
<g id="Node000014" class="node">
<title>Node14</title>
<g id="a_Node000014"><a xlink:href="_v_i_c_u_s___polygon2_d_8h.html" target="_top" xlink:title=" ">
<polygon fill="white" stroke="#666666" points="850,-79.5 740,-79.5 740,-60.5 850,-60.5 850,-79.5"/>
<text text-anchor="middle" x="795" y="-67.5" font-family="Helvetica,sans-Serif" font-size="10.00">VICUS_Polygon2D.h</text>
</a>
</g>
</g>
<!-- Node6&#45;&gt;Node14 -->
<g id="edge18_Node000006_Node000014" class="edge">
<title>Node6&#45;&gt;Node14</title>
<g id="a_edge18_Node000006_Node000014"><a xlink:title=" ">
<path fill="none" stroke="#63b8ff" d="M852.11,-120.87C841.72,-111.8 825.16,-97.34 812.55,-86.32"/>
<polygon fill="#63b8ff" stroke="#63b8ff" points="814.76,-83.61 804.93,-79.67 810.16,-88.88 814.76,-83.61"/>
</a>
</g>
</g>
<!-- Node16 -->
<g id="Node000016" class="node">
<title>Node16</title>
<g id="a_Node000016"><a xlink:href="_v_i_c_u_s___plane_triangulation_data_8h.html" target="_top" xlink:title=" ">
<polygon fill="white" stroke="#666666" points="1116,-85 982,-85 982,-55 1116,-55 1116,-85"/>
<text text-anchor="start" x="990" y="-73" font-family="Helvetica,sans-Serif" font-size="10.00">VICUS_PlaneTriangulation</text>
<text text-anchor="middle" x="1049" y="-62" font-family="Helvetica,sans-Serif" font-size="10.00">Data.h</text>
</a>
</g>
</g>
<!-- Node6&#45;&gt;Node16 -->
<g id="edge21_Node000006_Node000016" class="edge">
<title>Node6&#45;&gt;Node16</title>
<g id="a_edge21_Node000006_Node000016"><a xlink:title=" ">
<path fill="none" stroke="#63b8ff" d="M889.19,-120.99C916.57,-112.43 959.59,-98.97 994.1,-88.18"/>
<polygon fill="#63b8ff" stroke="#63b8ff" points="995.54,-91.39 1004.04,-85.06 993.45,-84.71 995.54,-91.39"/>
</a>
</g>
</g>
<!-- Node8&#45;&gt;Node4 -->
<g id="edge14_Node000008_Node000004" class="edge">
<title>Node8&#45;&gt;Node4</title>
<g id="a_edge14_Node000008_Node000004"><a xlink:title=" ">
<path fill="none" stroke="#63b8ff" d="M257.66,-60.49C235.3,-50.66 198.29,-34.38 172.6,-23.08"/>
<polygon fill="#63b8ff" stroke="#63b8ff" points="173.93,-19.84 163.36,-19.02 171.11,-26.25 173.93,-19.84"/>
</a>
</g>
</g>
<!-- Node9 -->
<g id="Node000009" class="node">
<title>Node9</title>
<g id="a_Node000009"><a xlink:title=" ">
<polygon fill="#e0e0e0" stroke="#999999" points="271,-19 227,-19 227,0 271,0 271,-19"/>
<text text-anchor="middle" x="249" y="-7" font-family="Helvetica,sans-Serif" font-size="10.00">vector</text>
</a>
</g>
</g>
<!-- Node8&#45;&gt;Node9 -->
<g id="edge11_Node000008_Node000009" class="edge">
<title>Node8&#45;&gt;Node9</title>
<g id="a_edge11_Node000008_Node000009"><a xlink:title=" ">
<path fill="none" stroke="#63b8ff" d="M272.87,-60.37C268.86,-51.99 262.65,-39.01 257.56,-28.39"/>
<polygon fill="#63b8ff" stroke="#63b8ff" points="260.62,-26.68 253.15,-19.17 254.31,-29.7 260.62,-26.68"/>
</a>
</g>
</g>
<!-- Node10 -->
<g id="Node000010" class="node">
<title>Node10</title>
<g id="a_Node000010"><a xlink:title=" ">
<polygon fill="#e0e0e0" stroke="#999999" points="319,-19 289,-19 289,0 319,0 319,-19"/>
<text text-anchor="middle" x="304" y="-7" font-family="Helvetica,sans-Serif" font-size="10.00">set</text>
</a>
</g>
</g>
<!-- Node8&#45;&gt;Node10 -->
<g id="edge12_Node000008_Node000010" class="edge">
<title>Node8&#45;&gt;Node10</title>
<g id="a_edge12_Node000008_Node000010"><a xlink:title=" ">
<path fill="none" stroke="#63b8ff" d="M280.98,-60.37C284.85,-51.99 290.84,-39.01 295.74,-28.39"/>
<polygon fill="#63b8ff" stroke="#63b8ff" points="298.99,-29.71 300,-19.17 292.63,-26.78 298.99,-29.71"/>
</a>
</g>
</g>
<!-- Node8&#45;&gt;Node11 -->
<g id="edge13_Node000008_Node000011" class="edge">
<title>Node8&#45;&gt;Node11</title>
<g id="a_edge13_Node000008_Node000011"><a xlink:title=" ">
<path fill="none" stroke="#63b8ff" d="M240.36,-60.49C192.03,-49.27 107.57,-29.67 60.05,-18.64"/>
<polygon fill="#63b8ff" stroke="#63b8ff" points="60.75,-15.21 50.22,-16.35 59.17,-22.02 60.75,-15.21"/>
</a>
</g>
</g>
<!-- Node12&#45;&gt;Node3 -->
<g id="edge17_Node000012_Node000003" class="edge">
<title>Node12&#45;&gt;Node3</title>
<g id="a_edge17_Node000012_Node000003"><a xlink:title=" ">
<path fill="none" stroke="#63b8ff" d="M1176.25,-60.49C1113.32,-49.94 1006.13,-31.98 938.84,-20.7"/>
<polygon fill="#63b8ff" stroke="#63b8ff" points="939.25,-17.22 928.81,-19.02 938.09,-24.12 939.25,-17.22"/>
</a>
</g>
</g>
<!-- Node13 -->
<g id="Node000013" class="node">
<title>Node13</title>
<g id="a_Node000013"><a xlink:title=" ">
<polygon fill="#e0e0e0" stroke="#999999" points="1330,-19 1220,-19 1220,0 1330,0 1330,-19"/>
<text text-anchor="middle" x="1275" y="-7" font-family="Helvetica,sans-Serif" font-size="10.00">IBKMK_Polygon3D.h</text>
</a>
</g>
</g>
<!-- Node12&#45;&gt;Node13 -->
<g id="edge16_Node000012_Node000013" class="edge">
<title>Node12&#45;&gt;Node13</title>
<g id="a_edge16_Node000012_Node000013"><a xlink:title=" ">
<path fill="none" stroke="#63b8ff" d="M1234.08,-60.37C1241.24,-51.64 1252.49,-37.93 1261.39,-27.09"/>
<polygon fill="#63b8ff" stroke="#63b8ff" points="1264.25,-29.12 1267.89,-19.17 1258.84,-24.68 1264.25,-29.12"/>
</a>
</g>
</g>
<!-- Node14&#45;&gt;Node3 -->
<g id="edge20_Node000014_Node000003" class="edge">
<title>Node14&#45;&gt;Node3</title>
<g id="a_edge20_Node000014_Node000003"><a xlink:title=" ">
<path fill="none" stroke="#63b8ff" d="M807.25,-60.37C820.36,-51.12 841.42,-36.28 857.15,-25.19"/>
<polygon fill="#63b8ff" stroke="#63b8ff" points="859.55,-27.79 865.7,-19.17 855.51,-22.07 859.55,-27.79"/>
</a>
</g>
</g>
<!-- Node15 -->
<g id="Node000015" class="node">
<title>Node15</title>
<g id="a_Node000015"><a xlink:title=" ">
<polygon fill="#e0e0e0" stroke="#999999" points="792,-19 682,-19 682,0 792,0 792,-19"/>
<text text-anchor="middle" x="737" y="-7" font-family="Helvetica,sans-Serif" font-size="10.00">IBKMK_Polygon2D.h</text>
</a>
</g>
</g>
<!-- Node14&#45;&gt;Node15 -->
<g id="edge19_Node000014_Node000015" class="edge">
<title>Node14&#45;&gt;Node15</title>
<g id="a_edge19_Node000014_Node000015"><a xlink:title=" ">
<path fill="none" stroke="#63b8ff" d="M786.44,-60.37C777.62,-51.47 763.66,-37.39 752.82,-26.45"/>
<polygon fill="#63b8ff" stroke="#63b8ff" points="755.12,-23.8 745.59,-19.17 750.15,-28.73 755.12,-23.8"/>
</a>
</g>
</g>
<!-- Node16&#45;&gt;Node7 -->
<g id="edge22_Node000016_Node000007" class="edge">
<title>Node16&#45;&gt;Node7</title>
<g id="a_edge22_Node000016_Node000007"><a xlink:title=" ">
<path fill="none" stroke="#63b8ff" d="M1073.19,-54.99C1089.29,-45.66 1110.34,-33.47 1126.33,-24.21"/>
<polygon fill="#63b8ff" stroke="#63b8ff" points="1128.19,-27.18 1135.08,-19.14 1124.68,-21.12 1128.19,-27.18"/>
</a>
</g>
</g>
<!-- Node17 -->
<g id="Node000017" class="node">
<title>Node17</title>
<g id="a_Node000017"><a xlink:title=" ">
<polygon fill="#e0e0e0" stroke="#999999" points="1080.5,-19 963.5,-19 963.5,0 1080.5,0 1080.5,-19"/>
<text text-anchor="middle" x="1022" y="-7" font-family="Helvetica,sans-Serif" font-size="10.00">IBKMK_Triangulation.h</text>
</a>
</g>
</g>
<!-- Node16&#45;&gt;Node17 -->
<g id="edge23_Node000016_Node000017" class="edge">
<title>Node16&#45;&gt;Node17</title>
<g id="a_edge23_Node000016_Node000017"><a xlink:title=" ">
<path fill="none" stroke="#63b8ff" d="M1042.46,-54.84C1038.82,-46.95 1034.26,-37.05 1030.36,-28.61"/>
<polygon fill="#63b8ff" stroke="#63b8ff" points="1033.41,-26.88 1026.05,-19.27 1027.06,-29.81 1033.41,-26.88"/>
</a>
</g>
</g>
<!-- Node18&#45;&gt;Node3 -->
<g id="edge26_Node000018_Node000003" class="edge">
<title>Node18&#45;&gt;Node3</title>
<g id="a_edge26_Node000018_Node000003"><a xlink:title=" ">
<path fill="none" stroke="#63b8ff" d="M419.51,-120.82C422.8,-104.81 432.22,-70.81 455,-55 516.15,-12.56 709.07,-26.11 800.31,-18.92"/>
<polygon fill="#63b8ff" stroke="#63b8ff" points="800.76,-22.39 810.4,-17.99 800.12,-15.42 800.76,-22.39"/>
</a>
</g>
</g>
<!-- Node18&#45;&gt;Node4 -->
<g id="edge27_Node000018_Node000004" class="edge">
<title>Node18&#45;&gt;Node4</title>
<g id="a_edge27_Node000018_Node000004"><a xlink:title=" ">
<path fill="none" stroke="#63b8ff" d="M361.45,-124.58C320.96,-119.21 266.2,-108.05 223,-85 195.95,-70.56 171.38,-44.4 157.06,-27.24"/>
<polygon fill="#63b8ff" stroke="#63b8ff" points="159.56,-24.76 150.55,-19.19 154.12,-29.17 159.56,-24.76"/>
</a>
</g>
</g>
<!-- Node18&#45;&gt;Node8 -->
<g id="edge29_Node000018_Node000008" class="edge">
<title>Node18&#45;&gt;Node8</title>
<g id="a_edge29_Node000018_Node000008"><a xlink:title=" ">
<path fill="none" stroke="#63b8ff" d="M397.5,-120.99C373.69,-111.12 334.21,-94.73 306.96,-83.43"/>
<polygon fill="#63b8ff" stroke="#63b8ff" points="308.11,-80.12 297.53,-79.52 305.42,-86.58 308.11,-80.12"/>
</a>
</g>
</g>
<!-- Node18&#45;&gt;Node11 -->
<g id="edge33_Node000018_Node000011" class="edge">
<title>Node18&#45;&gt;Node11</title>
<g id="a_edge33_Node000018_Node000011"><a xlink:title=" ">
<path fill="none" stroke="#63b8ff" d="M361.18,-126.82C311.77,-122.65 239.32,-112.03 182,-85 163.16,-76.12 164.04,-65.41 146,-55 118.74,-39.26 84.92,-27.39 59.97,-19.88"/>
<polygon fill="#63b8ff" stroke="#63b8ff" points="60.78,-16.47 50.2,-17.03 58.82,-23.19 60.78,-16.47"/>
</a>
</g>
</g>
<!-- Node18&#45;&gt;Node14 -->
<g id="edge28_Node000018_Node000014" class="edge">
<title>Node18&#45;&gt;Node14</title>
<g id="a_edge28_Node000018_Node000014"><a xlink:title=" ">
<path fill="none" stroke="#63b8ff" d="M474.75,-122.72C537.61,-114.9 641.87,-101.06 731,-85 736.53,-84 742.3,-82.87 748.03,-81.69"/>
<polygon fill="#63b8ff" stroke="#63b8ff" points="749.15,-85.03 758.2,-79.54 747.7,-78.18 749.15,-85.03"/>
</a>
</g>
</g>
<!-- Node18&#45;&gt;Node19 -->
<g id="edge30_Node000018_Node000019" class="edge">
<title>Node18&#45;&gt;Node19</title>
<g id="a_edge30_Node000018_Node000019"><a xlink:title=" ">
<path fill="none" stroke="#63b8ff" d="M435.12,-120.87C454.22,-111.23 485.37,-95.53 507.6,-84.31"/>
<polygon fill="#63b8ff" stroke="#63b8ff" points="509.46,-87.3 516.81,-79.67 506.31,-81.05 509.46,-87.3"/>
</a>
</g>
</g>
<!-- Node18&#45;&gt;Node20 -->
<g id="edge31_Node000018_Node000020" class="edge">
<title>Node18&#45;&gt;Node20</title>
<g id="a_edge31_Node000018_Node000020"><a xlink:title=" ">
<path fill="none" stroke="#63b8ff" d="M455.56,-120.93C494.65,-112 557.63,-97.58 612,-85 616.4,-83.98 620.98,-82.92 625.56,-81.85"/>
<polygon fill="#63b8ff" stroke="#63b8ff" points="626.57,-85.21 635.52,-79.54 624.98,-78.39 626.57,-85.21"/>
</a>
</g>
</g>
<!-- Node21 -->
<g id="Node000021" class="node">
<title>Node21</title>
<g id="a_Node000021"><a xlink:title=" ">
<polygon fill="#e0e0e0" stroke="#999999" points="408,-79.5 340,-79.5 340,-60.5 408,-60.5 408,-79.5"/>
<text text-anchor="middle" x="374" y="-67.5" font-family="Helvetica,sans-Serif" font-size="10.00">IBK_point.h</text>
</a>
</g>
</g>
<!-- Node18&#45;&gt;Node21 -->
<g id="edge32_Node000018_Node000021" class="edge">
<title>Node18&#45;&gt;Node21</title>
<g id="a_edge32_Node000018_Node000021"><a xlink:title=" ">
<path fill="none" stroke="#63b8ff" d="M411.51,-120.87C405.01,-112.23 394.84,-98.7 386.72,-87.92"/>
<polygon fill="#63b8ff" stroke="#63b8ff" points="389.33,-85.56 380.52,-79.67 383.73,-89.76 389.33,-85.56"/>
</a>
</g>
</g>
<!-- Node18&#45;&gt;Node22 -->
<g id="edge34_Node000018_Node000022" class="edge">
<title>Node18&#45;&gt;Node22</title>
<g id="a_edge34_Node000018_Node000022"><a xlink:title=" ">
<path fill="none" stroke="#63b8ff" d="M361.3,-123.14C307,-116.32 223.05,-103.85 152,-85 149.56,-84.35 147.06,-83.61 144.56,-82.82"/>
<polygon fill="#63b8ff" stroke="#63b8ff" points="145.67,-79.5 135.08,-79.56 143.4,-86.12 145.67,-79.5"/>
</a>
</g>
</g>
<!-- Node24&#45;&gt;Node23 -->
<g id="edge46_Node000024_Node000023" class="edge">
<title>Node24&#45;&gt;Node23</title>
<g id="a_edge46_Node000024_Node000023"><a xlink:title=" ">
<path fill="none" stroke="#63b8ff" d="M1098.5,-230.98C1085.6,-222.84 1065.9,-210.41 1050.6,-200.76"/>
<polygon fill="#63b8ff" stroke="#63b8ff" points="1052.07,-197.55 1041.74,-195.17 1048.33,-203.47 1052.07,-197.55"/>
</a>
</g>
</g>
<!-- Node25 -->
<g id="Node000025" class="node">
<title>Node25</title>
<g id="a_Node000025"><a xlink:title=" ">
<polygon fill="#e0e0e0" stroke="#999999" points="1132.5,-195 1091.5,-195 1091.5,-176 1132.5,-176 1132.5,-195"/>
<text text-anchor="middle" x="1112" y="-183" font-family="Helvetica,sans-Serif" font-size="10.00">string</text>
</a>
</g>
</g>
<!-- Node24&#45;&gt;Node25 -->
<g id="edge44_Node000024_Node000025" class="edge">
<title>Node24&#45;&gt;Node25</title>
<g id="a_edge44_Node000024_Node000025"><a xlink:title=" ">
<path fill="none" stroke="#63b8ff" d="M1112,-230.75C1112,-223.8 1112,-213.85 1112,-205.13"/>
<polygon fill="#63b8ff" stroke="#63b8ff" points="1115.5,-205.09 1112,-195.09 1108.5,-205.09 1115.5,-205.09"/>
</a>
</g>
</g>
<!-- Node26 -->
<g id="Node000026" class="node">
<title>Node26</title>
<g id="a_Node000026"><a xlink:title=" ">
<polygon fill="#e0e0e0" stroke="#999999" points="1201.5,-195 1150.5,-195 1150.5,-176 1201.5,-176 1201.5,-195"/>
<text text-anchor="middle" x="1176" y="-183" font-family="Helvetica,sans-Serif" font-size="10.00">typeinfo</text>
</a>
</g>
</g>
<!-- Node24&#45;&gt;Node26 -->
<g id="edge45_Node000024_Node000026" class="edge">
<title>Node24&#45;&gt;Node26</title>
<g id="a_edge45_Node000024_Node000026"><a xlink:title=" ">
<path fill="none" stroke="#63b8ff" d="M1122.28,-230.98C1131.84,-223.07 1146.28,-211.11 1157.78,-201.58"/>
<polygon fill="#63b8ff" stroke="#63b8ff" points="1160.06,-204.24 1165.53,-195.17 1155.6,-198.85 1160.06,-204.24"/>
</a>
</g>
</g>
<!-- Node27 -->
<g id="Node000027" class="node">
<title>Node27</title>
<g id="a_Node000027"><a xlink:title=" ">
<polygon fill="#e0e0e0" stroke="#999999" points="1298,-195 1220,-195 1220,-176 1298,-176 1298,-195"/>
<text text-anchor="middle" x="1259" y="-183" font-family="Helvetica,sans-Serif" font-size="10.00">IBK_IntPara.h</text>
</a>
</g>
</g>
<!-- Node24&#45;&gt;Node27 -->
<g id="edge47_Node000024_Node000027" class="edge">
<title>Node24&#45;&gt;Node27</title>
<g id="a_edge47_Node000024_Node000027"><a xlink:title=" ">
<path fill="none" stroke="#63b8ff" d="M1135.62,-230.98C1159.9,-222.23 1197.95,-208.51 1225.37,-198.62"/>
<polygon fill="#63b8ff" stroke="#63b8ff" points="1226.73,-201.85 1234.95,-195.17 1224.36,-195.27 1226.73,-201.85"/>
</a>
</g>
</g>
</g>
</svg>
