<?xml version="1.0" encoding="UTF-8" standalone="no"?>
<!DOCTYPE svg PUBLIC "-//W3C//DTD SVG 1.1//EN"
 "http://www.w3.org/Graphics/SVG/1.1/DTD/svg11.dtd">
<!-- Generated by graphviz version 2.43.0 (0)
 -->
<!-- Title: /home/hirth/git/SIM&#45;VICUS.master2/externals/Vicus/src/VICUS_NetworkController.h Pages: 1 -->
<svg width="1714pt" height="401pt"
 viewBox="0.00 0.00 1714.00 401.00" xmlns="http://www.w3.org/2000/svg" xmlns:xlink="http://www.w3.org/1999/xlink">
<g id="graph0" class="graph" transform="scale(1 1) rotate(0) translate(4 397)">
<title>/home/hirth/git/SIM&#45;VICUS.master2/externals/Vicus/src/VICUS_NetworkController.h</title>
<!-- Node1 -->
<g id="Node000001" class="node">
<title>Node1</title>
<g id="a_Node000001"><a xlink:title=" ">
<polygon fill="#999999" stroke="#666666" points="1466,-393 1279,-393 1279,-352 1466,-352 1466,-393"/>
<text text-anchor="start" x="1287" y="-381" font-family="Helvetica,sans-Serif" font-size="10.00">/home/hirth/git/SIM</text>
<text text-anchor="start" x="1287" y="-370" font-family="Helvetica,sans-Serif" font-size="10.00">&#45;VICUS.master2/externals</text>
<text text-anchor="middle" x="1372.5" y="-359" font-family="Helvetica,sans-Serif" font-size="10.00">/Vicus/src/VICUS_NetworkController.h</text>
</a>
</g>
</g>
<!-- Node2 -->
<g id="Node000002" class="node">
<title>Node2</title>
<g id="a_Node000002"><a xlink:href="_v_i_c_u_s___embedded_database_8h.html" target="_top" xlink:title=" ">
<polygon fill="white" stroke="#666666" points="1245,-222.5 1048,-222.5 1048,-181.5 1245,-181.5 1245,-222.5"/>
<text text-anchor="start" x="1056" y="-210.5" font-family="Helvetica,sans-Serif" font-size="10.00">/home/hirth/git/SIM</text>
<text text-anchor="start" x="1056" y="-199.5" font-family="Helvetica,sans-Serif" font-size="10.00">&#45;VICUS.master2/externals</text>
<text text-anchor="middle" x="1146.5" y="-188.5" font-family="Helvetica,sans-Serif" font-size="10.00">/Vicus/src/VICUS_EmbeddedDatabase.h</text>
</a>
</g>
</g>
<!-- Node1&#45;&gt;Node2 -->
<g id="edge1_Node000001_Node000002" class="edge">
<title>Node1&#45;&gt;Node2</title>
<g id="a_edge1_Node000001_Node000002"><a xlink:title=" ">
<path fill="none" stroke="#63b8ff" d="M1268.8,-354.46C1224.74,-345.12 1180.16,-332.13 1165.5,-316 1142.35,-290.53 1141.81,-247.88 1143.9,-222.9"/>
<polygon fill="#63b8ff" stroke="#63b8ff" points="1268.27,-357.93 1278.77,-356.52 1269.68,-351.07 1268.27,-357.93"/>
</a>
</g>
</g>
<!-- Node14 -->
<g id="Node000014" class="node">
<title>Node14</title>
<g id="a_Node000014"><a xlink:href="_v_i_c_u_s___network_controller_8cpp.html" target="_top" xlink:title=" ">
<polygon fill="white" stroke="#666666" points="1372,-310.5 1175,-310.5 1175,-269.5 1372,-269.5 1372,-310.5"/>
<text text-anchor="start" x="1183" y="-298.5" font-family="Helvetica,sans-Serif" font-size="10.00">/home/hirth/git/SIM</text>
<text text-anchor="start" x="1183" y="-287.5" font-family="Helvetica,sans-Serif" font-size="10.00">&#45;VICUS.master2/externals</text>
<text text-anchor="middle" x="1273.5" y="-276.5" font-family="Helvetica,sans-Serif" font-size="10.00">/Vicus/src/VICUS_NetworkController.cpp</text>
</a>
</g>
</g>
<!-- Node1&#45;&gt;Node14 -->
<g id="edge13_Node000001_Node000014" class="edge">
<title>Node1&#45;&gt;Node14</title>
<g id="a_edge13_Node000001_Node000014"><a xlink:title=" ">
<path fill="none" stroke="#63b8ff" d="M1340.41,-345.41C1326.57,-334.15 1310.65,-321.21 1297.81,-310.77"/>
<polygon fill="#63b8ff" stroke="#63b8ff" points="1338.31,-348.21 1348.28,-351.81 1342.73,-342.78 1338.31,-348.21"/>
</a>
</g>
</g>
<!-- Node15 -->
<g id="Node000015" class="node">
<title>Node15</title>
<g id="a_Node000015"><a xlink:href="_v_i_c_u_s___sub_network_8h.html" target="_top" xlink:title=" ">
<polygon fill="white" stroke="#666666" points="1553,-310.5 1390,-310.5 1390,-269.5 1553,-269.5 1553,-310.5"/>
<text text-anchor="start" x="1398" y="-298.5" font-family="Helvetica,sans-Serif" font-size="10.00">/home/hirth/git/SIM</text>
<text text-anchor="start" x="1398" y="-287.5" font-family="Helvetica,sans-Serif" font-size="10.00">&#45;VICUS.master2/externals</text>
<text text-anchor="middle" x="1471.5" y="-276.5" font-family="Helvetica,sans-Serif" font-size="10.00">/Vicus/src/VICUS_SubNetwork.h</text>
</a>
</g>
</g>
<!-- Node1&#45;&gt;Node15 -->
<g id="edge14_Node000001_Node000015" class="edge">
<title>Node1&#45;&gt;Node15</title>
<g id="a_edge14_Node000001_Node000015"><a xlink:title=" ">
<path fill="none" stroke="#63b8ff" d="M1404.59,-345.41C1418.43,-334.15 1434.35,-321.21 1447.19,-310.77"/>
<polygon fill="#63b8ff" stroke="#63b8ff" points="1402.27,-342.78 1396.72,-351.81 1406.69,-348.21 1402.27,-342.78"/>
</a>
</g>
</g>
<!-- Node17 -->
<g id="Node000017" class="node">
<title>Node17</title>
<g id="a_Node000017"><a xlink:href="ncg___v_i_c_u_s___network_controller_8cpp.html" target="_top" xlink:title=" ">
<polygon fill="white" stroke="#666666" points="1706,-316 1571,-316 1571,-264 1706,-264 1706,-316"/>
<text text-anchor="start" x="1579" y="-304" font-family="Helvetica,sans-Serif" font-size="10.00">/home/hirth/git/SIM</text>
<text text-anchor="start" x="1579" y="-293" font-family="Helvetica,sans-Serif" font-size="10.00">&#45;VICUS.master2/externals</text>
<text text-anchor="start" x="1579" y="-282" font-family="Helvetica,sans-Serif" font-size="10.00">/Vicus/src/ncg/ncg_VICUS</text>
<text text-anchor="middle" x="1638.5" y="-271" font-family="Helvetica,sans-Serif" font-size="10.00">_NetworkController.cpp</text>
</a>
</g>
</g>
<!-- Node1&#45;&gt;Node17 -->
<g id="edge18_Node000001_Node000017" class="edge">
<title>Node1&#45;&gt;Node17</title>
<g id="a_edge18_Node000001_Node000017"><a xlink:title=" ">
<path fill="none" stroke="#63b8ff" d="M1451.64,-349.03C1485.82,-339.16 1526.21,-327.27 1562.5,-316 1565.29,-315.14 1568.13,-314.24 1570.99,-313.34"/>
<polygon fill="#63b8ff" stroke="#63b8ff" points="1450.35,-345.76 1441.71,-351.89 1452.29,-352.48 1450.35,-345.76"/>
</a>
</g>
</g>
<!-- Node3 -->
<g id="Node000003" class="node">
<title>Node3</title>
<g id="a_Node000003"><a xlink:href="_v_i_c_u_s___project_8h.html" target="_top" xlink:title=" ">
<polygon fill="white" stroke="#666666" points="976.5,-134.5 836.5,-134.5 836.5,-93.5 976.5,-93.5 976.5,-134.5"/>
<text text-anchor="start" x="844.5" y="-122.5" font-family="Helvetica,sans-Serif" font-size="10.00">/home/hirth/git/SIM</text>
<text text-anchor="start" x="844.5" y="-111.5" font-family="Helvetica,sans-Serif" font-size="10.00">&#45;VICUS.master2/externals</text>
<text text-anchor="middle" x="906.5" y="-100.5" font-family="Helvetica,sans-Serif" font-size="10.00">/Vicus/src/VICUS_Project.h</text>
</a>
</g>
</g>
<!-- Node2&#45;&gt;Node3 -->
<g id="edge2_Node000002_Node000003" class="edge">
<title>Node2&#45;&gt;Node3</title>
<g id="a_edge2_Node000002_Node000003"><a xlink:title=" ">
<path fill="none" stroke="#63b8ff" d="M1082.15,-177.94C1044.37,-164.4 997.13,-147.48 961.16,-134.59"/>
<polygon fill="#63b8ff" stroke="#63b8ff" points="1081.45,-181.41 1092.04,-181.49 1083.81,-174.82 1081.45,-181.41"/>
</a>
</g>
</g>
<!-- Node13 -->
<g id="Node000013" class="node">
<title>Node13</title>
<g id="a_Node000013"><a xlink:href="ncg___v_i_c_u_s___embedded_database_8cpp.html" target="_top" xlink:title=" ">
<polygon fill="white" stroke="#666666" points="1214,-140 1079,-140 1079,-88 1214,-88 1214,-140"/>
<text text-anchor="start" x="1087" y="-128" font-family="Helvetica,sans-Serif" font-size="10.00">/home/hirth/git/SIM</text>
<text text-anchor="start" x="1087" y="-117" font-family="Helvetica,sans-Serif" font-size="10.00">&#45;VICUS.master2/externals</text>
<text text-anchor="start" x="1087" y="-106" font-family="Helvetica,sans-Serif" font-size="10.00">/Vicus/src/ncg/ncg_VICUS</text>
<text text-anchor="middle" x="1146.5" y="-95" font-family="Helvetica,sans-Serif" font-size="10.00">_EmbeddedDatabase.cpp</text>
</a>
</g>
</g>
<!-- Node2&#45;&gt;Node13 -->
<g id="edge12_Node000002_Node000013" class="edge">
<title>Node2&#45;&gt;Node13</title>
<g id="a_edge12_Node000002_Node000013"><a xlink:title=" ">
<path fill="none" stroke="#63b8ff" d="M1146.5,-171.44C1146.5,-161.31 1146.5,-150.08 1146.5,-140.32"/>
<polygon fill="#63b8ff" stroke="#63b8ff" points="1143,-171.49 1146.5,-181.49 1150,-171.49 1143,-171.49"/>
</a>
</g>
</g>
<!-- Node4 -->
<g id="Node000004" class="node">
<title>Node4</title>
<g id="a_Node000004"><a xlink:href="_v_i_c_u_s___heat_load12831_export_8cpp.html" target="_top" xlink:title=" ">
<polygon fill="white" stroke="#666666" points="169,-52 0,-52 0,0 169,0 169,-52"/>
<text text-anchor="start" x="8" y="-40" font-family="Helvetica,sans-Serif" font-size="10.00">/home/hirth/git/SIM</text>
<text text-anchor="start" x="8" y="-29" font-family="Helvetica,sans-Serif" font-size="10.00">&#45;VICUS.master2/externals</text>
<text text-anchor="start" x="8" y="-18" font-family="Helvetica,sans-Serif" font-size="10.00">/Vicus/src/VICUS_HeatLoad12831</text>
<text text-anchor="middle" x="84.5" y="-7" font-family="Helvetica,sans-Serif" font-size="10.00">Export.cpp</text>
</a>
</g>
</g>
<!-- Node3&#45;&gt;Node4 -->
<g id="edge3_Node000003_Node000004" class="edge">
<title>Node3&#45;&gt;Node4</title>
<g id="a_edge3_Node000003_Node000004"><a xlink:title=" ">
<path fill="none" stroke="#63b8ff" d="M826.23,-110.89C691.47,-106.33 411.58,-92.43 178.5,-52 175.42,-51.47 172.3,-50.88 169.15,-50.25"/>
<polygon fill="#63b8ff" stroke="#63b8ff" points="826.36,-114.4 836.47,-111.23 826.59,-107.4 826.36,-114.4"/>
</a>
</g>
</g>
<!-- Node5 -->
<g id="Node000005" class="node">
<title>Node5</title>
<g id="a_Node000005"><a xlink:href="_v_i_c_u_s___interface_heat_conduction_8cpp.html" target="_top" xlink:title=" ">
<polygon fill="white" stroke="#666666" points="347.5,-52 187.5,-52 187.5,0 347.5,0 347.5,-52"/>
<text text-anchor="start" x="195.5" y="-40" font-family="Helvetica,sans-Serif" font-size="10.00">/home/hirth/git/SIM</text>
<text text-anchor="start" x="195.5" y="-29" font-family="Helvetica,sans-Serif" font-size="10.00">&#45;VICUS.master2/externals</text>
<text text-anchor="start" x="195.5" y="-18" font-family="Helvetica,sans-Serif" font-size="10.00">/Vicus/src/VICUS_InterfaceHeat</text>
<text text-anchor="middle" x="267.5" y="-7" font-family="Helvetica,sans-Serif" font-size="10.00">Conduction.cpp</text>
</a>
</g>
</g>
<!-- Node3&#45;&gt;Node5 -->
<g id="edge4_Node000003_Node000005" class="edge">
<title>Node3&#45;&gt;Node5</title>
<g id="a_edge4_Node000003_Node000005"><a xlink:title=" ">
<path fill="none" stroke="#63b8ff" d="M826.36,-108.23C718.72,-100.89 521.86,-84.17 356.5,-52 353.66,-51.45 350.79,-50.85 347.89,-50.22"/>
<polygon fill="#63b8ff" stroke="#63b8ff" points="826.28,-111.73 836.49,-108.91 826.75,-104.75 826.28,-111.73"/>
</a>
</g>
</g>
<!-- Node6 -->
<g id="Node000006" class="node">
<title>Node6</title>
<g id="a_Node000006"><a xlink:href="_v_i_c_u_s___network_8cpp.html" target="_top" xlink:title=" ">
<polygon fill="white" stroke="#666666" points="521.5,-46.5 365.5,-46.5 365.5,-5.5 521.5,-5.5 521.5,-46.5"/>
<text text-anchor="start" x="373.5" y="-34.5" font-family="Helvetica,sans-Serif" font-size="10.00">/home/hirth/git/SIM</text>
<text text-anchor="start" x="373.5" y="-23.5" font-family="Helvetica,sans-Serif" font-size="10.00">&#45;VICUS.master2/externals</text>
<text text-anchor="middle" x="443.5" y="-12.5" font-family="Helvetica,sans-Serif" font-size="10.00">/Vicus/src/VICUS_Network.cpp</text>
</a>
</g>
</g>
<!-- Node3&#45;&gt;Node6 -->
<g id="edge5_Node000003_Node000006" class="edge">
<title>Node3&#45;&gt;Node6</title>
<g id="a_edge5_Node000003_Node000006"><a xlink:title=" ">
<path fill="none" stroke="#63b8ff" d="M826.33,-102.81C749.85,-92.43 631.63,-74.65 530.5,-52 523.29,-50.39 515.8,-48.52 508.37,-46.55"/>
<polygon fill="#63b8ff" stroke="#63b8ff" points="826,-106.3 836.38,-104.17 826.94,-99.36 826,-106.3"/>
</a>
</g>
</g>
<!-- Node7 -->
<g id="Node000007" class="node">
<title>Node7</title>
<g id="a_Node000007"><a xlink:href="_v_i_c_u_s___network_edge_8cpp.html" target="_top" xlink:title=" ">
<polygon fill="white" stroke="#666666" points="719,-46.5 540,-46.5 540,-5.5 719,-5.5 719,-46.5"/>
<text text-anchor="start" x="548" y="-34.5" font-family="Helvetica,sans-Serif" font-size="10.00">/home/hirth/git/SIM</text>
<text text-anchor="start" x="548" y="-23.5" font-family="Helvetica,sans-Serif" font-size="10.00">&#45;VICUS.master2/externals</text>
<text text-anchor="middle" x="629.5" y="-12.5" font-family="Helvetica,sans-Serif" font-size="10.00">/Vicus/src/VICUS_NetworkEdge.cpp</text>
</a>
</g>
</g>
<!-- Node3&#45;&gt;Node7 -->
<g id="edge6_Node000003_Node000007" class="edge">
<title>Node3&#45;&gt;Node7</title>
<g id="a_edge6_Node000003_Node000007"><a xlink:title=" ">
<path fill="none" stroke="#63b8ff" d="M833.9,-90.46C790.02,-76.84 734.63,-59.64 692.59,-46.59"/>
<polygon fill="#63b8ff" stroke="#63b8ff" points="833.06,-93.86 843.64,-93.49 835.13,-87.18 833.06,-93.86"/>
</a>
</g>
</g>
<!-- Node8 -->
<g id="Node000008" class="node">
<title>Node8</title>
<g id="a_Node000008"><a xlink:href="_v_i_c_u_s___project_8cpp.html" target="_top" xlink:title=" ">
<polygon fill="white" stroke="#666666" points="887.5,-46.5 737.5,-46.5 737.5,-5.5 887.5,-5.5 887.5,-46.5"/>
<text text-anchor="start" x="745.5" y="-34.5" font-family="Helvetica,sans-Serif" font-size="10.00">/home/hirth/git/SIM</text>
<text text-anchor="start" x="745.5" y="-23.5" font-family="Helvetica,sans-Serif" font-size="10.00">&#45;VICUS.master2/externals</text>
<text text-anchor="middle" x="812.5" y="-12.5" font-family="Helvetica,sans-Serif" font-size="10.00">/Vicus/src/VICUS_Project.cpp</text>
</a>
</g>
</g>
<!-- Node3&#45;&gt;Node8 -->
<g id="edge7_Node000003_Node000008" class="edge">
<title>Node3&#45;&gt;Node8</title>
<g id="a_edge7_Node000003_Node000008"><a xlink:title=" ">
<path fill="none" stroke="#63b8ff" d="M877.67,-86.62C863.62,-73.77 847.01,-58.57 834.07,-46.74"/>
<polygon fill="#63b8ff" stroke="#63b8ff" points="875.43,-89.32 885.17,-93.49 880.15,-84.15 875.43,-89.32"/>
</a>
</g>
</g>
<!-- Node9 -->
<g id="Node000009" class="node">
<title>Node9</title>
<g id="a_Node000009"><a xlink:href="_v_i_c_u_s___project_generator_8cpp.html" target="_top" xlink:title=" ">
<polygon fill="white" stroke="#666666" points="1097.5,-46.5 905.5,-46.5 905.5,-5.5 1097.5,-5.5 1097.5,-46.5"/>
<text text-anchor="start" x="913.5" y="-34.5" font-family="Helvetica,sans-Serif" font-size="10.00">/home/hirth/git/SIM</text>
<text text-anchor="start" x="913.5" y="-23.5" font-family="Helvetica,sans-Serif" font-size="10.00">&#45;VICUS.master2/externals</text>
<text text-anchor="middle" x="1001.5" y="-12.5" font-family="Helvetica,sans-Serif" font-size="10.00">/Vicus/src/VICUS_ProjectGenerator.cpp</text>
</a>
</g>
</g>
<!-- Node3&#45;&gt;Node9 -->
<g id="edge8_Node000003_Node000009" class="edge">
<title>Node3&#45;&gt;Node9</title>
<g id="a_edge8_Node000003_Node000009"><a xlink:title=" ">
<path fill="none" stroke="#63b8ff" d="M935.64,-86.62C949.84,-73.77 966.63,-58.57 979.7,-46.74"/>
<polygon fill="#63b8ff" stroke="#63b8ff" points="933.12,-84.18 928.06,-93.49 937.82,-89.37 933.12,-84.18"/>
</a>
</g>
</g>
<!-- Node10 -->
<g id="Node000010" class="node">
<title>Node10</title>
<g id="a_Node000010"><a xlink:href="_v_i_c_u_s___sub_network_8cpp.html" target="_top" xlink:title=" ">
<polygon fill="white" stroke="#666666" points="1643,-46.5 1470,-46.5 1470,-5.5 1643,-5.5 1643,-46.5"/>
<text text-anchor="start" x="1478" y="-34.5" font-family="Helvetica,sans-Serif" font-size="10.00">/home/hirth/git/SIM</text>
<text text-anchor="start" x="1478" y="-23.5" font-family="Helvetica,sans-Serif" font-size="10.00">&#45;VICUS.master2/externals</text>
<text text-anchor="middle" x="1556.5" y="-12.5" font-family="Helvetica,sans-Serif" font-size="10.00">/Vicus/src/VICUS_SubNetwork.cpp</text>
</a>
</g>
</g>
<!-- Node3&#45;&gt;Node10 -->
<g id="edge9_Node000003_Node000010" class="edge">
<title>Node3&#45;&gt;Node10</title>
<g id="a_edge9_Node000003_Node000010"><a xlink:title=" ">
<path fill="none" stroke="#63b8ff" d="M986.52,-99.74C1012.9,-95.63 1042.41,-91.32 1069.5,-88 1243.16,-66.73 1289.2,-82.37 1461.5,-52 1470.07,-50.49 1478.99,-48.59 1487.79,-46.51"/>
<polygon fill="#63b8ff" stroke="#63b8ff" points="985.91,-96.29 976.57,-101.3 987,-103.21 985.91,-96.29"/>
</a>
</g>
</g>
<!-- Node11 -->
<g id="Node000011" class="node">
<title>Node11</title>
<g id="a_Node000011"><a xlink:href="_v_i_c_u_s___supply_system_8cpp.html" target="_top" xlink:title=" ">
<polygon fill="white" stroke="#666666" points="1299,-46.5 1116,-46.5 1116,-5.5 1299,-5.5 1299,-46.5"/>
<text text-anchor="start" x="1124" y="-34.5" font-family="Helvetica,sans-Serif" font-size="10.00">/home/hirth/git/SIM</text>
<text text-anchor="start" x="1124" y="-23.5" font-family="Helvetica,sans-Serif" font-size="10.00">&#45;VICUS.master2/externals</text>
<text text-anchor="middle" x="1207.5" y="-12.5" font-family="Helvetica,sans-Serif" font-size="10.00">/Vicus/src/VICUS_SupplySystem.cpp</text>
</a>
</g>
</g>
<!-- Node3&#45;&gt;Node11 -->
<g id="edge10_Node000003_Node000011" class="edge">
<title>Node3&#45;&gt;Node11</title>
<g id="a_edge10_Node000003_Node000011"><a xlink:title=" ">
<path fill="none" stroke="#63b8ff" d="M984.51,-90.71C1032.42,-77.02 1093.21,-59.66 1139.21,-46.51"/>
<polygon fill="#63b8ff" stroke="#63b8ff" points="983.46,-87.37 974.8,-93.49 985.38,-94.1 983.46,-87.37"/>
</a>
</g>
</g>
<!-- Node12 -->
<g id="Node000012" class="node">
<title>Node12</title>
<g id="a_Node000012"><a xlink:href="ncg___v_i_c_u_s___project_8cpp.html" target="_top" xlink:title=" ">
<polygon fill="white" stroke="#666666" points="1452,-52 1317,-52 1317,0 1452,0 1452,-52"/>
<text text-anchor="start" x="1325" y="-40" font-family="Helvetica,sans-Serif" font-size="10.00">/home/hirth/git/SIM</text>
<text text-anchor="start" x="1325" y="-29" font-family="Helvetica,sans-Serif" font-size="10.00">&#45;VICUS.master2/externals</text>
<text text-anchor="start" x="1325" y="-18" font-family="Helvetica,sans-Serif" font-size="10.00">/Vicus/src/ncg/ncg_VICUS</text>
<text text-anchor="middle" x="1384.5" y="-7" font-family="Helvetica,sans-Serif" font-size="10.00">_Project.cpp</text>
</a>
</g>
</g>
<!-- Node3&#45;&gt;Node12 -->
<g id="edge11_Node000003_Node000012" class="edge">
<title>Node3&#45;&gt;Node12</title>
<g id="a_edge11_Node000003_Node000012"><a xlink:title=" ">
<path fill="none" stroke="#63b8ff" d="M986.65,-100.67C1013.03,-96.62 1042.52,-92.11 1069.5,-88 1175.26,-71.89 1203.39,-76.6 1307.5,-52 1310.51,-51.29 1313.57,-50.52 1316.65,-49.7"/>
<polygon fill="#63b8ff" stroke="#63b8ff" points="986.05,-97.22 976.7,-102.2 987.11,-104.14 986.05,-97.22"/>
</a>
</g>
</g>
<!-- Node15&#45;&gt;Node2 -->
<g id="edge15_Node000015_Node000002" class="edge">
<title>Node15&#45;&gt;Node2</title>
<g id="a_edge15_Node000015_Node000002"><a xlink:title=" ">
<path fill="none" stroke="#63b8ff" d="M1391.6,-266.73C1388.19,-265.8 1384.81,-264.89 1381.5,-264 1328.68,-249.81 1269.04,-234.33 1223.05,-222.52"/>
<polygon fill="#63b8ff" stroke="#63b8ff" points="1390.7,-270.11 1401.27,-269.37 1392.55,-263.36 1390.7,-270.11"/>
</a>
</g>
</g>
<!-- Node15&#45;&gt;Node10 -->
<g id="edge16_Node000015_Node000010" class="edge">
<title>Node15&#45;&gt;Node10</title>
<g id="a_edge16_Node000015_Node000010"><a xlink:title=" ">
<path fill="none" stroke="#63b8ff" d="M1474.81,-259.3C1477.84,-236.25 1483.15,-203.66 1491.5,-176 1506.02,-127.91 1531.77,-74.66 1546.12,-46.67"/>
<polygon fill="#63b8ff" stroke="#63b8ff" points="1471.3,-259.12 1473.54,-269.48 1478.25,-259.99 1471.3,-259.12"/>
</a>
</g>
</g>
<!-- Node16 -->
<g id="Node000016" class="node">
<title>Node16</title>
<g id="a_Node000016"><a xlink:href="ncg___v_i_c_u_s___sub_network_8cpp.html" target="_top" xlink:title=" ">
<polygon fill="white" stroke="#666666" points="1635,-228 1500,-228 1500,-176 1635,-176 1635,-228"/>
<text text-anchor="start" x="1508" y="-216" font-family="Helvetica,sans-Serif" font-size="10.00">/home/hirth/git/SIM</text>
<text text-anchor="start" x="1508" y="-205" font-family="Helvetica,sans-Serif" font-size="10.00">&#45;VICUS.master2/externals</text>
<text text-anchor="start" x="1508" y="-194" font-family="Helvetica,sans-Serif" font-size="10.00">/Vicus/src/ncg/ncg_VICUS</text>
<text text-anchor="middle" x="1567.5" y="-183" font-family="Helvetica,sans-Serif" font-size="10.00">_SubNetwork.cpp</text>
</a>
</g>
</g>
<!-- Node15&#45;&gt;Node16 -->
<g id="edge17_Node000015_Node000016" class="edge">
<title>Node15&#45;&gt;Node16</title>
<g id="a_edge17_Node000015_Node000016"><a xlink:title=" ">
<path fill="none" stroke="#63b8ff" d="M1500.97,-262.6C1513.14,-251.69 1527.2,-239.11 1539.24,-228.32"/>
<polygon fill="#63b8ff" stroke="#63b8ff" points="1498.4,-260.21 1493.28,-269.49 1503.07,-265.42 1498.4,-260.21"/>
</a>
</g>
</g>
</g>
</svg>
