<?xml version="1.0" encoding="UTF-8" standalone="no"?>
<!DOCTYPE svg PUBLIC "-//W3C//DTD SVG 1.1//EN"
 "http://www.w3.org/Graphics/SVG/1.1/DTD/svg11.dtd">
<!-- Generated by graphviz version 2.43.0 (0)
 -->
<!-- Title: /home/hirth/git/SIM&#45;VICUS.master2/externals/Vicus/src/VICUS_Project.h Pages: 1 -->
<svg width="1651pt" height="137pt"
 viewBox="0.00 0.00 1651.00 137.00" xmlns="http://www.w3.org/2000/svg" xmlns:xlink="http://www.w3.org/1999/xlink">
<g id="graph0" class="graph" transform="scale(1 1) rotate(0) translate(4 133)">
<title>/home/hirth/git/SIM&#45;VICUS.master2/externals/Vicus/src/VICUS_Project.h</title>
<!-- Node1 -->
<g id="Node000001" class="node">
<title>Node1</title>
<g id="a_Node000001"><a xlink:title=" ">
<polygon fill="#999999" stroke="#666666" points="882.5,-129 742.5,-129 742.5,-88 882.5,-88 882.5,-129"/>
<text text-anchor="start" x="750.5" y="-117" font-family="Helvetica,sans-Serif" font-size="10.00">/home/hirth/git/SIM</text>
<text text-anchor="start" x="750.5" y="-106" font-family="Helvetica,sans-Serif" font-size="10.00">&#45;VICUS.master2/externals</text>
<text text-anchor="middle" x="812.5" y="-95" font-family="Helvetica,sans-Serif" font-size="10.00">/Vicus/src/VICUS_Project.h</text>
</a>
</g>
</g>
<!-- Node2 -->
<g id="Node000002" class="node">
<title>Node2</title>
<g id="a_Node000002"><a xlink:href="_v_i_c_u_s___heat_load12831_export_8cpp.html" target="_top" xlink:title=" ">
<polygon fill="white" stroke="#666666" points="169,-52 0,-52 0,0 169,0 169,-52"/>
<text text-anchor="start" x="8" y="-40" font-family="Helvetica,sans-Serif" font-size="10.00">/home/hirth/git/SIM</text>
<text text-anchor="start" x="8" y="-29" font-family="Helvetica,sans-Serif" font-size="10.00">&#45;VICUS.master2/externals</text>
<text text-anchor="start" x="8" y="-18" font-family="Helvetica,sans-Serif" font-size="10.00">/Vicus/src/VICUS_HeatLoad12831</text>
<text text-anchor="middle" x="84.5" y="-7" font-family="Helvetica,sans-Serif" font-size="10.00">Export.cpp</text>
</a>
</g>
</g>
<!-- Node1&#45;&gt;Node2 -->
<g id="edge1_Node000001_Node000002" class="edge">
<title>Node1&#45;&gt;Node2</title>
<g id="a_edge1_Node000001_Node000002"><a xlink:title=" ">
<path fill="none" stroke="#63b8ff" d="M731.81,-104.89C610.79,-99.98 375.45,-86.54 178.5,-52 175.42,-51.46 172.3,-50.87 169.15,-50.23"/>
<polygon fill="#63b8ff" stroke="#63b8ff" points="731.96,-108.4 742.09,-105.3 732.24,-101.41 731.96,-108.4"/>
</a>
</g>
</g>
<!-- Node3 -->
<g id="Node000003" class="node">
<title>Node3</title>
<g id="a_Node000003"><a xlink:href="_v_i_c_u_s___interface_heat_conduction_8cpp.html" target="_top" xlink:title=" ">
<polygon fill="white" stroke="#666666" points="347.5,-52 187.5,-52 187.5,0 347.5,0 347.5,-52"/>
<text text-anchor="start" x="195.5" y="-40" font-family="Helvetica,sans-Serif" font-size="10.00">/home/hirth/git/SIM</text>
<text text-anchor="start" x="195.5" y="-29" font-family="Helvetica,sans-Serif" font-size="10.00">&#45;VICUS.master2/externals</text>
<text text-anchor="start" x="195.5" y="-18" font-family="Helvetica,sans-Serif" font-size="10.00">/Vicus/src/VICUS_InterfaceHeat</text>
<text text-anchor="middle" x="267.5" y="-7" font-family="Helvetica,sans-Serif" font-size="10.00">Conduction.cpp</text>
</a>
</g>
</g>
<!-- Node1&#45;&gt;Node3 -->
<g id="edge2_Node000001_Node000003" class="edge">
<title>Node1&#45;&gt;Node3</title>
<g id="a_edge2_Node000001_Node000003"><a xlink:title=" ">
<path fill="none" stroke="#63b8ff" d="M732.42,-101.48C640.89,-93.74 486.9,-78.09 356.5,-52 353.67,-51.43 350.79,-50.82 347.9,-50.18"/>
<polygon fill="#63b8ff" stroke="#63b8ff" points="732.19,-104.97 742.44,-102.32 732.77,-98 732.19,-104.97"/>
</a>
</g>
</g>
<!-- Node4 -->
<g id="Node000004" class="node">
<title>Node4</title>
<g id="a_Node000004"><a xlink:href="_v_i_c_u_s___network_8cpp.html" target="_top" xlink:title=" ">
<polygon fill="white" stroke="#666666" points="521.5,-46.5 365.5,-46.5 365.5,-5.5 521.5,-5.5 521.5,-46.5"/>
<text text-anchor="start" x="373.5" y="-34.5" font-family="Helvetica,sans-Serif" font-size="10.00">/home/hirth/git/SIM</text>
<text text-anchor="start" x="373.5" y="-23.5" font-family="Helvetica,sans-Serif" font-size="10.00">&#45;VICUS.master2/externals</text>
<text text-anchor="middle" x="443.5" y="-12.5" font-family="Helvetica,sans-Serif" font-size="10.00">/Vicus/src/VICUS_Network.cpp</text>
</a>
</g>
</g>
<!-- Node1&#45;&gt;Node4 -->
<g id="edge3_Node000001_Node000004" class="edge">
<title>Node1&#45;&gt;Node4</title>
<g id="a_edge3_Node000001_Node000004"><a xlink:title=" ">
<path fill="none" stroke="#63b8ff" d="M732.34,-93.61C675.69,-83.33 598.1,-68.33 530.5,-52 523.63,-50.34 516.48,-48.49 509.37,-46.57"/>
<polygon fill="#63b8ff" stroke="#63b8ff" points="731.85,-97.08 742.31,-95.41 733.1,-90.19 731.85,-97.08"/>
</a>
</g>
</g>
<!-- Node5 -->
<g id="Node000005" class="node">
<title>Node5</title>
<g id="a_Node000005"><a xlink:href="_v_i_c_u_s___network_edge_8cpp.html" target="_top" xlink:title=" ">
<polygon fill="white" stroke="#666666" points="719,-46.5 540,-46.5 540,-5.5 719,-5.5 719,-46.5"/>
<text text-anchor="start" x="548" y="-34.5" font-family="Helvetica,sans-Serif" font-size="10.00">/home/hirth/git/SIM</text>
<text text-anchor="start" x="548" y="-23.5" font-family="Helvetica,sans-Serif" font-size="10.00">&#45;VICUS.master2/externals</text>
<text text-anchor="middle" x="629.5" y="-12.5" font-family="Helvetica,sans-Serif" font-size="10.00">/Vicus/src/VICUS_NetworkEdge.cpp</text>
</a>
</g>
</g>
<!-- Node1&#45;&gt;Node5 -->
<g id="edge4_Node000001_Node000005" class="edge">
<title>Node1&#45;&gt;Node5</title>
<g id="a_edge4_Node000001_Node000005"><a xlink:title=" ">
<path fill="none" stroke="#63b8ff" d="M758.47,-83.73C731.62,-71.92 699.56,-57.82 674.12,-46.63"/>
<polygon fill="#63b8ff" stroke="#63b8ff" points="757.17,-86.98 767.73,-87.81 759.99,-80.58 757.17,-86.98"/>
</a>
</g>
</g>
<!-- Node6 -->
<g id="Node000006" class="node">
<title>Node6</title>
<g id="a_Node000006"><a xlink:href="_v_i_c_u_s___project_8cpp.html" target="_top" xlink:title=" ">
<polygon fill="white" stroke="#666666" points="887.5,-46.5 737.5,-46.5 737.5,-5.5 887.5,-5.5 887.5,-46.5"/>
<text text-anchor="start" x="745.5" y="-34.5" font-family="Helvetica,sans-Serif" font-size="10.00">/home/hirth/git/SIM</text>
<text text-anchor="start" x="745.5" y="-23.5" font-family="Helvetica,sans-Serif" font-size="10.00">&#45;VICUS.master2/externals</text>
<text text-anchor="middle" x="812.5" y="-12.5" font-family="Helvetica,sans-Serif" font-size="10.00">/Vicus/src/VICUS_Project.cpp</text>
</a>
</g>
</g>
<!-- Node1&#45;&gt;Node6 -->
<g id="edge5_Node000001_Node000006" class="edge">
<title>Node1&#45;&gt;Node6</title>
<g id="a_edge5_Node000001_Node000006"><a xlink:title=" ">
<path fill="none" stroke="#63b8ff" d="M812.5,-77.37C812.5,-67.1 812.5,-55.9 812.5,-46.67"/>
<polygon fill="#63b8ff" stroke="#63b8ff" points="809,-77.6 812.5,-87.6 816,-77.6 809,-77.6"/>
</a>
</g>
</g>
<!-- Node7 -->
<g id="Node000007" class="node">
<title>Node7</title>
<g id="a_Node000007"><a xlink:href="_v_i_c_u_s___project_generator_8cpp.html" target="_top" xlink:title=" ">
<polygon fill="white" stroke="#666666" points="1097.5,-46.5 905.5,-46.5 905.5,-5.5 1097.5,-5.5 1097.5,-46.5"/>
<text text-anchor="start" x="913.5" y="-34.5" font-family="Helvetica,sans-Serif" font-size="10.00">/home/hirth/git/SIM</text>
<text text-anchor="start" x="913.5" y="-23.5" font-family="Helvetica,sans-Serif" font-size="10.00">&#45;VICUS.master2/externals</text>
<text text-anchor="middle" x="1001.5" y="-12.5" font-family="Helvetica,sans-Serif" font-size="10.00">/Vicus/src/VICUS_ProjectGenerator.cpp</text>
</a>
</g>
</g>
<!-- Node1&#45;&gt;Node7 -->
<g id="edge6_Node000001_Node000007" class="edge">
<title>Node1&#45;&gt;Node7</title>
<g id="a_edge6_Node000001_Node000007"><a xlink:title=" ">
<path fill="none" stroke="#63b8ff" d="M867.94,-83.89C895.75,-72.04 929.03,-57.87 955.42,-46.63"/>
<polygon fill="#63b8ff" stroke="#63b8ff" points="866.56,-80.67 858.73,-87.81 869.31,-87.11 866.56,-80.67"/>
</a>
</g>
</g>
<!-- Node8 -->
<g id="Node000008" class="node">
<title>Node8</title>
<g id="a_Node000008"><a xlink:href="_v_i_c_u_s___sub_network_8cpp.html" target="_top" xlink:title=" ">
<polygon fill="white" stroke="#666666" points="1289,-46.5 1116,-46.5 1116,-5.5 1289,-5.5 1289,-46.5"/>
<text text-anchor="start" x="1124" y="-34.5" font-family="Helvetica,sans-Serif" font-size="10.00">/home/hirth/git/SIM</text>
<text text-anchor="start" x="1124" y="-23.5" font-family="Helvetica,sans-Serif" font-size="10.00">&#45;VICUS.master2/externals</text>
<text text-anchor="middle" x="1202.5" y="-12.5" font-family="Helvetica,sans-Serif" font-size="10.00">/Vicus/src/VICUS_SubNetwork.cpp</text>
</a>
</g>
</g>
<!-- Node1&#45;&gt;Node8 -->
<g id="edge7_Node000001_Node000008" class="edge">
<title>Node1&#45;&gt;Node8</title>
<g id="a_edge7_Node000001_Node000008"><a xlink:title=" ">
<path fill="none" stroke="#63b8ff" d="M892.62,-93.9C951.91,-83.46 1034.51,-68.15 1106.5,-52 1113.98,-50.32 1121.76,-48.47 1129.51,-46.56"/>
<polygon fill="#63b8ff" stroke="#63b8ff" points="891.82,-90.48 882.57,-95.66 893.03,-97.38 891.82,-90.48"/>
</a>
</g>
</g>
<!-- Node9 -->
<g id="Node000009" class="node">
<title>Node9</title>
<g id="a_Node000009"><a xlink:href="_v_i_c_u_s___supply_system_8cpp.html" target="_top" xlink:title=" ">
<polygon fill="white" stroke="#666666" points="1490,-46.5 1307,-46.5 1307,-5.5 1490,-5.5 1490,-46.5"/>
<text text-anchor="start" x="1315" y="-34.5" font-family="Helvetica,sans-Serif" font-size="10.00">/home/hirth/git/SIM</text>
<text text-anchor="start" x="1315" y="-23.5" font-family="Helvetica,sans-Serif" font-size="10.00">&#45;VICUS.master2/externals</text>
<text text-anchor="middle" x="1398.5" y="-12.5" font-family="Helvetica,sans-Serif" font-size="10.00">/Vicus/src/VICUS_SupplySystem.cpp</text>
</a>
</g>
</g>
<!-- Node1&#45;&gt;Node9 -->
<g id="edge8_Node000001_Node000009" class="edge">
<title>Node1&#45;&gt;Node9</title>
<g id="a_edge8_Node000001_Node000009"><a xlink:title=" ">
<path fill="none" stroke="#63b8ff" d="M892.54,-101.6C989.25,-93.73 1156.66,-77.71 1298.5,-52 1307.13,-50.44 1316.12,-48.55 1325.01,-46.53"/>
<polygon fill="#63b8ff" stroke="#63b8ff" points="892.22,-98.11 882.54,-102.41 892.79,-105.09 892.22,-98.11"/>
</a>
</g>
</g>
<!-- Node10 -->
<g id="Node000010" class="node">
<title>Node10</title>
<g id="a_Node000010"><a xlink:href="ncg___v_i_c_u_s___project_8cpp.html" target="_top" xlink:title=" ">
<polygon fill="white" stroke="#666666" points="1643,-52 1508,-52 1508,0 1643,0 1643,-52"/>
<text text-anchor="start" x="1516" y="-40" font-family="Helvetica,sans-Serif" font-size="10.00">/home/hirth/git/SIM</text>
<text text-anchor="start" x="1516" y="-29" font-family="Helvetica,sans-Serif" font-size="10.00">&#45;VICUS.master2/externals</text>
<text text-anchor="start" x="1516" y="-18" font-family="Helvetica,sans-Serif" font-size="10.00">/Vicus/src/ncg/ncg_VICUS</text>
<text text-anchor="middle" x="1575.5" y="-7" font-family="Helvetica,sans-Serif" font-size="10.00">_Project.cpp</text>
</a>
</g>
</g>
<!-- Node1&#45;&gt;Node10 -->
<g id="edge9_Node000001_Node000010" class="edge">
<title>Node1&#45;&gt;Node10</title>
<g id="a_edge9_Node000001_Node000010"><a xlink:title=" ">
<path fill="none" stroke="#63b8ff" d="M893.2,-107.15C1022.46,-105.21 1283.38,-95.63 1499.5,-52 1502.22,-51.45 1504.98,-50.83 1507.76,-50.16"/>
<polygon fill="#63b8ff" stroke="#63b8ff" points="892.94,-103.65 882.99,-107.29 893.04,-110.65 892.94,-103.65"/>
</a>
</g>
</g>
</g>
</svg>
