<?xml version="1.0" encoding="UTF-8" standalone="no"?>
<!DOCTYPE svg PUBLIC "-//W3C//DTD SVG 1.1//EN"
 "http://www.w3.org/Graphics/SVG/1.1/DTD/svg11.dtd">
<!-- Generated by graphviz version 2.43.0 (0)
 -->
<!-- Title: /home/hirth/git/SIM&#45;VICUS.master2/externals/Vicus/src/VICUS_Polygon2D.cpp Pages: 1 -->
<svg width="1116pt" height="159pt"
 viewBox="0.00 0.00 1116.00 159.00" xmlns="http://www.w3.org/2000/svg" xmlns:xlink="http://www.w3.org/1999/xlink">
<g id="graph0" class="graph" transform="scale(1 1) rotate(0) translate(4 155)">
<title>/home/hirth/git/SIM&#45;VICUS.master2/externals/Vicus/src/VICUS_Polygon2D.cpp</title>
<!-- Node1 -->
<g id="Node000001" class="node">
<title>Node1</title>
<g id="a_Node000001"><a xlink:title=" ">
<polygon fill="#999999" stroke="#666666" points="562.5,-151 395.5,-151 395.5,-110 562.5,-110 562.5,-151"/>
<text text-anchor="start" x="403.5" y="-139" font-family="Helvetica,sans-Serif" font-size="10.00">/home/hirth/git/SIM</text>
<text text-anchor="start" x="403.5" y="-128" font-family="Helvetica,sans-Serif" font-size="10.00">&#45;VICUS.master2/externals</text>
<text text-anchor="middle" x="479" y="-117" font-family="Helvetica,sans-Serif" font-size="10.00">/Vicus/src/VICUS_Polygon2D.cpp</text>
</a>
</g>
</g>
<!-- Node2 -->
<g id="Node000002" class="node">
<title>Node2</title>
<g id="a_Node000002"><a xlink:href="_v_i_c_u_s___polygon2_d_8h.html" target="_top" xlink:title=" ">
<polygon fill="white" stroke="#666666" points="180,-74 70,-74 70,-55 180,-55 180,-74"/>
<text text-anchor="middle" x="125" y="-62" font-family="Helvetica,sans-Serif" font-size="10.00">VICUS_Polygon2D.h</text>
</a>
</g>
</g>
<!-- Node1&#45;&gt;Node2 -->
<g id="edge1_Node000001_Node000002" class="edge">
<title>Node1&#45;&gt;Node2</title>
<g id="a_edge1_Node000001_Node000002"><a xlink:title=" ">
<path fill="none" stroke="#63b8ff" d="M395.11,-114.33C329.53,-102.48 240.11,-86.31 182.46,-75.89"/>
<polygon fill="#63b8ff" stroke="#63b8ff" points="182.9,-72.41 172.43,-74.08 181.65,-79.3 182.9,-72.41"/>
</a>
</g>
</g>
<!-- Node5 -->
<g id="Node000005" class="node">
<title>Node5</title>
<g id="a_Node000005"><a xlink:title=" ">
<polygon fill="#e0e0e0" stroke="#999999" points="228,-74 198,-74 198,-55 228,-55 228,-74"/>
<text text-anchor="middle" x="213" y="-62" font-family="Helvetica,sans-Serif" font-size="10.00">set</text>
</a>
</g>
</g>
<!-- Node1&#45;&gt;Node5 -->
<g id="edge4_Node000001_Node000005" class="edge">
<title>Node1&#45;&gt;Node5</title>
<g id="a_edge4_Node000001_Node000005"><a xlink:title=" ">
<path fill="none" stroke="#63b8ff" d="M395.23,-112.77C350.83,-103.31 295.27,-90.56 237.77,-73.97"/>
<polygon fill="#63b8ff" stroke="#63b8ff" points="238.73,-70.6 228.15,-71.16 236.77,-77.32 238.73,-70.6"/>
</a>
</g>
</g>
<!-- Node6 -->
<g id="Node000006" class="node">
<title>Node6</title>
<g id="a_Node000006"><a xlink:title=" ">
<polygon fill="#e0e0e0" stroke="#999999" points="294,-74 246,-74 246,-55 294,-55 294,-74"/>
<text text-anchor="middle" x="270" y="-62" font-family="Helvetica,sans-Serif" font-size="10.00">QLineF</text>
</a>
</g>
</g>
<!-- Node1&#45;&gt;Node6 -->
<g id="edge5_Node000001_Node000006" class="edge">
<title>Node1&#45;&gt;Node6</title>
<g id="a_edge5_Node000001_Node000006"><a xlink:title=" ">
<path fill="none" stroke="#63b8ff" d="M415.16,-109.95C378.38,-98.69 333.64,-84.99 303.64,-75.8"/>
<polygon fill="#63b8ff" stroke="#63b8ff" points="304.65,-72.45 294.06,-72.87 302.6,-79.14 304.65,-72.45"/>
</a>
</g>
</g>
<!-- Node7 -->
<g id="Node000007" class="node">
<title>Node7</title>
<g id="a_Node000007"><a xlink:title=" ">
<polygon fill="#e0e0e0" stroke="#999999" points="377.5,-74 312.5,-74 312.5,-55 377.5,-55 377.5,-74"/>
<text text-anchor="middle" x="345" y="-62" font-family="Helvetica,sans-Serif" font-size="10.00">IBK_Line.h</text>
</a>
</g>
</g>
<!-- Node1&#45;&gt;Node7 -->
<g id="edge6_Node000001_Node000007" class="edge">
<title>Node1&#45;&gt;Node7</title>
<g id="a_edge6_Node000001_Node000007"><a xlink:title=" ">
<path fill="none" stroke="#63b8ff" d="M438.07,-109.95C416.7,-99.75 391.14,-87.54 372.22,-78.5"/>
<polygon fill="#63b8ff" stroke="#63b8ff" points="373.52,-75.24 362.99,-74.09 370.5,-81.56 373.52,-75.24"/>
</a>
</g>
</g>
<!-- Node8 -->
<g id="Node000008" class="node">
<title>Node8</title>
<g id="a_Node000008"><a xlink:title=" ">
<polygon fill="#e0e0e0" stroke="#999999" points="464,-74 396,-74 396,-55 464,-55 464,-74"/>
<text text-anchor="middle" x="430" y="-62" font-family="Helvetica,sans-Serif" font-size="10.00">IBK_math.h</text>
</a>
</g>
</g>
<!-- Node1&#45;&gt;Node8 -->
<g id="edge7_Node000001_Node000008" class="edge">
<title>Node1&#45;&gt;Node8</title>
<g id="a_edge7_Node000001_Node000008"><a xlink:title=" ">
<path fill="none" stroke="#63b8ff" d="M464.03,-109.95C457.26,-101.11 449.35,-90.77 442.85,-82.29"/>
<polygon fill="#63b8ff" stroke="#63b8ff" points="445.57,-80.07 436.71,-74.26 440.01,-84.33 445.57,-80.07"/>
</a>
</g>
</g>
<!-- Node9 -->
<g id="Node000009" class="node">
<title>Node9</title>
<g id="a_Node000009"><a xlink:title=" ">
<polygon fill="#e0e0e0" stroke="#999999" points="574,-74 482,-74 482,-55 574,-55 574,-74"/>
<text text-anchor="middle" x="528" y="-62" font-family="Helvetica,sans-Serif" font-size="10.00">IBK_messages.h</text>
</a>
</g>
</g>
<!-- Node1&#45;&gt;Node9 -->
<g id="edge8_Node000001_Node000009" class="edge">
<title>Node1&#45;&gt;Node9</title>
<g id="a_edge8_Node000001_Node000009"><a xlink:title=" ">
<path fill="none" stroke="#63b8ff" d="M493.97,-109.95C500.74,-101.11 508.65,-90.77 515.15,-82.29"/>
<polygon fill="#63b8ff" stroke="#63b8ff" points="517.99,-84.33 521.29,-74.26 512.43,-80.07 517.99,-84.33"/>
</a>
</g>
</g>
<!-- Node10 -->
<g id="Node000010" class="node">
<title>Node10</title>
<g id="a_Node000010"><a xlink:title=" ">
<polygon fill="#e0e0e0" stroke="#999999" points="720,-74 592,-74 592,-55 720,-55 720,-74"/>
<text text-anchor="middle" x="656" y="-62" font-family="Helvetica,sans-Serif" font-size="10.00">IBKMK_2DCalculations.h</text>
</a>
</g>
</g>
<!-- Node1&#45;&gt;Node10 -->
<g id="edge9_Node000001_Node000010" class="edge">
<title>Node1&#45;&gt;Node10</title>
<g id="a_edge9_Node000001_Node000010"><a xlink:title=" ">
<path fill="none" stroke="#63b8ff" d="M533.07,-109.95C562.33,-99.37 597.53,-86.64 622.76,-77.52"/>
<polygon fill="#63b8ff" stroke="#63b8ff" points="624.02,-80.78 632.24,-74.09 621.64,-74.2 624.02,-80.78"/>
</a>
</g>
</g>
<!-- Node11 -->
<g id="Node000011" class="node">
<title>Node11</title>
<g id="a_Node000011"><a xlink:href="_v_i_c_u_s___constants_8h.html" target="_top" xlink:title="Contains global constants for the SIM&#45;VICUS data model.">
<polygon fill="white" stroke="#666666" points="845.5,-74 738.5,-74 738.5,-55 845.5,-55 845.5,-74"/>
<text text-anchor="middle" x="792" y="-62" font-family="Helvetica,sans-Serif" font-size="10.00">VICUS_Constants.h</text>
</a>
</g>
</g>
<!-- Node1&#45;&gt;Node11 -->
<g id="edge10_Node000001_Node000011" class="edge">
<title>Node1&#45;&gt;Node11</title>
<g id="a_edge10_Node000001_Node000011"><a xlink:title=" ">
<path fill="none" stroke="#63b8ff" d="M562.88,-112.35C619.34,-100.8 692.02,-85.94 740.21,-76.09"/>
<polygon fill="#63b8ff" stroke="#63b8ff" points="741.01,-79.5 750.11,-74.07 739.61,-72.64 741.01,-79.5"/>
</a>
</g>
</g>
<!-- Node12 -->
<g id="Node000012" class="node">
<title>Node12</title>
<g id="a_Node000012"><a xlink:href="_v_i_c_u_s___keyword_list_8h.html" target="_top" xlink:title="Contains the declaration of class KeywordList.">
<polygon fill="white" stroke="#666666" points="980,-74 864,-74 864,-55 980,-55 980,-74"/>
<text text-anchor="middle" x="922" y="-62" font-family="Helvetica,sans-Serif" font-size="10.00">VICUS_KeywordList.h</text>
</a>
</g>
</g>
<!-- Node1&#45;&gt;Node12 -->
<g id="edge11_Node000001_Node000012" class="edge">
<title>Node1&#45;&gt;Node12</title>
<g id="a_edge11_Node000001_Node000012"><a xlink:title=" ">
<path fill="none" stroke="#63b8ff" d="M562.59,-117.42C646.81,-105.26 775.23,-86.7 853.6,-75.38"/>
<polygon fill="#63b8ff" stroke="#63b8ff" points="854.44,-78.8 863.84,-73.9 853.44,-71.87 854.44,-78.8"/>
</a>
</g>
</g>
<!-- Node17 -->
<g id="Node000017" class="node">
<title>Node17</title>
<g id="a_Node000017"><a xlink:title=" ">
<polygon fill="#e0e0e0" stroke="#999999" points="1054,-74 998,-74 998,-55 1054,-55 1054,-74"/>
<text text-anchor="middle" x="1026" y="-62" font-family="Helvetica,sans-Serif" font-size="10.00">tinyxml.h</text>
</a>
</g>
</g>
<!-- Node1&#45;&gt;Node17 -->
<g id="edge16_Node000001_Node000017" class="edge">
<title>Node1&#45;&gt;Node17</title>
<g id="a_edge16_Node000001_Node000017"><a xlink:title=" ">
<path fill="none" stroke="#63b8ff" d="M562.9,-123.41C662.13,-115.52 832.41,-99.84 987.59,-74.05"/>
<polygon fill="#63b8ff" stroke="#63b8ff" points="988.5,-77.45 997.79,-72.34 987.34,-70.55 988.5,-77.45"/>
</a>
</g>
</g>
<!-- Node3 -->
<g id="Node000003" class="node">
<title>Node3</title>
<g id="a_Node000003"><a xlink:title=" ">
<polygon fill="#e0e0e0" stroke="#999999" points="110,-19 0,-19 0,0 110,0 110,-19"/>
<text text-anchor="middle" x="55" y="-7" font-family="Helvetica,sans-Serif" font-size="10.00">IBKMK_Polygon2D.h</text>
</a>
</g>
</g>
<!-- Node2&#45;&gt;Node3 -->
<g id="edge2_Node000002_Node000003" class="edge">
<title>Node2&#45;&gt;Node3</title>
<g id="a_edge2_Node000002_Node000003"><a xlink:title=" ">
<path fill="none" stroke="#63b8ff" d="M113.75,-54.98C103.2,-47 87.2,-34.88 74.56,-25.31"/>
<polygon fill="#63b8ff" stroke="#63b8ff" points="76.54,-22.42 66.45,-19.17 72.31,-28 76.54,-22.42"/>
</a>
</g>
</g>
<!-- Node4 -->
<g id="Node000004" class="node">
<title>Node4</title>
<g id="a_Node000004"><a xlink:href="_v_i_c_u_s___code_gen_macros_8h.html" target="_top" xlink:title=" ">
<polygon fill="white" stroke="#666666" points="263.5,-19 128.5,-19 128.5,0 263.5,0 263.5,-19"/>
<text text-anchor="middle" x="196" y="-7" font-family="Helvetica,sans-Serif" font-size="10.00">VICUS_CodeGenMacros.h</text>
</a>
</g>
</g>
<!-- Node2&#45;&gt;Node4 -->
<g id="edge3_Node000002_Node000004" class="edge">
<title>Node2&#45;&gt;Node4</title>
<g id="a_edge3_Node000002_Node000004"><a xlink:title=" ">
<path fill="none" stroke="#63b8ff" d="M136.41,-54.98C147.11,-47 163.34,-34.88 176.16,-25.31"/>
<polygon fill="#63b8ff" stroke="#63b8ff" points="178.47,-27.96 184.39,-19.17 174.28,-22.35 178.47,-27.96"/>
</a>
</g>
</g>
<!-- Node13 -->
<g id="Node000013" class="node">
<title>Node13</title>
<g id="a_Node000013"><a xlink:title=" ">
<polygon fill="#e0e0e0" stroke="#999999" points="833.5,-19 792.5,-19 792.5,0 833.5,0 833.5,-19"/>
<text text-anchor="middle" x="813" y="-7" font-family="Helvetica,sans-Serif" font-size="10.00">string</text>
</a>
</g>
</g>
<!-- Node12&#45;&gt;Node13 -->
<g id="edge12_Node000012_Node000013" class="edge">
<title>Node12&#45;&gt;Node13</title>
<g id="a_edge12_Node000012_Node000013"><a xlink:title=" ">
<path fill="none" stroke="#63b8ff" d="M904.49,-54.98C887.03,-46.5 859.99,-33.35 839.83,-23.54"/>
<polygon fill="#63b8ff" stroke="#63b8ff" points="841.36,-20.4 830.83,-19.17 838.29,-26.69 841.36,-20.4"/>
</a>
</g>
</g>
<!-- Node14 -->
<g id="Node000014" class="node">
<title>Node14</title>
<g id="a_Node000014"><a xlink:title=" ">
<polygon fill="#e0e0e0" stroke="#999999" points="902.5,-19 851.5,-19 851.5,0 902.5,0 902.5,-19"/>
<text text-anchor="middle" x="877" y="-7" font-family="Helvetica,sans-Serif" font-size="10.00">typeinfo</text>
</a>
</g>
</g>
<!-- Node12&#45;&gt;Node14 -->
<g id="edge13_Node000012_Node000014" class="edge">
<title>Node12&#45;&gt;Node14</title>
<g id="a_edge13_Node000012_Node000014"><a xlink:title=" ">
<path fill="none" stroke="#63b8ff" d="M914.57,-54.75C908.15,-47.18 898.69,-36.05 890.88,-26.84"/>
<polygon fill="#63b8ff" stroke="#63b8ff" points="893.43,-24.45 884.29,-19.09 888.1,-28.98 893.43,-24.45"/>
</a>
</g>
</g>
<!-- Node15 -->
<g id="Node000015" class="node">
<title>Node15</title>
<g id="a_Node000015"><a xlink:title=" ">
<polygon fill="#e0e0e0" stroke="#999999" points="1011.5,-19 920.5,-19 920.5,0 1011.5,0 1011.5,-19"/>
<text text-anchor="middle" x="966" y="-7" font-family="Helvetica,sans-Serif" font-size="10.00">IBK_Parameter.h</text>
</a>
</g>
</g>
<!-- Node12&#45;&gt;Node15 -->
<g id="edge14_Node000012_Node000015" class="edge">
<title>Node12&#45;&gt;Node15</title>
<g id="a_edge14_Node000012_Node000015"><a xlink:title=" ">
<path fill="none" stroke="#63b8ff" d="M929.27,-54.75C935.54,-47.18 944.79,-36.05 952.43,-26.84"/>
<polygon fill="#63b8ff" stroke="#63b8ff" points="955.17,-29.02 958.87,-19.09 949.79,-24.55 955.17,-29.02"/>
</a>
</g>
</g>
<!-- Node16 -->
<g id="Node000016" class="node">
<title>Node16</title>
<g id="a_Node000016"><a xlink:title=" ">
<polygon fill="#e0e0e0" stroke="#999999" points="1108,-19 1030,-19 1030,0 1108,0 1108,-19"/>
<text text-anchor="middle" x="1069" y="-7" font-family="Helvetica,sans-Serif" font-size="10.00">IBK_IntPara.h</text>
</a>
</g>
</g>
<!-- Node12&#45;&gt;Node16 -->
<g id="edge15_Node000012_Node000016" class="edge">
<title>Node12&#45;&gt;Node16</title>
<g id="a_edge15_Node000012_Node000016"><a xlink:title=" ">
<path fill="none" stroke="#63b8ff" d="M945.62,-54.98C969.9,-46.23 1007.95,-32.51 1035.37,-22.62"/>
<polygon fill="#63b8ff" stroke="#63b8ff" points="1036.73,-25.85 1044.95,-19.17 1034.36,-19.27 1036.73,-25.85"/>
</a>
</g>
</g>
</g>
</svg>
