<?xml version="1.0" encoding="UTF-8" standalone="no"?>
<!DOCTYPE svg PUBLIC "-//W3C//DTD SVG 1.1//EN"
 "http://www.w3.org/Graphics/SVG/1.1/DTD/svg11.dtd">
<!-- Generated by graphviz version 2.43.0 (0)
 -->
<!-- Title: /home/hirth/git/SIM&#45;VICUS.master2/externals/Vicus/src/VICUS_PolyLine.h Pages: 1 -->
<svg width="2168pt" height="456pt"
 viewBox="0.00 0.00 2167.50 456.00" xmlns="http://www.w3.org/2000/svg" xmlns:xlink="http://www.w3.org/1999/xlink">
<g id="graph0" class="graph" transform="scale(1 1) rotate(0) translate(4 452)">
<title>/home/hirth/git/SIM&#45;VICUS.master2/externals/Vicus/src/VICUS_PolyLine.h</title>
<!-- Node1 -->
<g id="Node000001" class="node">
<title>Node1</title>
<g id="a_Node000001"><a xlink:title=" ">
<polygon fill="#999999" stroke="#666666" points="167.5,-448 21.5,-448 21.5,-407 167.5,-407 167.5,-448"/>
<text text-anchor="start" x="29.5" y="-436" font-family="Helvetica,sans-Serif" font-size="10.00">/home/hirth/git/SIM</text>
<text text-anchor="start" x="29.5" y="-425" font-family="Helvetica,sans-Serif" font-size="10.00">&#45;VICUS.master2/externals</text>
<text text-anchor="middle" x="94.5" y="-414" font-family="Helvetica,sans-Serif" font-size="10.00">/Vicus/src/VICUS_PolyLine.h</text>
</a>
</g>
</g>
<!-- Node2 -->
<g id="Node000002" class="node">
<title>Node2</title>
<g id="a_Node000002"><a xlink:href="_v_i_c_u_s___network_line_8h.html" target="_top" xlink:title=" ">
<polygon fill="white" stroke="#666666" points="195.5,-371 79.5,-371 79.5,-352 195.5,-352 195.5,-371"/>
<text text-anchor="middle" x="137.5" y="-359" font-family="Helvetica,sans-Serif" font-size="10.00">VICUS_NetworkLine.h</text>
</a>
</g>
</g>
<!-- Node1&#45;&gt;Node2 -->
<g id="edge1_Node000001_Node000002" class="edge">
<title>Node1&#45;&gt;Node2</title>
<g id="a_edge1_Node000001_Node000002"><a xlink:title=" ">
<path fill="none" stroke="#63b8ff" d="M107.64,-406.95C113.45,-398.3 120.23,-388.2 125.86,-379.82"/>
<polygon fill="#63b8ff" stroke="#63b8ff" points="128.94,-381.51 131.61,-371.26 123.13,-377.61 128.94,-381.51"/>
</a>
</g>
</g>
<!-- Node13 -->
<g id="Node000013" class="node">
<title>Node13</title>
<g id="a_Node000013"><a xlink:title=" ">
<polygon fill="#e0e0e0" stroke="#999999" points="103,-79.5 0,-79.5 0,-60.5 103,-60.5 103,-79.5"/>
<text text-anchor="middle" x="51.5" y="-67.5" font-family="Helvetica,sans-Serif" font-size="10.00">IBKMK_Vector3D.h</text>
</a>
</g>
</g>
<!-- Node1&#45;&gt;Node13 -->
<g id="edge65_Node000001_Node000013" class="edge">
<title>Node1&#45;&gt;Node13</title>
<g id="a_edge65_Node000001_Node000013"><a xlink:title=" ">
<path fill="none" stroke="#63b8ff" d="M82.52,-406.65C69.8,-383.65 51.5,-344.19 51.5,-307.5 51.5,-307.5 51.5,-307.5 51.5,-190 51.5,-154.65 51.5,-113.4 51.5,-89.92"/>
<polygon fill="#63b8ff" stroke="#63b8ff" points="55,-89.66 51.5,-79.66 48,-89.66 55,-89.66"/>
</a>
</g>
</g>
<!-- Node3 -->
<g id="Node000003" class="node">
<title>Node3</title>
<g id="a_Node000003"><a xlink:href="_v_i_c_u_s___network_edge_8h.html" target="_top" xlink:title=" ">
<polygon fill="white" stroke="#666666" points="759,-316 638,-316 638,-297 759,-297 759,-316"/>
<text text-anchor="middle" x="698.5" y="-304" font-family="Helvetica,sans-Serif" font-size="10.00">VICUS_NetworkEdge.h</text>
</a>
</g>
</g>
<!-- Node2&#45;&gt;Node3 -->
<g id="edge2_Node000002_Node000003" class="edge">
<title>Node2&#45;&gt;Node3</title>
<g id="a_edge2_Node000002_Node000003"><a xlink:title=" ">
<path fill="none" stroke="#63b8ff" d="M195.69,-355C299.38,-345.21 515.74,-324.77 627.81,-314.18"/>
<polygon fill="#63b8ff" stroke="#63b8ff" points="628.37,-317.64 638,-313.22 627.71,-310.67 628.37,-317.64"/>
</a>
</g>
</g>
<!-- Node2&#45;&gt;Node13 -->
<g id="edge64_Node000002_Node000013" class="edge">
<title>Node2&#45;&gt;Node13</title>
<g id="a_edge64_Node000002_Node000013"><a xlink:title=" ">
<path fill="none" stroke="#63b8ff" d="M134.26,-351.96C127.71,-333.9 113.5,-290.34 113.5,-252.5 113.5,-252.5 113.5,-252.5 113.5,-190 113.5,-149.49 84.89,-109.1 66.54,-87.36"/>
<polygon fill="#63b8ff" stroke="#63b8ff" points="69.08,-84.96 59.86,-79.74 63.81,-89.57 69.08,-84.96"/>
</a>
</g>
</g>
<!-- Node4 -->
<g id="Node000004" class="node">
<title>Node4</title>
<g id="a_Node000004"><a xlink:href="_v_i_c_u_s___network_node_8h.html" target="_top" xlink:title=" ">
<polygon fill="white" stroke="#666666" points="488.5,-140 366.5,-140 366.5,-121 488.5,-121 488.5,-140"/>
<text text-anchor="middle" x="427.5" y="-128" font-family="Helvetica,sans-Serif" font-size="10.00">VICUS_NetworkNode.h</text>
</a>
</g>
</g>
<!-- Node3&#45;&gt;Node4 -->
<g id="edge3_Node000003_Node000004" class="edge">
<title>Node3&#45;&gt;Node4</title>
<g id="a_edge3_Node000003_Node000004"><a xlink:title=" ">
<path fill="none" stroke="#63b8ff" d="M685.06,-296.87C641.45,-268.87 503.55,-180.33 449.52,-145.64"/>
<polygon fill="#63b8ff" stroke="#63b8ff" points="451.33,-142.64 441.02,-140.18 447.54,-148.53 451.33,-142.64"/>
</a>
</g>
</g>
<!-- Node5 -->
<g id="Node000005" class="node">
<title>Node5</title>
<g id="a_Node000005"><a xlink:href="_v_i_c_u_s___constants_8h.html" target="_top" xlink:title="Contains global constants for the SIM&#45;VICUS data model.">
<polygon fill="white" stroke="#666666" points="1004,-19 897,-19 897,0 1004,0 1004,-19"/>
<text text-anchor="middle" x="950.5" y="-7" font-family="Helvetica,sans-Serif" font-size="10.00">VICUS_Constants.h</text>
</a>
</g>
</g>
<!-- Node3&#45;&gt;Node5 -->
<g id="edge17_Node000003_Node000005" class="edge">
<title>Node3&#45;&gt;Node5</title>
<g id="a_edge17_Node000003_Node000005"><a xlink:title=" ">
<path fill="none" stroke="#63b8ff" d="M759.09,-302.78C1006.13,-291.04 1927.84,-240.7 2004.5,-140 2077.71,-43.83 2326.93,-155.31 1815.5,-55 1662.13,-24.92 1187.47,-14.35 1014.44,-11.44"/>
<polygon fill="#63b8ff" stroke="#63b8ff" points="1014.28,-7.93 1004.22,-11.27 1014.16,-14.93 1014.28,-7.93"/>
</a>
</g>
</g>
<!-- Node6 -->
<g id="Node000006" class="node">
<title>Node6</title>
<g id="a_Node000006"><a xlink:href="_v_i_c_u_s___code_gen_macros_8h.html" target="_top" xlink:title=" ">
<polygon fill="white" stroke="#666666" points="2113,-19 1978,-19 1978,0 2113,0 2113,-19"/>
<text text-anchor="middle" x="2045.5" y="-7" font-family="Helvetica,sans-Serif" font-size="10.00">VICUS_CodeGenMacros.h</text>
</a>
</g>
</g>
<!-- Node3&#45;&gt;Node6 -->
<g id="edge18_Node000003_Node000006" class="edge">
<title>Node3&#45;&gt;Node6</title>
<g id="a_edge18_Node000003_Node000006"><a xlink:title=" ">
<path fill="none" stroke="#63b8ff" d="M759.42,-304.01C1035.92,-296.86 2159.5,-263.39 2159.5,-192 2159.5,-192 2159.5,-192 2159.5,-129.5 2159.5,-79.55 2106.48,-42.38 2072.76,-23.8"/>
<polygon fill="#63b8ff" stroke="#63b8ff" points="2074.29,-20.65 2063.82,-19.05 2071.01,-26.83 2074.29,-20.65"/>
</a>
</g>
</g>
<!-- Node7 -->
<g id="Node000007" class="node">
<title>Node7</title>
<g id="a_Node000007"><a xlink:href="_v_i_c_u_s___object_8h.html" target="_top" xlink:title=" ">
<polygon fill="white" stroke="#666666" points="211.5,-79.5 121.5,-79.5 121.5,-60.5 211.5,-60.5 211.5,-79.5"/>
<text text-anchor="middle" x="166.5" y="-67.5" font-family="Helvetica,sans-Serif" font-size="10.00">VICUS_Object.h</text>
</a>
</g>
</g>
<!-- Node3&#45;&gt;Node7 -->
<g id="edge19_Node000003_Node000007" class="edge">
<title>Node3&#45;&gt;Node7</title>
<g id="a_edge19_Node000003_Node000007"><a xlink:title=" ">
<path fill="none" stroke="#63b8ff" d="M678.93,-296.88C598.28,-261.32 291.29,-126 195.34,-83.71"/>
<polygon fill="#63b8ff" stroke="#63b8ff" points="196.52,-80.41 185.96,-79.58 193.7,-86.81 196.52,-80.41"/>
</a>
</g>
</g>
<!-- Node15 -->
<g id="Node000015" class="node">
<title>Node15</title>
<g id="a_Node000015"><a xlink:href="_v_i_c_u_s___network_pipe_8h.html" target="_top" xlink:title=" ">
<polygon fill="white" stroke="#666666" points="757.5,-200.5 639.5,-200.5 639.5,-181.5 757.5,-181.5 757.5,-200.5"/>
<text text-anchor="middle" x="698.5" y="-188.5" font-family="Helvetica,sans-Serif" font-size="10.00">VICUS_NetworkPipe.h</text>
</a>
</g>
</g>
<!-- Node3&#45;&gt;Node15 -->
<g id="edge20_Node000003_Node000015" class="edge">
<title>Node3&#45;&gt;Node15</title>
<g id="a_edge20_Node000003_Node000015"><a xlink:title=" ">
<path fill="none" stroke="#63b8ff" d="M698.5,-296.97C698.5,-278.73 698.5,-235.57 698.5,-210.64"/>
<polygon fill="#63b8ff" stroke="#63b8ff" points="702,-210.63 698.5,-200.63 695,-210.63 702,-210.63"/>
</a>
</g>
</g>
<!-- Node20 -->
<g id="Node000020" class="node">
<title>Node20</title>
<g id="a_Node000020"><a xlink:href="_v_i_c_u_s___network_component_8h.html" target="_top" xlink:title=" ">
<polygon fill="white" stroke="#666666" points="1309,-261 1160,-261 1160,-242 1309,-242 1309,-261"/>
<text text-anchor="middle" x="1234.5" y="-249" font-family="Helvetica,sans-Serif" font-size="10.00">VICUS_NetworkComponent.h</text>
</a>
</g>
</g>
<!-- Node3&#45;&gt;Node20 -->
<g id="edge32_Node000003_Node000020" class="edge">
<title>Node3&#45;&gt;Node20</title>
<g id="a_edge32_Node000003_Node000020"><a xlink:title=" ">
<path fill="none" stroke="#63b8ff" d="M759.2,-299.5C854.89,-290.04 1041.06,-271.63 1149.83,-260.87"/>
<polygon fill="#63b8ff" stroke="#63b8ff" points="1150.18,-264.35 1159.79,-259.89 1149.49,-257.39 1150.18,-264.35"/>
</a>
</g>
</g>
<!-- Node4&#45;&gt;Node5 -->
<g id="edge4_Node000004_Node000005" class="edge">
<title>Node4&#45;&gt;Node5</title>
<g id="a_edge4_Node000004_Node000005"><a xlink:title=" ">
<path fill="none" stroke="#63b8ff" d="M447.96,-120.99C485.87,-105.54 569.87,-72.87 643.5,-55 726.42,-34.88 824.29,-22.62 886.84,-16.2"/>
<polygon fill="#63b8ff" stroke="#63b8ff" points="887.35,-19.66 896.95,-15.18 886.65,-12.7 887.35,-19.66"/>
</a>
</g>
</g>
<!-- Node4&#45;&gt;Node6 -->
<g id="edge5_Node000004_Node000006" class="edge">
<title>Node4&#45;&gt;Node6</title>
<g id="a_edge5_Node000004_Node000006"><a xlink:title=" ">
<path fill="none" stroke="#63b8ff" d="M463.28,-120.96C499.83,-112.17 558.21,-97.98 608.5,-85 657.98,-72.23 668.96,-62.57 719.5,-55 962.46,-18.59 1721.17,-11.96 1967.45,-10.76"/>
<polygon fill="#63b8ff" stroke="#63b8ff" points="1967.76,-14.26 1977.74,-10.71 1967.72,-7.26 1967.76,-14.26"/>
</a>
</g>
</g>
<!-- Node4&#45;&gt;Node7 -->
<g id="edge6_Node000004_Node000007" class="edge">
<title>Node4&#45;&gt;Node7</title>
<g id="a_edge6_Node000004_Node000007"><a xlink:title=" ">
<path fill="none" stroke="#63b8ff" d="M385.36,-120.98C343.45,-112.38 277.37,-98.48 220.5,-85 216.58,-84.07 212.51,-83.08 208.45,-82.06"/>
<polygon fill="#63b8ff" stroke="#63b8ff" points="208.98,-78.58 198.43,-79.51 207.26,-85.37 208.98,-78.58"/>
</a>
</g>
</g>
<!-- Node8 -->
<g id="Node000008" class="node">
<title>Node8</title>
<g id="a_Node000008"><a xlink:title=" ">
<polygon fill="#e0e0e0" stroke="#999999" points="565.5,-19 521.5,-19 521.5,0 565.5,0 565.5,-19"/>
<text text-anchor="middle" x="543.5" y="-7" font-family="Helvetica,sans-Serif" font-size="10.00">vector</text>
</a>
</g>
</g>
<!-- Node4&#45;&gt;Node8 -->
<g id="edge12_Node000004_Node000008" class="edge">
<title>Node4&#45;&gt;Node8</title>
<g id="a_edge12_Node000004_Node000008"><a xlink:title=" ">
<path fill="none" stroke="#63b8ff" d="M440.97,-120.89C453.5,-112.54 472.3,-99.1 486.5,-85 504.3,-67.32 521.31,-43.95 532.05,-28.13"/>
<polygon fill="#63b8ff" stroke="#63b8ff" points="535.24,-29.64 537.87,-19.38 529.41,-25.77 535.24,-29.64"/>
</a>
</g>
</g>
<!-- Node9 -->
<g id="Node000009" class="node">
<title>Node9</title>
<g id="a_Node000009"><a xlink:title=" ">
<polygon fill="#e0e0e0" stroke="#999999" points="275.5,-19 245.5,-19 245.5,0 275.5,0 275.5,-19"/>
<text text-anchor="middle" x="260.5" y="-7" font-family="Helvetica,sans-Serif" font-size="10.00">set</text>
</a>
</g>
</g>
<!-- Node4&#45;&gt;Node9 -->
<g id="edge13_Node000004_Node000009" class="edge">
<title>Node4&#45;&gt;Node9</title>
<g id="a_edge13_Node000004_Node000009"><a xlink:title=" ">
<path fill="none" stroke="#63b8ff" d="M393.85,-120.99C370.75,-113.98 340.28,-102.35 317.5,-85 296.93,-69.32 279.94,-44.42 270.01,-27.78"/>
<polygon fill="#63b8ff" stroke="#63b8ff" points="273.02,-25.99 265,-19.06 266.95,-29.48 273.02,-25.99"/>
</a>
</g>
</g>
<!-- Node11 -->
<g id="Node000011" class="node">
<title>Node11</title>
<g id="a_Node000011"><a xlink:title=" ">
<polygon fill="#e0e0e0" stroke="#999999" points="477,-85 326,-85 326,-55 477,-55 477,-85"/>
<text text-anchor="start" x="334" y="-73" font-family="Helvetica,sans-Serif" font-size="10.00">NANDRAD_HydraulicNetwork</text>
<text text-anchor="middle" x="401.5" y="-62" font-family="Helvetica,sans-Serif" font-size="10.00">HeatExchange.h</text>
</a>
</g>
</g>
<!-- Node4&#45;&gt;Node11 -->
<g id="edge11_Node000004_Node000011" class="edge">
<title>Node4&#45;&gt;Node11</title>
<g id="a_edge11_Node000004_Node000011"><a xlink:title=" ">
<path fill="none" stroke="#63b8ff" d="M423.66,-120.87C420.56,-113.89 416.04,-103.71 411.89,-94.38"/>
<polygon fill="#63b8ff" stroke="#63b8ff" points="415.03,-92.83 407.77,-85.11 408.64,-95.67 415.03,-92.83"/>
</a>
</g>
</g>
<!-- Node12 -->
<g id="Node000012" class="node">
<title>Node12</title>
<g id="a_Node000012"><a xlink:title=" ">
<polygon fill="#e0e0e0" stroke="#999999" points="269.5,-79.5 229.5,-79.5 229.5,-60.5 269.5,-60.5 269.5,-79.5"/>
<text text-anchor="middle" x="249.5" y="-67.5" font-family="Helvetica,sans-Serif" font-size="10.00">limits</text>
</a>
</g>
</g>
<!-- Node4&#45;&gt;Node12 -->
<g id="edge14_Node000004_Node000012" class="edge">
<title>Node4&#45;&gt;Node12</title>
<g id="a_edge14_Node000004_Node000012"><a xlink:title=" ">
<path fill="none" stroke="#63b8ff" d="M397.17,-121C367.85,-112.57 322.28,-98.94 283.5,-85 282.07,-84.49 280.62,-83.95 279.15,-83.39"/>
<polygon fill="#63b8ff" stroke="#63b8ff" points="280.11,-80.01 269.52,-79.6 277.54,-86.52 280.11,-80.01"/>
</a>
</g>
</g>
<!-- Node4&#45;&gt;Node13 -->
<g id="edge15_Node000004_Node000013" class="edge">
<title>Node4&#45;&gt;Node13</title>
<g id="a_edge15_Node000004_Node000013"><a xlink:title=" ">
<path fill="none" stroke="#63b8ff" d="M366.27,-122.42C302.62,-114.69 200.21,-101.23 112.5,-85 107.16,-84.01 101.58,-82.88 96.05,-81.69"/>
<polygon fill="#63b8ff" stroke="#63b8ff" points="96.75,-78.26 86.23,-79.51 95.24,-85.09 96.75,-78.26"/>
</a>
</g>
</g>
<!-- Node14 -->
<g id="Node000014" class="node">
<title>Node14</title>
<g id="a_Node000014"><a xlink:title=" ">
<polygon fill="#e0e0e0" stroke="#999999" points="809,-79.5 762,-79.5 762,-60.5 809,-60.5 809,-79.5"/>
<text text-anchor="middle" x="785.5" y="-67.5" font-family="Helvetica,sans-Serif" font-size="10.00">QColor</text>
</a>
</g>
</g>
<!-- Node4&#45;&gt;Node14 -->
<g id="edge16_Node000004_Node000014" class="edge">
<title>Node4&#45;&gt;Node14</title>
<g id="a_edge16_Node000004_Node000014"><a xlink:title=" ">
<path fill="none" stroke="#63b8ff" d="M479.56,-120.99C553.98,-108.83 688.74,-86.81 751.56,-76.55"/>
<polygon fill="#63b8ff" stroke="#63b8ff" points="752.41,-79.95 761.71,-74.89 751.28,-73.05 752.41,-79.95"/>
</a>
</g>
</g>
<!-- Node7&#45;&gt;Node5 -->
<g id="edge10_Node000007_Node000005" class="edge">
<title>Node7&#45;&gt;Node5</title>
<g id="a_edge10_Node000007_Node000005"><a xlink:title=" ">
<path fill="none" stroke="#63b8ff" d="M195.15,-60.48C203.28,-58.36 212.18,-56.32 220.5,-55 347.99,-34.78 733.47,-18.61 886.7,-12.81"/>
<polygon fill="#63b8ff" stroke="#63b8ff" points="887.03,-16.3 896.89,-12.43 886.76,-9.3 887.03,-16.3"/>
</a>
</g>
</g>
<!-- Node7&#45;&gt;Node8 -->
<g id="edge7_Node000007_Node000008" class="edge">
<title>Node7&#45;&gt;Node8</title>
<g id="a_edge7_Node000007_Node000008"><a xlink:title=" ">
<path fill="none" stroke="#63b8ff" d="M196.91,-60.45C204.57,-58.48 212.8,-56.52 220.5,-55 326.1,-34.11 453.04,-19.7 511.35,-13.67"/>
<polygon fill="#63b8ff" stroke="#63b8ff" points="511.83,-17.14 521.42,-12.64 511.12,-10.18 511.83,-17.14"/>
</a>
</g>
</g>
<!-- Node7&#45;&gt;Node9 -->
<g id="edge8_Node000007_Node000009" class="edge">
<title>Node7&#45;&gt;Node9</title>
<g id="a_edge8_Node000007_Node000009"><a xlink:title=" ">
<path fill="none" stroke="#63b8ff" d="M180.37,-60.37C195.5,-50.95 219.96,-35.73 237.88,-24.58"/>
<polygon fill="#63b8ff" stroke="#63b8ff" points="239.93,-27.42 246.57,-19.17 236.23,-21.48 239.93,-27.42"/>
</a>
</g>
</g>
<!-- Node10 -->
<g id="Node000010" class="node">
<title>Node10</title>
<g id="a_Node000010"><a xlink:title=" ">
<polygon fill="#e0e0e0" stroke="#999999" points="191.5,-19 141.5,-19 141.5,0 191.5,0 191.5,-19"/>
<text text-anchor="middle" x="166.5" y="-7" font-family="Helvetica,sans-Serif" font-size="10.00">QString</text>
</a>
</g>
</g>
<!-- Node7&#45;&gt;Node10 -->
<g id="edge9_Node000007_Node000010" class="edge">
<title>Node7&#45;&gt;Node10</title>
<g id="a_edge9_Node000007_Node000010"><a xlink:title=" ">
<path fill="none" stroke="#63b8ff" d="M166.5,-60.37C166.5,-52.25 166.5,-39.81 166.5,-29.39"/>
<polygon fill="#63b8ff" stroke="#63b8ff" points="170,-29.17 166.5,-19.17 163,-29.17 170,-29.17"/>
</a>
</g>
</g>
<!-- Node15&#45;&gt;Node5 -->
<g id="edge24_Node000015_Node000005" class="edge">
<title>Node15&#45;&gt;Node5</title>
<g id="a_edge24_Node000015_Node000005"><a xlink:title=" ">
<path fill="none" stroke="#63b8ff" d="M690.88,-181.19C680.6,-168.19 664.34,-143.02 671.5,-121 682.72,-86.51 688.89,-74.46 719.5,-55 769.7,-23.09 837.55,-13.09 886.71,-10.39"/>
<polygon fill="#63b8ff" stroke="#63b8ff" points="887.08,-13.88 896.91,-9.92 886.76,-6.89 887.08,-13.88"/>
</a>
</g>
</g>
<!-- Node15&#45;&gt;Node6 -->
<g id="edge23_Node000015_Node000006" class="edge">
<title>Node15&#45;&gt;Node6</title>
<g id="a_edge23_Node000015_Node000006"><a xlink:title=" ">
<path fill="none" stroke="#63b8ff" d="M698.97,-181.44C700.83,-156.77 709.91,-85.41 753.5,-55 803.39,-20.19 1695.7,-12.42 1967.54,-10.86"/>
<polygon fill="#63b8ff" stroke="#63b8ff" points="1967.74,-14.36 1977.72,-10.8 1967.7,-7.36 1967.74,-14.36"/>
</a>
</g>
</g>
<!-- Node15&#45;&gt;Node8 -->
<g id="edge22_Node000015_Node000008" class="edge">
<title>Node15&#45;&gt;Node8</title>
<g id="a_edge22_Node000015_Node000008"><a xlink:title=" ">
<path fill="none" stroke="#63b8ff" d="M682.55,-181.41C667,-172.49 643.29,-157.42 626.5,-140 592.97,-105.2 565.36,-54.88 552.07,-28.38"/>
<polygon fill="#63b8ff" stroke="#63b8ff" points="555.1,-26.61 547.55,-19.18 548.81,-29.7 555.1,-26.61"/>
</a>
</g>
</g>
<!-- Node15&#45;&gt;Node14 -->
<g id="edge31_Node000015_Node000014" class="edge">
<title>Node15&#45;&gt;Node14</title>
<g id="a_edge31_Node000015_Node000014"><a xlink:title=" ">
<path fill="none" stroke="#63b8ff" d="M704.45,-181.44C713.58,-168.33 731.67,-142.55 747.5,-121 755.71,-109.83 765.13,-97.43 772.54,-87.77"/>
<polygon fill="#63b8ff" stroke="#63b8ff" points="775.36,-89.85 778.69,-79.79 769.81,-85.58 775.36,-89.85"/>
</a>
</g>
</g>
<!-- Node16 -->
<g id="Node000016" class="node">
<title>Node16</title>
<g id="a_Node000016"><a xlink:title=" ">
<polygon fill="#e0e0e0" stroke="#999999" points="720,-19 679,-19 679,0 720,0 720,-19"/>
<text text-anchor="middle" x="699.5" y="-7" font-family="Helvetica,sans-Serif" font-size="10.00">string</text>
</a>
</g>
</g>
<!-- Node15&#45;&gt;Node16 -->
<g id="edge21_Node000015_Node000016" class="edge">
<title>Node15&#45;&gt;Node16</title>
<g id="a_edge21_Node000015_Node000016"><a xlink:title=" ">
<path fill="none" stroke="#63b8ff" d="M679.46,-181.4C663.9,-173.22 643,-159.29 633.5,-140 629.77,-132.42 631.25,-129.14 633.5,-121 643.6,-84.41 669.35,-47.73 685.54,-27.18"/>
<polygon fill="#63b8ff" stroke="#63b8ff" points="688.45,-29.15 692.02,-19.18 683.01,-24.75 688.45,-29.15"/>
</a>
</g>
</g>
<!-- Node17 -->
<g id="Node000017" class="node">
<title>Node17</title>
<g id="a_Node000017"><a xlink:href="_v_i_c_u_s___abstract_d_b_element_8h.html" target="_top" xlink:title=" ">
<polygon fill="white" stroke="#666666" points="1376,-140 1227,-140 1227,-121 1376,-121 1376,-140"/>
<text text-anchor="middle" x="1301.5" y="-128" font-family="Helvetica,sans-Serif" font-size="10.00">VICUS_AbstractDBElement.h</text>
</a>
</g>
</g>
<!-- Node15&#45;&gt;Node17 -->
<g id="edge25_Node000015_Node000017" class="edge">
<title>Node15&#45;&gt;Node17</title>
<g id="a_edge25_Node000015_Node000017"><a xlink:title=" ">
<path fill="none" stroke="#63b8ff" d="M757.78,-184.42C852.49,-175.48 1044.06,-157.29 1216.81,-140.16"/>
<polygon fill="#63b8ff" stroke="#63b8ff" points="1217.24,-143.64 1226.85,-139.17 1216.55,-136.67 1217.24,-143.64"/>
</a>
</g>
</g>
<!-- Node18 -->
<g id="Node000018" class="node">
<title>Node18</title>
<g id="a_Node000018"><a xlink:title=" ">
<polygon fill="#e0e0e0" stroke="#999999" points="1001,-79.5 866,-79.5 866,-60.5 1001,-60.5 1001,-79.5"/>
<text text-anchor="middle" x="933.5" y="-67.5" font-family="Helvetica,sans-Serif" font-size="10.00">IBK_MultiLanguageString.h</text>
</a>
</g>
</g>
<!-- Node15&#45;&gt;Node18 -->
<g id="edge29_Node000015_Node000018" class="edge">
<title>Node15&#45;&gt;Node18</title>
<g id="a_edge29_Node000015_Node000018"><a xlink:title=" ">
<path fill="none" stroke="#63b8ff" d="M715.4,-181.44C755.95,-160.91 858.99,-108.73 907.5,-84.17"/>
<polygon fill="#63b8ff" stroke="#63b8ff" points="909.1,-87.28 916.44,-79.64 905.93,-81.04 909.1,-87.28"/>
</a>
</g>
</g>
<!-- Node19 -->
<g id="Node000019" class="node">
<title>Node19</title>
<g id="a_Node000019"><a xlink:title=" ">
<polygon fill="#e0e0e0" stroke="#999999" points="1485,-140 1394,-140 1394,-121 1485,-121 1485,-140"/>
<text text-anchor="middle" x="1439.5" y="-128" font-family="Helvetica,sans-Serif" font-size="10.00">IBK_Parameter.h</text>
</a>
</g>
</g>
<!-- Node15&#45;&gt;Node19 -->
<g id="edge30_Node000015_Node000019" class="edge">
<title>Node15&#45;&gt;Node19</title>
<g id="a_edge30_Node000015_Node000019"><a xlink:title=" ">
<path fill="none" stroke="#63b8ff" d="M757.93,-187.35C875.51,-181.74 1146.32,-167.01 1383.67,-140.12"/>
<polygon fill="#63b8ff" stroke="#63b8ff" points="1384.33,-143.57 1393.87,-138.96 1383.54,-136.61 1384.33,-143.57"/>
</a>
</g>
</g>
<!-- Node17&#45;&gt;Node5 -->
<g id="edge28_Node000017_Node000005" class="edge">
<title>Node17&#45;&gt;Node5</title>
<g id="a_edge28_Node000017_Node000005"><a xlink:title=" ">
<path fill="none" stroke="#63b8ff" d="M1235.18,-120.98C1191.94,-114.17 1134.79,-102.77 1086.5,-85 1043.52,-69.18 997.61,-41.49 971.64,-24.69"/>
<polygon fill="#63b8ff" stroke="#63b8ff" points="973.3,-21.59 963.02,-19.04 969.46,-27.45 973.3,-21.59"/>
</a>
</g>
</g>
<!-- Node17&#45;&gt;Node14 -->
<g id="edge27_Node000017_Node000014" class="edge">
<title>Node17&#45;&gt;Node14</title>
<g id="a_edge27_Node000017_Node000014"><a xlink:title=" ">
<path fill="none" stroke="#63b8ff" d="M1226.84,-121.85C1224.03,-121.56 1221.24,-121.28 1218.5,-121 1058.08,-104.79 1017.03,-108.41 857.5,-85 844.93,-83.16 831.22,-80.62 819.17,-78.22"/>
<polygon fill="#63b8ff" stroke="#63b8ff" points="819.58,-74.73 809.08,-76.16 818.18,-81.59 819.58,-74.73"/>
</a>
</g>
</g>
<!-- Node17&#45;&gt;Node18 -->
<g id="edge26_Node000017_Node000018" class="edge">
<title>Node17&#45;&gt;Node18</title>
<g id="a_edge26_Node000017_Node000018"><a xlink:title=" ">
<path fill="none" stroke="#63b8ff" d="M1245.02,-120.96C1187.31,-112.18 1095.1,-97.99 1015.5,-85 1008.17,-83.8 1000.47,-82.52 992.85,-81.24"/>
<polygon fill="#63b8ff" stroke="#63b8ff" points="993.36,-77.78 982.91,-79.56 992.19,-84.68 993.36,-77.78"/>
</a>
</g>
</g>
<!-- Node20&#45;&gt;Node5 -->
<g id="edge38_Node000020_Node000005" class="edge">
<title>Node20&#45;&gt;Node5</title>
<g id="a_edge38_Node000020_Node000005"><a xlink:title=" ">
<path fill="none" stroke="#63b8ff" d="M1159.92,-244.98C1086.31,-238.49 979.67,-226 943.5,-206 875.91,-168.63 816.33,-120.34 857.5,-55 867.23,-39.56 883.97,-29.35 900.59,-22.67"/>
<polygon fill="#63b8ff" stroke="#63b8ff" points="902.11,-25.84 910.3,-19.13 899.71,-19.26 902.11,-25.84"/>
</a>
</g>
</g>
<!-- Node20&#45;&gt;Node6 -->
<g id="edge37_Node000020_Node000006" class="edge">
<title>Node20&#45;&gt;Node6</title>
<g id="a_edge37_Node000020_Node000006"><a xlink:title=" ">
<path fill="none" stroke="#63b8ff" d="M1309.18,-250.55C1488.06,-249.09 1934.19,-235.72 2041.5,-140 2070.46,-114.17 2068.16,-93.23 2061.5,-55 2059.93,-46 2056.7,-36.42 2053.56,-28.46"/>
<polygon fill="#63b8ff" stroke="#63b8ff" points="2056.73,-26.97 2049.61,-19.12 2050.28,-29.69 2056.73,-26.97"/>
</a>
</g>
</g>
<!-- Node20&#45;&gt;Node14 -->
<g id="edge36_Node000020_Node000014" class="edge">
<title>Node20&#45;&gt;Node14</title>
<g id="a_edge36_Node000020_Node000014"><a xlink:title=" ">
<path fill="none" stroke="#63b8ff" d="M1159.87,-246.91C1048.36,-240.87 848.6,-227.24 823.5,-206 789.2,-176.99 784.6,-119.67 784.71,-89.92"/>
<polygon fill="#63b8ff" stroke="#63b8ff" points="788.22,-89.73 784.94,-79.66 781.22,-89.57 788.22,-89.73"/>
</a>
</g>
</g>
<!-- Node20&#45;&gt;Node17 -->
<g id="edge39_Node000020_Node000017" class="edge">
<title>Node20&#45;&gt;Node17</title>
<g id="a_edge39_Node000020_Node000017"><a xlink:title=" ">
<path fill="none" stroke="#63b8ff" d="M1247.46,-241.79C1258.41,-233.75 1273.67,-220.85 1282.5,-206 1292.71,-188.83 1297.48,-166.27 1299.67,-150.49"/>
<polygon fill="#63b8ff" stroke="#63b8ff" points="1303.17,-150.72 1300.86,-140.38 1296.22,-149.9 1303.17,-150.72"/>
</a>
</g>
</g>
<!-- Node20&#45;&gt;Node18 -->
<g id="edge33_Node000020_Node000018" class="edge">
<title>Node20&#45;&gt;Node18</title>
<g id="a_edge33_Node000020_Node000018"><a xlink:title=" ">
<path fill="none" stroke="#63b8ff" d="M1185.47,-242C1099.79,-226.01 928.71,-188.62 895.5,-140 883.48,-122.4 900.18,-100.66 915.08,-86.34"/>
<polygon fill="#63b8ff" stroke="#63b8ff" points="917.48,-88.89 922.55,-79.59 912.78,-83.7 917.48,-88.89"/>
</a>
</g>
</g>
<!-- Node20&#45;&gt;Node19 -->
<g id="edge34_Node000020_Node000019" class="edge">
<title>Node20&#45;&gt;Node19</title>
<g id="a_edge34_Node000020_Node000019"><a xlink:title=" ">
<path fill="none" stroke="#63b8ff" d="M1248.67,-241.87C1271.76,-227.85 1319,-199.33 1359.5,-176 1377.86,-165.42 1398.8,-153.79 1414.64,-145.08"/>
<polygon fill="#63b8ff" stroke="#63b8ff" points="1416.7,-147.94 1423.79,-140.06 1413.34,-141.8 1416.7,-147.94"/>
</a>
</g>
</g>
<!-- Node21 -->
<g id="Node000021" class="node">
<title>Node21</title>
<g id="a_Node000021"><a xlink:title=" ">
<polygon fill="#e0e0e0" stroke="#999999" points="1273.5,-200.5 1195.5,-200.5 1195.5,-181.5 1273.5,-181.5 1273.5,-200.5"/>
<text text-anchor="middle" x="1234.5" y="-188.5" font-family="Helvetica,sans-Serif" font-size="10.00">IBK_IntPara.h</text>
</a>
</g>
</g>
<!-- Node20&#45;&gt;Node21 -->
<g id="edge35_Node000020_Node000021" class="edge">
<title>Node20&#45;&gt;Node21</title>
<g id="a_edge35_Node000020_Node000021"><a xlink:title=" ">
<path fill="none" stroke="#63b8ff" d="M1234.5,-241.87C1234.5,-233.75 1234.5,-221.31 1234.5,-210.89"/>
<polygon fill="#63b8ff" stroke="#63b8ff" points="1238,-210.67 1234.5,-200.67 1231,-210.67 1238,-210.67"/>
</a>
</g>
</g>
<!-- Node22 -->
<g id="Node000022" class="node">
<title>Node22</title>
<g id="a_Node000022"><a xlink:href="_v_i_c_u_s___database_8h.html" target="_top" xlink:title=" ">
<polygon fill="white" stroke="#666666" points="1177.5,-200.5 1073.5,-200.5 1073.5,-181.5 1177.5,-181.5 1177.5,-200.5"/>
<text text-anchor="middle" x="1125.5" y="-188.5" font-family="Helvetica,sans-Serif" font-size="10.00">VICUS_Database.h</text>
</a>
</g>
</g>
<!-- Node20&#45;&gt;Node22 -->
<g id="edge40_Node000020_Node000022" class="edge">
<title>Node20&#45;&gt;Node22</title>
<g id="a_edge40_Node000020_Node000022"><a xlink:title=" ">
<path fill="none" stroke="#63b8ff" d="M1218.42,-241.87C1200.55,-232.28 1171.46,-216.67 1150.59,-205.47"/>
<polygon fill="#63b8ff" stroke="#63b8ff" points="1152.12,-202.31 1141.65,-200.67 1148.81,-208.48 1152.12,-202.31"/>
</a>
</g>
</g>
<!-- Node27 -->
<g id="Node000027" class="node">
<title>Node27</title>
<g id="a_Node000027"><a xlink:href="_v_i_c_u_s___schedule_8h.html" target="_top" xlink:title=" ">
<polygon fill="white" stroke="#666666" points="1756.5,-200.5 1654.5,-200.5 1654.5,-181.5 1756.5,-181.5 1756.5,-200.5"/>
<text text-anchor="middle" x="1705.5" y="-188.5" font-family="Helvetica,sans-Serif" font-size="10.00">VICUS_Schedule.h</text>
</a>
</g>
</g>
<!-- Node20&#45;&gt;Node27 -->
<g id="edge46_Node000020_Node000027" class="edge">
<title>Node20&#45;&gt;Node27</title>
<g id="a_edge46_Node000020_Node000027"><a xlink:title=" ">
<path fill="none" stroke="#63b8ff" d="M1302.99,-241.99C1394.77,-230.59 1556.3,-210.53 1644.24,-199.61"/>
<polygon fill="#63b8ff" stroke="#63b8ff" points="1644.84,-203.06 1654.34,-198.35 1643.98,-196.11 1644.84,-203.06"/>
</a>
</g>
</g>
<!-- Node33 -->
<g id="Node000033" class="node">
<title>Node33</title>
<g id="a_Node000033"><a xlink:title=" ">
<polygon fill="#e0e0e0" stroke="#999999" points="1519,-206 1368,-206 1368,-176 1519,-176 1519,-206"/>
<text text-anchor="start" x="1376" y="-194" font-family="Helvetica,sans-Serif" font-size="10.00">NANDRAD_HydraulicNetwork</text>
<text text-anchor="middle" x="1443.5" y="-183" font-family="Helvetica,sans-Serif" font-size="10.00">Component.h</text>
</a>
</g>
</g>
<!-- Node20&#45;&gt;Node33 -->
<g id="edge63_Node000020_Node000033" class="edge">
<title>Node20&#45;&gt;Node33</title>
<g id="a_edge63_Node000020_Node000033"><a xlink:title=" ">
<path fill="none" stroke="#63b8ff" d="M1264.89,-241.99C1295.89,-233.32 1344.81,-219.62 1383.62,-208.76"/>
<polygon fill="#63b8ff" stroke="#63b8ff" points="1384.57,-212.13 1393.25,-206.06 1382.68,-205.39 1384.57,-212.13"/>
</a>
</g>
</g>
<!-- Node22&#45;&gt;Node17 -->
<g id="edge42_Node000022_Node000017" class="edge">
<title>Node22&#45;&gt;Node17</title>
<g id="a_edge42_Node000022_Node000017"><a xlink:title=" ">
<path fill="none" stroke="#63b8ff" d="M1151.09,-181.49C1181.46,-171.4 1232.26,-154.51 1266.32,-143.19"/>
<polygon fill="#63b8ff" stroke="#63b8ff" points="1267.49,-146.49 1275.88,-140.02 1265.28,-139.85 1267.49,-146.49"/>
</a>
</g>
</g>
<!-- Node23 -->
<g id="Node000023" class="node">
<title>Node23</title>
<g id="a_Node000023"><a xlink:title=" ">
<polygon fill="#e0e0e0" stroke="#999999" points="1209,-140 1174,-140 1174,-121 1209,-121 1209,-140"/>
<text text-anchor="middle" x="1191.5" y="-128" font-family="Helvetica,sans-Serif" font-size="10.00">map</text>
</a>
</g>
</g>
<!-- Node22&#45;&gt;Node23 -->
<g id="edge41_Node000022_Node000023" class="edge">
<title>Node22&#45;&gt;Node23</title>
<g id="a_edge41_Node000022_Node000023"><a xlink:title=" ">
<path fill="none" stroke="#63b8ff" d="M1135.24,-181.37C1145.47,-172.3 1161.79,-157.84 1174.22,-146.82"/>
<polygon fill="#63b8ff" stroke="#63b8ff" points="1176.56,-149.42 1181.72,-140.17 1171.92,-144.18 1176.56,-149.42"/>
</a>
</g>
</g>
<!-- Node24 -->
<g id="Node000024" class="node">
<title>Node24</title>
<g id="a_Node000024"><a xlink:title=" ">
<polygon fill="#e0e0e0" stroke="#999999" points="971,-140 904,-140 904,-121 971,-121 971,-140"/>
<text text-anchor="middle" x="937.5" y="-128" font-family="Helvetica,sans-Serif" font-size="10.00">IBK_Path.h</text>
</a>
</g>
</g>
<!-- Node22&#45;&gt;Node24 -->
<g id="edge43_Node000022_Node000024" class="edge">
<title>Node22&#45;&gt;Node24</title>
<g id="a_edge43_Node000022_Node000024"><a xlink:title=" ">
<path fill="none" stroke="#63b8ff" d="M1098.16,-181.49C1065.58,-171.36 1010.99,-154.37 974.61,-143.05"/>
<polygon fill="#63b8ff" stroke="#63b8ff" points="975.46,-139.65 964.87,-140.02 973.38,-146.33 975.46,-139.65"/>
</a>
</g>
</g>
<!-- Node25 -->
<g id="Node000025" class="node">
<title>Node25</title>
<g id="a_Node000025"><a xlink:title=" ">
<polygon fill="#e0e0e0" stroke="#999999" points="1081.5,-140 989.5,-140 989.5,-121 1081.5,-121 1081.5,-140"/>
<text text-anchor="middle" x="1035.5" y="-128" font-family="Helvetica,sans-Serif" font-size="10.00">IBK_messages.h</text>
</a>
</g>
</g>
<!-- Node22&#45;&gt;Node25 -->
<g id="edge44_Node000022_Node000025" class="edge">
<title>Node22&#45;&gt;Node25</title>
<g id="a_edge44_Node000022_Node000025"><a xlink:title=" ">
<path fill="none" stroke="#63b8ff" d="M1112.22,-181.37C1097.86,-172.04 1074.74,-157.01 1057.63,-145.88"/>
<polygon fill="#63b8ff" stroke="#63b8ff" points="1059.13,-142.68 1048.83,-140.17 1055.31,-148.55 1059.13,-142.68"/>
</a>
</g>
</g>
<!-- Node26 -->
<g id="Node000026" class="node">
<title>Node26</title>
<g id="a_Node000026"><a xlink:title=" ">
<polygon fill="#e0e0e0" stroke="#999999" points="1155.5,-140 1099.5,-140 1099.5,-121 1155.5,-121 1155.5,-140"/>
<text text-anchor="middle" x="1127.5" y="-128" font-family="Helvetica,sans-Serif" font-size="10.00">tinyxml.h</text>
</a>
</g>
</g>
<!-- Node22&#45;&gt;Node26 -->
<g id="edge45_Node000022_Node000026" class="edge">
<title>Node22&#45;&gt;Node26</title>
<g id="a_edge45_Node000022_Node000026"><a xlink:title=" ">
<path fill="none" stroke="#63b8ff" d="M1125.8,-181.37C1126.07,-173.25 1126.5,-160.81 1126.85,-150.39"/>
<polygon fill="#63b8ff" stroke="#63b8ff" points="1130.36,-150.28 1127.2,-140.17 1123.36,-150.04 1130.36,-150.28"/>
</a>
</g>
</g>
<!-- Node27&#45;&gt;Node5 -->
<g id="edge52_Node000027_Node000005" class="edge">
<title>Node27&#45;&gt;Node5</title>
<g id="a_edge52_Node000027_Node000005"><a xlink:title=" ">
<path fill="none" stroke="#63b8ff" d="M1756.67,-188.55C1830.03,-185.26 1959.48,-174.59 1988.5,-140 1993.93,-133.53 1994.15,-127.28 1988.5,-121 1923.11,-48.28 1230.11,-19.64 1014.29,-12.44"/>
<polygon fill="#63b8ff" stroke="#63b8ff" points="1014.19,-8.93 1004.08,-12.1 1013.96,-15.93 1014.19,-8.93"/>
</a>
</g>
</g>
<!-- Node27&#45;&gt;Node6 -->
<g id="edge51_Node000027_Node000006" class="edge">
<title>Node27&#45;&gt;Node6</title>
<g id="a_edge51_Node000027_Node000006"><a xlink:title=" ">
<path fill="none" stroke="#63b8ff" d="M1756.77,-188.86C1836.46,-185.97 1984.75,-175.8 2021.5,-140 2051.3,-110.97 2050.87,-57.8 2048.12,-29.46"/>
<polygon fill="#63b8ff" stroke="#63b8ff" points="2051.57,-28.81 2046.93,-19.29 2044.61,-29.63 2051.57,-28.81"/>
</a>
</g>
</g>
<!-- Node27&#45;&gt;Node17 -->
<g id="edge62_Node000027_Node000017" class="edge">
<title>Node27&#45;&gt;Node17</title>
<g id="a_edge62_Node000027_Node000017"><a xlink:title=" ">
<path fill="none" stroke="#63b8ff" d="M1654.33,-182.59C1582.35,-172.17 1451.01,-153.15 1370.47,-141.49"/>
<polygon fill="#63b8ff" stroke="#63b8ff" points="1370.82,-138 1360.43,-140.03 1369.82,-144.93 1370.82,-138"/>
</a>
</g>
</g>
<!-- Node27&#45;&gt;Node19 -->
<g id="edge49_Node000027_Node000019" class="edge">
<title>Node27&#45;&gt;Node19</title>
<g id="a_edge49_Node000027_Node000019"><a xlink:title=" ">
<path fill="none" stroke="#63b8ff" d="M1666.82,-181.49C1619.54,-171.1 1539.5,-153.49 1488.1,-142.19"/>
<polygon fill="#63b8ff" stroke="#63b8ff" points="1488.74,-138.75 1478.23,-140.02 1487.24,-145.58 1488.74,-138.75"/>
</a>
</g>
</g>
<!-- Node28 -->
<g id="Node000028" class="node">
<title>Node28</title>
<g id="a_Node000028"><a xlink:title=" ">
<polygon fill="#e0e0e0" stroke="#999999" points="1755.5,-140 1655.5,-140 1655.5,-121 1755.5,-121 1755.5,-140"/>
<text text-anchor="middle" x="1705.5" y="-128" font-family="Helvetica,sans-Serif" font-size="10.00">IBK_LinearSpline.h</text>
</a>
</g>
</g>
<!-- Node27&#45;&gt;Node28 -->
<g id="edge47_Node000027_Node000028" class="edge">
<title>Node27&#45;&gt;Node28</title>
<g id="a_edge47_Node000027_Node000028"><a xlink:title=" ">
<path fill="none" stroke="#63b8ff" d="M1705.5,-181.37C1705.5,-173.25 1705.5,-160.81 1705.5,-150.39"/>
<polygon fill="#63b8ff" stroke="#63b8ff" points="1709,-150.17 1705.5,-140.17 1702,-150.17 1709,-150.17"/>
</a>
</g>
</g>
<!-- Node29 -->
<g id="Node000029" class="node">
<title>Node29</title>
<g id="a_Node000029"><a xlink:title=" ">
<polygon fill="#e0e0e0" stroke="#999999" points="1839,-140 1774,-140 1774,-121 1839,-121 1839,-140"/>
<text text-anchor="middle" x="1806.5" y="-128" font-family="Helvetica,sans-Serif" font-size="10.00">IBK_Flag.h</text>
</a>
</g>
</g>
<!-- Node27&#45;&gt;Node29 -->
<g id="edge48_Node000027_Node000029" class="edge">
<title>Node27&#45;&gt;Node29</title>
<g id="a_edge48_Node000027_Node000029"><a xlink:title=" ">
<path fill="none" stroke="#63b8ff" d="M1720.4,-181.37C1736.81,-171.86 1763.43,-156.45 1782.73,-145.27"/>
<polygon fill="#63b8ff" stroke="#63b8ff" points="1784.64,-148.21 1791.54,-140.17 1781.13,-142.15 1784.64,-148.21"/>
</a>
</g>
</g>
<!-- Node30 -->
<g id="Node000030" class="node">
<title>Node30</title>
<g id="a_Node000030"><a xlink:title=" ">
<polygon fill="#e0e0e0" stroke="#999999" points="1979.5,-140 1857.5,-140 1857.5,-121 1979.5,-121 1979.5,-140"/>
<text text-anchor="middle" x="1918.5" y="-128" font-family="Helvetica,sans-Serif" font-size="10.00">NANDRAD_Schedule.h</text>
</a>
</g>
</g>
<!-- Node27&#45;&gt;Node30 -->
<g id="edge50_Node000027_Node000030" class="edge">
<title>Node27&#45;&gt;Node30</title>
<g id="a_edge50_Node000027_Node000030"><a xlink:title=" ">
<path fill="none" stroke="#63b8ff" d="M1736.47,-181.49C1773.78,-171.25 1836.56,-154 1877.77,-142.69"/>
<polygon fill="#63b8ff" stroke="#63b8ff" points="1878.77,-146.04 1887.49,-140.02 1876.92,-139.29 1878.77,-146.04"/>
</a>
</g>
</g>
<!-- Node31 -->
<g id="Node000031" class="node">
<title>Node31</title>
<g id="a_Node000031"><a xlink:href="_v_i_c_u_s___schedule_interval_8h.html" target="_top" xlink:title=" ">
<polygon fill="white" stroke="#666666" points="1637.5,-140 1503.5,-140 1503.5,-121 1637.5,-121 1637.5,-140"/>
<text text-anchor="middle" x="1570.5" y="-128" font-family="Helvetica,sans-Serif" font-size="10.00">VICUS_ScheduleInterval.h</text>
</a>
</g>
</g>
<!-- Node27&#45;&gt;Node31 -->
<g id="edge53_Node000027_Node000031" class="edge">
<title>Node27&#45;&gt;Node31</title>
<g id="a_edge53_Node000027_Node000031"><a xlink:title=" ">
<path fill="none" stroke="#63b8ff" d="M1685.87,-181.49C1663.17,-171.66 1625.6,-155.38 1599.53,-144.08"/>
<polygon fill="#63b8ff" stroke="#63b8ff" points="1600.72,-140.78 1590.15,-140.02 1597.94,-147.2 1600.72,-140.78"/>
</a>
</g>
</g>
<!-- Node31&#45;&gt;Node6 -->
<g id="edge55_Node000031_Node000006" class="edge">
<title>Node31&#45;&gt;Node6</title>
<g id="a_edge55_Node000031_Node000006"><a xlink:title=" ">
<path fill="none" stroke="#63b8ff" d="M1604.66,-120.94C1689.12,-99.78 1907.68,-45.03 2001.58,-21.5"/>
<polygon fill="#63b8ff" stroke="#63b8ff" points="2002.48,-24.89 2011.33,-19.06 2000.78,-18.1 2002.48,-24.89"/>
</a>
</g>
</g>
<!-- Node31&#45;&gt;Node8 -->
<g id="edge56_Node000031_Node000008" class="edge">
<title>Node31&#45;&gt;Node8</title>
<g id="a_edge56_Node000031_Node000008"><a xlink:title=" ">
<path fill="none" stroke="#63b8ff" d="M1503.37,-121.91C1500.37,-121.59 1497.41,-121.29 1494.5,-121 1313.37,-102.88 1263.66,-126.85 1086.5,-85 1051.16,-76.65 1045.81,-63.47 1010.5,-55 968.43,-44.91 674.41,-20.91 575.72,-13.04"/>
<polygon fill="#63b8ff" stroke="#63b8ff" points="575.97,-9.55 565.73,-12.25 575.42,-16.53 575.97,-9.55"/>
</a>
</g>
</g>
<!-- Node31&#45;&gt;Node18 -->
<g id="edge54_Node000031_Node000018" class="edge">
<title>Node31&#45;&gt;Node18</title>
<g id="a_edge54_Node000031_Node000018"><a xlink:title=" ">
<path fill="none" stroke="#63b8ff" d="M1503.37,-121.88C1500.38,-121.58 1497.41,-121.28 1494.5,-121 1298.76,-102.07 1249.19,-104.4 1053.5,-85 1039.81,-83.64 1025.26,-82.06 1011.19,-80.46"/>
<polygon fill="#63b8ff" stroke="#63b8ff" points="1011.38,-76.96 1001.05,-79.3 1010.58,-83.92 1011.38,-76.96"/>
</a>
</g>
</g>
<!-- Node32 -->
<g id="Node000032" class="node">
<title>Node32</title>
<g id="a_Node000032"><a xlink:href="_v_i_c_u_s___daily_cycle_8h.html" target="_top" xlink:title=" ">
<polygon fill="white" stroke="#666666" points="1205.5,-79.5 1095.5,-79.5 1095.5,-60.5 1205.5,-60.5 1205.5,-79.5"/>
<text text-anchor="middle" x="1150.5" y="-67.5" font-family="Helvetica,sans-Serif" font-size="10.00">VICUS_DailyCycle.h</text>
</a>
</g>
</g>
<!-- Node31&#45;&gt;Node32 -->
<g id="edge57_Node000031_Node000032" class="edge">
<title>Node31&#45;&gt;Node32</title>
<g id="a_edge57_Node000031_Node000032"><a xlink:title=" ">
<path fill="none" stroke="#63b8ff" d="M1509.43,-120.99C1431.1,-110.08 1295.83,-91.24 1215.6,-80.07"/>
<polygon fill="#63b8ff" stroke="#63b8ff" points="1216.01,-76.59 1205.62,-78.68 1215.04,-83.52 1216.01,-76.59"/>
</a>
</g>
</g>
<!-- Node32&#45;&gt;Node5 -->
<g id="edge59_Node000032_Node000005" class="edge">
<title>Node32&#45;&gt;Node5</title>
<g id="a_edge59_Node000032_Node000005"><a xlink:title=" ">
<path fill="none" stroke="#63b8ff" d="M1121.42,-60.49C1086.61,-50.31 1028.18,-33.22 989.49,-21.9"/>
<polygon fill="#63b8ff" stroke="#63b8ff" points="990.2,-18.46 979.62,-19.02 988.23,-25.18 990.2,-18.46"/>
</a>
</g>
</g>
<!-- Node32&#45;&gt;Node6 -->
<g id="edge58_Node000032_Node000006" class="edge">
<title>Node32&#45;&gt;Node6</title>
<g id="a_edge58_Node000032_Node000006"><a xlink:title=" ">
<path fill="none" stroke="#63b8ff" d="M1205.81,-65.38C1359.19,-55.36 1790.22,-27.19 1967.67,-15.59"/>
<polygon fill="#63b8ff" stroke="#63b8ff" points="1967.97,-19.08 1977.72,-14.93 1967.51,-12.09 1967.97,-19.08"/>
</a>
</g>
</g>
<!-- Node32&#45;&gt;Node8 -->
<g id="edge60_Node000032_Node000008" class="edge">
<title>Node32&#45;&gt;Node8</title>
<g id="a_edge60_Node000032_Node000008"><a xlink:title=" ">
<path fill="none" stroke="#63b8ff" d="M1112.68,-60.49C1102.59,-58.45 1091.67,-56.45 1081.5,-55 982.8,-40.95 676.58,-19.52 575.93,-12.68"/>
<polygon fill="#63b8ff" stroke="#63b8ff" points="575.98,-9.17 565.77,-11.99 575.51,-16.16 575.98,-9.17"/>
</a>
</g>
</g>
<!-- Node32&#45;&gt;Node16 -->
<g id="edge61_Node000032_Node000016" class="edge">
<title>Node32&#45;&gt;Node16</title>
<g id="a_edge61_Node000032_Node000016"><a xlink:title=" ">
<path fill="none" stroke="#63b8ff" d="M1111.2,-60.43C1101.52,-58.48 1091.16,-56.54 1081.5,-55 951.59,-34.29 795.37,-19.1 730.29,-13.2"/>
<polygon fill="#63b8ff" stroke="#63b8ff" points="730.56,-9.71 720.29,-12.3 729.94,-16.68 730.56,-9.71"/>
</a>
</g>
</g>
</g>
</svg>
