<?xml version="1.0" encoding="UTF-8" standalone="no"?>
<!DOCTYPE svg PUBLIC "-//W3C//DTD SVG 1.1//EN"
 "http://www.w3.org/Graphics/SVG/1.1/DTD/svg11.dtd">
<!-- Generated by graphviz version 2.43.0 (0)
 -->
<!-- Title: /home/hirth/git/SIM&#45;VICUS.master2/externals/Vicus/src/VICUS_AbstractDBElement.cpp Pages: 1 -->
<svg width="370pt" height="159pt"
 viewBox="0.00 0.00 370.00 159.00" xmlns="http://www.w3.org/2000/svg" xmlns:xlink="http://www.w3.org/1999/xlink">
<g id="graph0" class="graph" transform="scale(1 1) rotate(0) translate(4 155)">
<title>/home/hirth/git/SIM&#45;VICUS.master2/externals/Vicus/src/VICUS_AbstractDBElement.cpp</title>
<!-- Node1 -->
<g id="Node000001" class="node">
<title>Node1</title>
<g id="a_Node000001"><a xlink:title=" ">
<polygon fill="#999999" stroke="#666666" points="348.5,-151 142.5,-151 142.5,-110 348.5,-110 348.5,-151"/>
<text text-anchor="start" x="150.5" y="-139" font-family="Helvetica,sans-Serif" font-size="10.00">/home/hirth/git/SIM</text>
<text text-anchor="start" x="150.5" y="-128" font-family="Helvetica,sans-Serif" font-size="10.00">&#45;VICUS.master2/externals</text>
<text text-anchor="middle" x="245.5" y="-117" font-family="Helvetica,sans-Serif" font-size="10.00">/Vicus/src/VICUS_AbstractDBElement.cpp</text>
</a>
</g>
</g>
<!-- Node2 -->
<g id="Node000002" class="node">
<title>Node2</title>
<g id="a_Node000002"><a xlink:href="_v_i_c_u_s___abstract_d_b_element_8h.html" target="_top" xlink:title=" ">
<polygon fill="white" stroke="#666666" points="251,-74 102,-74 102,-55 251,-55 251,-74"/>
<text text-anchor="middle" x="176.5" y="-62" font-family="Helvetica,sans-Serif" font-size="10.00">VICUS_AbstractDBElement.h</text>
</a>
</g>
</g>
<!-- Node1&#45;&gt;Node2 -->
<g id="edge1_Node000001_Node000002" class="edge">
<title>Node1&#45;&gt;Node2</title>
<g id="a_edge1_Node000001_Node000002"><a xlink:title=" ">
<path fill="none" stroke="#63b8ff" d="M224.42,-109.95C214.49,-100.74 202.8,-89.9 193.45,-81.23"/>
<polygon fill="#63b8ff" stroke="#63b8ff" points="195.66,-78.49 185.94,-74.26 190.9,-83.63 195.66,-78.49"/>
</a>
</g>
</g>
<!-- Node6 -->
<g id="Node000006" class="node">
<title>Node6</title>
<g id="a_Node000006"><a xlink:title=" ">
<polygon fill="#e0e0e0" stroke="#999999" points="362,-74 269,-74 269,-55 362,-55 362,-74"/>
<text text-anchor="middle" x="315.5" y="-62" font-family="Helvetica,sans-Serif" font-size="10.00">QCoreApplication</text>
</a>
</g>
</g>
<!-- Node1&#45;&gt;Node6 -->
<g id="edge5_Node000001_Node000006" class="edge">
<title>Node1&#45;&gt;Node6</title>
<g id="a_edge5_Node000001_Node000006"><a xlink:title=" ">
<path fill="none" stroke="#63b8ff" d="M266.88,-109.95C276.96,-100.74 288.82,-89.9 298.3,-81.23"/>
<polygon fill="#63b8ff" stroke="#63b8ff" points="300.9,-83.59 305.92,-74.26 296.18,-78.43 300.9,-83.59"/>
</a>
</g>
</g>
<!-- Node3 -->
<g id="Node000003" class="node">
<title>Node3</title>
<g id="a_Node000003"><a xlink:title=" ">
<polygon fill="#e0e0e0" stroke="#999999" points="135,-19 0,-19 0,0 135,0 135,-19"/>
<text text-anchor="middle" x="67.5" y="-7" font-family="Helvetica,sans-Serif" font-size="10.00">IBK_MultiLanguageString.h</text>
</a>
</g>
</g>
<!-- Node2&#45;&gt;Node3 -->
<g id="edge2_Node000002_Node000003" class="edge">
<title>Node2&#45;&gt;Node3</title>
<g id="a_edge2_Node000002_Node000003"><a xlink:title=" ">
<path fill="none" stroke="#63b8ff" d="M158.99,-54.98C141.53,-46.5 114.49,-33.35 94.33,-23.54"/>
<polygon fill="#63b8ff" stroke="#63b8ff" points="95.86,-20.4 85.33,-19.17 92.79,-26.69 95.86,-20.4"/>
</a>
</g>
</g>
<!-- Node4 -->
<g id="Node000004" class="node">
<title>Node4</title>
<g id="a_Node000004"><a xlink:title=" ">
<polygon fill="#e0e0e0" stroke="#999999" points="200,-19 153,-19 153,0 200,0 200,-19"/>
<text text-anchor="middle" x="176.5" y="-7" font-family="Helvetica,sans-Serif" font-size="10.00">QColor</text>
</a>
</g>
</g>
<!-- Node2&#45;&gt;Node4 -->
<g id="edge3_Node000002_Node000004" class="edge">
<title>Node2&#45;&gt;Node4</title>
<g id="a_edge3_Node000002_Node000004"><a xlink:title=" ">
<path fill="none" stroke="#63b8ff" d="M176.5,-54.75C176.5,-47.8 176.5,-37.85 176.5,-29.13"/>
<polygon fill="#63b8ff" stroke="#63b8ff" points="180,-29.09 176.5,-19.09 173,-29.09 180,-29.09"/>
</a>
</g>
</g>
<!-- Node5 -->
<g id="Node000005" class="node">
<title>Node5</title>
<g id="a_Node000005"><a xlink:href="_v_i_c_u_s___constants_8h.html" target="_top" xlink:title="Contains global constants for the SIM&#45;VICUS data model.">
<polygon fill="white" stroke="#666666" points="325,-19 218,-19 218,0 325,0 325,-19"/>
<text text-anchor="middle" x="271.5" y="-7" font-family="Helvetica,sans-Serif" font-size="10.00">VICUS_Constants.h</text>
</a>
</g>
</g>
<!-- Node2&#45;&gt;Node5 -->
<g id="edge4_Node000002_Node000005" class="edge">
<title>Node2&#45;&gt;Node5</title>
<g id="a_edge4_Node000002_Node000005"><a xlink:title=" ">
<path fill="none" stroke="#63b8ff" d="M191.76,-54.98C206.63,-46.69 229.48,-33.94 246.92,-24.22"/>
<polygon fill="#63b8ff" stroke="#63b8ff" points="248.93,-27.1 255.96,-19.17 245.52,-20.99 248.93,-27.1"/>
</a>
</g>
</g>
</g>
</svg>
