<?xml version="1.0" encoding="UTF-8" standalone="no"?>
<!DOCTYPE svg PUBLIC "-//W3C//DTD SVG 1.1//EN"
 "http://www.w3.org/Graphics/SVG/1.1/DTD/svg11.dtd">
<!-- Generated by graphviz version 2.43.0 (0)
 -->
<!-- Title: /home/hirth/git/SIM&#45;VICUS.master2/externals/Vicus/src/VICUS_Room.h Pages: 1 -->
<svg width="1285pt" height="280pt"
 viewBox="0.00 0.00 1284.65 280.00" xmlns="http://www.w3.org/2000/svg" xmlns:xlink="http://www.w3.org/1999/xlink">
<g id="graph0" class="graph" transform="scale(1 1) rotate(0) translate(4 276)">
<title>/home/hirth/git/SIM&#45;VICUS.master2/externals/Vicus/src/VICUS_Room.h</title>
<!-- Node1 -->
<g id="Node000001" class="node">
<title>Node1</title>
<g id="a_Node000001"><a xlink:title=" ">
<polygon fill="#999999" stroke="#666666" points="615.15,-272 480.15,-272 480.15,-231 615.15,-231 615.15,-272"/>
<text text-anchor="start" x="488.15" y="-260" font-family="Helvetica,sans-Serif" font-size="10.00">/home/hirth/git/SIM</text>
<text text-anchor="start" x="488.15" y="-249" font-family="Helvetica,sans-Serif" font-size="10.00">&#45;VICUS.master2/externals</text>
<text text-anchor="middle" x="547.65" y="-238" font-family="Helvetica,sans-Serif" font-size="10.00">/Vicus/src/VICUS_Room.h</text>
</a>
</g>
</g>
<!-- Node2 -->
<g id="Node000002" class="node">
<title>Node2</title>
<g id="a_Node000002"><a xlink:href="_v_i_c_u_s___code_gen_macros_8h.html" target="_top" xlink:title=" ">
<polygon fill="white" stroke="#666666" points="892.15,-19 757.15,-19 757.15,0 892.15,0 892.15,-19"/>
<text text-anchor="middle" x="824.65" y="-7" font-family="Helvetica,sans-Serif" font-size="10.00">VICUS_CodeGenMacros.h</text>
</a>
</g>
</g>
<!-- Node1&#45;&gt;Node2 -->
<g id="edge1_Node000001_Node000002" class="edge">
<title>Node1&#45;&gt;Node2</title>
<g id="a_edge1_Node000001_Node000002"><a xlink:title=" ">
<path fill="none" stroke="#63b8ff" d="M615.17,-249.94C693.89,-245.21 820.94,-224.04 881.65,-140 908.38,-103.01 866.3,-51.51 841.2,-26.04"/>
<polygon fill="#63b8ff" stroke="#63b8ff" points="843.64,-23.52 834.05,-19.01 838.73,-28.52 843.64,-23.52"/>
</a>
</g>
</g>
<!-- Node3 -->
<g id="Node000003" class="node">
<title>Node3</title>
<g id="a_Node000003"><a xlink:href="_v_i_c_u_s___constants_8h.html" target="_top" xlink:title="Contains global constants for the SIM&#45;VICUS data model.">
<polygon fill="white" stroke="#666666" points="487.15,-19 380.15,-19 380.15,0 487.15,0 487.15,-19"/>
<text text-anchor="middle" x="433.65" y="-7" font-family="Helvetica,sans-Serif" font-size="10.00">VICUS_Constants.h</text>
</a>
</g>
</g>
<!-- Node1&#45;&gt;Node3 -->
<g id="edge2_Node000001_Node000003" class="edge">
<title>Node1&#45;&gt;Node3</title>
<g id="a_edge2_Node000001_Node000003"><a xlink:title=" ">
<path fill="none" stroke="#63b8ff" d="M479.9,-241.42C346.3,-221.78 58.27,-170.09 17.65,-85 11.91,-72.97 8.74,-64.92 17.65,-55 40.75,-29.3 259.4,-17.22 370.1,-12.71"/>
<polygon fill="#63b8ff" stroke="#63b8ff" points="370.29,-16.2 380.14,-12.31 370.01,-9.21 370.29,-16.2"/>
</a>
</g>
</g>
<!-- Node4 -->
<g id="Node000004" class="node">
<title>Node4</title>
<g id="a_Node000004"><a xlink:href="_v_i_c_u_s___surface_8h.html" target="_top" xlink:title=" ">
<polygon fill="white" stroke="#666666" points="557.15,-195 462.15,-195 462.15,-176 557.15,-176 557.15,-195"/>
<text text-anchor="middle" x="509.65" y="-183" font-family="Helvetica,sans-Serif" font-size="10.00">VICUS_Surface.h</text>
</a>
</g>
</g>
<!-- Node1&#45;&gt;Node4 -->
<g id="edge3_Node000001_Node000004" class="edge">
<title>Node1&#45;&gt;Node4</title>
<g id="a_edge3_Node000001_Node000004"><a xlink:title=" ">
<path fill="none" stroke="#63b8ff" d="M536.05,-230.95C530.96,-222.39 525.04,-212.42 520.1,-204.1"/>
<polygon fill="#63b8ff" stroke="#63b8ff" points="522.97,-202.07 514.86,-195.26 516.95,-205.65 522.97,-202.07"/>
</a>
</g>
</g>
<!-- Node7 -->
<g id="Node000007" class="node">
<title>Node7</title>
<g id="a_Node000007"><a xlink:href="_v_i_c_u_s___object_8h.html" target="_top" xlink:title=" ">
<polygon fill="white" stroke="#666666" points="630.65,-79.5 540.65,-79.5 540.65,-60.5 630.65,-60.5 630.65,-79.5"/>
<text text-anchor="middle" x="585.65" y="-67.5" font-family="Helvetica,sans-Serif" font-size="10.00">VICUS_Object.h</text>
</a>
</g>
</g>
<!-- Node1&#45;&gt;Node7 -->
<g id="edge39_Node000001_Node000007" class="edge">
<title>Node1&#45;&gt;Node7</title>
<g id="a_edge39_Node000001_Node000007"><a xlink:title=" ">
<path fill="none" stroke="#63b8ff" d="M555.29,-230.98C559.16,-220.45 563.66,-207.16 566.65,-195 575.72,-158.12 581.25,-113.95 583.85,-89.53"/>
<polygon fill="#63b8ff" stroke="#63b8ff" points="587.34,-89.83 584.88,-79.52 580.38,-89.11 587.34,-89.83"/>
</a>
</g>
</g>
<!-- Node10 -->
<g id="Node000010" class="node">
<title>Node10</title>
<g id="a_Node000010"><a xlink:title=" ">
<polygon fill="#e0e0e0" stroke="#999999" points="171.65,-19 121.65,-19 121.65,0 171.65,0 171.65,-19"/>
<text text-anchor="middle" x="146.65" y="-7" font-family="Helvetica,sans-Serif" font-size="10.00">QString</text>
</a>
</g>
</g>
<!-- Node1&#45;&gt;Node10 -->
<g id="edge40_Node000001_Node000010" class="edge">
<title>Node1&#45;&gt;Node10</title>
<g id="a_edge40_Node000001_Node000010"><a xlink:title=" ">
<path fill="none" stroke="#63b8ff" d="M479.98,-245.84C404.53,-239.41 279.47,-225 175.65,-195 117.34,-178.15 98.36,-177.53 50.65,-140 17.54,-113.95 -16.15,-89.06 8.65,-55 31.99,-22.96 78.82,-13.5 111.43,-10.96"/>
<polygon fill="#63b8ff" stroke="#63b8ff" points="111.69,-14.45 121.46,-10.36 111.27,-7.46 111.69,-14.45"/>
</a>
</g>
</g>
<!-- Node22 -->
<g id="Node000022" class="node">
<title>Node22</title>
<g id="a_Node000022"><a xlink:title=" ">
<polygon fill="#e0e0e0" stroke="#999999" points="1020.15,-195 929.15,-195 929.15,-176 1020.15,-176 1020.15,-195"/>
<text text-anchor="middle" x="974.65" y="-183" font-family="Helvetica,sans-Serif" font-size="10.00">IBK_Parameter.h</text>
</a>
</g>
</g>
<!-- Node1&#45;&gt;Node22 -->
<g id="edge41_Node000001_Node000022" class="edge">
<title>Node1&#45;&gt;Node22</title>
<g id="a_edge41_Node000001_Node000022"><a xlink:title=" ">
<path fill="none" stroke="#63b8ff" d="M615.31,-240.36C699.26,-227.78 840.83,-206.56 918.86,-194.86"/>
<polygon fill="#63b8ff" stroke="#63b8ff" points="919.6,-198.29 928.97,-193.35 918.57,-191.37 919.6,-198.29"/>
</a>
</g>
</g>
<!-- Node4&#45;&gt;Node2 -->
<g id="edge4_Node000004_Node000002" class="edge">
<title>Node4&#45;&gt;Node2</title>
<g id="a_edge4_Node000004_Node000002"><a xlink:title=" ">
<path fill="none" stroke="#63b8ff" d="M546.09,-175.97C614.84,-159.23 760.11,-120.61 796.65,-85 811.93,-70.11 818.96,-46.09 822.14,-29.36"/>
<polygon fill="#63b8ff" stroke="#63b8ff" points="825.65,-29.58 823.78,-19.15 818.74,-28.47 825.65,-29.58"/>
</a>
</g>
</g>
<!-- Node4&#45;&gt;Node3 -->
<g id="edge5_Node000004_Node000003" class="edge">
<title>Node4&#45;&gt;Node3</title>
<g id="a_edge5_Node000004_Node000003"><a xlink:title=" ">
<path fill="none" stroke="#63b8ff" d="M461.91,-182.15C350.98,-175.59 81.18,-152.83 27.65,-85 19.39,-74.53 18.75,-64.93 27.65,-55 50.03,-30.03 260.98,-17.67 369.63,-12.91"/>
<polygon fill="#63b8ff" stroke="#63b8ff" points="369.98,-16.4 379.82,-12.47 369.68,-9.41 369.98,-16.4"/>
</a>
</g>
</g>
<!-- Node5 -->
<g id="Node000005" class="node">
<title>Node5</title>
<g id="a_Node000005"><a xlink:href="_v_i_c_u_s___plane_geometry_8h.html" target="_top" xlink:title=" ">
<polygon fill="white" stroke="#666666" points="872.65,-140 744.65,-140 744.65,-121 872.65,-121 872.65,-140"/>
<text text-anchor="middle" x="808.65" y="-128" font-family="Helvetica,sans-Serif" font-size="10.00">VICUS_PlaneGeometry.h</text>
</a>
</g>
</g>
<!-- Node4&#45;&gt;Node5 -->
<g id="edge6_Node000004_Node000005" class="edge">
<title>Node4&#45;&gt;Node5</title>
<g id="a_edge6_Node000004_Node000005"><a xlink:title=" ">
<path fill="none" stroke="#63b8ff" d="M557.36,-176.04C609.82,-166.74 694.13,-151.8 750.45,-141.82"/>
<polygon fill="#63b8ff" stroke="#63b8ff" points="751.38,-145.21 760.62,-140.01 750.16,-138.31 751.38,-145.21"/>
</a>
</g>
</g>
<!-- Node4&#45;&gt;Node7 -->
<g id="edge23_Node000004_Node000007" class="edge">
<title>Node4&#45;&gt;Node7</title>
<g id="a_edge23_Node000004_Node000007"><a xlink:title=" ">
<path fill="none" stroke="#63b8ff" d="M515.37,-175.97C527.85,-157.32 557.79,-112.61 574.28,-87.99"/>
<polygon fill="#63b8ff" stroke="#63b8ff" points="577.22,-89.89 579.87,-79.63 571.4,-85.99 577.22,-89.89"/>
</a>
</g>
</g>
<!-- Node4&#45;&gt;Node10 -->
<g id="edge37_Node000004_Node000010" class="edge">
<title>Node4&#45;&gt;Node10</title>
<g id="a_edge37_Node000004_Node000010"><a xlink:title=" ">
<path fill="none" stroke="#63b8ff" d="M462.11,-182.9C366.16,-179.11 152.76,-167.77 85.65,-140 40.95,-121.5 -10.43,-94.39 17.65,-55 38.75,-25.41 80.89,-15.3 111.27,-11.95"/>
<polygon fill="#63b8ff" stroke="#63b8ff" points="111.83,-15.42 121.48,-11.03 111.2,-8.45 111.83,-15.42"/>
</a>
</g>
</g>
<!-- Node11 -->
<g id="Node000011" class="node">
<title>Node11</title>
<g id="a_Node000011"><a xlink:href="_v_i_c_u_s___polygon3_d_8h.html" target="_top" xlink:title=" ">
<polygon fill="white" stroke="#666666" points="1228.65,-79.5 1118.65,-79.5 1118.65,-60.5 1228.65,-60.5 1228.65,-79.5"/>
<text text-anchor="middle" x="1173.65" y="-67.5" font-family="Helvetica,sans-Serif" font-size="10.00">VICUS_Polygon3D.h</text>
</a>
</g>
</g>
<!-- Node4&#45;&gt;Node11 -->
<g id="edge34_Node000004_Node000011" class="edge">
<title>Node4&#45;&gt;Node11</title>
<g id="a_edge34_Node000004_Node000011"><a xlink:title=" ">
<path fill="none" stroke="#63b8ff" d="M557.18,-180.55C628.15,-174.26 765.89,-160.53 881.65,-140 972.19,-123.94 1076.7,-97.22 1132.87,-82.18"/>
<polygon fill="#63b8ff" stroke="#63b8ff" points="1134.03,-85.49 1142.78,-79.51 1132.21,-78.73 1134.03,-85.49"/>
</a>
</g>
</g>
<!-- Node17 -->
<g id="Node000017" class="node">
<title>Node17</title>
<g id="a_Node000017"><a xlink:href="_v_i_c_u_s___sub_surface_8h.html" target="_top" xlink:title=" ">
<polygon fill="white" stroke="#666666" points="481.15,-140 368.15,-140 368.15,-121 481.15,-121 481.15,-140"/>
<text text-anchor="middle" x="424.65" y="-128" font-family="Helvetica,sans-Serif" font-size="10.00">VICUS_SubSurface.h</text>
</a>
</g>
</g>
<!-- Node4&#45;&gt;Node17 -->
<g id="edge24_Node000004_Node000017" class="edge">
<title>Node4&#45;&gt;Node17</title>
<g id="a_edge24_Node000004_Node000017"><a xlink:title=" ">
<path fill="none" stroke="#63b8ff" d="M496,-175.98C482.82,-167.77 462.63,-155.18 447.08,-145.49"/>
<polygon fill="#63b8ff" stroke="#63b8ff" points="448.9,-142.49 438.56,-140.17 445.19,-148.43 448.9,-142.49"/>
</a>
</g>
</g>
<!-- Node18 -->
<g id="Node000018" class="node">
<title>Node18</title>
<g id="a_Node000018"><a xlink:title=" ">
<polygon fill="#e0e0e0" stroke="#999999" points="176.15,-79.5 37.15,-79.5 37.15,-60.5 176.15,-60.5 176.15,-79.5"/>
<text text-anchor="middle" x="106.65" y="-67.5" font-family="Helvetica,sans-Serif" font-size="10.00">NANDRAD_IDVectorMap.h</text>
</a>
</g>
</g>
<!-- Node4&#45;&gt;Node18 -->
<g id="edge36_Node000004_Node000018" class="edge">
<title>Node4&#45;&gt;Node18</title>
<g id="a_edge36_Node000004_Node000018"><a xlink:title=" ">
<path fill="none" stroke="#63b8ff" d="M468.63,-175.93C429.98,-167.6 370.57,-154.18 319.65,-140 255.66,-122.17 182.17,-97.4 140.4,-82.89"/>
<polygon fill="#63b8ff" stroke="#63b8ff" points="141.33,-79.51 130.73,-79.53 139.02,-86.12 141.33,-79.51"/>
</a>
</g>
</g>
<!-- Node19 -->
<g id="Node000019" class="node">
<title>Node19</title>
<g id="a_Node000019"><a xlink:title=" ">
<polygon fill="#e0e0e0" stroke="#999999" points="294.65,-79.5 194.65,-79.5 194.65,-60.5 294.65,-60.5 294.65,-79.5"/>
<text text-anchor="middle" x="244.65" y="-67.5" font-family="Helvetica,sans-Serif" font-size="10.00">IBK_LinearSpline.h</text>
</a>
</g>
</g>
<!-- Node4&#45;&gt;Node19 -->
<g id="edge35_Node000004_Node000019" class="edge">
<title>Node4&#45;&gt;Node19</title>
<g id="a_edge35_Node000004_Node000019"><a xlink:title=" ">
<path fill="none" stroke="#63b8ff" d="M471.42,-175.99C440.54,-168.45 396.33,-156.13 359.65,-140 324.63,-124.59 287.17,-100.53 264.85,-85.27"/>
<polygon fill="#63b8ff" stroke="#63b8ff" points="266.74,-82.33 256.53,-79.52 262.76,-88.08 266.74,-82.33"/>
</a>
</g>
</g>
<!-- Node21 -->
<g id="Node000021" class="node">
<title>Node21</title>
<g id="a_Node000021"><a xlink:title=" ">
<polygon fill="#e0e0e0" stroke="#999999" points="522.15,-79.5 475.15,-79.5 475.15,-60.5 522.15,-60.5 522.15,-79.5"/>
<text text-anchor="middle" x="498.65" y="-67.5" font-family="Helvetica,sans-Serif" font-size="10.00">QColor</text>
</a>
</g>
</g>
<!-- Node4&#45;&gt;Node21 -->
<g id="edge38_Node000004_Node000021" class="edge">
<title>Node4&#45;&gt;Node21</title>
<g id="a_edge38_Node000004_Node000021"><a xlink:title=" ">
<path fill="none" stroke="#63b8ff" d="M508.83,-175.97C507.06,-157.73 502.88,-114.57 500.46,-89.64"/>
<polygon fill="#63b8ff" stroke="#63b8ff" points="503.94,-89.25 499.49,-79.63 496.97,-89.92 503.94,-89.25"/>
</a>
</g>
</g>
<!-- Node5&#45;&gt;Node2 -->
<g id="edge8_Node000005_Node000002" class="edge">
<title>Node5&#45;&gt;Node2</title>
<g id="a_edge8_Node000005_Node000002"><a xlink:title=" ">
<path fill="none" stroke="#63b8ff" d="M816.87,-120.8C824.19,-112.38 834.41,-98.9 838.65,-85 844.4,-66.18 838.66,-43.94 832.89,-28.68"/>
<polygon fill="#63b8ff" stroke="#63b8ff" points="836.09,-27.27 829.03,-19.37 829.63,-29.95 836.09,-27.27"/>
</a>
</g>
</g>
<!-- Node6 -->
<g id="Node000006" class="node">
<title>Node6</title>
<g id="a_Node000006"><a xlink:title=" ">
<polygon fill="#e0e0e0" stroke="#999999" points="1013.15,-19 910.15,-19 910.15,0 1013.15,0 1013.15,-19"/>
<text text-anchor="middle" x="961.65" y="-7" font-family="Helvetica,sans-Serif" font-size="10.00">IBKMK_Vector3D.h</text>
</a>
</g>
</g>
<!-- Node5&#45;&gt;Node6 -->
<g id="edge7_Node000005_Node000006" class="edge">
<title>Node5&#45;&gt;Node6</title>
<g id="a_edge7_Node000005_Node000006"><a xlink:title=" ">
<path fill="none" stroke="#63b8ff" d="M819.66,-120.94C845.34,-100.97 909.5,-51.06 942.05,-25.75"/>
<polygon fill="#63b8ff" stroke="#63b8ff" points="944.59,-28.2 950.34,-19.3 940.29,-22.68 944.59,-28.2"/>
</a>
</g>
</g>
<!-- Node5&#45;&gt;Node7 -->
<g id="edge9_Node000005_Node000007" class="edge">
<title>Node5&#45;&gt;Node7</title>
<g id="a_edge9_Node000005_Node000007"><a xlink:title=" ">
<path fill="none" stroke="#63b8ff" d="M776.23,-120.99C737.09,-110.73 671.16,-93.43 628.03,-82.12"/>
<polygon fill="#63b8ff" stroke="#63b8ff" points="628.68,-78.67 618.12,-79.52 626.9,-85.44 628.68,-78.67"/>
</a>
</g>
</g>
<!-- Node5&#45;&gt;Node11 -->
<g id="edge14_Node000005_Node000011" class="edge">
<title>Node5&#45;&gt;Node11</title>
<g id="a_edge14_Node000005_Node000011"><a xlink:title=" ">
<path fill="none" stroke="#63b8ff" d="M872.87,-121.31C933.95,-113.2 1028.33,-99.89 1109.65,-85 1115.18,-83.99 1120.95,-82.85 1126.67,-81.66"/>
<polygon fill="#63b8ff" stroke="#63b8ff" points="1127.8,-85 1136.85,-79.5 1126.34,-78.15 1127.8,-85"/>
</a>
</g>
</g>
<!-- Node13 -->
<g id="Node000013" class="node">
<title>Node13</title>
<g id="a_Node000013"><a xlink:href="_v_i_c_u_s___polygon2_d_8h.html" target="_top" xlink:title=" ">
<polygon fill="white" stroke="#666666" points="758.65,-79.5 648.65,-79.5 648.65,-60.5 758.65,-60.5 758.65,-79.5"/>
<text text-anchor="middle" x="703.65" y="-67.5" font-family="Helvetica,sans-Serif" font-size="10.00">VICUS_Polygon2D.h</text>
</a>
</g>
</g>
<!-- Node5&#45;&gt;Node13 -->
<g id="edge17_Node000005_Node000013" class="edge">
<title>Node5&#45;&gt;Node13</title>
<g id="a_edge17_Node000005_Node000013"><a xlink:title=" ">
<path fill="none" stroke="#63b8ff" d="M793.16,-120.87C776.02,-111.32 748.18,-95.81 728.1,-84.62"/>
<polygon fill="#63b8ff" stroke="#63b8ff" points="729.65,-81.48 719.21,-79.67 726.24,-87.59 729.65,-81.48"/>
</a>
</g>
</g>
<!-- Node15 -->
<g id="Node000015" class="node">
<title>Node15</title>
<g id="a_Node000015"><a xlink:href="_v_i_c_u_s___plane_triangulation_data_8h.html" target="_top" xlink:title=" ">
<polygon fill="white" stroke="#666666" points="1100.65,-85 966.65,-85 966.65,-55 1100.65,-55 1100.65,-85"/>
<text text-anchor="start" x="974.65" y="-73" font-family="Helvetica,sans-Serif" font-size="10.00">VICUS_PlaneTriangulation</text>
<text text-anchor="middle" x="1033.65" y="-62" font-family="Helvetica,sans-Serif" font-size="10.00">Data.h</text>
</a>
</g>
</g>
<!-- Node5&#45;&gt;Node15 -->
<g id="edge20_Node000005_Node000015" class="edge">
<title>Node5&#45;&gt;Node15</title>
<g id="a_edge20_Node000005_Node000015"><a xlink:title=" ">
<path fill="none" stroke="#63b8ff" d="M841.37,-120.99C874.88,-112.28 927.85,-98.51 969.72,-87.62"/>
<polygon fill="#63b8ff" stroke="#63b8ff" points="970.76,-90.97 979.56,-85.06 969,-84.19 970.76,-90.97"/>
</a>
</g>
</g>
<!-- Node7&#45;&gt;Node3 -->
<g id="edge13_Node000007_Node000003" class="edge">
<title>Node7&#45;&gt;Node3</title>
<g id="a_edge13_Node000007_Node000003"><a xlink:title=" ">
<path fill="none" stroke="#63b8ff" d="M563.55,-60.49C537.66,-50.53 494.57,-33.95 465.18,-22.63"/>
<polygon fill="#63b8ff" stroke="#63b8ff" points="466.37,-19.34 455.78,-19.02 463.86,-25.88 466.37,-19.34"/>
</a>
</g>
</g>
<!-- Node8 -->
<g id="Node000008" class="node">
<title>Node8</title>
<g id="a_Node000008"><a xlink:title=" ">
<polygon fill="#e0e0e0" stroke="#999999" points="557.65,-19 513.65,-19 513.65,0 557.65,0 557.65,-19"/>
<text text-anchor="middle" x="535.65" y="-7" font-family="Helvetica,sans-Serif" font-size="10.00">vector</text>
</a>
</g>
</g>
<!-- Node7&#45;&gt;Node8 -->
<g id="edge10_Node000007_Node000008" class="edge">
<title>Node7&#45;&gt;Node8</title>
<g id="a_edge10_Node000007_Node000008"><a xlink:title=" ">
<path fill="none" stroke="#63b8ff" d="M578.28,-60.37C570.74,-51.55 558.87,-37.66 549.56,-26.77"/>
<polygon fill="#63b8ff" stroke="#63b8ff" points="552.22,-24.5 543.06,-19.17 546.9,-29.04 552.22,-24.5"/>
</a>
</g>
</g>
<!-- Node9 -->
<g id="Node000009" class="node">
<title>Node9</title>
<g id="a_Node000009"><a xlink:title=" ">
<polygon fill="#e0e0e0" stroke="#999999" points="605.65,-19 575.65,-19 575.65,0 605.65,0 605.65,-19"/>
<text text-anchor="middle" x="590.65" y="-7" font-family="Helvetica,sans-Serif" font-size="10.00">set</text>
</a>
</g>
</g>
<!-- Node7&#45;&gt;Node9 -->
<g id="edge11_Node000007_Node000009" class="edge">
<title>Node7&#45;&gt;Node9</title>
<g id="a_edge11_Node000007_Node000009"><a xlink:title=" ">
<path fill="none" stroke="#63b8ff" d="M586.39,-60.37C587.09,-52.25 588.15,-39.81 589.04,-29.39"/>
<polygon fill="#63b8ff" stroke="#63b8ff" points="592.55,-29.43 589.91,-19.17 585.57,-28.83 592.55,-29.43"/>
</a>
</g>
</g>
<!-- Node7&#45;&gt;Node10 -->
<g id="edge12_Node000007_Node000010" class="edge">
<title>Node7&#45;&gt;Node10</title>
<g id="a_edge12_Node000007_Node000010"><a xlink:title=" ">
<path fill="none" stroke="#63b8ff" d="M555.83,-60.48C548.01,-58.46 539.56,-56.47 531.65,-55 404.2,-31.23 250.49,-18.03 182.26,-12.96"/>
<polygon fill="#63b8ff" stroke="#63b8ff" points="182.29,-9.45 172.06,-12.21 181.78,-16.43 182.29,-9.45"/>
</a>
</g>
</g>
<!-- Node11&#45;&gt;Node2 -->
<g id="edge16_Node000011_Node000002" class="edge">
<title>Node11&#45;&gt;Node2</title>
<g id="a_edge16_Node000011_Node000002"><a xlink:title=" ">
<path fill="none" stroke="#63b8ff" d="M1136.5,-60.48C1127.72,-58.57 1118.37,-56.63 1109.65,-55 1037.33,-41.46 954.15,-28.8 896.39,-20.47"/>
<polygon fill="#63b8ff" stroke="#63b8ff" points="896.66,-16.98 886.27,-19.02 895.67,-23.91 896.66,-16.98"/>
</a>
</g>
</g>
<!-- Node12 -->
<g id="Node000012" class="node">
<title>Node12</title>
<g id="a_Node000012"><a xlink:title=" ">
<polygon fill="#e0e0e0" stroke="#999999" points="1276.65,-19 1166.65,-19 1166.65,0 1276.65,0 1276.65,-19"/>
<text text-anchor="middle" x="1221.65" y="-7" font-family="Helvetica,sans-Serif" font-size="10.00">IBKMK_Polygon3D.h</text>
</a>
</g>
</g>
<!-- Node11&#45;&gt;Node12 -->
<g id="edge15_Node000011_Node000012" class="edge">
<title>Node11&#45;&gt;Node12</title>
<g id="a_edge15_Node000011_Node000012"><a xlink:title=" ">
<path fill="none" stroke="#63b8ff" d="M1180.74,-60.37C1187.9,-51.64 1199.15,-37.93 1208.04,-27.09"/>
<polygon fill="#63b8ff" stroke="#63b8ff" points="1210.9,-29.12 1214.54,-19.17 1205.49,-24.68 1210.9,-29.12"/>
</a>
</g>
</g>
<!-- Node13&#45;&gt;Node2 -->
<g id="edge19_Node000013_Node000002" class="edge">
<title>Node13&#45;&gt;Node2</title>
<g id="a_edge19_Node000013_Node000002"><a xlink:title=" ">
<path fill="none" stroke="#63b8ff" d="M721.25,-60.49C741.41,-50.75 774.67,-34.66 798.01,-23.38"/>
<polygon fill="#63b8ff" stroke="#63b8ff" points="799.56,-26.52 807.04,-19.02 796.51,-20.22 799.56,-26.52"/>
</a>
</g>
</g>
<!-- Node14 -->
<g id="Node000014" class="node">
<title>Node14</title>
<g id="a_Node000014"><a xlink:title=" ">
<polygon fill="#e0e0e0" stroke="#999999" points="738.65,-19 628.65,-19 628.65,0 738.65,0 738.65,-19"/>
<text text-anchor="middle" x="683.65" y="-7" font-family="Helvetica,sans-Serif" font-size="10.00">IBKMK_Polygon2D.h</text>
</a>
</g>
</g>
<!-- Node13&#45;&gt;Node14 -->
<g id="edge18_Node000013_Node000014" class="edge">
<title>Node13&#45;&gt;Node14</title>
<g id="a_edge18_Node000013_Node000014"><a xlink:title=" ">
<path fill="none" stroke="#63b8ff" d="M700.7,-60.37C697.87,-52.07 693.49,-39.28 689.88,-28.72"/>
<polygon fill="#63b8ff" stroke="#63b8ff" points="693.16,-27.5 686.62,-19.17 686.54,-29.76 693.16,-27.5"/>
</a>
</g>
</g>
<!-- Node15&#45;&gt;Node6 -->
<g id="edge21_Node000015_Node000006" class="edge">
<title>Node15&#45;&gt;Node6</title>
<g id="a_edge21_Node000015_Node000006"><a xlink:title=" ">
<path fill="none" stroke="#63b8ff" d="M1016.22,-54.84C1005.35,-46 991.35,-34.63 980.26,-25.62"/>
<polygon fill="#63b8ff" stroke="#63b8ff" points="982.41,-22.86 972.44,-19.27 978,-28.29 982.41,-22.86"/>
</a>
</g>
</g>
<!-- Node16 -->
<g id="Node000016" class="node">
<title>Node16</title>
<g id="a_Node000016"><a xlink:title=" ">
<polygon fill="#e0e0e0" stroke="#999999" points="1148.15,-19 1031.15,-19 1031.15,0 1148.15,0 1148.15,-19"/>
<text text-anchor="middle" x="1089.65" y="-7" font-family="Helvetica,sans-Serif" font-size="10.00">IBKMK_Triangulation.h</text>
</a>
</g>
</g>
<!-- Node15&#45;&gt;Node16 -->
<g id="edge22_Node000015_Node000016" class="edge">
<title>Node15&#45;&gt;Node16</title>
<g id="a_edge22_Node000015_Node000016"><a xlink:title=" ">
<path fill="none" stroke="#63b8ff" d="M1047.21,-54.84C1055.34,-46.35 1065.7,-35.52 1074.16,-26.69"/>
<polygon fill="#63b8ff" stroke="#63b8ff" points="1076.88,-28.91 1081.26,-19.27 1071.82,-24.07 1076.88,-28.91"/>
</a>
</g>
</g>
<!-- Node17&#45;&gt;Node2 -->
<g id="edge25_Node000017_Node000002" class="edge">
<title>Node17&#45;&gt;Node2</title>
<g id="a_edge25_Node000017_Node000002"><a xlink:title=" ">
<path fill="none" stroke="#63b8ff" d="M481.16,-127.39C565.66,-123.37 720.13,-112.42 767.65,-85 790.29,-71.94 806.95,-45.97 816.23,-28.41"/>
<polygon fill="#63b8ff" stroke="#63b8ff" points="819.49,-29.72 820.83,-19.21 813.22,-26.59 819.49,-29.72"/>
</a>
</g>
</g>
<!-- Node17&#45;&gt;Node3 -->
<g id="edge26_Node000017_Node000003" class="edge">
<title>Node17&#45;&gt;Node3</title>
<g id="a_edge26_Node000017_Node000003"><a xlink:title=" ">
<path fill="none" stroke="#63b8ff" d="M425.3,-120.94C426.74,-101.91 430.24,-55.69 432.22,-29.47"/>
<polygon fill="#63b8ff" stroke="#63b8ff" points="435.72,-29.54 432.99,-19.3 428.74,-29.01 435.72,-29.54"/>
</a>
</g>
</g>
<!-- Node17&#45;&gt;Node7 -->
<g id="edge28_Node000017_Node000007" class="edge">
<title>Node17&#45;&gt;Node7</title>
<g id="a_edge28_Node000017_Node000007"><a xlink:title=" ">
<path fill="none" stroke="#63b8ff" d="M448.06,-120.99C475.61,-110.99 521.52,-94.3 552.66,-82.99"/>
<polygon fill="#63b8ff" stroke="#63b8ff" points="554.01,-86.22 562.21,-79.52 551.62,-79.64 554.01,-86.22"/>
</a>
</g>
</g>
<!-- Node17&#45;&gt;Node10 -->
<g id="edge32_Node000017_Node000010" class="edge">
<title>Node17&#45;&gt;Node10</title>
<g id="a_edge32_Node000017_Node000010"><a xlink:title=" ">
<path fill="none" stroke="#63b8ff" d="M406.65,-121C389.48,-112.62 363.12,-99.07 341.65,-85 323.66,-73.2 322.82,-64.79 303.65,-55 264.27,-34.88 214.54,-22.75 181.72,-16.35"/>
<polygon fill="#63b8ff" stroke="#63b8ff" points="182.17,-12.87 171.7,-14.47 180.88,-19.75 182.17,-12.87"/>
</a>
</g>
</g>
<!-- Node17&#45;&gt;Node13 -->
<g id="edge27_Node000017_Node000013" class="edge">
<title>Node17&#45;&gt;Node13</title>
<g id="a_edge27_Node000017_Node000013"><a xlink:title=" ">
<path fill="none" stroke="#63b8ff" d="M466.7,-120.94C510.07,-112.08 579.63,-97.78 639.65,-85 644.67,-83.93 649.9,-82.81 655.13,-81.68"/>
<polygon fill="#63b8ff" stroke="#63b8ff" points="656.06,-85.05 665.09,-79.51 654.57,-78.21 656.06,-85.05"/>
</a>
</g>
</g>
<!-- Node17&#45;&gt;Node18 -->
<g id="edge29_Node000017_Node000018" class="edge">
<title>Node17&#45;&gt;Node18</title>
<g id="a_edge29_Node000017_Node000018"><a xlink:title=" ">
<path fill="none" stroke="#63b8ff" d="M378.41,-120.99C321.3,-110.49 224.2,-92.62 162.85,-81.34"/>
<polygon fill="#63b8ff" stroke="#63b8ff" points="163.42,-77.88 152.95,-79.52 162.15,-84.77 163.42,-77.88"/>
</a>
</g>
</g>
<!-- Node17&#45;&gt;Node19 -->
<g id="edge30_Node000017_Node000019" class="edge">
<title>Node17&#45;&gt;Node19</title>
<g id="a_edge30_Node000017_Node000019"><a xlink:title=" ">
<path fill="none" stroke="#63b8ff" d="M398.48,-120.99C367.42,-110.9 315.46,-94.01 280.63,-82.69"/>
<polygon fill="#63b8ff" stroke="#63b8ff" points="281.45,-79.28 270.86,-79.52 279.29,-85.94 281.45,-79.28"/>
</a>
</g>
</g>
<!-- Node20 -->
<g id="Node000020" class="node">
<title>Node20</title>
<g id="a_Node000020"><a xlink:title=" ">
<polygon fill="#e0e0e0" stroke="#999999" points="418.65,-79.5 350.65,-79.5 350.65,-60.5 418.65,-60.5 418.65,-79.5"/>
<text text-anchor="middle" x="384.65" y="-67.5" font-family="Helvetica,sans-Serif" font-size="10.00">IBK_point.h</text>
</a>
</g>
</g>
<!-- Node17&#45;&gt;Node20 -->
<g id="edge31_Node000017_Node000020" class="edge">
<title>Node17&#45;&gt;Node20</title>
<g id="a_edge31_Node000017_Node000020"><a xlink:title=" ">
<path fill="none" stroke="#63b8ff" d="M418.75,-120.87C412.9,-112.31 403.78,-98.97 396.44,-88.24"/>
<polygon fill="#63b8ff" stroke="#63b8ff" points="399.11,-85.95 390.58,-79.67 393.33,-89.9 399.11,-85.95"/>
</a>
</g>
</g>
<!-- Node17&#45;&gt;Node21 -->
<g id="edge33_Node000017_Node000021" class="edge">
<title>Node17&#45;&gt;Node21</title>
<g id="a_edge33_Node000017_Node000021"><a xlink:title=" ">
<path fill="none" stroke="#63b8ff" d="M435.57,-120.87C447.16,-111.71 465.69,-97.06 479.67,-86.01"/>
<polygon fill="#63b8ff" stroke="#63b8ff" points="482.02,-88.61 487.69,-79.67 477.67,-83.12 482.02,-88.61"/>
</a>
</g>
</g>
</g>
</svg>
