<?xml version="1.0" encoding="UTF-8" standalone="no"?>
<!DOCTYPE svg PUBLIC "-//W3C//DTD SVG 1.1//EN"
 "http://www.w3.org/Graphics/SVG/1.1/DTD/svg11.dtd">
<!-- Generated by graphviz version 2.43.0 (0)
 -->
<!-- Title: /home/hirth/git/SIM&#45;VICUS.master2/externals/Vicus/src/VICUS_ZoneTemplate.h Pages: 1 -->
<svg width="2225pt" height="335pt"
 viewBox="0.00 0.00 2225.00 335.00" xmlns="http://www.w3.org/2000/svg" xmlns:xlink="http://www.w3.org/1999/xlink">
<g id="graph0" class="graph" transform="scale(1 1) rotate(0) translate(4 331)">
<title>/home/hirth/git/SIM&#45;VICUS.master2/externals/Vicus/src/VICUS_ZoneTemplate.h</title>
<!-- Node1 -->
<g id="Node000001" class="node">
<title>Node1</title>
<g id="a_Node000001"><a xlink:title=" ">
<polygon fill="#999999" stroke="#666666" points="984,-327 814,-327 814,-286 984,-286 984,-327"/>
<text text-anchor="start" x="822" y="-315" font-family="Helvetica,sans-Serif" font-size="10.00">/home/hirth/git/SIM</text>
<text text-anchor="start" x="822" y="-304" font-family="Helvetica,sans-Serif" font-size="10.00">&#45;VICUS.master2/externals</text>
<text text-anchor="middle" x="899" y="-293" font-family="Helvetica,sans-Serif" font-size="10.00">/Vicus/src/VICUS_ZoneTemplate.h</text>
</a>
</g>
</g>
<!-- Node2 -->
<g id="Node000002" class="node">
<title>Node2</title>
<g id="a_Node000002"><a xlink:title=" ">
<polygon fill="#e0e0e0" stroke="#999999" points="456,-184 378,-184 378,-165 456,-165 456,-184"/>
<text text-anchor="middle" x="417" y="-172" font-family="Helvetica,sans-Serif" font-size="10.00">IBK_IntPara.h</text>
</a>
</g>
</g>
<!-- Node1&#45;&gt;Node2 -->
<g id="edge1_Node000001_Node000002" class="edge">
<title>Node1&#45;&gt;Node2</title>
<g id="a_edge1_Node000001_Node000002"><a xlink:title=" ">
<path fill="none" stroke="#63b8ff" d="M813.81,-286.03C770.34,-275.82 716.71,-262.8 669,-250 592.07,-229.36 502.87,-202.22 453.91,-187.05"/>
<polygon fill="#63b8ff" stroke="#63b8ff" points="454.68,-183.63 444.09,-184 452.61,-190.31 454.68,-183.63"/>
</a>
</g>
</g>
<!-- Node3 -->
<g id="Node000003" class="node">
<title>Node3</title>
<g id="a_Node000003"><a xlink:title=" ">
<polygon fill="#e0e0e0" stroke="#999999" points="653.5,-74 606.5,-74 606.5,-55 653.5,-55 653.5,-74"/>
<text text-anchor="middle" x="630" y="-62" font-family="Helvetica,sans-Serif" font-size="10.00">QColor</text>
</a>
</g>
</g>
<!-- Node1&#45;&gt;Node3 -->
<g id="edge2_Node000001_Node000003" class="edge">
<title>Node1&#45;&gt;Node3</title>
<g id="a_edge2_Node000001_Node000003"><a xlink:title=" ">
<path fill="none" stroke="#63b8ff" d="M813.85,-299.81C609.18,-285.24 103.08,-243.47 57,-184 -11.61,-95.46 463.19,-71.53 596.09,-66.6"/>
<polygon fill="#63b8ff" stroke="#63b8ff" points="596.25,-70.09 606.12,-66.24 596,-63.1 596.25,-70.09"/>
</a>
</g>
</g>
<!-- Node4 -->
<g id="Node000004" class="node">
<title>Node4</title>
<g id="a_Node000004"><a xlink:href="_v_i_c_u_s___code_gen_macros_8h.html" target="_top" xlink:title=" ">
<polygon fill="white" stroke="#666666" points="1619.5,-19 1484.5,-19 1484.5,0 1619.5,0 1619.5,-19"/>
<text text-anchor="middle" x="1552" y="-7" font-family="Helvetica,sans-Serif" font-size="10.00">VICUS_CodeGenMacros.h</text>
</a>
</g>
</g>
<!-- Node1&#45;&gt;Node4 -->
<g id="edge3_Node000001_Node000004" class="edge">
<title>Node1&#45;&gt;Node4</title>
<g id="a_edge3_Node000001_Node000004"><a xlink:title=" ">
<path fill="none" stroke="#63b8ff" d="M984.21,-306.06C1275.98,-306.87 2217,-299.84 2217,-175.5 2217,-175.5 2217,-175.5 2217,-118.5 2217,-84.91 2204.91,-72.11 2176,-55 2130.04,-27.8 1786.38,-16.13 1629.58,-12.18"/>
<polygon fill="#63b8ff" stroke="#63b8ff" points="1629.61,-8.68 1619.53,-11.93 1629.44,-15.68 1629.61,-8.68"/>
</a>
</g>
</g>
<!-- Node5 -->
<g id="Node000005" class="node">
<title>Node5</title>
<g id="a_Node000005"><a xlink:href="_v_i_c_u_s___constants_8h.html" target="_top" xlink:title="Contains global constants for the SIM&#45;VICUS data model.">
<polygon fill="white" stroke="#666666" points="936.5,-19 829.5,-19 829.5,0 936.5,0 936.5,-19"/>
<text text-anchor="middle" x="883" y="-7" font-family="Helvetica,sans-Serif" font-size="10.00">VICUS_Constants.h</text>
</a>
</g>
</g>
<!-- Node1&#45;&gt;Node5 -->
<g id="edge4_Node000001_Node000005" class="edge">
<title>Node1&#45;&gt;Node5</title>
<g id="a_edge4_Node000001_Node000005"><a xlink:title=" ">
<path fill="none" stroke="#63b8ff" d="M813.92,-303.5C644.07,-298.82 268.67,-284.77 145,-250 75.25,-230.39 0,-247.95 0,-175.5 0,-175.5 0,-175.5 0,-118.5 0,-35.91 616.49,-15.94 819.23,-11.6"/>
<polygon fill="#63b8ff" stroke="#63b8ff" points="819.5,-15.1 829.42,-11.39 819.35,-8.1 819.5,-15.1"/>
</a>
</g>
</g>
<!-- Node6 -->
<g id="Node000006" class="node">
<title>Node6</title>
<g id="a_Node000006"><a xlink:href="_v_i_c_u_s___abstract_d_b_element_8h.html" target="_top" xlink:title=" ">
<polygon fill="white" stroke="#666666" points="1144.5,-129 995.5,-129 995.5,-110 1144.5,-110 1144.5,-129"/>
<text text-anchor="middle" x="1070" y="-117" font-family="Helvetica,sans-Serif" font-size="10.00">VICUS_AbstractDBElement.h</text>
</a>
</g>
</g>
<!-- Node1&#45;&gt;Node6 -->
<g id="edge5_Node000001_Node000006" class="edge">
<title>Node1&#45;&gt;Node6</title>
<g id="a_edge5_Node000001_Node000006"><a xlink:title=" ">
<path fill="none" stroke="#63b8ff" d="M984.34,-301.79C1064.33,-296.32 1175.6,-282.86 1203,-250 1241.88,-203.38 1151.54,-155.26 1101.09,-133.08"/>
<polygon fill="#63b8ff" stroke="#63b8ff" points="1102.45,-129.85 1091.88,-129.12 1099.69,-136.29 1102.45,-129.85"/>
</a>
</g>
</g>
<!-- Node8 -->
<g id="Node000008" class="node">
<title>Node8</title>
<g id="a_Node000008"><a xlink:href="_v_i_c_u_s___database_8h.html" target="_top" xlink:title=" ">
<polygon fill="white" stroke="#666666" points="1512,-184 1408,-184 1408,-165 1512,-165 1512,-184"/>
<text text-anchor="middle" x="1460" y="-172" font-family="Helvetica,sans-Serif" font-size="10.00">VICUS_Database.h</text>
</a>
</g>
</g>
<!-- Node1&#45;&gt;Node8 -->
<g id="edge9_Node000001_Node000008" class="edge">
<title>Node1&#45;&gt;Node8</title>
<g id="a_edge9_Node000001_Node000008"><a xlink:title=" ">
<path fill="none" stroke="#63b8ff" d="M984.17,-298.71C1061.16,-291.22 1177.08,-276.54 1275,-250 1305.6,-241.71 1387.11,-207.15 1431.02,-188.15"/>
<polygon fill="#63b8ff" stroke="#63b8ff" points="1432.51,-191.32 1440.3,-184.13 1429.73,-184.89 1432.51,-191.32"/>
</a>
</g>
</g>
<!-- Node13 -->
<g id="Node000013" class="node">
<title>Node13</title>
<g id="a_Node000013"><a xlink:href="_v_i_c_u_s___internal_load_8h.html" target="_top" xlink:title=" ">
<polygon fill="white" stroke="#666666" points="1479.5,-244.5 1364.5,-244.5 1364.5,-225.5 1479.5,-225.5 1479.5,-244.5"/>
<text text-anchor="middle" x="1422" y="-232.5" font-family="Helvetica,sans-Serif" font-size="10.00">VICUS_InternalLoad.h</text>
</a>
</g>
</g>
<!-- Node1&#45;&gt;Node13 -->
<g id="edge15_Node000001_Node000013" class="edge">
<title>Node1&#45;&gt;Node13</title>
<g id="a_edge15_Node000001_Node000013"><a xlink:title=" ">
<path fill="none" stroke="#63b8ff" d="M984.33,-295.17C1071.53,-284.47 1210.83,-266.96 1331,-250 1339.74,-248.77 1348.94,-247.41 1358,-246.05"/>
<polygon fill="#63b8ff" stroke="#63b8ff" points="1358.78,-249.47 1368.14,-244.51 1357.73,-242.55 1358.78,-249.47"/>
</a>
</g>
</g>
<!-- Node15 -->
<g id="Node000015" class="node">
<title>Node15</title>
<g id="a_Node000015"><a xlink:href="_v_i_c_u_s___schedule_8h.html" target="_top" xlink:title=" ">
<polygon fill="white" stroke="#666666" points="1390,-184 1288,-184 1288,-165 1390,-165 1390,-184"/>
<text text-anchor="middle" x="1339" y="-172" font-family="Helvetica,sans-Serif" font-size="10.00">VICUS_Schedule.h</text>
</a>
</g>
</g>
<!-- Node1&#45;&gt;Node15 -->
<g id="edge39_Node000001_Node000015" class="edge">
<title>Node1&#45;&gt;Node15</title>
<g id="a_edge39_Node000001_Node000015"><a xlink:title=" ">
<path fill="none" stroke="#63b8ff" d="M984.01,-302.3C1054,-297.16 1154.58,-283.92 1236,-250 1270.07,-235.81 1303.59,-208.36 1322.73,-191.04"/>
<polygon fill="#63b8ff" stroke="#63b8ff" points="1325.28,-193.45 1330.24,-184.09 1320.52,-188.31 1325.28,-193.45"/>
</a>
</g>
</g>
<!-- Node23 -->
<g id="Node000023" class="node">
<title>Node23</title>
<g id="a_Node000023"><a xlink:href="_v_i_c_u_s___zone_control_thermostat_8h.html" target="_top" xlink:title=" ">
<polygon fill="white" stroke="#666666" points="1036,-244.5 872,-244.5 872,-225.5 1036,-225.5 1036,-244.5"/>
<text text-anchor="middle" x="954" y="-232.5" font-family="Helvetica,sans-Serif" font-size="10.00">VICUS_ZoneControlThermostat.h</text>
</a>
</g>
</g>
<!-- Node1&#45;&gt;Node23 -->
<g id="edge40_Node000001_Node000023" class="edge">
<title>Node1&#45;&gt;Node23</title>
<g id="a_edge40_Node000001_Node000023"><a xlink:title=" ">
<path fill="none" stroke="#63b8ff" d="M914.61,-285.77C922.87,-275.34 932.89,-262.68 940.76,-252.73"/>
<polygon fill="#63b8ff" stroke="#63b8ff" points="943.56,-254.83 947.02,-244.82 938.07,-250.49 943.56,-254.83"/>
</a>
</g>
</g>
<!-- Node24 -->
<g id="Node000024" class="node">
<title>Node24</title>
<g id="a_Node000024"><a xlink:href="_v_i_c_u_s___infiltration_8h.html" target="_top" xlink:title=" ">
<polygon fill="white" stroke="#666666" points="360,-184 256,-184 256,-165 360,-165 360,-184"/>
<text text-anchor="middle" x="308" y="-172" font-family="Helvetica,sans-Serif" font-size="10.00">VICUS_Infiltration.h</text>
</a>
</g>
</g>
<!-- Node1&#45;&gt;Node24 -->
<g id="edge48_Node000001_Node000024" class="edge">
<title>Node1&#45;&gt;Node24</title>
<g id="a_edge48_Node000001_Node000024"><a xlink:title=" ">
<path fill="none" stroke="#63b8ff" d="M813.7,-294.47C745.02,-284.88 646.22,-269.47 561,-250 482.03,-231.96 391.38,-203.27 342.91,-187.27"/>
<polygon fill="#63b8ff" stroke="#63b8ff" points="343.82,-183.89 333.22,-184.06 341.61,-190.53 343.82,-183.89"/>
</a>
</g>
</g>
<!-- Node25 -->
<g id="Node000025" class="node">
<title>Node25</title>
<g id="a_Node000025"><a xlink:href="_v_i_c_u_s___ventilation_natural_8h.html" target="_top" xlink:title=" ">
<polygon fill="white" stroke="#666666" points="1193.5,-244.5 1054.5,-244.5 1054.5,-225.5 1193.5,-225.5 1193.5,-244.5"/>
<text text-anchor="middle" x="1124" y="-232.5" font-family="Helvetica,sans-Serif" font-size="10.00">VICUS_VentilationNatural.h</text>
</a>
</g>
</g>
<!-- Node1&#45;&gt;Node25 -->
<g id="edge54_Node000001_Node000025" class="edge">
<title>Node1&#45;&gt;Node25</title>
<g id="a_edge54_Node000001_Node000025"><a xlink:title=" ">
<path fill="none" stroke="#63b8ff" d="M962.27,-285.96C1002.32,-273.58 1052.74,-258.01 1086.54,-247.57"/>
<polygon fill="#63b8ff" stroke="#63b8ff" points="1087.95,-250.8 1096.47,-244.5 1085.88,-244.11 1087.95,-250.8"/>
</a>
</g>
</g>
<!-- Node26 -->
<g id="Node000026" class="node">
<title>Node26</title>
<g id="a_Node000026"><a xlink:href="_v_i_c_u_s___zone_ideal_heating_cooling_8h.html" target="_top" xlink:title=" ">
<polygon fill="white" stroke="#666666" points="237.5,-184 66.5,-184 66.5,-165 237.5,-165 237.5,-184"/>
<text text-anchor="middle" x="152" y="-172" font-family="Helvetica,sans-Serif" font-size="10.00">VICUS_ZoneIdealHeatingCooling.h</text>
</a>
</g>
</g>
<!-- Node1&#45;&gt;Node26 -->
<g id="edge62_Node000001_Node000026" class="edge">
<title>Node1&#45;&gt;Node26</title>
<g id="a_edge62_Node000001_Node000026"><a xlink:title=" ">
<path fill="none" stroke="#63b8ff" d="M813.77,-298.3C722.34,-289.81 573.14,-273.8 446,-250 353.18,-232.63 246.13,-203.03 190.33,-186.87"/>
<polygon fill="#63b8ff" stroke="#63b8ff" points="191.11,-183.45 180.53,-184.01 189.15,-190.17 191.11,-183.45"/>
</a>
</g>
</g>
<!-- Node27 -->
<g id="Node000027" class="node">
<title>Node27</title>
<g id="a_Node000027"><a xlink:href="_v_i_c_u_s___zone_control_natural_ventilation_8h.html" target="_top" xlink:title=" ">
<polygon fill="white" stroke="#666666" points="816,-250 678,-250 678,-220 816,-220 816,-250"/>
<text text-anchor="start" x="686" y="-238" font-family="Helvetica,sans-Serif" font-size="10.00">VICUS_ZoneControlNatural</text>
<text text-anchor="middle" x="747" y="-227" font-family="Helvetica,sans-Serif" font-size="10.00">Ventilation.h</text>
</a>
</g>
</g>
<!-- Node1&#45;&gt;Node27 -->
<g id="edge68_Node000001_Node000027" class="edge">
<title>Node1&#45;&gt;Node27</title>
<g id="a_edge68_Node000001_Node000027"><a xlink:title=" ">
<path fill="none" stroke="#63b8ff" d="M856.26,-285.96C834.53,-276.02 808.29,-264.03 786.98,-254.28"/>
<polygon fill="#63b8ff" stroke="#63b8ff" points="788.42,-251.09 777.87,-250.11 785.5,-257.45 788.42,-251.09"/>
</a>
</g>
</g>
<!-- Node28 -->
<g id="Node000028" class="node">
<title>Node28</title>
<g id="a_Node000028"><a xlink:href="_v_i_c_u_s___zone_control_shading_8h.html" target="_top" xlink:title=" ">
<polygon fill="white" stroke="#666666" points="776,-184 626,-184 626,-165 776,-165 776,-184"/>
<text text-anchor="middle" x="701" y="-172" font-family="Helvetica,sans-Serif" font-size="10.00">VICUS_ZoneControlShading.h</text>
</a>
</g>
</g>
<!-- Node1&#45;&gt;Node28 -->
<g id="edge77_Node000001_Node000028" class="edge">
<title>Node1&#45;&gt;Node28</title>
<g id="a_edge77_Node000001_Node000028"><a xlink:title=" ">
<path fill="none" stroke="#63b8ff" d="M886.52,-285.94C873.34,-266.72 850.91,-237.76 825,-220 802.45,-204.54 773.93,-193.82 749.92,-186.78"/>
<polygon fill="#63b8ff" stroke="#63b8ff" points="750.86,-183.4 740.28,-184.07 748.97,-190.14 750.86,-183.4"/>
</a>
</g>
</g>
<!-- Node6&#45;&gt;Node3 -->
<g id="edge7_Node000006_Node000003" class="edge">
<title>Node6&#45;&gt;Node3</title>
<g id="a_edge7_Node000006_Node000003"><a xlink:title=" ">
<path fill="none" stroke="#63b8ff" d="M999.31,-109.98C903.41,-98.43 735.87,-78.25 664.15,-69.61"/>
<polygon fill="#63b8ff" stroke="#63b8ff" points="664.23,-66.1 653.89,-68.38 663.4,-73.05 664.23,-66.1"/>
</a>
</g>
</g>
<!-- Node6&#45;&gt;Node5 -->
<g id="edge8_Node000006_Node000005" class="edge">
<title>Node6&#45;&gt;Node5</title>
<g id="a_edge8_Node000006_Node000005"><a xlink:title=" ">
<path fill="none" stroke="#63b8ff" d="M1055.01,-109.84C1022.65,-91.16 946.02,-46.9 906.89,-24.3"/>
<polygon fill="#63b8ff" stroke="#63b8ff" points="908.21,-21.02 897.8,-19.05 904.71,-27.08 908.21,-21.02"/>
</a>
</g>
</g>
<!-- Node7 -->
<g id="Node000007" class="node">
<title>Node7</title>
<g id="a_Node000007"><a xlink:title=" ">
<polygon fill="#e0e0e0" stroke="#999999" points="1429.5,-74 1294.5,-74 1294.5,-55 1429.5,-55 1429.5,-74"/>
<text text-anchor="middle" x="1362" y="-62" font-family="Helvetica,sans-Serif" font-size="10.00">IBK_MultiLanguageString.h</text>
</a>
</g>
</g>
<!-- Node6&#45;&gt;Node7 -->
<g id="edge6_Node000006_Node000007" class="edge">
<title>Node6&#45;&gt;Node7</title>
<g id="a_edge6_Node000006_Node000007"><a xlink:title=" ">
<path fill="none" stroke="#63b8ff" d="M1116.91,-109.98C1168.06,-100.7 1249.92,-85.84 1304.8,-75.88"/>
<polygon fill="#63b8ff" stroke="#63b8ff" points="1305.5,-79.31 1314.72,-74.08 1304.25,-72.42 1305.5,-79.31"/>
</a>
</g>
</g>
<!-- Node8&#45;&gt;Node6 -->
<g id="edge11_Node000008_Node000006" class="edge">
<title>Node8&#45;&gt;Node6</title>
<g id="a_edge11_Node000008_Node000006"><a xlink:title=" ">
<path fill="none" stroke="#63b8ff" d="M1407.76,-166.21C1404.8,-165.8 1401.86,-165.39 1399,-165 1311.28,-152.96 1210.37,-139.34 1143.69,-130.38"/>
<polygon fill="#63b8ff" stroke="#63b8ff" points="1144.07,-126.9 1133.7,-129.04 1143.14,-133.84 1144.07,-126.9"/>
</a>
</g>
</g>
<!-- Node9 -->
<g id="Node000009" class="node">
<title>Node9</title>
<g id="a_Node000009"><a xlink:title=" ">
<polygon fill="#e0e0e0" stroke="#999999" points="1951.5,-129 1916.5,-129 1916.5,-110 1951.5,-110 1951.5,-129"/>
<text text-anchor="middle" x="1934" y="-117" font-family="Helvetica,sans-Serif" font-size="10.00">map</text>
</a>
</g>
</g>
<!-- Node8&#45;&gt;Node9 -->
<g id="edge10_Node000008_Node000009" class="edge">
<title>Node8&#45;&gt;Node9</title>
<g id="a_edge10_Node000008_Node000009"><a xlink:title=" ">
<path fill="none" stroke="#63b8ff" d="M1512.14,-171.78C1594.2,-168.33 1758.45,-158.35 1906.26,-128.68"/>
<polygon fill="#63b8ff" stroke="#63b8ff" points="1907.32,-132.04 1916.42,-126.61 1905.92,-125.18 1907.32,-132.04"/>
</a>
</g>
</g>
<!-- Node10 -->
<g id="Node000010" class="node">
<title>Node10</title>
<g id="a_Node000010"><a xlink:title=" ">
<polygon fill="#e0e0e0" stroke="#999999" points="2036.5,-129 1969.5,-129 1969.5,-110 2036.5,-110 2036.5,-129"/>
<text text-anchor="middle" x="2003" y="-117" font-family="Helvetica,sans-Serif" font-size="10.00">IBK_Path.h</text>
</a>
</g>
</g>
<!-- Node8&#45;&gt;Node10 -->
<g id="edge12_Node000008_Node000010" class="edge">
<title>Node8&#45;&gt;Node10</title>
<g id="a_edge12_Node000008_Node000010"><a xlink:title=" ">
<path fill="none" stroke="#63b8ff" d="M1512.15,-170.78C1601.68,-165.7 1790.54,-153.15 1959.08,-129.14"/>
<polygon fill="#63b8ff" stroke="#63b8ff" points="1959.73,-132.58 1969.13,-127.69 1958.73,-125.65 1959.73,-132.58"/>
</a>
</g>
</g>
<!-- Node11 -->
<g id="Node000011" class="node">
<title>Node11</title>
<g id="a_Node000011"><a xlink:title=" ">
<polygon fill="#e0e0e0" stroke="#999999" points="1824,-129 1732,-129 1732,-110 1824,-110 1824,-129"/>
<text text-anchor="middle" x="1778" y="-117" font-family="Helvetica,sans-Serif" font-size="10.00">IBK_messages.h</text>
</a>
</g>
</g>
<!-- Node8&#45;&gt;Node11 -->
<g id="edge13_Node000008_Node000011" class="edge">
<title>Node8&#45;&gt;Node11</title>
<g id="a_edge13_Node000008_Node000011"><a xlink:title=" ">
<path fill="none" stroke="#63b8ff" d="M1511.09,-164.98C1568.77,-155.37 1662.3,-139.78 1721.94,-129.84"/>
<polygon fill="#63b8ff" stroke="#63b8ff" points="1722.65,-133.27 1731.94,-128.18 1721.5,-126.37 1722.65,-133.27"/>
</a>
</g>
</g>
<!-- Node12 -->
<g id="Node000012" class="node">
<title>Node12</title>
<g id="a_Node000012"><a xlink:title=" ">
<polygon fill="#e0e0e0" stroke="#999999" points="1898,-129 1842,-129 1842,-110 1898,-110 1898,-129"/>
<text text-anchor="middle" x="1870" y="-117" font-family="Helvetica,sans-Serif" font-size="10.00">tinyxml.h</text>
</a>
</g>
</g>
<!-- Node8&#45;&gt;Node12 -->
<g id="edge14_Node000008_Node000012" class="edge">
<title>Node8&#45;&gt;Node12</title>
<g id="a_edge14_Node000008_Node000012"><a xlink:title=" ">
<path fill="none" stroke="#63b8ff" d="M1512.15,-169.06C1582.52,-162.67 1711.95,-149.53 1831.71,-129.05"/>
<polygon fill="#63b8ff" stroke="#63b8ff" points="1832.53,-132.47 1841.78,-127.31 1831.33,-125.57 1832.53,-132.47"/>
</a>
</g>
</g>
<!-- Node13&#45;&gt;Node3 -->
<g id="edge16_Node000013_Node000003" class="edge">
<title>Node13&#45;&gt;Node3</title>
<g id="a_edge16_Node000013_Node000003"><a xlink:title=" ">
<path fill="none" stroke="#63b8ff" d="M1479.68,-231.65C1648.91,-223.76 2127.24,-193.83 2046,-110 2021.16,-84.37 876.31,-68.62 663.76,-65.92"/>
<polygon fill="#63b8ff" stroke="#63b8ff" points="663.58,-62.41 653.53,-65.79 663.49,-69.41 663.58,-62.41"/>
</a>
</g>
</g>
<!-- Node13&#45;&gt;Node4 -->
<g id="edge18_Node000013_Node000004" class="edge">
<title>Node13&#45;&gt;Node4</title>
<g id="a_edge18_Node000013_Node000004"><a xlink:title=" ">
<path fill="none" stroke="#63b8ff" d="M1479.77,-234.48C1644.77,-235.23 2109.26,-232.97 2155,-184 2194.14,-142.1 2194.02,-97.01 2155,-55 2119.99,-17.32 1785.13,-11.25 1630.08,-10.48"/>
<polygon fill="#63b8ff" stroke="#63b8ff" points="1629.7,-6.98 1619.69,-10.43 1629.67,-13.98 1629.7,-6.98"/>
</a>
</g>
</g>
<!-- Node13&#45;&gt;Node5 -->
<g id="edge19_Node000013_Node000005" class="edge">
<title>Node13&#45;&gt;Node5</title>
<g id="a_edge19_Node000013_Node000005"><a xlink:title=" ">
<path fill="none" stroke="#63b8ff" d="M1479.54,-233C1605.06,-230.18 1899.61,-219.82 1992,-184 2034.78,-167.41 2094.99,-143.84 2064,-110 1988.09,-27.11 1181.4,-13.23 946.71,-10.94"/>
<polygon fill="#63b8ff" stroke="#63b8ff" points="946.66,-7.44 936.62,-10.85 946.59,-14.44 946.66,-7.44"/>
</a>
</g>
</g>
<!-- Node13&#45;&gt;Node6 -->
<g id="edge20_Node000013_Node000006" class="edge">
<title>Node13&#45;&gt;Node6</title>
<g id="a_edge20_Node000013_Node000006"><a xlink:title=" ">
<path fill="none" stroke="#63b8ff" d="M1395.68,-225.5C1366.81,-216.01 1319.24,-199.9 1279,-184 1259.57,-176.32 1255.7,-171.95 1236,-165 1197.11,-151.29 1151.83,-139.41 1118.39,-131.39"/>
<polygon fill="#63b8ff" stroke="#63b8ff" points="1118.96,-127.92 1108.42,-129.02 1117.34,-134.73 1118.96,-127.92"/>
</a>
</g>
</g>
<!-- Node13&#45;&gt;Node8 -->
<g id="edge21_Node000013_Node000008" class="edge">
<title>Node13&#45;&gt;Node8</title>
<g id="a_edge21_Node000013_Node000008"><a xlink:title=" ">
<path fill="none" stroke="#63b8ff" d="M1427.61,-225.37C1433.16,-216.81 1441.83,-203.47 1448.8,-192.74"/>
<polygon fill="#63b8ff" stroke="#63b8ff" points="1451.86,-194.46 1454.37,-184.17 1445.99,-190.65 1451.86,-194.46"/>
</a>
</g>
</g>
<!-- Node14 -->
<g id="Node000014" class="node">
<title>Node14</title>
<g id="a_Node000014"><a xlink:title=" ">
<polygon fill="#e0e0e0" stroke="#999999" points="825.5,-129 734.5,-129 734.5,-110 825.5,-110 825.5,-129"/>
<text text-anchor="middle" x="780" y="-117" font-family="Helvetica,sans-Serif" font-size="10.00">IBK_Parameter.h</text>
</a>
</g>
</g>
<!-- Node13&#45;&gt;Node14 -->
<g id="edge17_Node000013_Node000014" class="edge">
<title>Node13&#45;&gt;Node14</title>
<g id="a_edge17_Node000013_Node000014"><a xlink:title=" ">
<path fill="none" stroke="#63b8ff" d="M1373.75,-225.47C1257.03,-204.83 959.95,-152.31 835.83,-130.37"/>
<polygon fill="#63b8ff" stroke="#63b8ff" points="836.24,-126.89 825.78,-128.59 835.02,-133.78 836.24,-126.89"/>
</a>
</g>
</g>
<!-- Node13&#45;&gt;Node15 -->
<g id="edge22_Node000013_Node000015" class="edge">
<title>Node13&#45;&gt;Node15</title>
<g id="a_edge22_Node000013_Node000015"><a xlink:title=" ">
<path fill="none" stroke="#63b8ff" d="M1409.75,-225.37C1396.64,-216.12 1375.58,-201.28 1359.85,-190.19"/>
<polygon fill="#63b8ff" stroke="#63b8ff" points="1361.49,-187.07 1351.3,-184.17 1357.45,-192.79 1361.49,-187.07"/>
</a>
</g>
</g>
<!-- Node15&#45;&gt;Node4 -->
<g id="edge27_Node000015_Node000004" class="edge">
<title>Node15&#45;&gt;Node4</title>
<g id="a_edge27_Node000015_Node000004"><a xlink:title=" ">
<path fill="none" stroke="#63b8ff" d="M1389.47,-164.92C1443.59,-155.26 1523.14,-139.53 1533,-129 1558.42,-101.83 1557.62,-54.91 1554.81,-29.01"/>
<polygon fill="#63b8ff" stroke="#63b8ff" points="1558.28,-28.49 1553.51,-19.02 1551.33,-29.39 1558.28,-28.49"/>
</a>
</g>
</g>
<!-- Node15&#45;&gt;Node5 -->
<g id="edge28_Node000015_Node000005" class="edge">
<title>Node15&#45;&gt;Node5</title>
<g id="a_edge28_Node000015_Node000005"><a xlink:title=" ">
<path fill="none" stroke="#63b8ff" d="M1304.3,-164.98C1273.91,-157.08 1228.82,-144.25 1191,-129 1173.86,-122.09 1170.93,-117.42 1154,-110 1071.63,-73.89 971.59,-39.52 919.12,-22.19"/>
<polygon fill="#63b8ff" stroke="#63b8ff" points="920.18,-18.85 909.58,-19.05 917.99,-25.5 920.18,-18.85"/>
</a>
</g>
</g>
<!-- Node15&#45;&gt;Node6 -->
<g id="edge38_Node000015_Node000006" class="edge">
<title>Node15&#45;&gt;Node6</title>
<g id="a_edge38_Node000015_Node000006"><a xlink:title=" ">
<path fill="none" stroke="#63b8ff" d="M1295.78,-164.98C1248.96,-155.76 1174.19,-141.03 1123.64,-131.07"/>
<polygon fill="#63b8ff" stroke="#63b8ff" points="1124.05,-127.58 1113.56,-129.08 1122.69,-134.45 1124.05,-127.58"/>
</a>
</g>
</g>
<!-- Node15&#45;&gt;Node14 -->
<g id="edge25_Node000015_Node000014" class="edge">
<title>Node15&#45;&gt;Node14</title>
<g id="a_edge25_Node000015_Node000014"><a xlink:title=" ">
<path fill="none" stroke="#63b8ff" d="M1287.91,-168.66C1183.08,-158.72 944.41,-136.09 835.74,-125.78"/>
<polygon fill="#63b8ff" stroke="#63b8ff" points="835.93,-122.29 825.64,-124.83 835.27,-129.26 835.93,-122.29"/>
</a>
</g>
</g>
<!-- Node16 -->
<g id="Node000016" class="node">
<title>Node16</title>
<g id="a_Node000016"><a xlink:title=" ">
<polygon fill="#e0e0e0" stroke="#999999" points="1300,-129 1200,-129 1200,-110 1300,-110 1300,-129"/>
<text text-anchor="middle" x="1250" y="-117" font-family="Helvetica,sans-Serif" font-size="10.00">IBK_LinearSpline.h</text>
</a>
</g>
</g>
<!-- Node15&#45;&gt;Node16 -->
<g id="edge23_Node000015_Node000016" class="edge">
<title>Node15&#45;&gt;Node16</title>
<g id="a_edge23_Node000015_Node000016"><a xlink:title=" ">
<path fill="none" stroke="#63b8ff" d="M1324.7,-164.98C1310.9,-156.77 1289.76,-144.18 1273.49,-134.49"/>
<polygon fill="#63b8ff" stroke="#63b8ff" points="1274.94,-131.28 1264.56,-129.17 1271.36,-137.29 1274.94,-131.28"/>
</a>
</g>
</g>
<!-- Node17 -->
<g id="Node000017" class="node">
<title>Node17</title>
<g id="a_Node000017"><a xlink:title=" ">
<polygon fill="#e0e0e0" stroke="#999999" points="1383.5,-129 1318.5,-129 1318.5,-110 1383.5,-110 1383.5,-129"/>
<text text-anchor="middle" x="1351" y="-117" font-family="Helvetica,sans-Serif" font-size="10.00">IBK_Flag.h</text>
</a>
</g>
</g>
<!-- Node15&#45;&gt;Node17 -->
<g id="edge24_Node000015_Node000017" class="edge">
<title>Node15&#45;&gt;Node17</title>
<g id="a_edge24_Node000015_Node000017"><a xlink:title=" ">
<path fill="none" stroke="#63b8ff" d="M1340.98,-164.75C1342.57,-157.72 1344.86,-147.62 1346.85,-138.84"/>
<polygon fill="#63b8ff" stroke="#63b8ff" points="1350.26,-139.62 1349.06,-129.09 1343.43,-138.07 1350.26,-139.62"/>
</a>
</g>
</g>
<!-- Node18 -->
<g id="Node000018" class="node">
<title>Node18</title>
<g id="a_Node000018"><a xlink:title=" ">
<polygon fill="#e0e0e0" stroke="#999999" points="1524,-129 1402,-129 1402,-110 1524,-110 1524,-129"/>
<text text-anchor="middle" x="1463" y="-117" font-family="Helvetica,sans-Serif" font-size="10.00">NANDRAD_Schedule.h</text>
</a>
</g>
</g>
<!-- Node15&#45;&gt;Node18 -->
<g id="edge26_Node000015_Node000018" class="edge">
<title>Node15&#45;&gt;Node18</title>
<g id="a_edge26_Node000015_Node000018"><a xlink:title=" ">
<path fill="none" stroke="#63b8ff" d="M1358.92,-164.98C1379.05,-156.38 1410.38,-142.99 1433.41,-133.15"/>
<polygon fill="#63b8ff" stroke="#63b8ff" points="1434.9,-136.32 1442.71,-129.17 1432.14,-129.88 1434.9,-136.32"/>
</a>
</g>
</g>
<!-- Node19 -->
<g id="Node000019" class="node">
<title>Node19</title>
<g id="a_Node000019"><a xlink:href="_v_i_c_u_s___schedule_interval_8h.html" target="_top" xlink:title=" ">
<polygon fill="white" stroke="#666666" points="1714,-129 1580,-129 1580,-110 1714,-110 1714,-129"/>
<text text-anchor="middle" x="1647" y="-117" font-family="Helvetica,sans-Serif" font-size="10.00">VICUS_ScheduleInterval.h</text>
</a>
</g>
</g>
<!-- Node15&#45;&gt;Node19 -->
<g id="edge29_Node000015_Node000019" class="edge">
<title>Node15&#45;&gt;Node19</title>
<g id="a_edge29_Node000015_Node000019"><a xlink:title=" ">
<path fill="none" stroke="#63b8ff" d="M1388.49,-164.98C1442.63,-155.67 1529.4,-140.74 1587.28,-130.78"/>
<polygon fill="#63b8ff" stroke="#63b8ff" points="1588.12,-134.18 1597.38,-129.04 1586.93,-127.28 1588.12,-134.18"/>
</a>
</g>
</g>
<!-- Node19&#45;&gt;Node4 -->
<g id="edge31_Node000019_Node000004" class="edge">
<title>Node19&#45;&gt;Node4</title>
<g id="a_edge31_Node000019_Node000004"><a xlink:title=" ">
<path fill="none" stroke="#63b8ff" d="M1639.23,-109.66C1623.28,-91.54 1586.67,-49.91 1566.31,-26.77"/>
<polygon fill="#63b8ff" stroke="#63b8ff" points="1568.85,-24.36 1559.62,-19.16 1563.59,-28.98 1568.85,-24.36"/>
</a>
</g>
</g>
<!-- Node19&#45;&gt;Node7 -->
<g id="edge30_Node000019_Node000007" class="edge">
<title>Node19&#45;&gt;Node7</title>
<g id="a_edge30_Node000019_Node000007"><a xlink:title=" ">
<path fill="none" stroke="#63b8ff" d="M1601.21,-109.98C1551.39,-100.72 1471.72,-85.9 1418.16,-75.94"/>
<polygon fill="#63b8ff" stroke="#63b8ff" points="1418.62,-72.47 1408.15,-74.08 1417.34,-79.35 1418.62,-72.47"/>
</a>
</g>
</g>
<!-- Node20 -->
<g id="Node000020" class="node">
<title>Node20</title>
<g id="a_Node000020"><a xlink:title=" ">
<polygon fill="#e0e0e0" stroke="#999999" points="2209,-19 2165,-19 2165,0 2209,0 2209,-19"/>
<text text-anchor="middle" x="2187" y="-7" font-family="Helvetica,sans-Serif" font-size="10.00">vector</text>
</a>
</g>
</g>
<!-- Node19&#45;&gt;Node20 -->
<g id="edge32_Node000019_Node000020" class="edge">
<title>Node19&#45;&gt;Node20</title>
<g id="a_edge32_Node000019_Node000020"><a xlink:title=" ">
<path fill="none" stroke="#63b8ff" d="M1714.13,-110.91C1717.13,-110.6 1720.09,-110.29 1723,-110 1811.58,-101.05 2041.15,-111.26 2122,-74 2144.28,-63.73 2163.47,-42.51 2175.11,-27.43"/>
<polygon fill="#63b8ff" stroke="#63b8ff" points="2177.92,-29.51 2181.06,-19.39 2172.3,-25.35 2177.92,-29.51"/>
</a>
</g>
</g>
<!-- Node21 -->
<g id="Node000021" class="node">
<title>Node21</title>
<g id="a_Node000021"><a xlink:href="_v_i_c_u_s___daily_cycle_8h.html" target="_top" xlink:title=" ">
<polygon fill="white" stroke="#666666" points="2113,-74 2003,-74 2003,-55 2113,-55 2113,-74"/>
<text text-anchor="middle" x="2058" y="-62" font-family="Helvetica,sans-Serif" font-size="10.00">VICUS_DailyCycle.h</text>
</a>
</g>
</g>
<!-- Node19&#45;&gt;Node21 -->
<g id="edge33_Node000019_Node000021" class="edge">
<title>Node19&#45;&gt;Node21</title>
<g id="a_edge33_Node000019_Node000021"><a xlink:title=" ">
<path fill="none" stroke="#63b8ff" d="M1713.03,-109.98C1790.02,-100.06 1916.45,-83.75 1992.99,-73.88"/>
<polygon fill="#63b8ff" stroke="#63b8ff" points="1993.52,-77.34 2002.99,-72.59 1992.62,-70.4 1993.52,-77.34"/>
</a>
</g>
</g>
<!-- Node21&#45;&gt;Node4 -->
<g id="edge34_Node000021_Node000004" class="edge">
<title>Node21&#45;&gt;Node4</title>
<g id="a_edge34_Node000021_Node000004"><a xlink:title=" ">
<path fill="none" stroke="#63b8ff" d="M2002.65,-56.58C1998.03,-56.03 1993.44,-55.5 1989,-55 1863.44,-40.87 1717.35,-26.39 1629.9,-17.93"/>
<polygon fill="#63b8ff" stroke="#63b8ff" points="1630.09,-14.43 1619.8,-16.96 1629.41,-21.4 1630.09,-14.43"/>
</a>
</g>
</g>
<!-- Node21&#45;&gt;Node5 -->
<g id="edge35_Node000021_Node000005" class="edge">
<title>Node21&#45;&gt;Node5</title>
<g id="a_edge35_Node000021_Node000005"><a xlink:title=" ">
<path fill="none" stroke="#63b8ff" d="M2002.68,-56.28C1998.06,-55.8 1993.45,-55.36 1989,-55 1593.43,-22.73 1116.26,-13.57 946.62,-11.23"/>
<polygon fill="#63b8ff" stroke="#63b8ff" points="946.66,-7.73 936.61,-11.09 946.57,-14.73 946.66,-7.73"/>
</a>
</g>
</g>
<!-- Node21&#45;&gt;Node20 -->
<g id="edge36_Node000021_Node000020" class="edge">
<title>Node21&#45;&gt;Node20</title>
<g id="a_edge36_Node000021_Node000020"><a xlink:title=" ">
<path fill="none" stroke="#63b8ff" d="M2078.73,-54.98C2099.76,-46.34 2132.55,-32.87 2156.54,-23.02"/>
<polygon fill="#63b8ff" stroke="#63b8ff" points="2157.98,-26.21 2165.9,-19.17 2155.32,-19.73 2157.98,-26.21"/>
</a>
</g>
</g>
<!-- Node22 -->
<g id="Node000022" class="node">
<title>Node22</title>
<g id="a_Node000022"><a xlink:title=" ">
<polygon fill="#e0e0e0" stroke="#999999" points="2078.5,-19 2037.5,-19 2037.5,0 2078.5,0 2078.5,-19"/>
<text text-anchor="middle" x="2058" y="-7" font-family="Helvetica,sans-Serif" font-size="10.00">string</text>
</a>
</g>
</g>
<!-- Node21&#45;&gt;Node22 -->
<g id="edge37_Node000021_Node000022" class="edge">
<title>Node21&#45;&gt;Node22</title>
<g id="a_edge37_Node000021_Node000022"><a xlink:title=" ">
<path fill="none" stroke="#63b8ff" d="M2058,-54.75C2058,-47.8 2058,-37.85 2058,-29.13"/>
<polygon fill="#63b8ff" stroke="#63b8ff" points="2061.5,-29.09 2058,-19.09 2054.5,-29.09 2061.5,-29.09"/>
</a>
</g>
</g>
<!-- Node23&#45;&gt;Node3 -->
<g id="edge41_Node000023_Node000003" class="edge">
<title>Node23&#45;&gt;Node3</title>
<g id="a_edge41_Node000023_Node000003"><a xlink:title=" ">
<path fill="none" stroke="#63b8ff" d="M879.97,-225.49C783.38,-214.02 625.55,-193.91 617,-184 592.76,-155.9 608.85,-109.03 620.67,-83.47"/>
<polygon fill="#63b8ff" stroke="#63b8ff" points="623.94,-84.75 625.2,-74.22 617.66,-81.67 623.94,-84.75"/>
</a>
</g>
</g>
<!-- Node23&#45;&gt;Node4 -->
<g id="edge43_Node000023_Node000004" class="edge">
<title>Node23&#45;&gt;Node4</title>
<g id="a_edge43_Node000023_Node000004"><a xlink:title=" ">
<path fill="none" stroke="#63b8ff" d="M953.43,-225.22C952.47,-202.46 953.31,-141.16 987,-110 1056.78,-45.47 1336.53,-21.86 1474.4,-14.02"/>
<polygon fill="#63b8ff" stroke="#63b8ff" points="1474.69,-17.5 1484.48,-13.46 1474.3,-10.52 1474.69,-17.5"/>
</a>
</g>
</g>
<!-- Node23&#45;&gt;Node5 -->
<g id="edge44_Node000023_Node000005" class="edge">
<title>Node23&#45;&gt;Node5</title>
<g id="a_edge44_Node000023_Node000005"><a xlink:title=" ">
<path fill="none" stroke="#63b8ff" d="M950.5,-225.46C940.87,-201.76 913.64,-133.03 897,-74 892.78,-59.04 889.05,-41.81 886.5,-29.07"/>
<polygon fill="#63b8ff" stroke="#63b8ff" points="889.93,-28.36 884.59,-19.21 883.06,-29.69 889.93,-28.36"/>
</a>
</g>
</g>
<!-- Node23&#45;&gt;Node6 -->
<g id="edge45_Node000023_Node000006" class="edge">
<title>Node23&#45;&gt;Node6</title>
<g id="a_edge45_Node000023_Node000006"><a xlink:title=" ">
<path fill="none" stroke="#63b8ff" d="M980.28,-225.48C1000.71,-217.64 1028.44,-204.14 1046,-184 1057.12,-171.24 1063.32,-152.82 1066.62,-139.1"/>
<polygon fill="#63b8ff" stroke="#63b8ff" points="1070.04,-139.8 1068.68,-129.3 1063.19,-138.36 1070.04,-139.8"/>
</a>
</g>
</g>
<!-- Node23&#45;&gt;Node8 -->
<g id="edge47_Node000023_Node000008" class="edge">
<title>Node23&#45;&gt;Node8</title>
<g id="a_edge47_Node000023_Node000008"><a xlink:title=" ">
<path fill="none" stroke="#63b8ff" d="M1006.97,-225.48C1019.73,-223.56 1033.34,-221.61 1046,-220 1199.24,-200.54 1240.74,-202.78 1397.76,-184.11"/>
<polygon fill="#63b8ff" stroke="#63b8ff" points="1398.26,-187.57 1407.77,-182.91 1397.43,-180.62 1398.26,-187.57"/>
</a>
</g>
</g>
<!-- Node23&#45;&gt;Node14 -->
<g id="edge42_Node000023_Node000014" class="edge">
<title>Node23&#45;&gt;Node14</title>
<g id="a_edge42_Node000023_Node000014"><a xlink:title=" ">
<path fill="none" stroke="#63b8ff" d="M937.43,-225.35C919.48,-215.81 890.16,-199.7 866,-184 842.15,-168.5 816.03,-148.79 798.91,-135.48"/>
<polygon fill="#63b8ff" stroke="#63b8ff" points="800.86,-132.56 790.83,-129.15 796.55,-138.08 800.86,-132.56"/>
</a>
</g>
</g>
<!-- Node23&#45;&gt;Node15 -->
<g id="edge46_Node000023_Node000015" class="edge">
<title>Node23&#45;&gt;Node15</title>
<g id="a_edge46_Node000023_Node000015"><a xlink:title=" ">
<path fill="none" stroke="#63b8ff" d="M1009.95,-225.48C1021.85,-223.67 1034.34,-221.77 1046,-220 1126.18,-207.81 1218.71,-193.76 1277.98,-184.76"/>
<polygon fill="#63b8ff" stroke="#63b8ff" points="1278.56,-188.21 1287.92,-183.25 1277.51,-181.29 1278.56,-188.21"/>
</a>
</g>
</g>
<!-- Node24&#45;&gt;Node3 -->
<g id="edge49_Node000024_Node000003" class="edge">
<title>Node24&#45;&gt;Node3</title>
<g id="a_edge49_Node000024_Node000003"><a xlink:title=" ">
<path fill="none" stroke="#63b8ff" d="M360.05,-165.33C415.62,-156.21 499.77,-141.14 530,-129 560.62,-116.71 592.13,-94.88 611.4,-80.3"/>
<polygon fill="#63b8ff" stroke="#63b8ff" points="613.56,-83.05 619.34,-74.17 609.28,-77.51 613.56,-83.05"/>
</a>
</g>
</g>
<!-- Node24&#45;&gt;Node4 -->
<g id="edge51_Node000024_Node000004" class="edge">
<title>Node24&#45;&gt;Node4</title>
<g id="a_edge51_Node000024_Node000004"><a xlink:title=" ">
<path fill="none" stroke="#63b8ff" d="M342.96,-164.95C365.63,-158.08 394.78,-146.62 416,-129 446.16,-103.95 429.94,-74.41 464,-55 507.74,-30.06 1232.33,-15.81 1474.14,-11.73"/>
<polygon fill="#63b8ff" stroke="#63b8ff" points="1474.32,-15.23 1484.26,-11.56 1474.21,-8.23 1474.32,-15.23"/>
</a>
</g>
</g>
<!-- Node24&#45;&gt;Node5 -->
<g id="edge52_Node000024_Node000005" class="edge">
<title>Node24&#45;&gt;Node5</title>
<g id="a_edge52_Node000024_Node000005"><a xlink:title=" ">
<path fill="none" stroke="#63b8ff" d="M308.11,-164.85C308.89,-142.45 314.39,-82.45 350,-55 386.42,-26.92 685.61,-15.65 819.11,-11.99"/>
<polygon fill="#63b8ff" stroke="#63b8ff" points="819.29,-15.49 829.19,-11.72 819.1,-8.49 819.29,-15.49"/>
</a>
</g>
</g>
<!-- Node24&#45;&gt;Node6 -->
<g id="edge53_Node000024_Node000006" class="edge">
<title>Node24&#45;&gt;Node6</title>
<g id="a_edge53_Node000024_Node000006"><a xlink:title=" ">
<path fill="none" stroke="#63b8ff" d="M360.21,-165.96C363.18,-165.61 366.13,-165.29 369,-165 590.86,-142.53 853.44,-129.46 985.37,-123.82"/>
<polygon fill="#63b8ff" stroke="#63b8ff" points="985.57,-127.31 995.41,-123.39 985.27,-120.32 985.57,-127.31"/>
</a>
</g>
</g>
<!-- Node24&#45;&gt;Node14 -->
<g id="edge50_Node000024_Node000014" class="edge">
<title>Node24&#45;&gt;Node14</title>
<g id="a_edge50_Node000024_Node000014"><a xlink:title=" ">
<path fill="none" stroke="#63b8ff" d="M360.23,-166.12C363.2,-165.73 366.13,-165.35 369,-165 495.79,-149.31 644.97,-133.92 724.11,-126"/>
<polygon fill="#63b8ff" stroke="#63b8ff" points="724.73,-129.46 734.33,-124.98 724.03,-122.49 724.73,-129.46"/>
</a>
</g>
</g>
<!-- Node25&#45;&gt;Node3 -->
<g id="edge55_Node000025_Node000003" class="edge">
<title>Node25&#45;&gt;Node3</title>
<g id="a_edge55_Node000025_Node000003"><a xlink:title=" ">
<path fill="none" stroke="#63b8ff" d="M1107.11,-225.43C1063.16,-203.42 941.18,-144.26 834,-110 775.24,-91.21 704.45,-77.74 663.59,-70.82"/>
<polygon fill="#63b8ff" stroke="#63b8ff" points="664.07,-67.35 653.63,-69.16 662.92,-74.25 664.07,-67.35"/>
</a>
</g>
</g>
<!-- Node25&#45;&gt;Node4 -->
<g id="edge57_Node000025_Node000004" class="edge">
<title>Node25&#45;&gt;Node4</title>
<g id="a_edge57_Node000025_Node000004"><a xlink:title=" ">
<path fill="none" stroke="#63b8ff" d="M1193.53,-228.13C1394.52,-210.89 1966.95,-159.65 2046,-129 2084.87,-113.93 2103.04,-111.13 2122,-74 2125.84,-66.48 2127.73,-61.2 2122,-55 2089.3,-19.64 1778.53,-12.32 1630.14,-10.85"/>
<polygon fill="#63b8ff" stroke="#63b8ff" points="1629.78,-7.34 1619.75,-10.75 1629.71,-14.34 1629.78,-7.34"/>
</a>
</g>
</g>
<!-- Node25&#45;&gt;Node5 -->
<g id="edge58_Node000025_Node000005" class="edge">
<title>Node25&#45;&gt;Node5</title>
<g id="a_edge58_Node000025_Node000005"><a xlink:title=" ">
<path fill="none" stroke="#63b8ff" d="M1111.25,-225.5C1086.24,-208.54 1029.45,-168.72 987,-129 951.2,-95.5 914.58,-50.87 895.82,-27.08"/>
<polygon fill="#63b8ff" stroke="#63b8ff" points="898.46,-24.77 889.54,-19.05 892.94,-29.08 898.46,-24.77"/>
</a>
</g>
</g>
<!-- Node25&#45;&gt;Node6 -->
<g id="edge59_Node000025_Node000006" class="edge">
<title>Node25&#45;&gt;Node6</title>
<g id="a_edge59_Node000025_Node000006"><a xlink:title=" ">
<path fill="none" stroke="#63b8ff" d="M1125.87,-225.42C1128.38,-211.84 1131.51,-184.89 1122,-165 1116.07,-152.6 1104.89,-142.33 1094.41,-134.79"/>
<polygon fill="#63b8ff" stroke="#63b8ff" points="1096.17,-131.75 1085.91,-129.11 1092.28,-137.57 1096.17,-131.75"/>
</a>
</g>
</g>
<!-- Node25&#45;&gt;Node8 -->
<g id="edge60_Node000025_Node000008" class="edge">
<title>Node25&#45;&gt;Node8</title>
<g id="a_edge60_Node000025_Node000008"><a xlink:title=" ">
<path fill="none" stroke="#63b8ff" d="M1172.86,-225.49C1233.33,-214.97 1336.22,-197.05 1401.02,-185.77"/>
<polygon fill="#63b8ff" stroke="#63b8ff" points="1401.83,-189.18 1411.08,-184.02 1400.63,-182.28 1401.83,-189.18"/>
</a>
</g>
</g>
<!-- Node25&#45;&gt;Node14 -->
<g id="edge56_Node000025_Node000014" class="edge">
<title>Node25&#45;&gt;Node14</title>
<g id="a_edge56_Node000025_Node000014"><a xlink:title=" ">
<path fill="none" stroke="#63b8ff" d="M1088.78,-225.5C1051.88,-216.32 992.38,-200.74 942,-184 894.72,-168.29 841.11,-146.46 808.96,-132.92"/>
<polygon fill="#63b8ff" stroke="#63b8ff" points="810.28,-129.68 799.7,-129 807.55,-136.13 810.28,-129.68"/>
</a>
</g>
</g>
<!-- Node25&#45;&gt;Node15 -->
<g id="edge61_Node000025_Node000015" class="edge">
<title>Node25&#45;&gt;Node15</title>
<g id="a_edge61_Node000025_Node000015"><a xlink:title=" ">
<path fill="none" stroke="#63b8ff" d="M1155.26,-225.49C1192.92,-215.25 1256.29,-198 1297.88,-186.69"/>
<polygon fill="#63b8ff" stroke="#63b8ff" points="1298.97,-190.02 1307.7,-184.02 1297.13,-183.27 1298.97,-190.02"/>
</a>
</g>
</g>
<!-- Node26&#45;&gt;Node3 -->
<g id="edge63_Node000026_Node000003" class="edge">
<title>Node26&#45;&gt;Node3</title>
<g id="a_edge63_Node000026_Node000003"><a xlink:title=" ">
<path fill="none" stroke="#63b8ff" d="M215.64,-164.99C269.38,-157.27 348.19,-144.71 416,-129 480.7,-114.01 554.67,-90.63 596.51,-76.82"/>
<polygon fill="#63b8ff" stroke="#63b8ff" points="597.8,-80.08 606.18,-73.6 595.59,-73.43 597.8,-80.08"/>
</a>
</g>
</g>
<!-- Node26&#45;&gt;Node4 -->
<g id="edge65_Node000026_Node000004" class="edge">
<title>Node26&#45;&gt;Node4</title>
<g id="a_edge65_Node000026_Node000004"><a xlink:title=" ">
<path fill="none" stroke="#63b8ff" d="M167.35,-164.93C209.47,-141.93 331.06,-78.96 441,-55 541.01,-33.2 1237.91,-16.98 1474,-12.05"/>
<polygon fill="#63b8ff" stroke="#63b8ff" points="1474.3,-15.55 1484.23,-11.84 1474.15,-8.55 1474.3,-15.55"/>
</a>
</g>
</g>
<!-- Node26&#45;&gt;Node5 -->
<g id="edge66_Node000026_Node000005" class="edge">
<title>Node26&#45;&gt;Node5</title>
<g id="a_edge66_Node000026_Node000005"><a xlink:title=" ">
<path fill="none" stroke="#63b8ff" d="M161.09,-164.91C185.83,-142.12 257.39,-80.18 330,-55 418.73,-24.23 693.19,-14.51 818.92,-11.63"/>
<polygon fill="#63b8ff" stroke="#63b8ff" points="819.24,-15.13 829.16,-11.41 819.08,-8.13 819.24,-15.13"/>
</a>
</g>
</g>
<!-- Node26&#45;&gt;Node6 -->
<g id="edge67_Node000026_Node000006" class="edge">
<title>Node26&#45;&gt;Node6</title>
<g id="a_edge67_Node000026_Node000006"><a xlink:title=" ">
<path fill="none" stroke="#63b8ff" d="M237.69,-165.69C240.83,-165.45 243.94,-165.22 247,-165 516.44,-145.67 836.06,-130.65 985.32,-124.09"/>
<polygon fill="#63b8ff" stroke="#63b8ff" points="985.49,-127.59 995.33,-123.66 985.19,-120.6 985.49,-127.59"/>
</a>
</g>
</g>
<!-- Node26&#45;&gt;Node14 -->
<g id="edge64_Node000026_Node000014" class="edge">
<title>Node26&#45;&gt;Node14</title>
<g id="a_edge64_Node000026_Node000014"><a xlink:title=" ">
<path fill="none" stroke="#63b8ff" d="M237.7,-165.81C240.84,-165.53 243.95,-165.26 247,-165 421.06,-149.95 627.16,-132.98 724.2,-125.05"/>
<polygon fill="#63b8ff" stroke="#63b8ff" points="724.68,-128.52 734.36,-124.22 724.11,-121.54 724.68,-128.52"/>
</a>
</g>
</g>
<!-- Node27&#45;&gt;Node2 -->
<g id="edge71_Node000027_Node000002" class="edge">
<title>Node27&#45;&gt;Node2</title>
<g id="a_edge71_Node000027_Node000002"><a xlink:title=" ">
<path fill="none" stroke="#63b8ff" d="M677.82,-221.74C614.48,-210.51 522.31,-194.17 466.19,-184.22"/>
<polygon fill="#63b8ff" stroke="#63b8ff" points="466.6,-180.74 456.15,-182.44 465.38,-187.63 466.6,-180.74"/>
</a>
</g>
</g>
<!-- Node27&#45;&gt;Node3 -->
<g id="edge69_Node000027_Node000003" class="edge">
<title>Node27&#45;&gt;Node3</title>
<g id="a_edge69_Node000027_Node000003"><a xlink:title=" ">
<path fill="none" stroke="#63b8ff" d="M677.84,-231.18C643.8,-225.86 605.55,-213.16 584,-184 560.18,-151.77 593.3,-105.64 614.56,-81.55"/>
<polygon fill="#63b8ff" stroke="#63b8ff" points="617.3,-83.74 621.48,-74 612.14,-79.01 617.3,-83.74"/>
</a>
</g>
</g>
<!-- Node27&#45;&gt;Node4 -->
<g id="edge72_Node000027_Node000004" class="edge">
<title>Node27&#45;&gt;Node4</title>
<g id="a_edge72_Node000027_Node000004"><a xlink:title=" ">
<path fill="none" stroke="#63b8ff" d="M677.56,-222.78C634.87,-214.31 585.95,-201.2 573,-184 537.92,-137.42 550.89,-90.7 597,-55 631.46,-28.32 1252.26,-15.47 1474.04,-11.71"/>
<polygon fill="#63b8ff" stroke="#63b8ff" points="1474.36,-15.2 1484.3,-11.54 1474.24,-8.2 1474.36,-15.2"/>
</a>
</g>
</g>
<!-- Node27&#45;&gt;Node5 -->
<g id="edge73_Node000027_Node000005" class="edge">
<title>Node27&#45;&gt;Node5</title>
<g id="a_edge73_Node000027_Node000005"><a xlink:title=" ">
<path fill="none" stroke="#63b8ff" d="M677.82,-224.83C617.7,-215.9 535.99,-201.2 508,-184 456.39,-152.28 423.49,-100.04 464,-55 487.27,-29.12 707.5,-17.13 818.99,-12.68"/>
<polygon fill="#63b8ff" stroke="#63b8ff" points="819.25,-16.17 829.1,-12.28 818.97,-9.17 819.25,-16.17"/>
</a>
</g>
</g>
<!-- Node27&#45;&gt;Node6 -->
<g id="edge74_Node000027_Node000006" class="edge">
<title>Node27&#45;&gt;Node6</title>
<g id="a_edge74_Node000027_Node000006"><a xlink:title=" ">
<path fill="none" stroke="#63b8ff" d="M786.93,-219.97C850.91,-197.49 975.32,-153.77 1035.6,-132.59"/>
<polygon fill="#63b8ff" stroke="#63b8ff" points="1037.12,-135.76 1045.4,-129.14 1034.8,-129.16 1037.12,-135.76"/>
</a>
</g>
</g>
<!-- Node27&#45;&gt;Node8 -->
<g id="edge75_Node000027_Node000008" class="edge">
<title>Node27&#45;&gt;Node8</title>
<g id="a_edge75_Node000027_Node000008"><a xlink:title=" ">
<path fill="none" stroke="#63b8ff" d="M816.25,-225.03C831.62,-223.21 847.85,-221.42 863,-220 1097.46,-197.99 1159.81,-208.2 1397.79,-184.05"/>
<polygon fill="#63b8ff" stroke="#63b8ff" points="1398.2,-187.53 1407.79,-183.03 1397.48,-180.56 1398.2,-187.53"/>
</a>
</g>
</g>
<!-- Node27&#45;&gt;Node14 -->
<g id="edge70_Node000027_Node000014" class="edge">
<title>Node27&#45;&gt;Node14</title>
<g id="a_edge70_Node000027_Node000014"><a xlink:title=" ">
<path fill="none" stroke="#63b8ff" d="M761.88,-219.77C770.45,-210.51 780.41,-197.64 785,-184 789.86,-169.57 788.05,-152.3 785.33,-139.41"/>
<polygon fill="#63b8ff" stroke="#63b8ff" points="788.66,-138.27 782.86,-129.4 781.86,-139.94 788.66,-138.27"/>
</a>
</g>
</g>
<!-- Node27&#45;&gt;Node15 -->
<g id="edge76_Node000027_Node000015" class="edge">
<title>Node27&#45;&gt;Node15</title>
<g id="a_edge76_Node000027_Node000015"><a xlink:title=" ">
<path fill="none" stroke="#63b8ff" d="M816.28,-225.33C831.65,-223.49 847.87,-221.62 863,-220 1011.8,-204.07 1187.11,-188.5 1277.79,-180.69"/>
<polygon fill="#63b8ff" stroke="#63b8ff" points="1278.22,-184.17 1287.88,-179.82 1277.62,-177.19 1278.22,-184.17"/>
</a>
</g>
</g>
<!-- Node28&#45;&gt;Node3 -->
<g id="edge78_Node000028_Node000003" class="edge">
<title>Node28&#45;&gt;Node3</title>
<g id="a_edge78_Node000028_Node000003"><a xlink:title=" ">
<path fill="none" stroke="#63b8ff" d="M695.19,-164.66C683.43,-146.77 656.63,-106 641.3,-82.69"/>
<polygon fill="#63b8ff" stroke="#63b8ff" points="644.11,-80.59 635.69,-74.16 638.26,-84.44 644.11,-80.59"/>
</a>
</g>
</g>
<!-- Node28&#45;&gt;Node4 -->
<g id="edge80_Node000028_Node000004" class="edge">
<title>Node28&#45;&gt;Node4</title>
<g id="a_edge80_Node000028_Node000004"><a xlink:title=" ">
<path fill="none" stroke="#63b8ff" d="M701.74,-164.63C703.38,-150.79 708.61,-124.2 725,-110 810.34,-36.08 861.33,-71.59 973,-55 1151.18,-28.53 1362.68,-17.33 1474.2,-12.98"/>
<polygon fill="#63b8ff" stroke="#63b8ff" points="1474.49,-16.47 1484.35,-12.6 1474.22,-9.48 1474.49,-16.47"/>
</a>
</g>
</g>
<!-- Node28&#45;&gt;Node6 -->
<g id="edge81_Node000028_Node000006" class="edge">
<title>Node28&#45;&gt;Node6</title>
<g id="a_edge81_Node000028_Node000006"><a xlink:title=" ">
<path fill="none" stroke="#63b8ff" d="M760.29,-164.98C825.82,-155.57 931.26,-140.43 1000.6,-130.47"/>
<polygon fill="#63b8ff" stroke="#63b8ff" points="1001.15,-133.92 1010.56,-129.04 1000.16,-127 1001.15,-133.92"/>
</a>
</g>
</g>
<!-- Node28&#45;&gt;Node14 -->
<g id="edge79_Node000028_Node000014" class="edge">
<title>Node28&#45;&gt;Node14</title>
<g id="a_edge79_Node000028_Node000014"><a xlink:title=" ">
<path fill="none" stroke="#63b8ff" d="M713.69,-164.98C725.83,-156.84 744.36,-144.41 758.75,-134.76"/>
<polygon fill="#63b8ff" stroke="#63b8ff" points="760.72,-137.65 767.08,-129.17 756.82,-131.84 760.72,-137.65"/>
</a>
</g>
</g>
</g>
</svg>
