<?xml version="1.0" encoding="UTF-8" standalone="no"?>
<!DOCTYPE svg PUBLIC "-//W3C//DTD SVG 1.1//EN"
 "http://www.w3.org/Graphics/SVG/1.1/DTD/svg11.dtd">
<!-- Generated by graphviz version 2.43.0 (0)
 -->
<!-- Title: VICUS::Object Pages: 1 -->
<svg width="241pt" height="286pt"
 viewBox="0.00 0.00 241.00 286.00" xmlns="http://www.w3.org/2000/svg" xmlns:xlink="http://www.w3.org/1999/xlink">
<g id="graph0" class="graph" transform="scale(1 1) rotate(0) translate(4 282)">
<title>VICUS::Object</title>
<!-- Node1 -->
<g id="Node000001" class="node">
<title>Node1</title>
<g id="a_Node000001"><a xlink:title=" ">
<polygon fill="#999999" stroke="#666666" points="83,-148 0,-148 0,-129 83,-129 83,-148"/>
<text text-anchor="middle" x="41.5" y="-136" font-family="Helvetica,sans-Serif" font-size="10.00">VICUS::Object</text>
</a>
</g>
</g>
<!-- Node2 -->
<g id="Node000002" class="node">
<title>Node2</title>
<g id="a_Node000002"><a xlink:href="class_v_i_c_u_s_1_1_building.html" target="_top" xlink:title=" ">
<polygon fill="white" stroke="#666666" points="220.5,-278 131.5,-278 131.5,-259 220.5,-259 220.5,-278"/>
<text text-anchor="middle" x="176" y="-266" font-family="Helvetica,sans-Serif" font-size="10.00">VICUS::Building</text>
</a>
</g>
</g>
<!-- Node1&#45;&gt;Node2 -->
<g id="edge1_Node000001_Node000002" class="edge">
<title>Node1&#45;&gt;Node2</title>
<g id="a_edge1_Node000001_Node000002"><a xlink:title=" ">
<path fill="none" stroke="#63b8ff" d="M50.71,-157.64C62.36,-182.56 85.98,-225.85 119,-250.5 123.58,-253.92 128.84,-256.71 134.26,-258.97"/>
<polygon fill="#63b8ff" stroke="#63b8ff" points="53.76,-155.87 46.46,-148.19 47.37,-158.74 53.76,-155.87"/>
</a>
</g>
</g>
<!-- Node3 -->
<g id="Node000003" class="node">
<title>Node3</title>
<g id="a_Node000003"><a xlink:href="class_v_i_c_u_s_1_1_building_level.html" target="_top" xlink:title=" ">
<polygon fill="white" stroke="#666666" points="232,-241 120,-241 120,-222 232,-222 232,-241"/>
<text text-anchor="middle" x="176" y="-229" font-family="Helvetica,sans-Serif" font-size="10.00">VICUS::BuildingLevel</text>
</a>
</g>
</g>
<!-- Node1&#45;&gt;Node3 -->
<g id="edge2_Node000001_Node000003" class="edge">
<title>Node1&#45;&gt;Node3</title>
<g id="a_edge2_Node000001_Node000003"><a xlink:title=" ">
<path fill="none" stroke="#63b8ff" d="M56.38,-156.25C70.48,-173.18 93.78,-198.27 119,-213.5 124.51,-216.83 130.7,-219.6 136.9,-221.9"/>
<polygon fill="#63b8ff" stroke="#63b8ff" points="58.91,-153.81 49.89,-148.25 53.47,-158.22 58.91,-153.81"/>
</a>
</g>
</g>
<!-- Node4 -->
<g id="Node000004" class="node">
<title>Node4</title>
<g id="a_Node000004"><a xlink:href="class_v_i_c_u_s_1_1_network.html" target="_top" xlink:title=" ">
<polygon fill="white" stroke="#666666" points="221.5,-204 130.5,-204 130.5,-185 221.5,-185 221.5,-204"/>
<text text-anchor="middle" x="176" y="-192" font-family="Helvetica,sans-Serif" font-size="10.00">VICUS::Network</text>
</a>
</g>
</g>
<!-- Node1&#45;&gt;Node4 -->
<g id="edge3_Node000001_Node000004" class="edge">
<title>Node1&#45;&gt;Node4</title>
<g id="a_edge3_Node000001_Node000004"><a xlink:title=" ">
<path fill="none" stroke="#63b8ff" d="M68.71,-152.74C83.28,-160.34 101.87,-169.54 119,-176.5 126.47,-179.54 134.67,-182.41 142.43,-184.94"/>
<polygon fill="#63b8ff" stroke="#63b8ff" points="70.26,-149.6 59.78,-148.02 66.98,-155.79 70.26,-149.6"/>
</a>
</g>
</g>
<!-- Node5 -->
<g id="Node000005" class="node">
<title>Node5</title>
<g id="a_Node000005"><a xlink:href="class_v_i_c_u_s_1_1_network_edge.html" target="_top" xlink:title=" ">
<polygon fill="white" stroke="#666666" points="232.5,-167 119.5,-167 119.5,-148 232.5,-148 232.5,-167"/>
<text text-anchor="middle" x="176" y="-155" font-family="Helvetica,sans-Serif" font-size="10.00">VICUS::NetworkEdge</text>
</a>
</g>
</g>
<!-- Node1&#45;&gt;Node5 -->
<g id="edge4_Node000001_Node000005" class="edge">
<title>Node1&#45;&gt;Node5</title>
<g id="a_edge4_Node000001_Node000005"><a xlink:title=" ">
<path fill="none" stroke="#63b8ff" d="M93.48,-145.81C101.98,-147.03 110.83,-148.3 119.43,-149.53"/>
<polygon fill="#63b8ff" stroke="#63b8ff" points="93.73,-142.31 83.34,-144.36 92.74,-149.24 93.73,-142.31"/>
</a>
</g>
</g>
<!-- Node6 -->
<g id="Node000006" class="node">
<title>Node6</title>
<g id="a_Node000006"><a xlink:href="class_v_i_c_u_s_1_1_network_node.html" target="_top" xlink:title=" ">
<polygon fill="white" stroke="#666666" points="233,-130 119,-130 119,-111 233,-111 233,-130"/>
<text text-anchor="middle" x="176" y="-118" font-family="Helvetica,sans-Serif" font-size="10.00">VICUS::NetworkNode</text>
</a>
</g>
</g>
<!-- Node1&#45;&gt;Node6 -->
<g id="edge5_Node000001_Node000006" class="edge">
<title>Node1&#45;&gt;Node6</title>
<g id="a_edge5_Node000001_Node000006"><a xlink:title=" ">
<path fill="none" stroke="#63b8ff" d="M93.34,-131.59C101.72,-130.45 110.45,-129.27 118.95,-128.11"/>
<polygon fill="#63b8ff" stroke="#63b8ff" points="92.77,-128.14 83.34,-132.95 93.72,-135.07 92.77,-128.14"/>
</a>
</g>
</g>
<!-- Node7 -->
<g id="Node000007" class="node">
<title>Node7</title>
<g id="a_Node000007"><a xlink:href="class_v_i_c_u_s_1_1_room.html" target="_top" xlink:title=" ">
<polygon fill="white" stroke="#666666" points="216,-93 136,-93 136,-74 216,-74 216,-93"/>
<text text-anchor="middle" x="176" y="-81" font-family="Helvetica,sans-Serif" font-size="10.00">VICUS::Room</text>
</a>
</g>
</g>
<!-- Node1&#45;&gt;Node7 -->
<g id="edge6_Node000001_Node000007" class="edge">
<title>Node1&#45;&gt;Node7</title>
<g id="a_edge6_Node000001_Node000007"><a xlink:title=" ">
<path fill="none" stroke="#63b8ff" d="M70.7,-124.3C85,-117.33 102.74,-109.06 119,-102.5 127.28,-99.16 136.4,-95.89 144.84,-93.04"/>
<polygon fill="#63b8ff" stroke="#63b8ff" points="68.84,-121.31 61.41,-128.87 71.93,-127.59 68.84,-121.31"/>
</a>
</g>
</g>
<!-- Node8 -->
<g id="Node000008" class="node">
<title>Node8</title>
<g id="a_Node000008"><a xlink:href="class_v_i_c_u_s_1_1_sub_surface.html" target="_top" xlink:title=" ">
<polygon fill="white" stroke="#666666" points="228.5,-56 123.5,-56 123.5,-37 228.5,-37 228.5,-56"/>
<text text-anchor="middle" x="176" y="-44" font-family="Helvetica,sans-Serif" font-size="10.00">VICUS::SubSurface</text>
</a>
</g>
</g>
<!-- Node1&#45;&gt;Node8 -->
<g id="edge7_Node000001_Node000008" class="edge">
<title>Node1&#45;&gt;Node8</title>
<g id="a_edge7_Node000001_Node000008"><a xlink:title=" ">
<path fill="none" stroke="#63b8ff" d="M57,-120.79C71.25,-104.41 94.4,-80.4 119,-65.5 125.23,-61.72 132.32,-58.58 139.3,-56.01"/>
<polygon fill="#63b8ff" stroke="#63b8ff" points="54.19,-118.69 50.39,-128.58 59.53,-123.22 54.19,-118.69"/>
</a>
</g>
</g>
<!-- Node9 -->
<g id="Node000009" class="node">
<title>Node9</title>
<g id="a_Node000009"><a xlink:href="class_v_i_c_u_s_1_1_surface.html" target="_top" xlink:title=" ">
<polygon fill="white" stroke="#666666" points="220,-19 132,-19 132,0 220,0 220,-19"/>
<text text-anchor="middle" x="176" y="-7" font-family="Helvetica,sans-Serif" font-size="10.00">VICUS::Surface</text>
</a>
</g>
</g>
<!-- Node1&#45;&gt;Node9 -->
<g id="edge8_Node000001_Node000009" class="edge">
<title>Node1&#45;&gt;Node9</title>
<g id="a_edge8_Node000001_Node000009"><a xlink:title=" ">
<path fill="none" stroke="#63b8ff" d="M51.04,-119.42C62.91,-94.97 86.64,-52.85 119,-28.5 124.09,-24.67 129.99,-21.58 136.03,-19.1"/>
<polygon fill="#63b8ff" stroke="#63b8ff" points="47.76,-118.17 46.69,-128.71 54.1,-121.14 47.76,-118.17"/>
</a>
</g>
</g>
</g>
</svg>
