<?xml version="1.0" encoding="UTF-8" standalone="no"?>
<!DOCTYPE svg PUBLIC "-//W3C//DTD SVG 1.1//EN"
 "http://www.w3.org/Graphics/SVG/1.1/DTD/svg11.dtd">
<!-- Generated by graphviz version 2.43.0 (0)
 -->
<!-- Title: Graphical Class Hierarchy Pages: 1 -->
<svg width="349pt" height="927pt"
 viewBox="0.00 0.00 349.00 927.00" xmlns="http://www.w3.org/2000/svg" xmlns:xlink="http://www.w3.org/1999/xlink">
<g id="graph0" class="graph" transform="scale(1 1) rotate(0) translate(4 923)">
<title>Graphical Class Hierarchy</title>
<!-- Node0 -->
<g id="Node000000" class="node">
<title>Node0</title>
<g id="a_Node000000"><a xlink:href="class_v_i_c_u_s_1_1_abstract_d_b_element.html" target="_top" xlink:title=" ">
<polygon fill="white" stroke="#666666" points="141,-475 0,-475 0,-456 141,-456 141,-475"/>
<text text-anchor="middle" x="70.5" y="-463" font-family="Helvetica,sans-Serif" font-size="10.00">VICUS::AbstractDBElement</text>
</a>
</g>
</g>
<!-- Node1 -->
<g id="Node000001" class="node">
<title>Node1</title>
<g id="a_Node000001"><a xlink:href="class_v_i_c_u_s_1_1_acoustic_template.html" target="_top" xlink:title=" ">
<polygon fill="white" stroke="#666666" points="325,-919 193,-919 193,-900 325,-900 325,-919"/>
<text text-anchor="middle" x="259" y="-907" font-family="Helvetica,sans-Serif" font-size="10.00">VICUS::AcousticTemplate</text>
</a>
</g>
</g>
<!-- Node0&#45;&gt;Node1 -->
<g id="edge4_Node000000_Node000001" class="edge">
<title>Node0&#45;&gt;Node1</title>
<g id="a_edge4_Node000000_Node000001"><a xlink:title=" ">
<path fill="none" stroke="#63b8ff" d="M73.65,-485.22C82.31,-561.11 117.1,-833.03 177,-891.5 181.54,-895.93 186.9,-899.36 192.69,-902.02"/>
<polygon fill="#63b8ff" stroke="#63b8ff" points="77.11,-484.69 72.52,-475.14 70.15,-485.46 77.11,-484.69"/>
</a>
</g>
</g>
<!-- Node2 -->
<g id="Node000002" class="node">
<title>Node2</title>
<g id="a_Node000002"><a xlink:href="class_v_i_c_u_s_1_1_boundary_condition.html" target="_top" xlink:title=" ">
<polygon fill="white" stroke="#666666" points="327.5,-882 190.5,-882 190.5,-863 327.5,-863 327.5,-882"/>
<text text-anchor="middle" x="259" y="-870" font-family="Helvetica,sans-Serif" font-size="10.00">VICUS::BoundaryCondition</text>
</a>
</g>
</g>
<!-- Node0&#45;&gt;Node2 -->
<g id="edge5_Node000000_Node000002" class="edge">
<title>Node0&#45;&gt;Node2</title>
<g id="a_edge5_Node000000_Node000002"><a xlink:title=" ">
<path fill="none" stroke="#63b8ff" d="M74.15,-485.31C84.16,-557.07 121.87,-801.86 177,-854.5 180.96,-858.28 185.53,-861.34 190.44,-863.8"/>
<polygon fill="#63b8ff" stroke="#63b8ff" points="77.57,-484.44 72.74,-475 70.63,-485.39 77.57,-484.44"/>
</a>
</g>
</g>
<!-- Node3 -->
<g id="Node000003" class="node">
<title>Node3</title>
<g id="a_Node000003"><a xlink:href="class_v_i_c_u_s_1_1_component.html" target="_top" xlink:title=" ">
<polygon fill="white" stroke="#666666" points="311,-845 207,-845 207,-826 311,-826 311,-845"/>
<text text-anchor="middle" x="259" y="-833" font-family="Helvetica,sans-Serif" font-size="10.00">VICUS::Component</text>
</a>
</g>
</g>
<!-- Node0&#45;&gt;Node3 -->
<g id="edge6_Node000000_Node000003" class="edge">
<title>Node0&#45;&gt;Node3</title>
<g id="a_edge6_Node000000_Node000003"><a xlink:title=" ">
<path fill="none" stroke="#63b8ff" d="M71,-485.46C70.65,-545.45 78.24,-725.65 177,-817.5 185.23,-825.15 195.96,-829.81 206.91,-832.59"/>
<polygon fill="#63b8ff" stroke="#63b8ff" points="74.5,-485.18 71.15,-475.13 67.5,-485.07 74.5,-485.18"/>
</a>
</g>
</g>
<!-- Node4 -->
<g id="Node000004" class="node">
<title>Node4</title>
<g id="a_Node000004"><a xlink:href="class_v_i_c_u_s_1_1_construction.html" target="_top" xlink:title=" ">
<polygon fill="white" stroke="#666666" points="314,-808 204,-808 204,-789 314,-789 314,-808"/>
<text text-anchor="middle" x="259" y="-796" font-family="Helvetica,sans-Serif" font-size="10.00">VICUS::Construction</text>
</a>
</g>
</g>
<!-- Node0&#45;&gt;Node4 -->
<g id="edge7_Node000000_Node000004" class="edge">
<title>Node0&#45;&gt;Node4</title>
<g id="a_edge7_Node000000_Node000004"><a xlink:title=" ">
<path fill="none" stroke="#63b8ff" d="M71.82,-485.57C73.84,-541.45 87.58,-699.97 177,-780.5 184.49,-787.25 193.94,-791.65 203.72,-794.49"/>
<polygon fill="#63b8ff" stroke="#63b8ff" points="75.31,-485.17 71.54,-475.27 68.31,-485.36 75.31,-485.17"/>
</a>
</g>
</g>
<!-- Node5 -->
<g id="Node000005" class="node">
<title>Node5</title>
<g id="a_Node000005"><a xlink:href="class_v_i_c_u_s_1_1_e_p_d_dataset.html" target="_top" xlink:title=" ">
<polygon fill="white" stroke="#666666" points="314,-771 204,-771 204,-752 314,-752 314,-771"/>
<text text-anchor="middle" x="259" y="-759" font-family="Helvetica,sans-Serif" font-size="10.00">VICUS::EPDDataset</text>
</a>
</g>
</g>
<!-- Node0&#45;&gt;Node5 -->
<g id="edge8_Node000000_Node000005" class="edge">
<title>Node0&#45;&gt;Node5</title>
<g id="a_edge8_Node000000_Node000005"><a xlink:title=" ">
<path fill="none" stroke="#63b8ff" d="M72.8,-485.26C77.29,-536.4 96.62,-673.94 177,-743.5 184.62,-750.1 194.14,-754.43 203.93,-757.25"/>
<polygon fill="#63b8ff" stroke="#63b8ff" points="76.29,-484.91 72.02,-475.21 69.31,-485.45 76.29,-484.91"/>
</a>
</g>
</g>
<!-- Node6 -->
<g id="Node000006" class="node">
<title>Node6</title>
<g id="a_Node000006"><a xlink:href="class_v_i_c_u_s_1_1_infiltration.html" target="_top" xlink:title=" ">
<polygon fill="white" stroke="#666666" points="307.5,-734 210.5,-734 210.5,-715 307.5,-715 307.5,-734"/>
<text text-anchor="middle" x="259" y="-722" font-family="Helvetica,sans-Serif" font-size="10.00">VICUS::Infiltration</text>
</a>
</g>
</g>
<!-- Node0&#45;&gt;Node6 -->
<g id="edge9_Node000000_Node000006" class="edge">
<title>Node0&#45;&gt;Node6</title>
<g id="a_edge9_Node000000_Node000006"><a xlink:title=" ">
<path fill="none" stroke="#63b8ff" d="M74.06,-485.1C81.18,-531.35 105.64,-647.79 177,-706.5 186.34,-714.19 198.28,-718.77 210.09,-721.45"/>
<polygon fill="#63b8ff" stroke="#63b8ff" points="77.52,-484.57 72.63,-475.17 70.59,-485.56 77.52,-484.57"/>
</a>
</g>
</g>
<!-- Node7 -->
<g id="Node000007" class="node">
<title>Node7</title>
<g id="a_Node000007"><a xlink:href="class_v_i_c_u_s_1_1_internal_load.html" target="_top" xlink:title=" ">
<polygon fill="white" stroke="#666666" points="312.5,-697 205.5,-697 205.5,-678 312.5,-678 312.5,-697"/>
<text text-anchor="middle" x="259" y="-685" font-family="Helvetica,sans-Serif" font-size="10.00">VICUS::InternalLoad</text>
</a>
</g>
</g>
<!-- Node0&#45;&gt;Node7 -->
<g id="edge10_Node000000_Node000007" class="edge">
<title>Node0&#45;&gt;Node7</title>
<g id="a_edge10_Node000000_Node000007"><a xlink:title=" ">
<path fill="none" stroke="#63b8ff" d="M75.68,-484.84C85.58,-525.78 114.49,-621.37 177,-669.5 185.22,-675.83 195.22,-680.02 205.35,-682.78"/>
<polygon fill="#63b8ff" stroke="#63b8ff" points="79.08,-484 73.42,-475.04 72.26,-485.57 79.08,-484"/>
</a>
</g>
</g>
<!-- Node8 -->
<g id="Node000008" class="node">
<title>Node8</title>
<g id="a_Node000008"><a xlink:href="class_v_i_c_u_s_1_1_material.html" target="_top" xlink:title=" ">
<polygon fill="white" stroke="#666666" points="303.5,-660 214.5,-660 214.5,-641 303.5,-641 303.5,-660"/>
<text text-anchor="middle" x="259" y="-648" font-family="Helvetica,sans-Serif" font-size="10.00">VICUS::Material</text>
</a>
</g>
</g>
<!-- Node0&#45;&gt;Node8 -->
<g id="edge11_Node000000_Node000008" class="edge">
<title>Node0&#45;&gt;Node8</title>
<g id="a_edge11_Node000000_Node000008"><a xlink:title=" ">
<path fill="none" stroke="#63b8ff" d="M78.04,-484.92C90.99,-520.23 123.36,-594.77 177,-632.5 187.84,-640.13 201.35,-644.59 214.21,-647.19"/>
<polygon fill="#63b8ff" stroke="#63b8ff" points="81.28,-483.57 74.65,-475.31 74.68,-485.9 81.28,-483.57"/>
</a>
</g>
</g>
<!-- Node9 -->
<g id="Node000009" class="node">
<title>Node9</title>
<g id="a_Node000009"><a xlink:href="class_v_i_c_u_s_1_1_network_component.html" target="_top" xlink:title=" ">
<polygon fill="white" stroke="#666666" points="329.5,-623 188.5,-623 188.5,-604 329.5,-604 329.5,-623"/>
<text text-anchor="middle" x="259" y="-611" font-family="Helvetica,sans-Serif" font-size="10.00">VICUS::NetworkComponent</text>
</a>
</g>
</g>
<!-- Node0&#45;&gt;Node9 -->
<g id="edge12_Node000000_Node000009" class="edge">
<title>Node0&#45;&gt;Node9</title>
<g id="a_edge12_Node000000_Node000009"><a xlink:title=" ">
<path fill="none" stroke="#63b8ff" d="M81.21,-484.18C97.15,-512.89 131.67,-567.46 177,-595.5 182.51,-598.91 188.59,-601.68 194.86,-603.92"/>
<polygon fill="#63b8ff" stroke="#63b8ff" points="84.19,-482.33 76.36,-475.19 78.03,-485.65 84.19,-482.33"/>
</a>
</g>
</g>
<!-- Node10 -->
<g id="Node000010" class="node">
<title>Node10</title>
<g id="a_Node000010"><a xlink:href="class_v_i_c_u_s_1_1_network_controller.html" target="_top" xlink:title=" ">
<polygon fill="white" stroke="#666666" points="325.5,-586 192.5,-586 192.5,-567 325.5,-567 325.5,-586"/>
<text text-anchor="middle" x="259" y="-574" font-family="Helvetica,sans-Serif" font-size="10.00">VICUS::NetworkController</text>
</a>
</g>
</g>
<!-- Node0&#45;&gt;Node10 -->
<g id="edge13_Node000000_Node000010" class="edge">
<title>Node0&#45;&gt;Node10</title>
<g id="a_edge13_Node000000_Node000010"><a xlink:title=" ">
<path fill="none" stroke="#63b8ff" d="M85.98,-482.76C104.75,-503.96 139.54,-539.44 177,-558.5 183.68,-561.9 190.98,-564.66 198.39,-566.9"/>
<polygon fill="#63b8ff" stroke="#63b8ff" points="88.58,-480.41 79.39,-475.15 83.29,-485 88.58,-480.41"/>
</a>
</g>
</g>
<!-- Node11 -->
<g id="Node000011" class="node">
<title>Node11</title>
<g id="a_Node000011"><a xlink:href="class_v_i_c_u_s_1_1_network_fluid.html" target="_top" xlink:title=" ">
<polygon fill="white" stroke="#666666" points="315,-549 203,-549 203,-530 315,-530 315,-549"/>
<text text-anchor="middle" x="259" y="-537" font-family="Helvetica,sans-Serif" font-size="10.00">VICUS::NetworkFluid</text>
</a>
</g>
</g>
<!-- Node0&#45;&gt;Node11 -->
<g id="edge14_Node000000_Node000011" class="edge">
<title>Node0&#45;&gt;Node11</title>
<g id="a_edge14_Node000000_Node000011"><a xlink:title=" ">
<path fill="none" stroke="#63b8ff" d="M95.4,-480.59C116.24,-493.15 147.64,-510.67 177,-521.5 185.92,-524.79 195.62,-527.58 205.12,-529.91"/>
<polygon fill="#63b8ff" stroke="#63b8ff" points="96.97,-477.45 86.62,-475.21 93.32,-483.42 96.97,-477.45"/>
</a>
</g>
</g>
<!-- Node12 -->
<g id="Node000012" class="node">
<title>Node12</title>
<g id="a_Node000012"><a xlink:href="class_v_i_c_u_s_1_1_network_pipe.html" target="_top" xlink:title=" ">
<polygon fill="white" stroke="#666666" points="314,-512 204,-512 204,-493 314,-493 314,-512"/>
<text text-anchor="middle" x="259" y="-500" font-family="Helvetica,sans-Serif" font-size="10.00">VICUS::NetworkPipe</text>
</a>
</g>
</g>
<!-- Node0&#45;&gt;Node12 -->
<g id="edge15_Node000000_Node000012" class="edge">
<title>Node0&#45;&gt;Node12</title>
<g id="a_edge15_Node000000_Node000012"><a xlink:title=" ">
<path fill="none" stroke="#63b8ff" d="M129.55,-477.02C155.32,-482.13 185.3,-488.08 209.81,-492.94"/>
<polygon fill="#63b8ff" stroke="#63b8ff" points="130.02,-473.54 119.53,-475.03 128.66,-480.41 130.02,-473.54"/>
</a>
</g>
</g>
<!-- Node13 -->
<g id="Node000013" class="node">
<title>Node13</title>
<g id="a_Node000013"><a xlink:href="class_v_i_c_u_s_1_1_schedule.html" target="_top" xlink:title=" ">
<polygon fill="white" stroke="#666666" points="306.5,-475 211.5,-475 211.5,-456 306.5,-456 306.5,-475"/>
<text text-anchor="middle" x="259" y="-463" font-family="Helvetica,sans-Serif" font-size="10.00">VICUS::Schedule</text>
</a>
</g>
</g>
<!-- Node0&#45;&gt;Node13 -->
<g id="edge16_Node000000_Node000013" class="edge">
<title>Node0&#45;&gt;Node13</title>
<g id="a_edge16_Node000000_Node000013"><a xlink:title=" ">
<path fill="none" stroke="#63b8ff" d="M151.46,-465.5C171.87,-465.5 193.15,-465.5 211.28,-465.5"/>
<polygon fill="#63b8ff" stroke="#63b8ff" points="151.21,-462 141.21,-465.5 151.21,-469 151.21,-462"/>
</a>
</g>
</g>
<!-- Node14 -->
<g id="Node000014" class="node">
<title>Node14</title>
<g id="a_Node000014"><a xlink:href="class_v_i_c_u_s_1_1_sub_network.html" target="_top" xlink:title=" ">
<polygon fill="white" stroke="#666666" points="313,-438 205,-438 205,-419 313,-419 313,-438"/>
<text text-anchor="middle" x="259" y="-426" font-family="Helvetica,sans-Serif" font-size="10.00">VICUS::SubNetwork</text>
</a>
</g>
</g>
<!-- Node0&#45;&gt;Node14 -->
<g id="edge17_Node000000_Node000014" class="edge">
<title>Node0&#45;&gt;Node14</title>
<g id="a_edge17_Node000000_Node000014"><a xlink:title=" ">
<path fill="none" stroke="#63b8ff" d="M129.55,-453.98C155.32,-448.87 185.3,-442.92 209.81,-438.06"/>
<polygon fill="#63b8ff" stroke="#63b8ff" points="128.66,-450.59 119.53,-455.97 130.02,-457.46 128.66,-450.59"/>
</a>
</g>
</g>
<!-- Node15 -->
<g id="Node000015" class="node">
<title>Node15</title>
<g id="a_Node000015"><a xlink:href="class_v_i_c_u_s_1_1_sub_surface_component.html" target="_top" xlink:title=" ">
<polygon fill="white" stroke="#666666" points="336.5,-401 181.5,-401 181.5,-382 336.5,-382 336.5,-401"/>
<text text-anchor="middle" x="259" y="-389" font-family="Helvetica,sans-Serif" font-size="10.00">VICUS::SubSurfaceComponent</text>
</a>
</g>
</g>
<!-- Node0&#45;&gt;Node15 -->
<g id="edge18_Node000000_Node000015" class="edge">
<title>Node0&#45;&gt;Node15</title>
<g id="a_edge18_Node000000_Node000015"><a xlink:title=" ">
<path fill="none" stroke="#63b8ff" d="M95.83,-450.57C116.72,-438.32 147.95,-421.29 177,-410.5 187.02,-406.78 198.02,-403.62 208.59,-401.01"/>
<polygon fill="#63b8ff" stroke="#63b8ff" points="93.81,-447.7 87.01,-455.83 97.4,-453.72 93.81,-447.7"/>
</a>
</g>
</g>
<!-- Node16 -->
<g id="Node000016" class="node">
<title>Node16</title>
<g id="a_Node000016"><a xlink:href="class_v_i_c_u_s_1_1_supply_system.html" target="_top" xlink:title=" ">
<polygon fill="white" stroke="#666666" points="318,-364 200,-364 200,-345 318,-345 318,-364"/>
<text text-anchor="middle" x="259" y="-352" font-family="Helvetica,sans-Serif" font-size="10.00">VICUS::SupplySystem</text>
</a>
</g>
</g>
<!-- Node0&#45;&gt;Node16 -->
<g id="edge19_Node000000_Node000016" class="edge">
<title>Node0&#45;&gt;Node16</title>
<g id="a_edge19_Node000000_Node000016"><a xlink:title=" ">
<path fill="none" stroke="#63b8ff" d="M86.35,-448.18C105.26,-427.25 139.96,-392.49 177,-373.5 184.58,-369.61 192.97,-366.51 201.4,-364.03"/>
<polygon fill="#63b8ff" stroke="#63b8ff" points="83.69,-445.9 79.68,-455.71 88.93,-450.54 83.69,-445.9"/>
</a>
</g>
</g>
<!-- Node17 -->
<g id="Node000017" class="node">
<title>Node17</title>
<g id="a_Node000017"><a xlink:href="class_v_i_c_u_s_1_1_surface_heating.html" target="_top" xlink:title=" ">
<polygon fill="white" stroke="#666666" points="320,-327 198,-327 198,-308 320,-308 320,-327"/>
<text text-anchor="middle" x="259" y="-315" font-family="Helvetica,sans-Serif" font-size="10.00">VICUS::SurfaceHeating</text>
</a>
</g>
</g>
<!-- Node0&#45;&gt;Node17 -->
<g id="edge20_Node000000_Node000017" class="edge">
<title>Node0&#45;&gt;Node17</title>
<g id="a_edge20_Node000000_Node000017"><a xlink:title=" ">
<path fill="none" stroke="#63b8ff" d="M81.29,-447.03C97.33,-418.63 131.99,-364.58 177,-336.5 183.37,-332.52 190.5,-329.38 197.81,-326.89"/>
<polygon fill="#63b8ff" stroke="#63b8ff" points="78.15,-445.47 76.4,-455.92 84.28,-448.84 78.15,-445.47"/>
</a>
</g>
</g>
<!-- Node18 -->
<g id="Node000018" class="node">
<title>Node18</title>
<g id="a_Node000018"><a xlink:href="class_v_i_c_u_s_1_1_ventilation_natural.html" target="_top" xlink:title=" ">
<polygon fill="white" stroke="#666666" points="324.5,-290 193.5,-290 193.5,-271 324.5,-271 324.5,-290"/>
<text text-anchor="middle" x="259" y="-278" font-family="Helvetica,sans-Serif" font-size="10.00">VICUS::VentilationNatural</text>
</a>
</g>
</g>
<!-- Node0&#45;&gt;Node18 -->
<g id="edge21_Node000000_Node000018" class="edge">
<title>Node0&#45;&gt;Node18</title>
<g id="a_edge21_Node000000_Node000018"><a xlink:title=" ">
<path fill="none" stroke="#63b8ff" d="M78.12,-446.25C91.19,-411.25 123.76,-337.31 177,-299.5 182.42,-295.65 188.5,-292.57 194.84,-290.11"/>
<polygon fill="#63b8ff" stroke="#63b8ff" points="74.78,-445.19 74.69,-455.78 81.37,-447.56 74.78,-445.19"/>
</a>
</g>
</g>
<!-- Node19 -->
<g id="Node000019" class="node">
<title>Node19</title>
<g id="a_Node000019"><a xlink:href="class_v_i_c_u_s_1_1_window.html" target="_top" xlink:title=" ">
<polygon fill="white" stroke="#666666" points="303.5,-253 214.5,-253 214.5,-234 303.5,-234 303.5,-253"/>
<text text-anchor="middle" x="259" y="-241" font-family="Helvetica,sans-Serif" font-size="10.00">VICUS::Window</text>
</a>
</g>
</g>
<!-- Node0&#45;&gt;Node19 -->
<g id="edge22_Node000000_Node000019" class="edge">
<title>Node0&#45;&gt;Node19</title>
<g id="a_edge22_Node000000_Node000019"><a xlink:title=" ">
<path fill="none" stroke="#63b8ff" d="M75.89,-445.74C86.07,-404.8 115.25,-310.52 177,-262.5 187.6,-254.25 201.19,-249.49 214.2,-246.77"/>
<polygon fill="#63b8ff" stroke="#63b8ff" points="72.46,-445.04 73.56,-455.58 79.27,-446.66 72.46,-445.04"/>
</a>
</g>
</g>
<!-- Node20 -->
<g id="Node000020" class="node">
<title>Node20</title>
<g id="a_Node000020"><a xlink:href="class_v_i_c_u_s_1_1_window_glazing_system.html" target="_top" xlink:title=" ">
<polygon fill="white" stroke="#666666" points="337,-216 181,-216 181,-197 337,-197 337,-216"/>
<text text-anchor="middle" x="259" y="-204" font-family="Helvetica,sans-Serif" font-size="10.00">VICUS::WindowGlazingSystem</text>
</a>
</g>
</g>
<!-- Node0&#45;&gt;Node20 -->
<g id="edge23_Node000000_Node000020" class="edge">
<title>Node0&#45;&gt;Node20</title>
<g id="a_edge23_Node000000_Node000020"><a xlink:title=" ">
<path fill="none" stroke="#63b8ff" d="M74.18,-445.74C81.51,-399.6 106.34,-284.24 177,-225.5 181.67,-221.62 186.98,-218.5 192.61,-216"/>
<polygon fill="#63b8ff" stroke="#63b8ff" points="70.67,-445.5 72.67,-455.9 77.6,-446.52 70.67,-445.5"/>
</a>
</g>
</g>
<!-- Node21 -->
<g id="Node000021" class="node">
<title>Node21</title>
<g id="a_Node000021"><a xlink:href="class_v_i_c_u_s_1_1_zone_control_natural_ventilation.html" target="_top" xlink:title=" ">
<polygon fill="white" stroke="#666666" points="328.5,-178.5 189.5,-178.5 189.5,-148.5 328.5,-148.5 328.5,-178.5"/>
<text text-anchor="start" x="197.5" y="-166.5" font-family="Helvetica,sans-Serif" font-size="10.00">VICUS::ZoneControlNatural</text>
<text text-anchor="middle" x="259" y="-155.5" font-family="Helvetica,sans-Serif" font-size="10.00">Ventilation</text>
</a>
</g>
</g>
<!-- Node0&#45;&gt;Node21 -->
<g id="edge24_Node000000_Node000021" class="edge">
<title>Node0&#45;&gt;Node21</title>
<g id="a_edge24_Node000000_Node000021"><a xlink:title=" ">
<path fill="none" stroke="#63b8ff" d="M73.23,-445.51C78.68,-394.91 100.03,-260.66 177,-188.5 181.08,-184.68 185.73,-181.43 190.7,-178.69"/>
<polygon fill="#63b8ff" stroke="#63b8ff" points="69.72,-445.45 72.22,-455.74 76.68,-446.13 69.72,-445.45"/>
</a>
</g>
</g>
<!-- Node22 -->
<g id="Node000022" class="node">
<title>Node22</title>
<g id="a_Node000022"><a xlink:href="class_v_i_c_u_s_1_1_zone_control_shading.html" target="_top" xlink:title=" ">
<polygon fill="white" stroke="#666666" points="330.5,-130 187.5,-130 187.5,-111 330.5,-111 330.5,-130"/>
<text text-anchor="middle" x="259" y="-118" font-family="Helvetica,sans-Serif" font-size="10.00">VICUS::ZoneControlShading</text>
</a>
</g>
</g>
<!-- Node0&#45;&gt;Node22 -->
<g id="edge25_Node000000_Node000022" class="edge">
<title>Node0&#45;&gt;Node22</title>
<g id="a_edge25_Node000000_Node000022"><a xlink:title=" ">
<path fill="none" stroke="#63b8ff" d="M71.6,-445.55C73.03,-388.59 85.29,-223.94 177,-139.5 181.14,-135.68 185.91,-132.59 191,-130.09"/>
<polygon fill="#63b8ff" stroke="#63b8ff" points="68.1,-445.67 71.44,-455.72 75.1,-445.78 68.1,-445.67"/>
</a>
</g>
</g>
<!-- Node23 -->
<g id="Node000023" class="node">
<title>Node23</title>
<g id="a_Node000023"><a xlink:href="class_v_i_c_u_s_1_1_zone_control_thermostat.html" target="_top" xlink:title=" ">
<polygon fill="white" stroke="#666666" points="337.5,-93 180.5,-93 180.5,-74 337.5,-74 337.5,-93"/>
<text text-anchor="middle" x="259" y="-81" font-family="Helvetica,sans-Serif" font-size="10.00">VICUS::ZoneControlThermostat</text>
</a>
</g>
</g>
<!-- Node0&#45;&gt;Node23 -->
<g id="edge26_Node000000_Node000023" class="edge">
<title>Node0&#45;&gt;Node23</title>
<g id="a_edge26_Node000000_Node000023"><a xlink:title=" ">
<path fill="none" stroke="#63b8ff" d="M70.84,-445.78C69.94,-384.92 75.92,-198.41 177,-102.5 180.98,-98.72 185.57,-95.65 190.49,-93.15"/>
<polygon fill="#63b8ff" stroke="#63b8ff" points="67.34,-446 71.07,-455.92 74.34,-445.84 67.34,-446"/>
</a>
</g>
</g>
<!-- Node24 -->
<g id="Node000024" class="node">
<title>Node24</title>
<g id="a_Node000024"><a xlink:href="class_v_i_c_u_s_1_1_zone_ideal_heating_cooling.html" target="_top" xlink:title=" ">
<polygon fill="white" stroke="#666666" points="341,-56 177,-56 177,-37 341,-37 341,-56"/>
<text text-anchor="middle" x="259" y="-44" font-family="Helvetica,sans-Serif" font-size="10.00">VICUS::ZoneIdealHeatingCooling</text>
</a>
</g>
</g>
<!-- Node0&#45;&gt;Node24 -->
<g id="edge27_Node000000_Node000024" class="edge">
<title>Node0&#45;&gt;Node24</title>
<g id="a_edge27_Node000000_Node000024"><a xlink:title=" ">
<path fill="none" stroke="#63b8ff" d="M74.03,-445.61C83.73,-372.51 120.81,-120.17 177,-65.5 180.93,-61.67 185.49,-58.56 190.38,-56.04"/>
<polygon fill="#63b8ff" stroke="#63b8ff" points="70.53,-445.37 72.71,-455.74 77.47,-446.28 70.53,-445.37"/>
</a>
</g>
</g>
<!-- Node25 -->
<g id="Node000025" class="node">
<title>Node25</title>
<g id="a_Node000025"><a xlink:href="class_v_i_c_u_s_1_1_zone_template.html" target="_top" xlink:title=" ">
<polygon fill="white" stroke="#666666" points="317,-19 201,-19 201,0 317,0 317,-19"/>
<text text-anchor="middle" x="259" y="-7" font-family="Helvetica,sans-Serif" font-size="10.00">VICUS::ZoneTemplate</text>
</a>
</g>
</g>
<!-- Node0&#45;&gt;Node25 -->
<g id="edge28_Node000000_Node000025" class="edge">
<title>Node0&#45;&gt;Node25</title>
<g id="a_edge28_Node000000_Node000025"><a xlink:title=" ">
<path fill="none" stroke="#63b8ff" d="M73.59,-445.3C82.04,-367.55 116.17,-88.93 177,-28.5 183.56,-21.98 191.9,-17.54 200.72,-14.54"/>
<polygon fill="#63b8ff" stroke="#63b8ff" points="70.07,-445.31 72.49,-455.63 77.03,-446.06 70.07,-445.31"/>
</a>
</g>
</g>
</g>
</svg>
