<?xml version="1.0" encoding="UTF-8" standalone="no"?>
<!DOCTYPE svg PUBLIC "-//W3C//DTD SVG 1.1//EN"
 "http://www.w3.org/Graphics/SVG/1.1/DTD/svg11.dtd">
<!-- Generated by graphviz version 2.43.0 (0)
 -->
<!-- Title: /home/hirth/git/SIM&#45;VICUS.master2/externals/Vicus/src/ncg/ncg_VICUS_Outputs.cpp Pages: 1 -->
<svg width="1255pt" height="225pt"
 viewBox="0.00 0.00 1254.50 225.00" xmlns="http://www.w3.org/2000/svg" xmlns:xlink="http://www.w3.org/1999/xlink">
<g id="graph0" class="graph" transform="scale(1 1) rotate(0) translate(4 221)">
<title>/home/hirth/git/SIM&#45;VICUS.master2/externals/Vicus/src/ncg/ncg_VICUS_Outputs.cpp</title>
<!-- Node1 -->
<g id="Node000001" class="node">
<title>Node1</title>
<g id="a_Node000001"><a xlink:title=" ">
<polygon fill="#999999" stroke="#666666" points="898,-217 763,-217 763,-165 898,-165 898,-217"/>
<text text-anchor="start" x="771" y="-205" font-family="Helvetica,sans-Serif" font-size="10.00">/home/hirth/git/SIM</text>
<text text-anchor="start" x="771" y="-194" font-family="Helvetica,sans-Serif" font-size="10.00">&#45;VICUS.master2/externals</text>
<text text-anchor="start" x="771" y="-183" font-family="Helvetica,sans-Serif" font-size="10.00">/Vicus/src/ncg/ncg_VICUS</text>
<text text-anchor="middle" x="830.5" y="-172" font-family="Helvetica,sans-Serif" font-size="10.00">_Outputs.cpp</text>
</a>
</g>
</g>
<!-- Node2 -->
<g id="Node000002" class="node">
<title>Node2</title>
<g id="a_Node000002"><a xlink:href="_v_i_c_u_s___outputs_8h.html" target="_top" xlink:title=" ">
<polygon fill="white" stroke="#666666" points="280.5,-129 184.5,-129 184.5,-110 280.5,-110 280.5,-129"/>
<text text-anchor="middle" x="232.5" y="-117" font-family="Helvetica,sans-Serif" font-size="10.00">VICUS_Outputs.h</text>
</a>
</g>
</g>
<!-- Node1&#45;&gt;Node2 -->
<g id="edge1_Node000001_Node000002" class="edge">
<title>Node1&#45;&gt;Node2</title>
<g id="a_edge1_Node000001_Node000002"><a xlink:title=" ">
<path fill="none" stroke="#63b8ff" d="M762.77,-182.13C644.46,-168.38 402.13,-140.21 290.79,-127.28"/>
<polygon fill="#63b8ff" stroke="#63b8ff" points="291.1,-123.79 280.76,-126.11 290.29,-130.74 291.1,-123.79"/>
</a>
</g>
</g>
<!-- Node8 -->
<g id="Node000008" class="node">
<title>Node8</title>
<g id="a_Node000008"><a xlink:href="_v_i_c_u_s___constants_8h.html" target="_top" xlink:title="Contains global constants for the SIM&#45;VICUS data model.">
<polygon fill="white" stroke="#666666" points="607,-19 500,-19 500,0 607,0 607,-19"/>
<text text-anchor="middle" x="553.5" y="-7" font-family="Helvetica,sans-Serif" font-size="10.00">VICUS_Constants.h</text>
</a>
</g>
</g>
<!-- Node1&#45;&gt;Node8 -->
<g id="edge17_Node000001_Node000008" class="edge">
<title>Node1&#45;&gt;Node8</title>
<g id="a_edge17_Node000001_Node000008"><a xlink:title=" ">
<path fill="none" stroke="#63b8ff" d="M771.23,-164.95C753.72,-155.53 735.5,-143.51 721.5,-129 695.83,-102.39 711.46,-79.19 683.5,-55 664.63,-38.68 639.49,-28.27 616.35,-21.66"/>
<polygon fill="#63b8ff" stroke="#63b8ff" points="617.14,-18.25 606.58,-19.06 615.34,-25.02 617.14,-18.25"/>
</a>
</g>
</g>
<!-- Node9 -->
<g id="Node000009" class="node">
<title>Node9</title>
<g id="a_Node000009"><a xlink:href="_v_i_c_u_s___keyword_list_8h.html" target="_top" xlink:title="Contains the declaration of class KeywordList.">
<polygon fill="white" stroke="#666666" points="590.5,-129 474.5,-129 474.5,-110 590.5,-110 590.5,-129"/>
<text text-anchor="middle" x="532.5" y="-117" font-family="Helvetica,sans-Serif" font-size="10.00">VICUS_KeywordList.h</text>
</a>
</g>
</g>
<!-- Node1&#45;&gt;Node9 -->
<g id="edge9_Node000001_Node000009" class="edge">
<title>Node1&#45;&gt;Node9</title>
<g id="a_edge9_Node000001_Node000009"><a xlink:title=" ">
<path fill="none" stroke="#63b8ff" d="M762.88,-174.23C706.65,-161.12 628.12,-142.8 578.8,-131.3"/>
<polygon fill="#63b8ff" stroke="#63b8ff" points="579.58,-127.89 569.05,-129.02 577.99,-134.7 579.58,-127.89"/>
</a>
</g>
</g>
<!-- Node13 -->
<g id="Node000013" class="node">
<title>Node13</title>
<g id="a_Node000013"><a xlink:title=" ">
<polygon fill="#e0e0e0" stroke="#999999" points="822.5,-129 730.5,-129 730.5,-110 822.5,-110 822.5,-129"/>
<text text-anchor="middle" x="776.5" y="-117" font-family="Helvetica,sans-Serif" font-size="10.00">IBK_messages.h</text>
</a>
</g>
</g>
<!-- Node1&#45;&gt;Node13 -->
<g id="edge14_Node000001_Node000013" class="edge">
<title>Node1&#45;&gt;Node13</title>
<g id="a_edge14_Node000001_Node000013"><a xlink:title=" ">
<path fill="none" stroke="#63b8ff" d="M811,-164.91C803.91,-155.77 796.05,-145.67 789.64,-137.41"/>
<polygon fill="#63b8ff" stroke="#63b8ff" points="792.24,-135.05 783.34,-129.3 786.71,-139.35 792.24,-135.05"/>
</a>
</g>
</g>
<!-- Node14 -->
<g id="Node000014" class="node">
<title>Node14</title>
<g id="a_Node000014"><a xlink:title=" ">
<polygon fill="#e0e0e0" stroke="#999999" points="930.5,-129 840.5,-129 840.5,-110 930.5,-110 930.5,-129"/>
<text text-anchor="middle" x="885.5" y="-117" font-family="Helvetica,sans-Serif" font-size="10.00">IBK_Exception.h</text>
</a>
</g>
</g>
<!-- Node1&#45;&gt;Node14 -->
<g id="edge15_Node000001_Node000014" class="edge">
<title>Node1&#45;&gt;Node14</title>
<g id="a_edge15_Node000001_Node000014"><a xlink:title=" ">
<path fill="none" stroke="#63b8ff" d="M850.36,-164.91C857.66,-155.67 865.75,-145.45 872.33,-137.14"/>
<polygon fill="#63b8ff" stroke="#63b8ff" points="875.07,-139.32 878.53,-129.3 869.58,-134.97 875.07,-139.32"/>
</a>
</g>
</g>
<!-- Node15 -->
<g id="Node000015" class="node">
<title>Node15</title>
<g id="a_Node000015"><a xlink:title=" ">
<polygon fill="#e0e0e0" stroke="#999999" points="1040.5,-129 948.5,-129 948.5,-110 1040.5,-110 1040.5,-129"/>
<text text-anchor="middle" x="994.5" y="-117" font-family="Helvetica,sans-Serif" font-size="10.00">IBK_StringUtils.h</text>
</a>
</g>
</g>
<!-- Node1&#45;&gt;Node15 -->
<g id="edge16_Node000001_Node000015" class="edge">
<title>Node1&#45;&gt;Node15</title>
<g id="a_edge16_Node000001_Node000015"><a xlink:title=" ">
<path fill="none" stroke="#63b8ff" d="M889.71,-164.91C915.21,-154.1 943.91,-141.94 964.82,-133.08"/>
<polygon fill="#63b8ff" stroke="#63b8ff" points="966.28,-136.26 974.12,-129.14 963.55,-129.81 966.28,-136.26"/>
</a>
</g>
</g>
<!-- Node16 -->
<g id="Node000016" class="node">
<title>Node16</title>
<g id="a_Node000016"><a xlink:title=" ">
<polygon fill="#e0e0e0" stroke="#999999" points="1172.5,-129 1058.5,-129 1058.5,-110 1172.5,-110 1172.5,-129"/>
<text text-anchor="middle" x="1115.5" y="-117" font-family="Helvetica,sans-Serif" font-size="10.00">NANDRAD_Utilities.h</text>
</a>
</g>
</g>
<!-- Node1&#45;&gt;Node16 -->
<g id="edge18_Node000001_Node000016" class="edge">
<title>Node1&#45;&gt;Node16</title>
<g id="a_edge18_Node000001_Node000016"><a xlink:title=" ">
<path fill="none" stroke="#63b8ff" d="M898.04,-173.53C951.41,-160.52 1024.38,-142.72 1070.74,-131.42"/>
<polygon fill="#63b8ff" stroke="#63b8ff" points="1071.6,-134.81 1080.49,-129.04 1069.95,-128.01 1071.6,-134.81"/>
</a>
</g>
</g>
<!-- Node17 -->
<g id="Node000017" class="node">
<title>Node17</title>
<g id="a_Node000017"><a xlink:title=" ">
<polygon fill="#e0e0e0" stroke="#999999" points="1246.5,-129 1190.5,-129 1190.5,-110 1246.5,-110 1246.5,-129"/>
<text text-anchor="middle" x="1218.5" y="-117" font-family="Helvetica,sans-Serif" font-size="10.00">tinyxml.h</text>
</a>
</g>
</g>
<!-- Node1&#45;&gt;Node17 -->
<g id="edge19_Node000001_Node000017" class="edge">
<title>Node1&#45;&gt;Node17</title>
<g id="a_edge19_Node000001_Node000017"><a xlink:title=" ">
<path fill="none" stroke="#63b8ff" d="M898.32,-179.32C966.95,-168.27 1076.33,-149.96 1180.22,-129.17"/>
<polygon fill="#63b8ff" stroke="#63b8ff" points="1181.14,-132.56 1190.25,-127.15 1179.76,-125.7 1181.14,-132.56"/>
</a>
</g>
</g>
<!-- Node3 -->
<g id="Node000003" class="node">
<title>Node3</title>
<g id="a_Node000003"><a xlink:href="_v_i_c_u_s___code_gen_macros_8h.html" target="_top" xlink:title=" ">
<polygon fill="white" stroke="#666666" points="135,-19 0,-19 0,0 135,0 135,-19"/>
<text text-anchor="middle" x="67.5" y="-7" font-family="Helvetica,sans-Serif" font-size="10.00">VICUS_CodeGenMacros.h</text>
</a>
</g>
</g>
<!-- Node2&#45;&gt;Node3 -->
<g id="edge2_Node000002_Node000003" class="edge">
<title>Node2&#45;&gt;Node3</title>
<g id="a_edge2_Node000002_Node000003"><a xlink:title=" ">
<path fill="none" stroke="#63b8ff" d="M184.48,-115.38C152.7,-110.83 112.29,-99.92 86.5,-74 74.72,-62.16 70.19,-43.32 68.47,-29.24"/>
<polygon fill="#63b8ff" stroke="#63b8ff" points="71.95,-28.85 67.62,-19.18 64.98,-29.44 71.95,-28.85"/>
</a>
</g>
</g>
<!-- Node4 -->
<g id="Node000004" class="node">
<title>Node4</title>
<g id="a_Node000004"><a xlink:title=" ">
<polygon fill="#e0e0e0" stroke="#999999" points="361.5,-74 245.5,-74 245.5,-55 361.5,-55 361.5,-74"/>
<text text-anchor="middle" x="303.5" y="-62" font-family="Helvetica,sans-Serif" font-size="10.00">NANDRAD_Outputs.h</text>
</a>
</g>
</g>
<!-- Node2&#45;&gt;Node4 -->
<g id="edge3_Node000002_Node000004" class="edge">
<title>Node2&#45;&gt;Node4</title>
<g id="a_edge3_Node000002_Node000004"><a xlink:title=" ">
<path fill="none" stroke="#63b8ff" d="M243.91,-109.98C254.61,-102 270.84,-89.88 283.66,-80.31"/>
<polygon fill="#63b8ff" stroke="#63b8ff" points="285.97,-82.96 291.89,-74.17 281.78,-77.35 285.97,-82.96"/>
</a>
</g>
</g>
<!-- Node5 -->
<g id="Node000005" class="node">
<title>Node5</title>
<g id="a_Node000005"><a xlink:href="_v_i_c_u_s___output_definition_8h.html" target="_top" xlink:title=" ">
<polygon fill="white" stroke="#666666" points="227.5,-74 95.5,-74 95.5,-55 227.5,-55 227.5,-74"/>
<text text-anchor="middle" x="161.5" y="-62" font-family="Helvetica,sans-Serif" font-size="10.00">VICUS_OutputDefinition.h</text>
</a>
</g>
</g>
<!-- Node2&#45;&gt;Node5 -->
<g id="edge4_Node000002_Node000005" class="edge">
<title>Node2&#45;&gt;Node5</title>
<g id="a_edge4_Node000002_Node000005"><a xlink:title=" ">
<path fill="none" stroke="#63b8ff" d="M221.09,-109.98C210.39,-102 194.16,-89.88 181.34,-80.31"/>
<polygon fill="#63b8ff" stroke="#63b8ff" points="183.22,-77.35 173.11,-74.17 179.03,-82.96 183.22,-77.35"/>
</a>
</g>
</g>
<!-- Node5&#45;&gt;Node3 -->
<g id="edge7_Node000005_Node000003" class="edge">
<title>Node5&#45;&gt;Node3</title>
<g id="a_edge7_Node000005_Node000003"><a xlink:title=" ">
<path fill="none" stroke="#63b8ff" d="M146.4,-54.98C131.68,-46.69 109.08,-33.94 91.83,-24.22"/>
<polygon fill="#63b8ff" stroke="#63b8ff" points="93.31,-21.03 82.88,-19.17 89.87,-27.13 93.31,-21.03"/>
</a>
</g>
</g>
<!-- Node6 -->
<g id="Node000006" class="node">
<title>Node6</title>
<g id="a_Node000006"><a xlink:title=" ">
<polygon fill="#e0e0e0" stroke="#999999" points="333,-19 292,-19 292,0 333,0 333,-19"/>
<text text-anchor="middle" x="312.5" y="-7" font-family="Helvetica,sans-Serif" font-size="10.00">string</text>
</a>
</g>
</g>
<!-- Node5&#45;&gt;Node6 -->
<g id="edge5_Node000005_Node000006" class="edge">
<title>Node5&#45;&gt;Node6</title>
<g id="a_edge5_Node000005_Node000006"><a xlink:title=" ">
<path fill="none" stroke="#63b8ff" d="M185.76,-54.98C211.9,-45.81 253.54,-31.19 281.91,-21.24"/>
<polygon fill="#63b8ff" stroke="#63b8ff" points="283.43,-24.41 291.7,-17.8 281.11,-17.81 283.43,-24.41"/>
</a>
</g>
</g>
<!-- Node7 -->
<g id="Node000007" class="node">
<title>Node7</title>
<g id="a_Node000007"><a xlink:title=" ">
<polygon fill="#e0e0e0" stroke="#999999" points="197.5,-19 153.5,-19 153.5,0 197.5,0 197.5,-19"/>
<text text-anchor="middle" x="175.5" y="-7" font-family="Helvetica,sans-Serif" font-size="10.00">vector</text>
</a>
</g>
</g>
<!-- Node5&#45;&gt;Node7 -->
<g id="edge6_Node000005_Node000007" class="edge">
<title>Node5&#45;&gt;Node7</title>
<g id="a_edge6_Node000005_Node000007"><a xlink:title=" ">
<path fill="none" stroke="#63b8ff" d="M163.81,-54.75C165.67,-47.72 168.34,-37.62 170.65,-28.84"/>
<polygon fill="#63b8ff" stroke="#63b8ff" points="174.06,-29.65 173.23,-19.09 167.29,-27.86 174.06,-29.65"/>
</a>
</g>
</g>
<!-- Node5&#45;&gt;Node8 -->
<g id="edge8_Node000005_Node000008" class="edge">
<title>Node5&#45;&gt;Node8</title>
<g id="a_edge8_Node000005_Node000008"><a xlink:title=" ">
<path fill="none" stroke="#63b8ff" d="M224.48,-54.98C297.34,-45.13 416.64,-29 489.81,-19.11"/>
<polygon fill="#63b8ff" stroke="#63b8ff" points="490.37,-22.57 499.81,-17.76 489.44,-15.63 490.37,-22.57"/>
</a>
</g>
</g>
<!-- Node9&#45;&gt;Node6 -->
<g id="edge10_Node000009_Node000006" class="edge">
<title>Node9&#45;&gt;Node6</title>
<g id="a_edge10_Node000009_Node000006"><a xlink:title=" ">
<path fill="none" stroke="#63b8ff" d="M502.61,-109.99C476.97,-102.17 439.38,-89.47 408.5,-74 380.28,-59.86 350.33,-38.99 331.53,-25.08"/>
<polygon fill="#63b8ff" stroke="#63b8ff" points="333.59,-22.25 323.49,-19.05 329.39,-27.85 333.59,-22.25"/>
</a>
</g>
</g>
<!-- Node10 -->
<g id="Node000010" class="node">
<title>Node10</title>
<g id="a_Node000010"><a xlink:title=" ">
<polygon fill="#e0e0e0" stroke="#999999" points="469,-74 418,-74 418,-55 469,-55 469,-74"/>
<text text-anchor="middle" x="443.5" y="-62" font-family="Helvetica,sans-Serif" font-size="10.00">typeinfo</text>
</a>
</g>
</g>
<!-- Node9&#45;&gt;Node10 -->
<g id="edge11_Node000009_Node000010" class="edge">
<title>Node9&#45;&gt;Node10</title>
<g id="a_edge11_Node000009_Node000010"><a xlink:title=" ">
<path fill="none" stroke="#63b8ff" d="M518.2,-109.98C504.4,-101.77 483.26,-89.18 466.99,-79.49"/>
<polygon fill="#63b8ff" stroke="#63b8ff" points="468.44,-76.28 458.06,-74.17 464.86,-82.29 468.44,-76.28"/>
</a>
</g>
</g>
<!-- Node11 -->
<g id="Node000011" class="node">
<title>Node11</title>
<g id="a_Node000011"><a xlink:title=" ">
<polygon fill="#e0e0e0" stroke="#999999" points="578,-74 487,-74 487,-55 578,-55 578,-74"/>
<text text-anchor="middle" x="532.5" y="-62" font-family="Helvetica,sans-Serif" font-size="10.00">IBK_Parameter.h</text>
</a>
</g>
</g>
<!-- Node9&#45;&gt;Node11 -->
<g id="edge12_Node000009_Node000011" class="edge">
<title>Node9&#45;&gt;Node11</title>
<g id="a_edge12_Node000009_Node000011"><a xlink:title=" ">
<path fill="none" stroke="#63b8ff" d="M532.5,-109.75C532.5,-102.8 532.5,-92.85 532.5,-84.13"/>
<polygon fill="#63b8ff" stroke="#63b8ff" points="536,-84.09 532.5,-74.09 529,-84.09 536,-84.09"/>
</a>
</g>
</g>
<!-- Node12 -->
<g id="Node000012" class="node">
<title>Node12</title>
<g id="a_Node000012"><a xlink:title=" ">
<polygon fill="#e0e0e0" stroke="#999999" points="674.5,-74 596.5,-74 596.5,-55 674.5,-55 674.5,-74"/>
<text text-anchor="middle" x="635.5" y="-62" font-family="Helvetica,sans-Serif" font-size="10.00">IBK_IntPara.h</text>
</a>
</g>
</g>
<!-- Node9&#45;&gt;Node12 -->
<g id="edge13_Node000009_Node000012" class="edge">
<title>Node9&#45;&gt;Node12</title>
<g id="a_edge13_Node000009_Node000012"><a xlink:title=" ">
<path fill="none" stroke="#63b8ff" d="M549.05,-109.98C565.39,-101.57 590.63,-88.59 609.63,-78.81"/>
<polygon fill="#63b8ff" stroke="#63b8ff" points="611.36,-81.86 618.65,-74.17 608.16,-75.63 611.36,-81.86"/>
</a>
</g>
</g>
</g>
</svg>
