<?xml version="1.0" encoding="UTF-8" standalone="no"?>
<!DOCTYPE svg PUBLIC "-//W3C//DTD SVG 1.1//EN"
 "http://www.w3.org/Graphics/SVG/1.1/DTD/svg11.dtd">
<!-- Generated by graphviz version 2.43.0 (0)
 -->
<!-- Title: /home/hirth/git/SIM&#45;VICUS.master2/externals/Vicus/src/ncg/ncg_VICUS_Building.cpp Pages: 1 -->
<svg width="2314pt" height="456pt"
 viewBox="0.00 0.00 2314.00 456.00" xmlns="http://www.w3.org/2000/svg" xmlns:xlink="http://www.w3.org/1999/xlink">
<g id="graph0" class="graph" transform="scale(1 1) rotate(0) translate(4 452)">
<title>/home/hirth/git/SIM&#45;VICUS.master2/externals/Vicus/src/ncg/ncg_VICUS_Building.cpp</title>
<!-- Node1 -->
<g id="Node000001" class="node">
<title>Node1</title>
<g id="a_Node000001"><a xlink:title=" ">
<polygon fill="#999999" stroke="#666666" points="1957.5,-448 1822.5,-448 1822.5,-396 1957.5,-396 1957.5,-448"/>
<text text-anchor="start" x="1830.5" y="-436" font-family="Helvetica,sans-Serif" font-size="10.00">/home/hirth/git/SIM</text>
<text text-anchor="start" x="1830.5" y="-425" font-family="Helvetica,sans-Serif" font-size="10.00">&#45;VICUS.master2/externals</text>
<text text-anchor="start" x="1830.5" y="-414" font-family="Helvetica,sans-Serif" font-size="10.00">/Vicus/src/ncg/ncg_VICUS</text>
<text text-anchor="middle" x="1890" y="-403" font-family="Helvetica,sans-Serif" font-size="10.00">_Building.cpp</text>
</a>
</g>
</g>
<!-- Node2 -->
<g id="Node000002" class="node">
<title>Node2</title>
<g id="a_Node000002"><a xlink:href="_v_i_c_u_s___building_8h.html" target="_top" xlink:title=" ">
<polygon fill="white" stroke="#666666" points="1524,-360 1428,-360 1428,-341 1524,-341 1524,-360"/>
<text text-anchor="middle" x="1476" y="-348" font-family="Helvetica,sans-Serif" font-size="10.00">VICUS_Building.h</text>
</a>
</g>
</g>
<!-- Node1&#45;&gt;Node2 -->
<g id="edge1_Node000001_Node000002" class="edge">
<title>Node1&#45;&gt;Node2</title>
<g id="a_edge1_Node000001_Node000002"><a xlink:title=" ">
<path fill="none" stroke="#63b8ff" d="M1822.1,-409.6C1742.02,-396.16 1610.25,-374.04 1534.5,-361.32"/>
<polygon fill="#63b8ff" stroke="#63b8ff" points="1534.64,-357.8 1524.2,-359.59 1533.48,-364.7 1534.64,-357.8"/>
</a>
</g>
</g>
<!-- Node4 -->
<g id="Node000004" class="node">
<title>Node4</title>
<g id="a_Node000004"><a xlink:href="_v_i_c_u_s___constants_8h.html" target="_top" xlink:title="Contains global constants for the SIM&#45;VICUS data model.">
<polygon fill="white" stroke="#666666" points="1529.5,-19 1422.5,-19 1422.5,0 1529.5,0 1529.5,-19"/>
<text text-anchor="middle" x="1476" y="-7" font-family="Helvetica,sans-Serif" font-size="10.00">VICUS_Constants.h</text>
</a>
</g>
</g>
<!-- Node1&#45;&gt;Node4 -->
<g id="edge62_Node000001_Node000004" class="edge">
<title>Node1&#45;&gt;Node4</title>
<g id="a_edge62_Node000001_Node000004"><a xlink:title=" ">
<path fill="none" stroke="#63b8ff" d="M1822.39,-411.45C1759.66,-401.31 1672.3,-383.5 1647,-360 1542.37,-262.82 1633.79,-167.62 1546,-55 1535.57,-41.62 1519.91,-31.13 1506.05,-23.7"/>
<polygon fill="#63b8ff" stroke="#63b8ff" points="1507.33,-20.43 1496.83,-19.06 1504.18,-26.68 1507.33,-20.43"/>
</a>
</g>
</g>
<!-- Node26 -->
<g id="Node000026" class="node">
<title>Node26</title>
<g id="a_Node000026"><a xlink:href="_v_i_c_u_s___keyword_list_8h.html" target="_top" xlink:title="Contains the declaration of class KeywordList.">
<polygon fill="white" stroke="#666666" points="1772,-360 1656,-360 1656,-341 1772,-341 1772,-360"/>
<text text-anchor="middle" x="1714" y="-348" font-family="Helvetica,sans-Serif" font-size="10.00">VICUS_KeywordList.h</text>
</a>
</g>
</g>
<!-- Node1&#45;&gt;Node26 -->
<g id="edge54_Node000001_Node000026" class="edge">
<title>Node1&#45;&gt;Node26</title>
<g id="a_edge54_Node000001_Node000026"><a xlink:title=" ">
<path fill="none" stroke="#63b8ff" d="M1826.46,-395.91C1798.84,-385 1767.73,-372.72 1745.25,-363.84"/>
<polygon fill="#63b8ff" stroke="#63b8ff" points="1746.45,-360.55 1735.87,-360.14 1743.88,-367.06 1746.45,-360.55"/>
</a>
</g>
</g>
<!-- Node30 -->
<g id="Node000030" class="node">
<title>Node30</title>
<g id="a_Node000030"><a xlink:title=" ">
<polygon fill="#e0e0e0" stroke="#999999" points="1882,-360 1790,-360 1790,-341 1882,-341 1882,-360"/>
<text text-anchor="middle" x="1836" y="-348" font-family="Helvetica,sans-Serif" font-size="10.00">IBK_messages.h</text>
</a>
</g>
</g>
<!-- Node1&#45;&gt;Node30 -->
<g id="edge59_Node000001_Node000030" class="edge">
<title>Node1&#45;&gt;Node30</title>
<g id="a_edge59_Node000001_Node000030"><a xlink:title=" ">
<path fill="none" stroke="#63b8ff" d="M1870.5,-395.91C1863.41,-386.77 1855.55,-376.67 1849.14,-368.41"/>
<polygon fill="#63b8ff" stroke="#63b8ff" points="1851.74,-366.05 1842.84,-360.3 1846.21,-370.35 1851.74,-366.05"/>
</a>
</g>
</g>
<!-- Node31 -->
<g id="Node000031" class="node">
<title>Node31</title>
<g id="a_Node000031"><a xlink:title=" ">
<polygon fill="#e0e0e0" stroke="#999999" points="1990,-360 1900,-360 1900,-341 1990,-341 1990,-360"/>
<text text-anchor="middle" x="1945" y="-348" font-family="Helvetica,sans-Serif" font-size="10.00">IBK_Exception.h</text>
</a>
</g>
</g>
<!-- Node1&#45;&gt;Node31 -->
<g id="edge60_Node000001_Node000031" class="edge">
<title>Node1&#45;&gt;Node31</title>
<g id="a_edge60_Node000001_Node000031"><a xlink:title=" ">
<path fill="none" stroke="#63b8ff" d="M1909.86,-395.91C1917.16,-386.67 1925.25,-376.45 1931.83,-368.14"/>
<polygon fill="#63b8ff" stroke="#63b8ff" points="1934.57,-370.32 1938.03,-360.3 1929.08,-365.97 1934.57,-370.32"/>
</a>
</g>
</g>
<!-- Node32 -->
<g id="Node000032" class="node">
<title>Node32</title>
<g id="a_Node000032"><a xlink:title=" ">
<polygon fill="#e0e0e0" stroke="#999999" points="2100,-360 2008,-360 2008,-341 2100,-341 2100,-360"/>
<text text-anchor="middle" x="2054" y="-348" font-family="Helvetica,sans-Serif" font-size="10.00">IBK_StringUtils.h</text>
</a>
</g>
</g>
<!-- Node1&#45;&gt;Node32 -->
<g id="edge61_Node000001_Node000032" class="edge">
<title>Node1&#45;&gt;Node32</title>
<g id="a_edge61_Node000001_Node000032"><a xlink:title=" ">
<path fill="none" stroke="#63b8ff" d="M1949.21,-395.91C1974.71,-385.1 2003.41,-372.94 2024.32,-364.08"/>
<polygon fill="#63b8ff" stroke="#63b8ff" points="2025.78,-367.26 2033.62,-360.14 2023.05,-360.81 2025.78,-367.26"/>
</a>
</g>
</g>
<!-- Node33 -->
<g id="Node000033" class="node">
<title>Node33</title>
<g id="a_Node000033"><a xlink:title=" ">
<polygon fill="#e0e0e0" stroke="#999999" points="2232,-360 2118,-360 2118,-341 2232,-341 2232,-360"/>
<text text-anchor="middle" x="2175" y="-348" font-family="Helvetica,sans-Serif" font-size="10.00">NANDRAD_Utilities.h</text>
</a>
</g>
</g>
<!-- Node1&#45;&gt;Node33 -->
<g id="edge63_Node000001_Node000033" class="edge">
<title>Node1&#45;&gt;Node33</title>
<g id="a_edge63_Node000001_Node000033"><a xlink:title=" ">
<path fill="none" stroke="#63b8ff" d="M1957.54,-404.53C2010.91,-391.52 2083.88,-373.72 2130.24,-362.42"/>
<polygon fill="#63b8ff" stroke="#63b8ff" points="2131.1,-365.81 2139.99,-360.04 2129.45,-359.01 2131.1,-365.81"/>
</a>
</g>
</g>
<!-- Node34 -->
<g id="Node000034" class="node">
<title>Node34</title>
<g id="a_Node000034"><a xlink:title=" ">
<polygon fill="#e0e0e0" stroke="#999999" points="2306,-360 2250,-360 2250,-341 2306,-341 2306,-360"/>
<text text-anchor="middle" x="2278" y="-348" font-family="Helvetica,sans-Serif" font-size="10.00">tinyxml.h</text>
</a>
</g>
</g>
<!-- Node1&#45;&gt;Node34 -->
<g id="edge64_Node000001_Node000034" class="edge">
<title>Node1&#45;&gt;Node34</title>
<g id="a_edge64_Node000001_Node000034"><a xlink:title=" ">
<path fill="none" stroke="#63b8ff" d="M1957.82,-410.32C2026.45,-399.27 2135.83,-380.96 2239.72,-360.17"/>
<polygon fill="#63b8ff" stroke="#63b8ff" points="2240.64,-363.56 2249.75,-358.15 2239.26,-356.7 2240.64,-363.56"/>
</a>
</g>
</g>
<!-- Node3 -->
<g id="Node000003" class="node">
<title>Node3</title>
<g id="a_Node000003"><a xlink:href="_v_i_c_u_s___code_gen_macros_8h.html" target="_top" xlink:title=" ">
<polygon fill="white" stroke="#666666" points="303.5,-19 168.5,-19 168.5,0 303.5,0 303.5,-19"/>
<text text-anchor="middle" x="236" y="-7" font-family="Helvetica,sans-Serif" font-size="10.00">VICUS_CodeGenMacros.h</text>
</a>
</g>
</g>
<!-- Node2&#45;&gt;Node3 -->
<g id="edge2_Node000002_Node000003" class="edge">
<title>Node2&#45;&gt;Node3</title>
<g id="a_edge2_Node000002_Node000003"><a xlink:title=" ">
<path fill="none" stroke="#63b8ff" d="M1427.73,-348.55C1173.35,-343.25 0,-314.81 0,-241.5 0,-241.5 0,-241.5 0,-129.5 0,-89.37 17.96,-77.77 51,-55 70.6,-41.5 126.75,-29.1 172.1,-20.83"/>
<polygon fill="#63b8ff" stroke="#63b8ff" points="172.95,-24.24 182.18,-19.03 171.72,-17.35 172.95,-24.24"/>
</a>
</g>
</g>
<!-- Node2&#45;&gt;Node4 -->
<g id="edge3_Node000002_Node000004" class="edge">
<title>Node2&#45;&gt;Node4</title>
<g id="a_edge3_Node000002_Node000004"><a xlink:title=" ">
<path fill="none" stroke="#63b8ff" d="M1487.88,-340.88C1509.25,-324.26 1552,-285.52 1552,-241.5 1552,-241.5 1552,-241.5 1552,-129.5 1552,-86.71 1516.66,-46.94 1494.18,-25.97"/>
<polygon fill="#63b8ff" stroke="#63b8ff" points="1496.34,-23.21 1486.57,-19.13 1491.66,-28.42 1496.34,-23.21"/>
</a>
</g>
</g>
<!-- Node5 -->
<g id="Node000005" class="node">
<title>Node5</title>
<g id="a_Node000005"><a xlink:href="_v_i_c_u_s___building_level_8h.html" target="_top" xlink:title=" ">
<polygon fill="white" stroke="#666666" points="1349.5,-305 1230.5,-305 1230.5,-286 1349.5,-286 1349.5,-305"/>
<text text-anchor="middle" x="1290" y="-293" font-family="Helvetica,sans-Serif" font-size="10.00">VICUS_BuildingLevel.h</text>
</a>
</g>
</g>
<!-- Node2&#45;&gt;Node5 -->
<g id="edge4_Node000002_Node000005" class="edge">
<title>Node2&#45;&gt;Node5</title>
<g id="a_edge4_Node000002_Node000005"><a xlink:title=" ">
<path fill="none" stroke="#63b8ff" d="M1446.12,-340.98C1414.62,-332.01 1364.83,-317.82 1329.97,-307.89"/>
<polygon fill="#63b8ff" stroke="#63b8ff" points="1330.69,-304.46 1320.12,-305.08 1328.78,-311.19 1330.69,-304.46"/>
</a>
</g>
</g>
<!-- Node10 -->
<g id="Node000010" class="node">
<title>Node10</title>
<g id="a_Node000010"><a xlink:href="_v_i_c_u_s___object_8h.html" target="_top" xlink:title=" ">
<polygon fill="white" stroke="#666666" points="1410,-79.5 1320,-79.5 1320,-60.5 1410,-60.5 1410,-79.5"/>
<text text-anchor="middle" x="1365" y="-67.5" font-family="Helvetica,sans-Serif" font-size="10.00">VICUS_Object.h</text>
</a>
</g>
</g>
<!-- Node2&#45;&gt;Node10 -->
<g id="edge51_Node000002_Node000010" class="edge">
<title>Node2&#45;&gt;Node10</title>
<g id="a_edge51_Node000002_Node000010"><a xlink:title=" ">
<path fill="none" stroke="#63b8ff" d="M1476,-340.82C1476,-322.48 1476,-278.44 1476,-241.5 1476,-241.5 1476,-241.5 1476,-184.5 1476,-137.09 1425.88,-102.15 1393,-84.32"/>
<polygon fill="#63b8ff" stroke="#63b8ff" points="1394.32,-81.06 1383.83,-79.55 1391.08,-87.27 1394.32,-81.06"/>
</a>
</g>
</g>
<!-- Node11 -->
<g id="Node000011" class="node">
<title>Node11</title>
<g id="a_Node000011"><a xlink:title=" ">
<polygon fill="#e0e0e0" stroke="#999999" points="1621,-19 1577,-19 1577,0 1621,0 1621,-19"/>
<text text-anchor="middle" x="1599" y="-7" font-family="Helvetica,sans-Serif" font-size="10.00">vector</text>
</a>
</g>
</g>
<!-- Node2&#45;&gt;Node11 -->
<g id="edge53_Node000002_Node000011" class="edge">
<title>Node2&#45;&gt;Node11</title>
<g id="a_edge53_Node000002_Node000011"><a xlink:title=" ">
<path fill="none" stroke="#63b8ff" d="M1496.37,-340.99C1511.92,-333.56 1532.83,-321.39 1546,-305 1576.42,-267.12 1596.97,-146.83 1604,-85 1606.15,-66.11 1604.19,-44.42 1602.13,-29.34"/>
<polygon fill="#63b8ff" stroke="#63b8ff" points="1605.56,-28.6 1600.6,-19.24 1598.64,-29.65 1605.56,-28.6"/>
</a>
</g>
</g>
<!-- Node13 -->
<g id="Node000013" class="node">
<title>Node13</title>
<g id="a_Node000013"><a xlink:title=" ">
<polygon fill="#e0e0e0" stroke="#999999" points="794,-19 744,-19 744,0 794,0 794,-19"/>
<text text-anchor="middle" x="769" y="-7" font-family="Helvetica,sans-Serif" font-size="10.00">QString</text>
</a>
</g>
</g>
<!-- Node2&#45;&gt;Node13 -->
<g id="edge52_Node000002_Node000013" class="edge">
<title>Node2&#45;&gt;Node13</title>
<g id="a_edge52_Node000002_Node000013"><a xlink:title=" ">
<path fill="none" stroke="#63b8ff" d="M1427.94,-348.12C1254.91,-342.52 674,-318.02 674,-241.5 674,-241.5 674,-241.5 674,-129.5 674,-83.22 718.42,-44.59 746.51,-24.79"/>
<polygon fill="#63b8ff" stroke="#63b8ff" points="748.68,-27.55 754.98,-19.03 744.74,-21.76 748.68,-27.55"/>
</a>
</g>
</g>
<!-- Node5&#45;&gt;Node3 -->
<g id="edge5_Node000005_Node000003" class="edge">
<title>Node5&#45;&gt;Node3</title>
<g id="a_edge5_Node000005_Node000003"><a xlink:title=" ">
<path fill="none" stroke="#63b8ff" d="M1230.46,-292.52C981.64,-283.88 38,-247.11 38,-186.5 38,-186.5 38,-186.5 38,-129.5 38,-65.62 114.65,-35.16 172.57,-21.27"/>
<polygon fill="#63b8ff" stroke="#63b8ff" points="173.45,-24.66 182.42,-19.02 171.89,-17.83 173.45,-24.66"/>
</a>
</g>
</g>
<!-- Node5&#45;&gt;Node4 -->
<g id="edge6_Node000005_Node000004" class="edge">
<title>Node5&#45;&gt;Node4</title>
<g id="a_edge6_Node000005_Node000004"><a xlink:title=" ">
<path fill="none" stroke="#63b8ff" d="M1319.03,-285.93C1357.32,-272.97 1423.66,-244.51 1456,-195 1490.03,-142.92 1484.1,-64.43 1479.13,-29.01"/>
<polygon fill="#63b8ff" stroke="#63b8ff" points="1482.59,-28.46 1477.61,-19.11 1475.67,-29.52 1482.59,-28.46"/>
</a>
</g>
</g>
<!-- Node6 -->
<g id="Node000006" class="node">
<title>Node6</title>
<g id="a_Node000006"><a xlink:href="_v_i_c_u_s___room_8h.html" target="_top" xlink:title=" ">
<polygon fill="white" stroke="#666666" points="1296,-250 1208,-250 1208,-231 1296,-231 1296,-250"/>
<text text-anchor="middle" x="1252" y="-238" font-family="Helvetica,sans-Serif" font-size="10.00">VICUS_Room.h</text>
</a>
</g>
</g>
<!-- Node5&#45;&gt;Node6 -->
<g id="edge7_Node000005_Node000006" class="edge">
<title>Node5&#45;&gt;Node6</title>
<g id="a_edge7_Node000005_Node000006"><a xlink:title=" ">
<path fill="none" stroke="#63b8ff" d="M1283.73,-285.75C1278.41,-278.34 1270.64,-267.5 1264.12,-258.41"/>
<polygon fill="#63b8ff" stroke="#63b8ff" points="1266.83,-256.18 1258.16,-250.09 1261.14,-260.26 1266.83,-256.18"/>
</a>
</g>
</g>
<!-- Node5&#45;&gt;Node10 -->
<g id="edge49_Node000005_Node000010" class="edge">
<title>Node5&#45;&gt;Node10</title>
<g id="a_edge49_Node000005_Node000010"><a xlink:title=" ">
<path fill="none" stroke="#63b8ff" d="M1292.88,-285.97C1295.9,-277.01 1300.79,-262.52 1305,-250 1324.71,-191.36 1347.97,-121.89 1358.83,-89.43"/>
<polygon fill="#63b8ff" stroke="#63b8ff" points="1362.28,-90.17 1362.13,-79.57 1355.64,-87.94 1362.28,-90.17"/>
</a>
</g>
</g>
<!-- Node5&#45;&gt;Node13 -->
<g id="edge50_Node000005_Node000013" class="edge">
<title>Node5&#45;&gt;Node13</title>
<g id="a_edge50_Node000005_Node000013"><a xlink:title=" ">
<path fill="none" stroke="#63b8ff" d="M1230.32,-289.58C1082.64,-276.6 712,-238.82 712,-186.5 712,-186.5 712,-186.5 712,-129.5 712,-89.64 738.34,-48.98 755.21,-27.03"/>
<polygon fill="#63b8ff" stroke="#63b8ff" points="758.05,-29.07 761.55,-19.07 752.58,-24.71 758.05,-29.07"/>
</a>
</g>
</g>
<!-- Node6&#45;&gt;Node3 -->
<g id="edge8_Node000006_Node000003" class="edge">
<title>Node6&#45;&gt;Node3</title>
<g id="a_edge8_Node000006_Node000003"><a xlink:title=" ">
<path fill="none" stroke="#63b8ff" d="M1207.71,-237.65C1033.04,-229.98 391.93,-198.36 198,-140 148.31,-125.05 121.69,-129.51 95,-85 74.51,-50.82 121.63,-31.53 166.82,-21.18"/>
<polygon fill="#63b8ff" stroke="#63b8ff" points="167.67,-24.58 176.71,-19.05 166.19,-17.74 167.67,-24.58"/>
</a>
</g>
</g>
<!-- Node6&#45;&gt;Node4 -->
<g id="edge9_Node000006_Node000004" class="edge">
<title>Node6&#45;&gt;Node4</title>
<g id="a_edge9_Node000006_Node000004"><a xlink:title=" ">
<path fill="none" stroke="#63b8ff" d="M1264.7,-230.85C1303.72,-204.08 1420.83,-122.16 1448,-85 1460.34,-68.13 1467.87,-45.18 1471.97,-29.23"/>
<polygon fill="#63b8ff" stroke="#63b8ff" points="1475.49,-29.57 1474.37,-19.04 1468.67,-27.97 1475.49,-29.57"/>
</a>
</g>
</g>
<!-- Node7 -->
<g id="Node000007" class="node">
<title>Node7</title>
<g id="a_Node000007"><a xlink:href="_v_i_c_u_s___surface_8h.html" target="_top" xlink:title=" ">
<polygon fill="white" stroke="#666666" points="1095.5,-195 1000.5,-195 1000.5,-176 1095.5,-176 1095.5,-195"/>
<text text-anchor="middle" x="1048" y="-183" font-family="Helvetica,sans-Serif" font-size="10.00">VICUS_Surface.h</text>
</a>
</g>
</g>
<!-- Node6&#45;&gt;Node7 -->
<g id="edge10_Node000006_Node000007" class="edge">
<title>Node6&#45;&gt;Node7</title>
<g id="a_edge10_Node000006_Node000007"><a xlink:title=" ">
<path fill="none" stroke="#63b8ff" d="M1219.22,-230.98C1184.38,-221.93 1129.13,-207.58 1090.86,-197.64"/>
<polygon fill="#63b8ff" stroke="#63b8ff" points="1091.59,-194.21 1081.03,-195.08 1089.83,-200.98 1091.59,-194.21"/>
</a>
</g>
</g>
<!-- Node6&#45;&gt;Node10 -->
<g id="edge46_Node000006_Node000010" class="edge">
<title>Node6&#45;&gt;Node10</title>
<g id="a_edge46_Node000006_Node000010"><a xlink:title=" ">
<path fill="none" stroke="#63b8ff" d="M1254.24,-230.87C1257.74,-218.25 1265.23,-194.28 1276,-176 1296.57,-141.07 1328.96,-106.33 1348.47,-86.86"/>
<polygon fill="#63b8ff" stroke="#63b8ff" points="1351.05,-89.23 1355.74,-79.73 1346.15,-84.24 1351.05,-89.23"/>
</a>
</g>
</g>
<!-- Node6&#45;&gt;Node13 -->
<g id="edge47_Node000006_Node000013" class="edge">
<title>Node6&#45;&gt;Node13</title>
<g id="a_edge47_Node000006_Node000013"><a xlink:title=" ">
<path fill="none" stroke="#63b8ff" d="M1207.85,-236.82C1130.36,-230.4 967.01,-209.09 850,-140 817.12,-120.59 803.55,-117.8 784,-85 773.89,-68.04 770.48,-45.44 769.38,-29.6"/>
<polygon fill="#63b8ff" stroke="#63b8ff" points="772.87,-29.27 768.93,-19.44 765.88,-29.58 772.87,-29.27"/>
</a>
</g>
</g>
<!-- Node25 -->
<g id="Node000025" class="node">
<title>Node25</title>
<g id="a_Node000025"><a xlink:title=" ">
<polygon fill="#e0e0e0" stroke="#999999" points="1447.5,-195 1356.5,-195 1356.5,-176 1447.5,-176 1447.5,-195"/>
<text text-anchor="middle" x="1402" y="-183" font-family="Helvetica,sans-Serif" font-size="10.00">IBK_Parameter.h</text>
</a>
</g>
</g>
<!-- Node6&#45;&gt;Node25 -->
<g id="edge48_Node000006_Node000025" class="edge">
<title>Node6&#45;&gt;Node25</title>
<g id="a_edge48_Node000006_Node000025"><a xlink:title=" ">
<path fill="none" stroke="#63b8ff" d="M1276.1,-230.98C1300.88,-222.23 1339.7,-208.51 1367.69,-198.62"/>
<polygon fill="#63b8ff" stroke="#63b8ff" points="1369.2,-201.8 1377.46,-195.17 1366.87,-195.2 1369.2,-201.8"/>
</a>
</g>
</g>
<!-- Node7&#45;&gt;Node3 -->
<g id="edge11_Node000007_Node000003" class="edge">
<title>Node7&#45;&gt;Node3</title>
<g id="a_edge11_Node000007_Node000003"><a xlink:title=" ">
<path fill="none" stroke="#63b8ff" d="M1000.19,-184.91C896.3,-184.96 642.63,-180.51 435,-140 357.06,-124.79 322.77,-139.49 265,-85 249.41,-70.3 242.08,-46.24 238.71,-29.45"/>
<polygon fill="#63b8ff" stroke="#63b8ff" points="242.1,-28.46 236.96,-19.19 235.2,-29.64 242.1,-28.46"/>
</a>
</g>
</g>
<!-- Node7&#45;&gt;Node4 -->
<g id="edge12_Node000007_Node000004" class="edge">
<title>Node7&#45;&gt;Node4</title>
<g id="a_edge12_Node000007_Node000004"><a xlink:title=" ">
<path fill="none" stroke="#63b8ff" d="M1095.64,-181.48C1170.38,-174.74 1317.17,-153.16 1419,-85 1440.61,-70.54 1457.44,-45.13 1467.04,-28.07"/>
<polygon fill="#63b8ff" stroke="#63b8ff" points="1470.19,-29.59 1471.84,-19.12 1464.03,-26.28 1470.19,-29.59"/>
</a>
</g>
</g>
<!-- Node8 -->
<g id="Node000008" class="node">
<title>Node8</title>
<g id="a_Node000008"><a xlink:href="_v_i_c_u_s___plane_geometry_8h.html" target="_top" xlink:title=" ">
<polygon fill="white" stroke="#666666" points="572,-140 444,-140 444,-121 572,-121 572,-140"/>
<text text-anchor="middle" x="508" y="-128" font-family="Helvetica,sans-Serif" font-size="10.00">VICUS_PlaneGeometry.h</text>
</a>
</g>
</g>
<!-- Node7&#45;&gt;Node8 -->
<g id="edge13_Node000007_Node000008" class="edge">
<title>Node7&#45;&gt;Node8</title>
<g id="a_edge13_Node000007_Node000008"><a xlink:title=" ">
<path fill="none" stroke="#63b8ff" d="M1000.08,-179.8C905.71,-170.53 695.22,-149.88 582.55,-138.82"/>
<polygon fill="#63b8ff" stroke="#63b8ff" points="582.59,-135.3 572.3,-137.81 581.91,-142.27 582.59,-135.3"/>
</a>
</g>
</g>
<!-- Node7&#45;&gt;Node10 -->
<g id="edge30_Node000007_Node000010" class="edge">
<title>Node7&#45;&gt;Node10</title>
<g id="a_edge30_Node000007_Node000010"><a xlink:title=" ">
<path fill="none" stroke="#63b8ff" d="M1071.83,-175.97C1127.59,-156 1266.73,-106.18 1331.21,-83.1"/>
<polygon fill="#63b8ff" stroke="#63b8ff" points="1332.66,-86.3 1340.9,-79.63 1330.3,-79.71 1332.66,-86.3"/>
</a>
</g>
</g>
<!-- Node7&#45;&gt;Node13 -->
<g id="edge44_Node000007_Node000013" class="edge">
<title>Node7&#45;&gt;Node13</title>
<g id="a_edge44_Node000007_Node000013"><a xlink:title=" ">
<path fill="none" stroke="#63b8ff" d="M1000.1,-177.42C945.6,-166.86 857.64,-141.74 807,-85 792.23,-68.45 781.56,-45.13 775.35,-29.01"/>
<polygon fill="#63b8ff" stroke="#63b8ff" points="778.48,-27.37 771.77,-19.17 771.9,-29.76 778.48,-27.37"/>
</a>
</g>
</g>
<!-- Node14 -->
<g id="Node000014" class="node">
<title>Node14</title>
<g id="a_Node000014"><a xlink:href="_v_i_c_u_s___polygon3_d_8h.html" target="_top" xlink:title=" ">
<polygon fill="white" stroke="#666666" points="214,-79.5 104,-79.5 104,-60.5 214,-60.5 214,-79.5"/>
<text text-anchor="middle" x="159" y="-67.5" font-family="Helvetica,sans-Serif" font-size="10.00">VICUS_Polygon3D.h</text>
</a>
</g>
</g>
<!-- Node7&#45;&gt;Node14 -->
<g id="edge41_Node000007_Node000014" class="edge">
<title>Node7&#45;&gt;Node14</title>
<g id="a_edge41_Node000007_Node000014"><a xlink:title=" ">
<path fill="none" stroke="#63b8ff" d="M1000.49,-183.89C836.22,-181.53 298.47,-171.45 228,-140 203.2,-128.93 182.4,-104.67 170.32,-88.07"/>
<polygon fill="#63b8ff" stroke="#63b8ff" points="173.12,-85.98 164.53,-79.78 167.38,-89.98 173.12,-85.98"/>
</a>
</g>
</g>
<!-- Node20 -->
<g id="Node000020" class="node">
<title>Node20</title>
<g id="a_Node000020"><a xlink:href="_v_i_c_u_s___sub_surface_8h.html" target="_top" xlink:title=" ">
<polygon fill="white" stroke="#666666" points="1012.5,-140 899.5,-140 899.5,-121 1012.5,-121 1012.5,-140"/>
<text text-anchor="middle" x="956" y="-128" font-family="Helvetica,sans-Serif" font-size="10.00">VICUS_SubSurface.h</text>
</a>
</g>
</g>
<!-- Node7&#45;&gt;Node20 -->
<g id="edge31_Node000007_Node000020" class="edge">
<title>Node7&#45;&gt;Node20</title>
<g id="a_edge31_Node000007_Node000020"><a xlink:title=" ">
<path fill="none" stroke="#63b8ff" d="M1033.22,-175.98C1018.82,-167.69 996.69,-154.94 979.81,-145.22"/>
<polygon fill="#63b8ff" stroke="#63b8ff" points="981.46,-142.13 971.05,-140.17 977.97,-148.19 981.46,-142.13"/>
</a>
</g>
</g>
<!-- Node21 -->
<g id="Node000021" class="node">
<title>Node21</title>
<g id="a_Node000021"><a xlink:title=" ">
<polygon fill="#e0e0e0" stroke="#999999" points="1117.5,-79.5 978.5,-79.5 978.5,-60.5 1117.5,-60.5 1117.5,-79.5"/>
<text text-anchor="middle" x="1048" y="-67.5" font-family="Helvetica,sans-Serif" font-size="10.00">NANDRAD_IDVectorMap.h</text>
</a>
</g>
</g>
<!-- Node7&#45;&gt;Node21 -->
<g id="edge43_Node000007_Node000021" class="edge">
<title>Node7&#45;&gt;Node21</title>
<g id="a_edge43_Node000007_Node000021"><a xlink:title=" ">
<path fill="none" stroke="#63b8ff" d="M1048,-175.97C1048,-157.73 1048,-114.57 1048,-89.64"/>
<polygon fill="#63b8ff" stroke="#63b8ff" points="1051.5,-89.63 1048,-79.63 1044.5,-89.63 1051.5,-89.63"/>
</a>
</g>
</g>
<!-- Node22 -->
<g id="Node000022" class="node">
<title>Node22</title>
<g id="a_Node000022"><a xlink:title=" ">
<polygon fill="#e0e0e0" stroke="#999999" points="1236,-79.5 1136,-79.5 1136,-60.5 1236,-60.5 1236,-79.5"/>
<text text-anchor="middle" x="1186" y="-67.5" font-family="Helvetica,sans-Serif" font-size="10.00">IBK_LinearSpline.h</text>
</a>
</g>
</g>
<!-- Node7&#45;&gt;Node22 -->
<g id="edge42_Node000007_Node000022" class="edge">
<title>Node7&#45;&gt;Node22</title>
<g id="a_edge42_Node000007_Node000022"><a xlink:title=" ">
<path fill="none" stroke="#63b8ff" d="M1058.37,-175.97C1081.65,-156.82 1138.3,-110.23 1167.67,-86.08"/>
<polygon fill="#63b8ff" stroke="#63b8ff" points="1170.01,-88.69 1175.51,-79.63 1165.56,-83.28 1170.01,-88.69"/>
</a>
</g>
</g>
<!-- Node24 -->
<g id="Node000024" class="node">
<title>Node24</title>
<g id="a_Node000024"><a xlink:title=" ">
<polygon fill="#e0e0e0" stroke="#999999" points="1301.5,-79.5 1254.5,-79.5 1254.5,-60.5 1301.5,-60.5 1301.5,-79.5"/>
<text text-anchor="middle" x="1278" y="-67.5" font-family="Helvetica,sans-Serif" font-size="10.00">QColor</text>
</a>
</g>
</g>
<!-- Node7&#45;&gt;Node24 -->
<g id="edge45_Node000007_Node000024" class="edge">
<title>Node7&#45;&gt;Node24</title>
<g id="a_edge45_Node000007_Node000024"><a xlink:title=" ">
<path fill="none" stroke="#63b8ff" d="M1065.29,-175.97C1105.16,-156.29 1203.81,-107.61 1251.43,-84.11"/>
<polygon fill="#63b8ff" stroke="#63b8ff" points="1253.09,-87.19 1260.51,-79.63 1250,-80.92 1253.09,-87.19"/>
</a>
</g>
</g>
<!-- Node8&#45;&gt;Node3 -->
<g id="edge15_Node000008_Node000003" class="edge">
<title>Node8&#45;&gt;Node3</title>
<g id="a_edge15_Node000008_Node000003"><a xlink:title=" ">
<path fill="none" stroke="#63b8ff" d="M443.71,-125.56C401.62,-120.64 346.71,-109.62 304,-85 279.55,-70.91 258.94,-45.03 247.02,-27.8"/>
<polygon fill="#63b8ff" stroke="#63b8ff" points="249.78,-25.62 241.32,-19.24 243.95,-29.5 249.78,-25.62"/>
</a>
</g>
</g>
<!-- Node9 -->
<g id="Node000009" class="node">
<title>Node9</title>
<g id="a_Node000009"><a xlink:title=" ">
<polygon fill="#e0e0e0" stroke="#999999" points="559.5,-19 456.5,-19 456.5,0 559.5,0 559.5,-19"/>
<text text-anchor="middle" x="508" y="-7" font-family="Helvetica,sans-Serif" font-size="10.00">IBKMK_Vector3D.h</text>
</a>
</g>
</g>
<!-- Node8&#45;&gt;Node9 -->
<g id="edge14_Node000008_Node000009" class="edge">
<title>Node8&#45;&gt;Node9</title>
<g id="a_edge14_Node000008_Node000009"><a xlink:title=" ">
<path fill="none" stroke="#63b8ff" d="M508,-120.94C508,-101.91 508,-55.69 508,-29.47"/>
<polygon fill="#63b8ff" stroke="#63b8ff" points="511.5,-29.3 508,-19.3 504.5,-29.3 511.5,-29.3"/>
</a>
</g>
</g>
<!-- Node8&#45;&gt;Node10 -->
<g id="edge16_Node000008_Node000010" class="edge">
<title>Node8&#45;&gt;Node10</title>
<g id="a_edge16_Node000008_Node000010"><a xlink:title=" ">
<path fill="none" stroke="#63b8ff" d="M572.18,-127.55C736.28,-122.29 1168.2,-106.77 1310,-85 1315.16,-84.21 1320.55,-83.14 1325.84,-81.95"/>
<polygon fill="#63b8ff" stroke="#63b8ff" points="1326.91,-85.29 1335.82,-79.55 1325.27,-78.49 1326.91,-85.29"/>
</a>
</g>
</g>
<!-- Node8&#45;&gt;Node14 -->
<g id="edge21_Node000008_Node000014" class="edge">
<title>Node8&#45;&gt;Node14</title>
<g id="a_edge21_Node000008_Node000014"><a xlink:title=" ">
<path fill="none" stroke="#63b8ff" d="M457.25,-120.99C394.32,-110.44 287.13,-92.48 219.84,-81.2"/>
<polygon fill="#63b8ff" stroke="#63b8ff" points="220.25,-77.72 209.81,-79.52 219.09,-84.62 220.25,-77.72"/>
</a>
</g>
</g>
<!-- Node16 -->
<g id="Node000016" class="node">
<title>Node16</title>
<g id="a_Node000016"><a xlink:href="_v_i_c_u_s___polygon2_d_8h.html" target="_top" xlink:title=" ">
<polygon fill="white" stroke="#666666" points="646,-79.5 536,-79.5 536,-60.5 646,-60.5 646,-79.5"/>
<text text-anchor="middle" x="591" y="-67.5" font-family="Helvetica,sans-Serif" font-size="10.00">VICUS_Polygon2D.h</text>
</a>
</g>
</g>
<!-- Node8&#45;&gt;Node16 -->
<g id="edge24_Node000008_Node000016" class="edge">
<title>Node8&#45;&gt;Node16</title>
<g id="a_edge24_Node000008_Node000016"><a xlink:title=" ">
<path fill="none" stroke="#63b8ff" d="M520.25,-120.87C533.36,-111.62 554.42,-96.78 570.15,-85.69"/>
<polygon fill="#63b8ff" stroke="#63b8ff" points="572.55,-88.29 578.7,-79.67 568.51,-82.57 572.55,-88.29"/>
</a>
</g>
</g>
<!-- Node18 -->
<g id="Node000018" class="node">
<title>Node18</title>
<g id="a_Node000018"><a xlink:href="_v_i_c_u_s___plane_triangulation_data_8h.html" target="_top" xlink:title=" ">
<polygon fill="white" stroke="#666666" points="480,-85 346,-85 346,-55 480,-55 480,-85"/>
<text text-anchor="start" x="354" y="-73" font-family="Helvetica,sans-Serif" font-size="10.00">VICUS_PlaneTriangulation</text>
<text text-anchor="middle" x="413" y="-62" font-family="Helvetica,sans-Serif" font-size="10.00">Data.h</text>
</a>
</g>
</g>
<!-- Node8&#45;&gt;Node18 -->
<g id="edge27_Node000008_Node000018" class="edge">
<title>Node8&#45;&gt;Node18</title>
<g id="a_edge27_Node000008_Node000018"><a xlink:title=" ">
<path fill="none" stroke="#63b8ff" d="M493.98,-120.87C481.09,-112.93 461.51,-100.87 444.83,-90.6"/>
<polygon fill="#63b8ff" stroke="#63b8ff" points="446.27,-87.38 435.92,-85.11 442.6,-93.34 446.27,-87.38"/>
</a>
</g>
</g>
<!-- Node10&#45;&gt;Node4 -->
<g id="edge20_Node000010_Node000004" class="edge">
<title>Node10&#45;&gt;Node4</title>
<g id="a_edge20_Node000010_Node000004"><a xlink:title=" ">
<path fill="none" stroke="#63b8ff" d="M1381.38,-60.37C1399.58,-50.78 1429.2,-35.17 1450.45,-23.97"/>
<polygon fill="#63b8ff" stroke="#63b8ff" points="1452.34,-26.93 1459.55,-19.17 1449.08,-20.73 1452.34,-26.93"/>
</a>
</g>
</g>
<!-- Node10&#45;&gt;Node11 -->
<g id="edge17_Node000010_Node000011" class="edge">
<title>Node10&#45;&gt;Node11</title>
<g id="a_edge17_Node000010_Node000011"><a xlink:title=" ">
<path fill="none" stroke="#63b8ff" d="M1399.03,-60.49C1444.09,-49.23 1522.98,-29.5 1567,-18.5"/>
<polygon fill="#63b8ff" stroke="#63b8ff" points="1568.03,-21.85 1576.88,-16.03 1566.33,-15.06 1568.03,-21.85"/>
</a>
</g>
</g>
<!-- Node12 -->
<g id="Node000012" class="node">
<title>Node12</title>
<g id="a_Node000012"><a xlink:title=" ">
<polygon fill="#e0e0e0" stroke="#999999" points="1380,-19 1350,-19 1350,0 1380,0 1380,-19"/>
<text text-anchor="middle" x="1365" y="-7" font-family="Helvetica,sans-Serif" font-size="10.00">set</text>
</a>
</g>
</g>
<!-- Node10&#45;&gt;Node12 -->
<g id="edge18_Node000010_Node000012" class="edge">
<title>Node10&#45;&gt;Node12</title>
<g id="a_edge18_Node000010_Node000012"><a xlink:title=" ">
<path fill="none" stroke="#63b8ff" d="M1365,-60.37C1365,-52.25 1365,-39.81 1365,-29.39"/>
<polygon fill="#63b8ff" stroke="#63b8ff" points="1368.5,-29.17 1365,-19.17 1361.5,-29.17 1368.5,-29.17"/>
</a>
</g>
</g>
<!-- Node10&#45;&gt;Node13 -->
<g id="edge19_Node000010_Node000013" class="edge">
<title>Node10&#45;&gt;Node13</title>
<g id="a_edge19_Node000010_Node000013"><a xlink:title=" ">
<path fill="none" stroke="#63b8ff" d="M1335.22,-60.45C1327.1,-58.39 1318.26,-56.38 1310,-55 1121.06,-23.41 891.08,-13.93 804.35,-11.37"/>
<polygon fill="#63b8ff" stroke="#63b8ff" points="804.36,-7.86 794.26,-11.08 804.16,-14.86 804.36,-7.86"/>
</a>
</g>
</g>
<!-- Node14&#45;&gt;Node3 -->
<g id="edge23_Node000014_Node000003" class="edge">
<title>Node14&#45;&gt;Node3</title>
<g id="a_edge23_Node000014_Node000003"><a xlink:title=" ">
<path fill="none" stroke="#63b8ff" d="M170.36,-60.37C182.42,-51.21 201.7,-36.56 216.25,-25.51"/>
<polygon fill="#63b8ff" stroke="#63b8ff" points="218.75,-28 224.59,-19.17 214.51,-22.43 218.75,-28"/>
</a>
</g>
</g>
<!-- Node15 -->
<g id="Node000015" class="node">
<title>Node15</title>
<g id="a_Node000015"><a xlink:title=" ">
<polygon fill="#e0e0e0" stroke="#999999" points="150,-19 40,-19 40,0 150,0 150,-19"/>
<text text-anchor="middle" x="95" y="-7" font-family="Helvetica,sans-Serif" font-size="10.00">IBKMK_Polygon3D.h</text>
</a>
</g>
</g>
<!-- Node14&#45;&gt;Node15 -->
<g id="edge22_Node000014_Node000015" class="edge">
<title>Node14&#45;&gt;Node15</title>
<g id="a_edge22_Node000014_Node000015"><a xlink:title=" ">
<path fill="none" stroke="#63b8ff" d="M149.56,-60.37C139.73,-51.38 124.11,-37.11 112.11,-26.14"/>
<polygon fill="#63b8ff" stroke="#63b8ff" points="114.22,-23.33 104.48,-19.17 109.5,-28.5 114.22,-23.33"/>
</a>
</g>
</g>
<!-- Node16&#45;&gt;Node3 -->
<g id="edge26_Node000016_Node000003" class="edge">
<title>Node16&#45;&gt;Node3</title>
<g id="a_edge26_Node000016_Node000003"><a xlink:title=" ">
<path fill="none" stroke="#63b8ff" d="M539.38,-60.49C475.36,-49.94 366.33,-31.98 297.89,-20.7"/>
<polygon fill="#63b8ff" stroke="#63b8ff" points="298.12,-17.19 287.68,-19.02 296.98,-24.1 298.12,-17.19"/>
</a>
</g>
</g>
<!-- Node17 -->
<g id="Node000017" class="node">
<title>Node17</title>
<g id="a_Node000017"><a xlink:title=" ">
<polygon fill="#e0e0e0" stroke="#999999" points="688,-19 578,-19 578,0 688,0 688,-19"/>
<text text-anchor="middle" x="633" y="-7" font-family="Helvetica,sans-Serif" font-size="10.00">IBKMK_Polygon2D.h</text>
</a>
</g>
</g>
<!-- Node16&#45;&gt;Node17 -->
<g id="edge25_Node000016_Node000017" class="edge">
<title>Node16&#45;&gt;Node17</title>
<g id="a_edge25_Node000016_Node000017"><a xlink:title=" ">
<path fill="none" stroke="#63b8ff" d="M597.2,-60.37C603.4,-51.73 613.11,-38.2 620.86,-27.42"/>
<polygon fill="#63b8ff" stroke="#63b8ff" points="623.79,-29.33 626.78,-19.17 618.1,-25.25 623.79,-29.33"/>
</a>
</g>
</g>
<!-- Node18&#45;&gt;Node9 -->
<g id="edge28_Node000018_Node000009" class="edge">
<title>Node18&#45;&gt;Node9</title>
<g id="a_edge28_Node000018_Node000009"><a xlink:title=" ">
<path fill="none" stroke="#63b8ff" d="M436,-54.84C451,-45.6 470.5,-33.59 485.43,-24.4"/>
<polygon fill="#63b8ff" stroke="#63b8ff" points="487.36,-27.32 494.04,-19.09 483.69,-21.36 487.36,-27.32"/>
</a>
</g>
</g>
<!-- Node19 -->
<g id="Node000019" class="node">
<title>Node19</title>
<g id="a_Node000019"><a xlink:title=" ">
<polygon fill="#e0e0e0" stroke="#999999" points="438.5,-19 321.5,-19 321.5,0 438.5,0 438.5,-19"/>
<text text-anchor="middle" x="380" y="-7" font-family="Helvetica,sans-Serif" font-size="10.00">IBKMK_Triangulation.h</text>
</a>
</g>
</g>
<!-- Node18&#45;&gt;Node19 -->
<g id="edge29_Node000018_Node000019" class="edge">
<title>Node18&#45;&gt;Node19</title>
<g id="a_edge29_Node000018_Node000019"><a xlink:title=" ">
<path fill="none" stroke="#63b8ff" d="M405.01,-54.84C400.47,-46.78 394.73,-36.62 389.9,-28.06"/>
<polygon fill="#63b8ff" stroke="#63b8ff" points="392.91,-26.26 384.94,-19.27 386.81,-29.7 392.91,-26.26"/>
</a>
</g>
</g>
<!-- Node20&#45;&gt;Node3 -->
<g id="edge32_Node000020_Node000003" class="edge">
<title>Node20&#45;&gt;Node3</title>
<g id="a_edge32_Node000020_Node000003"><a xlink:title=" ">
<path fill="none" stroke="#63b8ff" d="M899.49,-127.41C756.57,-121.86 388.37,-105.71 337,-85 317.68,-77.21 317.61,-67.56 301,-55 286.96,-44.38 270.6,-33.19 257.8,-24.68"/>
<polygon fill="#63b8ff" stroke="#63b8ff" points="259.48,-21.59 249.2,-19.01 255.63,-27.44 259.48,-21.59"/>
</a>
</g>
</g>
<!-- Node20&#45;&gt;Node4 -->
<g id="edge33_Node000020_Node000004" class="edge">
<title>Node20&#45;&gt;Node4</title>
<g id="a_edge33_Node000020_Node000004"><a xlink:title=" ">
<path fill="none" stroke="#63b8ff" d="M954.51,-120.81C952.37,-105.07 950.51,-71.94 969,-55 1003.53,-23.36 1342.36,-23.28 1389,-19 1396.46,-18.32 1404.28,-17.58 1412.04,-16.84"/>
<polygon fill="#63b8ff" stroke="#63b8ff" points="1412.56,-20.3 1422.17,-15.86 1411.88,-13.34 1412.56,-20.3"/>
</a>
</g>
</g>
<!-- Node20&#45;&gt;Node10 -->
<g id="edge35_Node000020_Node000010" class="edge">
<title>Node20&#45;&gt;Node10</title>
<g id="a_edge35_Node000020_Node000010"><a xlink:title=" ">
<path fill="none" stroke="#63b8ff" d="M1012.74,-124.56C1082.94,-117.94 1205.93,-104.71 1310,-85 1314.71,-84.11 1319.62,-83.05 1324.48,-81.92"/>
<polygon fill="#63b8ff" stroke="#63b8ff" points="1325.43,-85.29 1334.32,-79.53 1323.77,-78.49 1325.43,-85.29"/>
</a>
</g>
</g>
<!-- Node20&#45;&gt;Node13 -->
<g id="edge39_Node000020_Node000013" class="edge">
<title>Node20&#45;&gt;Node13</title>
<g id="a_edge39_Node000020_Node000013"><a xlink:title=" ">
<path fill="none" stroke="#63b8ff" d="M950.87,-120.86C941.34,-105.5 919.44,-73.35 893,-55 865.96,-36.23 830.14,-24.51 803.95,-17.83"/>
<polygon fill="#63b8ff" stroke="#63b8ff" points="804.62,-14.39 794.08,-15.44 802.97,-21.19 804.62,-14.39"/>
</a>
</g>
</g>
<!-- Node20&#45;&gt;Node16 -->
<g id="edge34_Node000020_Node000016" class="edge">
<title>Node20&#45;&gt;Node16</title>
<g id="a_edge34_Node000020_Node000016"><a xlink:title=" ">
<path fill="none" stroke="#63b8ff" d="M902.93,-120.99C836.97,-110.42 724.54,-92.4 654.2,-81.13"/>
<polygon fill="#63b8ff" stroke="#63b8ff" points="654.57,-77.64 644.14,-79.52 653.46,-84.56 654.57,-77.64"/>
</a>
</g>
</g>
<!-- Node20&#45;&gt;Node21 -->
<g id="edge36_Node000020_Node000021" class="edge">
<title>Node20&#45;&gt;Node21</title>
<g id="a_edge36_Node000020_Node000021"><a xlink:title=" ">
<path fill="none" stroke="#63b8ff" d="M969.57,-120.87C984.39,-111.45 1008.33,-96.23 1025.86,-85.08"/>
<polygon fill="#63b8ff" stroke="#63b8ff" points="1027.81,-87.99 1034.37,-79.67 1024.05,-82.08 1027.81,-87.99"/>
</a>
</g>
</g>
<!-- Node20&#45;&gt;Node22 -->
<g id="edge37_Node000020_Node000022" class="edge">
<title>Node20&#45;&gt;Node22</title>
<g id="a_edge37_Node000020_Node000022"><a xlink:title=" ">
<path fill="none" stroke="#63b8ff" d="M989.44,-120.99C1029.9,-110.7 1098.1,-93.36 1142.58,-82.04"/>
<polygon fill="#63b8ff" stroke="#63b8ff" points="1143.69,-85.37 1152.52,-79.52 1141.96,-78.59 1143.69,-85.37"/>
</a>
</g>
</g>
<!-- Node23 -->
<g id="Node000023" class="node">
<title>Node23</title>
<g id="a_Node000023"><a xlink:title=" ">
<polygon fill="#e0e0e0" stroke="#999999" points="884,-79.5 816,-79.5 816,-60.5 884,-60.5 884,-79.5"/>
<text text-anchor="middle" x="850" y="-67.5" font-family="Helvetica,sans-Serif" font-size="10.00">IBK_point.h</text>
</a>
</g>
</g>
<!-- Node20&#45;&gt;Node23 -->
<g id="edge38_Node000020_Node000023" class="edge">
<title>Node20&#45;&gt;Node23</title>
<g id="a_edge38_Node000020_Node000023"><a xlink:title=" ">
<path fill="none" stroke="#63b8ff" d="M940.36,-120.87C923.06,-111.32 894.95,-95.81 874.67,-84.62"/>
<polygon fill="#63b8ff" stroke="#63b8ff" points="876.15,-81.43 865.7,-79.67 872.77,-87.56 876.15,-81.43"/>
</a>
</g>
</g>
<!-- Node20&#45;&gt;Node24 -->
<g id="edge40_Node000020_Node000024" class="edge">
<title>Node20&#45;&gt;Node24</title>
<g id="a_edge40_Node000020_Node000024"><a xlink:title=" ">
<path fill="none" stroke="#63b8ff" d="M1012.56,-124.98C1071.47,-119.3 1166.02,-107.46 1245,-85 1246.89,-84.46 1248.81,-83.85 1250.73,-83.18"/>
<polygon fill="#63b8ff" stroke="#63b8ff" points="1252.08,-86.41 1260.14,-79.53 1249.55,-79.88 1252.08,-86.41"/>
</a>
</g>
</g>
<!-- Node26&#45;&gt;Node25 -->
<g id="edge57_Node000026_Node000025" class="edge">
<title>Node26&#45;&gt;Node25</title>
<g id="a_edge57_Node000026_Node000025"><a xlink:title=" ">
<path fill="none" stroke="#63b8ff" d="M1697.66,-340.97C1646.61,-314.29 1489.74,-232.34 1427.67,-199.91"/>
<polygon fill="#63b8ff" stroke="#63b8ff" points="1429.03,-196.67 1418.55,-195.15 1425.79,-202.88 1429.03,-196.67"/>
</a>
</g>
</g>
<!-- Node27 -->
<g id="Node000027" class="node">
<title>Node27</title>
<g id="a_Node000027"><a xlink:title=" ">
<polygon fill="#e0e0e0" stroke="#999999" points="1793.5,-305 1752.5,-305 1752.5,-286 1793.5,-286 1793.5,-305"/>
<text text-anchor="middle" x="1773" y="-293" font-family="Helvetica,sans-Serif" font-size="10.00">string</text>
</a>
</g>
</g>
<!-- Node26&#45;&gt;Node27 -->
<g id="edge55_Node000026_Node000027" class="edge">
<title>Node26&#45;&gt;Node27</title>
<g id="a_edge55_Node000026_Node000027"><a xlink:title=" ">
<path fill="none" stroke="#63b8ff" d="M1723.48,-340.98C1732.2,-333.15 1745.34,-321.34 1755.9,-311.86"/>
<polygon fill="#63b8ff" stroke="#63b8ff" points="1758.25,-314.46 1763.35,-305.17 1753.57,-309.25 1758.25,-314.46"/>
</a>
</g>
</g>
<!-- Node28 -->
<g id="Node000028" class="node">
<title>Node28</title>
<g id="a_Node000028"><a xlink:title=" ">
<polygon fill="#e0e0e0" stroke="#999999" points="1862.5,-305 1811.5,-305 1811.5,-286 1862.5,-286 1862.5,-305"/>
<text text-anchor="middle" x="1837" y="-293" font-family="Helvetica,sans-Serif" font-size="10.00">typeinfo</text>
</a>
</g>
</g>
<!-- Node26&#45;&gt;Node28 -->
<g id="edge56_Node000026_Node000028" class="edge">
<title>Node26&#45;&gt;Node28</title>
<g id="a_edge56_Node000026_Node000028"><a xlink:title=" ">
<path fill="none" stroke="#63b8ff" d="M1733.76,-340.98C1753.73,-332.38 1784.8,-318.99 1807.65,-309.15"/>
<polygon fill="#63b8ff" stroke="#63b8ff" points="1809.08,-312.34 1816.88,-305.17 1806.31,-305.91 1809.08,-312.34"/>
</a>
</g>
</g>
<!-- Node29 -->
<g id="Node000029" class="node">
<title>Node29</title>
<g id="a_Node000029"><a xlink:title=" ">
<polygon fill="#e0e0e0" stroke="#999999" points="1734,-305 1656,-305 1656,-286 1734,-286 1734,-305"/>
<text text-anchor="middle" x="1695" y="-293" font-family="Helvetica,sans-Serif" font-size="10.00">IBK_IntPara.h</text>
</a>
</g>
</g>
<!-- Node26&#45;&gt;Node29 -->
<g id="edge58_Node000026_Node000029" class="edge">
<title>Node26&#45;&gt;Node29</title>
<g id="a_edge58_Node000026_Node000029"><a xlink:title=" ">
<path fill="none" stroke="#63b8ff" d="M1710.86,-340.75C1708.32,-333.65 1704.64,-323.4 1701.47,-314.56"/>
<polygon fill="#63b8ff" stroke="#63b8ff" points="1704.75,-313.32 1698.08,-305.09 1698.16,-315.68 1704.75,-313.32"/>
</a>
</g>
</g>
</g>
</svg>
