<?xml version="1.0" encoding="UTF-8" standalone="no"?>
<!DOCTYPE svg PUBLIC "-//W3C//DTD SVG 1.1//EN"
 "http://www.w3.org/Graphics/SVG/1.1/DTD/svg11.dtd">
<!-- Generated by graphviz version 2.43.0 (0)
 -->
<!-- Title: /home/hirth/git/SIM&#45;VICUS.master2/externals/Vicus/src/ncg/ncg_VICUS_SubNetwork.cpp Pages: 1 -->
<svg width="2163pt" height="412pt"
 viewBox="0.00 0.00 2163.00 412.00" xmlns="http://www.w3.org/2000/svg" xmlns:xlink="http://www.w3.org/1999/xlink">
<g id="graph0" class="graph" transform="scale(1 1) rotate(0) translate(4 408)">
<title>/home/hirth/git/SIM&#45;VICUS.master2/externals/Vicus/src/ncg/ncg_VICUS_SubNetwork.cpp</title>
<!-- Node1 -->
<g id="Node000001" class="node">
<title>Node1</title>
<g id="a_Node000001"><a xlink:title=" ">
<polygon fill="#999999" stroke="#666666" points="1843.5,-404 1708.5,-404 1708.5,-352 1843.5,-352 1843.5,-404"/>
<text text-anchor="start" x="1716.5" y="-392" font-family="Helvetica,sans-Serif" font-size="10.00">/home/hirth/git/SIM</text>
<text text-anchor="start" x="1716.5" y="-381" font-family="Helvetica,sans-Serif" font-size="10.00">&#45;VICUS.master2/externals</text>
<text text-anchor="start" x="1716.5" y="-370" font-family="Helvetica,sans-Serif" font-size="10.00">/Vicus/src/ncg/ncg_VICUS</text>
<text text-anchor="middle" x="1776" y="-359" font-family="Helvetica,sans-Serif" font-size="10.00">_SubNetwork.cpp</text>
</a>
</g>
</g>
<!-- Node2 -->
<g id="Node000002" class="node">
<title>Node2</title>
<g id="a_Node000002"><a xlink:href="_v_i_c_u_s___sub_network_8h.html" target="_top" xlink:title=" ">
<polygon fill="white" stroke="#666666" points="1299,-316 1183,-316 1183,-297 1299,-297 1299,-316"/>
<text text-anchor="middle" x="1241" y="-304" font-family="Helvetica,sans-Serif" font-size="10.00">VICUS_SubNetwork.h</text>
</a>
</g>
</g>
<!-- Node1&#45;&gt;Node2 -->
<g id="edge1_Node000001_Node000002" class="edge">
<title>Node1&#45;&gt;Node2</title>
<g id="a_edge1_Node000001_Node000002"><a xlink:title=" ">
<path fill="none" stroke="#63b8ff" d="M1708.24,-368.2C1605.66,-354.87 1412.01,-329.72 1309.18,-316.36"/>
<polygon fill="#63b8ff" stroke="#63b8ff" points="1309.58,-312.88 1299.21,-315.06 1308.68,-319.82 1309.58,-312.88"/>
</a>
</g>
</g>
<!-- Node6 -->
<g id="Node000006" class="node">
<title>Node6</title>
<g id="a_Node000006"><a xlink:href="_v_i_c_u_s___constants_8h.html" target="_top" xlink:title="Contains global constants for the SIM&#45;VICUS data model.">
<polygon fill="white" stroke="#666666" points="1276.5,-19 1169.5,-19 1169.5,0 1276.5,0 1276.5,-19"/>
<text text-anchor="middle" x="1223" y="-7" font-family="Helvetica,sans-Serif" font-size="10.00">VICUS_Constants.h</text>
</a>
</g>
</g>
<!-- Node1&#45;&gt;Node6 -->
<g id="edge64_Node000001_Node000006" class="edge">
<title>Node1&#45;&gt;Node6</title>
<g id="a_edge64_Node000001_Node000006"><a xlink:title=" ">
<path fill="none" stroke="#63b8ff" d="M1776.25,-351.96C1776.79,-287.34 1777.47,-119.35 1770,-110 1710.6,-35.66 1418.25,-16.81 1286.99,-12.07"/>
<polygon fill="#63b8ff" stroke="#63b8ff" points="1286.81,-8.56 1276.69,-11.72 1286.56,-15.56 1286.81,-8.56"/>
</a>
</g>
</g>
<!-- Node11 -->
<g id="Node000011" class="node">
<title>Node11</title>
<g id="a_Node000011"><a xlink:title=" ">
<polygon fill="#e0e0e0" stroke="#999999" points="1333,-129 1241,-129 1241,-110 1333,-110 1333,-129"/>
<text text-anchor="middle" x="1287" y="-117" font-family="Helvetica,sans-Serif" font-size="10.00">IBK_messages.h</text>
</a>
</g>
</g>
<!-- Node1&#45;&gt;Node11 -->
<g id="edge61_Node000001_Node000011" class="edge">
<title>Node1&#45;&gt;Node11</title>
<g id="a_edge61_Node000001_Node000011"><a xlink:title=" ">
<path fill="none" stroke="#63b8ff" d="M1726.72,-351.91C1705.27,-340.95 1679.86,-327.9 1657,-316 1526.97,-248.32 1372.07,-165.88 1312.27,-133.99"/>
<polygon fill="#63b8ff" stroke="#63b8ff" points="1313.66,-130.77 1303.19,-129.15 1310.37,-136.94 1313.66,-130.77"/>
</a>
</g>
</g>
<!-- Node12 -->
<g id="Node000012" class="node">
<title>Node12</title>
<g id="a_Node000012"><a xlink:title=" ">
<polygon fill="#e0e0e0" stroke="#999999" points="1483,-129 1427,-129 1427,-110 1483,-110 1483,-129"/>
<text text-anchor="middle" x="1455" y="-117" font-family="Helvetica,sans-Serif" font-size="10.00">tinyxml.h</text>
</a>
</g>
</g>
<!-- Node1&#45;&gt;Node12 -->
<g id="edge66_Node000001_Node000012" class="edge">
<title>Node1&#45;&gt;Node12</title>
<g id="a_edge66_Node000001_Node000012"><a xlink:title=" ">
<path fill="none" stroke="#63b8ff" d="M1738.46,-351.77C1689.08,-318.02 1600.33,-255.39 1530,-195 1508.15,-176.24 1484.9,-152.48 1470.18,-136.9"/>
<polygon fill="#63b8ff" stroke="#63b8ff" points="1472.34,-134.08 1462.95,-129.18 1467.23,-138.87 1472.34,-134.08"/>
</a>
</g>
</g>
<!-- Node30 -->
<g id="Node000030" class="node">
<title>Node30</title>
<g id="a_Node000030"><a xlink:href="_v_i_c_u_s___keyword_list_8h.html" target="_top" xlink:title="Contains the declaration of class KeywordList.">
<polygon fill="white" stroke="#666666" points="1901,-189.5 1785,-189.5 1785,-170.5 1901,-170.5 1901,-189.5"/>
<text text-anchor="middle" x="1843" y="-177.5" font-family="Helvetica,sans-Serif" font-size="10.00">VICUS_KeywordList.h</text>
</a>
</g>
</g>
<!-- Node1&#45;&gt;Node30 -->
<g id="edge56_Node000001_Node000030" class="edge">
<title>Node1&#45;&gt;Node30</title>
<g id="a_edge56_Node000001_Node000030"><a xlink:title=" ">
<path fill="none" stroke="#63b8ff" d="M1784.62,-351.78C1798.33,-311.67 1824.77,-234.32 1836.79,-199.17"/>
<polygon fill="#63b8ff" stroke="#63b8ff" points="1840.1,-200.3 1840.02,-189.71 1833.48,-198.04 1840.1,-200.3"/>
</a>
</g>
</g>
<!-- Node32 -->
<g id="Node000032" class="node">
<title>Node32</title>
<g id="a_Node000032"><a xlink:title=" ">
<polygon fill="#e0e0e0" stroke="#999999" points="1913,-316 1823,-316 1823,-297 1913,-297 1913,-316"/>
<text text-anchor="middle" x="1868" y="-304" font-family="Helvetica,sans-Serif" font-size="10.00">IBK_Exception.h</text>
</a>
</g>
</g>
<!-- Node1&#45;&gt;Node32 -->
<g id="edge62_Node000001_Node000032" class="edge">
<title>Node1&#45;&gt;Node32</title>
<g id="a_edge62_Node000001_Node000032"><a xlink:title=" ">
<path fill="none" stroke="#63b8ff" d="M1809.21,-351.91C1822.34,-341.99 1836.97,-330.94 1848.36,-322.34"/>
<polygon fill="#63b8ff" stroke="#63b8ff" points="1850.48,-325.12 1856.35,-316.3 1846.26,-319.54 1850.48,-325.12"/>
</a>
</g>
</g>
<!-- Node33 -->
<g id="Node000033" class="node">
<title>Node33</title>
<g id="a_Node000033"><a xlink:title=" ">
<polygon fill="#e0e0e0" stroke="#999999" points="2023,-316 1931,-316 1931,-297 2023,-297 2023,-316"/>
<text text-anchor="middle" x="1977" y="-304" font-family="Helvetica,sans-Serif" font-size="10.00">IBK_StringUtils.h</text>
</a>
</g>
</g>
<!-- Node1&#45;&gt;Node33 -->
<g id="edge63_Node000001_Node000033" class="edge">
<title>Node1&#45;&gt;Node33</title>
<g id="a_edge63_Node000001_Node000033"><a xlink:title=" ">
<path fill="none" stroke="#63b8ff" d="M1843.77,-353.57C1876.92,-342.11 1915.4,-328.8 1942.45,-319.44"/>
<polygon fill="#63b8ff" stroke="#63b8ff" points="1943.92,-322.64 1952.23,-316.06 1941.64,-316.02 1943.92,-322.64"/>
</a>
</g>
</g>
<!-- Node34 -->
<g id="Node000034" class="node">
<title>Node34</title>
<g id="a_Node000034"><a xlink:title=" ">
<polygon fill="#e0e0e0" stroke="#999999" points="2155,-316 2041,-316 2041,-297 2155,-297 2155,-316"/>
<text text-anchor="middle" x="2098" y="-304" font-family="Helvetica,sans-Serif" font-size="10.00">NANDRAD_Utilities.h</text>
</a>
</g>
</g>
<!-- Node1&#45;&gt;Node34 -->
<g id="edge65_Node000001_Node000034" class="edge">
<title>Node1&#45;&gt;Node34</title>
<g id="a_edge65_Node000001_Node000034"><a xlink:title=" ">
<path fill="none" stroke="#63b8ff" d="M1843.5,-362.43C1904.79,-349.2 1993.73,-330.01 2048.61,-318.16"/>
<polygon fill="#63b8ff" stroke="#63b8ff" points="2049.41,-321.57 2058.45,-316.04 2047.93,-314.73 2049.41,-321.57"/>
</a>
</g>
</g>
<!-- Node3 -->
<g id="Node000003" class="node">
<title>Node3</title>
<g id="a_Node000003"><a xlink:href="_v_i_c_u_s___abstract_d_b_element_8h.html" target="_top" xlink:title=" ">
<polygon fill="white" stroke="#666666" points="1084.5,-129 935.5,-129 935.5,-110 1084.5,-110 1084.5,-129"/>
<text text-anchor="middle" x="1010" y="-117" font-family="Helvetica,sans-Serif" font-size="10.00">VICUS_AbstractDBElement.h</text>
</a>
</g>
</g>
<!-- Node2&#45;&gt;Node3 -->
<g id="edge2_Node000002_Node000003" class="edge">
<title>Node2&#45;&gt;Node3</title>
<g id="a_edge2_Node000002_Node000003"><a xlink:title=" ">
<path fill="none" stroke="#63b8ff" d="M1232.94,-296.88C1224.84,-288.09 1212.14,-273.94 1202,-261 1169.92,-220.04 1176.37,-196.56 1135,-165 1114.17,-149.11 1087.17,-138.55 1063.6,-131.73"/>
<polygon fill="#63b8ff" stroke="#63b8ff" points="1064.3,-128.29 1053.73,-129.03 1062.45,-135.04 1064.3,-128.29"/>
</a>
</g>
</g>
<!-- Node5 -->
<g id="Node000005" class="node">
<title>Node5</title>
<g id="a_Node000005"><a xlink:title=" ">
<polygon fill="#e0e0e0" stroke="#999999" points="994.5,-74 947.5,-74 947.5,-55 994.5,-55 994.5,-74"/>
<text text-anchor="middle" x="971" y="-62" font-family="Helvetica,sans-Serif" font-size="10.00">QColor</text>
</a>
</g>
</g>
<!-- Node2&#45;&gt;Node5 -->
<g id="edge55_Node000002_Node000005" class="edge">
<title>Node2&#45;&gt;Node5</title>
<g id="a_edge55_Node000002_Node000005"><a xlink:title=" ">
<path fill="none" stroke="#63b8ff" d="M1299.22,-302.04C1327.85,-297.04 1359.99,-285.78 1378,-261 1407.34,-220.62 1413.65,-170.41 1342,-110 1316.44,-88.45 1091.46,-72.75 1004.81,-67.45"/>
<polygon fill="#63b8ff" stroke="#63b8ff" points="1004.91,-63.95 994.72,-66.85 1004.49,-70.94 1004.91,-63.95"/>
</a>
</g>
</g>
<!-- Node2&#45;&gt;Node6 -->
<g id="edge6_Node000002_Node000006" class="edge">
<title>Node2&#45;&gt;Node6</title>
<g id="a_edge6_Node000002_Node000006"><a xlink:title=" ">
<path fill="none" stroke="#63b8ff" d="M1299.2,-298.98C1331.27,-293.11 1370.44,-282 1400,-261 1464.07,-215.5 1536.91,-174.49 1492,-110 1445.95,-43.87 1350.61,-21.58 1286.71,-14.14"/>
<polygon fill="#63b8ff" stroke="#63b8ff" points="1287.06,-10.66 1276.74,-13.07 1286.31,-17.62 1287.06,-10.66"/>
</a>
</g>
</g>
<!-- Node7 -->
<g id="Node000007" class="node">
<title>Node7</title>
<g id="a_Node000007"><a xlink:href="_v_i_c_u_s___code_gen_macros_8h.html" target="_top" xlink:title=" ">
<polygon fill="white" stroke="#666666" points="181.5,-19 46.5,-19 46.5,0 181.5,0 181.5,-19"/>
<text text-anchor="middle" x="114" y="-7" font-family="Helvetica,sans-Serif" font-size="10.00">VICUS_CodeGenMacros.h</text>
</a>
</g>
</g>
<!-- Node2&#45;&gt;Node7 -->
<g id="edge7_Node000002_Node000007" class="edge">
<title>Node2&#45;&gt;Node7</title>
<g id="a_edge7_Node000002_Node000007"><a xlink:title=" ">
<path fill="none" stroke="#63b8ff" d="M1182.81,-305.85C937.46,-306.57 0,-301.45 0,-181 0,-181 0,-181 0,-118.5 0,-72.47 49.58,-40.18 83.35,-23.53"/>
<polygon fill="#63b8ff" stroke="#63b8ff" points="85.28,-26.49 92.82,-19.05 82.29,-20.16 85.28,-26.49"/>
</a>
</g>
</g>
<!-- Node8 -->
<g id="Node000008" class="node">
<title>Node8</title>
<g id="a_Node000008"><a xlink:href="_v_i_c_u_s___database_8h.html" target="_top" xlink:title=" ">
<polygon fill="white" stroke="#666666" points="1286,-189.5 1182,-189.5 1182,-170.5 1286,-170.5 1286,-189.5"/>
<text text-anchor="middle" x="1234" y="-177.5" font-family="Helvetica,sans-Serif" font-size="10.00">VICUS_Database.h</text>
</a>
</g>
</g>
<!-- Node2&#45;&gt;Node8 -->
<g id="edge8_Node000002_Node000008" class="edge">
<title>Node2&#45;&gt;Node8</title>
<g id="a_edge8_Node000002_Node000008"><a xlink:title=" ">
<path fill="none" stroke="#63b8ff" d="M1232.25,-296.9C1224.44,-288.56 1213.55,-275.13 1209,-261 1202.13,-239.67 1212.57,-215.04 1221.99,-198.81"/>
<polygon fill="#63b8ff" stroke="#63b8ff" points="1225.23,-200.23 1227.55,-189.89 1219.29,-196.53 1225.23,-200.23"/>
</a>
</g>
</g>
<!-- Node13 -->
<g id="Node000013" class="node">
<title>Node13</title>
<g id="a_Node000013"><a xlink:href="_v_i_c_u_s___network_component_8h.html" target="_top" xlink:title=" ">
<polygon fill="white" stroke="#666666" points="868.5,-255.5 719.5,-255.5 719.5,-236.5 868.5,-236.5 868.5,-255.5"/>
<text text-anchor="middle" x="794" y="-243.5" font-family="Helvetica,sans-Serif" font-size="10.00">VICUS_NetworkComponent.h</text>
</a>
</g>
</g>
<!-- Node2&#45;&gt;Node13 -->
<g id="edge14_Node000002_Node000013" class="edge">
<title>Node2&#45;&gt;Node13</title>
<g id="a_edge14_Node000002_Node000013"><a xlink:title=" ">
<path fill="none" stroke="#63b8ff" d="M1182.56,-297.85C1102.13,-287.33 957.24,-268.36 868.93,-256.81"/>
<polygon fill="#63b8ff" stroke="#63b8ff" points="869.34,-253.33 858.98,-255.5 868.44,-260.27 869.34,-253.33"/>
</a>
</g>
</g>
<!-- Node25 -->
<g id="Node000025" class="node">
<title>Node25</title>
<g id="a_Node000025"><a xlink:href="_v_i_c_u_s___network_controller_8h.html" target="_top" xlink:title=" ">
<polygon fill="white" stroke="#666666" points="1074,-255.5 934,-255.5 934,-236.5 1074,-236.5 1074,-255.5"/>
<text text-anchor="middle" x="1004" y="-243.5" font-family="Helvetica,sans-Serif" font-size="10.00">VICUS_NetworkController.h</text>
</a>
</g>
</g>
<!-- Node2&#45;&gt;Node25 -->
<g id="edge41_Node000002_Node000025" class="edge">
<title>Node2&#45;&gt;Node25</title>
<g id="a_edge41_Node000002_Node000025"><a xlink:title=" ">
<path fill="none" stroke="#63b8ff" d="M1206.54,-296.99C1164.76,-286.68 1094.28,-269.28 1048.46,-257.97"/>
<polygon fill="#63b8ff" stroke="#63b8ff" points="1049.05,-254.52 1038.5,-255.52 1047.37,-261.31 1049.05,-254.52"/>
</a>
</g>
</g>
<!-- Node27 -->
<g id="Node000027" class="node">
<title>Node27</title>
<g id="a_Node000027"><a xlink:href="_v_i_c_u_s___network_element_8h.html" target="_top" xlink:title=" ">
<polygon fill="white" stroke="#666666" points="1673,-189.5 1539,-189.5 1539,-170.5 1673,-170.5 1673,-189.5"/>
<text text-anchor="middle" x="1606" y="-177.5" font-family="Helvetica,sans-Serif" font-size="10.00">VICUS_NetworkElement.h</text>
</a>
</g>
</g>
<!-- Node2&#45;&gt;Node27 -->
<g id="edge49_Node000002_Node000027" class="edge">
<title>Node2&#45;&gt;Node27</title>
<g id="a_edge49_Node000002_Node000027"><a xlink:title=" ">
<path fill="none" stroke="#63b8ff" d="M1299.05,-297.24C1341.4,-290.23 1399.76,-278.48 1449,-261 1499.21,-243.18 1553.76,-212.58 1583.51,-194.84"/>
<polygon fill="#63b8ff" stroke="#63b8ff" points="1585.51,-197.72 1592.26,-189.56 1581.89,-191.73 1585.51,-197.72"/>
</a>
</g>
</g>
<!-- Node29 -->
<g id="Node000029" class="node">
<title>Node29</title>
<g id="a_Node000029"><a xlink:title=" ">
<polygon fill="#e0e0e0" stroke="#999999" points="1368.5,-261 1217.5,-261 1217.5,-231 1368.5,-231 1368.5,-261"/>
<text text-anchor="start" x="1225.5" y="-249" font-family="Helvetica,sans-Serif" font-size="10.00">NANDRAD_HydraulicNetwork</text>
<text text-anchor="middle" x="1293" y="-238" font-family="Helvetica,sans-Serif" font-size="10.00">Element.h</text>
</a>
</g>
</g>
<!-- Node2&#45;&gt;Node29 -->
<g id="edge54_Node000002_Node000029" class="edge">
<title>Node2&#45;&gt;Node29</title>
<g id="a_edge54_Node000002_Node000029"><a xlink:title=" ">
<path fill="none" stroke="#63b8ff" d="M1248.67,-296.87C1255.27,-289.44 1265.07,-278.42 1273.78,-268.62"/>
<polygon fill="#63b8ff" stroke="#63b8ff" points="1276.43,-270.91 1280.45,-261.11 1271.19,-266.26 1276.43,-270.91"/>
</a>
</g>
</g>
<!-- Node4 -->
<g id="Node000004" class="node">
<title>Node4</title>
<g id="a_Node000004"><a xlink:title=" ">
<polygon fill="#e0e0e0" stroke="#999999" points="495.5,-74 360.5,-74 360.5,-55 495.5,-55 495.5,-74"/>
<text text-anchor="middle" x="428" y="-62" font-family="Helvetica,sans-Serif" font-size="10.00">IBK_MultiLanguageString.h</text>
</a>
</g>
</g>
<!-- Node3&#45;&gt;Node4 -->
<g id="edge3_Node000003_Node000004" class="edge">
<title>Node3&#45;&gt;Node4</title>
<g id="a_edge3_Node000003_Node000004"><a xlink:title=" ">
<path fill="none" stroke="#63b8ff" d="M935.4,-111.71C824.9,-101.64 618.7,-82.87 506.17,-72.62"/>
<polygon fill="#63b8ff" stroke="#63b8ff" points="506.19,-69.11 495.91,-71.68 505.56,-76.08 506.19,-69.11"/>
</a>
</g>
</g>
<!-- Node3&#45;&gt;Node5 -->
<g id="edge4_Node000003_Node000005" class="edge">
<title>Node3&#45;&gt;Node5</title>
<g id="a_edge4_Node000003_Node000005"><a xlink:title=" ">
<path fill="none" stroke="#63b8ff" d="M1003.56,-109.75C998.11,-102.34 990.14,-91.5 983.44,-82.41"/>
<polygon fill="#63b8ff" stroke="#63b8ff" points="986.07,-80.07 977.32,-74.09 980.43,-84.22 986.07,-80.07"/>
</a>
</g>
</g>
<!-- Node3&#45;&gt;Node6 -->
<g id="edge5_Node000003_Node000006" class="edge">
<title>Node3&#45;&gt;Node6</title>
<g id="a_edge5_Node000003_Node000006"><a xlink:title=" ">
<path fill="none" stroke="#63b8ff" d="M1027.07,-109.84C1064.32,-90.96 1153.07,-45.96 1197.19,-23.59"/>
<polygon fill="#63b8ff" stroke="#63b8ff" points="1198.81,-26.69 1206.14,-19.05 1195.64,-20.45 1198.81,-26.69"/>
</a>
</g>
</g>
<!-- Node8&#45;&gt;Node3 -->
<g id="edge10_Node000008_Node000003" class="edge">
<title>Node8&#45;&gt;Node3</title>
<g id="a_edge10_Node000008_Node000003"><a xlink:title=" ">
<path fill="none" stroke="#63b8ff" d="M1201.43,-170.49C1162.03,-160.2 1095.61,-142.86 1052.29,-131.54"/>
<polygon fill="#63b8ff" stroke="#63b8ff" points="1053.17,-128.16 1042.61,-129.02 1051.4,-134.93 1053.17,-128.16"/>
</a>
</g>
</g>
<!-- Node9 -->
<g id="Node000009" class="node">
<title>Node9</title>
<g id="a_Node000009"><a xlink:title=" ">
<polygon fill="#e0e0e0" stroke="#999999" points="1137.5,-129 1102.5,-129 1102.5,-110 1137.5,-110 1137.5,-129"/>
<text text-anchor="middle" x="1120" y="-117" font-family="Helvetica,sans-Serif" font-size="10.00">map</text>
</a>
</g>
</g>
<!-- Node8&#45;&gt;Node9 -->
<g id="edge9_Node000008_Node000009" class="edge">
<title>Node8&#45;&gt;Node9</title>
<g id="a_edge9_Node000008_Node000009"><a xlink:title=" ">
<path fill="none" stroke="#63b8ff" d="M1217.18,-170.37C1198.4,-160.73 1167.8,-145.03 1145.95,-133.81"/>
<polygon fill="#63b8ff" stroke="#63b8ff" points="1147.39,-130.62 1136.89,-129.17 1144.19,-136.85 1147.39,-130.62"/>
</a>
</g>
</g>
<!-- Node10 -->
<g id="Node000010" class="node">
<title>Node10</title>
<g id="a_Node000010"><a xlink:title=" ">
<polygon fill="#e0e0e0" stroke="#999999" points="1222.5,-129 1155.5,-129 1155.5,-110 1222.5,-110 1222.5,-129"/>
<text text-anchor="middle" x="1189" y="-117" font-family="Helvetica,sans-Serif" font-size="10.00">IBK_Path.h</text>
</a>
</g>
</g>
<!-- Node8&#45;&gt;Node10 -->
<g id="edge11_Node000008_Node000010" class="edge">
<title>Node8&#45;&gt;Node10</title>
<g id="a_edge11_Node000008_Node000010"><a xlink:title=" ">
<path fill="none" stroke="#63b8ff" d="M1227.36,-170.37C1220.71,-161.73 1210.31,-148.2 1202.01,-137.42"/>
<polygon fill="#63b8ff" stroke="#63b8ff" points="1204.54,-134.96 1195.67,-129.17 1198.99,-139.23 1204.54,-134.96"/>
</a>
</g>
</g>
<!-- Node8&#45;&gt;Node11 -->
<g id="edge12_Node000008_Node000011" class="edge">
<title>Node8&#45;&gt;Node11</title>
<g id="a_edge12_Node000008_Node000011"><a xlink:title=" ">
<path fill="none" stroke="#63b8ff" d="M1241.82,-170.37C1249.81,-161.55 1262.39,-147.66 1272.26,-136.77"/>
<polygon fill="#63b8ff" stroke="#63b8ff" points="1275.03,-138.93 1279.15,-129.17 1269.84,-134.23 1275.03,-138.93"/>
</a>
</g>
</g>
<!-- Node8&#45;&gt;Node12 -->
<g id="edge13_Node000008_Node000012" class="edge">
<title>Node8&#45;&gt;Node12</title>
<g id="a_edge13_Node000008_Node000012"><a xlink:title=" ">
<path fill="none" stroke="#63b8ff" d="M1266.14,-170.49C1306.14,-159.9 1374.39,-141.84 1416.97,-130.57"/>
<polygon fill="#63b8ff" stroke="#63b8ff" points="1417.91,-133.94 1426.68,-128 1416.12,-127.17 1417.91,-133.94"/>
</a>
</g>
</g>
<!-- Node13&#45;&gt;Node3 -->
<g id="edge21_Node000013_Node000003" class="edge">
<title>Node13&#45;&gt;Node3</title>
<g id="a_edge21_Node000013_Node000003"><a xlink:title=" ">
<path fill="none" stroke="#63b8ff" d="M808.85,-236.44C845.69,-215.21 941.54,-159.96 986.31,-134.15"/>
<polygon fill="#63b8ff" stroke="#63b8ff" points="988.13,-137.14 995.05,-129.12 984.64,-131.08 988.13,-137.14"/>
</a>
</g>
</g>
<!-- Node13&#45;&gt;Node4 -->
<g id="edge15_Node000013_Node000004" class="edge">
<title>Node13&#45;&gt;Node4</title>
<g id="a_edge15_Node000013_Node000004"><a xlink:title=" ">
<path fill="none" stroke="#63b8ff" d="M719.44,-242.45C593.32,-237.37 348.98,-223.89 323,-195 297.74,-166.91 302.14,-141.5 323,-110 333.52,-94.12 350.95,-83.89 368.62,-77.31"/>
<polygon fill="#63b8ff" stroke="#63b8ff" points="370.06,-80.52 378.42,-74.02 367.83,-73.89 370.06,-80.52"/>
</a>
</g>
</g>
<!-- Node13&#45;&gt;Node5 -->
<g id="edge18_Node000013_Node000005" class="edge">
<title>Node13&#45;&gt;Node5</title>
<g id="a_edge18_Node000013_Node000005"><a xlink:title=" ">
<path fill="none" stroke="#63b8ff" d="M801.77,-236.22C821.24,-214.32 873.95,-155.77 921,-110 931.31,-99.97 943.33,-89.24 953.01,-80.83"/>
<polygon fill="#63b8ff" stroke="#63b8ff" points="955.51,-83.29 960.8,-74.11 950.94,-77.99 955.51,-83.29"/>
</a>
</g>
</g>
<!-- Node13&#45;&gt;Node6 -->
<g id="edge20_Node000013_Node000006" class="edge">
<title>Node13&#45;&gt;Node6</title>
<g id="a_edge20_Node000013_Node000006"><a xlink:title=" ">
<path fill="none" stroke="#63b8ff" d="M785.13,-236.29C763.06,-213.55 709.61,-151.29 741,-110 790.93,-44.31 1039.83,-21.11 1159.08,-13.67"/>
<polygon fill="#63b8ff" stroke="#63b8ff" points="1159.4,-17.16 1169.17,-13.06 1158.98,-10.17 1159.4,-17.16"/>
</a>
</g>
</g>
<!-- Node13&#45;&gt;Node7 -->
<g id="edge19_Node000013_Node000007" class="edge">
<title>Node13&#45;&gt;Node7</title>
<g id="a_edge19_Node000013_Node000007"><a xlink:title=" ">
<path fill="none" stroke="#63b8ff" d="M719.29,-245.48C548.98,-244.75 140.63,-232.06 62,-129 42.05,-102.85 48.25,-84.87 62,-55 67.75,-42.52 78.91,-32.24 89.42,-24.71"/>
<polygon fill="#63b8ff" stroke="#63b8ff" points="91.57,-27.49 97.97,-19.05 87.7,-21.65 91.57,-27.49"/>
</a>
</g>
</g>
<!-- Node13&#45;&gt;Node8 -->
<g id="edge22_Node000013_Node000008" class="edge">
<title>Node13&#45;&gt;Node8</title>
<g id="a_edge22_Node000013_Node000008"><a xlink:title=" ">
<path fill="none" stroke="#63b8ff" d="M852.88,-236.44C936.03,-224.34 1087.14,-202.36 1171.97,-190.02"/>
<polygon fill="#63b8ff" stroke="#63b8ff" points="1172.58,-193.47 1181.97,-188.57 1171.57,-186.54 1172.58,-193.47"/>
</a>
</g>
</g>
<!-- Node14 -->
<g id="Node000014" class="node">
<title>Node14</title>
<g id="a_Node000014"><a xlink:title=" ">
<polygon fill="#e0e0e0" stroke="#999999" points="841.5,-129 750.5,-129 750.5,-110 841.5,-110 841.5,-129"/>
<text text-anchor="middle" x="796" y="-117" font-family="Helvetica,sans-Serif" font-size="10.00">IBK_Parameter.h</text>
</a>
</g>
</g>
<!-- Node13&#45;&gt;Node14 -->
<g id="edge16_Node000013_Node000014" class="edge">
<title>Node13&#45;&gt;Node14</title>
<g id="a_edge16_Node000013_Node000014"><a xlink:title=" ">
<path fill="none" stroke="#63b8ff" d="M794.14,-236.44C794.46,-216.54 795.26,-166.76 795.7,-139.35"/>
<polygon fill="#63b8ff" stroke="#63b8ff" points="799.2,-139.17 795.86,-129.12 792.2,-139.06 799.2,-139.17"/>
</a>
</g>
</g>
<!-- Node15 -->
<g id="Node000015" class="node">
<title>Node15</title>
<g id="a_Node000015"><a xlink:title=" ">
<polygon fill="#e0e0e0" stroke="#999999" points="1761,-129 1683,-129 1683,-110 1761,-110 1761,-129"/>
<text text-anchor="middle" x="1722" y="-117" font-family="Helvetica,sans-Serif" font-size="10.00">IBK_IntPara.h</text>
</a>
</g>
</g>
<!-- Node13&#45;&gt;Node15 -->
<g id="edge17_Node000013_Node000015" class="edge">
<title>Node13&#45;&gt;Node15</title>
<g id="a_edge17_Node000013_Node000015"><a xlink:title=" ">
<path fill="none" stroke="#63b8ff" d="M868.8,-236.88C887.18,-234.92 906.8,-232.86 925,-231 1089.37,-214.22 1131.28,-217.19 1295,-195 1461.2,-172.48 1503.98,-159.09 1672.98,-129.18"/>
<polygon fill="#63b8ff" stroke="#63b8ff" points="1673.73,-132.6 1682.97,-127.42 1672.51,-125.71 1673.73,-132.6"/>
</a>
</g>
</g>
<!-- Node16 -->
<g id="Node000016" class="node">
<title>Node16</title>
<g id="a_Node000016"><a xlink:href="_v_i_c_u_s___schedule_8h.html" target="_top" xlink:title=" ">
<polygon fill="white" stroke="#666666" points="684,-189.5 582,-189.5 582,-170.5 684,-170.5 684,-189.5"/>
<text text-anchor="middle" x="633" y="-177.5" font-family="Helvetica,sans-Serif" font-size="10.00">VICUS_Schedule.h</text>
</a>
</g>
</g>
<!-- Node13&#45;&gt;Node16 -->
<g id="edge23_Node000013_Node000016" class="edge">
<title>Node13&#45;&gt;Node16</title>
<g id="a_edge23_Node000013_Node000016"><a xlink:title=" ">
<path fill="none" stroke="#63b8ff" d="M772.29,-236.37C744.48,-225.32 696.1,-206.08 664.32,-193.45"/>
<polygon fill="#63b8ff" stroke="#63b8ff" points="665.21,-190.04 654.63,-189.6 662.63,-196.54 665.21,-190.04"/>
</a>
</g>
</g>
<!-- Node24 -->
<g id="Node000024" class="node">
<title>Node24</title>
<g id="a_Node000024"><a xlink:title=" ">
<polygon fill="#e0e0e0" stroke="#999999" points="483.5,-195 332.5,-195 332.5,-165 483.5,-165 483.5,-195"/>
<text text-anchor="start" x="340.5" y="-183" font-family="Helvetica,sans-Serif" font-size="10.00">NANDRAD_HydraulicNetwork</text>
<text text-anchor="middle" x="408" y="-172" font-family="Helvetica,sans-Serif" font-size="10.00">Component.h</text>
</a>
</g>
</g>
<!-- Node13&#45;&gt;Node24 -->
<g id="edge40_Node000013_Node000024" class="edge">
<title>Node13&#45;&gt;Node24</title>
<g id="a_edge40_Node000013_Node000024"><a xlink:title=" ">
<path fill="none" stroke="#63b8ff" d="M742.34,-236.44C678.74,-225.89 569.81,-207.83 493.62,-195.2"/>
<polygon fill="#63b8ff" stroke="#63b8ff" points="494,-191.71 483.56,-193.53 492.85,-198.62 494,-191.71"/>
</a>
</g>
</g>
<!-- Node16&#45;&gt;Node3 -->
<g id="edge39_Node000016_Node000003" class="edge">
<title>Node16&#45;&gt;Node3</title>
<g id="a_edge39_Node000016_Node000003"><a xlink:title=" ">
<path fill="none" stroke="#63b8ff" d="M684.24,-171.05C751.92,-160.55 871.17,-142.04 945.09,-130.57"/>
<polygon fill="#63b8ff" stroke="#63b8ff" points="945.86,-133.99 955.21,-129 944.79,-127.08 945.86,-133.99"/>
</a>
</g>
</g>
<!-- Node16&#45;&gt;Node6 -->
<g id="edge29_Node000016_Node000006" class="edge">
<title>Node16&#45;&gt;Node6</title>
<g id="a_edge29_Node000016_Node000006"><a xlink:title=" ">
<path fill="none" stroke="#63b8ff" d="M638.54,-170.18C644.78,-160.21 655.2,-143.49 664,-129 683.86,-96.29 675.59,-75.33 708,-55 745.38,-31.55 1029.29,-17.87 1158.87,-12.78"/>
<polygon fill="#63b8ff" stroke="#63b8ff" points="1159.19,-16.27 1169.05,-12.39 1158.92,-9.28 1159.19,-16.27"/>
</a>
</g>
</g>
<!-- Node16&#45;&gt;Node7 -->
<g id="edge28_Node000016_Node000007" class="edge">
<title>Node16&#45;&gt;Node7</title>
<g id="a_edge28_Node000016_Node000007"><a xlink:title=" ">
<path fill="none" stroke="#63b8ff" d="M581.89,-171.9C564.2,-169.56 544.25,-167.03 526,-165 482.42,-160.15 165.04,-158.94 133,-129 105.82,-103.6 107.31,-55.97 110.7,-29.49"/>
<polygon fill="#63b8ff" stroke="#63b8ff" points="114.21,-29.67 112.25,-19.26 107.29,-28.63 114.21,-29.67"/>
</a>
</g>
</g>
<!-- Node16&#45;&gt;Node14 -->
<g id="edge26_Node000016_Node000014" class="edge">
<title>Node16&#45;&gt;Node14</title>
<g id="a_edge26_Node000016_Node000014"><a xlink:title=" ">
<path fill="none" stroke="#63b8ff" d="M656.7,-170.49C684.59,-160.49 731.07,-143.8 762.6,-132.49"/>
<polygon fill="#63b8ff" stroke="#63b8ff" points="764.04,-135.69 772.27,-129.02 761.68,-129.1 764.04,-135.69"/>
</a>
</g>
</g>
<!-- Node17 -->
<g id="Node000017" class="node">
<title>Node17</title>
<g id="a_Node000017"><a xlink:title=" ">
<polygon fill="#e0e0e0" stroke="#999999" points="572,-129 472,-129 472,-110 572,-110 572,-129"/>
<text text-anchor="middle" x="522" y="-117" font-family="Helvetica,sans-Serif" font-size="10.00">IBK_LinearSpline.h</text>
</a>
</g>
</g>
<!-- Node16&#45;&gt;Node17 -->
<g id="edge24_Node000016_Node000017" class="edge">
<title>Node16&#45;&gt;Node17</title>
<g id="a_edge24_Node000016_Node000017"><a xlink:title=" ">
<path fill="none" stroke="#63b8ff" d="M616.62,-170.37C598.42,-160.78 568.8,-145.17 547.55,-133.97"/>
<polygon fill="#63b8ff" stroke="#63b8ff" points="548.92,-130.73 538.45,-129.17 545.66,-136.93 548.92,-130.73"/>
</a>
</g>
</g>
<!-- Node18 -->
<g id="Node000018" class="node">
<title>Node18</title>
<g id="a_Node000018"><a xlink:title=" ">
<polygon fill="#e0e0e0" stroke="#999999" points="655.5,-129 590.5,-129 590.5,-110 655.5,-110 655.5,-129"/>
<text text-anchor="middle" x="623" y="-117" font-family="Helvetica,sans-Serif" font-size="10.00">IBK_Flag.h</text>
</a>
</g>
</g>
<!-- Node16&#45;&gt;Node18 -->
<g id="edge25_Node000016_Node000018" class="edge">
<title>Node16&#45;&gt;Node18</title>
<g id="a_edge25_Node000016_Node000018"><a xlink:title=" ">
<path fill="none" stroke="#63b8ff" d="M631.52,-170.37C630.12,-162.16 627.96,-149.54 626.17,-139.05"/>
<polygon fill="#63b8ff" stroke="#63b8ff" points="629.62,-138.43 624.48,-129.17 622.72,-139.61 629.62,-138.43"/>
</a>
</g>
</g>
<!-- Node19 -->
<g id="Node000019" class="node">
<title>Node19</title>
<g id="a_Node000019"><a xlink:title=" ">
<polygon fill="#e0e0e0" stroke="#999999" points="454,-129 332,-129 332,-110 454,-110 454,-129"/>
<text text-anchor="middle" x="393" y="-117" font-family="Helvetica,sans-Serif" font-size="10.00">NANDRAD_Schedule.h</text>
</a>
</g>
</g>
<!-- Node16&#45;&gt;Node19 -->
<g id="edge27_Node000016_Node000019" class="edge">
<title>Node16&#45;&gt;Node19</title>
<g id="a_edge27_Node000016_Node000019"><a xlink:title=" ">
<path fill="none" stroke="#63b8ff" d="M598.1,-170.49C555.71,-160.16 484.13,-142.71 437.73,-131.4"/>
<polygon fill="#63b8ff" stroke="#63b8ff" points="438.48,-127.98 427.94,-129.02 436.83,-134.79 438.48,-127.98"/>
</a>
</g>
</g>
<!-- Node20 -->
<g id="Node000020" class="node">
<title>Node20</title>
<g id="a_Node000020"><a xlink:href="_v_i_c_u_s___schedule_interval_8h.html" target="_top" xlink:title=" ">
<polygon fill="white" stroke="#666666" points="276,-129 142,-129 142,-110 276,-110 276,-129"/>
<text text-anchor="middle" x="209" y="-117" font-family="Helvetica,sans-Serif" font-size="10.00">VICUS_ScheduleInterval.h</text>
</a>
</g>
</g>
<!-- Node16&#45;&gt;Node20 -->
<g id="edge30_Node000016_Node000020" class="edge">
<title>Node16&#45;&gt;Node20</title>
<g id="a_edge30_Node000016_Node000020"><a xlink:title=" ">
<path fill="none" stroke="#63b8ff" d="M581.86,-171.94C506.72,-161.58 366.19,-142.19 280.76,-130.4"/>
<polygon fill="#63b8ff" stroke="#63b8ff" points="281,-126.9 270.62,-129 280.05,-133.84 281,-126.9"/>
</a>
</g>
</g>
<!-- Node20&#45;&gt;Node4 -->
<g id="edge31_Node000020_Node000004" class="edge">
<title>Node20&#45;&gt;Node4</title>
<g id="a_edge31_Node000020_Node000004"><a xlink:title=" ">
<path fill="none" stroke="#63b8ff" d="M244.19,-109.98C281.83,-100.87 341.66,-86.4 382.77,-76.45"/>
<polygon fill="#63b8ff" stroke="#63b8ff" points="383.64,-79.84 392.54,-74.08 382,-73.03 383.64,-79.84"/>
</a>
</g>
</g>
<!-- Node20&#45;&gt;Node7 -->
<g id="edge32_Node000020_Node000007" class="edge">
<title>Node20&#45;&gt;Node7</title>
<g id="a_edge32_Node000020_Node000007"><a xlink:title=" ">
<path fill="none" stroke="#63b8ff" d="M201.23,-109.66C185.28,-91.54 148.67,-49.91 128.31,-26.77"/>
<polygon fill="#63b8ff" stroke="#63b8ff" points="130.85,-24.36 121.62,-19.16 125.59,-28.98 130.85,-24.36"/>
</a>
</g>
</g>
<!-- Node21 -->
<g id="Node000021" class="node">
<title>Node21</title>
<g id="a_Node000021"><a xlink:title=" ">
<polygon fill="#e0e0e0" stroke="#999999" points="277,-19 233,-19 233,0 277,0 277,-19"/>
<text text-anchor="middle" x="255" y="-7" font-family="Helvetica,sans-Serif" font-size="10.00">vector</text>
</a>
</g>
</g>
<!-- Node20&#45;&gt;Node21 -->
<g id="edge33_Node000020_Node000021" class="edge">
<title>Node20&#45;&gt;Node21</title>
<g id="a_edge33_Node000020_Node000021"><a xlink:title=" ">
<path fill="none" stroke="#63b8ff" d="M209.78,-109.94C211.16,-97.41 214.71,-73.55 223,-55 227.5,-44.92 234.5,-34.83 240.8,-26.82"/>
<polygon fill="#63b8ff" stroke="#63b8ff" points="243.56,-28.98 247.22,-19.04 238.16,-24.53 243.56,-28.98"/>
</a>
</g>
</g>
<!-- Node22 -->
<g id="Node000022" class="node">
<title>Node22</title>
<g id="a_Node000022"><a xlink:href="_v_i_c_u_s___daily_cycle_8h.html" target="_top" xlink:title=" ">
<polygon fill="white" stroke="#666666" points="342,-74 232,-74 232,-55 342,-55 342,-74"/>
<text text-anchor="middle" x="287" y="-62" font-family="Helvetica,sans-Serif" font-size="10.00">VICUS_DailyCycle.h</text>
</a>
</g>
</g>
<!-- Node20&#45;&gt;Node22 -->
<g id="edge34_Node000020_Node000022" class="edge">
<title>Node20&#45;&gt;Node22</title>
<g id="a_edge34_Node000020_Node000022"><a xlink:title=" ">
<path fill="none" stroke="#63b8ff" d="M221.53,-109.98C233.4,-101.92 251.46,-89.65 265.61,-80.03"/>
<polygon fill="#63b8ff" stroke="#63b8ff" points="267.94,-82.69 274.24,-74.17 264,-76.9 267.94,-82.69"/>
</a>
</g>
</g>
<!-- Node22&#45;&gt;Node6 -->
<g id="edge36_Node000022_Node000006" class="edge">
<title>Node22&#45;&gt;Node6</title>
<g id="a_edge36_Node000022_Node000006"><a xlink:title=" ">
<path fill="none" stroke="#63b8ff" d="M342.13,-55.89C345.13,-55.57 348.1,-55.27 351,-55 652.83,-27.3 1015.13,-15.72 1159.31,-11.98"/>
<polygon fill="#63b8ff" stroke="#63b8ff" points="1159.4,-15.48 1169.31,-11.73 1159.22,-8.48 1159.4,-15.48"/>
</a>
</g>
</g>
<!-- Node22&#45;&gt;Node7 -->
<g id="edge35_Node000022_Node000007" class="edge">
<title>Node22&#45;&gt;Node7</title>
<g id="a_edge35_Node000022_Node000007"><a xlink:title=" ">
<path fill="none" stroke="#63b8ff" d="M259.2,-54.98C230.03,-46.05 184,-31.94 151.6,-22.02"/>
<polygon fill="#63b8ff" stroke="#63b8ff" points="152.6,-18.66 142.01,-19.08 150.55,-25.36 152.6,-18.66"/>
</a>
</g>
</g>
<!-- Node22&#45;&gt;Node21 -->
<g id="edge37_Node000022_Node000021" class="edge">
<title>Node22&#45;&gt;Node21</title>
<g id="a_edge37_Node000022_Node000021"><a xlink:title=" ">
<path fill="none" stroke="#63b8ff" d="M281.72,-54.75C277.29,-47.42 270.84,-36.73 265.38,-27.7"/>
<polygon fill="#63b8ff" stroke="#63b8ff" points="268.35,-25.84 260.19,-19.09 262.36,-29.46 268.35,-25.84"/>
</a>
</g>
</g>
<!-- Node23 -->
<g id="Node000023" class="node">
<title>Node23</title>
<g id="a_Node000023"><a xlink:title=" ">
<polygon fill="#e0e0e0" stroke="#999999" points="1732.5,-19 1691.5,-19 1691.5,0 1732.5,0 1732.5,-19"/>
<text text-anchor="middle" x="1712" y="-7" font-family="Helvetica,sans-Serif" font-size="10.00">string</text>
</a>
</g>
</g>
<!-- Node22&#45;&gt;Node23 -->
<g id="edge38_Node000022_Node000023" class="edge">
<title>Node22&#45;&gt;Node23</title>
<g id="a_edge38_Node000022_Node000023"><a xlink:title=" ">
<path fill="none" stroke="#63b8ff" d="M342.12,-55.83C345.12,-55.52 348.1,-55.24 351,-55 621.88,-32.64 1504.13,-14.55 1680.97,-11.09"/>
<polygon fill="#63b8ff" stroke="#63b8ff" points="1681.21,-14.59 1691.14,-10.9 1681.07,-7.59 1681.21,-14.59"/>
</a>
</g>
</g>
<!-- Node25&#45;&gt;Node3 -->
<g id="edge42_Node000025_Node000003" class="edge">
<title>Node25&#45;&gt;Node3</title>
<g id="a_edge42_Node000025_Node000003"><a xlink:title=" ">
<path fill="none" stroke="#63b8ff" d="M994.67,-236.5C985.36,-227.31 971.64,-211.74 966,-195 961.74,-182.36 960.93,-177.33 966,-165 970.81,-153.31 980.33,-143.05 989.3,-135.34"/>
<polygon fill="#63b8ff" stroke="#63b8ff" points="991.6,-137.98 997.22,-129 987.23,-132.51 991.6,-137.98"/>
</a>
</g>
</g>
<!-- Node25&#45;&gt;Node5 -->
<g id="edge48_Node000025_Node000005" class="edge">
<title>Node25&#45;&gt;Node5</title>
<g id="a_edge48_Node000025_Node000005"><a xlink:title=" ">
<path fill="none" stroke="#63b8ff" d="M994.63,-236.49C984.63,-227.06 968.79,-211.06 958,-195 939.93,-168.1 934.06,-160.63 927,-129 925.16,-120.76 923.79,-117.81 927,-110 931.81,-98.31 941.33,-88.05 950.3,-80.34"/>
<polygon fill="#63b8ff" stroke="#63b8ff" points="952.6,-82.98 958.22,-74 948.23,-77.51 952.6,-82.98"/>
</a>
</g>
</g>
<!-- Node25&#45;&gt;Node6 -->
<g id="edge44_Node000025_Node000006" class="edge">
<title>Node25&#45;&gt;Node6</title>
<g id="a_edge44_Node000025_Node000006"><a xlink:title=" ">
<path fill="none" stroke="#63b8ff" d="M1074.26,-239.1C1148.32,-231.81 1259.14,-217.54 1295,-195 1331.55,-172.03 1360.28,-149.11 1342,-110 1323.15,-69.67 1279.02,-39.93 1250.12,-23.93"/>
<polygon fill="#63b8ff" stroke="#63b8ff" points="1251.43,-20.66 1240.97,-19.03 1248.13,-26.83 1251.43,-20.66"/>
</a>
</g>
</g>
<!-- Node25&#45;&gt;Node7 -->
<g id="edge43_Node000025_Node000007" class="edge">
<title>Node25&#45;&gt;Node7</title>
<g id="a_edge43_Node000025_Node000007"><a xlink:title=" ">
<path fill="none" stroke="#63b8ff" d="M933.62,-237.05C813.67,-223.48 581.68,-197.08 573,-195 535.67,-186.06 529.42,-173.57 492,-165 410.18,-146.27 178.3,-185.25 116,-129 88.35,-104.03 98.81,-55.11 107.3,-28.6"/>
<polygon fill="#63b8ff" stroke="#63b8ff" points="110.65,-29.64 110.6,-19.04 104.03,-27.36 110.65,-29.64"/>
</a>
</g>
</g>
<!-- Node25&#45;&gt;Node8 -->
<g id="edge45_Node000025_Node000008" class="edge">
<title>Node25&#45;&gt;Node8</title>
<g id="a_edge45_Node000025_Node000008"><a xlink:title=" ">
<path fill="none" stroke="#63b8ff" d="M1035.02,-236.37C1075.94,-224.98 1148.07,-204.91 1193.32,-192.32"/>
<polygon fill="#63b8ff" stroke="#63b8ff" points="1194.41,-195.65 1203.11,-189.6 1192.53,-188.91 1194.41,-195.65"/>
</a>
</g>
</g>
<!-- Node25&#45;&gt;Node16 -->
<g id="edge46_Node000025_Node000016" class="edge">
<title>Node25&#45;&gt;Node16</title>
<g id="a_edge46_Node000025_Node000016"><a xlink:title=" ">
<path fill="none" stroke="#63b8ff" d="M954.35,-236.44C886.46,-224.72 764.83,-203.74 692.26,-191.22"/>
<polygon fill="#63b8ff" stroke="#63b8ff" points="692.81,-187.77 682.36,-189.51 691.62,-194.66 692.81,-187.77"/>
</a>
</g>
</g>
<!-- Node26 -->
<g id="Node000026" class="node">
<title>Node26</title>
<g id="a_Node000026"><a xlink:title=" ">
<polygon fill="#e0e0e0" stroke="#999999" points="1125.5,-195 974.5,-195 974.5,-165 1125.5,-165 1125.5,-195"/>
<text text-anchor="start" x="982.5" y="-183" font-family="Helvetica,sans-Serif" font-size="10.00">NANDRAD_HydraulicNetwork</text>
<text text-anchor="middle" x="1050" y="-172" font-family="Helvetica,sans-Serif" font-size="10.00">ControlElement.h</text>
</a>
</g>
</g>
<!-- Node25&#45;&gt;Node26 -->
<g id="edge47_Node000025_Node000026" class="edge">
<title>Node25&#45;&gt;Node26</title>
<g id="a_edge47_Node000025_Node000026"><a xlink:title=" ">
<path fill="none" stroke="#63b8ff" d="M1010.2,-236.37C1016.22,-227.99 1025.62,-214.93 1033.77,-203.59"/>
<polygon fill="#63b8ff" stroke="#63b8ff" points="1036.68,-205.52 1039.68,-195.36 1031,-201.44 1036.68,-205.52"/>
</a>
</g>
</g>
<!-- Node27&#45;&gt;Node6 -->
<g id="edge52_Node000027_Node000006" class="edge">
<title>Node27&#45;&gt;Node6</title>
<g id="a_edge52_Node000027_Node000006"><a xlink:title=" ">
<path fill="none" stroke="#63b8ff" d="M1603.2,-170.2C1595.26,-146.83 1570.2,-83.1 1525,-55 1486.29,-30.93 1363.23,-19.12 1286.67,-13.95"/>
<polygon fill="#63b8ff" stroke="#63b8ff" points="1286.86,-10.46 1276.65,-13.3 1286.4,-17.44 1286.86,-10.46"/>
</a>
</g>
</g>
<!-- Node27&#45;&gt;Node7 -->
<g id="edge53_Node000027_Node000007" class="edge">
<title>Node27&#45;&gt;Node7</title>
<g id="a_edge53_Node000027_Node000007"><a xlink:title=" ">
<path fill="none" stroke="#63b8ff" d="M1595.47,-170.43C1576.25,-155.32 1533.61,-124.17 1492,-110 1224.58,-18.92 505.97,-36.4 224,-19 213.64,-18.36 202.74,-17.61 191.99,-16.83"/>
<polygon fill="#63b8ff" stroke="#63b8ff" points="191.98,-13.32 181.75,-16.07 191.46,-20.3 191.98,-13.32"/>
</a>
</g>
</g>
<!-- Node27&#45;&gt;Node15 -->
<g id="edge51_Node000027_Node000015" class="edge">
<title>Node27&#45;&gt;Node15</title>
<g id="a_edge51_Node000027_Node000015"><a xlink:title=" ">
<path fill="none" stroke="#63b8ff" d="M1623.12,-170.37C1642.22,-160.73 1673.37,-145.03 1695.6,-133.81"/>
<polygon fill="#63b8ff" stroke="#63b8ff" points="1697.46,-136.8 1704.81,-129.17 1694.31,-130.55 1697.46,-136.8"/>
</a>
</g>
</g>
<!-- Node28 -->
<g id="Node000028" class="node">
<title>Node28</title>
<g id="a_Node000028"><a xlink:title=" ">
<polygon fill="#e0e0e0" stroke="#999999" points="1665,-129 1615,-129 1615,-110 1665,-110 1665,-129"/>
<text text-anchor="middle" x="1640" y="-117" font-family="Helvetica,sans-Serif" font-size="10.00">QString</text>
</a>
</g>
</g>
<!-- Node27&#45;&gt;Node28 -->
<g id="edge50_Node000027_Node000028" class="edge">
<title>Node27&#45;&gt;Node28</title>
<g id="a_edge50_Node000027_Node000028"><a xlink:title=" ">
<path fill="none" stroke="#63b8ff" d="M1611.02,-170.37C1615.94,-161.9 1623.59,-148.74 1629.79,-138.07"/>
<polygon fill="#63b8ff" stroke="#63b8ff" points="1632.96,-139.57 1634.96,-129.17 1626.91,-136.05 1632.96,-139.57"/>
</a>
</g>
</g>
<!-- Node30&#45;&gt;Node14 -->
<g id="edge59_Node000030_Node000014" class="edge">
<title>Node30&#45;&gt;Node14</title>
<g id="a_edge59_Node000030_Node000014"><a xlink:title=" ">
<path fill="none" stroke="#63b8ff" d="M1784.92,-173.4C1754.32,-170.59 1716.15,-167.3 1682,-165 1346.82,-142.44 1262.41,-147.88 927,-129 902.32,-127.61 875.04,-125.87 851.8,-124.33"/>
<polygon fill="#63b8ff" stroke="#63b8ff" points="851.97,-120.84 841.76,-123.66 851.51,-127.82 851.97,-120.84"/>
</a>
</g>
</g>
<!-- Node30&#45;&gt;Node15 -->
<g id="edge60_Node000030_Node000015" class="edge">
<title>Node30&#45;&gt;Node15</title>
<g id="a_edge60_Node000030_Node000015"><a xlink:title=" ">
<path fill="none" stroke="#63b8ff" d="M1825.41,-170.49C1805.24,-160.75 1771.98,-144.66 1748.64,-133.38"/>
<polygon fill="#63b8ff" stroke="#63b8ff" points="1750.14,-130.22 1739.62,-129.02 1747.1,-136.52 1750.14,-130.22"/>
</a>
</g>
</g>
<!-- Node30&#45;&gt;Node23 -->
<g id="edge57_Node000030_Node000023" class="edge">
<title>Node30&#45;&gt;Node23</title>
<g id="a_edge57_Node000030_Node000023"><a xlink:title=" ">
<path fill="none" stroke="#63b8ff" d="M1853.31,-170.07C1867.19,-156.92 1888.93,-131.57 1878,-110 1851.24,-57.2 1782.7,-29.95 1742.56,-18.09"/>
<polygon fill="#63b8ff" stroke="#63b8ff" points="1743.34,-14.67 1732.76,-15.34 1741.44,-21.41 1743.34,-14.67"/>
</a>
</g>
</g>
<!-- Node31 -->
<g id="Node000031" class="node">
<title>Node31</title>
<g id="a_Node000031"><a xlink:title=" ">
<polygon fill="#e0e0e0" stroke="#999999" points="1868.5,-129 1817.5,-129 1817.5,-110 1868.5,-110 1868.5,-129"/>
<text text-anchor="middle" x="1843" y="-117" font-family="Helvetica,sans-Serif" font-size="10.00">typeinfo</text>
</a>
</g>
</g>
<!-- Node30&#45;&gt;Node31 -->
<g id="edge58_Node000030_Node000031" class="edge">
<title>Node30&#45;&gt;Node31</title>
<g id="a_edge58_Node000030_Node000031"><a xlink:title=" ">
<path fill="none" stroke="#63b8ff" d="M1843,-170.37C1843,-162.25 1843,-149.81 1843,-139.39"/>
<polygon fill="#63b8ff" stroke="#63b8ff" points="1846.5,-139.17 1843,-129.17 1839.5,-139.17 1846.5,-139.17"/>
</a>
</g>
</g>
</g>
</svg>
