<?xml version="1.0" encoding="UTF-8" standalone="no"?>
<!DOCTYPE svg PUBLIC "-//W3C//DTD SVG 1.1//EN"
 "http://www.w3.org/Graphics/SVG/1.1/DTD/svg11.dtd">
<!-- Generated by graphviz version 2.43.0 (0)
 -->
<!-- Title: /home/hirth/git/SIM&#45;VICUS.master2/externals/Vicus/src/ncg/ncg_VICUS_Room.cpp Pages: 1 -->
<svg width="1495pt" height="346pt"
 viewBox="0.00 0.00 1495.00 346.00" xmlns="http://www.w3.org/2000/svg" xmlns:xlink="http://www.w3.org/1999/xlink">
<g id="graph0" class="graph" transform="scale(1 1) rotate(0) translate(4 342)">
<title>/home/hirth/git/SIM&#45;VICUS.master2/externals/Vicus/src/ncg/ncg_VICUS_Room.cpp</title>
<!-- Node1 -->
<g id="Node000001" class="node">
<title>Node1</title>
<g id="a_Node000001"><a xlink:title=" ">
<polygon fill="#999999" stroke="#666666" points="1138.5,-338 1003.5,-338 1003.5,-286 1138.5,-286 1138.5,-338"/>
<text text-anchor="start" x="1011.5" y="-326" font-family="Helvetica,sans-Serif" font-size="10.00">/home/hirth/git/SIM</text>
<text text-anchor="start" x="1011.5" y="-315" font-family="Helvetica,sans-Serif" font-size="10.00">&#45;VICUS.master2/externals</text>
<text text-anchor="start" x="1011.5" y="-304" font-family="Helvetica,sans-Serif" font-size="10.00">/Vicus/src/ncg/ncg_VICUS</text>
<text text-anchor="middle" x="1071" y="-293" font-family="Helvetica,sans-Serif" font-size="10.00">_Room.cpp</text>
</a>
</g>
</g>
<!-- Node2 -->
<g id="Node000002" class="node">
<title>Node2</title>
<g id="a_Node000002"><a xlink:href="_v_i_c_u_s___room_8h.html" target="_top" xlink:title=" ">
<polygon fill="white" stroke="#666666" points="772,-250 684,-250 684,-231 772,-231 772,-250"/>
<text text-anchor="middle" x="728" y="-238" font-family="Helvetica,sans-Serif" font-size="10.00">VICUS_Room.h</text>
</a>
</g>
</g>
<!-- Node1&#45;&gt;Node2 -->
<g id="edge1_Node000001_Node000002" class="edge">
<title>Node1&#45;&gt;Node2</title>
<g id="a_edge1_Node000001_Node000002"><a xlink:title=" ">
<path fill="none" stroke="#63b8ff" d="M1003.23,-297.27C937.72,-283.99 839.84,-264.16 780.18,-252.07"/>
<polygon fill="#63b8ff" stroke="#63b8ff" points="780.71,-248.61 770.22,-250.05 779.32,-255.47 780.71,-248.61"/>
</a>
</g>
</g>
<!-- Node4 -->
<g id="Node000004" class="node">
<title>Node4</title>
<g id="a_Node000004"><a xlink:href="_v_i_c_u_s___constants_8h.html" target="_top" xlink:title="Contains global constants for the SIM&#45;VICUS data model.">
<polygon fill="white" stroke="#666666" points="129.5,-19 22.5,-19 22.5,0 129.5,0 129.5,-19"/>
<text text-anchor="middle" x="76" y="-7" font-family="Helvetica,sans-Serif" font-size="10.00">VICUS_Constants.h</text>
</a>
</g>
</g>
<!-- Node1&#45;&gt;Node4 -->
<g id="edge51_Node000001_Node000004" class="edge">
<title>Node1&#45;&gt;Node4</title>
<g id="a_edge51_Node000001_Node000004"><a xlink:title=" ">
<path fill="none" stroke="#63b8ff" d="M1003.19,-310.27C767.76,-306.85 0,-287.93 0,-186.5 0,-186.5 0,-186.5 0,-129.5 0,-86.71 35.34,-46.94 57.82,-25.97"/>
<polygon fill="#63b8ff" stroke="#63b8ff" points="60.34,-28.42 65.43,-19.13 55.66,-23.21 60.34,-28.42"/>
</a>
</g>
</g>
<!-- Node24 -->
<g id="Node000024" class="node">
<title>Node24</title>
<g id="a_Node000024"><a xlink:href="_v_i_c_u_s___keyword_list_8h.html" target="_top" xlink:title="Contains the declaration of class KeywordList.">
<polygon fill="white" stroke="#666666" points="953,-250 837,-250 837,-231 953,-231 953,-250"/>
<text text-anchor="middle" x="895" y="-238" font-family="Helvetica,sans-Serif" font-size="10.00">VICUS_KeywordList.h</text>
</a>
</g>
</g>
<!-- Node1&#45;&gt;Node24 -->
<g id="edge43_Node000001_Node000024" class="edge">
<title>Node1&#45;&gt;Node24</title>
<g id="a_edge43_Node000001_Node000024"><a xlink:title=" ">
<path fill="none" stroke="#63b8ff" d="M1007.46,-285.91C979.84,-275 948.73,-262.72 926.25,-253.84"/>
<polygon fill="#63b8ff" stroke="#63b8ff" points="927.45,-250.55 916.87,-250.14 924.88,-257.06 927.45,-250.55"/>
</a>
</g>
</g>
<!-- Node28 -->
<g id="Node000028" class="node">
<title>Node28</title>
<g id="a_Node000028"><a xlink:title=" ">
<polygon fill="#e0e0e0" stroke="#999999" points="1063,-250 971,-250 971,-231 1063,-231 1063,-250"/>
<text text-anchor="middle" x="1017" y="-238" font-family="Helvetica,sans-Serif" font-size="10.00">IBK_messages.h</text>
</a>
</g>
</g>
<!-- Node1&#45;&gt;Node28 -->
<g id="edge48_Node000001_Node000028" class="edge">
<title>Node1&#45;&gt;Node28</title>
<g id="a_edge48_Node000001_Node000028"><a xlink:title=" ">
<path fill="none" stroke="#63b8ff" d="M1051.5,-285.91C1044.41,-276.77 1036.55,-266.67 1030.14,-258.41"/>
<polygon fill="#63b8ff" stroke="#63b8ff" points="1032.74,-256.05 1023.84,-250.3 1027.21,-260.35 1032.74,-256.05"/>
</a>
</g>
</g>
<!-- Node29 -->
<g id="Node000029" class="node">
<title>Node29</title>
<g id="a_Node000029"><a xlink:title=" ">
<polygon fill="#e0e0e0" stroke="#999999" points="1171,-250 1081,-250 1081,-231 1171,-231 1171,-250"/>
<text text-anchor="middle" x="1126" y="-238" font-family="Helvetica,sans-Serif" font-size="10.00">IBK_Exception.h</text>
</a>
</g>
</g>
<!-- Node1&#45;&gt;Node29 -->
<g id="edge49_Node000001_Node000029" class="edge">
<title>Node1&#45;&gt;Node29</title>
<g id="a_edge49_Node000001_Node000029"><a xlink:title=" ">
<path fill="none" stroke="#63b8ff" d="M1090.86,-285.91C1098.16,-276.67 1106.25,-266.45 1112.83,-258.14"/>
<polygon fill="#63b8ff" stroke="#63b8ff" points="1115.57,-260.32 1119.03,-250.3 1110.08,-255.97 1115.57,-260.32"/>
</a>
</g>
</g>
<!-- Node30 -->
<g id="Node000030" class="node">
<title>Node30</title>
<g id="a_Node000030"><a xlink:title=" ">
<polygon fill="#e0e0e0" stroke="#999999" points="1281,-250 1189,-250 1189,-231 1281,-231 1281,-250"/>
<text text-anchor="middle" x="1235" y="-238" font-family="Helvetica,sans-Serif" font-size="10.00">IBK_StringUtils.h</text>
</a>
</g>
</g>
<!-- Node1&#45;&gt;Node30 -->
<g id="edge50_Node000001_Node000030" class="edge">
<title>Node1&#45;&gt;Node30</title>
<g id="a_edge50_Node000001_Node000030"><a xlink:title=" ">
<path fill="none" stroke="#63b8ff" d="M1130.21,-285.91C1155.71,-275.1 1184.41,-262.94 1205.32,-254.08"/>
<polygon fill="#63b8ff" stroke="#63b8ff" points="1206.78,-257.26 1214.62,-250.14 1204.05,-250.81 1206.78,-257.26"/>
</a>
</g>
</g>
<!-- Node31 -->
<g id="Node000031" class="node">
<title>Node31</title>
<g id="a_Node000031"><a xlink:title=" ">
<polygon fill="#e0e0e0" stroke="#999999" points="1413,-250 1299,-250 1299,-231 1413,-231 1413,-250"/>
<text text-anchor="middle" x="1356" y="-238" font-family="Helvetica,sans-Serif" font-size="10.00">NANDRAD_Utilities.h</text>
</a>
</g>
</g>
<!-- Node1&#45;&gt;Node31 -->
<g id="edge52_Node000001_Node000031" class="edge">
<title>Node1&#45;&gt;Node31</title>
<g id="a_edge52_Node000001_Node000031"><a xlink:title=" ">
<path fill="none" stroke="#63b8ff" d="M1138.54,-294.53C1191.91,-281.52 1264.88,-263.72 1311.24,-252.42"/>
<polygon fill="#63b8ff" stroke="#63b8ff" points="1312.1,-255.81 1320.99,-250.04 1310.45,-249.01 1312.1,-255.81"/>
</a>
</g>
</g>
<!-- Node32 -->
<g id="Node000032" class="node">
<title>Node32</title>
<g id="a_Node000032"><a xlink:title=" ">
<polygon fill="#e0e0e0" stroke="#999999" points="1487,-250 1431,-250 1431,-231 1487,-231 1487,-250"/>
<text text-anchor="middle" x="1459" y="-238" font-family="Helvetica,sans-Serif" font-size="10.00">tinyxml.h</text>
</a>
</g>
</g>
<!-- Node1&#45;&gt;Node32 -->
<g id="edge53_Node000001_Node000032" class="edge">
<title>Node1&#45;&gt;Node32</title>
<g id="a_edge53_Node000001_Node000032"><a xlink:title=" ">
<path fill="none" stroke="#63b8ff" d="M1138.82,-300.32C1207.45,-289.27 1316.83,-270.96 1420.72,-250.17"/>
<polygon fill="#63b8ff" stroke="#63b8ff" points="1421.64,-253.56 1430.75,-248.15 1420.26,-246.7 1421.64,-253.56"/>
</a>
</g>
</g>
<!-- Node3 -->
<g id="Node000003" class="node">
<title>Node3</title>
<g id="a_Node000003"><a xlink:href="_v_i_c_u_s___code_gen_macros_8h.html" target="_top" xlink:title=" ">
<polygon fill="white" stroke="#666666" points="1034.5,-19 899.5,-19 899.5,0 1034.5,0 1034.5,-19"/>
<text text-anchor="middle" x="967" y="-7" font-family="Helvetica,sans-Serif" font-size="10.00">VICUS_CodeGenMacros.h</text>
</a>
</g>
</g>
<!-- Node2&#45;&gt;Node3 -->
<g id="edge2_Node000002_Node000003" class="edge">
<title>Node2&#45;&gt;Node3</title>
<g id="a_edge2_Node000002_Node000003"><a xlink:title=" ">
<path fill="none" stroke="#63b8ff" d="M736.41,-230.88C750.59,-216.9 780.78,-189.48 812,-176 899.74,-138.1 962.34,-213.02 1024,-140 1053.44,-105.13 1010.13,-52.67 984.16,-26.51"/>
<polygon fill="#63b8ff" stroke="#63b8ff" points="986.36,-23.77 976.75,-19.29 981.47,-28.78 986.36,-23.77"/>
</a>
</g>
</g>
<!-- Node2&#45;&gt;Node4 -->
<g id="edge3_Node000002_Node000004" class="edge">
<title>Node2&#45;&gt;Node4</title>
<g id="a_edge3_Node000002_Node000004"><a xlink:title=" ">
<path fill="none" stroke="#63b8ff" d="M683.95,-239.56C588.15,-238.01 355.82,-225 186,-140 149.36,-121.66 138.11,-116.58 112,-85 98.02,-68.09 87.9,-44.84 82.02,-28.83"/>
<polygon fill="#63b8ff" stroke="#63b8ff" points="85.22,-27.37 78.63,-19.07 78.61,-29.67 85.22,-27.37"/>
</a>
</g>
</g>
<!-- Node5 -->
<g id="Node000005" class="node">
<title>Node5</title>
<g id="a_Node000005"><a xlink:href="_v_i_c_u_s___surface_8h.html" target="_top" xlink:title=" ">
<polygon fill="white" stroke="#666666" points="662.5,-195 567.5,-195 567.5,-176 662.5,-176 662.5,-195"/>
<text text-anchor="middle" x="615" y="-183" font-family="Helvetica,sans-Serif" font-size="10.00">VICUS_Surface.h</text>
</a>
</g>
</g>
<!-- Node2&#45;&gt;Node5 -->
<g id="edge4_Node000002_Node000005" class="edge">
<title>Node2&#45;&gt;Node5</title>
<g id="a_edge4_Node000002_Node000005"><a xlink:title=" ">
<path fill="none" stroke="#63b8ff" d="M709.84,-230.98C691.75,-222.5 663.72,-209.35 642.81,-199.54"/>
<polygon fill="#63b8ff" stroke="#63b8ff" points="644.03,-196.25 633.49,-195.17 641.05,-202.59 644.03,-196.25"/>
</a>
</g>
</g>
<!-- Node8 -->
<g id="Node000008" class="node">
<title>Node8</title>
<g id="a_Node000008"><a xlink:href="_v_i_c_u_s___object_8h.html" target="_top" xlink:title=" ">
<polygon fill="white" stroke="#666666" points="773,-79.5 683,-79.5 683,-60.5 773,-60.5 773,-79.5"/>
<text text-anchor="middle" x="728" y="-67.5" font-family="Helvetica,sans-Serif" font-size="10.00">VICUS_Object.h</text>
</a>
</g>
</g>
<!-- Node2&#45;&gt;Node8 -->
<g id="edge40_Node000002_Node000008" class="edge">
<title>Node2&#45;&gt;Node8</title>
<g id="a_edge40_Node000002_Node000008"><a xlink:title=" ">
<path fill="none" stroke="#63b8ff" d="M728,-230.91C728,-204.89 728,-126.47 728,-90.01"/>
<polygon fill="#63b8ff" stroke="#63b8ff" points="731.5,-89.77 728,-79.77 724.5,-89.77 731.5,-89.77"/>
</a>
</g>
</g>
<!-- Node11 -->
<g id="Node000011" class="node">
<title>Node11</title>
<g id="a_Node000011"><a xlink:title=" ">
<polygon fill="#e0e0e0" stroke="#999999" points="337,-19 287,-19 287,0 337,0 337,-19"/>
<text text-anchor="middle" x="312" y="-7" font-family="Helvetica,sans-Serif" font-size="10.00">QString</text>
</a>
</g>
</g>
<!-- Node2&#45;&gt;Node11 -->
<g id="edge41_Node000002_Node000011" class="edge">
<title>Node2&#45;&gt;Node11</title>
<g id="a_edge41_Node000002_Node000011"><a xlink:title=" ">
<path fill="none" stroke="#63b8ff" d="M683.93,-234.27C563.26,-218.92 232.4,-169.71 171,-85 141.28,-44 226,-23.56 276.81,-15.23"/>
<polygon fill="#63b8ff" stroke="#63b8ff" points="277.43,-18.67 286.77,-13.67 276.36,-11.75 277.43,-18.67"/>
</a>
</g>
</g>
<!-- Node23 -->
<g id="Node000023" class="node">
<title>Node23</title>
<g id="a_Node000023"><a xlink:title=" ">
<polygon fill="#e0e0e0" stroke="#999999" points="912.5,-195 821.5,-195 821.5,-176 912.5,-176 912.5,-195"/>
<text text-anchor="middle" x="867" y="-183" font-family="Helvetica,sans-Serif" font-size="10.00">IBK_Parameter.h</text>
</a>
</g>
</g>
<!-- Node2&#45;&gt;Node23 -->
<g id="edge42_Node000002_Node000023" class="edge">
<title>Node2&#45;&gt;Node23</title>
<g id="a_edge42_Node000002_Node000023"><a xlink:title=" ">
<path fill="none" stroke="#63b8ff" d="M750.33,-230.98C773.2,-222.27 808.96,-208.63 834.86,-198.75"/>
<polygon fill="#63b8ff" stroke="#63b8ff" points="836.16,-202 844.26,-195.17 833.67,-195.46 836.16,-202"/>
</a>
</g>
</g>
<!-- Node5&#45;&gt;Node3 -->
<g id="edge5_Node000005_Node000003" class="edge">
<title>Node5&#45;&gt;Node3</title>
<g id="a_edge5_Node000005_Node000003"><a xlink:title=" ">
<path fill="none" stroke="#63b8ff" d="M659.14,-175.96C737.85,-159.94 898.06,-123.49 939,-85 954.54,-70.39 961.52,-46.31 964.61,-29.49"/>
<polygon fill="#63b8ff" stroke="#63b8ff" points="968.13,-29.63 966.19,-19.22 961.21,-28.57 968.13,-29.63"/>
</a>
</g>
</g>
<!-- Node5&#45;&gt;Node4 -->
<g id="edge6_Node000005_Node000004" class="edge">
<title>Node5&#45;&gt;Node4</title>
<g id="a_edge6_Node000005_Node000004"><a xlink:title=" ">
<path fill="none" stroke="#63b8ff" d="M567.5,-182.66C477.03,-178.58 283.65,-166.91 223,-140 164.12,-113.87 111.9,-55.52 88.71,-26.93"/>
<polygon fill="#63b8ff" stroke="#63b8ff" points="91.44,-24.73 82.47,-19.08 85.96,-29.08 91.44,-24.73"/>
</a>
</g>
</g>
<!-- Node6 -->
<g id="Node000006" class="node">
<title>Node6</title>
<g id="a_Node000006"><a xlink:href="_v_i_c_u_s___plane_geometry_8h.html" target="_top" xlink:title=" ">
<polygon fill="white" stroke="#666666" points="1015,-140 887,-140 887,-121 1015,-121 1015,-140"/>
<text text-anchor="middle" x="951" y="-128" font-family="Helvetica,sans-Serif" font-size="10.00">VICUS_PlaneGeometry.h</text>
</a>
</g>
</g>
<!-- Node5&#45;&gt;Node6 -->
<g id="edge7_Node000005_Node000006" class="edge">
<title>Node5&#45;&gt;Node6</title>
<g id="a_edge7_Node000005_Node000006"><a xlink:title=" ">
<path fill="none" stroke="#63b8ff" d="M662.78,-176.96C721.51,-167.7 821.41,-151.94 886.8,-141.63"/>
<polygon fill="#63b8ff" stroke="#63b8ff" points="887.65,-145.04 896.99,-140.02 886.56,-138.12 887.65,-145.04"/>
</a>
</g>
</g>
<!-- Node5&#45;&gt;Node8 -->
<g id="edge24_Node000005_Node000008" class="edge">
<title>Node5&#45;&gt;Node8</title>
<g id="a_edge24_Node000005_Node000008"><a xlink:title=" ">
<path fill="none" stroke="#63b8ff" d="M623.49,-175.97C642.31,-157.07 687.75,-111.43 712.05,-87.02"/>
<polygon fill="#63b8ff" stroke="#63b8ff" points="714.83,-89.19 719.41,-79.63 709.87,-84.25 714.83,-89.19"/>
</a>
</g>
</g>
<!-- Node5&#45;&gt;Node11 -->
<g id="edge38_Node000005_Node000011" class="edge">
<title>Node5&#45;&gt;Node11</title>
<g id="a_edge38_Node000005_Node000011"><a xlink:title=" ">
<path fill="none" stroke="#63b8ff" d="M567.21,-181.48C462.28,-173.71 217.36,-148.96 171,-85 141.28,-44 226,-23.56 276.81,-15.23"/>
<polygon fill="#63b8ff" stroke="#63b8ff" points="277.43,-18.67 286.77,-13.67 276.36,-11.75 277.43,-18.67"/>
</a>
</g>
</g>
<!-- Node12 -->
<g id="Node000012" class="node">
<title>Node12</title>
<g id="a_Node000012"><a xlink:href="_v_i_c_u_s___polygon3_d_8h.html" target="_top" xlink:title=" ">
<polygon fill="white" stroke="#666666" points="1371,-79.5 1261,-79.5 1261,-60.5 1371,-60.5 1371,-79.5"/>
<text text-anchor="middle" x="1316" y="-67.5" font-family="Helvetica,sans-Serif" font-size="10.00">VICUS_Polygon3D.h</text>
</a>
</g>
</g>
<!-- Node5&#45;&gt;Node12 -->
<g id="edge35_Node000005_Node000012" class="edge">
<title>Node5&#45;&gt;Node12</title>
<g id="a_edge35_Node000005_Node000012"><a xlink:title=" ">
<path fill="none" stroke="#63b8ff" d="M662.81,-181.23C739.43,-175.55 894.3,-162.29 1024,-140 1114.86,-124.38 1219.65,-97.38 1275.69,-82.2"/>
<polygon fill="#63b8ff" stroke="#63b8ff" points="1276.84,-85.51 1285.57,-79.51 1275,-78.76 1276.84,-85.51"/>
</a>
</g>
</g>
<!-- Node18 -->
<g id="Node000018" class="node">
<title>Node18</title>
<g id="a_Node000018"><a xlink:href="_v_i_c_u_s___sub_surface_8h.html" target="_top" xlink:title=" ">
<polygon fill="white" stroke="#666666" points="578.5,-140 465.5,-140 465.5,-121 578.5,-121 578.5,-140"/>
<text text-anchor="middle" x="522" y="-128" font-family="Helvetica,sans-Serif" font-size="10.00">VICUS_SubSurface.h</text>
</a>
</g>
</g>
<!-- Node5&#45;&gt;Node18 -->
<g id="edge25_Node000005_Node000018" class="edge">
<title>Node5&#45;&gt;Node18</title>
<g id="a_edge25_Node000005_Node000018"><a xlink:title=" ">
<path fill="none" stroke="#63b8ff" d="M600.06,-175.98C585.5,-167.69 563.13,-154.94 546.07,-145.22"/>
<polygon fill="#63b8ff" stroke="#63b8ff" points="547.64,-142.08 537.21,-140.17 544.17,-148.16 547.64,-142.08"/>
</a>
</g>
</g>
<!-- Node19 -->
<g id="Node000019" class="node">
<title>Node19</title>
<g id="a_Node000019"><a xlink:title=" ">
<polygon fill="#e0e0e0" stroke="#999999" points="384.5,-79.5 245.5,-79.5 245.5,-60.5 384.5,-60.5 384.5,-79.5"/>
<text text-anchor="middle" x="315" y="-67.5" font-family="Helvetica,sans-Serif" font-size="10.00">NANDRAD_IDVectorMap.h</text>
</a>
</g>
</g>
<!-- Node5&#45;&gt;Node19 -->
<g id="edge37_Node000005_Node000019" class="edge">
<title>Node5&#45;&gt;Node19</title>
<g id="a_edge37_Node000005_Node000019"><a xlink:title=" ">
<path fill="none" stroke="#63b8ff" d="M577.11,-175.96C544.5,-168.12 496.45,-155.41 456,-140 413.63,-123.86 366.77,-99.55 339.16,-84.51"/>
<polygon fill="#63b8ff" stroke="#63b8ff" points="340.69,-81.36 330.24,-79.61 337.31,-87.49 340.69,-81.36"/>
</a>
</g>
</g>
<!-- Node20 -->
<g id="Node000020" class="node">
<title>Node20</title>
<g id="a_Node000020"><a xlink:title=" ">
<polygon fill="#e0e0e0" stroke="#999999" points="665,-79.5 565,-79.5 565,-60.5 665,-60.5 665,-79.5"/>
<text text-anchor="middle" x="615" y="-67.5" font-family="Helvetica,sans-Serif" font-size="10.00">IBK_LinearSpline.h</text>
</a>
</g>
</g>
<!-- Node5&#45;&gt;Node20 -->
<g id="edge36_Node000005_Node000020" class="edge">
<title>Node5&#45;&gt;Node20</title>
<g id="a_edge36_Node000005_Node000020"><a xlink:title=" ">
<path fill="none" stroke="#63b8ff" d="M615,-175.97C615,-157.73 615,-114.57 615,-89.64"/>
<polygon fill="#63b8ff" stroke="#63b8ff" points="618.5,-89.63 615,-79.63 611.5,-89.63 618.5,-89.63"/>
</a>
</g>
</g>
<!-- Node22 -->
<g id="Node000022" class="node">
<title>Node22</title>
<g id="a_Node000022"><a xlink:title=" ">
<polygon fill="#e0e0e0" stroke="#999999" points="227.5,-79.5 180.5,-79.5 180.5,-60.5 227.5,-60.5 227.5,-79.5"/>
<text text-anchor="middle" x="204" y="-67.5" font-family="Helvetica,sans-Serif" font-size="10.00">QColor</text>
</a>
</g>
</g>
<!-- Node5&#45;&gt;Node22 -->
<g id="edge39_Node000005_Node000022" class="edge">
<title>Node5&#45;&gt;Node22</title>
<g id="a_edge39_Node000005_Node000022"><a xlink:title=" ">
<path fill="none" stroke="#63b8ff" d="M569.29,-175.92C527.35,-167.74 463.63,-154.55 409,-140 331.04,-119.24 311.51,-113.43 236,-85 234.79,-84.54 233.55,-84.07 232.31,-83.57"/>
<polygon fill="#63b8ff" stroke="#63b8ff" points="233.39,-80.23 222.82,-79.62 230.71,-86.7 233.39,-80.23"/>
</a>
</g>
</g>
<!-- Node6&#45;&gt;Node3 -->
<g id="edge9_Node000006_Node000003" class="edge">
<title>Node6&#45;&gt;Node3</title>
<g id="a_edge9_Node000006_Node000003"><a xlink:title=" ">
<path fill="none" stroke="#63b8ff" d="M959.21,-120.8C966.54,-112.38 976.75,-98.9 981,-85 986.75,-66.18 981.01,-43.94 975.24,-28.68"/>
<polygon fill="#63b8ff" stroke="#63b8ff" points="978.44,-27.27 971.38,-19.37 971.97,-29.95 978.44,-27.27"/>
</a>
</g>
</g>
<!-- Node7 -->
<g id="Node000007" class="node">
<title>Node7</title>
<g id="a_Node000007"><a xlink:title=" ">
<polygon fill="#e0e0e0" stroke="#999999" points="1290.5,-19 1187.5,-19 1187.5,0 1290.5,0 1290.5,-19"/>
<text text-anchor="middle" x="1239" y="-7" font-family="Helvetica,sans-Serif" font-size="10.00">IBKMK_Vector3D.h</text>
</a>
</g>
</g>
<!-- Node6&#45;&gt;Node7 -->
<g id="edge8_Node000006_Node000007" class="edge">
<title>Node6&#45;&gt;Node7</title>
<g id="a_edge8_Node000006_Node000007"><a xlink:title=" ">
<path fill="none" stroke="#63b8ff" d="M1015.14,-126.11C1083.18,-121.24 1184.83,-109.94 1214,-85 1230.25,-71.11 1235.97,-46.32 1237.97,-29.17"/>
<polygon fill="#63b8ff" stroke="#63b8ff" points="1241.46,-29.46 1238.81,-19.19 1234.48,-28.86 1241.46,-29.46"/>
</a>
</g>
</g>
<!-- Node6&#45;&gt;Node8 -->
<g id="edge10_Node000006_Node000008" class="edge">
<title>Node6&#45;&gt;Node8</title>
<g id="a_edge10_Node000006_Node000008"><a xlink:title=" ">
<path fill="none" stroke="#63b8ff" d="M918.57,-120.99C879.43,-110.73 813.51,-93.43 770.37,-82.12"/>
<polygon fill="#63b8ff" stroke="#63b8ff" points="771.03,-78.67 760.47,-79.52 769.25,-85.44 771.03,-78.67"/>
</a>
</g>
</g>
<!-- Node6&#45;&gt;Node12 -->
<g id="edge15_Node000006_Node000012" class="edge">
<title>Node6&#45;&gt;Node12</title>
<g id="a_edge15_Node000006_Node000012"><a xlink:title=" ">
<path fill="none" stroke="#63b8ff" d="M1014.09,-120.96C1074.12,-112.62 1166.91,-99.14 1247,-85 1252.94,-83.95 1259.15,-82.79 1265.31,-81.59"/>
<polygon fill="#63b8ff" stroke="#63b8ff" points="1266.44,-84.94 1275.57,-79.56 1265.08,-78.07 1266.44,-84.94"/>
</a>
</g>
</g>
<!-- Node14 -->
<g id="Node000014" class="node">
<title>Node14</title>
<g id="a_Node000014"><a xlink:href="_v_i_c_u_s___polygon2_d_8h.html" target="_top" xlink:title=" ">
<polygon fill="white" stroke="#666666" points="901,-79.5 791,-79.5 791,-60.5 901,-60.5 901,-79.5"/>
<text text-anchor="middle" x="846" y="-67.5" font-family="Helvetica,sans-Serif" font-size="10.00">VICUS_Polygon2D.h</text>
</a>
</g>
</g>
<!-- Node6&#45;&gt;Node14 -->
<g id="edge18_Node000006_Node000014" class="edge">
<title>Node6&#45;&gt;Node14</title>
<g id="a_edge18_Node000006_Node000014"><a xlink:title=" ">
<path fill="none" stroke="#63b8ff" d="M935.51,-120.87C918.37,-111.32 890.53,-95.81 870.44,-84.62"/>
<polygon fill="#63b8ff" stroke="#63b8ff" points="872,-81.48 861.56,-79.67 868.59,-87.59 872,-81.48"/>
</a>
</g>
</g>
<!-- Node16 -->
<g id="Node000016" class="node">
<title>Node16</title>
<g id="a_Node000016"><a xlink:href="_v_i_c_u_s___plane_triangulation_data_8h.html" target="_top" xlink:title=" ">
<polygon fill="white" stroke="#666666" points="1205,-85 1071,-85 1071,-55 1205,-55 1205,-85"/>
<text text-anchor="start" x="1079" y="-73" font-family="Helvetica,sans-Serif" font-size="10.00">VICUS_PlaneTriangulation</text>
<text text-anchor="middle" x="1138" y="-62" font-family="Helvetica,sans-Serif" font-size="10.00">Data.h</text>
</a>
</g>
</g>
<!-- Node6&#45;&gt;Node16 -->
<g id="edge21_Node000006_Node000016" class="edge">
<title>Node6&#45;&gt;Node16</title>
<g id="a_edge21_Node000006_Node000016"><a xlink:title=" ">
<path fill="none" stroke="#63b8ff" d="M978.19,-120.99C1005.57,-112.43 1048.59,-98.97 1083.1,-88.18"/>
<polygon fill="#63b8ff" stroke="#63b8ff" points="1084.54,-91.39 1093.04,-85.06 1082.45,-84.71 1084.54,-91.39"/>
</a>
</g>
</g>
<!-- Node8&#45;&gt;Node4 -->
<g id="edge14_Node000008_Node000004" class="edge">
<title>Node8&#45;&gt;Node4</title>
<g id="a_edge14_Node000008_Node000004"><a xlink:title=" ">
<path fill="none" stroke="#63b8ff" d="M699.06,-60.48C691.01,-58.39 682.22,-56.36 674,-55 572.65,-38.23 272.15,-20.87 139.81,-13.8"/>
<polygon fill="#63b8ff" stroke="#63b8ff" points="139.98,-10.3 129.81,-13.26 139.61,-17.29 139.98,-10.3"/>
</a>
</g>
</g>
<!-- Node9 -->
<g id="Node000009" class="node">
<title>Node9</title>
<g id="a_Node000009"><a xlink:title=" ">
<polygon fill="#e0e0e0" stroke="#999999" points="700,-19 656,-19 656,0 700,0 700,-19"/>
<text text-anchor="middle" x="678" y="-7" font-family="Helvetica,sans-Serif" font-size="10.00">vector</text>
</a>
</g>
</g>
<!-- Node8&#45;&gt;Node9 -->
<g id="edge11_Node000008_Node000009" class="edge">
<title>Node8&#45;&gt;Node9</title>
<g id="a_edge11_Node000008_Node000009"><a xlink:title=" ">
<path fill="none" stroke="#63b8ff" d="M720.62,-60.37C713.09,-51.55 701.21,-37.66 691.91,-26.77"/>
<polygon fill="#63b8ff" stroke="#63b8ff" points="694.57,-24.5 685.41,-19.17 689.24,-29.04 694.57,-24.5"/>
</a>
</g>
</g>
<!-- Node10 -->
<g id="Node000010" class="node">
<title>Node10</title>
<g id="a_Node000010"><a xlink:title=" ">
<polygon fill="#e0e0e0" stroke="#999999" points="748,-19 718,-19 718,0 748,0 748,-19"/>
<text text-anchor="middle" x="733" y="-7" font-family="Helvetica,sans-Serif" font-size="10.00">set</text>
</a>
</g>
</g>
<!-- Node8&#45;&gt;Node10 -->
<g id="edge12_Node000008_Node000010" class="edge">
<title>Node8&#45;&gt;Node10</title>
<g id="a_edge12_Node000008_Node000010"><a xlink:title=" ">
<path fill="none" stroke="#63b8ff" d="M728.74,-60.37C729.43,-52.25 730.5,-39.81 731.39,-29.39"/>
<polygon fill="#63b8ff" stroke="#63b8ff" points="734.89,-29.43 732.26,-19.17 727.92,-28.83 734.89,-29.43"/>
</a>
</g>
</g>
<!-- Node8&#45;&gt;Node11 -->
<g id="edge13_Node000008_Node000011" class="edge">
<title>Node8&#45;&gt;Node11</title>
<g id="a_edge13_Node000008_Node000011"><a xlink:title=" ">
<path fill="none" stroke="#63b8ff" d="M697.88,-60.45C690.15,-58.45 681.8,-56.48 674,-55 555.27,-32.41 412.35,-18.77 347.31,-13.29"/>
<polygon fill="#63b8ff" stroke="#63b8ff" points="347.45,-9.79 337.19,-12.45 346.87,-16.76 347.45,-9.79"/>
</a>
</g>
</g>
<!-- Node12&#45;&gt;Node3 -->
<g id="edge17_Node000012_Node000003" class="edge">
<title>Node12&#45;&gt;Node3</title>
<g id="a_edge17_Node000012_Node000003"><a xlink:title=" ">
<path fill="none" stroke="#63b8ff" d="M1265.25,-60.49C1202.32,-49.94 1095.13,-31.98 1027.84,-20.7"/>
<polygon fill="#63b8ff" stroke="#63b8ff" points="1028.25,-17.22 1017.81,-19.02 1027.09,-24.12 1028.25,-17.22"/>
</a>
</g>
</g>
<!-- Node13 -->
<g id="Node000013" class="node">
<title>Node13</title>
<g id="a_Node000013"><a xlink:title=" ">
<polygon fill="#e0e0e0" stroke="#999999" points="1419,-19 1309,-19 1309,0 1419,0 1419,-19"/>
<text text-anchor="middle" x="1364" y="-7" font-family="Helvetica,sans-Serif" font-size="10.00">IBKMK_Polygon3D.h</text>
</a>
</g>
</g>
<!-- Node12&#45;&gt;Node13 -->
<g id="edge16_Node000012_Node000013" class="edge">
<title>Node12&#45;&gt;Node13</title>
<g id="a_edge16_Node000012_Node000013"><a xlink:title=" ">
<path fill="none" stroke="#63b8ff" d="M1323.08,-60.37C1330.24,-51.64 1341.49,-37.93 1350.39,-27.09"/>
<polygon fill="#63b8ff" stroke="#63b8ff" points="1353.25,-29.12 1356.89,-19.17 1347.84,-24.68 1353.25,-29.12"/>
</a>
</g>
</g>
<!-- Node14&#45;&gt;Node3 -->
<g id="edge20_Node000014_Node000003" class="edge">
<title>Node14&#45;&gt;Node3</title>
<g id="a_edge20_Node000014_Node000003"><a xlink:title=" ">
<path fill="none" stroke="#63b8ff" d="M863.59,-60.49C883.76,-50.75 917.02,-34.66 940.36,-23.38"/>
<polygon fill="#63b8ff" stroke="#63b8ff" points="941.9,-26.52 949.38,-19.02 938.86,-20.22 941.9,-26.52"/>
</a>
</g>
</g>
<!-- Node15 -->
<g id="Node000015" class="node">
<title>Node15</title>
<g id="a_Node000015"><a xlink:title=" ">
<polygon fill="#e0e0e0" stroke="#999999" points="881,-19 771,-19 771,0 881,0 881,-19"/>
<text text-anchor="middle" x="826" y="-7" font-family="Helvetica,sans-Serif" font-size="10.00">IBKMK_Polygon2D.h</text>
</a>
</g>
</g>
<!-- Node14&#45;&gt;Node15 -->
<g id="edge19_Node000014_Node000015" class="edge">
<title>Node14&#45;&gt;Node15</title>
<g id="a_edge19_Node000014_Node000015"><a xlink:title=" ">
<path fill="none" stroke="#63b8ff" d="M843.05,-60.37C840.21,-52.07 835.84,-39.28 832.23,-28.72"/>
<polygon fill="#63b8ff" stroke="#63b8ff" points="835.51,-27.5 828.96,-19.17 828.89,-29.76 835.51,-27.5"/>
</a>
</g>
</g>
<!-- Node16&#45;&gt;Node7 -->
<g id="edge22_Node000016_Node000007" class="edge">
<title>Node16&#45;&gt;Node7</title>
<g id="a_edge22_Node000016_Node000007"><a xlink:title=" ">
<path fill="none" stroke="#63b8ff" d="M1162.19,-54.99C1178.29,-45.66 1199.34,-33.47 1215.33,-24.21"/>
<polygon fill="#63b8ff" stroke="#63b8ff" points="1217.19,-27.18 1224.08,-19.14 1213.68,-21.12 1217.19,-27.18"/>
</a>
</g>
</g>
<!-- Node17 -->
<g id="Node000017" class="node">
<title>Node17</title>
<g id="a_Node000017"><a xlink:title=" ">
<polygon fill="#e0e0e0" stroke="#999999" points="1169.5,-19 1052.5,-19 1052.5,0 1169.5,0 1169.5,-19"/>
<text text-anchor="middle" x="1111" y="-7" font-family="Helvetica,sans-Serif" font-size="10.00">IBKMK_Triangulation.h</text>
</a>
</g>
</g>
<!-- Node16&#45;&gt;Node17 -->
<g id="edge23_Node000016_Node000017" class="edge">
<title>Node16&#45;&gt;Node17</title>
<g id="a_edge23_Node000016_Node000017"><a xlink:title=" ">
<path fill="none" stroke="#63b8ff" d="M1131.46,-54.84C1127.82,-46.95 1123.26,-37.05 1119.36,-28.61"/>
<polygon fill="#63b8ff" stroke="#63b8ff" points="1122.41,-26.88 1115.05,-19.27 1116.06,-29.81 1122.41,-26.88"/>
</a>
</g>
</g>
<!-- Node18&#45;&gt;Node3 -->
<g id="edge26_Node000018_Node000003" class="edge">
<title>Node18&#45;&gt;Node3</title>
<g id="a_edge26_Node000018_Node000003"><a xlink:title=" ">
<path fill="none" stroke="#63b8ff" d="M578.6,-128.38C672.27,-125.65 854.71,-116.36 910,-85 932.74,-72.1 949.37,-46.1 958.61,-28.48"/>
<polygon fill="#63b8ff" stroke="#63b8ff" points="961.89,-29.76 963.19,-19.25 955.61,-26.65 961.89,-29.76"/>
</a>
</g>
</g>
<!-- Node18&#45;&gt;Node4 -->
<g id="edge27_Node000018_Node000004" class="edge">
<title>Node18&#45;&gt;Node4</title>
<g id="a_edge27_Node000018_Node000004"><a xlink:title=" ">
<path fill="none" stroke="#63b8ff" d="M499.16,-120.95C479.3,-113.02 450.15,-100.18 427,-85 410.15,-73.95 411.31,-63.42 393,-55 349.21,-34.85 219.22,-21.58 139.95,-15.11"/>
<polygon fill="#63b8ff" stroke="#63b8ff" points="139.84,-11.59 129.6,-14.28 139.28,-18.57 139.84,-11.59"/>
</a>
</g>
</g>
<!-- Node18&#45;&gt;Node8 -->
<g id="edge29_Node000018_Node000008" class="edge">
<title>Node18&#45;&gt;Node8</title>
<g id="a_edge29_Node000018_Node000008"><a xlink:title=" ">
<path fill="none" stroke="#63b8ff" d="M551.95,-120.99C587.96,-110.77 648.5,-93.58 688.35,-82.26"/>
<polygon fill="#63b8ff" stroke="#63b8ff" points="689.35,-85.62 698.01,-79.52 687.43,-78.88 689.35,-85.62"/>
</a>
</g>
</g>
<!-- Node18&#45;&gt;Node11 -->
<g id="edge33_Node000018_Node000011" class="edge">
<title>Node18&#45;&gt;Node11</title>
<g id="a_edge33_Node000018_Node000011"><a xlink:title=" ">
<path fill="none" stroke="#63b8ff" d="M511.73,-120.81C491.06,-103.43 444.85,-65.15 427,-55 401.44,-40.46 370.19,-28.71 346.73,-20.94"/>
<polygon fill="#63b8ff" stroke="#63b8ff" points="347.78,-17.61 337.19,-17.86 345.63,-24.27 347.78,-17.61"/>
</a>
</g>
</g>
<!-- Node18&#45;&gt;Node14 -->
<g id="edge28_Node000018_Node000014" class="edge">
<title>Node18&#45;&gt;Node14</title>
<g id="a_edge28_Node000018_Node000014"><a xlink:title=" ">
<path fill="none" stroke="#63b8ff" d="M576.16,-120.97C628.85,-112.5 711.09,-98.82 782,-85 787.37,-83.95 792.99,-82.81 798.56,-81.63"/>
<polygon fill="#63b8ff" stroke="#63b8ff" points="799.45,-85.02 808.5,-79.51 797.98,-78.18 799.45,-85.02"/>
</a>
</g>
</g>
<!-- Node18&#45;&gt;Node19 -->
<g id="edge30_Node000018_Node000019" class="edge">
<title>Node18&#45;&gt;Node19</title>
<g id="a_edge30_Node000018_Node000019"><a xlink:title=" ">
<path fill="none" stroke="#63b8ff" d="M491.9,-120.99C455.72,-110.77 394.89,-93.58 354.84,-82.26"/>
<polygon fill="#63b8ff" stroke="#63b8ff" points="355.71,-78.87 345.14,-79.52 353.81,-85.6 355.71,-78.87"/>
</a>
</g>
</g>
<!-- Node18&#45;&gt;Node20 -->
<g id="edge31_Node000018_Node000020" class="edge">
<title>Node18&#45;&gt;Node20</title>
<g id="a_edge31_Node000018_Node000020"><a xlink:title=" ">
<path fill="none" stroke="#63b8ff" d="M535.72,-120.87C550.7,-111.45 574.89,-96.23 592.62,-85.08"/>
<polygon fill="#63b8ff" stroke="#63b8ff" points="594.62,-87.95 601.22,-79.67 590.89,-82.03 594.62,-87.95"/>
</a>
</g>
</g>
<!-- Node21 -->
<g id="Node000021" class="node">
<title>Node21</title>
<g id="a_Node000021"><a xlink:title=" ">
<polygon fill="#e0e0e0" stroke="#999999" points="547,-79.5 479,-79.5 479,-60.5 547,-60.5 547,-79.5"/>
<text text-anchor="middle" x="513" y="-67.5" font-family="Helvetica,sans-Serif" font-size="10.00">IBK_point.h</text>
</a>
</g>
</g>
<!-- Node18&#45;&gt;Node21 -->
<g id="edge32_Node000018_Node000021" class="edge">
<title>Node18&#45;&gt;Node21</title>
<g id="a_edge32_Node000018_Node000021"><a xlink:title=" ">
<path fill="none" stroke="#63b8ff" d="M520.67,-120.87C519.41,-112.66 517.47,-100.04 515.85,-89.55"/>
<polygon fill="#63b8ff" stroke="#63b8ff" points="519.31,-89.02 514.33,-79.67 512.39,-90.08 519.31,-89.02"/>
</a>
</g>
</g>
<!-- Node18&#45;&gt;Node22 -->
<g id="edge34_Node000018_Node000022" class="edge">
<title>Node18&#45;&gt;Node22</title>
<g id="a_edge34_Node000018_Node000022"><a xlink:title=" ">
<path fill="none" stroke="#63b8ff" d="M465.44,-125.04C407.06,-119.43 313.8,-107.66 236,-85 234.32,-84.51 232.61,-83.95 230.9,-83.35"/>
<polygon fill="#63b8ff" stroke="#63b8ff" points="231.89,-79.98 221.3,-79.54 229.3,-86.48 231.89,-79.98"/>
</a>
</g>
</g>
<!-- Node24&#45;&gt;Node23 -->
<g id="edge46_Node000024_Node000023" class="edge">
<title>Node24&#45;&gt;Node23</title>
<g id="a_edge46_Node000024_Node000023"><a xlink:title=" ">
<path fill="none" stroke="#63b8ff" d="M890.38,-230.75C886.54,-223.49 880.98,-212.95 876.24,-203.98"/>
<polygon fill="#63b8ff" stroke="#63b8ff" points="879.3,-202.3 871.54,-195.09 873.11,-205.57 879.3,-202.3"/>
</a>
</g>
</g>
<!-- Node25 -->
<g id="Node000025" class="node">
<title>Node25</title>
<g id="a_Node000025"><a xlink:title=" ">
<polygon fill="#e0e0e0" stroke="#999999" points="1068.5,-195 1027.5,-195 1027.5,-176 1068.5,-176 1068.5,-195"/>
<text text-anchor="middle" x="1048" y="-183" font-family="Helvetica,sans-Serif" font-size="10.00">string</text>
</a>
</g>
</g>
<!-- Node24&#45;&gt;Node25 -->
<g id="edge44_Node000024_Node000025" class="edge">
<title>Node24&#45;&gt;Node25</title>
<g id="a_edge44_Node000024_Node000025"><a xlink:title=" ">
<path fill="none" stroke="#63b8ff" d="M919.58,-230.98C946.33,-221.72 989.12,-206.9 1017.87,-196.94"/>
<polygon fill="#63b8ff" stroke="#63b8ff" points="1019.1,-200.22 1027.4,-193.63 1016.81,-193.6 1019.1,-200.22"/>
</a>
</g>
</g>
<!-- Node26 -->
<g id="Node000026" class="node">
<title>Node26</title>
<g id="a_Node000026"><a xlink:title=" ">
<polygon fill="#e0e0e0" stroke="#999999" points="1137.5,-195 1086.5,-195 1086.5,-176 1137.5,-176 1137.5,-195"/>
<text text-anchor="middle" x="1112" y="-183" font-family="Helvetica,sans-Serif" font-size="10.00">typeinfo</text>
</a>
</g>
</g>
<!-- Node24&#45;&gt;Node26 -->
<g id="edge45_Node000024_Node000026" class="edge">
<title>Node24&#45;&gt;Node26</title>
<g id="a_edge45_Node000024_Node000026"><a xlink:title=" ">
<path fill="none" stroke="#63b8ff" d="M930.44,-230.95C965.3,-222.53 1020.3,-209.2 1076.6,-195.33"/>
<polygon fill="#63b8ff" stroke="#63b8ff" points="1077.51,-198.71 1086.38,-192.92 1075.84,-191.92 1077.51,-198.71"/>
</a>
</g>
</g>
<!-- Node27 -->
<g id="Node000027" class="node">
<title>Node27</title>
<g id="a_Node000027"><a xlink:title=" ">
<polygon fill="#e0e0e0" stroke="#999999" points="1009,-195 931,-195 931,-176 1009,-176 1009,-195"/>
<text text-anchor="middle" x="970" y="-183" font-family="Helvetica,sans-Serif" font-size="10.00">IBK_IntPara.h</text>
</a>
</g>
</g>
<!-- Node24&#45;&gt;Node27 -->
<g id="edge47_Node000024_Node000027" class="edge">
<title>Node24&#45;&gt;Node27</title>
<g id="a_edge47_Node000024_Node000027"><a xlink:title=" ">
<path fill="none" stroke="#63b8ff" d="M907.05,-230.98C918.46,-222.92 935.83,-210.65 949.43,-201.03"/>
<polygon fill="#63b8ff" stroke="#63b8ff" points="951.58,-203.8 957.73,-195.17 947.54,-198.08 951.58,-203.8"/>
</a>
</g>
</g>
</g>
</svg>
