<?xml version="1.0" encoding="UTF-8" standalone="no"?>
<!DOCTYPE svg PUBLIC "-//W3C//DTD SVG 1.1//EN"
 "http://www.w3.org/Graphics/SVG/1.1/DTD/svg11.dtd">
<!-- Generated by graphviz version 2.43.0 (0)
 -->
<!-- Title: /home/hirth/git/SIM&#45;VICUS.master2/externals/Vicus/src/ncg/ncg_VICUS_BoundaryCondition.cpp Pages: 1 -->
<svg width="1902pt" height="401pt"
 viewBox="0.00 0.00 1902.00 401.00" xmlns="http://www.w3.org/2000/svg" xmlns:xlink="http://www.w3.org/1999/xlink">
<g id="graph0" class="graph" transform="scale(1 1) rotate(0) translate(4 397)">
<title>/home/hirth/git/SIM&#45;VICUS.master2/externals/Vicus/src/ncg/ncg_VICUS_BoundaryCondition.cpp</title>
<!-- Node1 -->
<g id="Node000001" class="node">
<title>Node1</title>
<g id="a_Node000001"><a xlink:title=" ">
<polygon fill="#999999" stroke="#666666" points="1098.5,-393 963.5,-393 963.5,-341 1098.5,-341 1098.5,-393"/>
<text text-anchor="start" x="971.5" y="-381" font-family="Helvetica,sans-Serif" font-size="10.00">/home/hirth/git/SIM</text>
<text text-anchor="start" x="971.5" y="-370" font-family="Helvetica,sans-Serif" font-size="10.00">&#45;VICUS.master2/externals</text>
<text text-anchor="start" x="971.5" y="-359" font-family="Helvetica,sans-Serif" font-size="10.00">/Vicus/src/ncg/ncg_VICUS</text>
<text text-anchor="middle" x="1031" y="-348" font-family="Helvetica,sans-Serif" font-size="10.00">_BoundaryCondition.cpp</text>
</a>
</g>
</g>
<!-- Node2 -->
<g id="Node000002" class="node">
<title>Node2</title>
<g id="a_Node000002"><a xlink:href="_v_i_c_u_s___boundary_condition_8h.html" target="_top" xlink:title=" ">
<polygon fill="white" stroke="#666666" points="1053,-305 909,-305 909,-286 1053,-286 1053,-305"/>
<text text-anchor="middle" x="981" y="-293" font-family="Helvetica,sans-Serif" font-size="10.00">VICUS_BoundaryCondition.h</text>
</a>
</g>
</g>
<!-- Node1&#45;&gt;Node2 -->
<g id="edge1_Node000001_Node000002" class="edge">
<title>Node1&#45;&gt;Node2</title>
<g id="a_edge1_Node000001_Node000002"><a xlink:title=" ">
<path fill="none" stroke="#63b8ff" d="M1012.95,-340.91C1006.45,-331.87 999.26,-321.88 993.35,-313.67"/>
<polygon fill="#63b8ff" stroke="#63b8ff" points="996.01,-311.38 987.33,-305.3 990.33,-315.46 996.01,-311.38"/>
</a>
</g>
</g>
<!-- Node13 -->
<g id="Node000013" class="node">
<title>Node13</title>
<g id="a_Node000013"><a xlink:href="_v_i_c_u_s___constants_8h.html" target="_top" xlink:title="Contains global constants for the SIM&#45;VICUS data model.">
<polygon fill="white" stroke="#666666" points="404.5,-19 297.5,-19 297.5,0 404.5,0 404.5,-19"/>
<text text-anchor="middle" x="351" y="-7" font-family="Helvetica,sans-Serif" font-size="10.00">VICUS_Constants.h</text>
</a>
</g>
</g>
<!-- Node1&#45;&gt;Node13 -->
<g id="edge58_Node000001_Node000013" class="edge">
<title>Node1&#45;&gt;Node13</title>
<g id="a_edge58_Node000001_Node000013"><a xlink:title=" ">
<path fill="none" stroke="#63b8ff" d="M963.35,-364.61C733.98,-358.99 0,-333.42 0,-236 0,-236 0,-236 0,-118.5 0,-59.09 185.99,-28.95 287.19,-16.94"/>
<polygon fill="#63b8ff" stroke="#63b8ff" points="287.78,-20.4 297.31,-15.77 286.97,-13.44 287.78,-20.4"/>
</a>
</g>
</g>
<!-- Node28 -->
<g id="Node000028" class="node">
<title>Node28</title>
<g id="a_Node000028"><a xlink:title=" ">
<polygon fill="#e0e0e0" stroke="#999999" points="403,-129 311,-129 311,-110 403,-110 403,-129"/>
<text text-anchor="middle" x="357" y="-117" font-family="Helvetica,sans-Serif" font-size="10.00">IBK_messages.h</text>
</a>
</g>
</g>
<!-- Node1&#45;&gt;Node28 -->
<g id="edge55_Node000001_Node000028" class="edge">
<title>Node1&#45;&gt;Node28</title>
<g id="a_edge55_Node000001_Node000028"><a xlink:title=" ">
<path fill="none" stroke="#63b8ff" d="M963.39,-364.32C798.27,-359.64 378.19,-344.15 244,-305 194.18,-290.46 167.69,-294.51 141,-250 133.84,-238.05 135.57,-174.81 144,-165 163.99,-141.73 244.33,-130.08 300.41,-124.66"/>
<polygon fill="#63b8ff" stroke="#63b8ff" points="300.94,-128.13 310.58,-123.73 300.3,-121.16 300.94,-128.13"/>
</a>
</g>
</g>
<!-- Node29 -->
<g id="Node000029" class="node">
<title>Node29</title>
<g id="a_Node000029"><a xlink:title=" ">
<polygon fill="#e0e0e0" stroke="#999999" points="477,-129 421,-129 421,-110 477,-110 477,-129"/>
<text text-anchor="middle" x="449" y="-117" font-family="Helvetica,sans-Serif" font-size="10.00">tinyxml.h</text>
</a>
</g>
</g>
<!-- Node1&#45;&gt;Node29 -->
<g id="edge60_Node000001_Node000029" class="edge">
<title>Node1&#45;&gt;Node29</title>
<g id="a_edge60_Node000001_Node000029"><a xlink:title=" ">
<path fill="none" stroke="#63b8ff" d="M963.18,-362.14C766.02,-350.22 203.59,-311.11 150,-250 139.96,-238.55 144.39,-176.13 155,-165 192.83,-125.28 339.9,-138.02 410.52,-128.85"/>
<polygon fill="#63b8ff" stroke="#63b8ff" points="411.43,-132.25 420.77,-127.25 410.35,-125.33 411.43,-132.25"/>
</a>
</g>
</g>
<!-- Node30 -->
<g id="Node000030" class="node">
<title>Node30</title>
<g id="a_Node000030"><a xlink:href="_v_i_c_u_s___keyword_list_8h.html" target="_top" xlink:title="Contains the declaration of class KeywordList.">
<polygon fill="white" stroke="#666666" points="1782,-184 1666,-184 1666,-165 1782,-165 1782,-184"/>
<text text-anchor="middle" x="1724" y="-172" font-family="Helvetica,sans-Serif" font-size="10.00">VICUS_KeywordList.h</text>
</a>
</g>
</g>
<!-- Node1&#45;&gt;Node30 -->
<g id="edge50_Node000001_Node000030" class="edge">
<title>Node1&#45;&gt;Node30</title>
<g id="a_edge50_Node000001_Node000030"><a xlink:title=" ">
<path fill="none" stroke="#63b8ff" d="M1098.59,-349.44C1171.25,-332.03 1290.31,-304.63 1394,-286 1507.95,-265.53 1548.81,-302.49 1652,-250 1677.97,-236.79 1699.91,-210.46 1712.51,-192.91"/>
<polygon fill="#63b8ff" stroke="#63b8ff" points="1715.72,-194.42 1718.52,-184.2 1709.96,-190.45 1715.72,-194.42"/>
</a>
</g>
</g>
<!-- Node33 -->
<g id="Node000033" class="node">
<title>Node33</title>
<g id="a_Node000033"><a xlink:title=" ">
<polygon fill="#e0e0e0" stroke="#999999" points="1493,-305 1403,-305 1403,-286 1493,-286 1493,-305"/>
<text text-anchor="middle" x="1448" y="-293" font-family="Helvetica,sans-Serif" font-size="10.00">IBK_Exception.h</text>
</a>
</g>
</g>
<!-- Node1&#45;&gt;Node33 -->
<g id="edge56_Node000001_Node000033" class="edge">
<title>Node1&#45;&gt;Node33</title>
<g id="a_edge56_Node000001_Node000033"><a xlink:title=" ">
<path fill="none" stroke="#63b8ff" d="M1098.93,-354.68C1180.81,-341.03 1316.84,-318.36 1392.65,-305.72"/>
<polygon fill="#63b8ff" stroke="#63b8ff" points="1393.65,-309.11 1402.94,-304.01 1392.5,-302.2 1393.65,-309.11"/>
</a>
</g>
</g>
<!-- Node34 -->
<g id="Node000034" class="node">
<title>Node34</title>
<g id="a_Node000034"><a xlink:title=" ">
<polygon fill="#e0e0e0" stroke="#999999" points="1603,-305 1511,-305 1511,-286 1603,-286 1603,-305"/>
<text text-anchor="middle" x="1557" y="-293" font-family="Helvetica,sans-Serif" font-size="10.00">IBK_StringUtils.h</text>
</a>
</g>
</g>
<!-- Node1&#45;&gt;Node34 -->
<g id="edge57_Node000001_Node000034" class="edge">
<title>Node1&#45;&gt;Node34</title>
<g id="a_edge57_Node000001_Node000034"><a xlink:title=" ">
<path fill="none" stroke="#63b8ff" d="M1098.54,-357.78C1188,-346.78 1351,-326.32 1500.51,-305.18"/>
<polygon fill="#63b8ff" stroke="#63b8ff" points="1501.39,-308.59 1510.8,-303.72 1500.41,-301.66 1501.39,-308.59"/>
</a>
</g>
</g>
<!-- Node35 -->
<g id="Node000035" class="node">
<title>Node35</title>
<g id="a_Node000035"><a xlink:title=" ">
<polygon fill="#e0e0e0" stroke="#999999" points="1735,-305 1621,-305 1621,-286 1735,-286 1735,-305"/>
<text text-anchor="middle" x="1678" y="-293" font-family="Helvetica,sans-Serif" font-size="10.00">NANDRAD_Utilities.h</text>
</a>
</g>
</g>
<!-- Node1&#45;&gt;Node35 -->
<g id="edge59_Node000001_Node000035" class="edge">
<title>Node1&#45;&gt;Node35</title>
<g id="a_edge59_Node000001_Node000035"><a xlink:title=" ">
<path fill="none" stroke="#63b8ff" d="M1098.59,-359.42C1205.14,-348.94 1418.93,-327.44 1610.79,-305.12"/>
<polygon fill="#63b8ff" stroke="#63b8ff" points="1611.25,-308.59 1620.77,-303.95 1610.43,-301.64 1611.25,-308.59"/>
</a>
</g>
</g>
<!-- Node3 -->
<g id="Node000003" class="node">
<title>Node3</title>
<g id="a_Node000003"><a xlink:title=" ">
<polygon fill="#e0e0e0" stroke="#999999" points="1572,-184 1522,-184 1522,-165 1572,-165 1572,-184"/>
<text text-anchor="middle" x="1547" y="-172" font-family="Helvetica,sans-Serif" font-size="10.00">QString</text>
</a>
</g>
</g>
<!-- Node2&#45;&gt;Node3 -->
<g id="edge2_Node000002_Node000003" class="edge">
<title>Node2&#45;&gt;Node3</title>
<g id="a_edge2_Node000002_Node000003"><a xlink:title=" ">
<path fill="none" stroke="#63b8ff" d="M1037.99,-285.97C1091.01,-277.76 1172.12,-264.47 1242,-250 1340.49,-229.6 1455.45,-199.91 1511.97,-184.91"/>
<polygon fill="#63b8ff" stroke="#63b8ff" points="1513.07,-188.24 1521.83,-182.29 1511.27,-181.48 1513.07,-188.24"/>
</a>
</g>
</g>
<!-- Node4 -->
<g id="Node000004" class="node">
<title>Node4</title>
<g id="a_Node000004"><a xlink:title=" ">
<polygon fill="#e0e0e0" stroke="#999999" points="273.5,-184 180.5,-184 180.5,-165 273.5,-165 273.5,-184"/>
<text text-anchor="middle" x="227" y="-172" font-family="Helvetica,sans-Serif" font-size="10.00">QCoreApplication</text>
</a>
</g>
</g>
<!-- Node2&#45;&gt;Node4 -->
<g id="edge3_Node000002_Node000004" class="edge">
<title>Node2&#45;&gt;Node4</title>
<g id="a_edge3_Node000002_Node000004"><a xlink:title=" ">
<path fill="none" stroke="#63b8ff" d="M977.27,-285.6C969.88,-269.22 951.63,-234.64 924,-220 861.45,-186.87 358.44,-190.89 288,-184 286.54,-183.86 285.05,-183.7 283.56,-183.54"/>
<polygon fill="#63b8ff" stroke="#63b8ff" points="283.92,-180.06 273.58,-182.39 283.11,-187.02 283.92,-180.06"/>
</a>
</g>
</g>
<!-- Node5 -->
<g id="Node000005" class="node">
<title>Node5</title>
<g id="a_Node000005"><a xlink:title=" ">
<polygon fill="#e0e0e0" stroke="#999999" points="1003,-19 959,-19 959,0 1003,0 1003,-19"/>
<text text-anchor="middle" x="981" y="-7" font-family="Helvetica,sans-Serif" font-size="10.00">vector</text>
</a>
</g>
</g>
<!-- Node2&#45;&gt;Node5 -->
<g id="edge4_Node000002_Node000005" class="edge">
<title>Node2&#45;&gt;Node5</title>
<g id="a_edge4_Node000002_Node000005"><a xlink:title=" ">
<path fill="none" stroke="#63b8ff" d="M1053.2,-288.51C1105.96,-282.45 1171.11,-270.91 1188,-250 1237.39,-188.86 1136.47,-183.91 1094,-165 1045.85,-143.56 1012.1,-171.55 981,-129 959.53,-99.63 967.72,-54.29 974.84,-29.06"/>
<polygon fill="#63b8ff" stroke="#63b8ff" points="978.25,-29.89 977.83,-19.3 971.56,-27.84 978.25,-29.89"/>
</a>
</g>
</g>
<!-- Node6 -->
<g id="Node000006" class="node">
<title>Node6</title>
<g id="a_Node000006"><a xlink:title=" ">
<polygon fill="#e0e0e0" stroke="#999999" points="1651.5,-129 1560.5,-129 1560.5,-110 1651.5,-110 1651.5,-129"/>
<text text-anchor="middle" x="1606" y="-117" font-family="Helvetica,sans-Serif" font-size="10.00">IBK_Parameter.h</text>
</a>
</g>
</g>
<!-- Node2&#45;&gt;Node6 -->
<g id="edge5_Node000002_Node000006" class="edge">
<title>Node2&#45;&gt;Node6</title>
<g id="a_edge5_Node000002_Node000006"><a xlink:title=" ">
<path fill="none" stroke="#63b8ff" d="M1053.21,-290.32C1195.12,-280.68 1503.35,-252.28 1581,-184 1593.92,-172.64 1600.22,-153.74 1603.26,-139.51"/>
<polygon fill="#63b8ff" stroke="#63b8ff" points="1606.77,-139.78 1605.06,-129.33 1599.88,-138.56 1606.77,-139.78"/>
</a>
</g>
</g>
<!-- Node7 -->
<g id="Node000007" class="node">
<title>Node7</title>
<g id="a_Node000007"><a xlink:title=" ">
<polygon fill="#e0e0e0" stroke="#999999" points="857.5,-74 722.5,-74 722.5,-55 857.5,-55 857.5,-74"/>
<text text-anchor="middle" x="790" y="-62" font-family="Helvetica,sans-Serif" font-size="10.00">IBK_MultiLanguageString.h</text>
</a>
</g>
</g>
<!-- Node2&#45;&gt;Node7 -->
<g id="edge6_Node000002_Node000007" class="edge">
<title>Node2&#45;&gt;Node7</title>
<g id="a_edge6_Node000002_Node000007"><a xlink:title=" ">
<path fill="none" stroke="#63b8ff" d="M980.15,-285.82C978.19,-270.41 971.94,-238.18 953,-220 916.2,-184.66 881.98,-218.06 844,-184 813.95,-157.04 799.54,-110.03 793.58,-84.06"/>
<polygon fill="#63b8ff" stroke="#63b8ff" points="796.96,-83.11 791.47,-74.05 790.11,-84.56 796.96,-83.11"/>
</a>
</g>
</g>
<!-- Node8 -->
<g id="Node000008" class="node">
<title>Node8</title>
<g id="a_Node000008"><a xlink:title=" ">
<polygon fill="#e0e0e0" stroke="#999999" points="337.5,-250 180.5,-250 180.5,-220 337.5,-220 337.5,-250"/>
<text text-anchor="start" x="188.5" y="-238" font-family="Helvetica,sans-Serif" font-size="10.00">NANDRAD_InterfaceLongWave</text>
<text text-anchor="middle" x="259" y="-227" font-family="Helvetica,sans-Serif" font-size="10.00">Emission.h</text>
</a>
</g>
</g>
<!-- Node2&#45;&gt;Node8 -->
<g id="edge7_Node000002_Node000008" class="edge">
<title>Node2&#45;&gt;Node8</title>
<g id="a_edge7_Node000002_Node000008"><a xlink:title=" ">
<path fill="none" stroke="#63b8ff" d="M908.55,-291.48C792.43,-286.19 557.3,-273.61 347.6,-249.99"/>
<polygon fill="#63b8ff" stroke="#63b8ff" points="347.97,-246.51 337.64,-248.86 347.18,-253.47 347.97,-246.51"/>
</a>
</g>
</g>
<!-- Node9 -->
<g id="Node000009" class="node">
<title>Node9</title>
<g id="a_Node000009"><a xlink:title=" ">
<polygon fill="#e0e0e0" stroke="#999999" points="544,-244.5 356,-244.5 356,-225.5 544,-225.5 544,-244.5"/>
<text text-anchor="middle" x="450" y="-232.5" font-family="Helvetica,sans-Serif" font-size="10.00">NANDRAD_InterfaceSolarAbsorption.h</text>
</a>
</g>
</g>
<!-- Node2&#45;&gt;Node9 -->
<g id="edge8_Node000002_Node000009" class="edge">
<title>Node2&#45;&gt;Node9</title>
<g id="a_edge8_Node000002_Node000009"><a xlink:title=" ">
<path fill="none" stroke="#63b8ff" d="M908.98,-287.71C823.86,-279.52 677.98,-264.99 553,-250 542.44,-248.73 531.28,-247.31 520.35,-245.86"/>
<polygon fill="#63b8ff" stroke="#63b8ff" points="520.79,-242.39 510.41,-244.54 519.86,-249.33 520.79,-242.39"/>
</a>
</g>
</g>
<!-- Node10 -->
<g id="Node000010" class="node">
<title>Node10</title>
<g id="a_Node000010"><a xlink:title=" ">
<polygon fill="#e0e0e0" stroke="#999999" points="745.5,-244.5 562.5,-244.5 562.5,-225.5 745.5,-225.5 745.5,-244.5"/>
<text text-anchor="middle" x="654" y="-232.5" font-family="Helvetica,sans-Serif" font-size="10.00">NANDRAD_InterfaceVaporDiffusion.h</text>
</a>
</g>
</g>
<!-- Node2&#45;&gt;Node10 -->
<g id="edge9_Node000002_Node000010" class="edge">
<title>Node2&#45;&gt;Node10</title>
<g id="a_edge9_Node000002_Node000010"><a xlink:title=" ">
<path fill="none" stroke="#63b8ff" d="M933.45,-285.99C874.72,-275.49 774.88,-257.62 711.79,-246.34"/>
<polygon fill="#63b8ff" stroke="#63b8ff" points="712.07,-242.83 701.61,-244.52 710.83,-249.72 712.07,-242.83"/>
</a>
</g>
</g>
<!-- Node11 -->
<g id="Node000011" class="node">
<title>Node11</title>
<g id="a_Node000011"><a xlink:title=" ">
<polygon fill="#e0e0e0" stroke="#999999" points="914.5,-244.5 763.5,-244.5 763.5,-225.5 914.5,-225.5 914.5,-244.5"/>
<text text-anchor="middle" x="839" y="-232.5" font-family="Helvetica,sans-Serif" font-size="10.00">NANDRAD_InterfaceAirFlow.h</text>
</a>
</g>
</g>
<!-- Node2&#45;&gt;Node11 -->
<g id="edge10_Node000002_Node000011" class="edge">
<title>Node2&#45;&gt;Node11</title>
<g id="a_edge10_Node000002_Node000011"><a xlink:title=" ">
<path fill="none" stroke="#63b8ff" d="M960.35,-285.99C936.37,-276.12 896.61,-259.73 869.17,-248.43"/>
<polygon fill="#63b8ff" stroke="#63b8ff" points="870.25,-245.09 859.67,-244.52 867.59,-251.56 870.25,-245.09"/>
</a>
</g>
</g>
<!-- Node12 -->
<g id="Node000012" class="node">
<title>Node12</title>
<g id="a_Node000012"><a xlink:href="_v_i_c_u_s___code_gen_macros_8h.html" target="_top" xlink:title=" ">
<polygon fill="white" stroke="#666666" points="1561.5,-19 1426.5,-19 1426.5,0 1561.5,0 1561.5,-19"/>
<text text-anchor="middle" x="1494" y="-7" font-family="Helvetica,sans-Serif" font-size="10.00">VICUS_CodeGenMacros.h</text>
</a>
</g>
</g>
<!-- Node2&#45;&gt;Node12 -->
<g id="edge11_Node000002_Node000012" class="edge">
<title>Node2&#45;&gt;Node12</title>
<g id="a_edge11_Node000002_Node000012"><a xlink:title=" ">
<path fill="none" stroke="#63b8ff" d="M1053.28,-291.04C1168.75,-284.97 1389.51,-271.04 1465,-250 1529.72,-231.97 1545.43,-221.76 1601,-184 1636.02,-160.2 1681.92,-146.81 1661,-110 1634.35,-63.1 1575.89,-35.98 1535.72,-22.22"/>
<polygon fill="#63b8ff" stroke="#63b8ff" points="1536.78,-18.89 1526.18,-19.09 1534.59,-25.54 1536.78,-18.89"/>
</a>
</g>
</g>
<!-- Node2&#45;&gt;Node13 -->
<g id="edge12_Node000002_Node000013" class="edge">
<title>Node2&#45;&gt;Node13</title>
<g id="a_edge12_Node000002_Node000013"><a xlink:title=" ">
<path fill="none" stroke="#63b8ff" d="M908.82,-293.3C711.48,-289.67 175.92,-277.34 150,-250 72.25,-167.97 253.92,-60.95 324.47,-23.85"/>
<polygon fill="#63b8ff" stroke="#63b8ff" points="326.38,-26.8 333.65,-19.09 323.16,-20.59 326.38,-26.8"/>
</a>
</g>
</g>
<!-- Node14 -->
<g id="Node000014" class="node">
<title>Node14</title>
<g id="a_Node000014"><a xlink:href="_v_i_c_u_s___abstract_d_b_element_8h.html" target="_top" xlink:title=" ">
<polygon fill="white" stroke="#666666" points="643.5,-129 494.5,-129 494.5,-110 643.5,-110 643.5,-129"/>
<text text-anchor="middle" x="569" y="-117" font-family="Helvetica,sans-Serif" font-size="10.00">VICUS_AbstractDBElement.h</text>
</a>
</g>
</g>
<!-- Node2&#45;&gt;Node14 -->
<g id="edge13_Node000002_Node000014" class="edge">
<title>Node2&#45;&gt;Node14</title>
<g id="a_edge13_Node000002_Node000014"><a xlink:title=" ">
<path fill="none" stroke="#63b8ff" d="M908.9,-293.2C715.17,-289.35 196.17,-276.59 171,-250 145.03,-222.56 145.81,-193.16 171,-165 173.6,-162.1 367.88,-141.42 484,-129.3"/>
<polygon fill="#63b8ff" stroke="#63b8ff" points="484.71,-132.75 494.29,-128.23 483.98,-125.78 484.71,-132.75"/>
</a>
</g>
</g>
<!-- Node16 -->
<g id="Node000016" class="node">
<title>Node16</title>
<g id="a_Node000016"><a xlink:href="_v_i_c_u_s___interface_heat_conduction_8h.html" target="_top" xlink:title=" ">
<polygon fill="white" stroke="#666666" points="1179,-244.5 1009,-244.5 1009,-225.5 1179,-225.5 1179,-244.5"/>
<text text-anchor="middle" x="1094" y="-232.5" font-family="Helvetica,sans-Serif" font-size="10.00">VICUS_InterfaceHeatConduction.h</text>
</a>
</g>
</g>
<!-- Node2&#45;&gt;Node16 -->
<g id="edge17_Node000002_Node000016" class="edge">
<title>Node2&#45;&gt;Node16</title>
<g id="a_edge17_Node000002_Node000016"><a xlink:title=" ">
<path fill="none" stroke="#63b8ff" d="M997.67,-285.87C1016.28,-276.23 1046.62,-260.53 1068.28,-249.31"/>
<polygon fill="#63b8ff" stroke="#63b8ff" points="1069.99,-252.37 1077.26,-244.67 1066.77,-246.16 1069.99,-252.37"/>
</a>
</g>
</g>
<!-- Node18 -->
<g id="Node000018" class="node">
<title>Node18</title>
<g id="a_Node000018"><a xlink:href="_v_i_c_u_s___schedule_8h.html" target="_top" xlink:title=" ">
<polygon fill="white" stroke="#666666" points="1288,-184 1186,-184 1186,-165 1288,-165 1288,-184"/>
<text text-anchor="middle" x="1237" y="-172" font-family="Helvetica,sans-Serif" font-size="10.00">VICUS_Schedule.h</text>
</a>
</g>
</g>
<!-- Node2&#45;&gt;Node18 -->
<g id="edge49_Node000002_Node000018" class="edge">
<title>Node2&#45;&gt;Node18</title>
<g id="a_edge49_Node000002_Node000018"><a xlink:title=" ">
<path fill="none" stroke="#63b8ff" d="M1053.2,-289.82C1114.97,-284.3 1197.53,-272.82 1221,-250 1235.64,-235.76 1238.44,-211.61 1238.36,-194.67"/>
<polygon fill="#63b8ff" stroke="#63b8ff" points="1241.84,-194.16 1237.95,-184.31 1234.85,-194.44 1241.84,-194.16"/>
</a>
</g>
</g>
<!-- Node14&#45;&gt;Node7 -->
<g id="edge14_Node000014_Node000007" class="edge">
<title>Node14&#45;&gt;Node7</title>
<g id="a_edge14_Node000014_Node000007"><a xlink:title=" ">
<path fill="none" stroke="#63b8ff" d="M604.51,-109.98C642.49,-100.87 702.87,-86.4 744.36,-76.45"/>
<polygon fill="#63b8ff" stroke="#63b8ff" points="745.31,-79.82 754.21,-74.08 743.67,-73.01 745.31,-79.82"/>
</a>
</g>
</g>
<!-- Node14&#45;&gt;Node13 -->
<g id="edge16_Node000014_Node000013" class="edge">
<title>Node14&#45;&gt;Node13</title>
<g id="a_edge16_Node000014_Node000013"><a xlink:title=" ">
<path fill="none" stroke="#63b8ff" d="M551.53,-109.84C513.41,-90.96 422.57,-45.96 377.41,-23.59"/>
<polygon fill="#63b8ff" stroke="#63b8ff" points="378.77,-20.35 368.25,-19.05 375.66,-26.62 378.77,-20.35"/>
</a>
</g>
</g>
<!-- Node15 -->
<g id="Node000015" class="node">
<title>Node15</title>
<g id="a_Node000015"><a xlink:title=" ">
<polygon fill="#e0e0e0" stroke="#999999" points="592.5,-74 545.5,-74 545.5,-55 592.5,-55 592.5,-74"/>
<text text-anchor="middle" x="569" y="-62" font-family="Helvetica,sans-Serif" font-size="10.00">QColor</text>
</a>
</g>
</g>
<!-- Node14&#45;&gt;Node15 -->
<g id="edge15_Node000014_Node000015" class="edge">
<title>Node14&#45;&gt;Node15</title>
<g id="a_edge15_Node000014_Node000015"><a xlink:title=" ">
<path fill="none" stroke="#63b8ff" d="M569,-109.75C569,-102.8 569,-92.85 569,-84.13"/>
<polygon fill="#63b8ff" stroke="#63b8ff" points="572.5,-84.09 569,-74.09 565.5,-84.09 572.5,-84.09"/>
</a>
</g>
</g>
<!-- Node16&#45;&gt;Node3 -->
<g id="edge18_Node000016_Node000003" class="edge">
<title>Node16&#45;&gt;Node3</title>
<g id="a_edge18_Node000016_Node000003"><a xlink:title=" ">
<path fill="none" stroke="#63b8ff" d="M1179.18,-226.09C1263.11,-217.73 1394.85,-203.12 1508,-184 1509.27,-183.79 1510.56,-183.56 1511.86,-183.32"/>
<polygon fill="#63b8ff" stroke="#63b8ff" points="1512.76,-186.71 1521.89,-181.34 1511.4,-179.84 1512.76,-186.71"/>
</a>
</g>
</g>
<!-- Node16&#45;&gt;Node4 -->
<g id="edge19_Node000016_Node000004" class="edge">
<title>Node16&#45;&gt;Node4</title>
<g id="a_edge19_Node000016_Node000004"><a xlink:title=" ">
<path fill="none" stroke="#63b8ff" d="M1016.89,-225.46C997.37,-223.48 976.43,-221.51 957,-220 660.14,-196.86 584.39,-212.57 288,-184 286.54,-183.86 285.05,-183.71 283.56,-183.55"/>
<polygon fill="#63b8ff" stroke="#63b8ff" points="283.91,-180.07 273.58,-182.4 283.11,-187.02 283.91,-180.07"/>
</a>
</g>
</g>
<!-- Node16&#45;&gt;Node5 -->
<g id="edge20_Node000016_Node000005" class="edge">
<title>Node16&#45;&gt;Node5</title>
<g id="a_edge20_Node000016_Node000005"><a xlink:title=" ">
<path fill="none" stroke="#63b8ff" d="M1094.17,-225.49C1093.99,-211.02 1091.46,-181.58 1075,-165 1033.67,-123.36 983.38,-175.8 948,-129 928.17,-102.76 937.68,-86.23 948,-55 951.46,-44.54 958.43,-34.53 965.08,-26.66"/>
<polygon fill="#63b8ff" stroke="#63b8ff" points="967.86,-28.8 971.98,-19.04 962.67,-24.1 967.86,-28.8"/>
</a>
</g>
</g>
<!-- Node16&#45;&gt;Node6 -->
<g id="edge21_Node000016_Node000006" class="edge">
<title>Node16&#45;&gt;Node6</title>
<g id="a_edge21_Node000016_Node000006"><a xlink:title=" ">
<path fill="none" stroke="#63b8ff" d="M1179.15,-230.07C1256.37,-224.78 1372.66,-212.47 1470,-184 1475.62,-182.35 1540.52,-151.66 1578.6,-133.56"/>
<polygon fill="#63b8ff" stroke="#63b8ff" points="1580.57,-136.49 1588.1,-129.03 1577.57,-130.17 1580.57,-136.49"/>
</a>
</g>
</g>
<!-- Node16&#45;&gt;Node7 -->
<g id="edge22_Node000016_Node000007" class="edge">
<title>Node16&#45;&gt;Node7</title>
<g id="a_edge22_Node000016_Node000007"><a xlink:title=" ">
<path fill="none" stroke="#63b8ff" d="M1045.55,-225.47C983.26,-214.18 881.34,-194.47 867,-184 836.28,-161.57 845.14,-141.62 824,-110 817.65,-100.5 809.97,-90.35 803.51,-82.14"/>
<polygon fill="#63b8ff" stroke="#63b8ff" points="806.08,-79.76 797.11,-74.12 800.61,-84.12 806.08,-79.76"/>
</a>
</g>
</g>
<!-- Node16&#45;&gt;Node12 -->
<g id="edge24_Node000016_Node000012" class="edge">
<title>Node16&#45;&gt;Node12</title>
<g id="a_edge24_Node000016_Node000012"><a xlink:title=" ">
<path fill="none" stroke="#63b8ff" d="M1155.17,-225.45C1255.02,-210.3 1446.74,-175.89 1495,-129 1519.2,-105.48 1518.45,-88.12 1512,-55 1510.21,-45.8 1506.52,-36.09 1502.94,-28.1"/>
<polygon fill="#63b8ff" stroke="#63b8ff" points="1506.09,-26.57 1498.62,-19.06 1499.77,-29.59 1506.09,-26.57"/>
</a>
</g>
</g>
<!-- Node16&#45;&gt;Node13 -->
<g id="edge25_Node000016_Node000013" class="edge">
<title>Node16&#45;&gt;Node13</title>
<g id="a_edge25_Node000016_Node000013"><a xlink:title=" ">
<path fill="none" stroke="#63b8ff" d="M1009.01,-225.49C990.54,-223.66 971.12,-221.75 953,-220 807.61,-205.93 394.37,-242.16 302,-129 276.33,-97.55 312.1,-50.76 334.8,-26.46"/>
<polygon fill="#63b8ff" stroke="#63b8ff" points="337.46,-28.75 341.89,-19.13 332.43,-23.88 337.46,-28.75"/>
</a>
</g>
</g>
<!-- Node17 -->
<g id="Node000017" class="node">
<title>Node17</title>
<g id="a_Node000017"><a xlink:title=" ">
<polygon fill="#e0e0e0" stroke="#999999" points="1066,-184 876,-184 876,-165 1066,-165 1066,-184"/>
<text text-anchor="middle" x="971" y="-172" font-family="Helvetica,sans-Serif" font-size="10.00">NANDRAD_InterfaceHeatConduction.h</text>
</a>
</g>
</g>
<!-- Node16&#45;&gt;Node17 -->
<g id="edge23_Node000016_Node000017" class="edge">
<title>Node16&#45;&gt;Node17</title>
<g id="a_edge23_Node000016_Node000017"><a xlink:title=" ">
<path fill="none" stroke="#63b8ff" d="M1076.11,-225.49C1055.62,-215.75 1021.81,-199.66 998.08,-188.38"/>
<polygon fill="#63b8ff" stroke="#63b8ff" points="999.44,-185.15 988.91,-184.02 996.43,-191.47 999.44,-185.15"/>
</a>
</g>
</g>
<!-- Node16&#45;&gt;Node18 -->
<g id="edge26_Node000016_Node000018" class="edge">
<title>Node16&#45;&gt;Node18</title>
<g id="a_edge26_Node000016_Node000018"><a xlink:title=" ">
<path fill="none" stroke="#63b8ff" d="M1114.79,-225.49C1138.94,-215.62 1178.98,-199.23 1206.62,-187.93"/>
<polygon fill="#63b8ff" stroke="#63b8ff" points="1208.25,-191.04 1216.18,-184.02 1205.6,-184.56 1208.25,-191.04"/>
</a>
</g>
</g>
<!-- Node25 -->
<g id="Node000025" class="node">
<title>Node25</title>
<g id="a_Node000025"><a xlink:href="_v_i_c_u_s___database_8h.html" target="_top" xlink:title=" ">
<polygon fill="white" stroke="#666666" points="684,-184 580,-184 580,-165 684,-165 684,-184"/>
<text text-anchor="middle" x="632" y="-172" font-family="Helvetica,sans-Serif" font-size="10.00">VICUS_Database.h</text>
</a>
</g>
</g>
<!-- Node16&#45;&gt;Node25 -->
<g id="edge43_Node000016_Node000025" class="edge">
<title>Node16&#45;&gt;Node25</title>
<g id="a_edge43_Node000016_Node000025"><a xlink:title=" ">
<path fill="none" stroke="#63b8ff" d="M1026.82,-225.49C937.51,-214.18 780.89,-194.35 694.18,-183.37"/>
<polygon fill="#63b8ff" stroke="#63b8ff" points="694.57,-179.9 684.21,-182.11 693.69,-186.84 694.57,-179.9"/>
</a>
</g>
</g>
<!-- Node18&#45;&gt;Node6 -->
<g id="edge29_Node000018_Node000006" class="edge">
<title>Node18&#45;&gt;Node6</title>
<g id="a_edge29_Node000018_Node000006"><a xlink:title=" ">
<path fill="none" stroke="#63b8ff" d="M1288.31,-166.13C1357.2,-156.24 1479.15,-138.72 1550.24,-128.51"/>
<polygon fill="#63b8ff" stroke="#63b8ff" points="1550.95,-131.94 1560.35,-127.06 1549.95,-125.01 1550.95,-131.94"/>
</a>
</g>
</g>
<!-- Node18&#45;&gt;Node12 -->
<g id="edge31_Node000018_Node000012" class="edge">
<title>Node18&#45;&gt;Node12</title>
<g id="a_edge31_Node000018_Node000012"><a xlink:title=" ">
<path fill="none" stroke="#63b8ff" d="M1288.1,-170.69C1350.14,-166.18 1449.66,-155 1475,-129 1500.97,-102.35 1499.95,-55.22 1496.96,-29.15"/>
<polygon fill="#63b8ff" stroke="#63b8ff" points="1500.41,-28.53 1495.59,-19.09 1493.48,-29.48 1500.41,-28.53"/>
</a>
</g>
</g>
<!-- Node18&#45;&gt;Node13 -->
<g id="edge32_Node000018_Node000013" class="edge">
<title>Node18&#45;&gt;Node13</title>
<g id="a_edge32_Node000018_Node000013"><a xlink:title=" ">
<path fill="none" stroke="#63b8ff" d="M1185.83,-170.66C1132.95,-166.36 1048.82,-155.61 981,-129 924.77,-106.94 924.13,-74.62 867,-55 784.99,-26.83 533.65,-15.85 414.68,-12.14"/>
<polygon fill="#63b8ff" stroke="#63b8ff" points="414.73,-8.64 404.63,-11.84 414.52,-15.64 414.73,-8.64"/>
</a>
</g>
</g>
<!-- Node18&#45;&gt;Node14 -->
<g id="edge42_Node000018_Node000014" class="edge">
<title>Node18&#45;&gt;Node14</title>
<g id="a_edge42_Node000018_Node000014"><a xlink:title=" ">
<path fill="none" stroke="#63b8ff" d="M1185.8,-170.03C1085.8,-163.15 857.27,-146.98 653.63,-129.03"/>
<polygon fill="#63b8ff" stroke="#63b8ff" points="653.92,-125.55 643.65,-128.15 653.3,-132.52 653.92,-125.55"/>
</a>
</g>
</g>
<!-- Node19 -->
<g id="Node000019" class="node">
<title>Node19</title>
<g id="a_Node000019"><a xlink:title=" ">
<polygon fill="#e0e0e0" stroke="#999999" points="1382,-129 1282,-129 1282,-110 1382,-110 1382,-129"/>
<text text-anchor="middle" x="1332" y="-117" font-family="Helvetica,sans-Serif" font-size="10.00">IBK_LinearSpline.h</text>
</a>
</g>
</g>
<!-- Node18&#45;&gt;Node19 -->
<g id="edge27_Node000018_Node000019" class="edge">
<title>Node18&#45;&gt;Node19</title>
<g id="a_edge27_Node000018_Node000019"><a xlink:title=" ">
<path fill="none" stroke="#63b8ff" d="M1252.26,-164.98C1267.13,-156.69 1289.98,-143.94 1307.42,-134.22"/>
<polygon fill="#63b8ff" stroke="#63b8ff" points="1309.43,-137.1 1316.46,-129.17 1306.02,-130.99 1309.43,-137.1"/>
</a>
</g>
</g>
<!-- Node20 -->
<g id="Node000020" class="node">
<title>Node20</title>
<g id="a_Node000020"><a xlink:title=" ">
<polygon fill="#e0e0e0" stroke="#999999" points="1465.5,-129 1400.5,-129 1400.5,-110 1465.5,-110 1465.5,-129"/>
<text text-anchor="middle" x="1433" y="-117" font-family="Helvetica,sans-Serif" font-size="10.00">IBK_Flag.h</text>
</a>
</g>
</g>
<!-- Node18&#45;&gt;Node20 -->
<g id="edge28_Node000018_Node000020" class="edge">
<title>Node18&#45;&gt;Node20</title>
<g id="a_edge28_Node000018_Node000020"><a xlink:title=" ">
<path fill="none" stroke="#63b8ff" d="M1268.49,-164.98C1301.82,-155.97 1354.6,-141.7 1391.35,-131.76"/>
<polygon fill="#63b8ff" stroke="#63b8ff" points="1392.52,-135.07 1401.26,-129.08 1390.7,-128.31 1392.52,-135.07"/>
</a>
</g>
</g>
<!-- Node21 -->
<g id="Node000021" class="node">
<title>Node21</title>
<g id="a_Node000021"><a xlink:title=" ">
<polygon fill="#e0e0e0" stroke="#999999" points="1264,-129 1142,-129 1142,-110 1264,-110 1264,-129"/>
<text text-anchor="middle" x="1203" y="-117" font-family="Helvetica,sans-Serif" font-size="10.00">NANDRAD_Schedule.h</text>
</a>
</g>
</g>
<!-- Node18&#45;&gt;Node21 -->
<g id="edge30_Node000018_Node000021" class="edge">
<title>Node18&#45;&gt;Node21</title>
<g id="a_edge30_Node000018_Node000021"><a xlink:title=" ">
<path fill="none" stroke="#63b8ff" d="M1231.39,-164.75C1226.68,-157.42 1219.83,-146.73 1214.03,-137.7"/>
<polygon fill="#63b8ff" stroke="#63b8ff" points="1216.86,-135.62 1208.51,-129.09 1210.96,-139.4 1216.86,-135.62"/>
</a>
</g>
</g>
<!-- Node22 -->
<g id="Node000022" class="node">
<title>Node22</title>
<g id="a_Node000022"><a xlink:href="_v_i_c_u_s___schedule_interval_8h.html" target="_top" xlink:title=" ">
<polygon fill="white" stroke="#666666" points="1124,-129 990,-129 990,-110 1124,-110 1124,-129"/>
<text text-anchor="middle" x="1057" y="-117" font-family="Helvetica,sans-Serif" font-size="10.00">VICUS_ScheduleInterval.h</text>
</a>
</g>
</g>
<!-- Node18&#45;&gt;Node22 -->
<g id="edge33_Node000018_Node000022" class="edge">
<title>Node18&#45;&gt;Node22</title>
<g id="a_edge33_Node000018_Node000022"><a xlink:title=" ">
<path fill="none" stroke="#63b8ff" d="M1208.08,-164.98C1177.73,-156.05 1129.83,-141.94 1096.12,-132.02"/>
<polygon fill="#63b8ff" stroke="#63b8ff" points="1096.73,-128.55 1086.15,-129.08 1094.75,-135.26 1096.73,-128.55"/>
</a>
</g>
</g>
<!-- Node22&#45;&gt;Node5 -->
<g id="edge36_Node000022_Node000005" class="edge">
<title>Node22&#45;&gt;Node5</title>
<g id="a_edge36_Node000022_Node000005"><a xlink:title=" ">
<path fill="none" stroke="#63b8ff" d="M1048.98,-109.99C1040.96,-101.28 1028.48,-87.2 1019,-74 1008.25,-59.03 997.61,-40.9 990.34,-27.85"/>
<polygon fill="#63b8ff" stroke="#63b8ff" points="993.37,-26.09 985.49,-19 987.23,-29.45 993.37,-26.09"/>
</a>
</g>
</g>
<!-- Node22&#45;&gt;Node7 -->
<g id="edge34_Node000022_Node000007" class="edge">
<title>Node22&#45;&gt;Node7</title>
<g id="a_edge34_Node000022_Node000007"><a xlink:title=" ">
<path fill="none" stroke="#63b8ff" d="M1014.1,-109.98C967.63,-100.76 893.41,-86.03 843.24,-76.07"/>
<polygon fill="#63b8ff" stroke="#63b8ff" points="843.72,-72.6 833.23,-74.08 842.36,-79.46 843.72,-72.6"/>
</a>
</g>
</g>
<!-- Node22&#45;&gt;Node12 -->
<g id="edge35_Node000022_Node000012" class="edge">
<title>Node22&#45;&gt;Node12</title>
<g id="a_edge35_Node000022_Node000012"><a xlink:title=" ">
<path fill="none" stroke="#63b8ff" d="M1091.66,-109.94C1170.3,-90.5 1362.2,-43.07 1449.48,-21.5"/>
<polygon fill="#63b8ff" stroke="#63b8ff" points="1450.47,-24.86 1459.34,-19.07 1448.79,-18.07 1450.47,-24.86"/>
</a>
</g>
</g>
<!-- Node23 -->
<g id="Node000023" class="node">
<title>Node23</title>
<g id="a_Node000023"><a xlink:href="_v_i_c_u_s___daily_cycle_8h.html" target="_top" xlink:title=" ">
<polygon fill="white" stroke="#666666" points="1138,-74 1028,-74 1028,-55 1138,-55 1138,-74"/>
<text text-anchor="middle" x="1083" y="-62" font-family="Helvetica,sans-Serif" font-size="10.00">VICUS_DailyCycle.h</text>
</a>
</g>
</g>
<!-- Node22&#45;&gt;Node23 -->
<g id="edge37_Node000022_Node000023" class="edge">
<title>Node22&#45;&gt;Node23</title>
<g id="a_edge37_Node000022_Node000023"><a xlink:title=" ">
<path fill="none" stroke="#63b8ff" d="M1061.29,-109.75C1064.81,-102.57 1069.91,-92.18 1074.28,-83.27"/>
<polygon fill="#63b8ff" stroke="#63b8ff" points="1077.52,-84.61 1078.79,-74.09 1071.24,-81.53 1077.52,-84.61"/>
</a>
</g>
</g>
<!-- Node23&#45;&gt;Node5 -->
<g id="edge40_Node000023_Node000005" class="edge">
<title>Node23&#45;&gt;Node5</title>
<g id="a_edge40_Node000023_Node000005"><a xlink:title=" ">
<path fill="none" stroke="#63b8ff" d="M1066.61,-54.98C1050.43,-46.57 1025.43,-33.59 1006.62,-23.81"/>
<polygon fill="#63b8ff" stroke="#63b8ff" points="1008.17,-20.68 997.69,-19.17 1004.95,-26.89 1008.17,-20.68"/>
</a>
</g>
</g>
<!-- Node23&#45;&gt;Node12 -->
<g id="edge38_Node000023_Node000012" class="edge">
<title>Node23&#45;&gt;Node12</title>
<g id="a_edge38_Node000023_Node000012"><a xlink:title=" ">
<path fill="none" stroke="#63b8ff" d="M1138,-56.41C1209.95,-47.13 1336.39,-30.82 1417.6,-20.35"/>
<polygon fill="#63b8ff" stroke="#63b8ff" points="1418.3,-23.79 1427.77,-19.04 1417.4,-16.85 1418.3,-23.79"/>
</a>
</g>
</g>
<!-- Node23&#45;&gt;Node13 -->
<g id="edge39_Node000023_Node000013" class="edge">
<title>Node23&#45;&gt;Node13</title>
<g id="a_edge39_Node000023_Node000013"><a xlink:title=" ">
<path fill="none" stroke="#63b8ff" d="M1027.98,-59.52C894.99,-49.89 556.62,-25.39 414.93,-15.13"/>
<polygon fill="#63b8ff" stroke="#63b8ff" points="414.89,-11.62 404.67,-14.39 414.39,-18.6 414.89,-11.62"/>
</a>
</g>
</g>
<!-- Node24 -->
<g id="Node000024" class="node">
<title>Node24</title>
<g id="a_Node000024"><a xlink:title=" ">
<polygon fill="#e0e0e0" stroke="#999999" points="1679.5,-19 1638.5,-19 1638.5,0 1679.5,0 1679.5,-19"/>
<text text-anchor="middle" x="1659" y="-7" font-family="Helvetica,sans-Serif" font-size="10.00">string</text>
</a>
</g>
</g>
<!-- Node23&#45;&gt;Node24 -->
<g id="edge41_Node000023_Node000024" class="edge">
<title>Node23&#45;&gt;Node24</title>
<g id="a_edge41_Node000023_Node000024"><a xlink:title=" ">
<path fill="none" stroke="#63b8ff" d="M1138.26,-58.56C1228.73,-50.45 1414.09,-33.73 1571,-19 1589.93,-17.22 1611.14,-15.18 1628,-13.54"/>
<polygon fill="#63b8ff" stroke="#63b8ff" points="1628.76,-16.98 1638.38,-12.52 1628.09,-10.01 1628.76,-16.98"/>
</a>
</g>
</g>
<!-- Node25&#45;&gt;Node14 -->
<g id="edge45_Node000025_Node000014" class="edge">
<title>Node25&#45;&gt;Node14</title>
<g id="a_edge45_Node000025_Node000014"><a xlink:title=" ">
<path fill="none" stroke="#63b8ff" d="M621.88,-164.98C612.56,-157.15 598.53,-145.34 587.26,-135.86"/>
<polygon fill="#63b8ff" stroke="#63b8ff" points="589.21,-132.93 579.31,-129.17 584.71,-138.29 589.21,-132.93"/>
</a>
</g>
</g>
<!-- Node26 -->
<g id="Node000026" class="node">
<title>Node26</title>
<g id="a_Node000026"><a xlink:title=" ">
<polygon fill="#e0e0e0" stroke="#999999" points="781.5,-129 746.5,-129 746.5,-110 781.5,-110 781.5,-129"/>
<text text-anchor="middle" x="764" y="-117" font-family="Helvetica,sans-Serif" font-size="10.00">map</text>
</a>
</g>
</g>
<!-- Node25&#45;&gt;Node26 -->
<g id="edge44_Node000025_Node000026" class="edge">
<title>Node25&#45;&gt;Node26</title>
<g id="a_edge44_Node000025_Node000026"><a xlink:title=" ">
<path fill="none" stroke="#63b8ff" d="M653.21,-164.98C675.88,-155.88 711.91,-141.41 736.69,-131.46"/>
<polygon fill="#63b8ff" stroke="#63b8ff" points="738.25,-134.61 746.23,-127.63 735.65,-128.11 738.25,-134.61"/>
</a>
</g>
</g>
<!-- Node27 -->
<g id="Node000027" class="node">
<title>Node27</title>
<g id="a_Node000027"><a xlink:title=" ">
<polygon fill="#e0e0e0" stroke="#999999" points="728.5,-129 661.5,-129 661.5,-110 728.5,-110 728.5,-129"/>
<text text-anchor="middle" x="695" y="-117" font-family="Helvetica,sans-Serif" font-size="10.00">IBK_Path.h</text>
</a>
</g>
</g>
<!-- Node25&#45;&gt;Node27 -->
<g id="edge46_Node000025_Node000027" class="edge">
<title>Node25&#45;&gt;Node27</title>
<g id="a_edge46_Node000025_Node000027"><a xlink:title=" ">
<path fill="none" stroke="#63b8ff" d="M642.12,-164.98C651.44,-157.15 665.47,-145.34 676.74,-135.86"/>
<polygon fill="#63b8ff" stroke="#63b8ff" points="679.29,-138.29 684.69,-129.17 674.79,-132.93 679.29,-138.29"/>
</a>
</g>
</g>
<!-- Node25&#45;&gt;Node28 -->
<g id="edge47_Node000025_Node000028" class="edge">
<title>Node25&#45;&gt;Node28</title>
<g id="a_edge47_Node000025_Node000028"><a xlink:title=" ">
<path fill="none" stroke="#63b8ff" d="M587.82,-164.98C539.85,-155.74 463.19,-140.97 411.52,-131.01"/>
<polygon fill="#63b8ff" stroke="#63b8ff" points="412.01,-127.54 401.53,-129.08 410.69,-134.41 412.01,-127.54"/>
</a>
</g>
</g>
<!-- Node25&#45;&gt;Node29 -->
<g id="edge48_Node000025_Node000029" class="edge">
<title>Node25&#45;&gt;Node29</title>
<g id="a_edge48_Node000025_Node000029"><a xlink:title=" ">
<path fill="none" stroke="#63b8ff" d="M602.6,-164.98C571.15,-155.88 521.17,-141.4 486.81,-131.45"/>
<polygon fill="#63b8ff" stroke="#63b8ff" points="487.71,-128.07 477.13,-128.65 485.76,-134.79 487.71,-128.07"/>
</a>
</g>
</g>
<!-- Node30&#45;&gt;Node6 -->
<g id="edge53_Node000030_Node000006" class="edge">
<title>Node30&#45;&gt;Node6</title>
<g id="a_edge53_Node000030_Node000006"><a xlink:title=" ">
<path fill="none" stroke="#63b8ff" d="M1705.04,-164.98C1685.97,-156.42 1656.34,-143.11 1634.45,-133.28"/>
<polygon fill="#63b8ff" stroke="#63b8ff" points="1635.86,-130.07 1625.3,-129.17 1632.99,-136.46 1635.86,-130.07"/>
</a>
</g>
</g>
<!-- Node30&#45;&gt;Node24 -->
<g id="edge51_Node000030_Node000024" class="edge">
<title>Node30&#45;&gt;Node24</title>
<g id="a_edge51_Node000030_Node000024"><a xlink:title=" ">
<path fill="none" stroke="#63b8ff" d="M1723.05,-164.74C1720.59,-144.5 1712.83,-93.27 1694,-55 1688.98,-44.79 1681.34,-34.71 1674.48,-26.74"/>
<polygon fill="#63b8ff" stroke="#63b8ff" points="1677.04,-24.36 1667.75,-19.27 1671.84,-29.04 1677.04,-24.36"/>
</a>
</g>
</g>
<!-- Node31 -->
<g id="Node000031" class="node">
<title>Node31</title>
<g id="a_Node000031"><a xlink:title=" ">
<polygon fill="#e0e0e0" stroke="#999999" points="1797.5,-129 1746.5,-129 1746.5,-110 1797.5,-110 1797.5,-129"/>
<text text-anchor="middle" x="1772" y="-117" font-family="Helvetica,sans-Serif" font-size="10.00">typeinfo</text>
</a>
</g>
</g>
<!-- Node30&#45;&gt;Node31 -->
<g id="edge52_Node000030_Node000031" class="edge">
<title>Node30&#45;&gt;Node31</title>
<g id="a_edge52_Node000030_Node000031"><a xlink:title=" ">
<path fill="none" stroke="#63b8ff" d="M1731.93,-164.75C1738.85,-157.11 1749.07,-145.82 1757.45,-136.56"/>
<polygon fill="#63b8ff" stroke="#63b8ff" points="1760.1,-138.85 1764.22,-129.09 1754.91,-134.15 1760.1,-138.85"/>
</a>
</g>
</g>
<!-- Node32 -->
<g id="Node000032" class="node">
<title>Node32</title>
<g id="a_Node000032"><a xlink:title=" ">
<polygon fill="#e0e0e0" stroke="#999999" points="1894,-129 1816,-129 1816,-110 1894,-110 1894,-129"/>
<text text-anchor="middle" x="1855" y="-117" font-family="Helvetica,sans-Serif" font-size="10.00">IBK_IntPara.h</text>
</a>
</g>
</g>
<!-- Node30&#45;&gt;Node32 -->
<g id="edge54_Node000030_Node000032" class="edge">
<title>Node30&#45;&gt;Node32</title>
<g id="a_edge54_Node000030_Node000032"><a xlink:title=" ">
<path fill="none" stroke="#63b8ff" d="M1745.05,-164.98C1766.41,-156.34 1799.7,-142.87 1824.06,-133.02"/>
<polygon fill="#63b8ff" stroke="#63b8ff" points="1825.61,-136.17 1833.57,-129.17 1822.99,-129.68 1825.61,-136.17"/>
</a>
</g>
</g>
</g>
</svg>
