<?xml version="1.0" encoding="UTF-8" standalone="no"?>
<!DOCTYPE svg PUBLIC "-//W3C//DTD SVG 1.1//EN"
 "http://www.w3.org/Graphics/SVG/1.1/DTD/svg11.dtd">
<!-- Generated by graphviz version 2.43.0 (0)
 -->
<!-- Title: /home/hirth/git/SIM&#45;VICUS.master2/externals/Vicus/src/ncg/ncg_VICUS_NetworkEdge.cpp Pages: 1 -->
<svg width="2591pt" height="412pt"
 viewBox="0.00 0.00 2590.50 412.00" xmlns="http://www.w3.org/2000/svg" xmlns:xlink="http://www.w3.org/1999/xlink">
<g id="graph0" class="graph" transform="scale(1 1) rotate(0) translate(4 408)">
<title>/home/hirth/git/SIM&#45;VICUS.master2/externals/Vicus/src/ncg/ncg_VICUS_NetworkEdge.cpp</title>
<!-- Node1 -->
<g id="Node000001" class="node">
<title>Node1</title>
<g id="a_Node000001"><a xlink:title=" ">
<polygon fill="#999999" stroke="#666666" points="2271,-404 2136,-404 2136,-352 2271,-352 2271,-404"/>
<text text-anchor="start" x="2144" y="-392" font-family="Helvetica,sans-Serif" font-size="10.00">/home/hirth/git/SIM</text>
<text text-anchor="start" x="2144" y="-381" font-family="Helvetica,sans-Serif" font-size="10.00">&#45;VICUS.master2/externals</text>
<text text-anchor="start" x="2144" y="-370" font-family="Helvetica,sans-Serif" font-size="10.00">/Vicus/src/ncg/ncg_VICUS</text>
<text text-anchor="middle" x="2203.5" y="-359" font-family="Helvetica,sans-Serif" font-size="10.00">_NetworkEdge.cpp</text>
</a>
</g>
</g>
<!-- Node2 -->
<g id="Node000002" class="node">
<title>Node2</title>
<g id="a_Node000002"><a xlink:href="_v_i_c_u_s___network_edge_8h.html" target="_top" xlink:title=" ">
<polygon fill="white" stroke="#666666" points="1025,-316 904,-316 904,-297 1025,-297 1025,-316"/>
<text text-anchor="middle" x="964.5" y="-304" font-family="Helvetica,sans-Serif" font-size="10.00">VICUS_NetworkEdge.h</text>
</a>
</g>
</g>
<!-- Node1&#45;&gt;Node2 -->
<g id="edge1_Node000001_Node000002" class="edge">
<title>Node1&#45;&gt;Node2</title>
<g id="a_edge1_Node000001_Node000002"><a xlink:title=" ">
<path fill="none" stroke="#63b8ff" d="M2135.56,-373.19C1920.32,-361.12 1254.78,-323.78 1035.43,-311.48"/>
<polygon fill="#63b8ff" stroke="#63b8ff" points="1035.5,-307.98 1025.32,-310.91 1035.11,-314.97 1035.5,-307.98"/>
</a>
</g>
</g>
<!-- Node4 -->
<g id="Node000004" class="node">
<title>Node4</title>
<g id="a_Node000004"><a xlink:href="_v_i_c_u_s___constants_8h.html" target="_top" xlink:title="Contains global constants for the SIM&#45;VICUS data model.">
<polygon fill="white" stroke="#666666" points="857,-19 750,-19 750,0 857,0 857,-19"/>
<text text-anchor="middle" x="803.5" y="-7" font-family="Helvetica,sans-Serif" font-size="10.00">VICUS_Constants.h</text>
</a>
</g>
</g>
<!-- Node1&#45;&gt;Node4 -->
<g id="edge71_Node000001_Node000004" class="edge">
<title>Node1&#45;&gt;Node4</title>
<g id="a_edge71_Node000001_Node000004"><a xlink:title=" ">
<path fill="none" stroke="#63b8ff" d="M2135.9,-375.46C1903.57,-369.92 1138.86,-349.51 895.5,-316 787.95,-301.19 762.06,-290.23 657.5,-261 452.67,-203.73 329.08,-262.89 212.5,-85 205.19,-73.85 203.43,-64.78 212.5,-55 247.78,-16.97 594.21,-11.24 739.69,-10.52"/>
<polygon fill="#63b8ff" stroke="#63b8ff" points="739.82,-14.02 749.81,-10.48 739.79,-7.02 739.82,-14.02"/>
</a>
</g>
</g>
<!-- Node24 -->
<g id="Node000024" class="node">
<title>Node24</title>
<g id="a_Node000024"><a xlink:title=" ">
<polygon fill="#e0e0e0" stroke="#999999" points="2202.5,-140 2110.5,-140 2110.5,-121 2202.5,-121 2202.5,-140"/>
<text text-anchor="middle" x="2156.5" y="-128" font-family="Helvetica,sans-Serif" font-size="10.00">IBK_messages.h</text>
</a>
</g>
</g>
<!-- Node1&#45;&gt;Node24 -->
<g id="edge68_Node000001_Node000024" class="edge">
<title>Node1&#45;&gt;Node24</title>
<g id="a_edge68_Node000001_Node000024"><a xlink:title=" ">
<path fill="none" stroke="#63b8ff" d="M2198.65,-351.65C2189.17,-302.17 2168.42,-193.75 2160.08,-150.18"/>
<polygon fill="#63b8ff" stroke="#63b8ff" points="2163.47,-149.3 2158.15,-140.14 2156.6,-150.62 2163.47,-149.3"/>
</a>
</g>
</g>
<!-- Node25 -->
<g id="Node000025" class="node">
<title>Node25</title>
<g id="a_Node000025"><a xlink:title=" ">
<polygon fill="#e0e0e0" stroke="#999999" points="2276.5,-140 2220.5,-140 2220.5,-121 2276.5,-121 2276.5,-140"/>
<text text-anchor="middle" x="2248.5" y="-128" font-family="Helvetica,sans-Serif" font-size="10.00">tinyxml.h</text>
</a>
</g>
</g>
<!-- Node1&#45;&gt;Node25 -->
<g id="edge73_Node000001_Node000025" class="edge">
<title>Node1&#45;&gt;Node25</title>
<g id="a_edge73_Node000001_Node000025"><a xlink:title=" ">
<path fill="none" stroke="#63b8ff" d="M2208.15,-351.65C2217.22,-302.17 2237.09,-193.75 2245.08,-150.18"/>
<polygon fill="#63b8ff" stroke="#63b8ff" points="2248.56,-150.61 2246.92,-140.14 2241.67,-149.34 2248.56,-150.61"/>
</a>
</g>
</g>
<!-- Node33 -->
<g id="Node000033" class="node">
<title>Node33</title>
<g id="a_Node000033"><a xlink:href="_v_i_c_u_s___keyword_list_8h.html" target="_top" xlink:title="Contains the declaration of class KeywordList.">
<polygon fill="white" stroke="#666666" points="125.5,-261 9.5,-261 9.5,-242 125.5,-242 125.5,-261"/>
<text text-anchor="middle" x="67.5" y="-249" font-family="Helvetica,sans-Serif" font-size="10.00">VICUS_KeywordList.h</text>
</a>
</g>
</g>
<!-- Node1&#45;&gt;Node33 -->
<g id="edge63_Node000001_Node000033" class="edge">
<title>Node1&#45;&gt;Node33</title>
<g id="a_edge63_Node000001_Node000033"><a xlink:title=" ">
<path fill="none" stroke="#63b8ff" d="M2135.98,-376.29C1790.63,-372.51 234.32,-353.45 139.5,-316 115.14,-306.38 93.55,-284.64 80.52,-269.29"/>
<polygon fill="#63b8ff" stroke="#63b8ff" points="82.9,-266.67 73.87,-261.12 77.47,-271.09 82.9,-266.67"/>
</a>
</g>
</g>
<!-- Node35 -->
<g id="Node000035" class="node">
<title>Node35</title>
<g id="a_Node000035"><a xlink:title=" ">
<polygon fill="#e0e0e0" stroke="#999999" points="2340.5,-316 2250.5,-316 2250.5,-297 2340.5,-297 2340.5,-316"/>
<text text-anchor="middle" x="2295.5" y="-304" font-family="Helvetica,sans-Serif" font-size="10.00">IBK_Exception.h</text>
</a>
</g>
</g>
<!-- Node1&#45;&gt;Node35 -->
<g id="edge69_Node000001_Node000035" class="edge">
<title>Node1&#45;&gt;Node35</title>
<g id="a_edge69_Node000001_Node000035"><a xlink:title=" ">
<path fill="none" stroke="#63b8ff" d="M2236.71,-351.91C2249.84,-341.99 2264.47,-330.94 2275.86,-322.34"/>
<polygon fill="#63b8ff" stroke="#63b8ff" points="2277.98,-325.12 2283.85,-316.3 2273.76,-319.54 2277.98,-325.12"/>
</a>
</g>
</g>
<!-- Node36 -->
<g id="Node000036" class="node">
<title>Node36</title>
<g id="a_Node000036"><a xlink:title=" ">
<polygon fill="#e0e0e0" stroke="#999999" points="2450.5,-316 2358.5,-316 2358.5,-297 2450.5,-297 2450.5,-316"/>
<text text-anchor="middle" x="2404.5" y="-304" font-family="Helvetica,sans-Serif" font-size="10.00">IBK_StringUtils.h</text>
</a>
</g>
</g>
<!-- Node1&#45;&gt;Node36 -->
<g id="edge70_Node000001_Node000036" class="edge">
<title>Node1&#45;&gt;Node36</title>
<g id="a_edge70_Node000001_Node000036"><a xlink:title=" ">
<path fill="none" stroke="#63b8ff" d="M2271.27,-353.57C2304.42,-342.11 2342.9,-328.8 2369.95,-319.44"/>
<polygon fill="#63b8ff" stroke="#63b8ff" points="2371.42,-322.64 2379.73,-316.06 2369.14,-316.02 2371.42,-322.64"/>
</a>
</g>
</g>
<!-- Node37 -->
<g id="Node000037" class="node">
<title>Node37</title>
<g id="a_Node000037"><a xlink:title=" ">
<polygon fill="#e0e0e0" stroke="#999999" points="2582.5,-316 2468.5,-316 2468.5,-297 2582.5,-297 2582.5,-316"/>
<text text-anchor="middle" x="2525.5" y="-304" font-family="Helvetica,sans-Serif" font-size="10.00">NANDRAD_Utilities.h</text>
</a>
</g>
</g>
<!-- Node1&#45;&gt;Node37 -->
<g id="edge72_Node000001_Node000037" class="edge">
<title>Node1&#45;&gt;Node37</title>
<g id="a_edge72_Node000001_Node000037"><a xlink:title=" ">
<path fill="none" stroke="#63b8ff" d="M2271,-362.43C2332.29,-349.2 2421.23,-330.01 2476.11,-318.16"/>
<polygon fill="#63b8ff" stroke="#63b8ff" points="2476.91,-321.57 2485.95,-316.04 2475.43,-314.73 2476.91,-321.57"/>
</a>
</g>
</g>
<!-- Node3 -->
<g id="Node000003" class="node">
<title>Node3</title>
<g id="a_Node000003"><a xlink:href="_v_i_c_u_s___network_node_8h.html" target="_top" xlink:title=" ">
<polygon fill="white" stroke="#666666" points="699.5,-140 577.5,-140 577.5,-121 699.5,-121 699.5,-140"/>
<text text-anchor="middle" x="638.5" y="-128" font-family="Helvetica,sans-Serif" font-size="10.00">VICUS_NetworkNode.h</text>
</a>
</g>
</g>
<!-- Node2&#45;&gt;Node3 -->
<g id="edge2_Node000002_Node000003" class="edge">
<title>Node2&#45;&gt;Node3</title>
<g id="a_edge2_Node000002_Node000003"><a xlink:title=" ">
<path fill="none" stroke="#63b8ff" d="M903.93,-299.14C847.04,-292.16 766.96,-279.44 741.5,-261 706.36,-235.55 721.53,-209.12 693.5,-176 683.86,-164.61 670.98,-154 660.11,-146.01"/>
<polygon fill="#63b8ff" stroke="#63b8ff" points="662.1,-143.13 651.92,-140.19 658.04,-148.83 662.1,-143.13"/>
</a>
</g>
</g>
<!-- Node2&#45;&gt;Node4 -->
<g id="edge16_Node000002_Node000004" class="edge">
<title>Node2&#45;&gt;Node4</title>
<g id="a_edge16_Node000002_Node000004"><a xlink:title=" ">
<path fill="none" stroke="#63b8ff" d="M948.69,-296.88C922.34,-281.76 869.3,-248.05 838.5,-206 797.6,-150.17 798.17,-124.16 800.5,-55 800.79,-46.48 801.38,-37.06 801.97,-29.08"/>
<polygon fill="#63b8ff" stroke="#63b8ff" points="805.46,-29.26 802.75,-19.02 798.48,-28.72 805.46,-29.26"/>
</a>
</g>
</g>
<!-- Node5 -->
<g id="Node000005" class="node">
<title>Node5</title>
<g id="a_Node000005"><a xlink:href="_v_i_c_u_s___code_gen_macros_8h.html" target="_top" xlink:title=" ">
<polygon fill="white" stroke="#666666" points="1555,-19 1420,-19 1420,0 1555,0 1555,-19"/>
<text text-anchor="middle" x="1487.5" y="-7" font-family="Helvetica,sans-Serif" font-size="10.00">VICUS_CodeGenMacros.h</text>
</a>
</g>
</g>
<!-- Node2&#45;&gt;Node5 -->
<g id="edge17_Node000002_Node000005" class="edge">
<title>Node2&#45;&gt;Node5</title>
<g id="a_edge17_Node000002_Node000005"><a xlink:title=" ">
<path fill="none" stroke="#63b8ff" d="M1025.06,-302.97C1274.14,-291.89 2210.05,-243.56 2285.5,-140 2372.1,-21.15 1782.25,-10.1 1565.34,-10"/>
<polygon fill="#63b8ff" stroke="#63b8ff" points="1565.29,-6.5 1555.3,-10.01 1565.3,-13.5 1565.29,-6.5"/>
</a>
</g>
</g>
<!-- Node6 -->
<g id="Node000006" class="node">
<title>Node6</title>
<g id="a_Node000006"><a xlink:href="_v_i_c_u_s___object_8h.html" target="_top" xlink:title=" ">
<polygon fill="white" stroke="#666666" points="311.5,-79.5 221.5,-79.5 221.5,-60.5 311.5,-60.5 311.5,-79.5"/>
<text text-anchor="middle" x="266.5" y="-67.5" font-family="Helvetica,sans-Serif" font-size="10.00">VICUS_Object.h</text>
</a>
</g>
</g>
<!-- Node2&#45;&gt;Node6 -->
<g id="edge18_Node000002_Node000006" class="edge">
<title>Node2&#45;&gt;Node6</title>
<g id="a_edge18_Node000002_Node000006"><a xlink:title=" ">
<path fill="none" stroke="#63b8ff" d="M903.99,-298.32C853.66,-291.45 780.5,-279.4 718.5,-261 550.49,-211.15 360.38,-118.6 292.38,-84.27"/>
<polygon fill="#63b8ff" stroke="#63b8ff" points="293.75,-81.04 283.25,-79.64 290.58,-87.28 293.75,-81.04"/>
</a>
</g>
</g>
<!-- Node14 -->
<g id="Node000014" class="node">
<title>Node14</title>
<g id="a_Node000014"><a xlink:href="_v_i_c_u_s___network_pipe_8h.html" target="_top" xlink:title=" ">
<polygon fill="white" stroke="#666666" points="1023.5,-200.5 905.5,-200.5 905.5,-181.5 1023.5,-181.5 1023.5,-200.5"/>
<text text-anchor="middle" x="964.5" y="-188.5" font-family="Helvetica,sans-Serif" font-size="10.00">VICUS_NetworkPipe.h</text>
</a>
</g>
</g>
<!-- Node2&#45;&gt;Node14 -->
<g id="edge19_Node000002_Node000014" class="edge">
<title>Node2&#45;&gt;Node14</title>
<g id="a_edge19_Node000002_Node000014"><a xlink:title=" ">
<path fill="none" stroke="#63b8ff" d="M964.5,-296.97C964.5,-278.73 964.5,-235.57 964.5,-210.64"/>
<polygon fill="#63b8ff" stroke="#63b8ff" points="968,-210.63 964.5,-200.63 961,-210.63 968,-210.63"/>
</a>
</g>
</g>
<!-- Node19 -->
<g id="Node000019" class="node">
<title>Node19</title>
<g id="a_Node000019"><a xlink:href="_v_i_c_u_s___network_component_8h.html" target="_top" xlink:title=" ">
<polygon fill="white" stroke="#666666" points="1270,-261 1121,-261 1121,-242 1270,-242 1270,-261"/>
<text text-anchor="middle" x="1195.5" y="-249" font-family="Helvetica,sans-Serif" font-size="10.00">VICUS_NetworkComponent.h</text>
</a>
</g>
</g>
<!-- Node2&#45;&gt;Node19 -->
<g id="edge31_Node000002_Node000019" class="edge">
<title>Node2&#45;&gt;Node19</title>
<g id="a_edge31_Node000002_Node000019"><a xlink:title=" ">
<path fill="none" stroke="#63b8ff" d="M1001.61,-296.98C1041.49,-287.84 1104.96,-273.27 1148.34,-263.32"/>
<polygon fill="#63b8ff" stroke="#63b8ff" points="1149.13,-266.73 1158.09,-261.08 1147.57,-259.91 1149.13,-266.73"/>
</a>
</g>
</g>
<!-- Node3&#45;&gt;Node4 -->
<g id="edge3_Node000003_Node000004" class="edge">
<title>Node3&#45;&gt;Node4</title>
<g id="a_edge3_Node000003_Node000004"><a xlink:title=" ">
<path fill="none" stroke="#63b8ff" d="M645.62,-120.77C658.14,-105.84 685.43,-75.07 713.5,-55 731.57,-42.09 753.94,-31 771.86,-23.13"/>
<polygon fill="#63b8ff" stroke="#63b8ff" points="773.49,-26.24 781.3,-19.09 770.73,-19.8 773.49,-26.24"/>
</a>
</g>
</g>
<!-- Node3&#45;&gt;Node5 -->
<g id="edge4_Node000003_Node000005" class="edge">
<title>Node3&#45;&gt;Node5</title>
<g id="a_edge4_Node000003_Node000005"><a xlink:title=" ">
<path fill="none" stroke="#63b8ff" d="M699.77,-127.26C861.65,-121.11 1292.6,-103.23 1354.5,-85 1398.14,-72.15 1443.14,-42.97 1468,-25.18"/>
<polygon fill="#63b8ff" stroke="#63b8ff" points="1470.19,-27.91 1476.2,-19.19 1466.06,-22.26 1470.19,-27.91"/>
</a>
</g>
</g>
<!-- Node3&#45;&gt;Node6 -->
<g id="edge5_Node000003_Node000006" class="edge">
<title>Node3&#45;&gt;Node6</title>
<g id="a_edge5_Node000003_Node000006"><a xlink:title=" ">
<path fill="none" stroke="#63b8ff" d="M577.49,-123.07C513.21,-115.8 409.21,-102.65 320.5,-85 316.05,-84.12 311.42,-83.09 306.83,-81.99"/>
<polygon fill="#63b8ff" stroke="#63b8ff" points="307.46,-78.55 296.92,-79.54 305.78,-85.34 307.46,-78.55"/>
</a>
</g>
</g>
<!-- Node7 -->
<g id="Node000007" class="node">
<title>Node7</title>
<g id="a_Node000007"><a xlink:title=" ">
<polygon fill="#e0e0e0" stroke="#999999" points="1005.5,-19 961.5,-19 961.5,0 1005.5,0 1005.5,-19"/>
<text text-anchor="middle" x="983.5" y="-7" font-family="Helvetica,sans-Serif" font-size="10.00">vector</text>
</a>
</g>
</g>
<!-- Node3&#45;&gt;Node7 -->
<g id="edge11_Node000003_Node000007" class="edge">
<title>Node3&#45;&gt;Node7</title>
<g id="a_edge11_Node000003_Node000007"><a xlink:title=" ">
<path fill="none" stroke="#63b8ff" d="M657.68,-120.95C690.98,-106.29 761.86,-75.91 823.5,-55 867.23,-40.16 918.87,-26.47 951.41,-18.3"/>
<polygon fill="#63b8ff" stroke="#63b8ff" points="952.41,-21.66 961.26,-15.85 950.71,-14.87 952.41,-21.66"/>
</a>
</g>
</g>
<!-- Node8 -->
<g id="Node000008" class="node">
<title>Node8</title>
<g id="a_Node000008"><a xlink:title=" ">
<polygon fill="#e0e0e0" stroke="#999999" points="223.5,-19 193.5,-19 193.5,0 223.5,0 223.5,-19"/>
<text text-anchor="middle" x="208.5" y="-7" font-family="Helvetica,sans-Serif" font-size="10.00">set</text>
</a>
</g>
</g>
<!-- Node3&#45;&gt;Node8 -->
<g id="edge12_Node000003_Node000008" class="edge">
<title>Node3&#45;&gt;Node8</title>
<g id="a_edge12_Node000003_Node000008"><a xlink:title=" ">
<path fill="none" stroke="#63b8ff" d="M577.42,-127.43C465.61,-123.03 237.16,-110.93 212.5,-85 198.59,-70.37 200.13,-45.94 203.47,-29.06"/>
<polygon fill="#63b8ff" stroke="#63b8ff" points="206.9,-29.78 205.78,-19.25 200.08,-28.18 206.9,-29.78"/>
</a>
</g>
</g>
<!-- Node10 -->
<g id="Node000010" class="node">
<title>Node10</title>
<g id="a_Node000010"><a xlink:title=" ">
<polygon fill="#e0e0e0" stroke="#999999" points="481,-85 330,-85 330,-55 481,-55 481,-85"/>
<text text-anchor="start" x="338" y="-73" font-family="Helvetica,sans-Serif" font-size="10.00">NANDRAD_HydraulicNetwork</text>
<text text-anchor="middle" x="405.5" y="-62" font-family="Helvetica,sans-Serif" font-size="10.00">HeatExchange.h</text>
</a>
</g>
</g>
<!-- Node3&#45;&gt;Node10 -->
<g id="edge10_Node000003_Node000010" class="edge">
<title>Node3&#45;&gt;Node10</title>
<g id="a_edge10_Node000003_Node000010"><a xlink:title=" ">
<path fill="none" stroke="#63b8ff" d="M604.62,-120.99C569.84,-112.26 514.83,-98.45 471.43,-87.55"/>
<polygon fill="#63b8ff" stroke="#63b8ff" points="472.07,-84.1 461.52,-85.06 470.36,-90.89 472.07,-84.1"/>
</a>
</g>
</g>
<!-- Node11 -->
<g id="Node000011" class="node">
<title>Node11</title>
<g id="a_Node000011"><a xlink:title=" ">
<polygon fill="#e0e0e0" stroke="#999999" points="539.5,-79.5 499.5,-79.5 499.5,-60.5 539.5,-60.5 539.5,-79.5"/>
<text text-anchor="middle" x="519.5" y="-67.5" font-family="Helvetica,sans-Serif" font-size="10.00">limits</text>
</a>
</g>
</g>
<!-- Node3&#45;&gt;Node11 -->
<g id="edge13_Node000003_Node000011" class="edge">
<title>Node3&#45;&gt;Node11</title>
<g id="a_edge13_Node000003_Node000011"><a xlink:title=" ">
<path fill="none" stroke="#63b8ff" d="M621.2,-120.99C601.45,-111.29 568.95,-95.31 546.01,-84.03"/>
<polygon fill="#63b8ff" stroke="#63b8ff" points="547.34,-80.79 536.82,-79.52 544.25,-87.07 547.34,-80.79"/>
</a>
</g>
</g>
<!-- Node12 -->
<g id="Node000012" class="node">
<title>Node12</title>
<g id="a_Node000012"><a xlink:title=" ">
<polygon fill="#e0e0e0" stroke="#999999" points="661,-79.5 558,-79.5 558,-60.5 661,-60.5 661,-79.5"/>
<text text-anchor="middle" x="609.5" y="-67.5" font-family="Helvetica,sans-Serif" font-size="10.00">IBKMK_Vector3D.h</text>
</a>
</g>
</g>
<!-- Node3&#45;&gt;Node12 -->
<g id="edge14_Node000003_Node000012" class="edge">
<title>Node3&#45;&gt;Node12</title>
<g id="a_edge14_Node000003_Node000012"><a xlink:title=" ">
<path fill="none" stroke="#63b8ff" d="M634.22,-120.87C630.07,-112.49 623.63,-99.51 618.37,-88.89"/>
<polygon fill="#63b8ff" stroke="#63b8ff" points="621.37,-87.07 613.8,-79.67 615.1,-90.18 621.37,-87.07"/>
</a>
</g>
</g>
<!-- Node13 -->
<g id="Node000013" class="node">
<title>Node13</title>
<g id="a_Node000013"><a xlink:title=" ">
<polygon fill="#e0e0e0" stroke="#999999" points="879,-79.5 832,-79.5 832,-60.5 879,-60.5 879,-79.5"/>
<text text-anchor="middle" x="855.5" y="-67.5" font-family="Helvetica,sans-Serif" font-size="10.00">QColor</text>
</a>
</g>
</g>
<!-- Node3&#45;&gt;Node13 -->
<g id="edge15_Node000003_Node000013" class="edge">
<title>Node3&#45;&gt;Node13</title>
<g id="a_edge15_Node000003_Node000013"><a xlink:title=" ">
<path fill="none" stroke="#63b8ff" d="M670.05,-120.99C710.58,-110.07 780.62,-91.19 822.05,-80.02"/>
<polygon fill="#63b8ff" stroke="#63b8ff" points="823.18,-83.34 831.93,-77.35 821.36,-76.58 823.18,-83.34"/>
</a>
</g>
</g>
<!-- Node6&#45;&gt;Node4 -->
<g id="edge9_Node000006_Node000004" class="edge">
<title>Node6&#45;&gt;Node4</title>
<g id="a_edge9_Node000006_Node000004"><a xlink:title=" ">
<path fill="none" stroke="#63b8ff" d="M295.74,-60.5C303.71,-58.43 312.39,-56.42 320.5,-55 469.42,-29.01 647,-17.59 739.81,-13.08"/>
<polygon fill="#63b8ff" stroke="#63b8ff" points="740.06,-16.58 749.88,-12.61 739.73,-9.58 740.06,-16.58"/>
</a>
</g>
</g>
<!-- Node6&#45;&gt;Node7 -->
<g id="edge6_Node000006_Node000007" class="edge">
<title>Node6&#45;&gt;Node7</title>
<g id="a_edge6_Node000006_Node000007"><a xlink:title=" ">
<path fill="none" stroke="#63b8ff" d="M295.43,-60.43C303.48,-58.34 312.28,-56.32 320.5,-55 560.6,-16.31 623.89,-35.81 866.5,-19 895.04,-17.02 927.49,-14.66 950.97,-12.92"/>
<polygon fill="#63b8ff" stroke="#63b8ff" points="951.36,-16.4 961.07,-12.17 950.84,-9.42 951.36,-16.4"/>
</a>
</g>
</g>
<!-- Node6&#45;&gt;Node8 -->
<g id="edge7_Node000006_Node000008" class="edge">
<title>Node6&#45;&gt;Node8</title>
<g id="a_edge7_Node000006_Node000008"><a xlink:title=" ">
<path fill="none" stroke="#63b8ff" d="M257.94,-60.37C249.12,-51.47 235.16,-37.39 224.32,-26.45"/>
<polygon fill="#63b8ff" stroke="#63b8ff" points="226.62,-23.8 217.09,-19.17 221.65,-28.73 226.62,-23.8"/>
</a>
</g>
</g>
<!-- Node9 -->
<g id="Node000009" class="node">
<title>Node9</title>
<g id="a_Node000009"><a xlink:title=" ">
<polygon fill="#e0e0e0" stroke="#999999" points="291.5,-19 241.5,-19 241.5,0 291.5,0 291.5,-19"/>
<text text-anchor="middle" x="266.5" y="-7" font-family="Helvetica,sans-Serif" font-size="10.00">QString</text>
</a>
</g>
</g>
<!-- Node6&#45;&gt;Node9 -->
<g id="edge8_Node000006_Node000009" class="edge">
<title>Node6&#45;&gt;Node9</title>
<g id="a_edge8_Node000006_Node000009"><a xlink:title=" ">
<path fill="none" stroke="#63b8ff" d="M266.5,-60.37C266.5,-52.25 266.5,-39.81 266.5,-29.39"/>
<polygon fill="#63b8ff" stroke="#63b8ff" points="270,-29.17 266.5,-19.17 263,-29.17 270,-29.17"/>
</a>
</g>
</g>
<!-- Node14&#45;&gt;Node4 -->
<g id="edge23_Node000014_Node000004" class="edge">
<title>Node14&#45;&gt;Node4</title>
<g id="a_edge23_Node000014_Node000004"><a xlink:title=" ">
<path fill="none" stroke="#63b8ff" d="M961.61,-181.32C953.49,-158.11 928.46,-93.76 888.5,-55 874.11,-41.04 854.46,-30.37 837.67,-22.98"/>
<polygon fill="#63b8ff" stroke="#63b8ff" points="838.76,-19.64 828.19,-19.01 836.06,-26.1 838.76,-19.64"/>
</a>
</g>
</g>
<!-- Node14&#45;&gt;Node5 -->
<g id="edge22_Node000014_Node000005" class="edge">
<title>Node14&#45;&gt;Node5</title>
<g id="a_edge22_Node000014_Node000005"><a xlink:title=" ">
<path fill="none" stroke="#63b8ff" d="M1023.63,-188.16C1149.86,-183.66 1436.85,-170.2 1468.5,-140 1498.55,-111.32 1495.37,-57.56 1491.1,-29.17"/>
<polygon fill="#63b8ff" stroke="#63b8ff" points="1494.5,-28.27 1489.35,-19.01 1487.6,-29.46 1494.5,-28.27"/>
</a>
</g>
</g>
<!-- Node14&#45;&gt;Node7 -->
<g id="edge21_Node000014_Node000007" class="edge">
<title>Node14&#45;&gt;Node7</title>
<g id="a_edge21_Node000014_Node000007"><a xlink:title=" ">
<path fill="none" stroke="#63b8ff" d="M965.42,-181.34C968.33,-153.8 977.44,-67.76 981.51,-29.34"/>
<polygon fill="#63b8ff" stroke="#63b8ff" points="985.02,-29.38 982.59,-19.07 978.06,-28.65 985.02,-29.38"/>
</a>
</g>
</g>
<!-- Node14&#45;&gt;Node13 -->
<g id="edge30_Node000014_Node000013" class="edge">
<title>Node14&#45;&gt;Node13</title>
<g id="a_edge30_Node000014_Node000013"><a xlink:title=" ">
<path fill="none" stroke="#63b8ff" d="M948.24,-181.43C932.71,-172.63 909.39,-157.75 893.5,-140 879.99,-124.92 869.4,-104.2 862.87,-89.41"/>
<polygon fill="#63b8ff" stroke="#63b8ff" points="865.95,-87.71 858.84,-79.86 859.5,-90.43 865.95,-87.71"/>
</a>
</g>
</g>
<!-- Node15 -->
<g id="Node000015" class="node">
<title>Node15</title>
<g id="a_Node000015"><a xlink:title=" ">
<polygon fill="#e0e0e0" stroke="#999999" points="175,-19 134,-19 134,0 175,0 175,-19"/>
<text text-anchor="middle" x="154.5" y="-7" font-family="Helvetica,sans-Serif" font-size="10.00">string</text>
</a>
</g>
</g>
<!-- Node14&#45;&gt;Node15 -->
<g id="edge20_Node000014_Node000015" class="edge">
<title>Node14&#45;&gt;Node15</title>
<g id="a_edge20_Node000014_Node000015"><a xlink:title=" ">
<path fill="none" stroke="#63b8ff" d="M905.36,-184.94C735.73,-170.02 255.92,-124.73 197.5,-85 177.87,-71.65 166.03,-46.14 159.89,-28.73"/>
<polygon fill="#63b8ff" stroke="#63b8ff" points="163.18,-27.55 156.77,-19.12 156.52,-29.71 163.18,-27.55"/>
</a>
</g>
</g>
<!-- Node16 -->
<g id="Node000016" class="node">
<title>Node16</title>
<g id="a_Node000016"><a xlink:href="_v_i_c_u_s___abstract_d_b_element_8h.html" target="_top" xlink:title=" ">
<polygon fill="white" stroke="#666666" points="1270,-140 1121,-140 1121,-121 1270,-121 1270,-140"/>
<text text-anchor="middle" x="1195.5" y="-128" font-family="Helvetica,sans-Serif" font-size="10.00">VICUS_AbstractDBElement.h</text>
</a>
</g>
</g>
<!-- Node14&#45;&gt;Node16 -->
<g id="edge24_Node000014_Node000016" class="edge">
<title>Node14&#45;&gt;Node16</title>
<g id="a_edge24_Node000014_Node000016"><a xlink:title=" ">
<path fill="none" stroke="#63b8ff" d="M998.09,-181.49C1038.81,-171.18 1107.5,-153.78 1152.17,-142.47"/>
<polygon fill="#63b8ff" stroke="#63b8ff" points="1153.04,-145.86 1161.87,-140.02 1151.32,-139.08 1153.04,-145.86"/>
</a>
</g>
</g>
<!-- Node17 -->
<g id="Node000017" class="node">
<title>Node17</title>
<g id="a_Node000017"><a xlink:title=" ">
<polygon fill="#e0e0e0" stroke="#999999" points="1217,-79.5 1082,-79.5 1082,-60.5 1217,-60.5 1217,-79.5"/>
<text text-anchor="middle" x="1149.5" y="-67.5" font-family="Helvetica,sans-Serif" font-size="10.00">IBK_MultiLanguageString.h</text>
</a>
</g>
</g>
<!-- Node14&#45;&gt;Node17 -->
<g id="edge28_Node000014_Node000017" class="edge">
<title>Node14&#45;&gt;Node17</title>
<g id="a_edge28_Node000014_Node000017"><a xlink:title=" ">
<path fill="none" stroke="#63b8ff" d="M967.08,-181.48C971.9,-166.99 983.6,-137.53 1003.5,-121 1027,-101.48 1058.52,-89.43 1086.26,-82.07"/>
<polygon fill="#63b8ff" stroke="#63b8ff" points="1087.43,-85.39 1096.29,-79.57 1085.74,-78.59 1087.43,-85.39"/>
</a>
</g>
</g>
<!-- Node18 -->
<g id="Node000018" class="node">
<title>Node18</title>
<g id="a_Node000018"><a xlink:title=" ">
<polygon fill="#e0e0e0" stroke="#999999" points="1103,-140 1012,-140 1012,-121 1103,-121 1103,-140"/>
<text text-anchor="middle" x="1057.5" y="-128" font-family="Helvetica,sans-Serif" font-size="10.00">IBK_Parameter.h</text>
</a>
</g>
</g>
<!-- Node14&#45;&gt;Node18 -->
<g id="edge29_Node000014_Node000018" class="edge">
<title>Node14&#45;&gt;Node18</title>
<g id="a_edge29_Node000014_Node000018"><a xlink:title=" ">
<path fill="none" stroke="#63b8ff" d="M978.22,-181.37C993.2,-171.95 1017.39,-156.73 1035.12,-145.58"/>
<polygon fill="#63b8ff" stroke="#63b8ff" points="1037.12,-148.45 1043.72,-140.17 1033.39,-142.53 1037.12,-148.45"/>
</a>
</g>
</g>
<!-- Node16&#45;&gt;Node4 -->
<g id="edge27_Node000016_Node000004" class="edge">
<title>Node16&#45;&gt;Node4</title>
<g id="a_edge27_Node000016_Node000004"><a xlink:title=" ">
<path fill="none" stroke="#63b8ff" d="M1164.64,-120.97C1133.12,-112.19 1082.79,-98 1039.5,-85 968.2,-63.58 885.29,-37.02 839.16,-22.1"/>
<polygon fill="#63b8ff" stroke="#63b8ff" points="840.21,-18.76 829.62,-19.01 838.05,-25.42 840.21,-18.76"/>
</a>
</g>
</g>
<!-- Node16&#45;&gt;Node13 -->
<g id="edge26_Node000016_Node000013" class="edge">
<title>Node16&#45;&gt;Node13</title>
<g id="a_edge26_Node000016_Node000013"><a xlink:title=" ">
<path fill="none" stroke="#63b8ff" d="M1143.36,-120.95C1090.08,-112.16 1004.97,-97.96 931.5,-85 917.63,-82.55 902.36,-79.76 889.17,-77.32"/>
<polygon fill="#63b8ff" stroke="#63b8ff" points="889.58,-73.83 879.1,-75.44 888.3,-80.71 889.58,-73.83"/>
</a>
</g>
</g>
<!-- Node16&#45;&gt;Node17 -->
<g id="edge25_Node000016_Node000017" class="edge">
<title>Node16&#45;&gt;Node17</title>
<g id="a_edge25_Node000016_Node000017"><a xlink:title=" ">
<path fill="none" stroke="#63b8ff" d="M1188.71,-120.87C1181.85,-112.14 1171.07,-98.43 1162.55,-87.59"/>
<polygon fill="#63b8ff" stroke="#63b8ff" points="1165.25,-85.36 1156.32,-79.67 1159.75,-89.69 1165.25,-85.36"/>
</a>
</g>
</g>
<!-- Node19&#45;&gt;Node4 -->
<g id="edge37_Node000019_Node000004" class="edge">
<title>Node19&#45;&gt;Node4</title>
<g id="a_edge37_Node000019_Node000004"><a xlink:title=" ">
<path fill="none" stroke="#63b8ff" d="M1120.86,-248.97C1036.87,-245.78 907.23,-235.99 869.5,-206 814.11,-161.98 804.9,-69.52 803.59,-29.56"/>
<polygon fill="#63b8ff" stroke="#63b8ff" points="807.08,-29.29 803.39,-19.36 800.08,-29.43 807.08,-29.29"/>
</a>
</g>
</g>
<!-- Node19&#45;&gt;Node5 -->
<g id="edge36_Node000019_Node000005" class="edge">
<title>Node19&#45;&gt;Node5</title>
<g id="a_edge36_Node000019_Node000005"><a xlink:title=" ">
<path fill="none" stroke="#63b8ff" d="M1270.03,-249.23C1473.8,-245.4 2027,-232.6 2055.5,-206 2211.59,-60.31 1754.73,-22.61 1565.49,-13.35"/>
<polygon fill="#63b8ff" stroke="#63b8ff" points="1565.48,-9.85 1555.33,-12.87 1565.15,-16.84 1565.48,-9.85"/>
</a>
</g>
</g>
<!-- Node19&#45;&gt;Node13 -->
<g id="edge35_Node000019_Node000013" class="edge">
<title>Node19&#45;&gt;Node13</title>
<g id="a_edge35_Node000019_Node000013"><a xlink:title=" ">
<path fill="none" stroke="#63b8ff" d="M1120.74,-248.32C1043.32,-244.53 929.18,-234.2 896.5,-206 862.28,-176.48 856.09,-119.38 855.3,-89.8"/>
<polygon fill="#63b8ff" stroke="#63b8ff" points="858.8,-89.57 855.22,-79.6 851.8,-89.63 858.8,-89.57"/>
</a>
</g>
</g>
<!-- Node19&#45;&gt;Node16 -->
<g id="edge38_Node000019_Node000016" class="edge">
<title>Node19&#45;&gt;Node16</title>
<g id="a_edge38_Node000019_Node000016"><a xlink:title=" ">
<path fill="none" stroke="#63b8ff" d="M1195.5,-241.94C1195.5,-222.91 1195.5,-176.69 1195.5,-150.47"/>
<polygon fill="#63b8ff" stroke="#63b8ff" points="1199,-150.3 1195.5,-140.3 1192,-150.3 1199,-150.3"/>
</a>
</g>
</g>
<!-- Node19&#45;&gt;Node17 -->
<g id="edge32_Node000019_Node000017" class="edge">
<title>Node19&#45;&gt;Node17</title>
<g id="a_edge32_Node000019_Node000017"><a xlink:title=" ">
<path fill="none" stroke="#63b8ff" d="M1270.19,-247.5C1458.16,-238.63 1930.16,-207.52 1848.5,-121 1800.98,-70.65 1295.24,-93.21 1226.5,-85 1218.35,-84.03 1209.75,-82.73 1201.38,-81.32"/>
<polygon fill="#63b8ff" stroke="#63b8ff" points="1201.77,-77.84 1191.32,-79.56 1200.57,-84.73 1201.77,-77.84"/>
</a>
</g>
</g>
<!-- Node19&#45;&gt;Node18 -->
<g id="edge33_Node000019_Node000018" class="edge">
<title>Node19&#45;&gt;Node18</title>
<g id="a_edge33_Node000019_Node000018"><a xlink:title=" ">
<path fill="none" stroke="#63b8ff" d="M1185.58,-241.94C1162.51,-222.06 1105.03,-172.49 1075.56,-147.07"/>
<polygon fill="#63b8ff" stroke="#63b8ff" points="1077.57,-144.18 1067.71,-140.3 1072.99,-149.48 1077.57,-144.18"/>
</a>
</g>
</g>
<!-- Node20 -->
<g id="Node000020" class="node">
<title>Node20</title>
<g id="a_Node000020"><a xlink:title=" ">
<polygon fill="#e0e0e0" stroke="#999999" points="684.5,-200.5 606.5,-200.5 606.5,-181.5 684.5,-181.5 684.5,-200.5"/>
<text text-anchor="middle" x="645.5" y="-188.5" font-family="Helvetica,sans-Serif" font-size="10.00">IBK_IntPara.h</text>
</a>
</g>
</g>
<!-- Node19&#45;&gt;Node20 -->
<g id="edge34_Node000019_Node000020" class="edge">
<title>Node19&#45;&gt;Node20</title>
<g id="a_edge34_Node000019_Node000020"><a xlink:title=" ">
<path fill="none" stroke="#63b8ff" d="M1120.75,-242.55C1006.41,-230.39 791.17,-207.49 694.59,-197.22"/>
<polygon fill="#63b8ff" stroke="#63b8ff" points="694.83,-193.73 684.52,-196.15 694.09,-200.69 694.83,-193.73"/>
</a>
</g>
</g>
<!-- Node21 -->
<g id="Node000021" class="node">
<title>Node21</title>
<g id="a_Node000021"><a xlink:href="_v_i_c_u_s___database_8h.html" target="_top" xlink:title=" ">
<polygon fill="white" stroke="#666666" points="2046.5,-200.5 1942.5,-200.5 1942.5,-181.5 2046.5,-181.5 2046.5,-200.5"/>
<text text-anchor="middle" x="1994.5" y="-188.5" font-family="Helvetica,sans-Serif" font-size="10.00">VICUS_Database.h</text>
</a>
</g>
</g>
<!-- Node19&#45;&gt;Node21 -->
<g id="edge39_Node000019_Node000021" class="edge">
<title>Node19&#45;&gt;Node21</title>
<g id="a_edge39_Node000019_Node000021"><a xlink:title=" ">
<path fill="none" stroke="#63b8ff" d="M1270.04,-248.94C1401.61,-245.52 1683.44,-235.17 1919.5,-206 1927.36,-205.03 1935.63,-203.75 1943.7,-202.36"/>
<polygon fill="#63b8ff" stroke="#63b8ff" points="1944.55,-205.76 1953.77,-200.55 1943.31,-198.87 1944.55,-205.76"/>
</a>
</g>
</g>
<!-- Node26 -->
<g id="Node000026" class="node">
<title>Node26</title>
<g id="a_Node000026"><a xlink:href="_v_i_c_u_s___schedule_8h.html" target="_top" xlink:title=" ">
<polygon fill="white" stroke="#666666" points="1396.5,-200.5 1294.5,-200.5 1294.5,-181.5 1396.5,-181.5 1396.5,-200.5"/>
<text text-anchor="middle" x="1345.5" y="-188.5" font-family="Helvetica,sans-Serif" font-size="10.00">VICUS_Schedule.h</text>
</a>
</g>
</g>
<!-- Node19&#45;&gt;Node26 -->
<g id="edge45_Node000019_Node000026" class="edge">
<title>Node19&#45;&gt;Node26</title>
<g id="a_edge45_Node000019_Node000026"><a xlink:title=" ">
<path fill="none" stroke="#63b8ff" d="M1217.31,-241.99C1242.75,-232.07 1285.01,-215.59 1314.01,-204.28"/>
<polygon fill="#63b8ff" stroke="#63b8ff" points="1315.62,-207.41 1323.66,-200.52 1313.07,-200.89 1315.62,-207.41"/>
</a>
</g>
</g>
<!-- Node32 -->
<g id="Node000032" class="node">
<title>Node32</title>
<g id="a_Node000032"><a xlink:title=" ">
<polygon fill="#e0e0e0" stroke="#999999" points="1566,-206 1415,-206 1415,-176 1566,-176 1566,-206"/>
<text text-anchor="start" x="1423" y="-194" font-family="Helvetica,sans-Serif" font-size="10.00">NANDRAD_HydraulicNetwork</text>
<text text-anchor="middle" x="1490.5" y="-183" font-family="Helvetica,sans-Serif" font-size="10.00">Component.h</text>
</a>
</g>
</g>
<!-- Node19&#45;&gt;Node32 -->
<g id="edge62_Node000019_Node000032" class="edge">
<title>Node19&#45;&gt;Node32</title>
<g id="a_edge62_Node000019_Node000032"><a xlink:title=" ">
<path fill="none" stroke="#63b8ff" d="M1238.4,-241.99C1283.15,-233.12 1354.38,-218.99 1409.72,-208.02"/>
<polygon fill="#63b8ff" stroke="#63b8ff" points="1410.73,-211.39 1419.86,-206.01 1409.37,-204.52 1410.73,-211.39"/>
</a>
</g>
</g>
<!-- Node21&#45;&gt;Node16 -->
<g id="edge41_Node000021_Node000016" class="edge">
<title>Node21&#45;&gt;Node16</title>
<g id="a_edge41_Node000021_Node000016"><a xlink:title=" ">
<path fill="none" stroke="#63b8ff" d="M1942.38,-186.18C1807.48,-176.31 1445.84,-149.83 1280.32,-137.71"/>
<polygon fill="#63b8ff" stroke="#63b8ff" points="1280.42,-134.21 1270.19,-136.97 1279.91,-141.19 1280.42,-134.21"/>
</a>
</g>
</g>
<!-- Node22 -->
<g id="Node000022" class="node">
<title>Node22</title>
<g id="a_Node000022"><a xlink:title=" ">
<polygon fill="#e0e0e0" stroke="#999999" points="1969,-140 1934,-140 1934,-121 1969,-121 1969,-140"/>
<text text-anchor="middle" x="1951.5" y="-128" font-family="Helvetica,sans-Serif" font-size="10.00">map</text>
</a>
</g>
</g>
<!-- Node21&#45;&gt;Node22 -->
<g id="edge40_Node000021_Node000022" class="edge">
<title>Node21&#45;&gt;Node22</title>
<g id="a_edge40_Node000021_Node000022"><a xlink:title=" ">
<path fill="none" stroke="#63b8ff" d="M1988.16,-181.37C1981.8,-172.73 1971.86,-159.2 1963.93,-148.42"/>
<polygon fill="#63b8ff" stroke="#63b8ff" points="1966.61,-146.15 1957.87,-140.17 1960.97,-150.3 1966.61,-146.15"/>
</a>
</g>
</g>
<!-- Node23 -->
<g id="Node000023" class="node">
<title>Node23</title>
<g id="a_Node000023"><a xlink:title=" ">
<polygon fill="#e0e0e0" stroke="#999999" points="2054,-140 1987,-140 1987,-121 2054,-121 2054,-140"/>
<text text-anchor="middle" x="2020.5" y="-128" font-family="Helvetica,sans-Serif" font-size="10.00">IBK_Path.h</text>
</a>
</g>
</g>
<!-- Node21&#45;&gt;Node23 -->
<g id="edge42_Node000021_Node000023" class="edge">
<title>Node21&#45;&gt;Node23</title>
<g id="a_edge42_Node000021_Node000023"><a xlink:title=" ">
<path fill="none" stroke="#63b8ff" d="M1998.34,-181.37C2002.06,-172.99 2007.83,-160.01 2012.55,-149.39"/>
<polygon fill="#63b8ff" stroke="#63b8ff" points="2015.78,-150.73 2016.65,-140.17 2009.39,-147.88 2015.78,-150.73"/>
</a>
</g>
</g>
<!-- Node21&#45;&gt;Node24 -->
<g id="edge43_Node000021_Node000024" class="edge">
<title>Node21&#45;&gt;Node24</title>
<g id="a_edge43_Node000021_Node000024"><a xlink:title=" ">
<path fill="none" stroke="#63b8ff" d="M2018.06,-181.49C2045.77,-171.49 2091.97,-154.8 2123.31,-143.49"/>
<polygon fill="#63b8ff" stroke="#63b8ff" points="2124.7,-146.71 2132.92,-140.02 2122.32,-140.12 2124.7,-146.71"/>
</a>
</g>
</g>
<!-- Node21&#45;&gt;Node25 -->
<g id="edge44_Node000021_Node000025" class="edge">
<title>Node21&#45;&gt;Node25</title>
<g id="a_edge44_Node000021_Node000025"><a xlink:title=" ">
<path fill="none" stroke="#63b8ff" d="M2031.43,-181.49C2079.22,-170.49 2162.05,-151.41 2210.4,-140.28"/>
<polygon fill="#63b8ff" stroke="#63b8ff" points="2211.21,-143.68 2220.17,-138.03 2209.64,-136.86 2211.21,-143.68"/>
</a>
</g>
</g>
<!-- Node26&#45;&gt;Node4 -->
<g id="edge51_Node000026_Node000004" class="edge">
<title>Node26&#45;&gt;Node4</title>
<g id="a_edge51_Node000026_Node000004"><a xlink:title=" ">
<path fill="none" stroke="#63b8ff" d="M1339.82,-181.09C1329.7,-166.01 1306.99,-135.68 1279.5,-121 1197.51,-77.23 1162.3,-112.45 1073.5,-85 1042.72,-75.48 1038.08,-65.16 1007.5,-55 961.52,-39.73 907.93,-28.27 867.22,-20.81"/>
<polygon fill="#63b8ff" stroke="#63b8ff" points="867.63,-17.33 857.17,-19 866.39,-24.21 867.63,-17.33"/>
</a>
</g>
</g>
<!-- Node26&#45;&gt;Node5 -->
<g id="edge50_Node000026_Node000005" class="edge">
<title>Node26&#45;&gt;Node5</title>
<g id="a_edge50_Node000026_Node000005"><a xlink:title=" ">
<path fill="none" stroke="#63b8ff" d="M1378.57,-181.49C1387.58,-179.43 1397.37,-177.41 1406.5,-176 1455.19,-168.47 1815.1,-176.23 1848.5,-140 1933.96,-47.29 1695.45,-20.88 1565.5,-13.41"/>
<polygon fill="#63b8ff" stroke="#63b8ff" points="1565.37,-9.9 1555.19,-12.84 1564.98,-16.89 1565.37,-9.9"/>
</a>
</g>
</g>
<!-- Node26&#45;&gt;Node16 -->
<g id="edge61_Node000026_Node000016" class="edge">
<title>Node26&#45;&gt;Node16</title>
<g id="a_edge61_Node000026_Node000016"><a xlink:title=" ">
<path fill="none" stroke="#63b8ff" d="M1323.69,-181.49C1298.25,-171.57 1255.99,-155.09 1226.99,-143.78"/>
<polygon fill="#63b8ff" stroke="#63b8ff" points="1227.93,-140.39 1217.34,-140.02 1225.38,-146.91 1227.93,-140.39"/>
</a>
</g>
</g>
<!-- Node26&#45;&gt;Node18 -->
<g id="edge48_Node000026_Node000018" class="edge">
<title>Node26&#45;&gt;Node18</title>
<g id="a_edge48_Node000026_Node000018"><a xlink:title=" ">
<path fill="none" stroke="#63b8ff" d="M1303.62,-181.49C1252.22,-171.05 1165.05,-153.35 1109.43,-142.05"/>
<polygon fill="#63b8ff" stroke="#63b8ff" points="1109.92,-138.58 1099.43,-140.02 1108.53,-145.44 1109.92,-138.58"/>
</a>
</g>
</g>
<!-- Node27 -->
<g id="Node000027" class="node">
<title>Node27</title>
<g id="a_Node000027"><a xlink:title=" ">
<polygon fill="#e0e0e0" stroke="#999999" points="1755.5,-140 1655.5,-140 1655.5,-121 1755.5,-121 1755.5,-140"/>
<text text-anchor="middle" x="1705.5" y="-128" font-family="Helvetica,sans-Serif" font-size="10.00">IBK_LinearSpline.h</text>
</a>
</g>
</g>
<!-- Node26&#45;&gt;Node27 -->
<g id="edge46_Node000026_Node000027" class="edge">
<title>Node26&#45;&gt;Node27</title>
<g id="a_edge46_Node000026_Node000027"><a xlink:title=" ">
<path fill="none" stroke="#63b8ff" d="M1380.56,-181.46C1389.03,-179.54 1398.07,-177.59 1406.5,-176 1429.43,-171.67 1564.87,-151.87 1645.39,-140.19"/>
<polygon fill="#63b8ff" stroke="#63b8ff" points="1646.01,-143.64 1655.4,-138.74 1645,-136.71 1646.01,-143.64"/>
</a>
</g>
</g>
<!-- Node28 -->
<g id="Node000028" class="node">
<title>Node28</title>
<g id="a_Node000028"><a xlink:title=" ">
<polygon fill="#e0e0e0" stroke="#999999" points="1839,-140 1774,-140 1774,-121 1839,-121 1839,-140"/>
<text text-anchor="middle" x="1806.5" y="-128" font-family="Helvetica,sans-Serif" font-size="10.00">IBK_Flag.h</text>
</a>
</g>
</g>
<!-- Node26&#45;&gt;Node28 -->
<g id="edge47_Node000026_Node000028" class="edge">
<title>Node26&#45;&gt;Node28</title>
<g id="a_edge47_Node000026_Node000028"><a xlink:title=" ">
<path fill="none" stroke="#63b8ff" d="M1379.23,-181.46C1388.06,-179.45 1397.6,-177.46 1406.5,-176 1561.06,-150.6 1604.61,-163.34 1763.84,-139.93"/>
<polygon fill="#63b8ff" stroke="#63b8ff" points="1764.62,-143.35 1774,-138.41 1763.59,-136.43 1764.62,-143.35"/>
</a>
</g>
</g>
<!-- Node29 -->
<g id="Node000029" class="node">
<title>Node29</title>
<g id="a_Node000029"><a xlink:title=" ">
<polygon fill="#e0e0e0" stroke="#999999" points="1637.5,-140 1515.5,-140 1515.5,-121 1637.5,-121 1637.5,-140"/>
<text text-anchor="middle" x="1576.5" y="-128" font-family="Helvetica,sans-Serif" font-size="10.00">NANDRAD_Schedule.h</text>
</a>
</g>
</g>
<!-- Node26&#45;&gt;Node29 -->
<g id="edge49_Node000026_Node000029" class="edge">
<title>Node26&#45;&gt;Node29</title>
<g id="a_edge49_Node000026_Node000029"><a xlink:title=" ">
<path fill="none" stroke="#63b8ff" d="M1379.09,-181.49C1419.81,-171.18 1488.5,-153.78 1533.17,-142.47"/>
<polygon fill="#63b8ff" stroke="#63b8ff" points="1534.04,-145.86 1542.87,-140.02 1532.32,-139.08 1534.04,-145.86"/>
</a>
</g>
</g>
<!-- Node30 -->
<g id="Node000030" class="node">
<title>Node30</title>
<g id="a_Node000030"><a xlink:href="_v_i_c_u_s___schedule_interval_8h.html" target="_top" xlink:title=" ">
<polygon fill="white" stroke="#666666" points="1459.5,-140 1325.5,-140 1325.5,-121 1459.5,-121 1459.5,-140"/>
<text text-anchor="middle" x="1392.5" y="-128" font-family="Helvetica,sans-Serif" font-size="10.00">VICUS_ScheduleInterval.h</text>
</a>
</g>
</g>
<!-- Node26&#45;&gt;Node30 -->
<g id="edge52_Node000026_Node000030" class="edge">
<title>Node26&#45;&gt;Node30</title>
<g id="a_edge52_Node000026_Node000030"><a xlink:title=" ">
<path fill="none" stroke="#63b8ff" d="M1352.44,-181.37C1359.45,-172.64 1370.46,-158.93 1379.17,-148.09"/>
<polygon fill="#63b8ff" stroke="#63b8ff" points="1382,-150.16 1385.54,-140.17 1376.54,-145.77 1382,-150.16"/>
</a>
</g>
</g>
<!-- Node30&#45;&gt;Node5 -->
<g id="edge54_Node000030_Node000005" class="edge">
<title>Node30&#45;&gt;Node5</title>
<g id="a_edge54_Node000030_Node000005"><a xlink:title=" ">
<path fill="none" stroke="#63b8ff" d="M1399.33,-120.94C1414.94,-101.4 1453.43,-53.18 1474.01,-27.4"/>
<polygon fill="#63b8ff" stroke="#63b8ff" points="1476.97,-29.3 1480.47,-19.3 1471.5,-24.93 1476.97,-29.3"/>
</a>
</g>
</g>
<!-- Node30&#45;&gt;Node7 -->
<g id="edge55_Node000030_Node000007" class="edge">
<title>Node30&#45;&gt;Node7</title>
<g id="a_edge55_Node000030_Node000007"><a xlink:title=" ">
<path fill="none" stroke="#63b8ff" d="M1390.85,-120.85C1387.31,-104.88 1377.36,-70.95 1354.5,-55 1300.13,-17.06 1096.1,-11.34 1016.03,-10.57"/>
<polygon fill="#63b8ff" stroke="#63b8ff" points="1015.61,-7.07 1005.58,-10.49 1015.56,-14.07 1015.61,-7.07"/>
</a>
</g>
</g>
<!-- Node30&#45;&gt;Node17 -->
<g id="edge53_Node000030_Node000017" class="edge">
<title>Node30&#45;&gt;Node17</title>
<g id="a_edge53_Node000030_Node000017"><a xlink:title=" ">
<path fill="none" stroke="#63b8ff" d="M1357.17,-120.99C1314.24,-110.66 1241.76,-93.21 1194.78,-81.9"/>
<polygon fill="#63b8ff" stroke="#63b8ff" points="1195.42,-78.45 1184.88,-79.52 1193.78,-85.26 1195.42,-78.45"/>
</a>
</g>
</g>
<!-- Node31 -->
<g id="Node000031" class="node">
<title>Node31</title>
<g id="a_Node000031"><a xlink:href="_v_i_c_u_s___daily_cycle_8h.html" target="_top" xlink:title=" ">
<polygon fill="white" stroke="#666666" points="1345.5,-79.5 1235.5,-79.5 1235.5,-60.5 1345.5,-60.5 1345.5,-79.5"/>
<text text-anchor="middle" x="1290.5" y="-67.5" font-family="Helvetica,sans-Serif" font-size="10.00">VICUS_DailyCycle.h</text>
</a>
</g>
</g>
<!-- Node30&#45;&gt;Node31 -->
<g id="edge56_Node000030_Node000031" class="edge">
<title>Node30&#45;&gt;Node31</title>
<g id="a_edge56_Node000030_Node000031"><a xlink:title=" ">
<path fill="none" stroke="#63b8ff" d="M1377.45,-120.87C1360.88,-111.36 1334,-95.95 1314.51,-84.77"/>
<polygon fill="#63b8ff" stroke="#63b8ff" points="1316.03,-81.61 1305.61,-79.67 1312.55,-87.68 1316.03,-81.61"/>
</a>
</g>
</g>
<!-- Node31&#45;&gt;Node4 -->
<g id="edge58_Node000031_Node000004" class="edge">
<title>Node31&#45;&gt;Node4</title>
<g id="a_edge58_Node000031_Node000004"><a xlink:title=" ">
<path fill="none" stroke="#63b8ff" d="M1254.75,-60.45C1245.58,-58.46 1235.71,-56.49 1226.5,-55 1099.84,-34.55 950.25,-21.36 867.21,-15"/>
<polygon fill="#63b8ff" stroke="#63b8ff" points="867.41,-11.5 857.17,-14.23 866.88,-18.48 867.41,-11.5"/>
</a>
</g>
</g>
<!-- Node31&#45;&gt;Node5 -->
<g id="edge57_Node000031_Node000005" class="edge">
<title>Node31&#45;&gt;Node5</title>
<g id="a_edge57_Node000031_Node000005"><a xlink:title=" ">
<path fill="none" stroke="#63b8ff" d="M1319.15,-60.49C1353.43,-50.31 1410.98,-33.22 1449.1,-21.9"/>
<polygon fill="#63b8ff" stroke="#63b8ff" points="1450.23,-25.22 1458.82,-19.02 1448.24,-18.51 1450.23,-25.22"/>
</a>
</g>
</g>
<!-- Node31&#45;&gt;Node7 -->
<g id="edge59_Node000031_Node000007" class="edge">
<title>Node31&#45;&gt;Node7</title>
<g id="a_edge59_Node000031_Node000007"><a xlink:title=" ">
<path fill="none" stroke="#63b8ff" d="M1252.64,-60.49C1244.06,-58.63 1234.97,-56.7 1226.5,-55 1151.21,-39.88 1062.36,-24.14 1015.76,-16.05"/>
<polygon fill="#63b8ff" stroke="#63b8ff" points="1016.11,-12.55 1005.66,-14.3 1014.92,-19.45 1016.11,-12.55"/>
</a>
</g>
</g>
<!-- Node31&#45;&gt;Node15 -->
<g id="edge60_Node000031_Node000015" class="edge">
<title>Node31&#45;&gt;Node15</title>
<g id="a_edge60_Node000031_Node000015"><a xlink:title=" ">
<path fill="none" stroke="#63b8ff" d="M1256.82,-60.44C1247.1,-58.29 1236.43,-56.25 1226.5,-55 770.09,2.33 644.15,-89.32 185.22,-18.61"/>
<polygon fill="#63b8ff" stroke="#63b8ff" points="185.43,-15.1 175.01,-17.02 184.35,-22.02 185.43,-15.1"/>
</a>
</g>
</g>
<!-- Node33&#45;&gt;Node15 -->
<g id="edge64_Node000033_Node000015" class="edge">
<title>Node33&#45;&gt;Node15</title>
<g id="a_edge64_Node000033_Node000015"><a xlink:title=" ">
<path fill="none" stroke="#63b8ff" d="M67.14,-241.62C66.35,-212.67 66.95,-119.18 103.5,-55 110.32,-43.03 121.58,-32.7 131.79,-25.01"/>
<polygon fill="#63b8ff" stroke="#63b8ff" points="133.86,-27.83 140,-19.19 129.81,-22.12 133.86,-27.83"/>
</a>
</g>
</g>
<!-- Node33&#45;&gt;Node18 -->
<g id="edge66_Node000033_Node000018" class="edge">
<title>Node33&#45;&gt;Node18</title>
<g id="a_edge66_Node000033_Node000018"><a xlink:title=" ">
<path fill="none" stroke="#63b8ff" d="M122.33,-242C218.42,-227.27 423.57,-196.63 597.5,-176 742.97,-158.75 914.92,-143.47 1001.59,-136.12"/>
<polygon fill="#63b8ff" stroke="#63b8ff" points="1002.06,-139.6 1011.73,-135.27 1001.47,-132.62 1002.06,-139.6"/>
</a>
</g>
</g>
<!-- Node33&#45;&gt;Node20 -->
<g id="edge67_Node000033_Node000020" class="edge">
<title>Node33&#45;&gt;Node20</title>
<g id="a_edge67_Node000033_Node000020"><a xlink:title=" ">
<path fill="none" stroke="#63b8ff" d="M125.83,-248.3C222.23,-244.05 420.64,-232.64 586.5,-206 591.96,-205.12 597.66,-204.02 603.27,-202.81"/>
<polygon fill="#63b8ff" stroke="#63b8ff" points="604.23,-206.19 613.21,-200.57 602.69,-199.36 604.23,-206.19"/>
</a>
</g>
</g>
<!-- Node34 -->
<g id="Node000034" class="node">
<title>Node34</title>
<g id="a_Node000034"><a xlink:title=" ">
<polygon fill="#e0e0e0" stroke="#999999" points="51,-200.5 0,-200.5 0,-181.5 51,-181.5 51,-200.5"/>
<text text-anchor="middle" x="25.5" y="-188.5" font-family="Helvetica,sans-Serif" font-size="10.00">typeinfo</text>
</a>
</g>
</g>
<!-- Node33&#45;&gt;Node34 -->
<g id="edge65_Node000033_Node000034" class="edge">
<title>Node33&#45;&gt;Node34</title>
<g id="a_edge65_Node000033_Node000034"><a xlink:title=" ">
<path fill="none" stroke="#63b8ff" d="M61.3,-241.87C55.1,-233.23 45.39,-219.7 37.64,-208.92"/>
<polygon fill="#63b8ff" stroke="#63b8ff" points="40.4,-206.75 31.72,-200.67 34.71,-210.83 40.4,-206.75"/>
</a>
</g>
</g>
</g>
</svg>
