<?xml version="1.0" encoding="UTF-8" standalone="no"?>
<!DOCTYPE svg PUBLIC "-//W3C//DTD SVG 1.1//EN"
 "http://www.w3.org/Graphics/SVG/1.1/DTD/svg11.dtd">
<!-- Generated by graphviz version 2.43.0 (0)
 -->
<!-- Title: /home/hirth/git/SIM&#45;VICUS.master2/externals/Vicus/src/ncg/ncg_VICUS_ZoneControlShading.cpp Pages: 1 -->
<svg width="1104pt" height="225pt"
 viewBox="0.00 0.00 1103.50 225.00" xmlns="http://www.w3.org/2000/svg" xmlns:xlink="http://www.w3.org/1999/xlink">
<g id="graph0" class="graph" transform="scale(1 1) rotate(0) translate(4 221)">
<title>/home/hirth/git/SIM&#45;VICUS.master2/externals/Vicus/src/ncg/ncg_VICUS_ZoneControlShading.cpp</title>
<!-- Node1 -->
<g id="Node000001" class="node">
<title>Node1</title>
<g id="a_Node000001"><a xlink:title=" ">
<polygon fill="#999999" stroke="#666666" points="747,-217 612,-217 612,-165 747,-165 747,-217"/>
<text text-anchor="start" x="620" y="-205" font-family="Helvetica,sans-Serif" font-size="10.00">/home/hirth/git/SIM</text>
<text text-anchor="start" x="620" y="-194" font-family="Helvetica,sans-Serif" font-size="10.00">&#45;VICUS.master2/externals</text>
<text text-anchor="start" x="620" y="-183" font-family="Helvetica,sans-Serif" font-size="10.00">/Vicus/src/ncg/ncg_VICUS</text>
<text text-anchor="middle" x="679.5" y="-172" font-family="Helvetica,sans-Serif" font-size="10.00">_ZoneControlShading.cpp</text>
</a>
</g>
</g>
<!-- Node2 -->
<g id="Node000002" class="node">
<title>Node2</title>
<g id="a_Node000002"><a xlink:href="_v_i_c_u_s___zone_control_shading_8h.html" target="_top" xlink:title=" ">
<polygon fill="white" stroke="#666666" points="353.5,-129 203.5,-129 203.5,-110 353.5,-110 353.5,-129"/>
<text text-anchor="middle" x="278.5" y="-117" font-family="Helvetica,sans-Serif" font-size="10.00">VICUS_ZoneControlShading.h</text>
</a>
</g>
</g>
<!-- Node1&#45;&gt;Node2 -->
<g id="edge1_Node000001_Node000002" class="edge">
<title>Node1&#45;&gt;Node2</title>
<g id="a_edge1_Node000001_Node000002"><a xlink:title=" ">
<path fill="none" stroke="#63b8ff" d="M611.93,-178.29C535.08,-164.97 410.8,-143.43 337.64,-130.75"/>
<polygon fill="#63b8ff" stroke="#63b8ff" points="338.12,-127.28 327.67,-129.02 336.92,-134.18 338.12,-127.28"/>
</a>
</g>
</g>
<!-- Node8 -->
<g id="Node000008" class="node">
<title>Node8</title>
<g id="a_Node000008"><a xlink:href="_v_i_c_u_s___constants_8h.html" target="_top" xlink:title="Contains global constants for the SIM&#45;VICUS data model.">
<polygon fill="white" stroke="#666666" points="380,-19 273,-19 273,0 380,0 380,-19"/>
<text text-anchor="middle" x="326.5" y="-7" font-family="Helvetica,sans-Serif" font-size="10.00">VICUS_Constants.h</text>
</a>
</g>
</g>
<!-- Node1&#45;&gt;Node8 -->
<g id="edge17_Node000001_Node000008" class="edge">
<title>Node1&#45;&gt;Node8</title>
<g id="a_edge17_Node000001_Node000008"><a xlink:title=" ">
<path fill="none" stroke="#63b8ff" d="M611.88,-183.54C560.8,-176.26 490.5,-160.95 436.5,-129 413.51,-115.4 363.91,-56.53 339.97,-27.22"/>
<polygon fill="#63b8ff" stroke="#63b8ff" points="342.44,-24.71 333.42,-19.15 337.01,-29.12 342.44,-24.71"/>
</a>
</g>
</g>
<!-- Node9 -->
<g id="Node000009" class="node">
<title>Node9</title>
<g id="a_Node000009"><a xlink:href="_v_i_c_u_s___keyword_list_8h.html" target="_top" xlink:title="Contains the declaration of class KeywordList.">
<polygon fill="white" stroke="#666666" points="561.5,-129 445.5,-129 445.5,-110 561.5,-110 561.5,-129"/>
<text text-anchor="middle" x="503.5" y="-117" font-family="Helvetica,sans-Serif" font-size="10.00">VICUS_KeywordList.h</text>
</a>
</g>
</g>
<!-- Node1&#45;&gt;Node9 -->
<g id="edge9_Node000001_Node000009" class="edge">
<title>Node1&#45;&gt;Node9</title>
<g id="a_edge9_Node000001_Node000009"><a xlink:title=" ">
<path fill="none" stroke="#63b8ff" d="M615.96,-164.91C588.34,-154 557.23,-141.72 534.75,-132.84"/>
<polygon fill="#63b8ff" stroke="#63b8ff" points="535.95,-129.55 525.37,-129.14 533.38,-136.06 535.95,-129.55"/>
</a>
</g>
</g>
<!-- Node13 -->
<g id="Node000013" class="node">
<title>Node13</title>
<g id="a_Node000013"><a xlink:title=" ">
<polygon fill="#e0e0e0" stroke="#999999" points="671.5,-129 579.5,-129 579.5,-110 671.5,-110 671.5,-129"/>
<text text-anchor="middle" x="625.5" y="-117" font-family="Helvetica,sans-Serif" font-size="10.00">IBK_messages.h</text>
</a>
</g>
</g>
<!-- Node1&#45;&gt;Node13 -->
<g id="edge14_Node000001_Node000013" class="edge">
<title>Node1&#45;&gt;Node13</title>
<g id="a_edge14_Node000001_Node000013"><a xlink:title=" ">
<path fill="none" stroke="#63b8ff" d="M660,-164.91C652.91,-155.77 645.05,-145.67 638.64,-137.41"/>
<polygon fill="#63b8ff" stroke="#63b8ff" points="641.24,-135.05 632.34,-129.3 635.71,-139.35 641.24,-135.05"/>
</a>
</g>
</g>
<!-- Node14 -->
<g id="Node000014" class="node">
<title>Node14</title>
<g id="a_Node000014"><a xlink:title=" ">
<polygon fill="#e0e0e0" stroke="#999999" points="779.5,-129 689.5,-129 689.5,-110 779.5,-110 779.5,-129"/>
<text text-anchor="middle" x="734.5" y="-117" font-family="Helvetica,sans-Serif" font-size="10.00">IBK_Exception.h</text>
</a>
</g>
</g>
<!-- Node1&#45;&gt;Node14 -->
<g id="edge15_Node000001_Node000014" class="edge">
<title>Node1&#45;&gt;Node14</title>
<g id="a_edge15_Node000001_Node000014"><a xlink:title=" ">
<path fill="none" stroke="#63b8ff" d="M699.36,-164.91C706.66,-155.67 714.75,-145.45 721.33,-137.14"/>
<polygon fill="#63b8ff" stroke="#63b8ff" points="724.07,-139.32 727.53,-129.3 718.58,-134.97 724.07,-139.32"/>
</a>
</g>
</g>
<!-- Node15 -->
<g id="Node000015" class="node">
<title>Node15</title>
<g id="a_Node000015"><a xlink:title=" ">
<polygon fill="#e0e0e0" stroke="#999999" points="889.5,-129 797.5,-129 797.5,-110 889.5,-110 889.5,-129"/>
<text text-anchor="middle" x="843.5" y="-117" font-family="Helvetica,sans-Serif" font-size="10.00">IBK_StringUtils.h</text>
</a>
</g>
</g>
<!-- Node1&#45;&gt;Node15 -->
<g id="edge16_Node000001_Node000015" class="edge">
<title>Node1&#45;&gt;Node15</title>
<g id="a_edge16_Node000001_Node000015"><a xlink:title=" ">
<path fill="none" stroke="#63b8ff" d="M738.71,-164.91C764.21,-154.1 792.91,-141.94 813.82,-133.08"/>
<polygon fill="#63b8ff" stroke="#63b8ff" points="815.28,-136.26 823.12,-129.14 812.55,-129.81 815.28,-136.26"/>
</a>
</g>
</g>
<!-- Node16 -->
<g id="Node000016" class="node">
<title>Node16</title>
<g id="a_Node000016"><a xlink:title=" ">
<polygon fill="#e0e0e0" stroke="#999999" points="1021.5,-129 907.5,-129 907.5,-110 1021.5,-110 1021.5,-129"/>
<text text-anchor="middle" x="964.5" y="-117" font-family="Helvetica,sans-Serif" font-size="10.00">NANDRAD_Utilities.h</text>
</a>
</g>
</g>
<!-- Node1&#45;&gt;Node16 -->
<g id="edge18_Node000001_Node000016" class="edge">
<title>Node1&#45;&gt;Node16</title>
<g id="a_edge18_Node000001_Node000016"><a xlink:title=" ">
<path fill="none" stroke="#63b8ff" d="M747.04,-173.53C800.41,-160.52 873.38,-142.72 919.74,-131.42"/>
<polygon fill="#63b8ff" stroke="#63b8ff" points="920.6,-134.81 929.49,-129.04 918.95,-128.01 920.6,-134.81"/>
</a>
</g>
</g>
<!-- Node17 -->
<g id="Node000017" class="node">
<title>Node17</title>
<g id="a_Node000017"><a xlink:title=" ">
<polygon fill="#e0e0e0" stroke="#999999" points="1095.5,-129 1039.5,-129 1039.5,-110 1095.5,-110 1095.5,-129"/>
<text text-anchor="middle" x="1067.5" y="-117" font-family="Helvetica,sans-Serif" font-size="10.00">tinyxml.h</text>
</a>
</g>
</g>
<!-- Node1&#45;&gt;Node17 -->
<g id="edge19_Node000001_Node000017" class="edge">
<title>Node1&#45;&gt;Node17</title>
<g id="a_edge19_Node000001_Node000017"><a xlink:title=" ">
<path fill="none" stroke="#63b8ff" d="M747.32,-179.32C815.95,-168.27 925.33,-149.96 1029.22,-129.17"/>
<polygon fill="#63b8ff" stroke="#63b8ff" points="1030.14,-132.56 1039.25,-127.15 1028.76,-125.7 1030.14,-132.56"/>
</a>
</g>
</g>
<!-- Node3 -->
<g id="Node000003" class="node">
<title>Node3</title>
<g id="a_Node000003"><a xlink:title=" ">
<polygon fill="#e0e0e0" stroke="#999999" points="47,-19 0,-19 0,0 47,0 47,-19"/>
<text text-anchor="middle" x="23.5" y="-7" font-family="Helvetica,sans-Serif" font-size="10.00">QColor</text>
</a>
</g>
</g>
<!-- Node2&#45;&gt;Node3 -->
<g id="edge2_Node000002_Node000003" class="edge">
<title>Node2&#45;&gt;Node3</title>
<g id="a_edge2_Node000002_Node000003"><a xlink:title=" ">
<path fill="none" stroke="#63b8ff" d="M203.37,-112.94C143.1,-106.97 64.84,-95.31 41.5,-74 29.22,-62.78 25.08,-43.86 23.79,-29.59"/>
<polygon fill="#63b8ff" stroke="#63b8ff" points="27.28,-29.18 23.28,-19.37 20.29,-29.53 27.28,-29.18"/>
</a>
</g>
</g>
<!-- Node4 -->
<g id="Node000004" class="node">
<title>Node4</title>
<g id="a_Node000004"><a xlink:title=" ">
<polygon fill="#e0e0e0" stroke="#999999" points="501,-74 410,-74 410,-55 501,-55 501,-74"/>
<text text-anchor="middle" x="455.5" y="-62" font-family="Helvetica,sans-Serif" font-size="10.00">IBK_Parameter.h</text>
</a>
</g>
</g>
<!-- Node2&#45;&gt;Node4 -->
<g id="edge3_Node000002_Node000004" class="edge">
<title>Node2&#45;&gt;Node4</title>
<g id="a_edge3_Node000002_Node000004"><a xlink:title=" ">
<path fill="none" stroke="#63b8ff" d="M306.94,-109.98C336.78,-101.05 383.88,-86.94 417.03,-77.02"/>
<polygon fill="#63b8ff" stroke="#63b8ff" points="418.26,-80.3 426.84,-74.08 416.26,-73.6 418.26,-80.3"/>
</a>
</g>
</g>
<!-- Node5 -->
<g id="Node000005" class="node">
<title>Node5</title>
<g id="a_Node000005"><a xlink:href="_v_i_c_u_s___code_gen_macros_8h.html" target="_top" xlink:title=" ">
<polygon fill="white" stroke="#666666" points="353,-74 218,-74 218,-55 353,-55 353,-74"/>
<text text-anchor="middle" x="285.5" y="-62" font-family="Helvetica,sans-Serif" font-size="10.00">VICUS_CodeGenMacros.h</text>
</a>
</g>
</g>
<!-- Node2&#45;&gt;Node5 -->
<g id="edge4_Node000002_Node000005" class="edge">
<title>Node2&#45;&gt;Node5</title>
<g id="a_edge4_Node000002_Node000005"><a xlink:title=" ">
<path fill="none" stroke="#63b8ff" d="M279.66,-109.75C280.57,-102.8 281.89,-92.85 283.04,-84.13"/>
<polygon fill="#63b8ff" stroke="#63b8ff" points="286.53,-84.46 284.37,-74.09 279.59,-83.54 286.53,-84.46"/>
</a>
</g>
</g>
<!-- Node6 -->
<g id="Node000006" class="node">
<title>Node6</title>
<g id="a_Node000006"><a xlink:href="_v_i_c_u_s___abstract_d_b_element_8h.html" target="_top" xlink:title=" ">
<polygon fill="white" stroke="#666666" points="200,-74 51,-74 51,-55 200,-55 200,-74"/>
<text text-anchor="middle" x="125.5" y="-62" font-family="Helvetica,sans-Serif" font-size="10.00">VICUS_AbstractDBElement.h</text>
</a>
</g>
</g>
<!-- Node2&#45;&gt;Node6 -->
<g id="edge5_Node000002_Node000006" class="edge">
<title>Node2&#45;&gt;Node6</title>
<g id="a_edge5_Node000002_Node000006"><a xlink:title=" ">
<path fill="none" stroke="#63b8ff" d="M253.92,-109.98C228.45,-101.16 188.46,-87.31 159.87,-77.41"/>
<polygon fill="#63b8ff" stroke="#63b8ff" points="160.87,-74.05 150.27,-74.08 158.58,-80.66 160.87,-74.05"/>
</a>
</g>
</g>
<!-- Node6&#45;&gt;Node3 -->
<g id="edge7_Node000006_Node000003" class="edge">
<title>Node6&#45;&gt;Node3</title>
<g id="a_edge7_Node000006_Node000003"><a xlink:title=" ">
<path fill="none" stroke="#63b8ff" d="M109.11,-54.98C92.93,-46.57 67.93,-33.59 49.12,-23.81"/>
<polygon fill="#63b8ff" stroke="#63b8ff" points="50.67,-20.68 40.19,-19.17 47.45,-26.89 50.67,-20.68"/>
</a>
</g>
</g>
<!-- Node7 -->
<g id="Node000007" class="node">
<title>Node7</title>
<g id="a_Node000007"><a xlink:title=" ">
<polygon fill="#e0e0e0" stroke="#999999" points="200,-19 65,-19 65,0 200,0 200,-19"/>
<text text-anchor="middle" x="132.5" y="-7" font-family="Helvetica,sans-Serif" font-size="10.00">IBK_MultiLanguageString.h</text>
</a>
</g>
</g>
<!-- Node6&#45;&gt;Node7 -->
<g id="edge6_Node000006_Node000007" class="edge">
<title>Node6&#45;&gt;Node7</title>
<g id="a_edge6_Node000006_Node000007"><a xlink:title=" ">
<path fill="none" stroke="#63b8ff" d="M126.66,-54.75C127.57,-47.8 128.89,-37.85 130.04,-29.13"/>
<polygon fill="#63b8ff" stroke="#63b8ff" points="133.53,-29.46 131.37,-19.09 126.59,-28.54 133.53,-29.46"/>
</a>
</g>
</g>
<!-- Node6&#45;&gt;Node8 -->
<g id="edge8_Node000006_Node000008" class="edge">
<title>Node6&#45;&gt;Node8</title>
<g id="a_edge8_Node000006_Node000008"><a xlink:title=" ">
<path fill="none" stroke="#63b8ff" d="M157.79,-54.98C192.12,-45.93 246.56,-31.58 284.27,-21.64"/>
<polygon fill="#63b8ff" stroke="#63b8ff" points="285.18,-25.02 293.95,-19.08 283.39,-18.25 285.18,-25.02"/>
</a>
</g>
</g>
<!-- Node9&#45;&gt;Node4 -->
<g id="edge12_Node000009_Node000004" class="edge">
<title>Node9&#45;&gt;Node4</title>
<g id="a_edge12_Node000009_Node000004"><a xlink:title=" ">
<path fill="none" stroke="#63b8ff" d="M495.57,-109.75C488.65,-102.11 478.43,-90.82 470.05,-81.56"/>
<polygon fill="#63b8ff" stroke="#63b8ff" points="472.59,-79.15 463.28,-74.09 467.4,-83.85 472.59,-79.15"/>
</a>
</g>
</g>
<!-- Node10 -->
<g id="Node000010" class="node">
<title>Node10</title>
<g id="a_Node000010"><a xlink:title=" ">
<polygon fill="#e0e0e0" stroke="#999999" points="560,-74 519,-74 519,-55 560,-55 560,-74"/>
<text text-anchor="middle" x="539.5" y="-62" font-family="Helvetica,sans-Serif" font-size="10.00">string</text>
</a>
</g>
</g>
<!-- Node9&#45;&gt;Node10 -->
<g id="edge10_Node000009_Node000010" class="edge">
<title>Node9&#45;&gt;Node10</title>
<g id="a_edge10_Node000009_Node000010"><a xlink:title=" ">
<path fill="none" stroke="#63b8ff" d="M509.44,-109.75C514.48,-102.34 521.84,-91.5 528.01,-82.41"/>
<polygon fill="#63b8ff" stroke="#63b8ff" points="530.94,-84.33 533.67,-74.09 525.15,-80.39 530.94,-84.33"/>
</a>
</g>
</g>
<!-- Node11 -->
<g id="Node000011" class="node">
<title>Node11</title>
<g id="a_Node000011"><a xlink:title=" ">
<polygon fill="#e0e0e0" stroke="#999999" points="629,-74 578,-74 578,-55 629,-55 629,-74"/>
<text text-anchor="middle" x="603.5" y="-62" font-family="Helvetica,sans-Serif" font-size="10.00">typeinfo</text>
</a>
</g>
</g>
<!-- Node9&#45;&gt;Node11 -->
<g id="edge11_Node000009_Node000011" class="edge">
<title>Node9&#45;&gt;Node11</title>
<g id="a_edge11_Node000009_Node000011"><a xlink:title=" ">
<path fill="none" stroke="#63b8ff" d="M519.57,-109.98C535.36,-101.61 559.72,-88.7 578.13,-78.95"/>
<polygon fill="#63b8ff" stroke="#63b8ff" points="579.94,-81.95 587.14,-74.17 576.67,-75.76 579.94,-81.95"/>
</a>
</g>
</g>
<!-- Node12 -->
<g id="Node000012" class="node">
<title>Node12</title>
<g id="a_Node000012"><a xlink:title=" ">
<polygon fill="#e0e0e0" stroke="#999999" points="725.5,-74 647.5,-74 647.5,-55 725.5,-55 725.5,-74"/>
<text text-anchor="middle" x="686.5" y="-62" font-family="Helvetica,sans-Serif" font-size="10.00">IBK_IntPara.h</text>
</a>
</g>
</g>
<!-- Node9&#45;&gt;Node12 -->
<g id="edge13_Node000009_Node000012" class="edge">
<title>Node9&#45;&gt;Node12</title>
<g id="a_edge13_Node000009_Node000012"><a xlink:title=" ">
<path fill="none" stroke="#63b8ff" d="M532.9,-109.98C563.89,-101.01 612.88,-86.82 647.17,-76.89"/>
<polygon fill="#63b8ff" stroke="#63b8ff" points="648.24,-80.23 656.87,-74.08 646.29,-73.5 648.24,-80.23"/>
</a>
</g>
</g>
</g>
</svg>
