<?xml version="1.0" encoding="UTF-8" standalone="no"?>
<!DOCTYPE svg PUBLIC "-//W3C//DTD SVG 1.1//EN"
 "http://www.w3.org/Graphics/SVG/1.1/DTD/svg11.dtd">
<!-- Generated by graphviz version 2.43.0 (0)
 -->
<!-- Title: /home/hirth/git/SIM&#45;VICUS.master2/externals/Vicus/src/ncg/ncg_VICUS_PlainGeometry.cpp Pages: 1 -->
<svg width="1477pt" height="346pt"
 viewBox="0.00 0.00 1476.50 346.00" xmlns="http://www.w3.org/2000/svg" xmlns:xlink="http://www.w3.org/1999/xlink">
<g id="graph0" class="graph" transform="scale(1 1) rotate(0) translate(4 342)">
<title>/home/hirth/git/SIM&#45;VICUS.master2/externals/Vicus/src/ncg/ncg_VICUS_PlainGeometry.cpp</title>
<!-- Node1 -->
<g id="Node000001" class="node">
<title>Node1</title>
<g id="a_Node000001"><a xlink:title=" ">
<polygon fill="#999999" stroke="#666666" points="1120,-338 985,-338 985,-286 1120,-286 1120,-338"/>
<text text-anchor="start" x="993" y="-326" font-family="Helvetica,sans-Serif" font-size="10.00">/home/hirth/git/SIM</text>
<text text-anchor="start" x="993" y="-315" font-family="Helvetica,sans-Serif" font-size="10.00">&#45;VICUS.master2/externals</text>
<text text-anchor="start" x="993" y="-304" font-family="Helvetica,sans-Serif" font-size="10.00">/Vicus/src/ncg/ncg_VICUS</text>
<text text-anchor="middle" x="1052.5" y="-293" font-family="Helvetica,sans-Serif" font-size="10.00">_PlainGeometry.cpp</text>
</a>
</g>
</g>
<!-- Node2 -->
<g id="Node000002" class="node">
<title>Node2</title>
<g id="a_Node000002"><a xlink:href="_v_i_c_u_s___plain_geometry_8h.html" target="_top" xlink:title=" ">
<polygon fill="white" stroke="#666666" points="481,-250 356,-250 356,-231 481,-231 481,-250"/>
<text text-anchor="middle" x="418.5" y="-238" font-family="Helvetica,sans-Serif" font-size="10.00">VICUS_PlainGeometry.h</text>
</a>
</g>
</g>
<!-- Node1&#45;&gt;Node2 -->
<g id="edge1_Node000001_Node000002" class="edge">
<title>Node1&#45;&gt;Node2</title>
<g id="a_edge1_Node000001_Node000002"><a xlink:title=" ">
<path fill="none" stroke="#63b8ff" d="M984.95,-303.6C864.85,-290.43 615.17,-263.06 491.36,-249.49"/>
<polygon fill="#63b8ff" stroke="#63b8ff" points="491.55,-245.99 481.22,-248.38 490.78,-252.94 491.55,-245.99"/>
</a>
</g>
</g>
<!-- Node6 -->
<g id="Node000006" class="node">
<title>Node6</title>
<g id="a_Node000006"><a xlink:href="_v_i_c_u_s___constants_8h.html" target="_top" xlink:title="Contains global constants for the SIM&#45;VICUS data model.">
<polygon fill="white" stroke="#666666" points="774,-19 667,-19 667,0 774,0 774,-19"/>
<text text-anchor="middle" x="720.5" y="-7" font-family="Helvetica,sans-Serif" font-size="10.00">VICUS_Constants.h</text>
</a>
</g>
</g>
<!-- Node1&#45;&gt;Node6 -->
<g id="edge50_Node000001_Node000006" class="edge">
<title>Node1&#45;&gt;Node6</title>
<g id="a_edge50_Node000001_Node000006"><a xlink:title=" ">
<path fill="none" stroke="#63b8ff" d="M984.64,-302.3C877.82,-286.69 682.5,-249.53 682.5,-186.5 682.5,-186.5 682.5,-186.5 682.5,-129.5 682.5,-92.07 699.77,-51.03 711.02,-28.25"/>
<polygon fill="#63b8ff" stroke="#63b8ff" points="714.24,-29.65 715.69,-19.15 708.01,-26.46 714.24,-29.65"/>
</a>
</g>
</g>
<!-- Node23 -->
<g id="Node000023" class="node">
<title>Node23</title>
<g id="a_Node000023"><a xlink:href="_v_i_c_u_s___keyword_list_8h.html" target="_top" xlink:title="Contains the declaration of class KeywordList.">
<polygon fill="white" stroke="#666666" points="934.5,-250 818.5,-250 818.5,-231 934.5,-231 934.5,-250"/>
<text text-anchor="middle" x="876.5" y="-238" font-family="Helvetica,sans-Serif" font-size="10.00">VICUS_KeywordList.h</text>
</a>
</g>
</g>
<!-- Node1&#45;&gt;Node23 -->
<g id="edge42_Node000001_Node000023" class="edge">
<title>Node1&#45;&gt;Node23</title>
<g id="a_edge42_Node000001_Node000023"><a xlink:title=" ">
<path fill="none" stroke="#63b8ff" d="M988.96,-285.91C961.34,-275 930.23,-262.72 907.75,-253.84"/>
<polygon fill="#63b8ff" stroke="#63b8ff" points="908.95,-250.55 898.37,-250.14 906.38,-257.06 908.95,-250.55"/>
</a>
</g>
</g>
<!-- Node28 -->
<g id="Node000028" class="node">
<title>Node28</title>
<g id="a_Node000028"><a xlink:title=" ">
<polygon fill="#e0e0e0" stroke="#999999" points="1044.5,-250 952.5,-250 952.5,-231 1044.5,-231 1044.5,-250"/>
<text text-anchor="middle" x="998.5" y="-238" font-family="Helvetica,sans-Serif" font-size="10.00">IBK_messages.h</text>
</a>
</g>
</g>
<!-- Node1&#45;&gt;Node28 -->
<g id="edge47_Node000001_Node000028" class="edge">
<title>Node1&#45;&gt;Node28</title>
<g id="a_edge47_Node000001_Node000028"><a xlink:title=" ">
<path fill="none" stroke="#63b8ff" d="M1033,-285.91C1025.91,-276.77 1018.05,-266.67 1011.64,-258.41"/>
<polygon fill="#63b8ff" stroke="#63b8ff" points="1014.24,-256.05 1005.34,-250.3 1008.71,-260.35 1014.24,-256.05"/>
</a>
</g>
</g>
<!-- Node29 -->
<g id="Node000029" class="node">
<title>Node29</title>
<g id="a_Node000029"><a xlink:title=" ">
<polygon fill="#e0e0e0" stroke="#999999" points="1152.5,-250 1062.5,-250 1062.5,-231 1152.5,-231 1152.5,-250"/>
<text text-anchor="middle" x="1107.5" y="-238" font-family="Helvetica,sans-Serif" font-size="10.00">IBK_Exception.h</text>
</a>
</g>
</g>
<!-- Node1&#45;&gt;Node29 -->
<g id="edge48_Node000001_Node000029" class="edge">
<title>Node1&#45;&gt;Node29</title>
<g id="a_edge48_Node000001_Node000029"><a xlink:title=" ">
<path fill="none" stroke="#63b8ff" d="M1072.36,-285.91C1079.66,-276.67 1087.75,-266.45 1094.33,-258.14"/>
<polygon fill="#63b8ff" stroke="#63b8ff" points="1097.07,-260.32 1100.53,-250.3 1091.58,-255.97 1097.07,-260.32"/>
</a>
</g>
</g>
<!-- Node30 -->
<g id="Node000030" class="node">
<title>Node30</title>
<g id="a_Node000030"><a xlink:title=" ">
<polygon fill="#e0e0e0" stroke="#999999" points="1262.5,-250 1170.5,-250 1170.5,-231 1262.5,-231 1262.5,-250"/>
<text text-anchor="middle" x="1216.5" y="-238" font-family="Helvetica,sans-Serif" font-size="10.00">IBK_StringUtils.h</text>
</a>
</g>
</g>
<!-- Node1&#45;&gt;Node30 -->
<g id="edge49_Node000001_Node000030" class="edge">
<title>Node1&#45;&gt;Node30</title>
<g id="a_edge49_Node000001_Node000030"><a xlink:title=" ">
<path fill="none" stroke="#63b8ff" d="M1111.71,-285.91C1137.21,-275.1 1165.91,-262.94 1186.82,-254.08"/>
<polygon fill="#63b8ff" stroke="#63b8ff" points="1188.28,-257.26 1196.12,-250.14 1185.55,-250.81 1188.28,-257.26"/>
</a>
</g>
</g>
<!-- Node31 -->
<g id="Node000031" class="node">
<title>Node31</title>
<g id="a_Node000031"><a xlink:title=" ">
<polygon fill="#e0e0e0" stroke="#999999" points="1394.5,-250 1280.5,-250 1280.5,-231 1394.5,-231 1394.5,-250"/>
<text text-anchor="middle" x="1337.5" y="-238" font-family="Helvetica,sans-Serif" font-size="10.00">NANDRAD_Utilities.h</text>
</a>
</g>
</g>
<!-- Node1&#45;&gt;Node31 -->
<g id="edge51_Node000001_Node000031" class="edge">
<title>Node1&#45;&gt;Node31</title>
<g id="a_edge51_Node000001_Node000031"><a xlink:title=" ">
<path fill="none" stroke="#63b8ff" d="M1120.04,-294.53C1173.41,-281.52 1246.38,-263.72 1292.74,-252.42"/>
<polygon fill="#63b8ff" stroke="#63b8ff" points="1293.6,-255.81 1302.49,-250.04 1291.95,-249.01 1293.6,-255.81"/>
</a>
</g>
</g>
<!-- Node32 -->
<g id="Node000032" class="node">
<title>Node32</title>
<g id="a_Node000032"><a xlink:title=" ">
<polygon fill="#e0e0e0" stroke="#999999" points="1468.5,-250 1412.5,-250 1412.5,-231 1468.5,-231 1468.5,-250"/>
<text text-anchor="middle" x="1440.5" y="-238" font-family="Helvetica,sans-Serif" font-size="10.00">tinyxml.h</text>
</a>
</g>
</g>
<!-- Node1&#45;&gt;Node32 -->
<g id="edge52_Node000001_Node000032" class="edge">
<title>Node1&#45;&gt;Node32</title>
<g id="a_edge52_Node000001_Node000032"><a xlink:title=" ">
<path fill="none" stroke="#63b8ff" d="M1120.32,-300.32C1188.95,-289.27 1298.33,-270.96 1402.22,-250.17"/>
<polygon fill="#63b8ff" stroke="#63b8ff" points="1403.14,-253.56 1412.25,-248.15 1401.76,-246.7 1403.14,-253.56"/>
</a>
</g>
</g>
<!-- Node3 -->
<g id="Node000003" class="node">
<title>Node3</title>
<g id="a_Node000003"><a xlink:title=" ">
<polygon fill="#e0e0e0" stroke="#999999" points="103,-19 0,-19 0,0 103,0 103,-19"/>
<text text-anchor="middle" x="51.5" y="-7" font-family="Helvetica,sans-Serif" font-size="10.00">IBKMK_Vector3D.h</text>
</a>
</g>
</g>
<!-- Node2&#45;&gt;Node3 -->
<g id="edge2_Node000002_Node000003" class="edge">
<title>Node2&#45;&gt;Node3</title>
<g id="a_edge2_Node000002_Node000003"><a xlink:title=" ">
<path fill="none" stroke="#63b8ff" d="M363.06,-230.94C326.39,-224.07 277.83,-212.61 237.5,-195 156.05,-159.43 122.07,-157.39 70.5,-85 58.78,-68.55 54.28,-45.53 52.56,-29.44"/>
<polygon fill="#63b8ff" stroke="#63b8ff" points="56.02,-28.84 51.73,-19.15 49.04,-29.4 56.02,-28.84"/>
</a>
</g>
</g>
<!-- Node4 -->
<g id="Node000004" class="node">
<title>Node4</title>
<g id="a_Node000004"><a xlink:href="_v_i_c_u_s___code_gen_macros_8h.html" target="_top" xlink:title=" ">
<polygon fill="white" stroke="#666666" points="392,-19 257,-19 257,0 392,0 392,-19"/>
<text text-anchor="middle" x="324.5" y="-7" font-family="Helvetica,sans-Serif" font-size="10.00">VICUS_CodeGenMacros.h</text>
</a>
</g>
</g>
<!-- Node2&#45;&gt;Node4 -->
<g id="edge3_Node000002_Node000004" class="edge">
<title>Node2&#45;&gt;Node4</title>
<g id="a_edge3_Node000002_Node000004"><a xlink:title=" ">
<path fill="none" stroke="#63b8ff" d="M409.4,-230.86C387.3,-209.03 331.74,-148.82 320.5,-85 317.2,-66.3 319,-44.58 321.13,-29.43"/>
<polygon fill="#63b8ff" stroke="#63b8ff" points="324.63,-29.72 322.75,-19.29 317.71,-28.62 324.63,-29.72"/>
</a>
</g>
</g>
<!-- Node5 -->
<g id="Node000005" class="node">
<title>Node5</title>
<g id="a_Node000005"><a xlink:href="_v_i_c_u_s___surface_8h.html" target="_top" xlink:title=" ">
<polygon fill="white" stroke="#666666" points="806,-195 711,-195 711,-176 806,-176 806,-195"/>
<text text-anchor="middle" x="758.5" y="-183" font-family="Helvetica,sans-Serif" font-size="10.00">VICUS_Surface.h</text>
</a>
</g>
</g>
<!-- Node2&#45;&gt;Node5 -->
<g id="edge4_Node000002_Node000005" class="edge">
<title>Node2&#45;&gt;Node5</title>
<g id="a_edge4_Node000002_Node000005"><a xlink:title=" ">
<path fill="none" stroke="#63b8ff" d="M473.13,-230.98C535.45,-221.27 636.95,-205.45 700.6,-195.52"/>
<polygon fill="#63b8ff" stroke="#63b8ff" points="701.53,-198.92 710.87,-193.92 700.45,-192.01 701.53,-198.92"/>
</a>
</g>
</g>
<!-- Node14 -->
<g id="Node000014" class="node">
<title>Node14</title>
<g id="a_Node000014"><a xlink:href="_v_i_c_u_s___polygon2_d_8h.html" target="_top" xlink:title=" ">
<polygon fill="white" stroke="#666666" points="616.5,-79.5 506.5,-79.5 506.5,-60.5 616.5,-60.5 616.5,-79.5"/>
<text text-anchor="middle" x="561.5" y="-67.5" font-family="Helvetica,sans-Serif" font-size="10.00">VICUS_Polygon2D.h</text>
</a>
</g>
</g>
<!-- Node2&#45;&gt;Node14 -->
<g id="edge40_Node000002_Node000014" class="edge">
<title>Node2&#45;&gt;Node14</title>
<g id="a_edge40_Node000002_Node000014"><a xlink:title=" ">
<path fill="none" stroke="#63b8ff" d="M426.16,-230.77C441.26,-213.53 475.91,-173.83 504.5,-140 519.62,-122.11 536.69,-101.37 548.18,-87.34"/>
<polygon fill="#63b8ff" stroke="#63b8ff" points="550.92,-89.51 554.54,-79.55 545.5,-85.08 550.92,-89.51"/>
</a>
</g>
</g>
<!-- Node16 -->
<g id="Node000016" class="node">
<title>Node16</title>
<g id="a_Node000016"><a xlink:href="_v_i_c_u_s___plane_triangulation_data_8h.html" target="_top" xlink:title=" ">
<polygon fill="white" stroke="#666666" points="246.5,-85 112.5,-85 112.5,-55 246.5,-55 246.5,-85"/>
<text text-anchor="start" x="120.5" y="-73" font-family="Helvetica,sans-Serif" font-size="10.00">VICUS_PlaneTriangulation</text>
<text text-anchor="middle" x="179.5" y="-62" font-family="Helvetica,sans-Serif" font-size="10.00">Data.h</text>
</a>
</g>
</g>
<!-- Node2&#45;&gt;Node16 -->
<g id="edge41_Node000002_Node000016" class="edge">
<title>Node2&#45;&gt;Node16</title>
<g id="a_edge41_Node000002_Node000016"><a xlink:title=" ">
<path fill="none" stroke="#63b8ff" d="M355.83,-232.38C324.81,-226.37 288.18,-215.32 260.5,-195 225.24,-169.11 201.08,-122.88 188.83,-94.77"/>
<polygon fill="#63b8ff" stroke="#63b8ff" points="191.95,-93.17 184.86,-85.3 185.5,-95.88 191.95,-93.17"/>
</a>
</g>
</g>
<!-- Node5&#45;&gt;Node4 -->
<g id="edge5_Node000005_Node000004" class="edge">
<title>Node5&#45;&gt;Node4</title>
<g id="a_edge5_Node000005_Node000004"><a xlink:title=" ">
<path fill="none" stroke="#63b8ff" d="M711,-182.2C610.78,-176.94 384.74,-162.67 358.5,-140 326.34,-112.22 322.77,-58.08 323.36,-29.39"/>
<polygon fill="#63b8ff" stroke="#63b8ff" points="326.87,-29.25 323.78,-19.12 319.88,-28.97 326.87,-29.25"/>
</a>
</g>
</g>
<!-- Node5&#45;&gt;Node6 -->
<g id="edge6_Node000005_Node000006" class="edge">
<title>Node5&#45;&gt;Node6</title>
<g id="a_edge6_Node000005_Node000006"><a xlink:title=" ">
<path fill="none" stroke="#63b8ff" d="M756.56,-175.63C750.64,-148.52 732.69,-66.32 724.57,-29.13"/>
<polygon fill="#63b8ff" stroke="#63b8ff" points="727.94,-28.17 722.39,-19.14 721.1,-29.66 727.94,-28.17"/>
</a>
</g>
</g>
<!-- Node7 -->
<g id="Node000007" class="node">
<title>Node7</title>
<g id="a_Node000007"><a xlink:href="_v_i_c_u_s___plane_geometry_8h.html" target="_top" xlink:title=" ">
<polygon fill="white" stroke="#666666" points="495.5,-140 367.5,-140 367.5,-121 495.5,-121 495.5,-140"/>
<text text-anchor="middle" x="431.5" y="-128" font-family="Helvetica,sans-Serif" font-size="10.00">VICUS_PlaneGeometry.h</text>
</a>
</g>
</g>
<!-- Node5&#45;&gt;Node7 -->
<g id="edge7_Node000005_Node000007" class="edge">
<title>Node5&#45;&gt;Node7</title>
<g id="a_edge7_Node000005_Node000007"><a xlink:title=" ">
<path fill="none" stroke="#63b8ff" d="M710.95,-176.79C653.73,-167.52 557.48,-151.92 494.23,-141.67"/>
<polygon fill="#63b8ff" stroke="#63b8ff" points="494.41,-138.15 483.98,-140.01 493.29,-145.06 494.41,-138.15"/>
</a>
</g>
</g>
<!-- Node8 -->
<g id="Node000008" class="node">
<title>Node8</title>
<g id="a_Node000008"><a xlink:href="_v_i_c_u_s___object_8h.html" target="_top" xlink:title=" ">
<polygon fill="white" stroke="#666666" points="876.5,-79.5 786.5,-79.5 786.5,-60.5 876.5,-60.5 876.5,-79.5"/>
<text text-anchor="middle" x="831.5" y="-67.5" font-family="Helvetica,sans-Serif" font-size="10.00">VICUS_Object.h</text>
</a>
</g>
</g>
<!-- Node5&#45;&gt;Node8 -->
<g id="edge24_Node000005_Node000008" class="edge">
<title>Node5&#45;&gt;Node8</title>
<g id="a_edge24_Node000005_Node000008"><a xlink:title=" ">
<path fill="none" stroke="#63b8ff" d="M763.99,-175.97C775.93,-157.4 804.48,-113.01 820.36,-88.32"/>
<polygon fill="#63b8ff" stroke="#63b8ff" points="823.48,-89.93 825.95,-79.63 817.6,-86.15 823.48,-89.93"/>
</a>
</g>
</g>
<!-- Node11 -->
<g id="Node000011" class="node">
<title>Node11</title>
<g id="a_Node000011"><a xlink:title=" ">
<polygon fill="#e0e0e0" stroke="#999999" points="952.5,-19 902.5,-19 902.5,0 952.5,0 952.5,-19"/>
<text text-anchor="middle" x="927.5" y="-7" font-family="Helvetica,sans-Serif" font-size="10.00">QString</text>
</a>
</g>
</g>
<!-- Node5&#45;&gt;Node11 -->
<g id="edge38_Node000005_Node000011" class="edge">
<title>Node5&#45;&gt;Node11</title>
<g id="a_edge38_Node000005_Node000011"><a xlink:title=" ">
<path fill="none" stroke="#63b8ff" d="M772.95,-175.87C798.22,-160.25 851,-125.15 885.5,-85 900.26,-67.82 912.35,-44.65 919.7,-28.74"/>
<polygon fill="#63b8ff" stroke="#63b8ff" points="922.96,-30.02 923.83,-19.47 916.57,-27.18 922.96,-30.02"/>
</a>
</g>
</g>
<!-- Node12 -->
<g id="Node000012" class="node">
<title>Node12</title>
<g id="a_Node000012"><a xlink:href="_v_i_c_u_s___polygon3_d_8h.html" target="_top" xlink:title=" ">
<polygon fill="white" stroke="#666666" points="488.5,-79.5 378.5,-79.5 378.5,-60.5 488.5,-60.5 488.5,-79.5"/>
<text text-anchor="middle" x="433.5" y="-67.5" font-family="Helvetica,sans-Serif" font-size="10.00">VICUS_Polygon3D.h</text>
</a>
</g>
</g>
<!-- Node5&#45;&gt;Node12 -->
<g id="edge35_Node000005_Node000012" class="edge">
<title>Node5&#45;&gt;Node12</title>
<g id="a_edge35_Node000005_Node000012"><a xlink:title=" ">
<path fill="none" stroke="#63b8ff" d="M734.07,-175.97C676.78,-155.96 533.66,-105.98 467.73,-82.95"/>
<polygon fill="#63b8ff" stroke="#63b8ff" points="468.81,-79.62 458.21,-79.63 466.5,-86.23 468.81,-79.62"/>
</a>
</g>
</g>
<!-- Node18 -->
<g id="Node000018" class="node">
<title>Node18</title>
<g id="a_Node000018"><a xlink:href="_v_i_c_u_s___sub_surface_8h.html" target="_top" xlink:title=" ">
<polygon fill="white" stroke="#666666" points="1046,-140 933,-140 933,-121 1046,-121 1046,-140"/>
<text text-anchor="middle" x="989.5" y="-128" font-family="Helvetica,sans-Serif" font-size="10.00">VICUS_SubSurface.h</text>
</a>
</g>
</g>
<!-- Node5&#45;&gt;Node18 -->
<g id="edge25_Node000005_Node000018" class="edge">
<title>Node5&#45;&gt;Node18</title>
<g id="a_edge25_Node000005_Node000018"><a xlink:title=" ">
<path fill="none" stroke="#63b8ff" d="M795.61,-175.98C835.49,-166.84 898.96,-152.27 942.34,-142.32"/>
<polygon fill="#63b8ff" stroke="#63b8ff" points="943.13,-145.73 952.09,-140.08 941.57,-138.91 943.13,-145.73"/>
</a>
</g>
</g>
<!-- Node19 -->
<g id="Node000019" class="node">
<title>Node19</title>
<g id="a_Node000019"><a xlink:title=" ">
<polygon fill="#e0e0e0" stroke="#999999" points="1196,-79.5 1057,-79.5 1057,-60.5 1196,-60.5 1196,-79.5"/>
<text text-anchor="middle" x="1126.5" y="-67.5" font-family="Helvetica,sans-Serif" font-size="10.00">NANDRAD_IDVectorMap.h</text>
</a>
</g>
</g>
<!-- Node5&#45;&gt;Node19 -->
<g id="edge37_Node000005_Node000019" class="edge">
<title>Node5&#45;&gt;Node19</title>
<g id="a_edge37_Node000005_Node000019"><a xlink:title=" ">
<path fill="none" stroke="#63b8ff" d="M806.16,-177.26C808.98,-176.83 811.78,-176.41 814.5,-176 921.59,-159.87 958.44,-188.05 1055.5,-140 1080.19,-127.77 1101.8,-103.8 1114.51,-87.59"/>
<polygon fill="#63b8ff" stroke="#63b8ff" points="1117.38,-89.59 1120.61,-79.5 1111.79,-85.38 1117.38,-89.59"/>
</a>
</g>
</g>
<!-- Node20 -->
<g id="Node000020" class="node">
<title>Node20</title>
<g id="a_Node000020"><a xlink:title=" ">
<polygon fill="#e0e0e0" stroke="#999999" points="1314.5,-79.5 1214.5,-79.5 1214.5,-60.5 1314.5,-60.5 1314.5,-79.5"/>
<text text-anchor="middle" x="1264.5" y="-67.5" font-family="Helvetica,sans-Serif" font-size="10.00">IBK_LinearSpline.h</text>
</a>
</g>
</g>
<!-- Node5&#45;&gt;Node20 -->
<g id="edge36_Node000005_Node000020" class="edge">
<title>Node5&#45;&gt;Node20</title>
<g id="a_edge36_Node000005_Node000020"><a xlink:title=" ">
<path fill="none" stroke="#63b8ff" d="M806.15,-177.21C808.98,-176.8 811.77,-176.39 814.5,-176 933.47,-158.98 965.99,-169.49 1082.5,-140 1138.94,-125.71 1201.85,-99.4 1236.96,-83.72"/>
<polygon fill="#63b8ff" stroke="#63b8ff" points="1238.42,-86.9 1246.09,-79.6 1235.54,-80.52 1238.42,-86.9"/>
</a>
</g>
</g>
<!-- Node22 -->
<g id="Node000022" class="node">
<title>Node22</title>
<g id="a_Node000022"><a xlink:title=" ">
<polygon fill="#e0e0e0" stroke="#999999" points="1380,-79.5 1333,-79.5 1333,-60.5 1380,-60.5 1380,-79.5"/>
<text text-anchor="middle" x="1356.5" y="-67.5" font-family="Helvetica,sans-Serif" font-size="10.00">QColor</text>
</a>
</g>
</g>
<!-- Node5&#45;&gt;Node22 -->
<g id="edge39_Node000005_Node000022" class="edge">
<title>Node5&#45;&gt;Node22</title>
<g id="a_edge39_Node000005_Node000022"><a xlink:title=" ">
<path fill="none" stroke="#63b8ff" d="M806.14,-177.15C808.97,-176.75 811.77,-176.36 814.5,-176 952.86,-157.52 989.52,-166.85 1126.5,-140 1215.71,-122.51 1237.7,-115.04 1323.5,-85 1324.93,-84.5 1326.39,-83.97 1327.86,-83.41"/>
<polygon fill="#63b8ff" stroke="#63b8ff" points="1329.48,-86.53 1337.47,-79.57 1326.88,-80.03 1329.48,-86.53"/>
</a>
</g>
</g>
<!-- Node7&#45;&gt;Node3 -->
<g id="edge8_Node000007_Node000003" class="edge">
<title>Node7&#45;&gt;Node3</title>
<g id="a_edge8_Node000007_Node000003"><a xlink:title=" ">
<path fill="none" stroke="#63b8ff" d="M367.37,-126.86C284.72,-122.44 146.54,-111.28 103.5,-85 81.89,-71.81 66.94,-45.87 58.79,-28.36"/>
<polygon fill="#63b8ff" stroke="#63b8ff" points="61.99,-26.94 54.78,-19.18 55.58,-29.75 61.99,-26.94"/>
</a>
</g>
</g>
<!-- Node7&#45;&gt;Node4 -->
<g id="edge9_Node000007_Node000004" class="edge">
<title>Node7&#45;&gt;Node4</title>
<g id="a_edge9_Node000007_Node000004"><a xlink:title=" ">
<path fill="none" stroke="#63b8ff" d="M416.15,-120.92C402.72,-112.88 383.26,-99.89 369.5,-85 353.69,-67.88 340.6,-44.35 332.68,-28.35"/>
<polygon fill="#63b8ff" stroke="#63b8ff" points="335.72,-26.58 328.26,-19.06 329.4,-29.59 335.72,-26.58"/>
</a>
</g>
</g>
<!-- Node7&#45;&gt;Node8 -->
<g id="edge10_Node000007_Node000008" class="edge">
<title>Node7&#45;&gt;Node8</title>
<g id="a_edge10_Node000007_Node000008"><a xlink:title=" ">
<path fill="none" stroke="#63b8ff" d="M489.66,-120.99C566.44,-109.77 700.67,-90.13 776.06,-79.11"/>
<polygon fill="#63b8ff" stroke="#63b8ff" points="776.91,-82.52 786.29,-77.61 775.89,-75.6 776.91,-82.52"/>
</a>
</g>
</g>
<!-- Node7&#45;&gt;Node12 -->
<g id="edge15_Node000007_Node000012" class="edge">
<title>Node7&#45;&gt;Node12</title>
<g id="a_edge15_Node000007_Node000012"><a xlink:title=" ">
<path fill="none" stroke="#63b8ff" d="M431.8,-120.87C432.07,-112.75 432.5,-100.31 432.85,-89.89"/>
<polygon fill="#63b8ff" stroke="#63b8ff" points="436.36,-89.78 433.2,-79.67 429.36,-89.54 436.36,-89.78"/>
</a>
</g>
</g>
<!-- Node7&#45;&gt;Node14 -->
<g id="edge18_Node000007_Node000014" class="edge">
<title>Node7&#45;&gt;Node14</title>
<g id="a_edge18_Node000007_Node000014"><a xlink:title=" ">
<path fill="none" stroke="#63b8ff" d="M450.4,-120.99C472.16,-111.2 508.12,-95.02 533.21,-83.73"/>
<polygon fill="#63b8ff" stroke="#63b8ff" points="534.89,-86.81 542.57,-79.52 532.02,-80.43 534.89,-86.81"/>
</a>
</g>
</g>
<!-- Node7&#45;&gt;Node16 -->
<g id="edge21_Node000007_Node000016" class="edge">
<title>Node7&#45;&gt;Node16</title>
<g id="a_edge21_Node000007_Node000016"><a xlink:title=" ">
<path fill="none" stroke="#63b8ff" d="M394.86,-120.99C357.01,-112.21 296.99,-98.27 249.92,-87.35"/>
<polygon fill="#63b8ff" stroke="#63b8ff" points="250.62,-83.92 240.08,-85.06 249.03,-90.73 250.62,-83.92"/>
</a>
</g>
</g>
<!-- Node8&#45;&gt;Node6 -->
<g id="edge14_Node000008_Node000006" class="edge">
<title>Node8&#45;&gt;Node6</title>
<g id="a_edge14_Node000008_Node000006"><a xlink:title=" ">
<path fill="none" stroke="#63b8ff" d="M815.12,-60.37C796.92,-50.78 767.3,-35.17 746.05,-23.97"/>
<polygon fill="#63b8ff" stroke="#63b8ff" points="747.42,-20.73 736.95,-19.17 744.16,-26.93 747.42,-20.73"/>
</a>
</g>
</g>
<!-- Node9 -->
<g id="Node000009" class="node">
<title>Node9</title>
<g id="a_Node000009"><a xlink:title=" ">
<polygon fill="#e0e0e0" stroke="#999999" points="836.5,-19 792.5,-19 792.5,0 836.5,0 836.5,-19"/>
<text text-anchor="middle" x="814.5" y="-7" font-family="Helvetica,sans-Serif" font-size="10.00">vector</text>
</a>
</g>
</g>
<!-- Node8&#45;&gt;Node9 -->
<g id="edge11_Node000008_Node000009" class="edge">
<title>Node8&#45;&gt;Node9</title>
<g id="a_edge11_Node000008_Node000009"><a xlink:title=" ">
<path fill="none" stroke="#63b8ff" d="M828.99,-60.37C826.61,-52.16 822.94,-39.54 819.89,-29.05"/>
<polygon fill="#63b8ff" stroke="#63b8ff" points="823.17,-27.79 817.02,-19.17 816.45,-29.75 823.17,-27.79"/>
</a>
</g>
</g>
<!-- Node10 -->
<g id="Node000010" class="node">
<title>Node10</title>
<g id="a_Node000010"><a xlink:title=" ">
<polygon fill="#e0e0e0" stroke="#999999" points="884.5,-19 854.5,-19 854.5,0 884.5,0 884.5,-19"/>
<text text-anchor="middle" x="869.5" y="-7" font-family="Helvetica,sans-Serif" font-size="10.00">set</text>
</a>
</g>
</g>
<!-- Node8&#45;&gt;Node10 -->
<g id="edge12_Node000008_Node000010" class="edge">
<title>Node8&#45;&gt;Node10</title>
<g id="a_edge12_Node000008_Node000010"><a xlink:title=" ">
<path fill="none" stroke="#63b8ff" d="M837.11,-60.37C842.66,-51.81 851.33,-38.47 858.3,-27.74"/>
<polygon fill="#63b8ff" stroke="#63b8ff" points="861.36,-29.46 863.87,-19.17 855.49,-25.65 861.36,-29.46"/>
</a>
</g>
</g>
<!-- Node8&#45;&gt;Node11 -->
<g id="edge13_Node000008_Node000011" class="edge">
<title>Node8&#45;&gt;Node11</title>
<g id="a_edge13_Node000008_Node000011"><a xlink:title=" ">
<path fill="none" stroke="#63b8ff" d="M845.67,-60.37C861.19,-50.91 886.33,-35.59 904.65,-24.42"/>
<polygon fill="#63b8ff" stroke="#63b8ff" points="906.56,-27.36 913.28,-19.17 902.92,-21.38 906.56,-27.36"/>
</a>
</g>
</g>
<!-- Node12&#45;&gt;Node4 -->
<g id="edge17_Node000012_Node000004" class="edge">
<title>Node12&#45;&gt;Node4</title>
<g id="a_edge17_Node000012_Node000004"><a xlink:title=" ">
<path fill="none" stroke="#63b8ff" d="M417.42,-60.37C399.55,-50.78 370.46,-35.17 349.59,-23.97"/>
<polygon fill="#63b8ff" stroke="#63b8ff" points="351.12,-20.81 340.65,-19.17 347.81,-26.98 351.12,-20.81"/>
</a>
</g>
</g>
<!-- Node13 -->
<g id="Node000013" class="node">
<title>Node13</title>
<g id="a_Node000013"><a xlink:title=" ">
<polygon fill="#e0e0e0" stroke="#999999" points="520.5,-19 410.5,-19 410.5,0 520.5,0 520.5,-19"/>
<text text-anchor="middle" x="465.5" y="-7" font-family="Helvetica,sans-Serif" font-size="10.00">IBKMK_Polygon3D.h</text>
</a>
</g>
</g>
<!-- Node12&#45;&gt;Node13 -->
<g id="edge16_Node000012_Node000013" class="edge">
<title>Node12&#45;&gt;Node13</title>
<g id="a_edge16_Node000012_Node000013"><a xlink:title=" ">
<path fill="none" stroke="#63b8ff" d="M438.22,-60.37C442.85,-51.9 450.05,-38.74 455.89,-28.07"/>
<polygon fill="#63b8ff" stroke="#63b8ff" points="459.03,-29.62 460.76,-19.17 452.89,-26.26 459.03,-29.62"/>
</a>
</g>
</g>
<!-- Node14&#45;&gt;Node4 -->
<g id="edge20_Node000014_Node000004" class="edge">
<title>Node14&#45;&gt;Node4</title>
<g id="a_edge20_Node000014_Node000004"><a xlink:title=" ">
<path fill="none" stroke="#63b8ff" d="M527.04,-60.49C485.26,-50.18 414.78,-32.78 368.96,-21.47"/>
<polygon fill="#63b8ff" stroke="#63b8ff" points="369.55,-18.02 359,-19.02 367.87,-24.81 369.55,-18.02"/>
</a>
</g>
</g>
<!-- Node15 -->
<g id="Node000015" class="node">
<title>Node15</title>
<g id="a_Node000015"><a xlink:title=" ">
<polygon fill="#e0e0e0" stroke="#999999" points="648.5,-19 538.5,-19 538.5,0 648.5,0 648.5,-19"/>
<text text-anchor="middle" x="593.5" y="-7" font-family="Helvetica,sans-Serif" font-size="10.00">IBKMK_Polygon2D.h</text>
</a>
</g>
</g>
<!-- Node14&#45;&gt;Node15 -->
<g id="edge19_Node000014_Node000015" class="edge">
<title>Node14&#45;&gt;Node15</title>
<g id="a_edge19_Node000014_Node000015"><a xlink:title=" ">
<path fill="none" stroke="#63b8ff" d="M566.22,-60.37C570.85,-51.9 578.05,-38.74 583.89,-28.07"/>
<polygon fill="#63b8ff" stroke="#63b8ff" points="587.03,-29.62 588.76,-19.17 580.89,-26.26 587.03,-29.62"/>
</a>
</g>
</g>
<!-- Node16&#45;&gt;Node3 -->
<g id="edge22_Node000016_Node000003" class="edge">
<title>Node16&#45;&gt;Node3</title>
<g id="a_edge22_Node000016_Node000003"><a xlink:title=" ">
<path fill="none" stroke="#63b8ff" d="M148.84,-54.99C127.77,-45.36 100.01,-32.67 79.53,-23.31"/>
<polygon fill="#63b8ff" stroke="#63b8ff" points="80.95,-20.11 70.4,-19.14 78.04,-26.48 80.95,-20.11"/>
</a>
</g>
</g>
<!-- Node17 -->
<g id="Node000017" class="node">
<title>Node17</title>
<g id="a_Node000017"><a xlink:title=" ">
<polygon fill="#e0e0e0" stroke="#999999" points="238,-19 121,-19 121,0 238,0 238,-19"/>
<text text-anchor="middle" x="179.5" y="-7" font-family="Helvetica,sans-Serif" font-size="10.00">IBKMK_Triangulation.h</text>
</a>
</g>
</g>
<!-- Node16&#45;&gt;Node17 -->
<g id="edge23_Node000016_Node000017" class="edge">
<title>Node16&#45;&gt;Node17</title>
<g id="a_edge23_Node000016_Node000017"><a xlink:title=" ">
<path fill="none" stroke="#63b8ff" d="M179.5,-54.84C179.5,-47.21 179.5,-37.7 179.5,-29.45"/>
<polygon fill="#63b8ff" stroke="#63b8ff" points="183,-29.27 179.5,-19.27 176,-29.27 183,-29.27"/>
</a>
</g>
</g>
<!-- Node18&#45;&gt;Node4 -->
<g id="edge26_Node000018_Node000004" class="edge">
<title>Node18&#45;&gt;Node4</title>
<g id="a_edge26_Node000018_Node000004"><a xlink:title=" ">
<path fill="none" stroke="#63b8ff" d="M936.02,-120.94C886.05,-112.67 809.45,-99.33 743.5,-85 690.62,-73.51 678.56,-65.64 625.5,-55 550.07,-39.88 463.04,-27.56 402.03,-19.75"/>
<polygon fill="#63b8ff" stroke="#63b8ff" points="402.45,-16.27 392.09,-18.49 401.57,-23.22 402.45,-16.27"/>
</a>
</g>
</g>
<!-- Node18&#45;&gt;Node6 -->
<g id="edge27_Node000018_Node000006" class="edge">
<title>Node18&#45;&gt;Node6</title>
<g id="a_edge27_Node000018_Node000006"><a xlink:title=" ">
<path fill="none" stroke="#63b8ff" d="M932.83,-128.23C887.66,-124.84 824.43,-114.57 777.5,-85 755.39,-71.06 738.6,-45.32 729.15,-28.05"/>
<polygon fill="#63b8ff" stroke="#63b8ff" points="732.17,-26.27 724.45,-19.01 725.96,-29.5 732.17,-26.27"/>
</a>
</g>
</g>
<!-- Node18&#45;&gt;Node8 -->
<g id="edge29_Node000018_Node000008" class="edge">
<title>Node18&#45;&gt;Node8</title>
<g id="a_edge29_Node000018_Node000008"><a xlink:title=" ">
<path fill="none" stroke="#63b8ff" d="M966.53,-120.99C939.61,-111.03 894.83,-94.45 864.27,-83.13"/>
<polygon fill="#63b8ff" stroke="#63b8ff" points="865.1,-79.71 854.5,-79.52 862.66,-86.27 865.1,-79.71"/>
</a>
</g>
</g>
<!-- Node18&#45;&gt;Node11 -->
<g id="edge33_Node000018_Node000011" class="edge">
<title>Node18&#45;&gt;Node11</title>
<g id="a_edge33_Node000018_Node000011"><a xlink:title=" ">
<path fill="none" stroke="#63b8ff" d="M983.57,-120.84C977.64,-112.02 968.44,-97.85 961.5,-85 951.41,-66.3 941.51,-44.03 935.02,-28.74"/>
<polygon fill="#63b8ff" stroke="#63b8ff" points="938.2,-27.27 931.11,-19.4 931.74,-29.98 938.2,-27.27"/>
</a>
</g>
</g>
<!-- Node18&#45;&gt;Node14 -->
<g id="edge28_Node000018_Node000014" class="edge">
<title>Node18&#45;&gt;Node14</title>
<g id="a_edge28_Node000018_Node000014"><a xlink:title=" ">
<path fill="none" stroke="#63b8ff" d="M932.73,-123.83C861.79,-116.42 736.8,-102.35 630.5,-85 624.17,-83.97 617.53,-82.77 610.98,-81.52"/>
<polygon fill="#63b8ff" stroke="#63b8ff" points="611.3,-78.01 600.81,-79.52 609.95,-84.88 611.3,-78.01"/>
</a>
</g>
</g>
<!-- Node18&#45;&gt;Node19 -->
<g id="edge30_Node000018_Node000019" class="edge">
<title>Node18&#45;&gt;Node19</title>
<g id="a_edge30_Node000018_Node000019"><a xlink:title=" ">
<path fill="none" stroke="#63b8ff" d="M1009.42,-120.99C1032.45,-111.16 1070.58,-94.88 1097.04,-83.58"/>
<polygon fill="#63b8ff" stroke="#63b8ff" points="1098.73,-86.66 1106.55,-79.52 1095.98,-80.22 1098.73,-86.66"/>
</a>
</g>
</g>
<!-- Node18&#45;&gt;Node20 -->
<g id="edge31_Node000018_Node000020" class="edge">
<title>Node18&#45;&gt;Node20</title>
<g id="a_edge31_Node000018_Node000020"><a xlink:title=" ">
<path fill="none" stroke="#63b8ff" d="M1033.02,-120.93C1076.7,-112.24 1145.88,-98.21 1205.5,-85 1209.96,-84.01 1214.6,-82.96 1219.23,-81.89"/>
<polygon fill="#63b8ff" stroke="#63b8ff" points="1220.34,-85.22 1229.29,-79.54 1218.75,-78.4 1220.34,-85.22"/>
</a>
</g>
</g>
<!-- Node21 -->
<g id="Node000021" class="node">
<title>Node21</title>
<g id="a_Node000021"><a xlink:title=" ">
<polygon fill="#e0e0e0" stroke="#999999" points="1038.5,-79.5 970.5,-79.5 970.5,-60.5 1038.5,-60.5 1038.5,-79.5"/>
<text text-anchor="middle" x="1004.5" y="-67.5" font-family="Helvetica,sans-Serif" font-size="10.00">IBK_point.h</text>
</a>
</g>
</g>
<!-- Node18&#45;&gt;Node21 -->
<g id="edge32_Node000018_Node000021" class="edge">
<title>Node18&#45;&gt;Node21</title>
<g id="a_edge32_Node000018_Node000021"><a xlink:title=" ">
<path fill="none" stroke="#63b8ff" d="M991.71,-120.87C993.82,-112.66 997.05,-100.04 999.74,-89.55"/>
<polygon fill="#63b8ff" stroke="#63b8ff" points="1003.18,-90.22 1002.28,-79.67 996.4,-88.48 1003.18,-90.22"/>
</a>
</g>
</g>
<!-- Node18&#45;&gt;Node22 -->
<g id="edge34_Node000018_Node000022" class="edge">
<title>Node18&#45;&gt;Node22</title>
<g id="a_edge34_Node000018_Node000022"><a xlink:title=" ">
<path fill="none" stroke="#63b8ff" d="M1046.26,-126.59C1113.46,-122.08 1228.28,-111.03 1323.5,-85 1325.39,-84.48 1327.32,-83.88 1329.24,-83.22"/>
<polygon fill="#63b8ff" stroke="#63b8ff" points="1330.58,-86.46 1338.66,-79.6 1328.07,-79.92 1330.58,-86.46"/>
</a>
</g>
</g>
<!-- Node24 -->
<g id="Node000024" class="node">
<title>Node24</title>
<g id="a_Node000024"><a xlink:title=" ">
<polygon fill="#e0e0e0" stroke="#999999" points="865,-195 824,-195 824,-176 865,-176 865,-195"/>
<text text-anchor="middle" x="844.5" y="-183" font-family="Helvetica,sans-Serif" font-size="10.00">string</text>
</a>
</g>
</g>
<!-- Node23&#45;&gt;Node24 -->
<g id="edge43_Node000023_Node000024" class="edge">
<title>Node23&#45;&gt;Node24</title>
<g id="a_edge43_Node000023_Node000024"><a xlink:title=" ">
<path fill="none" stroke="#63b8ff" d="M871.22,-230.75C866.79,-223.42 860.34,-212.73 854.88,-203.7"/>
<polygon fill="#63b8ff" stroke="#63b8ff" points="857.85,-201.84 849.69,-195.09 851.86,-205.46 857.85,-201.84"/>
</a>
</g>
</g>
<!-- Node25 -->
<g id="Node000025" class="node">
<title>Node25</title>
<g id="a_Node000025"><a xlink:title=" ">
<polygon fill="#e0e0e0" stroke="#999999" points="934,-195 883,-195 883,-176 934,-176 934,-195"/>
<text text-anchor="middle" x="908.5" y="-183" font-family="Helvetica,sans-Serif" font-size="10.00">typeinfo</text>
</a>
</g>
</g>
<!-- Node23&#45;&gt;Node25 -->
<g id="edge44_Node000023_Node000025" class="edge">
<title>Node23&#45;&gt;Node25</title>
<g id="a_edge44_Node000023_Node000025"><a xlink:title=" ">
<path fill="none" stroke="#63b8ff" d="M881.78,-230.75C886.21,-223.42 892.66,-212.73 898.12,-203.7"/>
<polygon fill="#63b8ff" stroke="#63b8ff" points="901.14,-205.46 903.31,-195.09 895.15,-201.84 901.14,-205.46"/>
</a>
</g>
</g>
<!-- Node26 -->
<g id="Node000026" class="node">
<title>Node26</title>
<g id="a_Node000026"><a xlink:title=" ">
<polygon fill="#e0e0e0" stroke="#999999" points="1043,-195 952,-195 952,-176 1043,-176 1043,-195"/>
<text text-anchor="middle" x="997.5" y="-183" font-family="Helvetica,sans-Serif" font-size="10.00">IBK_Parameter.h</text>
</a>
</g>
</g>
<!-- Node23&#45;&gt;Node26 -->
<g id="edge45_Node000023_Node000026" class="edge">
<title>Node23&#45;&gt;Node26</title>
<g id="a_edge45_Node000023_Node000026"><a xlink:title=" ">
<path fill="none" stroke="#63b8ff" d="M895.94,-230.98C915.49,-222.42 945.88,-209.11 968.32,-199.28"/>
<polygon fill="#63b8ff" stroke="#63b8ff" points="969.95,-202.39 977.71,-195.17 967.14,-195.98 969.95,-202.39"/>
</a>
</g>
</g>
<!-- Node27 -->
<g id="Node000027" class="node">
<title>Node27</title>
<g id="a_Node000027"><a xlink:title=" ">
<polygon fill="#e0e0e0" stroke="#999999" points="1139.5,-195 1061.5,-195 1061.5,-176 1139.5,-176 1139.5,-195"/>
<text text-anchor="middle" x="1100.5" y="-183" font-family="Helvetica,sans-Serif" font-size="10.00">IBK_IntPara.h</text>
</a>
</g>
</g>
<!-- Node23&#45;&gt;Node27 -->
<g id="edge46_Node000023_Node000027" class="edge">
<title>Node23&#45;&gt;Node27</title>
<g id="a_edge46_Node000023_Node000027"><a xlink:title=" ">
<path fill="none" stroke="#63b8ff" d="M912.49,-230.98C950.99,-221.87 1012.19,-207.4 1054.24,-197.45"/>
<polygon fill="#63b8ff" stroke="#63b8ff" points="1055.3,-200.79 1064.23,-195.08 1053.69,-193.98 1055.3,-200.79"/>
</a>
</g>
</g>
</g>
</svg>
