<?xml version="1.0" encoding="UTF-8" standalone="no"?>
<!DOCTYPE svg PUBLIC "-//W3C//DTD SVG 1.1//EN"
 "http://www.w3.org/Graphics/SVG/1.1/DTD/svg11.dtd">
<!-- Generated by graphviz version 2.43.0 (0)
 -->
<!-- Title: /home/hirth/git/SIM&#45;VICUS.master2/externals/Vicus/src/ncg/ncg_VICUS_SupplySystem.cpp Pages: 1 -->
<svg width="1420pt" height="280pt"
 viewBox="0.00 0.00 1419.50 280.00" xmlns="http://www.w3.org/2000/svg" xmlns:xlink="http://www.w3.org/1999/xlink">
<g id="graph0" class="graph" transform="scale(1 1) rotate(0) translate(4 276)">
<title>/home/hirth/git/SIM&#45;VICUS.master2/externals/Vicus/src/ncg/ncg_VICUS_SupplySystem.cpp</title>
<!-- Node1 -->
<g id="Node000001" class="node">
<title>Node1</title>
<g id="a_Node000001"><a xlink:title=" ">
<polygon fill="#999999" stroke="#666666" points="1100,-272 965,-272 965,-220 1100,-220 1100,-272"/>
<text text-anchor="start" x="973" y="-260" font-family="Helvetica,sans-Serif" font-size="10.00">/home/hirth/git/SIM</text>
<text text-anchor="start" x="973" y="-249" font-family="Helvetica,sans-Serif" font-size="10.00">&#45;VICUS.master2/externals</text>
<text text-anchor="start" x="973" y="-238" font-family="Helvetica,sans-Serif" font-size="10.00">/Vicus/src/ncg/ncg_VICUS</text>
<text text-anchor="middle" x="1032.5" y="-227" font-family="Helvetica,sans-Serif" font-size="10.00">_SupplySystem.cpp</text>
</a>
</g>
</g>
<!-- Node2 -->
<g id="Node000002" class="node">
<title>Node2</title>
<g id="a_Node000002"><a xlink:href="_v_i_c_u_s___supply_system_8h.html" target="_top" xlink:title=" ">
<polygon fill="white" stroke="#666666" points="683,-184 558,-184 558,-165 683,-165 683,-184"/>
<text text-anchor="middle" x="620.5" y="-172" font-family="Helvetica,sans-Serif" font-size="10.00">VICUS_SupplySystem.h</text>
</a>
</g>
</g>
<!-- Node1&#45;&gt;Node2 -->
<g id="edge1_Node000001_Node000002" class="edge">
<title>Node1&#45;&gt;Node2</title>
<g id="a_edge1_Node000001_Node000002"><a xlink:title=" ">
<path fill="none" stroke="#63b8ff" d="M964.93,-233.6C886.11,-220.31 756.97,-198.52 681.22,-185.74"/>
<polygon fill="#63b8ff" stroke="#63b8ff" points="681.34,-182.21 670.89,-184 680.17,-189.12 681.34,-182.21"/>
</a>
</g>
</g>
<!-- Node10 -->
<g id="Node000010" class="node">
<title>Node10</title>
<g id="a_Node000010"><a xlink:href="_v_i_c_u_s___constants_8h.html" target="_top" xlink:title="Contains global constants for the SIM&#45;VICUS data model.">
<polygon fill="white" stroke="#666666" points="385,-19 278,-19 278,0 385,0 385,-19"/>
<text text-anchor="middle" x="331.5" y="-7" font-family="Helvetica,sans-Serif" font-size="10.00">VICUS_Constants.h</text>
</a>
</g>
</g>
<!-- Node1&#45;&gt;Node10 -->
<g id="edge27_Node000001_Node000010" class="edge">
<title>Node1&#45;&gt;Node10</title>
<g id="a_edge27_Node000001_Node000010"><a xlink:title=" ">
<path fill="none" stroke="#63b8ff" d="M964.94,-245.85C792.53,-246.42 343.44,-237.26 253.5,-129 224.58,-94.19 277.35,-48.31 309.45,-25.18"/>
<polygon fill="#63b8ff" stroke="#63b8ff" points="311.68,-27.89 317.87,-19.29 307.67,-22.15 311.68,-27.89"/>
</a>
</g>
</g>
<!-- Node15 -->
<g id="Node000015" class="node">
<title>Node15</title>
<g id="a_Node000015"><a xlink:title=" ">
<polygon fill="#e0e0e0" stroke="#999999" points="1032.5,-74 940.5,-74 940.5,-55 1032.5,-55 1032.5,-74"/>
<text text-anchor="middle" x="986.5" y="-62" font-family="Helvetica,sans-Serif" font-size="10.00">IBK_messages.h</text>
</a>
</g>
</g>
<!-- Node1&#45;&gt;Node15 -->
<g id="edge24_Node000001_Node000015" class="edge">
<title>Node1&#45;&gt;Node15</title>
<g id="a_edge24_Node000001_Node000015"><a xlink:title=" ">
<path fill="none" stroke="#63b8ff" d="M1026.01,-219.66C1016.66,-183.18 999.62,-116.69 991.31,-84.28"/>
<polygon fill="#63b8ff" stroke="#63b8ff" points="994.64,-83.15 988.76,-74.34 987.86,-84.89 994.64,-83.15"/>
</a>
</g>
</g>
<!-- Node16 -->
<g id="Node000016" class="node">
<title>Node16</title>
<g id="a_Node000016"><a xlink:title=" ">
<polygon fill="#e0e0e0" stroke="#999999" points="1106.5,-74 1050.5,-74 1050.5,-55 1106.5,-55 1106.5,-74"/>
<text text-anchor="middle" x="1078.5" y="-62" font-family="Helvetica,sans-Serif" font-size="10.00">tinyxml.h</text>
</a>
</g>
</g>
<!-- Node1&#45;&gt;Node16 -->
<g id="edge29_Node000001_Node000016" class="edge">
<title>Node1&#45;&gt;Node16</title>
<g id="a_edge29_Node000001_Node000016"><a xlink:title=" ">
<path fill="none" stroke="#63b8ff" d="M1038.99,-219.66C1048.34,-183.18 1065.38,-116.69 1073.69,-84.28"/>
<polygon fill="#63b8ff" stroke="#63b8ff" points="1077.14,-84.89 1076.24,-74.34 1070.36,-83.15 1077.14,-84.89"/>
</a>
</g>
</g>
<!-- Node17 -->
<g id="Node000017" class="node">
<title>Node17</title>
<g id="a_Node000017"><a xlink:href="_v_i_c_u_s___keyword_list_8h.html" target="_top" xlink:title="Contains the declaration of class KeywordList.">
<polygon fill="white" stroke="#666666" points="206.5,-184 90.5,-184 90.5,-165 206.5,-165 206.5,-184"/>
<text text-anchor="middle" x="148.5" y="-172" font-family="Helvetica,sans-Serif" font-size="10.00">VICUS_KeywordList.h</text>
</a>
</g>
</g>
<!-- Node1&#45;&gt;Node17 -->
<g id="edge19_Node000001_Node000017" class="edge">
<title>Node1&#45;&gt;Node17</title>
<g id="a_edge19_Node000001_Node000017"><a xlink:title=" ">
<path fill="none" stroke="#63b8ff" d="M964.78,-240.89C825.34,-232.21 496.13,-210.61 220.5,-184 219.23,-183.88 217.95,-183.75 216.66,-183.62"/>
<polygon fill="#63b8ff" stroke="#63b8ff" points="216.94,-180.13 206.64,-182.58 216.22,-187.1 216.94,-180.13"/>
</a>
</g>
</g>
<!-- Node21 -->
<g id="Node000021" class="node">
<title>Node21</title>
<g id="a_Node000021"><a xlink:title=" ">
<polygon fill="#e0e0e0" stroke="#999999" points="1169.5,-184 1079.5,-184 1079.5,-165 1169.5,-165 1169.5,-184"/>
<text text-anchor="middle" x="1124.5" y="-172" font-family="Helvetica,sans-Serif" font-size="10.00">IBK_Exception.h</text>
</a>
</g>
</g>
<!-- Node1&#45;&gt;Node21 -->
<g id="edge25_Node000001_Node000021" class="edge">
<title>Node1&#45;&gt;Node21</title>
<g id="a_edge25_Node000001_Node000021"><a xlink:title=" ">
<path fill="none" stroke="#63b8ff" d="M1065.71,-219.91C1078.84,-209.99 1093.47,-198.94 1104.86,-190.34"/>
<polygon fill="#63b8ff" stroke="#63b8ff" points="1106.98,-193.12 1112.85,-184.3 1102.76,-187.54 1106.98,-193.12"/>
</a>
</g>
</g>
<!-- Node22 -->
<g id="Node000022" class="node">
<title>Node22</title>
<g id="a_Node000022"><a xlink:title=" ">
<polygon fill="#e0e0e0" stroke="#999999" points="1279.5,-184 1187.5,-184 1187.5,-165 1279.5,-165 1279.5,-184"/>
<text text-anchor="middle" x="1233.5" y="-172" font-family="Helvetica,sans-Serif" font-size="10.00">IBK_StringUtils.h</text>
</a>
</g>
</g>
<!-- Node1&#45;&gt;Node22 -->
<g id="edge26_Node000001_Node000022" class="edge">
<title>Node1&#45;&gt;Node22</title>
<g id="a_edge26_Node000001_Node000022"><a xlink:title=" ">
<path fill="none" stroke="#63b8ff" d="M1100.27,-221.57C1133.42,-210.11 1171.9,-196.8 1198.95,-187.44"/>
<polygon fill="#63b8ff" stroke="#63b8ff" points="1200.42,-190.64 1208.73,-184.06 1198.14,-184.02 1200.42,-190.64"/>
</a>
</g>
</g>
<!-- Node23 -->
<g id="Node000023" class="node">
<title>Node23</title>
<g id="a_Node000023"><a xlink:title=" ">
<polygon fill="#e0e0e0" stroke="#999999" points="1411.5,-184 1297.5,-184 1297.5,-165 1411.5,-165 1411.5,-184"/>
<text text-anchor="middle" x="1354.5" y="-172" font-family="Helvetica,sans-Serif" font-size="10.00">NANDRAD_Utilities.h</text>
</a>
</g>
</g>
<!-- Node1&#45;&gt;Node23 -->
<g id="edge28_Node000001_Node000023" class="edge">
<title>Node1&#45;&gt;Node23</title>
<g id="a_edge28_Node000001_Node000023"><a xlink:title=" ">
<path fill="none" stroke="#63b8ff" d="M1100,-230.43C1161.29,-217.2 1250.23,-198.01 1305.11,-186.16"/>
<polygon fill="#63b8ff" stroke="#63b8ff" points="1305.91,-189.57 1314.95,-184.04 1304.43,-182.73 1305.91,-189.57"/>
</a>
</g>
</g>
<!-- Node3 -->
<g id="Node000003" class="node">
<title>Node3</title>
<g id="a_Node000003"><a xlink:title=" ">
<polygon fill="#e0e0e0" stroke="#999999" points="863.5,-129 813.5,-129 813.5,-110 863.5,-110 863.5,-129"/>
<text text-anchor="middle" x="838.5" y="-117" font-family="Helvetica,sans-Serif" font-size="10.00">QString</text>
</a>
</g>
</g>
<!-- Node2&#45;&gt;Node3 -->
<g id="edge2_Node000002_Node000003" class="edge">
<title>Node2&#45;&gt;Node3</title>
<g id="a_edge2_Node000002_Node000003"><a xlink:title=" ">
<path fill="none" stroke="#63b8ff" d="M656.14,-164.97C691.19,-156.55 746.49,-143.23 803.37,-129.26"/>
<polygon fill="#63b8ff" stroke="#63b8ff" points="804.38,-132.62 813.25,-126.83 802.71,-125.82 804.38,-132.62"/>
</a>
</g>
</g>
<!-- Node4 -->
<g id="Node000004" class="node">
<title>Node4</title>
<g id="a_Node000004"><a xlink:title=" ">
<polygon fill="#e0e0e0" stroke="#999999" points="733,-129 640,-129 640,-110 733,-110 733,-129"/>
<text text-anchor="middle" x="686.5" y="-117" font-family="Helvetica,sans-Serif" font-size="10.00">QCoreApplication</text>
</a>
</g>
</g>
<!-- Node2&#45;&gt;Node4 -->
<g id="edge3_Node000002_Node000004" class="edge">
<title>Node2&#45;&gt;Node4</title>
<g id="a_edge3_Node000002_Node000004"><a xlink:title=" ">
<path fill="none" stroke="#63b8ff" d="M631.1,-164.98C640.96,-157.07 655.85,-145.11 667.72,-135.58"/>
<polygon fill="#63b8ff" stroke="#63b8ff" points="670.1,-138.16 675.7,-129.17 665.71,-132.7 670.1,-138.16"/>
</a>
</g>
</g>
<!-- Node5 -->
<g id="Node000005" class="node">
<title>Node5</title>
<g id="a_Node000005"><a xlink:title=" ">
<polygon fill="#e0e0e0" stroke="#999999" points="795.5,-129 751.5,-129 751.5,-110 795.5,-110 795.5,-129"/>
<text text-anchor="middle" x="773.5" y="-117" font-family="Helvetica,sans-Serif" font-size="10.00">vector</text>
</a>
</g>
</g>
<!-- Node2&#45;&gt;Node5 -->
<g id="edge4_Node000002_Node000005" class="edge">
<title>Node2&#45;&gt;Node5</title>
<g id="a_edge4_Node000002_Node000005"><a xlink:title=" ">
<path fill="none" stroke="#63b8ff" d="M645.08,-164.98C671.38,-155.88 713.17,-141.4 741.89,-131.45"/>
<polygon fill="#63b8ff" stroke="#63b8ff" points="743.16,-134.71 751.46,-128.13 740.87,-128.1 743.16,-134.71"/>
</a>
</g>
</g>
<!-- Node6 -->
<g id="Node000006" class="node">
<title>Node6</title>
<g id="a_Node000006"><a xlink:title=" ">
<polygon fill="#e0e0e0" stroke="#999999" points="354,-129 263,-129 263,-110 354,-110 354,-129"/>
<text text-anchor="middle" x="308.5" y="-117" font-family="Helvetica,sans-Serif" font-size="10.00">IBK_Parameter.h</text>
</a>
</g>
</g>
<!-- Node2&#45;&gt;Node6 -->
<g id="edge5_Node000002_Node000006" class="edge">
<title>Node2&#45;&gt;Node6</title>
<g id="a_edge5_Node000002_Node000006"><a xlink:title=" ">
<path fill="none" stroke="#63b8ff" d="M570.37,-164.98C514.15,-155.43 423.18,-139.98 364.62,-130.03"/>
<polygon fill="#63b8ff" stroke="#63b8ff" points="364.88,-126.53 354.44,-128.3 363.71,-133.43 364.88,-126.53"/>
</a>
</g>
</g>
<!-- Node7 -->
<g id="Node000007" class="node">
<title>Node7</title>
<g id="a_Node000007"><a xlink:title=" ">
<polygon fill="#e0e0e0" stroke="#999999" points="538,-19 403,-19 403,0 538,0 538,-19"/>
<text text-anchor="middle" x="470.5" y="-7" font-family="Helvetica,sans-Serif" font-size="10.00">IBK_MultiLanguageString.h</text>
</a>
</g>
</g>
<!-- Node2&#45;&gt;Node7 -->
<g id="edge6_Node000002_Node000007" class="edge">
<title>Node2&#45;&gt;Node7</title>
<g id="a_edge6_Node000002_Node000007"><a xlink:title=" ">
<path fill="none" stroke="#63b8ff" d="M557.96,-165.76C528.97,-159.62 495.49,-148.64 470.5,-129 442.33,-106.86 427.51,-89.11 438.5,-55 441.84,-44.62 448.6,-34.62 455.05,-26.74"/>
<polygon fill="#63b8ff" stroke="#63b8ff" points="457.79,-28.92 461.75,-19.1 452.53,-24.31 457.79,-28.92"/>
</a>
</g>
</g>
<!-- Node8 -->
<g id="Node000008" class="node">
<title>Node8</title>
<g id="a_Node000008"><a xlink:href="_v_i_c_u_s___abstract_d_b_element_8h.html" target="_top" xlink:title=" ">
<polygon fill="white" stroke="#666666" points="597,-74 448,-74 448,-55 597,-55 597,-74"/>
<text text-anchor="middle" x="522.5" y="-62" font-family="Helvetica,sans-Serif" font-size="10.00">VICUS_AbstractDBElement.h</text>
</a>
</g>
</g>
<!-- Node2&#45;&gt;Node8 -->
<g id="edge7_Node000002_Node000008" class="edge">
<title>Node2&#45;&gt;Node8</title>
<g id="a_edge7_Node000002_Node000008"><a xlink:title=" ">
<path fill="none" stroke="#63b8ff" d="M557.97,-170.44C528.57,-165.48 496,-154.13 477.5,-129 465.36,-112.51 483.37,-93.28 500.09,-80.34"/>
<polygon fill="#63b8ff" stroke="#63b8ff" points="502.51,-82.91 508.54,-74.2 498.4,-77.25 502.51,-82.91"/>
</a>
</g>
</g>
<!-- Node2&#45;&gt;Node10 -->
<g id="edge11_Node000002_Node000010" class="edge">
<title>Node2&#45;&gt;Node10</title>
<g id="a_edge11_Node000002_Node000010"><a xlink:title=" ">
<path fill="none" stroke="#63b8ff" d="M557.76,-165.97C523.17,-159.79 480.49,-148.7 446.5,-129 401.22,-102.75 362.03,-53.67 343.28,-27.67"/>
<polygon fill="#63b8ff" stroke="#63b8ff" points="345.94,-25.38 337.32,-19.23 340.22,-29.41 345.94,-25.38"/>
</a>
</g>
</g>
<!-- Node11 -->
<g id="Node000011" class="node">
<title>Node11</title>
<g id="a_Node000011"><a xlink:href="_v_i_c_u_s___code_gen_macros_8h.html" target="_top" xlink:title=" ">
<polygon fill="white" stroke="#666666" points="622,-129 487,-129 487,-110 622,-110 622,-129"/>
<text text-anchor="middle" x="554.5" y="-117" font-family="Helvetica,sans-Serif" font-size="10.00">VICUS_CodeGenMacros.h</text>
</a>
</g>
</g>
<!-- Node2&#45;&gt;Node11 -->
<g id="edge12_Node000002_Node000011" class="edge">
<title>Node2&#45;&gt;Node11</title>
<g id="a_edge12_Node000002_Node000011"><a xlink:title=" ">
<path fill="none" stroke="#63b8ff" d="M609.9,-164.98C600.04,-157.07 585.15,-145.11 573.28,-135.58"/>
<polygon fill="#63b8ff" stroke="#63b8ff" points="575.29,-132.7 565.3,-129.17 570.9,-138.16 575.29,-132.7"/>
</a>
</g>
</g>
<!-- Node12 -->
<g id="Node000012" class="node">
<title>Node12</title>
<g id="a_Node000012"><a xlink:href="_v_i_c_u_s___database_8h.html" target="_top" xlink:title=" ">
<polygon fill="white" stroke="#666666" points="985.5,-129 881.5,-129 881.5,-110 985.5,-110 985.5,-129"/>
<text text-anchor="middle" x="933.5" y="-117" font-family="Helvetica,sans-Serif" font-size="10.00">VICUS_Database.h</text>
</a>
</g>
</g>
<!-- Node2&#45;&gt;Node12 -->
<g id="edge13_Node000002_Node000012" class="edge">
<title>Node2&#45;&gt;Node12</title>
<g id="a_edge13_Node000002_Node000012"><a xlink:title=" ">
<path fill="none" stroke="#63b8ff" d="M670.79,-164.98C725.92,-155.65 814.35,-140.67 873.18,-130.71"/>
<polygon fill="#63b8ff" stroke="#63b8ff" points="873.8,-134.16 883.08,-129.04 872.63,-127.26 873.8,-134.16"/>
</a>
</g>
</g>
<!-- Node8&#45;&gt;Node7 -->
<g id="edge8_Node000008_Node000007" class="edge">
<title>Node8&#45;&gt;Node7</title>
<g id="a_edge8_Node000008_Node000007"><a xlink:title=" ">
<path fill="none" stroke="#63b8ff" d="M513.91,-54.75C506.34,-47.03 495.12,-35.6 485.99,-26.28"/>
<polygon fill="#63b8ff" stroke="#63b8ff" points="488.43,-23.78 478.93,-19.09 483.43,-28.68 488.43,-23.78"/>
</a>
</g>
</g>
<!-- Node9 -->
<g id="Node000009" class="node">
<title>Node9</title>
<g id="a_Node000009"><a xlink:title=" ">
<polygon fill="#e0e0e0" stroke="#999999" points="603,-19 556,-19 556,0 603,0 603,-19"/>
<text text-anchor="middle" x="579.5" y="-7" font-family="Helvetica,sans-Serif" font-size="10.00">QColor</text>
</a>
</g>
</g>
<!-- Node8&#45;&gt;Node9 -->
<g id="edge9_Node000008_Node000009" class="edge">
<title>Node8&#45;&gt;Node9</title>
<g id="a_edge9_Node000008_Node000009"><a xlink:title=" ">
<path fill="none" stroke="#63b8ff" d="M531.66,-54.98C540,-47.23 552.53,-35.58 562.68,-26.14"/>
<polygon fill="#63b8ff" stroke="#63b8ff" points="565.24,-28.54 570.18,-19.17 560.47,-23.42 565.24,-28.54"/>
</a>
</g>
</g>
<!-- Node8&#45;&gt;Node10 -->
<g id="edge10_Node000008_Node000010" class="edge">
<title>Node8&#45;&gt;Node10</title>
<g id="a_edge10_Node000008_Node000010"><a xlink:title=" ">
<path fill="none" stroke="#63b8ff" d="M491.81,-54.98C459.33,-45.97 407.9,-31.7 372.09,-21.76"/>
<polygon fill="#63b8ff" stroke="#63b8ff" points="373,-18.38 362.43,-19.08 371.13,-25.13 373,-18.38"/>
</a>
</g>
</g>
<!-- Node12&#45;&gt;Node8 -->
<g id="edge15_Node000012_Node000008" class="edge">
<title>Node12&#45;&gt;Node8</title>
<g id="a_edge15_Node000012_Node000008"><a xlink:title=" ">
<path fill="none" stroke="#63b8ff" d="M881.26,-111.18C878.3,-110.78 875.36,-110.38 872.5,-110 779.62,-97.62 672.76,-84.15 601.8,-75.31"/>
<polygon fill="#63b8ff" stroke="#63b8ff" points="601.95,-71.8 591.6,-74.04 601.09,-78.75 601.95,-71.8"/>
</a>
</g>
</g>
<!-- Node13 -->
<g id="Node000013" class="node">
<title>Node13</title>
<g id="a_Node000013"><a xlink:title=" ">
<polygon fill="#e0e0e0" stroke="#999999" points="922,-74 887,-74 887,-55 922,-55 922,-74"/>
<text text-anchor="middle" x="904.5" y="-62" font-family="Helvetica,sans-Serif" font-size="10.00">map</text>
</a>
</g>
</g>
<!-- Node12&#45;&gt;Node13 -->
<g id="edge14_Node000012_Node000013" class="edge">
<title>Node12&#45;&gt;Node13</title>
<g id="a_edge14_Node000012_Node000013"><a xlink:title=" ">
<path fill="none" stroke="#63b8ff" d="M928.71,-109.75C924.74,-102.49 918.97,-91.95 914.07,-82.98"/>
<polygon fill="#63b8ff" stroke="#63b8ff" points="917.07,-81.18 909.2,-74.09 910.93,-84.54 917.07,-81.18"/>
</a>
</g>
</g>
<!-- Node14 -->
<g id="Node000014" class="node">
<title>Node14</title>
<g id="a_Node000014"><a xlink:title=" ">
<polygon fill="#e0e0e0" stroke="#999999" points="869,-74 802,-74 802,-55 869,-55 869,-74"/>
<text text-anchor="middle" x="835.5" y="-62" font-family="Helvetica,sans-Serif" font-size="10.00">IBK_Path.h</text>
</a>
</g>
</g>
<!-- Node12&#45;&gt;Node14 -->
<g id="edge16_Node000012_Node000014" class="edge">
<title>Node12&#45;&gt;Node14</title>
<g id="a_edge16_Node000012_Node000014"><a xlink:title=" ">
<path fill="none" stroke="#63b8ff" d="M917.75,-109.98C902.27,-101.61 878.41,-88.7 860.36,-78.95"/>
<polygon fill="#63b8ff" stroke="#63b8ff" points="861.99,-75.85 851.53,-74.17 858.66,-82.01 861.99,-75.85"/>
</a>
</g>
</g>
<!-- Node12&#45;&gt;Node15 -->
<g id="edge17_Node000012_Node000015" class="edge">
<title>Node12&#45;&gt;Node15</title>
<g id="a_edge17_Node000012_Node000015"><a xlink:title=" ">
<path fill="none" stroke="#63b8ff" d="M942.25,-109.75C949.97,-102.03 961.4,-90.6 970.72,-81.28"/>
<polygon fill="#63b8ff" stroke="#63b8ff" points="973.31,-83.64 977.91,-74.09 968.36,-78.69 973.31,-83.64"/>
</a>
</g>
</g>
<!-- Node12&#45;&gt;Node16 -->
<g id="edge18_Node000012_Node000016" class="edge">
<title>Node12&#45;&gt;Node16</title>
<g id="a_edge18_Node000012_Node000016"><a xlink:title=" ">
<path fill="none" stroke="#63b8ff" d="M956.8,-109.98C980.75,-101.23 1018.28,-87.51 1045.33,-77.62"/>
<polygon fill="#63b8ff" stroke="#63b8ff" points="1046.59,-80.89 1054.78,-74.17 1044.19,-74.32 1046.59,-80.89"/>
</a>
</g>
</g>
<!-- Node17&#45;&gt;Node6 -->
<g id="edge22_Node000017_Node000006" class="edge">
<title>Node17&#45;&gt;Node6</title>
<g id="a_edge22_Node000017_Node000006"><a xlink:title=" ">
<path fill="none" stroke="#63b8ff" d="M174.21,-164.98C200.95,-156.13 243.03,-142.19 272.95,-132.28"/>
<polygon fill="#63b8ff" stroke="#63b8ff" points="274.2,-135.55 282.59,-129.08 272,-128.9 274.2,-135.55"/>
</a>
</g>
</g>
<!-- Node18 -->
<g id="Node000018" class="node">
<title>Node18</title>
<g id="a_Node000018"><a xlink:title=" ">
<polygon fill="#e0e0e0" stroke="#999999" points="41,-129 0,-129 0,-110 41,-110 41,-129"/>
<text text-anchor="middle" x="20.5" y="-117" font-family="Helvetica,sans-Serif" font-size="10.00">string</text>
</a>
</g>
</g>
<!-- Node17&#45;&gt;Node18 -->
<g id="edge20_Node000017_Node000018" class="edge">
<title>Node17&#45;&gt;Node18</title>
<g id="a_edge20_Node000017_Node000018"><a xlink:title=" ">
<path fill="none" stroke="#63b8ff" d="M127.93,-164.98C106.94,-156.29 74.14,-142.71 50.3,-132.84"/>
<polygon fill="#63b8ff" stroke="#63b8ff" points="51.59,-129.59 41.01,-128.99 48.91,-136.05 51.59,-129.59"/>
</a>
</g>
</g>
<!-- Node19 -->
<g id="Node000019" class="node">
<title>Node19</title>
<g id="a_Node000019"><a xlink:title=" ">
<polygon fill="#e0e0e0" stroke="#999999" points="110,-129 59,-129 59,-110 110,-110 110,-129"/>
<text text-anchor="middle" x="84.5" y="-117" font-family="Helvetica,sans-Serif" font-size="10.00">typeinfo</text>
</a>
</g>
</g>
<!-- Node17&#45;&gt;Node19 -->
<g id="edge21_Node000017_Node000019" class="edge">
<title>Node17&#45;&gt;Node19</title>
<g id="a_edge21_Node000017_Node000019"><a xlink:title=" ">
<path fill="none" stroke="#63b8ff" d="M138.22,-164.98C128.66,-157.07 114.22,-145.11 102.72,-135.58"/>
<polygon fill="#63b8ff" stroke="#63b8ff" points="104.9,-132.85 94.97,-129.17 100.44,-138.24 104.9,-132.85"/>
</a>
</g>
</g>
<!-- Node20 -->
<g id="Node000020" class="node">
<title>Node20</title>
<g id="a_Node000020"><a xlink:title=" ">
<polygon fill="#e0e0e0" stroke="#999999" points="206.5,-129 128.5,-129 128.5,-110 206.5,-110 206.5,-129"/>
<text text-anchor="middle" x="167.5" y="-117" font-family="Helvetica,sans-Serif" font-size="10.00">IBK_IntPara.h</text>
</a>
</g>
</g>
<!-- Node17&#45;&gt;Node20 -->
<g id="edge23_Node000017_Node000020" class="edge">
<title>Node17&#45;&gt;Node20</title>
<g id="a_edge23_Node000017_Node000020"><a xlink:title=" ">
<path fill="none" stroke="#63b8ff" d="M151.64,-164.75C154.18,-157.65 157.86,-147.4 161.03,-138.56"/>
<polygon fill="#63b8ff" stroke="#63b8ff" points="164.34,-139.68 164.42,-129.09 157.75,-137.32 164.34,-139.68"/>
</a>
</g>
</g>
</g>
</svg>
