<?xml version="1.0" encoding="UTF-8" standalone="no"?>
<!DOCTYPE svg PUBLIC "-//W3C//DTD SVG 1.1//EN"
 "http://www.w3.org/Graphics/SVG/1.1/DTD/svg11.dtd">
<!-- Generated by graphviz version 2.43.0 (0)
 -->
<!-- Title: /home/hirth/git/SIM&#45;VICUS.master2/externals/Vicus/src/ncg/ncg_VICUS_OutputDefinition.cpp Pages: 1 -->
<svg width="1058pt" height="170pt"
 viewBox="0.00 0.00 1057.50 170.00" xmlns="http://www.w3.org/2000/svg" xmlns:xlink="http://www.w3.org/1999/xlink">
<g id="graph0" class="graph" transform="scale(1 1) rotate(0) translate(4 166)">
<title>/home/hirth/git/SIM&#45;VICUS.master2/externals/Vicus/src/ncg/ncg_VICUS_OutputDefinition.cpp</title>
<!-- Node1 -->
<g id="Node000001" class="node">
<title>Node1</title>
<g id="a_Node000001"><a xlink:title=" ">
<polygon fill="#999999" stroke="#666666" points="701,-162 566,-162 566,-110 701,-110 701,-162"/>
<text text-anchor="start" x="574" y="-150" font-family="Helvetica,sans-Serif" font-size="10.00">/home/hirth/git/SIM</text>
<text text-anchor="start" x="574" y="-139" font-family="Helvetica,sans-Serif" font-size="10.00">&#45;VICUS.master2/externals</text>
<text text-anchor="start" x="574" y="-128" font-family="Helvetica,sans-Serif" font-size="10.00">/Vicus/src/ncg/ncg_VICUS</text>
<text text-anchor="middle" x="633.5" y="-117" font-family="Helvetica,sans-Serif" font-size="10.00">_OutputDefinition.cpp</text>
</a>
</g>
</g>
<!-- Node2 -->
<g id="Node000002" class="node">
<title>Node2</title>
<g id="a_Node000002"><a xlink:href="_v_i_c_u_s___output_definition_8h.html" target="_top" xlink:title=" ">
<polygon fill="white" stroke="#666666" points="477.5,-74 345.5,-74 345.5,-55 477.5,-55 477.5,-74"/>
<text text-anchor="middle" x="411.5" y="-62" font-family="Helvetica,sans-Serif" font-size="10.00">VICUS_OutputDefinition.h</text>
</a>
</g>
</g>
<!-- Node1&#45;&gt;Node2 -->
<g id="edge1_Node000001_Node000002" class="edge">
<title>Node1&#45;&gt;Node2</title>
<g id="a_edge1_Node000001_Node000002"><a xlink:title=" ">
<path fill="none" stroke="#63b8ff" d="M565.99,-113.86C527.43,-101.79 480.55,-87.12 448.62,-77.12"/>
<polygon fill="#63b8ff" stroke="#63b8ff" points="449.39,-73.69 438.8,-74.05 447.3,-80.38 449.39,-73.69"/>
</a>
</g>
</g>
<!-- Node6 -->
<g id="Node000006" class="node">
<title>Node6</title>
<g id="a_Node000006"><a xlink:href="_v_i_c_u_s___constants_8h.html" target="_top" xlink:title="Contains global constants for the SIM&#45;VICUS data model.">
<polygon fill="white" stroke="#666666" points="657,-19 550,-19 550,0 657,0 657,-19"/>
<text text-anchor="middle" x="603.5" y="-7" font-family="Helvetica,sans-Serif" font-size="10.00">VICUS_Constants.h</text>
</a>
</g>
</g>
<!-- Node1&#45;&gt;Node6 -->
<g id="edge14_Node000001_Node000006" class="edge">
<title>Node1&#45;&gt;Node6</title>
<g id="a_edge14_Node000001_Node000006"><a xlink:title=" ">
<path fill="none" stroke="#63b8ff" d="M565.9,-111.47C549.51,-102.39 533.99,-90.18 524.5,-74 511.3,-51.49 539.9,-33.75 566.3,-22.81"/>
<polygon fill="#63b8ff" stroke="#63b8ff" points="567.8,-25.98 575.85,-19.09 565.26,-19.46 567.8,-25.98"/>
</a>
</g>
</g>
<!-- Node7 -->
<g id="Node000007" class="node">
<title>Node7</title>
<g id="a_Node000007"><a xlink:href="_v_i_c_u_s___keyword_list_8h.html" target="_top" xlink:title="Contains the declaration of class KeywordList.">
<polygon fill="white" stroke="#666666" points="275.5,-74 159.5,-74 159.5,-55 275.5,-55 275.5,-74"/>
<text text-anchor="middle" x="217.5" y="-62" font-family="Helvetica,sans-Serif" font-size="10.00">VICUS_KeywordList.h</text>
</a>
</g>
</g>
<!-- Node1&#45;&gt;Node7 -->
<g id="edge6_Node000001_Node000007" class="edge">
<title>Node1&#45;&gt;Node7</title>
<g id="a_edge6_Node000001_Node000007"><a xlink:title=" ">
<path fill="none" stroke="#63b8ff" d="M565.74,-123.68C486.08,-110.37 355.07,-88.48 278.48,-75.69"/>
<polygon fill="#63b8ff" stroke="#63b8ff" points="278.94,-72.22 268.5,-74.02 277.79,-79.12 278.94,-72.22"/>
</a>
</g>
</g>
<!-- Node11 -->
<g id="Node000011" class="node">
<title>Node11</title>
<g id="a_Node000011"><a xlink:title=" ">
<polygon fill="#e0e0e0" stroke="#999999" points="625.5,-74 533.5,-74 533.5,-55 625.5,-55 625.5,-74"/>
<text text-anchor="middle" x="579.5" y="-62" font-family="Helvetica,sans-Serif" font-size="10.00">IBK_messages.h</text>
</a>
</g>
</g>
<!-- Node1&#45;&gt;Node11 -->
<g id="edge11_Node000001_Node000011" class="edge">
<title>Node1&#45;&gt;Node11</title>
<g id="a_edge11_Node000001_Node000011"><a xlink:title=" ">
<path fill="none" stroke="#63b8ff" d="M614,-109.91C606.91,-100.77 599.05,-90.67 592.64,-82.41"/>
<polygon fill="#63b8ff" stroke="#63b8ff" points="595.24,-80.05 586.34,-74.3 589.71,-84.35 595.24,-80.05"/>
</a>
</g>
</g>
<!-- Node12 -->
<g id="Node000012" class="node">
<title>Node12</title>
<g id="a_Node000012"><a xlink:title=" ">
<polygon fill="#e0e0e0" stroke="#999999" points="733.5,-74 643.5,-74 643.5,-55 733.5,-55 733.5,-74"/>
<text text-anchor="middle" x="688.5" y="-62" font-family="Helvetica,sans-Serif" font-size="10.00">IBK_Exception.h</text>
</a>
</g>
</g>
<!-- Node1&#45;&gt;Node12 -->
<g id="edge12_Node000001_Node000012" class="edge">
<title>Node1&#45;&gt;Node12</title>
<g id="a_edge12_Node000001_Node000012"><a xlink:title=" ">
<path fill="none" stroke="#63b8ff" d="M653.36,-109.91C660.66,-100.67 668.75,-90.45 675.33,-82.14"/>
<polygon fill="#63b8ff" stroke="#63b8ff" points="678.07,-84.32 681.53,-74.3 672.58,-79.97 678.07,-84.32"/>
</a>
</g>
</g>
<!-- Node13 -->
<g id="Node000013" class="node">
<title>Node13</title>
<g id="a_Node000013"><a xlink:title=" ">
<polygon fill="#e0e0e0" stroke="#999999" points="843.5,-74 751.5,-74 751.5,-55 843.5,-55 843.5,-74"/>
<text text-anchor="middle" x="797.5" y="-62" font-family="Helvetica,sans-Serif" font-size="10.00">IBK_StringUtils.h</text>
</a>
</g>
</g>
<!-- Node1&#45;&gt;Node13 -->
<g id="edge13_Node000001_Node000013" class="edge">
<title>Node1&#45;&gt;Node13</title>
<g id="a_edge13_Node000001_Node000013"><a xlink:title=" ">
<path fill="none" stroke="#63b8ff" d="M692.71,-109.91C718.21,-99.1 746.91,-86.94 767.82,-78.08"/>
<polygon fill="#63b8ff" stroke="#63b8ff" points="769.28,-81.26 777.12,-74.14 766.55,-74.81 769.28,-81.26"/>
</a>
</g>
</g>
<!-- Node14 -->
<g id="Node000014" class="node">
<title>Node14</title>
<g id="a_Node000014"><a xlink:title=" ">
<polygon fill="#e0e0e0" stroke="#999999" points="975.5,-74 861.5,-74 861.5,-55 975.5,-55 975.5,-74"/>
<text text-anchor="middle" x="918.5" y="-62" font-family="Helvetica,sans-Serif" font-size="10.00">NANDRAD_Utilities.h</text>
</a>
</g>
</g>
<!-- Node1&#45;&gt;Node14 -->
<g id="edge15_Node000001_Node000014" class="edge">
<title>Node1&#45;&gt;Node14</title>
<g id="a_edge15_Node000001_Node000014"><a xlink:title=" ">
<path fill="none" stroke="#63b8ff" d="M701.04,-118.53C754.41,-105.52 827.38,-87.72 873.74,-76.42"/>
<polygon fill="#63b8ff" stroke="#63b8ff" points="874.6,-79.81 883.49,-74.04 872.95,-73.01 874.6,-79.81"/>
</a>
</g>
</g>
<!-- Node15 -->
<g id="Node000015" class="node">
<title>Node15</title>
<g id="a_Node000015"><a xlink:title=" ">
<polygon fill="#e0e0e0" stroke="#999999" points="1049.5,-74 993.5,-74 993.5,-55 1049.5,-55 1049.5,-74"/>
<text text-anchor="middle" x="1021.5" y="-62" font-family="Helvetica,sans-Serif" font-size="10.00">tinyxml.h</text>
</a>
</g>
</g>
<!-- Node1&#45;&gt;Node15 -->
<g id="edge16_Node000001_Node000015" class="edge">
<title>Node1&#45;&gt;Node15</title>
<g id="a_edge16_Node000001_Node000015"><a xlink:title=" ">
<path fill="none" stroke="#63b8ff" d="M701.32,-124.32C769.95,-113.27 879.33,-94.96 983.22,-74.17"/>
<polygon fill="#63b8ff" stroke="#63b8ff" points="984.14,-77.56 993.25,-72.15 982.76,-70.7 984.14,-77.56"/>
</a>
</g>
</g>
<!-- Node3 -->
<g id="Node000003" class="node">
<title>Node3</title>
<g id="a_Node000003"><a xlink:title=" ">
<polygon fill="#e0e0e0" stroke="#999999" points="316,-19 275,-19 275,0 316,0 316,-19"/>
<text text-anchor="middle" x="295.5" y="-7" font-family="Helvetica,sans-Serif" font-size="10.00">string</text>
</a>
</g>
</g>
<!-- Node2&#45;&gt;Node3 -->
<g id="edge2_Node000002_Node000003" class="edge">
<title>Node2&#45;&gt;Node3</title>
<g id="a_edge2_Node000002_Node000003"><a xlink:title=" ">
<path fill="none" stroke="#63b8ff" d="M392.86,-54.98C374.2,-46.46 345.25,-33.23 323.76,-23.41"/>
<polygon fill="#63b8ff" stroke="#63b8ff" points="325.03,-20.14 314.48,-19.17 322.12,-26.51 325.03,-20.14"/>
</a>
</g>
</g>
<!-- Node4 -->
<g id="Node000004" class="node">
<title>Node4</title>
<g id="a_Node000004"><a xlink:title=" ">
<polygon fill="#e0e0e0" stroke="#999999" points="378.5,-19 334.5,-19 334.5,0 378.5,0 378.5,-19"/>
<text text-anchor="middle" x="356.5" y="-7" font-family="Helvetica,sans-Serif" font-size="10.00">vector</text>
</a>
</g>
</g>
<!-- Node2&#45;&gt;Node4 -->
<g id="edge3_Node000002_Node000004" class="edge">
<title>Node2&#45;&gt;Node4</title>
<g id="a_edge3_Node000002_Node000004"><a xlink:title=" ">
<path fill="none" stroke="#63b8ff" d="M402.42,-54.75C394.41,-47.03 382.54,-35.6 372.88,-26.28"/>
<polygon fill="#63b8ff" stroke="#63b8ff" points="375.04,-23.51 365.41,-19.09 370.19,-28.55 375.04,-23.51"/>
</a>
</g>
</g>
<!-- Node5 -->
<g id="Node000005" class="node">
<title>Node5</title>
<g id="a_Node000005"><a xlink:href="_v_i_c_u_s___code_gen_macros_8h.html" target="_top" xlink:title=" ">
<polygon fill="white" stroke="#666666" points="532,-19 397,-19 397,0 532,0 532,-19"/>
<text text-anchor="middle" x="464.5" y="-7" font-family="Helvetica,sans-Serif" font-size="10.00">VICUS_CodeGenMacros.h</text>
</a>
</g>
</g>
<!-- Node2&#45;&gt;Node5 -->
<g id="edge4_Node000002_Node000005" class="edge">
<title>Node2&#45;&gt;Node5</title>
<g id="a_edge4_Node000002_Node000005"><a xlink:title=" ">
<path fill="none" stroke="#63b8ff" d="M420.25,-54.75C427.97,-47.03 439.4,-35.6 448.72,-26.28"/>
<polygon fill="#63b8ff" stroke="#63b8ff" points="451.31,-28.64 455.91,-19.09 446.36,-23.69 451.31,-28.64"/>
</a>
</g>
</g>
<!-- Node2&#45;&gt;Node6 -->
<g id="edge5_Node000002_Node000006" class="edge">
<title>Node2&#45;&gt;Node6</title>
<g id="a_edge5_Node000002_Node000006"><a xlink:title=" ">
<path fill="none" stroke="#63b8ff" d="M442.35,-54.98C475,-45.97 526.7,-31.7 562.7,-21.76"/>
<polygon fill="#63b8ff" stroke="#63b8ff" points="563.7,-25.12 572.41,-19.08 561.84,-18.37 563.7,-25.12"/>
</a>
</g>
</g>
<!-- Node7&#45;&gt;Node3 -->
<g id="edge7_Node000007_Node000003" class="edge">
<title>Node7&#45;&gt;Node3</title>
<g id="a_edge7_Node000007_Node000003"><a xlink:title=" ">
<path fill="none" stroke="#63b8ff" d="M230.03,-54.98C241.9,-46.92 259.96,-34.65 274.11,-25.03"/>
<polygon fill="#63b8ff" stroke="#63b8ff" points="276.44,-27.69 282.74,-19.17 272.5,-21.9 276.44,-27.69"/>
</a>
</g>
</g>
<!-- Node8 -->
<g id="Node000008" class="node">
<title>Node8</title>
<g id="a_Node000008"><a xlink:title=" ">
<polygon fill="#e0e0e0" stroke="#999999" points="51,-19 0,-19 0,0 51,0 51,-19"/>
<text text-anchor="middle" x="25.5" y="-7" font-family="Helvetica,sans-Serif" font-size="10.00">typeinfo</text>
</a>
</g>
</g>
<!-- Node7&#45;&gt;Node8 -->
<g id="edge8_Node000007_Node000008" class="edge">
<title>Node7&#45;&gt;Node8</title>
<g id="a_edge8_Node000007_Node000008"><a xlink:title=" ">
<path fill="none" stroke="#63b8ff" d="M186.65,-54.98C152.4,-45.53 97.2,-30.29 61.13,-20.34"/>
<polygon fill="#63b8ff" stroke="#63b8ff" points="61.62,-16.84 51.05,-17.55 59.76,-23.59 61.62,-16.84"/>
</a>
</g>
</g>
<!-- Node9 -->
<g id="Node000009" class="node">
<title>Node9</title>
<g id="a_Node000009"><a xlink:title=" ">
<polygon fill="#e0e0e0" stroke="#999999" points="160,-19 69,-19 69,0 160,0 160,-19"/>
<text text-anchor="middle" x="114.5" y="-7" font-family="Helvetica,sans-Serif" font-size="10.00">IBK_Parameter.h</text>
</a>
</g>
</g>
<!-- Node7&#45;&gt;Node9 -->
<g id="edge9_Node000007_Node000009" class="edge">
<title>Node7&#45;&gt;Node9</title>
<g id="a_edge9_Node000007_Node000009"><a xlink:title=" ">
<path fill="none" stroke="#63b8ff" d="M200.95,-54.98C184.61,-46.57 159.37,-33.59 140.37,-23.81"/>
<polygon fill="#63b8ff" stroke="#63b8ff" points="141.84,-20.63 131.35,-19.17 138.64,-26.86 141.84,-20.63"/>
</a>
</g>
</g>
<!-- Node10 -->
<g id="Node000010" class="node">
<title>Node10</title>
<g id="a_Node000010"><a xlink:title=" ">
<polygon fill="#e0e0e0" stroke="#999999" points="256.5,-19 178.5,-19 178.5,0 256.5,0 256.5,-19"/>
<text text-anchor="middle" x="217.5" y="-7" font-family="Helvetica,sans-Serif" font-size="10.00">IBK_IntPara.h</text>
</a>
</g>
</g>
<!-- Node7&#45;&gt;Node10 -->
<g id="edge10_Node000007_Node000010" class="edge">
<title>Node7&#45;&gt;Node10</title>
<g id="a_edge10_Node000007_Node000010"><a xlink:title=" ">
<path fill="none" stroke="#63b8ff" d="M217.5,-54.75C217.5,-47.8 217.5,-37.85 217.5,-29.13"/>
<polygon fill="#63b8ff" stroke="#63b8ff" points="221,-29.09 217.5,-19.09 214,-29.09 221,-29.09"/>
</a>
</g>
</g>
</g>
</svg>
