<?xml version="1.0" encoding="UTF-8" standalone="no"?>
<!DOCTYPE svg PUBLIC "-//W3C//DTD SVG 1.1//EN"
 "http://www.w3.org/Graphics/SVG/1.1/DTD/svg11.dtd">
<!-- Generated by graphviz version 2.43.0 (0)
 -->
<!-- Title: /home/hirth/git/SIM&#45;VICUS.master2/externals/Vicus/src/ncg/ncg_VICUS_RotationMatrix.cpp Pages: 1 -->
<svg width="1053pt" height="170pt"
 viewBox="0.00 0.00 1052.50 170.00" xmlns="http://www.w3.org/2000/svg" xmlns:xlink="http://www.w3.org/1999/xlink">
<g id="graph0" class="graph" transform="scale(1 1) rotate(0) translate(4 166)">
<title>/home/hirth/git/SIM&#45;VICUS.master2/externals/Vicus/src/ncg/ncg_VICUS_RotationMatrix.cpp</title>
<!-- Node1 -->
<g id="Node000001" class="node">
<title>Node1</title>
<g id="a_Node000001"><a xlink:title=" ">
<polygon fill="#999999" stroke="#666666" points="679,-162 544,-162 544,-110 679,-110 679,-162"/>
<text text-anchor="start" x="552" y="-150" font-family="Helvetica,sans-Serif" font-size="10.00">/home/hirth/git/SIM</text>
<text text-anchor="start" x="552" y="-139" font-family="Helvetica,sans-Serif" font-size="10.00">&#45;VICUS.master2/externals</text>
<text text-anchor="start" x="552" y="-128" font-family="Helvetica,sans-Serif" font-size="10.00">/Vicus/src/ncg/ncg_VICUS</text>
<text text-anchor="middle" x="611.5" y="-117" font-family="Helvetica,sans-Serif" font-size="10.00">_RotationMatrix.cpp</text>
</a>
</g>
</g>
<!-- Node2 -->
<g id="Node000002" class="node">
<title>Node2</title>
<g id="a_Node000002"><a xlink:href="_v_i_c_u_s___rotation_matrix_8h.html" target="_top" xlink:title=" ">
<polygon fill="white" stroke="#666666" points="219,-74 94,-74 94,-55 219,-55 219,-74"/>
<text text-anchor="middle" x="156.5" y="-62" font-family="Helvetica,sans-Serif" font-size="10.00">VICUS_RotationMatrix.h</text>
</a>
</g>
</g>
<!-- Node1&#45;&gt;Node2 -->
<g id="edge1_Node000001_Node000002" class="edge">
<title>Node1&#45;&gt;Node2</title>
<g id="a_edge1_Node000001_Node000002"><a xlink:title=" ">
<path fill="none" stroke="#63b8ff" d="M543.87,-124.67C457.28,-111.44 308.21,-88.67 222.44,-75.57"/>
<polygon fill="#63b8ff" stroke="#63b8ff" points="222.72,-72.07 212.3,-74.02 221.66,-78.99 222.72,-72.07"/>
</a>
</g>
</g>
<!-- Node5 -->
<g id="Node000005" class="node">
<title>Node5</title>
<g id="a_Node000005"><a xlink:href="_v_i_c_u_s___keyword_list_8h.html" target="_top" xlink:title="Contains the declaration of class KeywordList.">
<polygon fill="white" stroke="#666666" points="384.5,-74 268.5,-74 268.5,-55 384.5,-55 384.5,-74"/>
<text text-anchor="middle" x="326.5" y="-62" font-family="Helvetica,sans-Serif" font-size="10.00">VICUS_KeywordList.h</text>
</a>
</g>
</g>
<!-- Node1&#45;&gt;Node5 -->
<g id="edge4_Node000001_Node000005" class="edge">
<title>Node1&#45;&gt;Node5</title>
<g id="a_edge4_Node000001_Node000005"><a xlink:title=" ">
<path fill="none" stroke="#63b8ff" d="M543.96,-118.53C490.59,-105.52 417.62,-87.72 371.26,-76.42"/>
<polygon fill="#63b8ff" stroke="#63b8ff" points="372.05,-73.01 361.51,-74.04 370.4,-79.81 372.05,-73.01"/>
</a>
</g>
</g>
<!-- Node10 -->
<g id="Node000010" class="node">
<title>Node10</title>
<g id="a_Node000010"><a xlink:title=" ">
<polygon fill="#e0e0e0" stroke="#999999" points="494.5,-74 402.5,-74 402.5,-55 494.5,-55 494.5,-74"/>
<text text-anchor="middle" x="448.5" y="-62" font-family="Helvetica,sans-Serif" font-size="10.00">IBK_messages.h</text>
</a>
</g>
</g>
<!-- Node1&#45;&gt;Node10 -->
<g id="edge9_Node000001_Node000010" class="edge">
<title>Node1&#45;&gt;Node10</title>
<g id="a_edge9_Node000001_Node000010"><a xlink:title=" ">
<path fill="none" stroke="#63b8ff" d="M552.65,-109.91C527.3,-99.1 498.78,-86.94 478,-78.08"/>
<polygon fill="#63b8ff" stroke="#63b8ff" points="479.32,-74.84 468.75,-74.14 476.58,-81.28 479.32,-74.84"/>
</a>
</g>
</g>
<!-- Node11 -->
<g id="Node000011" class="node">
<title>Node11</title>
<g id="a_Node000011"><a xlink:title=" ">
<polygon fill="#e0e0e0" stroke="#999999" points="602.5,-74 512.5,-74 512.5,-55 602.5,-55 602.5,-74"/>
<text text-anchor="middle" x="557.5" y="-62" font-family="Helvetica,sans-Serif" font-size="10.00">IBK_Exception.h</text>
</a>
</g>
</g>
<!-- Node1&#45;&gt;Node11 -->
<g id="edge10_Node000001_Node000011" class="edge">
<title>Node1&#45;&gt;Node11</title>
<g id="a_edge10_Node000001_Node000011"><a xlink:title=" ">
<path fill="none" stroke="#63b8ff" d="M592,-109.91C584.91,-100.77 577.05,-90.67 570.64,-82.41"/>
<polygon fill="#63b8ff" stroke="#63b8ff" points="573.24,-80.05 564.34,-74.3 567.71,-84.35 573.24,-80.05"/>
</a>
</g>
</g>
<!-- Node12 -->
<g id="Node000012" class="node">
<title>Node12</title>
<g id="a_Node000012"><a xlink:title=" ">
<polygon fill="#e0e0e0" stroke="#999999" points="712.5,-74 620.5,-74 620.5,-55 712.5,-55 712.5,-74"/>
<text text-anchor="middle" x="666.5" y="-62" font-family="Helvetica,sans-Serif" font-size="10.00">IBK_StringUtils.h</text>
</a>
</g>
</g>
<!-- Node1&#45;&gt;Node12 -->
<g id="edge11_Node000001_Node000012" class="edge">
<title>Node1&#45;&gt;Node12</title>
<g id="a_edge11_Node000001_Node000012"><a xlink:title=" ">
<path fill="none" stroke="#63b8ff" d="M631.36,-109.91C638.66,-100.67 646.75,-90.45 653.33,-82.14"/>
<polygon fill="#63b8ff" stroke="#63b8ff" points="656.07,-84.32 659.53,-74.3 650.58,-79.97 656.07,-84.32"/>
</a>
</g>
</g>
<!-- Node13 -->
<g id="Node000013" class="node">
<title>Node13</title>
<g id="a_Node000013"><a xlink:href="_v_i_c_u_s___constants_8h.html" target="_top" xlink:title="Contains global constants for the SIM&#45;VICUS data model.">
<polygon fill="white" stroke="#666666" points="838,-74 731,-74 731,-55 838,-55 838,-74"/>
<text text-anchor="middle" x="784.5" y="-62" font-family="Helvetica,sans-Serif" font-size="10.00">VICUS_Constants.h</text>
</a>
</g>
</g>
<!-- Node1&#45;&gt;Node13 -->
<g id="edge12_Node000001_Node000013" class="edge">
<title>Node1&#45;&gt;Node13</title>
<g id="a_edge12_Node000001_Node000013"><a xlink:title=" ">
<path fill="none" stroke="#63b8ff" d="M673.96,-109.91C700.98,-99.05 731.41,-86.83 753.49,-77.96"/>
<polygon fill="#63b8ff" stroke="#63b8ff" points="755.03,-81.11 763,-74.14 752.42,-74.62 755.03,-81.11"/>
</a>
</g>
</g>
<!-- Node14 -->
<g id="Node000014" class="node">
<title>Node14</title>
<g id="a_Node000014"><a xlink:title=" ">
<polygon fill="#e0e0e0" stroke="#999999" points="970.5,-74 856.5,-74 856.5,-55 970.5,-55 970.5,-74"/>
<text text-anchor="middle" x="913.5" y="-62" font-family="Helvetica,sans-Serif" font-size="10.00">NANDRAD_Utilities.h</text>
</a>
</g>
</g>
<!-- Node1&#45;&gt;Node14 -->
<g id="edge13_Node000001_Node000014" class="edge">
<title>Node1&#45;&gt;Node14</title>
<g id="a_edge13_Node000001_Node000014"><a xlink:title=" ">
<path fill="none" stroke="#63b8ff" d="M679.27,-119.4C736.22,-106.3 816.13,-87.91 866.34,-76.35"/>
<polygon fill="#63b8ff" stroke="#63b8ff" points="867.31,-79.72 876.27,-74.07 865.74,-72.9 867.31,-79.72"/>
</a>
</g>
</g>
<!-- Node15 -->
<g id="Node000015" class="node">
<title>Node15</title>
<g id="a_Node000015"><a xlink:title=" ">
<polygon fill="#e0e0e0" stroke="#999999" points="1044.5,-74 988.5,-74 988.5,-55 1044.5,-55 1044.5,-74"/>
<text text-anchor="middle" x="1016.5" y="-62" font-family="Helvetica,sans-Serif" font-size="10.00">tinyxml.h</text>
</a>
</g>
</g>
<!-- Node1&#45;&gt;Node15 -->
<g id="edge14_Node000001_Node000015" class="edge">
<title>Node1&#45;&gt;Node15</title>
<g id="a_edge14_Node000001_Node000015"><a xlink:title=" ">
<path fill="none" stroke="#63b8ff" d="M679.21,-125.05C751.04,-114.21 868.04,-95.74 978.29,-74.14"/>
<polygon fill="#63b8ff" stroke="#63b8ff" points="979.12,-77.54 988.26,-72.18 977.77,-70.68 979.12,-77.54"/>
</a>
</g>
</g>
<!-- Node3 -->
<g id="Node000003" class="node">
<title>Node3</title>
<g id="a_Node000003"><a xlink:title=" ">
<polygon fill="#e0e0e0" stroke="#999999" points="71,-19 0,-19 0,0 71,0 71,-19"/>
<text text-anchor="middle" x="35.5" y="-7" font-family="Helvetica,sans-Serif" font-size="10.00">QQuaternion</text>
</a>
</g>
</g>
<!-- Node2&#45;&gt;Node3 -->
<g id="edge2_Node000002_Node000003" class="edge">
<title>Node2&#45;&gt;Node3</title>
<g id="a_edge2_Node000002_Node000003"><a xlink:title=" ">
<path fill="none" stroke="#63b8ff" d="M137.06,-54.98C117.51,-46.42 87.12,-33.11 64.68,-23.28"/>
<polygon fill="#63b8ff" stroke="#63b8ff" points="65.86,-19.98 55.29,-19.17 63.05,-26.39 65.86,-19.98"/>
</a>
</g>
</g>
<!-- Node4 -->
<g id="Node000004" class="node">
<title>Node4</title>
<g id="a_Node000004"><a xlink:href="_v_i_c_u_s___code_gen_macros_8h.html" target="_top" xlink:title=" ">
<polygon fill="white" stroke="#666666" points="224,-19 89,-19 89,0 224,0 224,-19"/>
<text text-anchor="middle" x="156.5" y="-7" font-family="Helvetica,sans-Serif" font-size="10.00">VICUS_CodeGenMacros.h</text>
</a>
</g>
</g>
<!-- Node2&#45;&gt;Node4 -->
<g id="edge3_Node000002_Node000004" class="edge">
<title>Node2&#45;&gt;Node4</title>
<g id="a_edge3_Node000002_Node000004"><a xlink:title=" ">
<path fill="none" stroke="#63b8ff" d="M156.5,-54.75C156.5,-47.8 156.5,-37.85 156.5,-29.13"/>
<polygon fill="#63b8ff" stroke="#63b8ff" points="160,-29.09 156.5,-19.09 153,-29.09 160,-29.09"/>
</a>
</g>
</g>
<!-- Node6 -->
<g id="Node000006" class="node">
<title>Node6</title>
<g id="a_Node000006"><a xlink:title=" ">
<polygon fill="#e0e0e0" stroke="#999999" points="283,-19 242,-19 242,0 283,0 283,-19"/>
<text text-anchor="middle" x="262.5" y="-7" font-family="Helvetica,sans-Serif" font-size="10.00">string</text>
</a>
</g>
</g>
<!-- Node5&#45;&gt;Node6 -->
<g id="edge5_Node000005_Node000006" class="edge">
<title>Node5&#45;&gt;Node6</title>
<g id="a_edge5_Node000005_Node000006"><a xlink:title=" ">
<path fill="none" stroke="#63b8ff" d="M316.22,-54.98C306.66,-47.07 292.22,-35.11 280.72,-25.58"/>
<polygon fill="#63b8ff" stroke="#63b8ff" points="282.9,-22.85 272.97,-19.17 278.44,-28.24 282.9,-22.85"/>
</a>
</g>
</g>
<!-- Node7 -->
<g id="Node000007" class="node">
<title>Node7</title>
<g id="a_Node000007"><a xlink:title=" ">
<polygon fill="#e0e0e0" stroke="#999999" points="352,-19 301,-19 301,0 352,0 352,-19"/>
<text text-anchor="middle" x="326.5" y="-7" font-family="Helvetica,sans-Serif" font-size="10.00">typeinfo</text>
</a>
</g>
</g>
<!-- Node5&#45;&gt;Node7 -->
<g id="edge6_Node000005_Node000007" class="edge">
<title>Node5&#45;&gt;Node7</title>
<g id="a_edge6_Node000005_Node000007"><a xlink:title=" ">
<path fill="none" stroke="#63b8ff" d="M326.5,-54.75C326.5,-47.8 326.5,-37.85 326.5,-29.13"/>
<polygon fill="#63b8ff" stroke="#63b8ff" points="330,-29.09 326.5,-19.09 323,-29.09 330,-29.09"/>
</a>
</g>
</g>
<!-- Node8 -->
<g id="Node000008" class="node">
<title>Node8</title>
<g id="a_Node000008"><a xlink:title=" ">
<polygon fill="#e0e0e0" stroke="#999999" points="461,-19 370,-19 370,0 461,0 461,-19"/>
<text text-anchor="middle" x="415.5" y="-7" font-family="Helvetica,sans-Serif" font-size="10.00">IBK_Parameter.h</text>
</a>
</g>
</g>
<!-- Node5&#45;&gt;Node8 -->
<g id="edge7_Node000005_Node000008" class="edge">
<title>Node5&#45;&gt;Node8</title>
<g id="a_edge7_Node000005_Node000008"><a xlink:title=" ">
<path fill="none" stroke="#63b8ff" d="M340.8,-54.98C354.6,-46.77 375.74,-34.18 392.01,-24.49"/>
<polygon fill="#63b8ff" stroke="#63b8ff" points="394.14,-27.29 400.94,-19.17 390.56,-21.28 394.14,-27.29"/>
</a>
</g>
</g>
<!-- Node9 -->
<g id="Node000009" class="node">
<title>Node9</title>
<g id="a_Node000009"><a xlink:title=" ">
<polygon fill="#e0e0e0" stroke="#999999" points="557.5,-19 479.5,-19 479.5,0 557.5,0 557.5,-19"/>
<text text-anchor="middle" x="518.5" y="-7" font-family="Helvetica,sans-Serif" font-size="10.00">IBK_IntPara.h</text>
</a>
</g>
</g>
<!-- Node5&#45;&gt;Node9 -->
<g id="edge8_Node000005_Node000009" class="edge">
<title>Node5&#45;&gt;Node9</title>
<g id="a_edge8_Node000005_Node000009"><a xlink:title=" ">
<path fill="none" stroke="#63b8ff" d="M357.35,-54.98C390,-45.97 441.7,-31.7 477.7,-21.76"/>
<polygon fill="#63b8ff" stroke="#63b8ff" points="478.7,-25.12 487.41,-19.08 476.84,-18.37 478.7,-25.12"/>
</a>
</g>
</g>
</g>
</svg>
