<?xml version="1.0" encoding="UTF-8" standalone="no"?>
<!DOCTYPE svg PUBLIC "-//W3C//DTD SVG 1.1//EN"
 "http://www.w3.org/Graphics/SVG/1.1/DTD/svg11.dtd">
<!-- Generated by graphviz version 2.43.0 (0)
 -->
<!-- Title: /home/hirth/git/SIM&#45;VICUS.master2/externals/Vicus/src/ncg/ncg_VICUS_ZoneIdealHeatingCooling.cpp Pages: 1 -->
<svg width="1099pt" height="225pt"
 viewBox="0.00 0.00 1099.07 225.00" xmlns="http://www.w3.org/2000/svg" xmlns:xlink="http://www.w3.org/1999/xlink">
<g id="graph0" class="graph" transform="scale(1 1) rotate(0) translate(4 221)">
<title>/home/hirth/git/SIM&#45;VICUS.master2/externals/Vicus/src/ncg/ncg_VICUS_ZoneIdealHeatingCooling.cpp</title>
<!-- Node1 -->
<g id="Node000001" class="node">
<title>Node1</title>
<g id="a_Node000001"><a xlink:title=" ">
<polygon fill="#999999" stroke="#666666" points="750.07,-217 600.07,-217 600.07,-165 750.07,-165 750.07,-217"/>
<text text-anchor="start" x="608.07" y="-205" font-family="Helvetica,sans-Serif" font-size="10.00">/home/hirth/git/SIM</text>
<text text-anchor="start" x="608.07" y="-194" font-family="Helvetica,sans-Serif" font-size="10.00">&#45;VICUS.master2/externals</text>
<text text-anchor="start" x="608.07" y="-183" font-family="Helvetica,sans-Serif" font-size="10.00">/Vicus/src/ncg/ncg_VICUS</text>
<text text-anchor="middle" x="675.07" y="-172" font-family="Helvetica,sans-Serif" font-size="10.00">_ZoneIdealHeatingCooling.cpp</text>
</a>
</g>
</g>
<!-- Node2 -->
<g id="Node000002" class="node">
<title>Node2</title>
<g id="a_Node000002"><a xlink:href="_v_i_c_u_s___zone_ideal_heating_cooling_8h.html" target="_top" xlink:title=" ">
<polygon fill="white" stroke="#666666" points="373.57,-129 202.57,-129 202.57,-110 373.57,-110 373.57,-129"/>
<text text-anchor="middle" x="288.07" y="-117" font-family="Helvetica,sans-Serif" font-size="10.00">VICUS_ZoneIdealHeatingCooling.h</text>
</a>
</g>
</g>
<!-- Node1&#45;&gt;Node2 -->
<g id="edge1_Node000001_Node000002" class="edge">
<title>Node1&#45;&gt;Node2</title>
<g id="a_edge1_Node000001_Node000002"><a xlink:title=" ">
<path fill="none" stroke="#63b8ff" d="M599.99,-176.52C525.56,-163.15 413.15,-142.96 345.55,-130.82"/>
<polygon fill="#63b8ff" stroke="#63b8ff" points="345.96,-127.34 335.5,-129.02 344.73,-134.23 345.96,-127.34"/>
</a>
</g>
</g>
<!-- Node6 -->
<g id="Node000006" class="node">
<title>Node6</title>
<g id="a_Node000006"><a xlink:href="_v_i_c_u_s___constants_8h.html" target="_top" xlink:title="Contains global constants for the SIM&#45;VICUS data model.">
<polygon fill="white" stroke="#666666" points="191.57,-19 84.57,-19 84.57,0 191.57,0 191.57,-19"/>
<text text-anchor="middle" x="138.07" y="-7" font-family="Helvetica,sans-Serif" font-size="10.00">VICUS_Constants.h</text>
</a>
</g>
</g>
<!-- Node1&#45;&gt;Node6 -->
<g id="edge18_Node000001_Node000006" class="edge">
<title>Node1&#45;&gt;Node6</title>
<g id="a_edge18_Node000001_Node000006"><a xlink:title=" ">
<path fill="none" stroke="#63b8ff" d="M599.89,-189.26C440.24,-185.85 76.2,-167.73 6.07,-74 -16.31,-44.09 30.45,-27.6 74.38,-18.97"/>
<polygon fill="#63b8ff" stroke="#63b8ff" points="75.07,-22.41 84.26,-17.15 73.8,-15.52 75.07,-22.41"/>
</a>
</g>
</g>
<!-- Node9 -->
<g id="Node000009" class="node">
<title>Node9</title>
<g id="a_Node000009"><a xlink:href="_v_i_c_u_s___keyword_list_8h.html" target="_top" xlink:title="Contains the declaration of class KeywordList.">
<polygon fill="white" stroke="#666666" points="557.07,-129 441.07,-129 441.07,-110 557.07,-110 557.07,-129"/>
<text text-anchor="middle" x="499.07" y="-117" font-family="Helvetica,sans-Serif" font-size="10.00">VICUS_KeywordList.h</text>
</a>
</g>
</g>
<!-- Node1&#45;&gt;Node9 -->
<g id="edge10_Node000001_Node000009" class="edge">
<title>Node1&#45;&gt;Node9</title>
<g id="a_edge10_Node000001_Node000009"><a xlink:title=" ">
<path fill="none" stroke="#63b8ff" d="M611.53,-164.91C583.91,-154 552.8,-141.72 530.31,-132.84"/>
<polygon fill="#63b8ff" stroke="#63b8ff" points="531.52,-129.55 520.94,-129.14 528.95,-136.06 531.52,-129.55"/>
</a>
</g>
</g>
<!-- Node13 -->
<g id="Node000013" class="node">
<title>Node13</title>
<g id="a_Node000013"><a xlink:title=" ">
<polygon fill="#e0e0e0" stroke="#999999" points="667.07,-129 575.07,-129 575.07,-110 667.07,-110 667.07,-129"/>
<text text-anchor="middle" x="621.07" y="-117" font-family="Helvetica,sans-Serif" font-size="10.00">IBK_messages.h</text>
</a>
</g>
</g>
<!-- Node1&#45;&gt;Node13 -->
<g id="edge15_Node000001_Node000013" class="edge">
<title>Node1&#45;&gt;Node13</title>
<g id="a_edge15_Node000001_Node000013"><a xlink:title=" ">
<path fill="none" stroke="#63b8ff" d="M655.57,-164.91C648.47,-155.77 640.62,-145.67 634.21,-137.41"/>
<polygon fill="#63b8ff" stroke="#63b8ff" points="636.81,-135.05 627.91,-129.3 631.28,-139.35 636.81,-135.05"/>
</a>
</g>
</g>
<!-- Node14 -->
<g id="Node000014" class="node">
<title>Node14</title>
<g id="a_Node000014"><a xlink:title=" ">
<polygon fill="#e0e0e0" stroke="#999999" points="775.07,-129 685.07,-129 685.07,-110 775.07,-110 775.07,-129"/>
<text text-anchor="middle" x="730.07" y="-117" font-family="Helvetica,sans-Serif" font-size="10.00">IBK_Exception.h</text>
</a>
</g>
</g>
<!-- Node1&#45;&gt;Node14 -->
<g id="edge16_Node000001_Node000014" class="edge">
<title>Node1&#45;&gt;Node14</title>
<g id="a_edge16_Node000001_Node000014"><a xlink:title=" ">
<path fill="none" stroke="#63b8ff" d="M694.93,-164.91C702.23,-155.67 710.32,-145.45 716.9,-137.14"/>
<polygon fill="#63b8ff" stroke="#63b8ff" points="719.64,-139.32 723.1,-129.3 714.15,-134.97 719.64,-139.32"/>
</a>
</g>
</g>
<!-- Node15 -->
<g id="Node000015" class="node">
<title>Node15</title>
<g id="a_Node000015"><a xlink:title=" ">
<polygon fill="#e0e0e0" stroke="#999999" points="885.07,-129 793.07,-129 793.07,-110 885.07,-110 885.07,-129"/>
<text text-anchor="middle" x="839.07" y="-117" font-family="Helvetica,sans-Serif" font-size="10.00">IBK_StringUtils.h</text>
</a>
</g>
</g>
<!-- Node1&#45;&gt;Node15 -->
<g id="edge17_Node000001_Node000015" class="edge">
<title>Node1&#45;&gt;Node15</title>
<g id="a_edge17_Node000001_Node000015"><a xlink:title=" ">
<path fill="none" stroke="#63b8ff" d="M734.28,-164.91C759.78,-154.1 788.48,-141.94 809.39,-133.08"/>
<polygon fill="#63b8ff" stroke="#63b8ff" points="810.85,-136.26 818.69,-129.14 808.12,-129.81 810.85,-136.26"/>
</a>
</g>
</g>
<!-- Node16 -->
<g id="Node000016" class="node">
<title>Node16</title>
<g id="a_Node000016"><a xlink:title=" ">
<polygon fill="#e0e0e0" stroke="#999999" points="1017.07,-129 903.07,-129 903.07,-110 1017.07,-110 1017.07,-129"/>
<text text-anchor="middle" x="960.07" y="-117" font-family="Helvetica,sans-Serif" font-size="10.00">NANDRAD_Utilities.h</text>
</a>
</g>
</g>
<!-- Node1&#45;&gt;Node16 -->
<g id="edge19_Node000001_Node000016" class="edge">
<title>Node1&#45;&gt;Node16</title>
<g id="a_edge19_Node000001_Node000016"><a xlink:title=" ">
<path fill="none" stroke="#63b8ff" d="M750.32,-171.65C802.8,-158.85 871.07,-142.2 915.23,-131.44"/>
<polygon fill="#63b8ff" stroke="#63b8ff" points="916.2,-134.8 925.09,-129.03 914.54,-128 916.2,-134.8"/>
</a>
</g>
</g>
<!-- Node17 -->
<g id="Node000017" class="node">
<title>Node17</title>
<g id="a_Node000017"><a xlink:title=" ">
<polygon fill="#e0e0e0" stroke="#999999" points="1091.07,-129 1035.07,-129 1035.07,-110 1091.07,-110 1091.07,-129"/>
<text text-anchor="middle" x="1063.07" y="-117" font-family="Helvetica,sans-Serif" font-size="10.00">tinyxml.h</text>
</a>
</g>
</g>
<!-- Node1&#45;&gt;Node17 -->
<g id="edge20_Node000001_Node000017" class="edge">
<title>Node1&#45;&gt;Node17</title>
<g id="a_edge20_Node000001_Node000017"><a xlink:title=" ">
<path fill="none" stroke="#63b8ff" d="M750.26,-178.13C819.19,-166.98 924.29,-149.29 1024.8,-129.17"/>
<polygon fill="#63b8ff" stroke="#63b8ff" points="1025.71,-132.56 1034.82,-127.15 1024.33,-125.7 1025.71,-132.56"/>
</a>
</g>
</g>
<!-- Node3 -->
<g id="Node000003" class="node">
<title>Node3</title>
<g id="a_Node000003"><a xlink:title=" ">
<polygon fill="#e0e0e0" stroke="#999999" points="409.57,-19 362.57,-19 362.57,0 409.57,0 409.57,-19"/>
<text text-anchor="middle" x="386.07" y="-7" font-family="Helvetica,sans-Serif" font-size="10.00">QColor</text>
</a>
</g>
</g>
<!-- Node2&#45;&gt;Node3 -->
<g id="edge2_Node000002_Node000003" class="edge">
<title>Node2&#45;&gt;Node3</title>
<g id="a_edge2_Node000002_Node000003"><a xlink:title=" ">
<path fill="none" stroke="#63b8ff" d="M311.66,-109.87C328.42,-102.64 350.29,-90.78 364.07,-74 374.59,-61.18 380.21,-43.01 383.13,-29.39"/>
<polygon fill="#63b8ff" stroke="#63b8ff" points="386.63,-29.7 384.99,-19.24 379.75,-28.44 386.63,-29.7"/>
</a>
</g>
</g>
<!-- Node4 -->
<g id="Node000004" class="node">
<title>Node4</title>
<g id="a_Node000004"><a xlink:title=" ">
<polygon fill="#e0e0e0" stroke="#999999" points="502.57,-74 411.57,-74 411.57,-55 502.57,-55 502.57,-74"/>
<text text-anchor="middle" x="457.07" y="-62" font-family="Helvetica,sans-Serif" font-size="10.00">IBK_Parameter.h</text>
</a>
</g>
</g>
<!-- Node2&#45;&gt;Node4 -->
<g id="edge3_Node000002_Node000004" class="edge">
<title>Node2&#45;&gt;Node4</title>
<g id="a_edge3_Node000002_Node000004"><a xlink:title=" ">
<path fill="none" stroke="#63b8ff" d="M315.22,-109.98C343.6,-101.09 388.3,-87.07 419.93,-77.15"/>
<polygon fill="#63b8ff" stroke="#63b8ff" points="421.21,-80.41 429.7,-74.08 419.11,-73.73 421.21,-80.41"/>
</a>
</g>
</g>
<!-- Node5 -->
<g id="Node000005" class="node">
<title>Node5</title>
<g id="a_Node000005"><a xlink:href="_v_i_c_u_s___code_gen_macros_8h.html" target="_top" xlink:title=" ">
<polygon fill="white" stroke="#666666" points="150.57,-74 15.57,-74 15.57,-55 150.57,-55 150.57,-74"/>
<text text-anchor="middle" x="83.07" y="-62" font-family="Helvetica,sans-Serif" font-size="10.00">VICUS_CodeGenMacros.h</text>
</a>
</g>
</g>
<!-- Node2&#45;&gt;Node5 -->
<g id="edge4_Node000002_Node000005" class="edge">
<title>Node2&#45;&gt;Node5</title>
<g id="a_edge4_Node000002_Node000005"><a xlink:title=" ">
<path fill="none" stroke="#63b8ff" d="M255.13,-109.98C220.12,-100.93 164.6,-86.58 126.14,-76.64"/>
<polygon fill="#63b8ff" stroke="#63b8ff" points="126.82,-73.2 116.26,-74.08 125.07,-79.97 126.82,-73.2"/>
</a>
</g>
</g>
<!-- Node2&#45;&gt;Node6 -->
<g id="edge5_Node000002_Node000006" class="edge">
<title>Node2&#45;&gt;Node6</title>
<g id="a_edge5_Node000002_Node000006"><a xlink:title=" ">
<path fill="none" stroke="#63b8ff" d="M264.69,-109.86C245.49,-102.13 218.11,-89.62 197.07,-74 179.03,-60.61 161.96,-41.24 150.87,-27.42"/>
<polygon fill="#63b8ff" stroke="#63b8ff" points="153.41,-24.98 144.5,-19.26 147.89,-29.29 153.41,-24.98"/>
</a>
</g>
</g>
<!-- Node7 -->
<g id="Node000007" class="node">
<title>Node7</title>
<g id="a_Node000007"><a xlink:href="_v_i_c_u_s___abstract_d_b_element_8h.html" target="_top" xlink:title=" ">
<polygon fill="white" stroke="#666666" points="355.57,-74 206.57,-74 206.57,-55 355.57,-55 355.57,-74"/>
<text text-anchor="middle" x="281.07" y="-62" font-family="Helvetica,sans-Serif" font-size="10.00">VICUS_AbstractDBElement.h</text>
</a>
</g>
</g>
<!-- Node2&#45;&gt;Node7 -->
<g id="edge6_Node000002_Node000007" class="edge">
<title>Node2&#45;&gt;Node7</title>
<g id="a_edge6_Node000002_Node000007"><a xlink:title=" ">
<path fill="none" stroke="#63b8ff" d="M286.91,-109.75C286,-102.8 284.68,-92.85 283.53,-84.13"/>
<polygon fill="#63b8ff" stroke="#63b8ff" points="286.98,-83.54 282.2,-74.09 280.04,-84.46 286.98,-83.54"/>
</a>
</g>
</g>
<!-- Node7&#45;&gt;Node3 -->
<g id="edge8_Node000007_Node000003" class="edge">
<title>Node7&#45;&gt;Node3</title>
<g id="a_edge8_Node000007_Node000003"><a xlink:title=" ">
<path fill="none" stroke="#63b8ff" d="M297.94,-54.98C314.68,-46.54 340.57,-33.47 359.96,-23.68"/>
<polygon fill="#63b8ff" stroke="#63b8ff" points="361.54,-26.8 368.89,-19.17 358.39,-20.55 361.54,-26.8"/>
</a>
</g>
</g>
<!-- Node7&#45;&gt;Node6 -->
<g id="edge9_Node000007_Node000006" class="edge">
<title>Node7&#45;&gt;Node6</title>
<g id="a_edge9_Node000007_Node000006"><a xlink:title=" ">
<path fill="none" stroke="#63b8ff" d="M258.09,-54.98C234.57,-46.27 197.78,-32.63 171.13,-22.75"/>
<polygon fill="#63b8ff" stroke="#63b8ff" points="172.06,-19.36 161.46,-19.17 169.62,-25.93 172.06,-19.36"/>
</a>
</g>
</g>
<!-- Node8 -->
<g id="Node000008" class="node">
<title>Node8</title>
<g id="a_Node000008"><a xlink:title=" ">
<polygon fill="#e0e0e0" stroke="#999999" points="344.57,-19 209.57,-19 209.57,0 344.57,0 344.57,-19"/>
<text text-anchor="middle" x="277.07" y="-7" font-family="Helvetica,sans-Serif" font-size="10.00">IBK_MultiLanguageString.h</text>
</a>
</g>
</g>
<!-- Node7&#45;&gt;Node8 -->
<g id="edge7_Node000007_Node000008" class="edge">
<title>Node7&#45;&gt;Node8</title>
<g id="a_edge7_Node000007_Node000008"><a xlink:title=" ">
<path fill="none" stroke="#63b8ff" d="M280.41,-54.75C279.88,-47.8 279.13,-37.85 278.48,-29.13"/>
<polygon fill="#63b8ff" stroke="#63b8ff" points="281.96,-28.8 277.72,-19.09 274.98,-29.32 281.96,-28.8"/>
</a>
</g>
</g>
<!-- Node9&#45;&gt;Node4 -->
<g id="edge13_Node000009_Node000004" class="edge">
<title>Node9&#45;&gt;Node4</title>
<g id="a_edge13_Node000009_Node000004"><a xlink:title=" ">
<path fill="none" stroke="#63b8ff" d="M492.13,-109.75C486.2,-102.26 477.5,-91.28 470.25,-82.13"/>
<polygon fill="#63b8ff" stroke="#63b8ff" points="472.83,-79.75 463.88,-74.09 467.34,-84.1 472.83,-79.75"/>
</a>
</g>
</g>
<!-- Node10 -->
<g id="Node000010" class="node">
<title>Node10</title>
<g id="a_Node000010"><a xlink:title=" ">
<polygon fill="#e0e0e0" stroke="#999999" points="561.57,-74 520.57,-74 520.57,-55 561.57,-55 561.57,-74"/>
<text text-anchor="middle" x="541.07" y="-62" font-family="Helvetica,sans-Serif" font-size="10.00">string</text>
</a>
</g>
</g>
<!-- Node9&#45;&gt;Node10 -->
<g id="edge11_Node000009_Node000010" class="edge">
<title>Node9&#45;&gt;Node10</title>
<g id="a_edge11_Node000009_Node000010"><a xlink:title=" ">
<path fill="none" stroke="#63b8ff" d="M506,-109.75C511.94,-102.26 520.64,-91.28 527.89,-82.13"/>
<polygon fill="#63b8ff" stroke="#63b8ff" points="530.79,-84.1 534.26,-74.09 525.31,-79.75 530.79,-84.1"/>
</a>
</g>
</g>
<!-- Node11 -->
<g id="Node000011" class="node">
<title>Node11</title>
<g id="a_Node000011"><a xlink:title=" ">
<polygon fill="#e0e0e0" stroke="#999999" points="630.57,-74 579.57,-74 579.57,-55 630.57,-55 630.57,-74"/>
<text text-anchor="middle" x="605.07" y="-62" font-family="Helvetica,sans-Serif" font-size="10.00">typeinfo</text>
</a>
</g>
</g>
<!-- Node9&#45;&gt;Node11 -->
<g id="edge12_Node000009_Node000011" class="edge">
<title>Node9&#45;&gt;Node11</title>
<g id="a_edge12_Node000009_Node000011"><a xlink:title=" ">
<path fill="none" stroke="#63b8ff" d="M516.1,-109.98C533,-101.54 559.13,-88.47 578.71,-78.68"/>
<polygon fill="#63b8ff" stroke="#63b8ff" points="580.35,-81.77 587.73,-74.17 577.22,-75.51 580.35,-81.77"/>
</a>
</g>
</g>
<!-- Node12 -->
<g id="Node000012" class="node">
<title>Node12</title>
<g id="a_Node000012"><a xlink:title=" ">
<polygon fill="#e0e0e0" stroke="#999999" points="727.07,-74 649.07,-74 649.07,-55 727.07,-55 727.07,-74"/>
<text text-anchor="middle" x="688.07" y="-62" font-family="Helvetica,sans-Serif" font-size="10.00">IBK_IntPara.h</text>
</a>
</g>
</g>
<!-- Node9&#45;&gt;Node12 -->
<g id="edge14_Node000009_Node000012" class="edge">
<title>Node9&#45;&gt;Node12</title>
<g id="a_edge14_Node000009_Node000012"><a xlink:title=" ">
<path fill="none" stroke="#63b8ff" d="M529.44,-109.98C561.44,-101.01 612.03,-86.82 647.45,-76.89"/>
<polygon fill="#63b8ff" stroke="#63b8ff" points="648.78,-80.15 657.47,-74.08 646.89,-73.41 648.78,-80.15"/>
</a>
</g>
</g>
</g>
</svg>
