<?xml version="1.0" encoding="UTF-8" standalone="no"?>
<!DOCTYPE svg PUBLIC "-//W3C//DTD SVG 1.1//EN"
 "http://www.w3.org/Graphics/SVG/1.1/DTD/svg11.dtd">
<!-- Generated by graphviz version 2.43.0 (0)
 -->
<!-- Title: /home/hirth/git/SIM&#45;VICUS.master2/externals/Vicus/src/ncg/ncg_VICUS_Infiltration.cpp Pages: 1 -->
<svg width="1099pt" height="225pt"
 viewBox="0.00 0.00 1099.43 225.00" xmlns="http://www.w3.org/2000/svg" xmlns:xlink="http://www.w3.org/1999/xlink">
<g id="graph0" class="graph" transform="scale(1 1) rotate(0) translate(4 221)">
<title>/home/hirth/git/SIM&#45;VICUS.master2/externals/Vicus/src/ncg/ncg_VICUS_Infiltration.cpp</title>
<!-- Node1 -->
<g id="Node000001" class="node">
<title>Node1</title>
<g id="a_Node000001"><a xlink:title=" ">
<polygon fill="#999999" stroke="#666666" points="742.93,-217 607.93,-217 607.93,-165 742.93,-165 742.93,-217"/>
<text text-anchor="start" x="615.93" y="-205" font-family="Helvetica,sans-Serif" font-size="10.00">/home/hirth/git/SIM</text>
<text text-anchor="start" x="615.93" y="-194" font-family="Helvetica,sans-Serif" font-size="10.00">&#45;VICUS.master2/externals</text>
<text text-anchor="start" x="615.93" y="-183" font-family="Helvetica,sans-Serif" font-size="10.00">/Vicus/src/ncg/ncg_VICUS</text>
<text text-anchor="middle" x="675.43" y="-172" font-family="Helvetica,sans-Serif" font-size="10.00">_Infiltration.cpp</text>
</a>
</g>
</g>
<!-- Node2 -->
<g id="Node000002" class="node">
<title>Node2</title>
<g id="a_Node000002"><a xlink:href="_v_i_c_u_s___infiltration_8h.html" target="_top" xlink:title=" ">
<polygon fill="white" stroke="#666666" points="357.43,-129 253.43,-129 253.43,-110 357.43,-110 357.43,-129"/>
<text text-anchor="middle" x="305.43" y="-117" font-family="Helvetica,sans-Serif" font-size="10.00">VICUS_Infiltration.h</text>
</a>
</g>
</g>
<!-- Node1&#45;&gt;Node2 -->
<g id="edge1_Node000001_Node000002" class="edge">
<title>Node1&#45;&gt;Node2</title>
<g id="a_edge1_Node000001_Node000002"><a xlink:title=" ">
<path fill="none" stroke="#63b8ff" d="M607.57,-177.25C536.68,-163.94 426.79,-143.3 360.91,-130.92"/>
<polygon fill="#63b8ff" stroke="#63b8ff" points="361.2,-127.41 350.72,-129.01 359.91,-134.29 361.2,-127.41"/>
</a>
</g>
</g>
<!-- Node6 -->
<g id="Node000006" class="node">
<title>Node6</title>
<g id="a_Node000006"><a xlink:href="_v_i_c_u_s___constants_8h.html" target="_top" xlink:title="Contains global constants for the SIM&#45;VICUS data model.">
<polygon fill="white" stroke="#666666" points="191.93,-19 84.93,-19 84.93,0 191.93,0 191.93,-19"/>
<text text-anchor="middle" x="138.43" y="-7" font-family="Helvetica,sans-Serif" font-size="10.00">VICUS_Constants.h</text>
</a>
</g>
</g>
<!-- Node1&#45;&gt;Node6 -->
<g id="edge18_Node000001_Node000006" class="edge">
<title>Node1&#45;&gt;Node6</title>
<g id="a_edge18_Node000001_Node000006"><a xlink:title=" ">
<path fill="none" stroke="#63b8ff" d="M607.72,-189.11C452.84,-185.47 80.4,-167.01 6.43,-74 -16.89,-44.67 30.37,-28.07 74.69,-19.26"/>
<polygon fill="#63b8ff" stroke="#63b8ff" points="75.48,-22.67 84.66,-17.39 74.19,-15.79 75.48,-22.67"/>
</a>
</g>
</g>
<!-- Node9 -->
<g id="Node000009" class="node">
<title>Node9</title>
<g id="a_Node000009"><a xlink:href="_v_i_c_u_s___keyword_list_8h.html" target="_top" xlink:title="Contains the declaration of class KeywordList.">
<polygon fill="white" stroke="#666666" points="557.43,-129 441.43,-129 441.43,-110 557.43,-110 557.43,-129"/>
<text text-anchor="middle" x="499.43" y="-117" font-family="Helvetica,sans-Serif" font-size="10.00">VICUS_KeywordList.h</text>
</a>
</g>
</g>
<!-- Node1&#45;&gt;Node9 -->
<g id="edge10_Node000001_Node000009" class="edge">
<title>Node1&#45;&gt;Node9</title>
<g id="a_edge10_Node000001_Node000009"><a xlink:title=" ">
<path fill="none" stroke="#63b8ff" d="M611.89,-164.91C584.28,-154 553.17,-141.72 530.68,-132.84"/>
<polygon fill="#63b8ff" stroke="#63b8ff" points="531.89,-129.55 521.3,-129.14 529.32,-136.06 531.89,-129.55"/>
</a>
</g>
</g>
<!-- Node13 -->
<g id="Node000013" class="node">
<title>Node13</title>
<g id="a_Node000013"><a xlink:title=" ">
<polygon fill="#e0e0e0" stroke="#999999" points="667.43,-129 575.43,-129 575.43,-110 667.43,-110 667.43,-129"/>
<text text-anchor="middle" x="621.43" y="-117" font-family="Helvetica,sans-Serif" font-size="10.00">IBK_messages.h</text>
</a>
</g>
</g>
<!-- Node1&#45;&gt;Node13 -->
<g id="edge15_Node000001_Node000013" class="edge">
<title>Node1&#45;&gt;Node13</title>
<g id="a_edge15_Node000001_Node000013"><a xlink:title=" ">
<path fill="none" stroke="#63b8ff" d="M655.94,-164.91C648.84,-155.77 640.99,-145.67 634.57,-137.41"/>
<polygon fill="#63b8ff" stroke="#63b8ff" points="637.17,-135.05 628.27,-129.3 631.65,-139.35 637.17,-135.05"/>
</a>
</g>
</g>
<!-- Node14 -->
<g id="Node000014" class="node">
<title>Node14</title>
<g id="a_Node000014"><a xlink:title=" ">
<polygon fill="#e0e0e0" stroke="#999999" points="775.43,-129 685.43,-129 685.43,-110 775.43,-110 775.43,-129"/>
<text text-anchor="middle" x="730.43" y="-117" font-family="Helvetica,sans-Serif" font-size="10.00">IBK_Exception.h</text>
</a>
</g>
</g>
<!-- Node1&#45;&gt;Node14 -->
<g id="edge16_Node000001_Node000014" class="edge">
<title>Node1&#45;&gt;Node14</title>
<g id="a_edge16_Node000001_Node000014"><a xlink:title=" ">
<path fill="none" stroke="#63b8ff" d="M695.29,-164.91C702.6,-155.67 710.69,-145.45 717.26,-137.14"/>
<polygon fill="#63b8ff" stroke="#63b8ff" points="720.01,-139.32 723.47,-129.3 714.52,-134.97 720.01,-139.32"/>
</a>
</g>
</g>
<!-- Node15 -->
<g id="Node000015" class="node">
<title>Node15</title>
<g id="a_Node000015"><a xlink:title=" ">
<polygon fill="#e0e0e0" stroke="#999999" points="885.43,-129 793.43,-129 793.43,-110 885.43,-110 885.43,-129"/>
<text text-anchor="middle" x="839.43" y="-117" font-family="Helvetica,sans-Serif" font-size="10.00">IBK_StringUtils.h</text>
</a>
</g>
</g>
<!-- Node1&#45;&gt;Node15 -->
<g id="edge17_Node000001_Node000015" class="edge">
<title>Node1&#45;&gt;Node15</title>
<g id="a_edge17_Node000001_Node000015"><a xlink:title=" ">
<path fill="none" stroke="#63b8ff" d="M734.64,-164.91C760.15,-154.1 788.85,-141.94 809.75,-133.08"/>
<polygon fill="#63b8ff" stroke="#63b8ff" points="811.22,-136.26 819.06,-129.14 808.48,-129.81 811.22,-136.26"/>
</a>
</g>
</g>
<!-- Node16 -->
<g id="Node000016" class="node">
<title>Node16</title>
<g id="a_Node000016"><a xlink:title=" ">
<polygon fill="#e0e0e0" stroke="#999999" points="1017.43,-129 903.43,-129 903.43,-110 1017.43,-110 1017.43,-129"/>
<text text-anchor="middle" x="960.43" y="-117" font-family="Helvetica,sans-Serif" font-size="10.00">NANDRAD_Utilities.h</text>
</a>
</g>
</g>
<!-- Node1&#45;&gt;Node16 -->
<g id="edge19_Node000001_Node000016" class="edge">
<title>Node1&#45;&gt;Node16</title>
<g id="a_edge19_Node000001_Node000016"><a xlink:title=" ">
<path fill="none" stroke="#63b8ff" d="M742.98,-173.53C796.34,-160.52 869.32,-142.72 915.67,-131.42"/>
<polygon fill="#63b8ff" stroke="#63b8ff" points="916.54,-134.81 925.43,-129.04 914.88,-128.01 916.54,-134.81"/>
</a>
</g>
</g>
<!-- Node17 -->
<g id="Node000017" class="node">
<title>Node17</title>
<g id="a_Node000017"><a xlink:title=" ">
<polygon fill="#e0e0e0" stroke="#999999" points="1091.43,-129 1035.43,-129 1035.43,-110 1091.43,-110 1091.43,-129"/>
<text text-anchor="middle" x="1063.43" y="-117" font-family="Helvetica,sans-Serif" font-size="10.00">tinyxml.h</text>
</a>
</g>
</g>
<!-- Node1&#45;&gt;Node17 -->
<g id="edge20_Node000001_Node000017" class="edge">
<title>Node1&#45;&gt;Node17</title>
<g id="a_edge20_Node000001_Node000017"><a xlink:title=" ">
<path fill="none" stroke="#63b8ff" d="M743.25,-179.32C811.88,-168.27 921.27,-149.96 1025.15,-129.17"/>
<polygon fill="#63b8ff" stroke="#63b8ff" points="1026.07,-132.56 1035.19,-127.15 1024.69,-125.7 1026.07,-132.56"/>
</a>
</g>
</g>
<!-- Node3 -->
<g id="Node000003" class="node">
<title>Node3</title>
<g id="a_Node000003"><a xlink:title=" ">
<polygon fill="#e0e0e0" stroke="#999999" points="409.93,-19 362.93,-19 362.93,0 409.93,0 409.93,-19"/>
<text text-anchor="middle" x="386.43" y="-7" font-family="Helvetica,sans-Serif" font-size="10.00">QColor</text>
</a>
</g>
</g>
<!-- Node2&#45;&gt;Node3 -->
<g id="edge2_Node000002_Node000003" class="edge">
<title>Node2&#45;&gt;Node3</title>
<g id="a_edge2_Node000002_Node000003"><a xlink:title=" ">
<path fill="none" stroke="#63b8ff" d="M321.58,-109.93C334.8,-102.16 353.11,-89.56 364.43,-74 374.2,-60.59 379.9,-42.48 383.04,-29.04"/>
<polygon fill="#63b8ff" stroke="#63b8ff" points="386.51,-29.55 385.11,-19.05 379.66,-28.13 386.51,-29.55"/>
</a>
</g>
</g>
<!-- Node4 -->
<g id="Node000004" class="node">
<title>Node4</title>
<g id="a_Node000004"><a xlink:title=" ">
<polygon fill="#e0e0e0" stroke="#999999" points="502.93,-74 411.93,-74 411.93,-55 502.93,-55 502.93,-74"/>
<text text-anchor="middle" x="457.43" y="-62" font-family="Helvetica,sans-Serif" font-size="10.00">IBK_Parameter.h</text>
</a>
</g>
</g>
<!-- Node2&#45;&gt;Node4 -->
<g id="edge3_Node000002_Node000004" class="edge">
<title>Node2&#45;&gt;Node4</title>
<g id="a_edge3_Node000002_Node000004"><a xlink:title=" ">
<path fill="none" stroke="#63b8ff" d="M329.86,-109.98C355.15,-101.16 394.89,-87.31 423.29,-77.41"/>
<polygon fill="#63b8ff" stroke="#63b8ff" points="424.53,-80.68 432.82,-74.08 422.23,-74.07 424.53,-80.68"/>
</a>
</g>
</g>
<!-- Node5 -->
<g id="Node000005" class="node">
<title>Node5</title>
<g id="a_Node000005"><a xlink:href="_v_i_c_u_s___code_gen_macros_8h.html" target="_top" xlink:title=" ">
<polygon fill="white" stroke="#666666" points="150.93,-74 15.93,-74 15.93,-55 150.93,-55 150.93,-74"/>
<text text-anchor="middle" x="83.43" y="-62" font-family="Helvetica,sans-Serif" font-size="10.00">VICUS_CodeGenMacros.h</text>
</a>
</g>
</g>
<!-- Node2&#45;&gt;Node5 -->
<g id="edge4_Node000002_Node000005" class="edge">
<title>Node2&#45;&gt;Node5</title>
<g id="a_edge4_Node000002_Node000005"><a xlink:title=" ">
<path fill="none" stroke="#63b8ff" d="M269.77,-109.98C231.61,-100.87 170.96,-86.4 129.28,-76.45"/>
<polygon fill="#63b8ff" stroke="#63b8ff" points="129.92,-73 119.38,-74.08 128.3,-79.81 129.92,-73"/>
</a>
</g>
</g>
<!-- Node2&#45;&gt;Node6 -->
<g id="edge5_Node000002_Node000006" class="edge">
<title>Node2&#45;&gt;Node6</title>
<g id="a_edge5_Node000002_Node000006"><a xlink:title=" ">
<path fill="none" stroke="#63b8ff" d="M275.29,-109.96C252.6,-102.64 221.43,-90.64 197.43,-74 178.97,-61.19 161.98,-41.73 151.02,-27.73"/>
<polygon fill="#63b8ff" stroke="#63b8ff" points="153.57,-25.29 144.73,-19.44 147.99,-29.52 153.57,-25.29"/>
</a>
</g>
</g>
<!-- Node7 -->
<g id="Node000007" class="node">
<title>Node7</title>
<g id="a_Node000007"><a xlink:href="_v_i_c_u_s___abstract_d_b_element_8h.html" target="_top" xlink:title=" ">
<polygon fill="white" stroke="#666666" points="355.93,-74 206.93,-74 206.93,-55 355.93,-55 355.93,-74"/>
<text text-anchor="middle" x="281.43" y="-62" font-family="Helvetica,sans-Serif" font-size="10.00">VICUS_AbstractDBElement.h</text>
</a>
</g>
</g>
<!-- Node2&#45;&gt;Node7 -->
<g id="edge6_Node000002_Node000007" class="edge">
<title>Node2&#45;&gt;Node7</title>
<g id="a_edge6_Node000002_Node000007"><a xlink:title=" ">
<path fill="none" stroke="#63b8ff" d="M301.47,-109.75C298.22,-102.57 293.52,-92.18 289.48,-83.27"/>
<polygon fill="#63b8ff" stroke="#63b8ff" points="292.64,-81.75 285.32,-74.09 286.26,-84.64 292.64,-81.75"/>
</a>
</g>
</g>
<!-- Node7&#45;&gt;Node3 -->
<g id="edge8_Node000007_Node000003" class="edge">
<title>Node7&#45;&gt;Node3</title>
<g id="a_edge8_Node000007_Node000003"><a xlink:title=" ">
<path fill="none" stroke="#63b8ff" d="M298.3,-54.98C315.04,-46.54 340.93,-33.47 360.33,-23.68"/>
<polygon fill="#63b8ff" stroke="#63b8ff" points="361.91,-26.8 369.26,-19.17 358.75,-20.55 361.91,-26.8"/>
</a>
</g>
</g>
<!-- Node7&#45;&gt;Node6 -->
<g id="edge9_Node000007_Node000006" class="edge">
<title>Node7&#45;&gt;Node6</title>
<g id="a_edge9_Node000007_Node000006"><a xlink:title=" ">
<path fill="none" stroke="#63b8ff" d="M258.46,-54.98C234.94,-46.27 198.15,-32.63 171.5,-22.75"/>
<polygon fill="#63b8ff" stroke="#63b8ff" points="172.42,-19.36 161.83,-19.17 169.99,-25.93 172.42,-19.36"/>
</a>
</g>
</g>
<!-- Node8 -->
<g id="Node000008" class="node">
<title>Node8</title>
<g id="a_Node000008"><a xlink:title=" ">
<polygon fill="#e0e0e0" stroke="#999999" points="344.93,-19 209.93,-19 209.93,0 344.93,0 344.93,-19"/>
<text text-anchor="middle" x="277.43" y="-7" font-family="Helvetica,sans-Serif" font-size="10.00">IBK_MultiLanguageString.h</text>
</a>
</g>
</g>
<!-- Node7&#45;&gt;Node8 -->
<g id="edge7_Node000007_Node000008" class="edge">
<title>Node7&#45;&gt;Node8</title>
<g id="a_edge7_Node000007_Node000008"><a xlink:title=" ">
<path fill="none" stroke="#63b8ff" d="M280.77,-54.75C280.25,-47.8 279.5,-37.85 278.84,-29.13"/>
<polygon fill="#63b8ff" stroke="#63b8ff" points="282.33,-28.8 278.08,-19.09 275.35,-29.32 282.33,-28.8"/>
</a>
</g>
</g>
<!-- Node9&#45;&gt;Node4 -->
<g id="edge13_Node000009_Node000004" class="edge">
<title>Node9&#45;&gt;Node4</title>
<g id="a_edge13_Node000009_Node000004"><a xlink:title=" ">
<path fill="none" stroke="#63b8ff" d="M492.5,-109.75C486.57,-102.26 477.86,-91.28 470.61,-82.13"/>
<polygon fill="#63b8ff" stroke="#63b8ff" points="473.2,-79.75 464.24,-74.09 467.71,-84.1 473.2,-79.75"/>
</a>
</g>
</g>
<!-- Node10 -->
<g id="Node000010" class="node">
<title>Node10</title>
<g id="a_Node000010"><a xlink:title=" ">
<polygon fill="#e0e0e0" stroke="#999999" points="561.93,-74 520.93,-74 520.93,-55 561.93,-55 561.93,-74"/>
<text text-anchor="middle" x="541.43" y="-62" font-family="Helvetica,sans-Serif" font-size="10.00">string</text>
</a>
</g>
</g>
<!-- Node9&#45;&gt;Node10 -->
<g id="edge11_Node000009_Node000010" class="edge">
<title>Node9&#45;&gt;Node10</title>
<g id="a_edge11_Node000009_Node000010"><a xlink:title=" ">
<path fill="none" stroke="#63b8ff" d="M506.37,-109.75C512.3,-102.26 521.01,-91.28 528.26,-82.13"/>
<polygon fill="#63b8ff" stroke="#63b8ff" points="531.16,-84.1 534.63,-74.09 525.67,-79.75 531.16,-84.1"/>
</a>
</g>
</g>
<!-- Node11 -->
<g id="Node000011" class="node">
<title>Node11</title>
<g id="a_Node000011"><a xlink:title=" ">
<polygon fill="#e0e0e0" stroke="#999999" points="630.93,-74 579.93,-74 579.93,-55 630.93,-55 630.93,-74"/>
<text text-anchor="middle" x="605.43" y="-62" font-family="Helvetica,sans-Serif" font-size="10.00">typeinfo</text>
</a>
</g>
</g>
<!-- Node9&#45;&gt;Node11 -->
<g id="edge12_Node000009_Node000011" class="edge">
<title>Node9&#45;&gt;Node11</title>
<g id="a_edge12_Node000009_Node000011"><a xlink:title=" ">
<path fill="none" stroke="#63b8ff" d="M516.47,-109.98C533.36,-101.54 559.5,-88.47 579.08,-78.68"/>
<polygon fill="#63b8ff" stroke="#63b8ff" points="580.72,-81.77 588.09,-74.17 577.58,-75.51 580.72,-81.77"/>
</a>
</g>
</g>
<!-- Node12 -->
<g id="Node000012" class="node">
<title>Node12</title>
<g id="a_Node000012"><a xlink:title=" ">
<polygon fill="#e0e0e0" stroke="#999999" points="727.43,-74 649.43,-74 649.43,-55 727.43,-55 727.43,-74"/>
<text text-anchor="middle" x="688.43" y="-62" font-family="Helvetica,sans-Serif" font-size="10.00">IBK_IntPara.h</text>
</a>
</g>
</g>
<!-- Node9&#45;&gt;Node12 -->
<g id="edge14_Node000009_Node000012" class="edge">
<title>Node9&#45;&gt;Node12</title>
<g id="a_edge14_Node000009_Node000012"><a xlink:title=" ">
<path fill="none" stroke="#63b8ff" d="M529.8,-109.98C561.81,-101.01 612.4,-86.82 647.82,-76.89"/>
<polygon fill="#63b8ff" stroke="#63b8ff" points="649.15,-80.15 657.83,-74.08 647.26,-73.41 649.15,-80.15"/>
</a>
</g>
</g>
</g>
</svg>
