<?xml version="1.0" encoding="UTF-8" standalone="no"?>
<!DOCTYPE svg PUBLIC "-//W3C//DTD SVG 1.1//EN"
 "http://www.w3.org/Graphics/SVG/1.1/DTD/svg11.dtd">
<!-- Generated by graphviz version 2.43.0 (0)
 -->
<!-- Title: /home/hirth/git/SIM&#45;VICUS.master2/externals/Vicus/src/ncg/ncg_VICUS_Window.cpp Pages: 1 -->
<svg width="1929pt" height="280pt"
 viewBox="0.00 0.00 1929.24 280.00" xmlns="http://www.w3.org/2000/svg" xmlns:xlink="http://www.w3.org/1999/xlink">
<g id="graph0" class="graph" transform="scale(1 1) rotate(0) translate(4 276)">
<title>/home/hirth/git/SIM&#45;VICUS.master2/externals/Vicus/src/ncg/ncg_VICUS_Window.cpp</title>
<!-- Node1 -->
<g id="Node000001" class="node">
<title>Node1</title>
<g id="a_Node000001"><a xlink:title=" ">
<polygon fill="#999999" stroke="#666666" points="1609.74,-272 1474.74,-272 1474.74,-220 1609.74,-220 1609.74,-272"/>
<text text-anchor="start" x="1482.74" y="-260" font-family="Helvetica,sans-Serif" font-size="10.00">/home/hirth/git/SIM</text>
<text text-anchor="start" x="1482.74" y="-249" font-family="Helvetica,sans-Serif" font-size="10.00">&#45;VICUS.master2/externals</text>
<text text-anchor="start" x="1482.74" y="-238" font-family="Helvetica,sans-Serif" font-size="10.00">/Vicus/src/ncg/ncg_VICUS</text>
<text text-anchor="middle" x="1542.24" y="-227" font-family="Helvetica,sans-Serif" font-size="10.00">_Window.cpp</text>
</a>
</g>
</g>
<!-- Node2 -->
<g id="Node000002" class="node">
<title>Node2</title>
<g id="a_Node000002"><a xlink:href="_v_i_c_u_s___window_8h.html" target="_top" xlink:title=" ">
<polygon fill="white" stroke="#666666" points="962.74,-184 867.74,-184 867.74,-165 962.74,-165 962.74,-184"/>
<text text-anchor="middle" x="915.24" y="-172" font-family="Helvetica,sans-Serif" font-size="10.00">VICUS_Window.h</text>
</a>
</g>
</g>
<!-- Node1&#45;&gt;Node2 -->
<g id="edge1_Node000001_Node000002" class="edge">
<title>Node1&#45;&gt;Node2</title>
<g id="a_edge1_Node000001_Node000002"><a xlink:title=" ">
<path fill="none" stroke="#63b8ff" d="M1474.54,-237.5C1350.67,-223.77 1089.58,-194.82 973.27,-181.93"/>
<polygon fill="#63b8ff" stroke="#63b8ff" points="973.46,-178.43 963.14,-180.81 972.69,-185.39 973.46,-178.43"/>
</a>
</g>
</g>
<!-- Node4 -->
<g id="Node000004" class="node">
<title>Node4</title>
<g id="a_Node000004"><a xlink:href="_v_i_c_u_s___constants_8h.html" target="_top" xlink:title="Contains global constants for the SIM&#45;VICUS data model.">
<polygon fill="white" stroke="#666666" points="885.74,-19 778.74,-19 778.74,0 885.74,0 885.74,-19"/>
<text text-anchor="middle" x="832.24" y="-7" font-family="Helvetica,sans-Serif" font-size="10.00">VICUS_Constants.h</text>
</a>
</g>
</g>
<!-- Node1&#45;&gt;Node4 -->
<g id="edge57_Node000001_Node000004" class="edge">
<title>Node1&#45;&gt;Node4</title>
<g id="a_edge57_Node000001_Node000004"><a xlink:title=" ">
<path fill="none" stroke="#63b8ff" d="M1474.59,-242.72C1193.83,-232.55 130.7,-186.79 38.24,-74 32.88,-67.47 32.43,-61.13 38.24,-55 62.94,-28.89 648.35,-21.03 684.24,-19 711.8,-17.44 742.25,-15.7 768.32,-14.19"/>
<polygon fill="#63b8ff" stroke="#63b8ff" points="768.68,-17.68 778.46,-13.61 768.27,-10.69 768.68,-17.68"/>
</a>
</g>
</g>
<!-- Node9 -->
<g id="Node000009" class="node">
<title>Node9</title>
<g id="a_Node000009"><a xlink:href="_v_i_c_u_s___keyword_list_8h.html" target="_top" xlink:title="Contains the declaration of class KeywordList.">
<polygon fill="white" stroke="#666666" points="1407.24,-74 1291.24,-74 1291.24,-55 1407.24,-55 1407.24,-74"/>
<text text-anchor="middle" x="1349.24" y="-62" font-family="Helvetica,sans-Serif" font-size="10.00">VICUS_KeywordList.h</text>
</a>
</g>
</g>
<!-- Node1&#45;&gt;Node9 -->
<g id="edge53_Node000001_Node000009" class="edge">
<title>Node1&#45;&gt;Node9</title>
<g id="a_edge53_Node000001_Node000009"><a xlink:title=" ">
<path fill="none" stroke="#63b8ff" d="M1496.76,-219.96C1462.06,-199.12 1414.83,-166.81 1382.24,-129 1370.59,-115.49 1361.62,-97.15 1356,-83.66"/>
<polygon fill="#63b8ff" stroke="#63b8ff" points="1359.14,-82.08 1352.21,-74.06 1352.63,-84.64 1359.14,-82.08"/>
</a>
</g>
</g>
<!-- Node22 -->
<g id="Node000022" class="node">
<title>Node22</title>
<g id="a_Node000022"><a xlink:title=" ">
<polygon fill="#e0e0e0" stroke="#999999" points="1656.24,-74 1564.24,-74 1564.24,-55 1656.24,-55 1656.24,-74"/>
<text text-anchor="middle" x="1610.24" y="-62" font-family="Helvetica,sans-Serif" font-size="10.00">IBK_messages.h</text>
</a>
</g>
</g>
<!-- Node1&#45;&gt;Node22 -->
<g id="edge54_Node000001_Node000022" class="edge">
<title>Node1&#45;&gt;Node22</title>
<g id="a_edge54_Node000001_Node000022"><a xlink:title=" ">
<path fill="none" stroke="#63b8ff" d="M1536.87,-219.88C1532.14,-191.4 1528.58,-144.44 1547.24,-110 1554.58,-96.45 1568.05,-86.09 1580.65,-78.79"/>
<polygon fill="#63b8ff" stroke="#63b8ff" points="1582.41,-81.82 1589.58,-74.01 1579.11,-75.65 1582.41,-81.82"/>
</a>
</g>
</g>
<!-- Node23 -->
<g id="Node000023" class="node">
<title>Node23</title>
<g id="a_Node000023"><a xlink:title=" ">
<polygon fill="#e0e0e0" stroke="#999999" points="1730.24,-74 1674.24,-74 1674.24,-55 1730.24,-55 1730.24,-74"/>
<text text-anchor="middle" x="1702.24" y="-62" font-family="Helvetica,sans-Serif" font-size="10.00">tinyxml.h</text>
</a>
</g>
</g>
<!-- Node1&#45;&gt;Node23 -->
<g id="edge59_Node000001_Node000023" class="edge">
<title>Node1&#45;&gt;Node23</title>
<g id="a_edge59_Node000001_Node000023"><a xlink:title=" ">
<path fill="none" stroke="#63b8ff" d="M1550.81,-219.96C1557.27,-203.32 1567.24,-181.58 1580.24,-165 1608.75,-128.64 1652.81,-96.91 1679.45,-79.55"/>
<polygon fill="#63b8ff" stroke="#63b8ff" points="1681.55,-82.36 1688.09,-74.03 1677.78,-76.46 1681.55,-82.36"/>
</a>
</g>
</g>
<!-- Node27 -->
<g id="Node000027" class="node">
<title>Node27</title>
<g id="a_Node000027"><a xlink:title=" ">
<polygon fill="#e0e0e0" stroke="#999999" points="1679.24,-184 1589.24,-184 1589.24,-165 1679.24,-165 1679.24,-184"/>
<text text-anchor="middle" x="1634.24" y="-172" font-family="Helvetica,sans-Serif" font-size="10.00">IBK_Exception.h</text>
</a>
</g>
</g>
<!-- Node1&#45;&gt;Node27 -->
<g id="edge55_Node000001_Node000027" class="edge">
<title>Node1&#45;&gt;Node27</title>
<g id="a_edge55_Node000001_Node000027"><a xlink:title=" ">
<path fill="none" stroke="#63b8ff" d="M1575.45,-219.91C1588.58,-209.99 1603.21,-198.94 1614.59,-190.34"/>
<polygon fill="#63b8ff" stroke="#63b8ff" points="1616.72,-193.12 1622.59,-184.3 1612.5,-187.54 1616.72,-193.12"/>
</a>
</g>
</g>
<!-- Node28 -->
<g id="Node000028" class="node">
<title>Node28</title>
<g id="a_Node000028"><a xlink:title=" ">
<polygon fill="#e0e0e0" stroke="#999999" points="1789.24,-184 1697.24,-184 1697.24,-165 1789.24,-165 1789.24,-184"/>
<text text-anchor="middle" x="1743.24" y="-172" font-family="Helvetica,sans-Serif" font-size="10.00">IBK_StringUtils.h</text>
</a>
</g>
</g>
<!-- Node1&#45;&gt;Node28 -->
<g id="edge56_Node000001_Node000028" class="edge">
<title>Node1&#45;&gt;Node28</title>
<g id="a_edge56_Node000001_Node000028"><a xlink:title=" ">
<path fill="none" stroke="#63b8ff" d="M1610.01,-221.57C1643.15,-210.11 1681.63,-196.8 1708.69,-187.44"/>
<polygon fill="#63b8ff" stroke="#63b8ff" points="1710.16,-190.64 1718.47,-184.06 1707.87,-184.02 1710.16,-190.64"/>
</a>
</g>
</g>
<!-- Node29 -->
<g id="Node000029" class="node">
<title>Node29</title>
<g id="a_Node000029"><a xlink:title=" ">
<polygon fill="#e0e0e0" stroke="#999999" points="1921.24,-184 1807.24,-184 1807.24,-165 1921.24,-165 1921.24,-184"/>
<text text-anchor="middle" x="1864.24" y="-172" font-family="Helvetica,sans-Serif" font-size="10.00">NANDRAD_Utilities.h</text>
</a>
</g>
</g>
<!-- Node1&#45;&gt;Node29 -->
<g id="edge58_Node000001_Node000029" class="edge">
<title>Node1&#45;&gt;Node29</title>
<g id="a_edge58_Node000001_Node000029"><a xlink:title=" ">
<path fill="none" stroke="#63b8ff" d="M1609.74,-230.43C1671.02,-217.2 1759.97,-198.01 1814.85,-186.16"/>
<polygon fill="#63b8ff" stroke="#63b8ff" points="1815.65,-189.57 1824.68,-184.04 1814.17,-182.73 1815.65,-189.57"/>
</a>
</g>
</g>
<!-- Node3 -->
<g id="Node000003" class="node">
<title>Node3</title>
<g id="a_Node000003"><a xlink:href="_v_i_c_u_s___code_gen_macros_8h.html" target="_top" xlink:title=" ">
<polygon fill="white" stroke="#666666" points="848.74,-74 713.74,-74 713.74,-55 848.74,-55 848.74,-74"/>
<text text-anchor="middle" x="781.24" y="-62" font-family="Helvetica,sans-Serif" font-size="10.00">VICUS_CodeGenMacros.h</text>
</a>
</g>
</g>
<!-- Node2&#45;&gt;Node3 -->
<g id="edge2_Node000002_Node000003" class="edge">
<title>Node2&#45;&gt;Node3</title>
<g id="a_edge2_Node000002_Node000003"><a xlink:title=" ">
<path fill="none" stroke="#63b8ff" d="M904.27,-164.66C881.39,-146.22 828.32,-103.45 799.93,-80.57"/>
<polygon fill="#63b8ff" stroke="#63b8ff" points="801.96,-77.71 791.98,-74.16 797.57,-83.16 801.96,-77.71"/>
</a>
</g>
</g>
<!-- Node2&#45;&gt;Node4 -->
<g id="edge3_Node000002_Node000004" class="edge">
<title>Node2&#45;&gt;Node4</title>
<g id="a_edge3_Node000002_Node000004"><a xlink:title=" ">
<path fill="none" stroke="#63b8ff" d="M911.18,-164.79C901.95,-145.07 878.53,-95.56 857.24,-55 852.55,-46.08 847.09,-36.3 842.48,-28.18"/>
<polygon fill="#63b8ff" stroke="#63b8ff" points="845.38,-26.21 837.37,-19.28 839.31,-29.7 845.38,-26.21"/>
</a>
</g>
</g>
<!-- Node5 -->
<g id="Node000005" class="node">
<title>Node5</title>
<g id="a_Node000005"><a xlink:href="_v_i_c_u_s___abstract_d_b_element_8h.html" target="_top" xlink:title=" ">
<polygon fill="white" stroke="#666666" points="1197.74,-74 1048.74,-74 1048.74,-55 1197.74,-55 1197.74,-74"/>
<text text-anchor="middle" x="1123.24" y="-62" font-family="Helvetica,sans-Serif" font-size="10.00">VICUS_AbstractDBElement.h</text>
</a>
</g>
</g>
<!-- Node2&#45;&gt;Node5 -->
<g id="edge4_Node000002_Node000005" class="edge">
<title>Node2&#45;&gt;Node5</title>
<g id="a_edge4_Node000002_Node000005"><a xlink:title=" ">
<path fill="none" stroke="#63b8ff" d="M962.75,-168.92C997.07,-163.7 1043.19,-152.59 1077.24,-129 1093.96,-117.41 1106.84,-97.7 1114.66,-83.31"/>
<polygon fill="#63b8ff" stroke="#63b8ff" points="1117.8,-84.85 1119.25,-74.36 1111.58,-81.66 1117.8,-84.85"/>
</a>
</g>
</g>
<!-- Node7 -->
<g id="Node000007" class="node">
<title>Node7</title>
<g id="a_Node000007"><a xlink:title=" ">
<polygon fill="#e0e0e0" stroke="#999999" points="675.74,-19 628.74,-19 628.74,0 675.74,0 675.74,-19"/>
<text text-anchor="middle" x="652.24" y="-7" font-family="Helvetica,sans-Serif" font-size="10.00">QColor</text>
</a>
</g>
</g>
<!-- Node2&#45;&gt;Node7 -->
<g id="edge52_Node000002_Node000007" class="edge">
<title>Node2&#45;&gt;Node7</title>
<g id="a_edge52_Node000002_Node000007"><a xlink:title=" ">
<path fill="none" stroke="#63b8ff" d="M867.46,-172.06C687.82,-166.15 60.21,-140.81 4.24,-74 -1.19,-67.53 -1.53,-61.17 4.24,-55 46.39,-9.85 491.1,-9.39 618.38,-10.19"/>
<polygon fill="#63b8ff" stroke="#63b8ff" points="618.66,-13.7 628.68,-10.27 618.71,-6.7 618.66,-13.7"/>
</a>
</g>
</g>
<!-- Node8 -->
<g id="Node000008" class="node">
<title>Node8</title>
<g id="a_Node000008"><a xlink:href="_v_i_c_u_s___window_frame_8h.html" target="_top" xlink:title=" ">
<polygon fill="white" stroke="#666666" points="1068.74,-129 943.74,-129 943.74,-110 1068.74,-110 1068.74,-129"/>
<text text-anchor="middle" x="1006.24" y="-117" font-family="Helvetica,sans-Serif" font-size="10.00">VICUS_WindowFrame.h</text>
</a>
</g>
</g>
<!-- Node2&#45;&gt;Node8 -->
<g id="edge8_Node000002_Node000008" class="edge">
<title>Node2&#45;&gt;Node8</title>
<g id="a_edge8_Node000002_Node000008"><a xlink:title=" ">
<path fill="none" stroke="#63b8ff" d="M929.86,-164.98C944.1,-156.69 965.99,-143.94 982.69,-134.22"/>
<polygon fill="#63b8ff" stroke="#63b8ff" points="984.47,-137.23 991.35,-129.17 980.95,-131.18 984.47,-137.23"/>
</a>
</g>
</g>
<!-- Node14 -->
<g id="Node000014" class="node">
<title>Node14</title>
<g id="a_Node000014"><a xlink:title=" ">
<polygon fill="#e0e0e0" stroke="#999999" points="955.24,-74 905.24,-74 905.24,-55 955.24,-55 955.24,-74"/>
<text text-anchor="middle" x="930.24" y="-62" font-family="Helvetica,sans-Serif" font-size="10.00">QString</text>
</a>
</g>
</g>
<!-- Node2&#45;&gt;Node14 -->
<g id="edge51_Node000002_Node000014" class="edge">
<title>Node2&#45;&gt;Node14</title>
<g id="a_edge51_Node000002_Node000014"><a xlink:title=" ">
<path fill="none" stroke="#63b8ff" d="M916.46,-164.66C918.89,-147.17 924.36,-107.8 927.63,-84.27"/>
<polygon fill="#63b8ff" stroke="#63b8ff" points="931.13,-84.54 929.03,-74.16 924.19,-83.58 931.13,-84.54"/>
</a>
</g>
</g>
<!-- Node15 -->
<g id="Node000015" class="node">
<title>Node15</title>
<g id="a_Node000015"><a xlink:href="_v_i_c_u_s___window_glazing_system_8h.html" target="_top" xlink:title=" ">
<polygon fill="white" stroke="#666666" points="767.24,-129 603.24,-129 603.24,-110 767.24,-110 767.24,-129"/>
<text text-anchor="middle" x="685.24" y="-117" font-family="Helvetica,sans-Serif" font-size="10.00">VICUS_WindowGlazingSystem.h</text>
</a>
</g>
</g>
<!-- Node2&#45;&gt;Node15 -->
<g id="edge19_Node000002_Node000015" class="edge">
<title>Node2&#45;&gt;Node15</title>
<g id="a_edge19_Node000002_Node000015"><a xlink:title=" ">
<path fill="none" stroke="#63b8ff" d="M878.28,-164.98C838.67,-155.86 775.65,-141.33 732.46,-131.38"/>
<polygon fill="#63b8ff" stroke="#63b8ff" points="733.01,-127.92 722.48,-129.08 731.44,-134.74 733.01,-127.92"/>
</a>
</g>
</g>
<!-- Node18 -->
<g id="Node000018" class="node">
<title>Node18</title>
<g id="a_Node000018"><a xlink:href="_v_i_c_u_s___window_divider_8h.html" target="_top" xlink:title=" ">
<polygon fill="white" stroke="#666666" points="1252.74,-129 1125.74,-129 1125.74,-110 1252.74,-110 1252.74,-129"/>
<text text-anchor="middle" x="1189.24" y="-117" font-family="Helvetica,sans-Serif" font-size="10.00">VICUS_WindowDivider.h</text>
</a>
</g>
</g>
<!-- Node2&#45;&gt;Node18 -->
<g id="edge28_Node000002_Node000018" class="edge">
<title>Node2&#45;&gt;Node18</title>
<g id="a_edge28_Node000002_Node000018"><a xlink:title=" ">
<path fill="none" stroke="#63b8ff" d="M959.26,-164.98C1007.05,-155.74 1083.43,-140.97 1134.92,-131.01"/>
<polygon fill="#63b8ff" stroke="#63b8ff" points="1135.72,-134.42 1144.87,-129.08 1134.39,-127.54 1135.72,-134.42"/>
</a>
</g>
</g>
<!-- Node19 -->
<g id="Node000019" class="node">
<title>Node19</title>
<g id="a_Node000019"><a xlink:href="_v_i_c_u_s___database_8h.html" target="_top" xlink:title=" ">
<polygon fill="white" stroke="#666666" points="1495.24,-129 1391.24,-129 1391.24,-110 1495.24,-110 1495.24,-129"/>
<text text-anchor="middle" x="1443.24" y="-117" font-family="Helvetica,sans-Serif" font-size="10.00">VICUS_Database.h</text>
</a>
</g>
</g>
<!-- Node2&#45;&gt;Node19 -->
<g id="edge35_Node000002_Node000019" class="edge">
<title>Node2&#45;&gt;Node19</title>
<g id="a_edge35_Node000002_Node000019"><a xlink:title=" ">
<path fill="none" stroke="#63b8ff" d="M963.02,-168.7C1058.81,-159.09 1274.23,-137.46 1380.92,-126.75"/>
<polygon fill="#63b8ff" stroke="#63b8ff" points="1381.3,-130.23 1390.9,-125.75 1380.6,-123.27 1381.3,-130.23"/>
</a>
</g>
</g>
<!-- Node24 -->
<g id="Node000024" class="node">
<title>Node24</title>
<g id="a_Node000024"><a xlink:href="_v_i_c_u_s___material_8h.html" target="_top" xlink:title=" ">
<polygon fill="white" stroke="#666666" points="418.24,-129 322.24,-129 322.24,-110 418.24,-110 418.24,-129"/>
<text text-anchor="middle" x="370.24" y="-117" font-family="Helvetica,sans-Serif" font-size="10.00">VICUS_Material.h</text>
</a>
</g>
</g>
<!-- Node2&#45;&gt;Node24 -->
<g id="edge41_Node000002_Node000024" class="edge">
<title>Node2&#45;&gt;Node24</title>
<g id="a_edge41_Node000002_Node000024"><a xlink:title=" ">
<path fill="none" stroke="#63b8ff" d="M867.35,-168.84C767.45,-159.13 537.14,-136.73 428.71,-126.19"/>
<polygon fill="#63b8ff" stroke="#63b8ff" points="428.89,-122.69 418.6,-125.2 428.22,-129.65 428.89,-122.69"/>
</a>
</g>
</g>
<!-- Node5&#45;&gt;Node4 -->
<g id="edge7_Node000005_Node000004" class="edge">
<title>Node5&#45;&gt;Node4</title>
<g id="a_edge7_Node000005_Node000004"><a xlink:title=" ">
<path fill="none" stroke="#63b8ff" d="M1076.48,-54.98C1025.51,-45.7 943.93,-30.84 889.24,-20.88"/>
<polygon fill="#63b8ff" stroke="#63b8ff" points="889.82,-17.43 879.36,-19.08 888.57,-24.32 889.82,-17.43"/>
</a>
</g>
</g>
<!-- Node6 -->
<g id="Node000006" class="node">
<title>Node6</title>
<g id="a_Node000006"><a xlink:title=" ">
<polygon fill="#e0e0e0" stroke="#999999" points="1190.74,-19 1055.74,-19 1055.74,0 1190.74,0 1190.74,-19"/>
<text text-anchor="middle" x="1123.24" y="-7" font-family="Helvetica,sans-Serif" font-size="10.00">IBK_MultiLanguageString.h</text>
</a>
</g>
</g>
<!-- Node5&#45;&gt;Node6 -->
<g id="edge5_Node000005_Node000006" class="edge">
<title>Node5&#45;&gt;Node6</title>
<g id="a_edge5_Node000005_Node000006"><a xlink:title=" ">
<path fill="none" stroke="#63b8ff" d="M1123.24,-54.75C1123.24,-47.8 1123.24,-37.85 1123.24,-29.13"/>
<polygon fill="#63b8ff" stroke="#63b8ff" points="1126.74,-29.09 1123.24,-19.09 1119.74,-29.09 1126.74,-29.09"/>
</a>
</g>
</g>
<!-- Node5&#45;&gt;Node7 -->
<g id="edge6_Node000005_Node000007" class="edge">
<title>Node5&#45;&gt;Node7</title>
<g id="a_edge6_Node000005_Node000007"><a xlink:title=" ">
<path fill="none" stroke="#63b8ff" d="M1048.61,-55.1C945.01,-43.45 761.88,-22.84 686.31,-14.33"/>
<polygon fill="#63b8ff" stroke="#63b8ff" points="686.29,-10.81 675.96,-13.17 685.51,-17.77 686.29,-10.81"/>
</a>
</g>
</g>
<!-- Node8&#45;&gt;Node3 -->
<g id="edge9_Node000008_Node000003" class="edge">
<title>Node8&#45;&gt;Node3</title>
<g id="a_edge9_Node000008_Node000003"><a xlink:title=" ">
<path fill="none" stroke="#63b8ff" d="M970.09,-109.98C931.33,-100.86 869.69,-86.33 827.44,-76.38"/>
<polygon fill="#63b8ff" stroke="#63b8ff" points="828.21,-72.97 817.67,-74.08 826.6,-79.78 828.21,-72.97"/>
</a>
</g>
</g>
<!-- Node8&#45;&gt;Node4 -->
<g id="edge10_Node000008_Node000004" class="edge">
<title>Node8&#45;&gt;Node4</title>
<g id="a_edge10_Node000008_Node000004"><a xlink:title=" ">
<path fill="none" stroke="#63b8ff" d="M1007.72,-109.9C1009.52,-96.44 1010.81,-70.35 997.24,-55 983.62,-39.6 936.4,-27.83 895.94,-20.28"/>
<polygon fill="#63b8ff" stroke="#63b8ff" points="896.56,-16.83 886.1,-18.5 895.31,-23.72 896.56,-16.83"/>
</a>
</g>
</g>
<!-- Node8&#45;&gt;Node5 -->
<g id="edge11_Node000008_Node000005" class="edge">
<title>Node8&#45;&gt;Node5</title>
<g id="a_edge11_Node000008_Node000005"><a xlink:title=" ">
<path fill="none" stroke="#63b8ff" d="M1025.04,-109.98C1043.86,-101.46 1073.06,-88.23 1094.73,-78.41"/>
<polygon fill="#63b8ff" stroke="#63b8ff" points="1096.43,-81.48 1104.1,-74.17 1093.54,-75.11 1096.43,-81.48"/>
</a>
</g>
</g>
<!-- Node8&#45;&gt;Node7 -->
<g id="edge18_Node000008_Node000007" class="edge">
<title>Node8&#45;&gt;Node7</title>
<g id="a_edge18_Node000008_Node000007"><a xlink:title=" ">
<path fill="none" stroke="#63b8ff" d="M1003.19,-109.8C997.77,-95.71 985.01,-68.14 964.24,-55 941,-40.3 761.84,-21.24 685.99,-13.74"/>
<polygon fill="#63b8ff" stroke="#63b8ff" points="686.29,-10.25 676,-12.76 685.61,-17.22 686.29,-10.25"/>
</a>
</g>
</g>
<!-- Node8&#45;&gt;Node9 -->
<g id="edge12_Node000008_Node000009" class="edge">
<title>Node8&#45;&gt;Node9</title>
<g id="a_edge12_Node000008_Node000009"><a xlink:title=" ">
<path fill="none" stroke="#63b8ff" d="M1061.35,-109.98C1122.01,-100.61 1219.47,-85.55 1283.93,-75.59"/>
<polygon fill="#63b8ff" stroke="#63b8ff" points="1284.63,-79.02 1293.98,-74.04 1283.56,-72.11 1284.63,-79.02"/>
</a>
</g>
</g>
<!-- Node8&#45;&gt;Node14 -->
<g id="edge17_Node000008_Node000014" class="edge">
<title>Node8&#45;&gt;Node14</title>
<g id="a_edge17_Node000008_Node000014"><a xlink:title=" ">
<path fill="none" stroke="#63b8ff" d="M994.03,-109.98C982.46,-101.92 964.86,-89.65 951.08,-80.03"/>
<polygon fill="#63b8ff" stroke="#63b8ff" points="952.87,-77.02 942.67,-74.17 948.87,-82.76 952.87,-77.02"/>
</a>
</g>
</g>
<!-- Node10 -->
<g id="Node000010" class="node">
<title>Node10</title>
<g id="a_Node000010"><a xlink:title=" ">
<polygon fill="#e0e0e0" stroke="#999999" points="1447.74,-19 1406.74,-19 1406.74,0 1447.74,0 1447.74,-19"/>
<text text-anchor="middle" x="1427.24" y="-7" font-family="Helvetica,sans-Serif" font-size="10.00">string</text>
</a>
</g>
</g>
<!-- Node9&#45;&gt;Node10 -->
<g id="edge13_Node000009_Node000010" class="edge">
<title>Node9&#45;&gt;Node10</title>
<g id="a_edge13_Node000009_Node000010"><a xlink:title=" ">
<path fill="none" stroke="#63b8ff" d="M1361.77,-54.98C1373.64,-46.92 1391.7,-34.65 1405.85,-25.03"/>
<polygon fill="#63b8ff" stroke="#63b8ff" points="1408.17,-27.69 1414.48,-19.17 1404.24,-21.9 1408.17,-27.69"/>
</a>
</g>
</g>
<!-- Node11 -->
<g id="Node000011" class="node">
<title>Node11</title>
<g id="a_Node000011"><a xlink:title=" ">
<polygon fill="#e0e0e0" stroke="#999999" points="1291.74,-19 1240.74,-19 1240.74,0 1291.74,0 1291.74,-19"/>
<text text-anchor="middle" x="1266.24" y="-7" font-family="Helvetica,sans-Serif" font-size="10.00">typeinfo</text>
</a>
</g>
</g>
<!-- Node9&#45;&gt;Node11 -->
<g id="edge14_Node000009_Node000011" class="edge">
<title>Node9&#45;&gt;Node11</title>
<g id="a_edge14_Node000009_Node000011"><a xlink:title=" ">
<path fill="none" stroke="#63b8ff" d="M1335.9,-54.98C1323.15,-46.84 1303.68,-34.41 1288.57,-24.76"/>
<polygon fill="#63b8ff" stroke="#63b8ff" points="1290.13,-21.6 1279.82,-19.17 1286.36,-27.5 1290.13,-21.6"/>
</a>
</g>
</g>
<!-- Node12 -->
<g id="Node000012" class="node">
<title>Node12</title>
<g id="a_Node000012"><a xlink:title=" ">
<polygon fill="#e0e0e0" stroke="#999999" points="994.74,-19 903.74,-19 903.74,0 994.74,0 994.74,-19"/>
<text text-anchor="middle" x="949.24" y="-7" font-family="Helvetica,sans-Serif" font-size="10.00">IBK_Parameter.h</text>
</a>
</g>
</g>
<!-- Node9&#45;&gt;Node12 -->
<g id="edge15_Node000009_Node000012" class="edge">
<title>Node9&#45;&gt;Node12</title>
<g id="a_edge15_Node000009_Node000012"><a xlink:title=" ">
<path fill="none" stroke="#63b8ff" d="M1291.07,-55.79C1214.4,-45.63 1080.43,-27.88 1004.98,-17.89"/>
<polygon fill="#63b8ff" stroke="#63b8ff" points="1005.11,-14.37 994.74,-16.53 1004.19,-21.31 1005.11,-14.37"/>
</a>
</g>
</g>
<!-- Node13 -->
<g id="Node000013" class="node">
<title>Node13</title>
<g id="a_Node000013"><a xlink:title=" ">
<polygon fill="#e0e0e0" stroke="#999999" points="1388.24,-19 1310.24,-19 1310.24,0 1388.24,0 1388.24,-19"/>
<text text-anchor="middle" x="1349.24" y="-7" font-family="Helvetica,sans-Serif" font-size="10.00">IBK_IntPara.h</text>
</a>
</g>
</g>
<!-- Node9&#45;&gt;Node13 -->
<g id="edge16_Node000009_Node000013" class="edge">
<title>Node9&#45;&gt;Node13</title>
<g id="a_edge16_Node000009_Node000013"><a xlink:title=" ">
<path fill="none" stroke="#63b8ff" d="M1349.24,-54.75C1349.24,-47.8 1349.24,-37.85 1349.24,-29.13"/>
<polygon fill="#63b8ff" stroke="#63b8ff" points="1352.74,-29.09 1349.24,-19.09 1345.74,-29.09 1352.74,-29.09"/>
</a>
</g>
</g>
<!-- Node15&#45;&gt;Node3 -->
<g id="edge20_Node000015_Node000003" class="edge">
<title>Node15&#45;&gt;Node3</title>
<g id="a_edge20_Node000015_Node000003"><a xlink:title=" ">
<path fill="none" stroke="#63b8ff" d="M700.66,-109.98C715.69,-101.69 738.78,-88.94 756.39,-79.22"/>
<polygon fill="#63b8ff" stroke="#63b8ff" points="758.47,-82.07 765.53,-74.17 755.09,-75.94 758.47,-82.07"/>
</a>
</g>
</g>
<!-- Node15&#45;&gt;Node4 -->
<g id="edge21_Node000015_Node000004" class="edge">
<title>Node15&#45;&gt;Node4</title>
<g id="a_edge21_Node000015_Node000004"><a xlink:title=" ">
<path fill="none" stroke="#63b8ff" d="M679.28,-109.75C671.12,-96.55 658.79,-71.35 671.24,-55 683.34,-39.1 729.07,-27.42 768.72,-20.03"/>
<polygon fill="#63b8ff" stroke="#63b8ff" points="769.42,-23.46 778.65,-18.24 768.18,-16.57 769.42,-23.46"/>
</a>
</g>
</g>
<!-- Node15&#45;&gt;Node5 -->
<g id="edge22_Node000015_Node000005" class="edge">
<title>Node15&#45;&gt;Node5</title>
<g id="a_edge22_Node000015_Node000005"><a xlink:title=" ">
<path fill="none" stroke="#63b8ff" d="M755.61,-109.98C833.96,-100.5 960.35,-85.21 1042.62,-75.26"/>
<polygon fill="#63b8ff" stroke="#63b8ff" points="1043.17,-78.71 1052.68,-74.04 1042.33,-71.76 1043.17,-78.71"/>
</a>
</g>
</g>
<!-- Node15&#45;&gt;Node7 -->
<g id="edge24_Node000015_Node000007" class="edge">
<title>Node15&#45;&gt;Node7</title>
<g id="a_edge24_Node000015_Node000007"><a xlink:title=" ">
<path fill="none" stroke="#63b8ff" d="M669.21,-109.95C656.82,-102.35 640.59,-89.97 633.24,-74 626.41,-59.17 632.98,-41.28 640.2,-28.27"/>
<polygon fill="#63b8ff" stroke="#63b8ff" points="643.39,-29.77 645.63,-19.41 637.42,-26.11 643.39,-29.77"/>
</a>
</g>
</g>
<!-- Node15&#45;&gt;Node12 -->
<g id="edge26_Node000015_Node000012" class="edge">
<title>Node15&#45;&gt;Node12</title>
<g id="a_edge26_Node000015_Node000012"><a xlink:title=" ">
<path fill="none" stroke="#63b8ff" d="M685.16,-109.61C685.55,-95.75 688.46,-69.12 704.24,-55 711.29,-48.69 823.36,-30.19 893.46,-19.13"/>
<polygon fill="#63b8ff" stroke="#63b8ff" points="894.14,-22.56 903.48,-17.55 893.05,-15.65 894.14,-22.56"/>
</a>
</g>
</g>
<!-- Node15&#45;&gt;Node14 -->
<g id="edge23_Node000015_Node000014" class="edge">
<title>Node15&#45;&gt;Node14</title>
<g id="a_edge23_Node000015_Node000014"><a xlink:title=" ">
<path fill="none" stroke="#63b8ff" d="M724.6,-109.98C771.78,-99.78 850.13,-82.83 895.27,-73.06"/>
<polygon fill="#63b8ff" stroke="#63b8ff" points="896.15,-76.46 905.18,-70.92 894.67,-69.61 896.15,-76.46"/>
</a>
</g>
</g>
<!-- Node16 -->
<g id="Node000016" class="node">
<title>Node16</title>
<g id="a_Node000016"><a xlink:title=" ">
<polygon fill="#e0e0e0" stroke="#999999" points="581.24,-74 537.24,-74 537.24,-55 581.24,-55 581.24,-74"/>
<text text-anchor="middle" x="559.24" y="-62" font-family="Helvetica,sans-Serif" font-size="10.00">vector</text>
</a>
</g>
</g>
<!-- Node15&#45;&gt;Node16 -->
<g id="edge25_Node000015_Node000016" class="edge">
<title>Node15&#45;&gt;Node16</title>
<g id="a_edge25_Node000015_Node000016"><a xlink:title=" ">
<path fill="none" stroke="#63b8ff" d="M664.99,-109.98C644.54,-101.38 612.71,-87.99 589.3,-78.15"/>
<polygon fill="#63b8ff" stroke="#63b8ff" points="590.42,-74.82 579.85,-74.17 587.71,-81.27 590.42,-74.82"/>
</a>
</g>
</g>
<!-- Node17 -->
<g id="Node000017" class="node">
<title>Node17</title>
<g id="a_Node000017"><a xlink:title=" ">
<polygon fill="#e0e0e0" stroke="#999999" points="518.74,-74 339.74,-74 339.74,-55 518.74,-55 518.74,-74"/>
<text text-anchor="middle" x="429.24" y="-62" font-family="Helvetica,sans-Serif" font-size="10.00">NANDRAD_LinearSplineParameter.h</text>
</a>
</g>
</g>
<!-- Node15&#45;&gt;Node17 -->
<g id="edge27_Node000015_Node000017" class="edge">
<title>Node15&#45;&gt;Node17</title>
<g id="a_edge27_Node000015_Node000017"><a xlink:title=" ">
<path fill="none" stroke="#63b8ff" d="M644.11,-109.98C599.64,-100.78 528.69,-86.09 480.59,-76.13"/>
<polygon fill="#63b8ff" stroke="#63b8ff" points="481.19,-72.68 470.69,-74.08 479.77,-79.54 481.19,-72.68"/>
</a>
</g>
</g>
<!-- Node18&#45;&gt;Node3 -->
<g id="edge29_Node000018_Node000003" class="edge">
<title>Node18&#45;&gt;Node3</title>
<g id="a_edge29_Node000018_Node000003"><a xlink:title=" ">
<path fill="none" stroke="#63b8ff" d="M1125.49,-110.22C1052.88,-100.79 934.34,-85.39 857.05,-75.35"/>
<polygon fill="#63b8ff" stroke="#63b8ff" points="857.27,-71.85 846.9,-74.03 856.37,-78.79 857.27,-71.85"/>
</a>
</g>
</g>
<!-- Node18&#45;&gt;Node4 -->
<g id="edge30_Node000018_Node000004" class="edge">
<title>Node18&#45;&gt;Node4</title>
<g id="a_edge30_Node000018_Node000004"><a xlink:title=" ">
<path fill="none" stroke="#63b8ff" d="M1204.31,-109.99C1224.56,-97.53 1256.14,-73.76 1239.24,-55 1214.9,-27.99 963.51,-24.01 896.06,-18.91"/>
<polygon fill="#63b8ff" stroke="#63b8ff" points="896.27,-15.42 885.99,-17.98 895.63,-22.39 896.27,-15.42"/>
</a>
</g>
</g>
<!-- Node18&#45;&gt;Node5 -->
<g id="edge31_Node000018_Node000005" class="edge">
<title>Node18&#45;&gt;Node5</title>
<g id="a_edge31_Node000018_Node000005"><a xlink:title=" ">
<path fill="none" stroke="#63b8ff" d="M1178.63,-109.98C1168.78,-102.07 1153.89,-90.11 1142.02,-80.58"/>
<polygon fill="#63b8ff" stroke="#63b8ff" points="1144.02,-77.7 1134.03,-74.17 1139.64,-83.16 1144.02,-77.7"/>
</a>
</g>
</g>
<!-- Node18&#45;&gt;Node7 -->
<g id="edge34_Node000018_Node000007" class="edge">
<title>Node18&#45;&gt;Node7</title>
<g id="a_edge34_Node000018_Node000007"><a xlink:title=" ">
<path fill="none" stroke="#63b8ff" d="M1195.89,-109.92C1205.47,-96.48 1220.48,-70.43 1206.24,-55 1204.01,-52.59 805.9,-22.17 686.01,-13.06"/>
<polygon fill="#63b8ff" stroke="#63b8ff" points="686.17,-9.56 675.93,-12.3 685.64,-16.54 686.17,-9.56"/>
</a>
</g>
</g>
<!-- Node18&#45;&gt;Node9 -->
<g id="edge32_Node000018_Node000009" class="edge">
<title>Node18&#45;&gt;Node9</title>
<g id="a_edge32_Node000018_Node000009"><a xlink:title=" ">
<path fill="none" stroke="#63b8ff" d="M1214.94,-109.98C1241.69,-101.13 1283.77,-87.19 1313.69,-77.28"/>
<polygon fill="#63b8ff" stroke="#63b8ff" points="1314.94,-80.55 1323.33,-74.08 1312.74,-73.9 1314.94,-80.55"/>
</a>
</g>
</g>
<!-- Node18&#45;&gt;Node14 -->
<g id="edge33_Node000018_Node000014" class="edge">
<title>Node18&#45;&gt;Node14</title>
<g id="a_edge33_Node000018_Node000014"><a xlink:title=" ">
<path fill="none" stroke="#63b8ff" d="M1147.62,-109.98C1097.11,-99.65 1012.81,-82.4 965.39,-72.69"/>
<polygon fill="#63b8ff" stroke="#63b8ff" points="965.8,-69.2 955.3,-70.63 964.39,-76.06 965.8,-69.2"/>
</a>
</g>
</g>
<!-- Node19&#45;&gt;Node5 -->
<g id="edge37_Node000019_Node000005" class="edge">
<title>Node19&#45;&gt;Node5</title>
<g id="a_edge37_Node000019_Node000005"><a xlink:title=" ">
<path fill="none" stroke="#63b8ff" d="M1391.82,-109.98C1335.46,-100.65 1245.05,-85.67 1184.91,-75.71"/>
<polygon fill="#63b8ff" stroke="#63b8ff" points="1185.23,-72.22 1174.79,-74.04 1184.08,-79.13 1185.23,-72.22"/>
</a>
</g>
</g>
<!-- Node20 -->
<g id="Node000020" class="node">
<title>Node20</title>
<g id="a_Node000020"><a xlink:title=" ">
<polygon fill="#e0e0e0" stroke="#999999" points="1460.74,-74 1425.74,-74 1425.74,-55 1460.74,-55 1460.74,-74"/>
<text text-anchor="middle" x="1443.24" y="-62" font-family="Helvetica,sans-Serif" font-size="10.00">map</text>
</a>
</g>
</g>
<!-- Node19&#45;&gt;Node20 -->
<g id="edge36_Node000019_Node000020" class="edge">
<title>Node19&#45;&gt;Node20</title>
<g id="a_edge36_Node000019_Node000020"><a xlink:title=" ">
<path fill="none" stroke="#63b8ff" d="M1443.24,-109.75C1443.24,-102.8 1443.24,-92.85 1443.24,-84.13"/>
<polygon fill="#63b8ff" stroke="#63b8ff" points="1446.74,-84.09 1443.24,-74.09 1439.74,-84.09 1446.74,-84.09"/>
</a>
</g>
</g>
<!-- Node21 -->
<g id="Node000021" class="node">
<title>Node21</title>
<g id="a_Node000021"><a xlink:title=" ">
<polygon fill="#e0e0e0" stroke="#999999" points="1545.74,-74 1478.74,-74 1478.74,-55 1545.74,-55 1545.74,-74"/>
<text text-anchor="middle" x="1512.24" y="-62" font-family="Helvetica,sans-Serif" font-size="10.00">IBK_Path.h</text>
</a>
</g>
</g>
<!-- Node19&#45;&gt;Node21 -->
<g id="edge38_Node000019_Node000021" class="edge">
<title>Node19&#45;&gt;Node21</title>
<g id="a_edge38_Node000019_Node000021"><a xlink:title=" ">
<path fill="none" stroke="#63b8ff" d="M1454.32,-109.98C1464.72,-102 1480.5,-89.88 1492.96,-80.31"/>
<polygon fill="#63b8ff" stroke="#63b8ff" points="1495.15,-83.04 1500.95,-74.17 1490.89,-77.49 1495.15,-83.04"/>
</a>
</g>
</g>
<!-- Node19&#45;&gt;Node22 -->
<g id="edge39_Node000019_Node000022" class="edge">
<title>Node19&#45;&gt;Node22</title>
<g id="a_edge39_Node000019_Node000022"><a xlink:title=" ">
<path fill="none" stroke="#63b8ff" d="M1470.07,-109.98C1498.11,-101.09 1542.28,-87.07 1573.54,-77.15"/>
<polygon fill="#63b8ff" stroke="#63b8ff" points="1574.72,-80.44 1583.2,-74.08 1572.61,-73.77 1574.72,-80.44"/>
</a>
</g>
</g>
<!-- Node19&#45;&gt;Node23 -->
<g id="edge40_Node000019_Node000023" class="edge">
<title>Node19&#45;&gt;Node23</title>
<g id="a_edge40_Node000019_Node000023"><a xlink:title=" ">
<path fill="none" stroke="#63b8ff" d="M1487.54,-110C1530.3,-101.71 1597.12,-88.53 1664.09,-74.2"/>
<polygon fill="#63b8ff" stroke="#63b8ff" points="1664.93,-77.6 1673.97,-72.08 1663.46,-70.76 1664.93,-77.6"/>
</a>
</g>
</g>
<!-- Node24&#45;&gt;Node3 -->
<g id="edge42_Node000024_Node000003" class="edge">
<title>Node24&#45;&gt;Node3</title>
<g id="a_edge42_Node000024_Node000003"><a xlink:title=" ">
<path fill="none" stroke="#63b8ff" d="M418.59,-112.26C489.25,-103.15 621.37,-86.11 705.14,-75.31"/>
<polygon fill="#63b8ff" stroke="#63b8ff" points="705.64,-78.78 715.11,-74.03 704.74,-71.84 705.64,-78.78"/>
</a>
</g>
</g>
<!-- Node24&#45;&gt;Node4 -->
<g id="edge43_Node000024_Node000004" class="edge">
<title>Node24&#45;&gt;Node4</title>
<g id="a_edge43_Node000024_Node000004"><a xlink:title=" ">
<path fill="none" stroke="#63b8ff" d="M322.2,-119.26C240.87,-119.41 81.45,-114.39 46.24,-74 40.69,-67.64 40.44,-61.14 46.24,-55 70.62,-29.2 648.79,-21.02 684.24,-19 711.8,-17.43 742.25,-15.68 768.32,-14.18"/>
<polygon fill="#63b8ff" stroke="#63b8ff" points="768.68,-17.67 778.46,-13.6 768.27,-10.68 768.68,-17.67"/>
</a>
</g>
</g>
<!-- Node24&#45;&gt;Node5 -->
<g id="edge44_Node000024_Node000005" class="edge">
<title>Node24&#45;&gt;Node5</title>
<g id="a_edge44_Node000024_Node000005"><a xlink:title=" ">
<path fill="none" stroke="#63b8ff" d="M418.49,-115.1C543.63,-106.3 879.91,-82.63 1038.39,-71.47"/>
<polygon fill="#63b8ff" stroke="#63b8ff" points="1038.84,-74.95 1048.57,-70.76 1038.35,-67.97 1038.84,-74.95"/>
</a>
</g>
</g>
<!-- Node24&#45;&gt;Node7 -->
<g id="edge46_Node000024_Node000007" class="edge">
<title>Node24&#45;&gt;Node7</title>
<g id="a_edge46_Node000024_Node000007"><a xlink:title=" ">
<path fill="none" stroke="#63b8ff" d="M321.91,-117.37C214.77,-114.03 -29.92,-101.26 13.24,-55 54.74,-10.5 492.36,-9.56 618.43,-10.23"/>
<polygon fill="#63b8ff" stroke="#63b8ff" points="618.62,-13.73 628.64,-10.29 618.66,-6.73 618.62,-13.73"/>
</a>
</g>
</g>
<!-- Node24&#45;&gt;Node12 -->
<g id="edge48_Node000024_Node000012" class="edge">
<title>Node24&#45;&gt;Node12</title>
<g id="a_edge48_Node000024_Node000012"><a xlink:title=" ">
<path fill="none" stroke="#63b8ff" d="M358.08,-109.98C341.07,-97.09 314.01,-72.29 330.24,-55 371.52,-10.99 796.62,-24.6 893.52,-18.69"/>
<polygon fill="#63b8ff" stroke="#63b8ff" points="893.98,-22.16 903.66,-17.87 893.41,-15.19 893.98,-22.16"/>
</a>
</g>
</g>
<!-- Node24&#45;&gt;Node14 -->
<g id="edge45_Node000024_Node000014" class="edge">
<title>Node24&#45;&gt;Node14</title>
<g id="a_edge45_Node000024_Node000014"><a xlink:title=" ">
<path fill="none" stroke="#63b8ff" d="M418.32,-114.5C505.74,-107.15 696.58,-90.69 857.24,-74 869.51,-72.73 882.92,-71.2 894.86,-69.8"/>
<polygon fill="#63b8ff" stroke="#63b8ff" points="895.4,-73.26 904.92,-68.6 894.57,-66.31 895.4,-73.26"/>
</a>
</g>
</g>
<!-- Node24&#45;&gt;Node17 -->
<g id="edge49_Node000024_Node000017" class="edge">
<title>Node24&#45;&gt;Node17</title>
<g id="a_edge49_Node000024_Node000017"><a xlink:title=" ">
<path fill="none" stroke="#63b8ff" d="M379.72,-109.98C388.44,-102.15 401.58,-90.34 412.13,-80.86"/>
<polygon fill="#63b8ff" stroke="#63b8ff" points="414.49,-83.46 419.59,-74.17 409.81,-78.25 414.49,-83.46"/>
</a>
</g>
</g>
<!-- Node25 -->
<g id="Node000025" class="node">
<title>Node25</title>
<g id="a_Node000025"><a xlink:title=" ">
<polygon fill="#e0e0e0" stroke="#999999" points="282.74,-74 189.74,-74 189.74,-55 282.74,-55 282.74,-74"/>
<text text-anchor="middle" x="236.24" y="-62" font-family="Helvetica,sans-Serif" font-size="10.00">QCoreApplication</text>
</a>
</g>
</g>
<!-- Node24&#45;&gt;Node25 -->
<g id="edge47_Node000024_Node000025" class="edge">
<title>Node24&#45;&gt;Node25</title>
<g id="a_edge47_Node000024_Node000025"><a xlink:title=" ">
<path fill="none" stroke="#63b8ff" d="M348.71,-109.98C326.76,-101.3 292.5,-87.75 267.55,-77.88"/>
<polygon fill="#63b8ff" stroke="#63b8ff" points="268.74,-74.59 258.16,-74.17 266.17,-81.1 268.74,-74.59"/>
</a>
</g>
</g>
<!-- Node26 -->
<g id="Node000026" class="node">
<title>Node26</title>
<g id="a_Node000026"><a xlink:title=" ">
<polygon fill="#e0e0e0" stroke="#999999" points="171.24,-74 55.24,-74 55.24,-55 171.24,-55 171.24,-74"/>
<text text-anchor="middle" x="113.24" y="-62" font-family="Helvetica,sans-Serif" font-size="10.00">NANDRAD_Material.h</text>
</a>
</g>
</g>
<!-- Node24&#45;&gt;Node26 -->
<g id="edge50_Node000024_Node000026" class="edge">
<title>Node24&#45;&gt;Node26</title>
<g id="a_edge50_Node000024_Node000026"><a xlink:title=" ">
<path fill="none" stroke="#63b8ff" d="M328.95,-109.98C284.3,-100.78 213.07,-86.09 164.79,-76.13"/>
<polygon fill="#63b8ff" stroke="#63b8ff" points="165.35,-72.67 154.85,-74.08 163.94,-79.53 165.35,-72.67"/>
</a>
</g>
</g>
</g>
</svg>
