<?xml version="1.0" encoding="UTF-8" standalone="no"?>
<!DOCTYPE svg PUBLIC "-//W3C//DTD SVG 1.1//EN"
 "http://www.w3.org/Graphics/SVG/1.1/DTD/svg11.dtd">
<!-- Generated by graphviz version 2.43.0 (0)
 -->
<!-- Title: /home/hirth/git/SIM&#45;VICUS.master2/externals/Vicus/src/ncg/ncg_VICUS_VentilationNatural.cpp Pages: 1 -->
<svg width="1698pt" height="335pt"
 viewBox="0.00 0.00 1698.00 335.00" xmlns="http://www.w3.org/2000/svg" xmlns:xlink="http://www.w3.org/1999/xlink">
<g id="graph0" class="graph" transform="scale(1 1) rotate(0) translate(4 331)">
<title>/home/hirth/git/SIM&#45;VICUS.master2/externals/Vicus/src/ncg/ncg_VICUS_VentilationNatural.cpp</title>
<!-- Node1 -->
<g id="Node000001" class="node">
<title>Node1</title>
<g id="a_Node000001"><a xlink:title=" ">
<polygon fill="#999999" stroke="#666666" points="1378.5,-327 1243.5,-327 1243.5,-275 1378.5,-275 1378.5,-327"/>
<text text-anchor="start" x="1251.5" y="-315" font-family="Helvetica,sans-Serif" font-size="10.00">/home/hirth/git/SIM</text>
<text text-anchor="start" x="1251.5" y="-304" font-family="Helvetica,sans-Serif" font-size="10.00">&#45;VICUS.master2/externals</text>
<text text-anchor="start" x="1251.5" y="-293" font-family="Helvetica,sans-Serif" font-size="10.00">/Vicus/src/ncg/ncg_VICUS</text>
<text text-anchor="middle" x="1311" y="-282" font-family="Helvetica,sans-Serif" font-size="10.00">_VentilationNatural.cpp</text>
</a>
</g>
</g>
<!-- Node2 -->
<g id="Node000002" class="node">
<title>Node2</title>
<g id="a_Node000002"><a xlink:href="_v_i_c_u_s___ventilation_natural_8h.html" target="_top" xlink:title=" ">
<polygon fill="white" stroke="#666666" points="761.5,-239 622.5,-239 622.5,-220 761.5,-220 761.5,-239"/>
<text text-anchor="middle" x="692" y="-227" font-family="Helvetica,sans-Serif" font-size="10.00">VICUS_VentilationNatural.h</text>
</a>
</g>
</g>
<!-- Node1&#45;&gt;Node2 -->
<g id="edge1_Node000001_Node000002" class="edge">
<title>Node1&#45;&gt;Node2</title>
<g id="a_edge1_Node000001_Node000002"><a xlink:title=" ">
<path fill="none" stroke="#63b8ff" d="M1243.28,-292.4C1128.1,-279.46 894.6,-253.25 771.72,-239.45"/>
<polygon fill="#63b8ff" stroke="#63b8ff" points="771.95,-235.96 761.63,-238.32 771.17,-242.91 771.95,-235.96"/>
</a>
</g>
</g>
<!-- Node6 -->
<g id="Node000006" class="node">
<title>Node6</title>
<g id="a_Node000006"><a xlink:href="_v_i_c_u_s___constants_8h.html" target="_top" xlink:title="Contains global constants for the SIM&#45;VICUS data model.">
<polygon fill="white" stroke="#666666" points="950.5,-19 843.5,-19 843.5,0 950.5,0 950.5,-19"/>
<text text-anchor="middle" x="897" y="-7" font-family="Helvetica,sans-Serif" font-size="10.00">VICUS_Constants.h</text>
</a>
</g>
</g>
<!-- Node1&#45;&gt;Node6 -->
<g id="edge41_Node000001_Node000006" class="edge">
<title>Node1&#45;&gt;Node6</title>
<g id="a_edge41_Node000001_Node000006"><a xlink:title=" ">
<path fill="none" stroke="#63b8ff" d="M1304.88,-274.9C1299.33,-249.87 1292,-210.27 1292,-175.5 1292,-175.5 1292,-175.5 1292,-118.5 1292,-50.68 1072.6,-23.96 960.83,-14.75"/>
<polygon fill="#63b8ff" stroke="#63b8ff" points="960.93,-11.25 950.68,-13.94 960.37,-18.23 960.93,-11.25"/>
</a>
</g>
</g>
<!-- Node12 -->
<g id="Node000012" class="node">
<title>Node12</title>
<g id="a_Node000012"><a xlink:title=" ">
<polygon fill="#e0e0e0" stroke="#999999" points="92,-129 0,-129 0,-110 92,-110 92,-129"/>
<text text-anchor="middle" x="46" y="-117" font-family="Helvetica,sans-Serif" font-size="10.00">IBK_messages.h</text>
</a>
</g>
</g>
<!-- Node1&#45;&gt;Node12 -->
<g id="edge38_Node000001_Node000012" class="edge">
<title>Node1&#45;&gt;Node12</title>
<g id="a_edge38_Node000001_Node000012"><a xlink:title=" ">
<path fill="none" stroke="#63b8ff" d="M1243.44,-299.29C1044.12,-296.68 461.01,-285.19 277,-239 192.82,-217.87 104.58,-161.48 66.02,-134.83"/>
<polygon fill="#63b8ff" stroke="#63b8ff" points="67.93,-131.9 57.73,-129.03 63.91,-137.63 67.93,-131.9"/>
</a>
</g>
</g>
<!-- Node13 -->
<g id="Node000013" class="node">
<title>Node13</title>
<g id="a_Node000013"><a xlink:title=" ">
<polygon fill="#e0e0e0" stroke="#999999" points="166,-129 110,-129 110,-110 166,-110 166,-129"/>
<text text-anchor="middle" x="138" y="-117" font-family="Helvetica,sans-Serif" font-size="10.00">tinyxml.h</text>
</a>
</g>
</g>
<!-- Node1&#45;&gt;Node13 -->
<g id="edge43_Node000001_Node000013" class="edge">
<title>Node1&#45;&gt;Node13</title>
<g id="a_edge43_Node000001_Node000013"><a xlink:title=" ">
<path fill="none" stroke="#63b8ff" d="M1243.33,-300.41C1028.16,-300.6 363.29,-292.22 183,-184 165.49,-173.49 152.97,-153.26 145.65,-138.45"/>
<polygon fill="#63b8ff" stroke="#63b8ff" points="148.78,-136.87 141.42,-129.25 142.42,-139.79 148.78,-136.87"/>
</a>
</g>
</g>
<!-- Node22 -->
<g id="Node000022" class="node">
<title>Node22</title>
<g id="a_Node000022"><a xlink:href="_v_i_c_u_s___keyword_list_8h.html" target="_top" xlink:title="Contains the declaration of class KeywordList.">
<polygon fill="white" stroke="#666666" points="1436,-184 1320,-184 1320,-165 1436,-165 1436,-184"/>
<text text-anchor="middle" x="1378" y="-172" font-family="Helvetica,sans-Serif" font-size="10.00">VICUS_KeywordList.h</text>
</a>
</g>
</g>
<!-- Node1&#45;&gt;Node22 -->
<g id="edge33_Node000001_Node000022" class="edge">
<title>Node1&#45;&gt;Node22</title>
<g id="a_edge33_Node000001_Node000022"><a xlink:title=" ">
<path fill="none" stroke="#63b8ff" d="M1321.97,-274.7C1329.14,-258.74 1339.01,-237.84 1349,-220 1354.24,-210.65 1360.7,-200.61 1366.19,-192.44"/>
<polygon fill="#63b8ff" stroke="#63b8ff" points="1369.11,-194.38 1371.87,-184.15 1363.33,-190.43 1369.11,-194.38"/>
</a>
</g>
</g>
<!-- Node25 -->
<g id="Node000025" class="node">
<title>Node25</title>
<g id="a_Node000025"><a xlink:title=" ">
<polygon fill="#e0e0e0" stroke="#999999" points="1448,-239 1358,-239 1358,-220 1448,-220 1448,-239"/>
<text text-anchor="middle" x="1403" y="-227" font-family="Helvetica,sans-Serif" font-size="10.00">IBK_Exception.h</text>
</a>
</g>
</g>
<!-- Node1&#45;&gt;Node25 -->
<g id="edge39_Node000001_Node000025" class="edge">
<title>Node1&#45;&gt;Node25</title>
<g id="a_edge39_Node000001_Node000025"><a xlink:title=" ">
<path fill="none" stroke="#63b8ff" d="M1344.21,-274.91C1357.34,-264.99 1371.97,-253.94 1383.36,-245.34"/>
<polygon fill="#63b8ff" stroke="#63b8ff" points="1385.48,-248.12 1391.35,-239.3 1381.26,-242.54 1385.48,-248.12"/>
</a>
</g>
</g>
<!-- Node26 -->
<g id="Node000026" class="node">
<title>Node26</title>
<g id="a_Node000026"><a xlink:title=" ">
<polygon fill="#e0e0e0" stroke="#999999" points="1558,-239 1466,-239 1466,-220 1558,-220 1558,-239"/>
<text text-anchor="middle" x="1512" y="-227" font-family="Helvetica,sans-Serif" font-size="10.00">IBK_StringUtils.h</text>
</a>
</g>
</g>
<!-- Node1&#45;&gt;Node26 -->
<g id="edge40_Node000001_Node000026" class="edge">
<title>Node1&#45;&gt;Node26</title>
<g id="a_edge40_Node000001_Node000026"><a xlink:title=" ">
<path fill="none" stroke="#63b8ff" d="M1378.77,-276.57C1411.92,-265.11 1450.4,-251.8 1477.45,-242.44"/>
<polygon fill="#63b8ff" stroke="#63b8ff" points="1478.92,-245.64 1487.23,-239.06 1476.64,-239.02 1478.92,-245.64"/>
</a>
</g>
</g>
<!-- Node27 -->
<g id="Node000027" class="node">
<title>Node27</title>
<g id="a_Node000027"><a xlink:title=" ">
<polygon fill="#e0e0e0" stroke="#999999" points="1690,-239 1576,-239 1576,-220 1690,-220 1690,-239"/>
<text text-anchor="middle" x="1633" y="-227" font-family="Helvetica,sans-Serif" font-size="10.00">NANDRAD_Utilities.h</text>
</a>
</g>
</g>
<!-- Node1&#45;&gt;Node27 -->
<g id="edge42_Node000001_Node000027" class="edge">
<title>Node1&#45;&gt;Node27</title>
<g id="a_edge42_Node000001_Node000027"><a xlink:title=" ">
<path fill="none" stroke="#63b8ff" d="M1378.5,-285.43C1439.79,-272.2 1528.73,-253.01 1583.61,-241.16"/>
<polygon fill="#63b8ff" stroke="#63b8ff" points="1584.41,-244.57 1593.45,-239.04 1582.93,-237.73 1584.41,-244.57"/>
</a>
</g>
</g>
<!-- Node3 -->
<g id="Node000003" class="node">
<title>Node3</title>
<g id="a_Node000003"><a xlink:title=" ">
<polygon fill="#e0e0e0" stroke="#999999" points="417.5,-74 370.5,-74 370.5,-55 417.5,-55 417.5,-74"/>
<text text-anchor="middle" x="394" y="-62" font-family="Helvetica,sans-Serif" font-size="10.00">QColor</text>
</a>
</g>
</g>
<!-- Node2&#45;&gt;Node3 -->
<g id="edge2_Node000002_Node000003" class="edge">
<title>Node2&#45;&gt;Node3</title>
<g id="a_edge2_Node000002_Node000003"><a xlink:title=" ">
<path fill="none" stroke="#63b8ff" d="M622.27,-227.51C550.75,-222.31 442.74,-201.9 390,-129 380.7,-116.15 383.09,-97.73 386.99,-84.04"/>
<polygon fill="#63b8ff" stroke="#63b8ff" points="390.4,-84.86 390.24,-74.27 383.76,-82.65 390.4,-84.86"/>
</a>
</g>
</g>
<!-- Node4 -->
<g id="Node000004" class="node">
<title>Node4</title>
<g id="a_Node000004"><a xlink:title=" ">
<polygon fill="#e0e0e0" stroke="#999999" points="1263.5,-129 1172.5,-129 1172.5,-110 1263.5,-110 1263.5,-129"/>
<text text-anchor="middle" x="1218" y="-117" font-family="Helvetica,sans-Serif" font-size="10.00">IBK_Parameter.h</text>
</a>
</g>
</g>
<!-- Node2&#45;&gt;Node4 -->
<g id="edge3_Node000002_Node000004" class="edge">
<title>Node2&#45;&gt;Node4</title>
<g id="a_edge3_Node000002_Node000004"><a xlink:title=" ">
<path fill="none" stroke="#63b8ff" d="M734.99,-219.99C779.73,-211.11 851.81,-196.73 914,-184 1003.38,-165.71 1107.42,-143.85 1167.69,-131.14"/>
<polygon fill="#63b8ff" stroke="#63b8ff" points="1168.64,-134.52 1177.7,-129.03 1167.19,-127.67 1168.64,-134.52"/>
</a>
</g>
</g>
<!-- Node5 -->
<g id="Node000005" class="node">
<title>Node5</title>
<g id="a_Node000005"><a xlink:href="_v_i_c_u_s___code_gen_macros_8h.html" target="_top" xlink:title=" ">
<polygon fill="white" stroke="#666666" points="646.5,-19 511.5,-19 511.5,0 646.5,0 646.5,-19"/>
<text text-anchor="middle" x="579" y="-7" font-family="Helvetica,sans-Serif" font-size="10.00">VICUS_CodeGenMacros.h</text>
</a>
</g>
</g>
<!-- Node2&#45;&gt;Node5 -->
<g id="edge4_Node000002_Node000005" class="edge">
<title>Node2&#45;&gt;Node5</title>
<g id="a_edge4_Node000002_Node000005"><a xlink:title=" ">
<path fill="none" stroke="#63b8ff" d="M622.26,-222.65C554.1,-215.94 455.93,-203.29 423,-184 374.77,-155.74 370.35,-129.28 362,-74 360.74,-65.65 356.66,-61.54 362,-55 379.56,-33.47 446.44,-22.07 501.37,-16.22"/>
<polygon fill="#63b8ff" stroke="#63b8ff" points="501.87,-19.68 511.47,-15.19 501.16,-12.72 501.87,-19.68"/>
</a>
</g>
</g>
<!-- Node2&#45;&gt;Node6 -->
<g id="edge5_Node000002_Node000006" class="edge">
<title>Node2&#45;&gt;Node6</title>
<g id="a_edge5_Node000002_Node000006"><a xlink:title=" ">
<path fill="none" stroke="#63b8ff" d="M696.56,-219.74C708.24,-198.11 741.33,-141.65 784,-110 819.93,-83.35 847.57,-106.8 878,-74 889.25,-61.87 893.86,-43.34 895.73,-29.42"/>
<polygon fill="#63b8ff" stroke="#63b8ff" points="899.26,-29.35 896.75,-19.06 892.29,-28.67 899.26,-29.35"/>
</a>
</g>
</g>
<!-- Node7 -->
<g id="Node000007" class="node">
<title>Node7</title>
<g id="a_Node000007"><a xlink:href="_v_i_c_u_s___abstract_d_b_element_8h.html" target="_top" xlink:title=" ">
<polygon fill="white" stroke="#666666" points="547.5,-129 398.5,-129 398.5,-110 547.5,-110 547.5,-129"/>
<text text-anchor="middle" x="473" y="-117" font-family="Helvetica,sans-Serif" font-size="10.00">VICUS_AbstractDBElement.h</text>
</a>
</g>
</g>
<!-- Node2&#45;&gt;Node7 -->
<g id="edge6_Node000002_Node000007" class="edge">
<title>Node2&#45;&gt;Node7</title>
<g id="a_edge6_Node000002_Node000007"><a xlink:title=" ">
<path fill="none" stroke="#63b8ff" d="M674.45,-219.84C636.15,-200.96 544.9,-155.96 499.54,-133.59"/>
<polygon fill="#63b8ff" stroke="#63b8ff" points="500.85,-130.33 490.33,-129.05 497.75,-136.61 500.85,-130.33"/>
</a>
</g>
</g>
<!-- Node9 -->
<g id="Node000009" class="node">
<title>Node9</title>
<g id="a_Node000009"><a xlink:href="_v_i_c_u_s___database_8h.html" target="_top" xlink:title=" ">
<polygon fill="white" stroke="#666666" points="296,-184 192,-184 192,-165 296,-165 296,-184"/>
<text text-anchor="middle" x="244" y="-172" font-family="Helvetica,sans-Serif" font-size="10.00">VICUS_Database.h</text>
</a>
</g>
</g>
<!-- Node2&#45;&gt;Node9 -->
<g id="edge10_Node000002_Node000009" class="edge">
<title>Node2&#45;&gt;Node9</title>
<g id="a_edge10_Node000002_Node000009"><a xlink:title=" ">
<path fill="none" stroke="#63b8ff" d="M622.49,-220.28C535.9,-210.03 389.27,-192.69 306.22,-182.86"/>
<polygon fill="#63b8ff" stroke="#63b8ff" points="306.51,-179.37 296.17,-181.67 305.69,-186.32 306.51,-179.37"/>
</a>
</g>
</g>
<!-- Node14 -->
<g id="Node000014" class="node">
<title>Node14</title>
<g id="a_Node000014"><a xlink:href="_v_i_c_u_s___schedule_8h.html" target="_top" xlink:title=" ">
<polygon fill="white" stroke="#666666" points="905,-184 803,-184 803,-165 905,-165 905,-184"/>
<text text-anchor="middle" x="854" y="-172" font-family="Helvetica,sans-Serif" font-size="10.00">VICUS_Schedule.h</text>
</a>
</g>
</g>
<!-- Node2&#45;&gt;Node14 -->
<g id="edge16_Node000002_Node000014" class="edge">
<title>Node2&#45;&gt;Node14</title>
<g id="a_edge16_Node000002_Node000014"><a xlink:title=" ">
<path fill="none" stroke="#63b8ff" d="M718.03,-219.98C745.11,-211.13 787.71,-197.19 818.01,-187.28"/>
<polygon fill="#63b8ff" stroke="#63b8ff" points="819.35,-190.52 827.77,-184.08 817.18,-183.87 819.35,-190.52"/>
</a>
</g>
</g>
<!-- Node7&#45;&gt;Node3 -->
<g id="edge8_Node000007_Node000003" class="edge">
<title>Node7&#45;&gt;Node3</title>
<g id="a_edge8_Node000007_Node000003"><a xlink:title=" ">
<path fill="none" stroke="#63b8ff" d="M460.31,-109.98C448.17,-101.84 429.64,-89.41 415.25,-79.76"/>
<polygon fill="#63b8ff" stroke="#63b8ff" points="417.18,-76.84 406.92,-74.17 413.28,-82.65 417.18,-76.84"/>
</a>
</g>
</g>
<!-- Node7&#45;&gt;Node6 -->
<g id="edge9_Node000007_Node000006" class="edge">
<title>Node7&#45;&gt;Node6</title>
<g id="a_edge9_Node000007_Node000006"><a xlink:title=" ">
<path fill="none" stroke="#63b8ff" d="M506.62,-109.94C582.85,-90.52 768.75,-43.17 853.55,-21.57"/>
<polygon fill="#63b8ff" stroke="#63b8ff" points="854.54,-24.93 863.37,-19.07 852.82,-18.14 854.54,-24.93"/>
</a>
</g>
</g>
<!-- Node8 -->
<g id="Node000008" class="node">
<title>Node8</title>
<g id="a_Node000008"><a xlink:title=" ">
<polygon fill="#e0e0e0" stroke="#999999" points="626.5,-74 491.5,-74 491.5,-55 626.5,-55 626.5,-74"/>
<text text-anchor="middle" x="559" y="-62" font-family="Helvetica,sans-Serif" font-size="10.00">IBK_MultiLanguageString.h</text>
</a>
</g>
</g>
<!-- Node7&#45;&gt;Node8 -->
<g id="edge7_Node000007_Node000008" class="edge">
<title>Node7&#45;&gt;Node8</title>
<g id="a_edge7_Node000007_Node000008"><a xlink:title=" ">
<path fill="none" stroke="#63b8ff" d="M486.82,-109.98C500.15,-101.77 520.58,-89.18 536.31,-79.49"/>
<polygon fill="#63b8ff" stroke="#63b8ff" points="538.25,-82.4 544.93,-74.17 534.58,-76.44 538.25,-82.4"/>
</a>
</g>
</g>
<!-- Node9&#45;&gt;Node7 -->
<g id="edge12_Node000009_Node000007" class="edge">
<title>Node9&#45;&gt;Node7</title>
<g id="a_edge12_Node000009_Node000007"><a xlink:title=" ">
<path fill="none" stroke="#63b8ff" d="M280.79,-164.98C320.24,-155.86 382.98,-141.33 425.98,-131.38"/>
<polygon fill="#63b8ff" stroke="#63b8ff" points="426.97,-134.75 435.92,-129.08 425.39,-127.93 426.97,-134.75"/>
</a>
</g>
</g>
<!-- Node10 -->
<g id="Node000010" class="node">
<title>Node10</title>
<g id="a_Node000010"><a xlink:title=" ">
<polygon fill="#e0e0e0" stroke="#999999" points="304.5,-129 269.5,-129 269.5,-110 304.5,-110 304.5,-129"/>
<text text-anchor="middle" x="287" y="-117" font-family="Helvetica,sans-Serif" font-size="10.00">map</text>
</a>
</g>
</g>
<!-- Node9&#45;&gt;Node10 -->
<g id="edge11_Node000009_Node000010" class="edge">
<title>Node9&#45;&gt;Node10</title>
<g id="a_edge11_Node000009_Node000010"><a xlink:title=" ">
<path fill="none" stroke="#63b8ff" d="M251.1,-164.75C257.17,-157.26 266.09,-146.28 273.51,-137.13"/>
<polygon fill="#63b8ff" stroke="#63b8ff" points="276.45,-139.06 280.03,-129.09 271.01,-134.65 276.45,-139.06"/>
</a>
</g>
</g>
<!-- Node11 -->
<g id="Node000011" class="node">
<title>Node11</title>
<g id="a_Node000011"><a xlink:title=" ">
<polygon fill="#e0e0e0" stroke="#999999" points="251.5,-129 184.5,-129 184.5,-110 251.5,-110 251.5,-129"/>
<text text-anchor="middle" x="218" y="-117" font-family="Helvetica,sans-Serif" font-size="10.00">IBK_Path.h</text>
</a>
</g>
</g>
<!-- Node9&#45;&gt;Node11 -->
<g id="edge13_Node000009_Node000011" class="edge">
<title>Node9&#45;&gt;Node11</title>
<g id="a_edge13_Node000009_Node000011"><a xlink:title=" ">
<path fill="none" stroke="#63b8ff" d="M239.71,-164.75C236.19,-157.57 231.09,-147.18 226.72,-138.27"/>
<polygon fill="#63b8ff" stroke="#63b8ff" points="229.76,-136.53 222.21,-129.09 223.48,-139.61 229.76,-136.53"/>
</a>
</g>
</g>
<!-- Node9&#45;&gt;Node12 -->
<g id="edge14_Node000009_Node000012" class="edge">
<title>Node9&#45;&gt;Node12</title>
<g id="a_edge14_Node000009_Node000012"><a xlink:title=" ">
<path fill="none" stroke="#63b8ff" d="M212.19,-164.98C178.51,-155.97 125.2,-141.7 88.08,-131.76"/>
<polygon fill="#63b8ff" stroke="#63b8ff" points="88.63,-128.29 78.06,-129.08 86.82,-135.05 88.63,-128.29"/>
</a>
</g>
</g>
<!-- Node9&#45;&gt;Node13 -->
<g id="edge15_Node000009_Node000013" class="edge">
<title>Node9&#45;&gt;Node13</title>
<g id="a_edge15_Node000009_Node000013"><a xlink:title=" ">
<path fill="none" stroke="#63b8ff" d="M226.97,-164.98C210.07,-156.54 183.94,-143.47 164.36,-133.68"/>
<polygon fill="#63b8ff" stroke="#63b8ff" points="165.85,-130.51 155.34,-129.17 162.72,-136.77 165.85,-130.51"/>
</a>
</g>
</g>
<!-- Node14&#45;&gt;Node4 -->
<g id="edge19_Node000014_Node000004" class="edge">
<title>Node14&#45;&gt;Node4</title>
<g id="a_edge19_Node000014_Node000004"><a xlink:title=" ">
<path fill="none" stroke="#63b8ff" d="M905.05,-166.39C964.47,-158.06 1065.85,-143.71 1162.41,-129.22"/>
<polygon fill="#63b8ff" stroke="#63b8ff" points="1162.97,-132.68 1172.34,-127.73 1161.93,-125.76 1162.97,-132.68"/>
</a>
</g>
</g>
<!-- Node14&#45;&gt;Node5 -->
<g id="edge21_Node000014_Node000005" class="edge">
<title>Node14&#45;&gt;Node5</title>
<g id="a_edge21_Node000014_Node000005"><a xlink:title=" ">
<path fill="none" stroke="#63b8ff" d="M802.55,-169.35C749.27,-163.99 664.16,-152.4 594,-129 576.46,-123.15 573.53,-118.27 557,-110 524.29,-93.65 502.4,-105.01 483,-74 467.59,-49.36 500.68,-32.22 532.13,-22.01"/>
<polygon fill="#63b8ff" stroke="#63b8ff" points="533.24,-25.33 541.79,-19.07 531.2,-18.64 533.24,-25.33"/>
</a>
</g>
</g>
<!-- Node14&#45;&gt;Node6 -->
<g id="edge22_Node000014_Node000006" class="edge">
<title>Node14&#45;&gt;Node6</title>
<g id="a_edge22_Node000014_Node000006"><a xlink:title=" ">
<path fill="none" stroke="#63b8ff" d="M878.81,-164.95C894.84,-157.99 914.43,-146.42 924,-129 942.03,-96.17 922.07,-51.88 908.14,-27.82"/>
<polygon fill="#63b8ff" stroke="#63b8ff" points="911.02,-25.83 902.84,-19.11 905.04,-29.47 911.02,-25.83"/>
</a>
</g>
</g>
<!-- Node14&#45;&gt;Node7 -->
<g id="edge32_Node000014_Node000007" class="edge">
<title>Node14&#45;&gt;Node7</title>
<g id="a_edge32_Node000014_Node000007"><a xlink:title=" ">
<path fill="none" stroke="#63b8ff" d="M802.62,-166.35C736.08,-157.1 619.75,-140.91 544.58,-130.46"/>
<polygon fill="#63b8ff" stroke="#63b8ff" points="544.64,-126.93 534.26,-129.02 543.68,-133.87 544.64,-126.93"/>
</a>
</g>
</g>
<!-- Node15 -->
<g id="Node000015" class="node">
<title>Node15</title>
<g id="a_Node000015"><a xlink:title=" ">
<polygon fill="#e0e0e0" stroke="#999999" points="1071,-129 971,-129 971,-110 1071,-110 1071,-129"/>
<text text-anchor="middle" x="1021" y="-117" font-family="Helvetica,sans-Serif" font-size="10.00">IBK_LinearSpline.h</text>
</a>
</g>
</g>
<!-- Node14&#45;&gt;Node15 -->
<g id="edge17_Node000014_Node000015" class="edge">
<title>Node14&#45;&gt;Node15</title>
<g id="a_edge17_Node000014_Node000015"><a xlink:title=" ">
<path fill="none" stroke="#63b8ff" d="M880.83,-164.98C908.87,-156.09 953.05,-142.07 984.3,-132.15"/>
<polygon fill="#63b8ff" stroke="#63b8ff" points="985.49,-135.44 993.96,-129.08 983.37,-128.77 985.49,-135.44"/>
</a>
</g>
</g>
<!-- Node16 -->
<g id="Node000016" class="node">
<title>Node16</title>
<g id="a_Node000016"><a xlink:title=" ">
<polygon fill="#e0e0e0" stroke="#999999" points="1154.5,-129 1089.5,-129 1089.5,-110 1154.5,-110 1154.5,-129"/>
<text text-anchor="middle" x="1122" y="-117" font-family="Helvetica,sans-Serif" font-size="10.00">IBK_Flag.h</text>
</a>
</g>
</g>
<!-- Node14&#45;&gt;Node16 -->
<g id="edge18_Node000014_Node000016" class="edge">
<title>Node14&#45;&gt;Node16</title>
<g id="a_edge18_Node000014_Node000016"><a xlink:title=" ">
<path fill="none" stroke="#63b8ff" d="M897.76,-164.95C941.25,-156.45 1010.13,-142.93 1079.64,-129.06"/>
<polygon fill="#63b8ff" stroke="#63b8ff" points="1080.32,-132.5 1089.44,-127.11 1078.95,-125.63 1080.32,-132.5"/>
</a>
</g>
</g>
<!-- Node17 -->
<g id="Node000017" class="node">
<title>Node17</title>
<g id="a_Node000017"><a xlink:title=" ">
<polygon fill="#e0e0e0" stroke="#999999" points="915,-129 793,-129 793,-110 915,-110 915,-129"/>
<text text-anchor="middle" x="854" y="-117" font-family="Helvetica,sans-Serif" font-size="10.00">NANDRAD_Schedule.h</text>
</a>
</g>
</g>
<!-- Node14&#45;&gt;Node17 -->
<g id="edge20_Node000014_Node000017" class="edge">
<title>Node14&#45;&gt;Node17</title>
<g id="a_edge20_Node000014_Node000017"><a xlink:title=" ">
<path fill="none" stroke="#63b8ff" d="M854,-164.75C854,-157.8 854,-147.85 854,-139.13"/>
<polygon fill="#63b8ff" stroke="#63b8ff" points="857.5,-139.09 854,-129.09 850.5,-139.09 857.5,-139.09"/>
</a>
</g>
</g>
<!-- Node18 -->
<g id="Node000018" class="node">
<title>Node18</title>
<g id="a_Node000018"><a xlink:href="_v_i_c_u_s___schedule_interval_8h.html" target="_top" xlink:title=" ">
<polygon fill="white" stroke="#666666" points="737,-129 603,-129 603,-110 737,-110 737,-129"/>
<text text-anchor="middle" x="670" y="-117" font-family="Helvetica,sans-Serif" font-size="10.00">VICUS_ScheduleInterval.h</text>
</a>
</g>
</g>
<!-- Node14&#45;&gt;Node18 -->
<g id="edge23_Node000014_Node000018" class="edge">
<title>Node14&#45;&gt;Node18</title>
<g id="a_edge23_Node000014_Node000018"><a xlink:title=" ">
<path fill="none" stroke="#63b8ff" d="M824.44,-164.98C793.28,-156.01 744.03,-141.82 709.54,-131.89"/>
<polygon fill="#63b8ff" stroke="#63b8ff" points="710.37,-128.49 699.79,-129.08 708.43,-135.21 710.37,-128.49"/>
</a>
</g>
</g>
<!-- Node18&#45;&gt;Node5 -->
<g id="edge25_Node000018_Node000005" class="edge">
<title>Node18&#45;&gt;Node5</title>
<g id="a_edge25_Node000018_Node000005"><a xlink:title=" ">
<path fill="none" stroke="#63b8ff" d="M666.62,-109.59C661.42,-96.62 650.5,-72.22 636,-55 626.17,-43.33 612.83,-32.71 601.53,-24.78"/>
<polygon fill="#63b8ff" stroke="#63b8ff" points="603.25,-21.72 593.01,-19.02 599.33,-27.52 603.25,-21.72"/>
</a>
</g>
</g>
<!-- Node18&#45;&gt;Node8 -->
<g id="edge24_Node000018_Node000008" class="edge">
<title>Node18&#45;&gt;Node8</title>
<g id="a_edge24_Node000018_Node000008"><a xlink:title=" ">
<path fill="none" stroke="#63b8ff" d="M652.17,-109.98C634.39,-101.5 606.85,-88.35 586.32,-78.54"/>
<polygon fill="#63b8ff" stroke="#63b8ff" points="587.69,-75.32 577.16,-74.17 584.67,-81.64 587.69,-75.32"/>
</a>
</g>
</g>
<!-- Node19 -->
<g id="Node000019" class="node">
<title>Node19</title>
<g id="a_Node000019"><a xlink:title=" ">
<polygon fill="#e0e0e0" stroke="#999999" points="789,-19 745,-19 745,0 789,0 789,-19"/>
<text text-anchor="middle" x="767" y="-7" font-family="Helvetica,sans-Serif" font-size="10.00">vector</text>
</a>
</g>
</g>
<!-- Node18&#45;&gt;Node19 -->
<g id="edge26_Node000018_Node000019" class="edge">
<title>Node18&#45;&gt;Node19</title>
<g id="a_edge26_Node000018_Node000019"><a xlink:title=" ">
<path fill="none" stroke="#63b8ff" d="M677.94,-109.66C694.22,-91.54 731.6,-49.91 752.39,-26.77"/>
<polygon fill="#63b8ff" stroke="#63b8ff" points="755.15,-28.94 759.22,-19.16 749.94,-24.26 755.15,-28.94"/>
</a>
</g>
</g>
<!-- Node20 -->
<g id="Node000020" class="node">
<title>Node20</title>
<g id="a_Node000020"><a xlink:href="_v_i_c_u_s___daily_cycle_8h.html" target="_top" xlink:title=" ">
<polygon fill="white" stroke="#666666" points="869,-74 759,-74 759,-55 869,-55 869,-74"/>
<text text-anchor="middle" x="814" y="-62" font-family="Helvetica,sans-Serif" font-size="10.00">VICUS_DailyCycle.h</text>
</a>
</g>
</g>
<!-- Node18&#45;&gt;Node20 -->
<g id="edge27_Node000018_Node000020" class="edge">
<title>Node18&#45;&gt;Node20</title>
<g id="a_edge27_Node000018_Node000020"><a xlink:title=" ">
<path fill="none" stroke="#63b8ff" d="M693.14,-109.98C716.82,-101.27 753.87,-87.63 780.71,-77.75"/>
<polygon fill="#63b8ff" stroke="#63b8ff" points="782.27,-80.91 790.44,-74.17 779.85,-74.34 782.27,-80.91"/>
</a>
</g>
</g>
<!-- Node20&#45;&gt;Node5 -->
<g id="edge28_Node000020_Node000005" class="edge">
<title>Node20&#45;&gt;Node5</title>
<g id="a_edge28_Node000020_Node000005"><a xlink:title=" ">
<path fill="none" stroke="#63b8ff" d="M776.24,-54.98C735.68,-45.84 671.11,-31.27 626.97,-21.32"/>
<polygon fill="#63b8ff" stroke="#63b8ff" points="627.58,-17.87 617.05,-19.08 626.04,-24.7 627.58,-17.87"/>
</a>
</g>
</g>
<!-- Node20&#45;&gt;Node6 -->
<g id="edge29_Node000020_Node000006" class="edge">
<title>Node20&#45;&gt;Node6</title>
<g id="a_edge29_Node000020_Node000006"><a xlink:title=" ">
<path fill="none" stroke="#63b8ff" d="M827.34,-54.98C840.09,-46.84 859.55,-34.41 874.67,-24.76"/>
<polygon fill="#63b8ff" stroke="#63b8ff" points="876.88,-27.5 883.42,-19.17 873.11,-21.6 876.88,-27.5"/>
</a>
</g>
</g>
<!-- Node20&#45;&gt;Node19 -->
<g id="edge30_Node000020_Node000019" class="edge">
<title>Node20&#45;&gt;Node19</title>
<g id="a_edge30_Node000020_Node000019"><a xlink:title=" ">
<path fill="none" stroke="#63b8ff" d="M806.24,-54.75C799.53,-47.18 789.66,-36.05 781.49,-26.84"/>
<polygon fill="#63b8ff" stroke="#63b8ff" points="783.87,-24.25 774.62,-19.09 778.63,-28.89 783.87,-24.25"/>
</a>
</g>
</g>
<!-- Node21 -->
<g id="Node000021" class="node">
<title>Node21</title>
<g id="a_Node000021"><a xlink:title=" ">
<polygon fill="#e0e0e0" stroke="#999999" points="1262.5,-19 1221.5,-19 1221.5,0 1262.5,0 1262.5,-19"/>
<text text-anchor="middle" x="1242" y="-7" font-family="Helvetica,sans-Serif" font-size="10.00">string</text>
</a>
</g>
</g>
<!-- Node20&#45;&gt;Node21 -->
<g id="edge31_Node000020_Node000021" class="edge">
<title>Node20&#45;&gt;Node21</title>
<g id="a_edge31_Node000020_Node000021"><a xlink:title=" ">
<path fill="none" stroke="#63b8ff" d="M869.08,-56.68C960.13,-45.4 1139.12,-23.24 1211.02,-14.34"/>
<polygon fill="#63b8ff" stroke="#63b8ff" points="1211.73,-17.78 1221.22,-13.07 1210.87,-10.83 1211.73,-17.78"/>
</a>
</g>
</g>
<!-- Node22&#45;&gt;Node4 -->
<g id="edge36_Node000022_Node000004" class="edge">
<title>Node22&#45;&gt;Node4</title>
<g id="a_edge36_Node000022_Node000004"><a xlink:title=" ">
<path fill="none" stroke="#63b8ff" d="M1352.29,-164.98C1325.55,-156.13 1283.47,-142.19 1253.55,-132.28"/>
<polygon fill="#63b8ff" stroke="#63b8ff" points="1254.5,-128.9 1243.91,-129.08 1252.3,-135.55 1254.5,-128.9"/>
</a>
</g>
</g>
<!-- Node22&#45;&gt;Node21 -->
<g id="edge34_Node000022_Node000021" class="edge">
<title>Node22&#45;&gt;Node21</title>
<g id="a_edge34_Node000022_Node000021"><a xlink:title=" ">
<path fill="none" stroke="#63b8ff" d="M1416.61,-164.99C1451.59,-155.34 1495.1,-137.32 1477,-110 1430.87,-40.37 1325.25,-19.34 1272.77,-13.08"/>
<polygon fill="#63b8ff" stroke="#63b8ff" points="1273.03,-9.59 1262.71,-11.99 1272.28,-16.55 1273.03,-9.59"/>
</a>
</g>
</g>
<!-- Node23 -->
<g id="Node000023" class="node">
<title>Node23</title>
<g id="a_Node000023"><a xlink:title=" ">
<polygon fill="#e0e0e0" stroke="#999999" points="1371.5,-129 1320.5,-129 1320.5,-110 1371.5,-110 1371.5,-129"/>
<text text-anchor="middle" x="1346" y="-117" font-family="Helvetica,sans-Serif" font-size="10.00">typeinfo</text>
</a>
</g>
</g>
<!-- Node22&#45;&gt;Node23 -->
<g id="edge35_Node000022_Node000023" class="edge">
<title>Node22&#45;&gt;Node23</title>
<g id="a_edge35_Node000022_Node000023"><a xlink:title=" ">
<path fill="none" stroke="#63b8ff" d="M1372.72,-164.75C1368.29,-157.42 1361.84,-146.73 1356.38,-137.7"/>
<polygon fill="#63b8ff" stroke="#63b8ff" points="1359.35,-135.84 1351.19,-129.09 1353.36,-139.46 1359.35,-135.84"/>
</a>
</g>
</g>
<!-- Node24 -->
<g id="Node000024" class="node">
<title>Node24</title>
<g id="a_Node000024"><a xlink:title=" ">
<polygon fill="#e0e0e0" stroke="#999999" points="1468,-129 1390,-129 1390,-110 1468,-110 1468,-129"/>
<text text-anchor="middle" x="1429" y="-117" font-family="Helvetica,sans-Serif" font-size="10.00">IBK_IntPara.h</text>
</a>
</g>
</g>
<!-- Node22&#45;&gt;Node24 -->
<g id="edge37_Node000022_Node000024" class="edge">
<title>Node22&#45;&gt;Node24</title>
<g id="a_edge37_Node000022_Node000024"><a xlink:title=" ">
<path fill="none" stroke="#63b8ff" d="M1386.42,-164.75C1393.77,-157.11 1404.63,-145.82 1413.54,-136.56"/>
<polygon fill="#63b8ff" stroke="#63b8ff" points="1416.32,-138.72 1420.74,-129.09 1411.28,-133.87 1416.32,-138.72"/>
</a>
</g>
</g>
</g>
</svg>
