<?xml version="1.0" encoding="UTF-8" standalone="no"?>
<!DOCTYPE svg PUBLIC "-//W3C//DTD SVG 1.1//EN"
 "http://www.w3.org/Graphics/SVG/1.1/DTD/svg11.dtd">
<!-- Generated by graphviz version 2.43.0 (0)
 -->
<!-- Title: /home/hirth/git/SIM&#45;VICUS.master2/externals/Vicus/src/ncg/ncg_VICUS_ZoneControlNaturalVentilation.cpp Pages: 1 -->
<svg width="1599pt" height="346pt"
 viewBox="0.00 0.00 1599.00 346.00" xmlns="http://www.w3.org/2000/svg" xmlns:xlink="http://www.w3.org/1999/xlink">
<g id="graph0" class="graph" transform="scale(1 1) rotate(0) translate(4 342)">
<title>/home/hirth/git/SIM&#45;VICUS.master2/externals/Vicus/src/ncg/ncg_VICUS_ZoneControlNaturalVentilation.cpp</title>
<!-- Node1 -->
<g id="Node000001" class="node">
<title>Node1</title>
<g id="a_Node000001"><a xlink:title=" ">
<polygon fill="#999999" stroke="#666666" points="1297.5,-338 1126.5,-338 1126.5,-286 1297.5,-286 1297.5,-338"/>
<text text-anchor="start" x="1134.5" y="-326" font-family="Helvetica,sans-Serif" font-size="10.00">/home/hirth/git/SIM</text>
<text text-anchor="start" x="1134.5" y="-315" font-family="Helvetica,sans-Serif" font-size="10.00">&#45;VICUS.master2/externals</text>
<text text-anchor="start" x="1134.5" y="-304" font-family="Helvetica,sans-Serif" font-size="10.00">/Vicus/src/ncg/ncg_VICUS</text>
<text text-anchor="middle" x="1212" y="-293" font-family="Helvetica,sans-Serif" font-size="10.00">_ZoneControlNaturalVentilation.cpp</text>
</a>
</g>
</g>
<!-- Node2 -->
<g id="Node000002" class="node">
<title>Node2</title>
<g id="a_Node000002"><a xlink:href="_v_i_c_u_s___zone_control_natural_ventilation_8h.html" target="_top" xlink:title=" ">
<polygon fill="white" stroke="#666666" points="860,-250 722,-250 722,-220 860,-220 860,-250"/>
<text text-anchor="start" x="730" y="-238" font-family="Helvetica,sans-Serif" font-size="10.00">VICUS_ZoneControlNatural</text>
<text text-anchor="middle" x="791" y="-227" font-family="Helvetica,sans-Serif" font-size="10.00">Ventilation.h</text>
</a>
</g>
</g>
<!-- Node1&#45;&gt;Node2 -->
<g id="edge1_Node000001_Node000002" class="edge">
<title>Node1&#45;&gt;Node2</title>
<g id="a_edge1_Node000001_Node000002"><a xlink:title=" ">
<path fill="none" stroke="#63b8ff" d="M1126.3,-295.73C1051.33,-282.38 943.3,-263.13 870.3,-250.13"/>
<polygon fill="#63b8ff" stroke="#63b8ff" points="870.69,-246.64 860.23,-248.33 869.47,-253.53 870.69,-246.64"/>
</a>
</g>
</g>
<!-- Node7 -->
<g id="Node000007" class="node">
<title>Node7</title>
<g id="a_Node000007"><a xlink:href="_v_i_c_u_s___constants_8h.html" target="_top" xlink:title="Contains global constants for the SIM&#45;VICUS data model.">
<polygon fill="white" stroke="#666666" points="239.5,-19 132.5,-19 132.5,0 239.5,0 239.5,-19"/>
<text text-anchor="middle" x="186" y="-7" font-family="Helvetica,sans-Serif" font-size="10.00">VICUS_Constants.h</text>
</a>
</g>
</g>
<!-- Node1&#45;&gt;Node7 -->
<g id="edge42_Node000001_Node000007" class="edge">
<title>Node1&#45;&gt;Node7</title>
<g id="a_edge42_Node000001_Node000007"><a xlink:title=" ">
<path fill="none" stroke="#63b8ff" d="M1126.29,-310.42C849.91,-307.42 0,-288.97 0,-175.5 0,-175.5 0,-175.5 0,-118.5 0,-60.5 68.48,-33.12 122.33,-20.56"/>
<polygon fill="#63b8ff" stroke="#63b8ff" points="123.19,-23.96 132.2,-18.38 121.68,-17.12 123.19,-23.96"/>
</a>
</g>
</g>
<!-- Node13 -->
<g id="Node000013" class="node">
<title>Node13</title>
<g id="a_Node000013"><a xlink:title=" ">
<polygon fill="#e0e0e0" stroke="#999999" points="1257,-129 1165,-129 1165,-110 1257,-110 1257,-129"/>
<text text-anchor="middle" x="1211" y="-117" font-family="Helvetica,sans-Serif" font-size="10.00">IBK_messages.h</text>
</a>
</g>
</g>
<!-- Node1&#45;&gt;Node13 -->
<g id="edge39_Node000001_Node000013" class="edge">
<title>Node1&#45;&gt;Node13</title>
<g id="a_edge39_Node000001_Node000013"><a xlink:title=" ">
<path fill="none" stroke="#63b8ff" d="M1211.87,-285.7C1211.66,-246.97 1211.28,-173.83 1211.1,-139.37"/>
<polygon fill="#63b8ff" stroke="#63b8ff" points="1214.6,-139.25 1211.05,-129.27 1207.6,-139.29 1214.6,-139.25"/>
</a>
</g>
</g>
<!-- Node14 -->
<g id="Node000014" class="node">
<title>Node14</title>
<g id="a_Node000014"><a xlink:title=" ">
<polygon fill="#e0e0e0" stroke="#999999" points="1331,-129 1275,-129 1275,-110 1331,-110 1331,-129"/>
<text text-anchor="middle" x="1303" y="-117" font-family="Helvetica,sans-Serif" font-size="10.00">tinyxml.h</text>
</a>
</g>
</g>
<!-- Node1&#45;&gt;Node14 -->
<g id="edge44_Node000001_Node000014" class="edge">
<title>Node1&#45;&gt;Node14</title>
<g id="a_edge44_Node000001_Node000014"><a xlink:title=" ">
<path fill="none" stroke="#63b8ff" d="M1221.86,-285.61C1229.19,-267.21 1239.66,-241.82 1250,-220 1263.91,-190.65 1282.06,-157.53 1293.1,-137.87"/>
<polygon fill="#63b8ff" stroke="#63b8ff" points="1296.17,-139.57 1298.04,-129.14 1290.07,-136.13 1296.17,-139.57"/>
</a>
</g>
</g>
<!-- Node23 -->
<g id="Node000023" class="node">
<title>Node23</title>
<g id="a_Node000023"><a xlink:href="_v_i_c_u_s___keyword_list_8h.html" target="_top" xlink:title="Contains the declaration of class KeywordList.">
<polygon fill="white" stroke="#666666" points="1159,-244.5 1043,-244.5 1043,-225.5 1159,-225.5 1159,-244.5"/>
<text text-anchor="middle" x="1101" y="-232.5" font-family="Helvetica,sans-Serif" font-size="10.00">VICUS_KeywordList.h</text>
</a>
</g>
</g>
<!-- Node1&#45;&gt;Node23 -->
<g id="edge34_Node000001_Node000023" class="edge">
<title>Node1&#45;&gt;Node23</title>
<g id="a_edge34_Node000001_Node000023"><a xlink:title=" ">
<path fill="none" stroke="#63b8ff" d="M1174.73,-285.82C1157.21,-273.98 1136.95,-260.29 1122.11,-250.27"/>
<polygon fill="#63b8ff" stroke="#63b8ff" points="1123.89,-247.24 1113.65,-244.54 1119.97,-253.04 1123.89,-247.24"/>
</a>
</g>
</g>
<!-- Node25 -->
<g id="Node000025" class="node">
<title>Node25</title>
<g id="a_Node000025"><a xlink:title=" ">
<polygon fill="#e0e0e0" stroke="#999999" points="1349,-244.5 1259,-244.5 1259,-225.5 1349,-225.5 1349,-244.5"/>
<text text-anchor="middle" x="1304" y="-232.5" font-family="Helvetica,sans-Serif" font-size="10.00">IBK_Exception.h</text>
</a>
</g>
</g>
<!-- Node1&#45;&gt;Node25 -->
<g id="edge40_Node000001_Node000025" class="edge">
<title>Node1&#45;&gt;Node25</title>
<g id="a_edge40_Node000001_Node000025"><a xlink:title=" ">
<path fill="none" stroke="#63b8ff" d="M1242.89,-285.82C1257,-274.31 1273.25,-261.07 1285.45,-251.13"/>
<polygon fill="#63b8ff" stroke="#63b8ff" points="1287.98,-253.58 1293.52,-244.54 1283.56,-248.15 1287.98,-253.58"/>
</a>
</g>
</g>
<!-- Node26 -->
<g id="Node000026" class="node">
<title>Node26</title>
<g id="a_Node000026"><a xlink:title=" ">
<polygon fill="#e0e0e0" stroke="#999999" points="1459,-244.5 1367,-244.5 1367,-225.5 1459,-225.5 1459,-244.5"/>
<text text-anchor="middle" x="1413" y="-232.5" font-family="Helvetica,sans-Serif" font-size="10.00">IBK_StringUtils.h</text>
</a>
</g>
</g>
<!-- Node1&#45;&gt;Node26 -->
<g id="edge41_Node000001_Node000026" class="edge">
<title>Node1&#45;&gt;Node26</title>
<g id="a_edge41_Node000001_Node000026"><a xlink:title=" ">
<path fill="none" stroke="#63b8ff" d="M1279.21,-285.92C1313.36,-273.18 1353.3,-258.28 1380.59,-248.09"/>
<polygon fill="#63b8ff" stroke="#63b8ff" points="1381.89,-251.34 1390.03,-244.57 1379.44,-244.79 1381.89,-251.34"/>
</a>
</g>
</g>
<!-- Node27 -->
<g id="Node000027" class="node">
<title>Node27</title>
<g id="a_Node000027"><a xlink:title=" ">
<polygon fill="#e0e0e0" stroke="#999999" points="1591,-244.5 1477,-244.5 1477,-225.5 1591,-225.5 1591,-244.5"/>
<text text-anchor="middle" x="1534" y="-232.5" font-family="Helvetica,sans-Serif" font-size="10.00">NANDRAD_Utilities.h</text>
</a>
</g>
</g>
<!-- Node1&#45;&gt;Node27 -->
<g id="edge43_Node000001_Node000027" class="edge">
<title>Node1&#45;&gt;Node27</title>
<g id="a_edge43_Node000001_Node000027"><a xlink:title=" ">
<path fill="none" stroke="#63b8ff" d="M1297.87,-291C1358.7,-276.83 1437.97,-258.37 1487.43,-246.85"/>
<polygon fill="#63b8ff" stroke="#63b8ff" points="1488.26,-250.25 1497.21,-244.57 1486.68,-243.43 1488.26,-250.25"/>
</a>
</g>
</g>
<!-- Node3 -->
<g id="Node000003" class="node">
<title>Node3</title>
<g id="a_Node000003"><a xlink:title=" ">
<polygon fill="#e0e0e0" stroke="#999999" points="932.5,-74 885.5,-74 885.5,-55 932.5,-55 932.5,-74"/>
<text text-anchor="middle" x="909" y="-62" font-family="Helvetica,sans-Serif" font-size="10.00">QColor</text>
</a>
</g>
</g>
<!-- Node2&#45;&gt;Node3 -->
<g id="edge2_Node000002_Node000003" class="edge">
<title>Node2&#45;&gt;Node3</title>
<g id="a_edge2_Node000002_Node000003"><a xlink:title=" ">
<path fill="none" stroke="#63b8ff" d="M799.6,-219.73C809.54,-204.33 827.21,-180 848,-165 883.95,-139.07 915.95,-165.56 941,-129 951.4,-113.82 938.84,-94.79 926.53,-81.54"/>
<polygon fill="#63b8ff" stroke="#63b8ff" points="928.66,-78.71 919.11,-74.12 923.71,-83.66 928.66,-78.71"/>
</a>
</g>
</g>
<!-- Node4 -->
<g id="Node000004" class="node">
<title>Node4</title>
<g id="a_Node000004"><a xlink:title=" ">
<polygon fill="#e0e0e0" stroke="#999999" points="157.5,-129 66.5,-129 66.5,-110 157.5,-110 157.5,-129"/>
<text text-anchor="middle" x="112" y="-117" font-family="Helvetica,sans-Serif" font-size="10.00">IBK_Parameter.h</text>
</a>
</g>
</g>
<!-- Node2&#45;&gt;Node4 -->
<g id="edge3_Node000002_Node000004" class="edge">
<title>Node2&#45;&gt;Node4</title>
<g id="a_edge3_Node000002_Node000004"><a xlink:title=" ">
<path fill="none" stroke="#63b8ff" d="M721.79,-231.57C568.78,-225.77 211.42,-209.63 163,-184 143.93,-173.91 129.48,-153.29 120.91,-138.28"/>
<polygon fill="#63b8ff" stroke="#63b8ff" points="123.95,-136.54 116.14,-129.39 117.78,-139.85 123.95,-136.54"/>
</a>
</g>
</g>
<!-- Node5 -->
<g id="Node000005" class="node">
<title>Node5</title>
<g id="a_Node000005"><a xlink:title=" ">
<polygon fill="#e0e0e0" stroke="#999999" points="1057,-184 979,-184 979,-165 1057,-165 1057,-184"/>
<text text-anchor="middle" x="1018" y="-172" font-family="Helvetica,sans-Serif" font-size="10.00">IBK_IntPara.h</text>
</a>
</g>
</g>
<!-- Node2&#45;&gt;Node5 -->
<g id="edge4_Node000002_Node000005" class="edge">
<title>Node2&#45;&gt;Node5</title>
<g id="a_edge4_Node000002_Node000005"><a xlink:title=" ">
<path fill="none" stroke="#63b8ff" d="M845.37,-219.99C885.06,-209.76 938.12,-196.09 974.89,-186.61"/>
<polygon fill="#63b8ff" stroke="#63b8ff" points="976,-189.94 984.81,-184.05 974.25,-183.16 976,-189.94"/>
</a>
</g>
</g>
<!-- Node6 -->
<g id="Node000006" class="node">
<title>Node6</title>
<g id="a_Node000006"><a xlink:href="_v_i_c_u_s___code_gen_macros_8h.html" target="_top" xlink:title=" ">
<polygon fill="white" stroke="#666666" points="594.5,-19 459.5,-19 459.5,0 594.5,0 594.5,-19"/>
<text text-anchor="middle" x="527" y="-7" font-family="Helvetica,sans-Serif" font-size="10.00">VICUS_CodeGenMacros.h</text>
</a>
</g>
</g>
<!-- Node2&#45;&gt;Node6 -->
<g id="edge5_Node000002_Node000006" class="edge">
<title>Node2&#45;&gt;Node6</title>
<g id="a_edge5_Node000002_Node000006"><a xlink:title=" ">
<path fill="none" stroke="#63b8ff" d="M721.96,-231.32C588.53,-224.53 303.06,-201.66 243,-129 181.98,-55.17 345.71,-26.63 449.33,-16.16"/>
<polygon fill="#63b8ff" stroke="#63b8ff" points="449.85,-19.62 459.47,-15.17 449.17,-12.66 449.85,-19.62"/>
</a>
</g>
</g>
<!-- Node2&#45;&gt;Node7 -->
<g id="edge6_Node000002_Node000007" class="edge">
<title>Node2&#45;&gt;Node7</title>
<g id="a_edge6_Node000002_Node000007"><a xlink:title=" ">
<path fill="none" stroke="#63b8ff" d="M721.87,-233.24C576.4,-230.91 243.31,-221.52 137,-184 91.33,-167.88 35.63,-153.47 57,-110 77.58,-68.13 125.19,-38.91 156.46,-23.42"/>
<polygon fill="#63b8ff" stroke="#63b8ff" points="158.08,-26.53 165.59,-19.06 155.06,-20.21 158.08,-26.53"/>
</a>
</g>
</g>
<!-- Node8 -->
<g id="Node000008" class="node">
<title>Node8</title>
<g id="a_Node000008"><a xlink:href="_v_i_c_u_s___abstract_d_b_element_8h.html" target="_top" xlink:title=" ">
<polygon fill="white" stroke="#666666" points="932.5,-129 783.5,-129 783.5,-110 932.5,-110 932.5,-129"/>
<text text-anchor="middle" x="858" y="-117" font-family="Helvetica,sans-Serif" font-size="10.00">VICUS_AbstractDBElement.h</text>
</a>
</g>
</g>
<!-- Node2&#45;&gt;Node8 -->
<g id="edge7_Node000002_Node000008" class="edge">
<title>Node2&#45;&gt;Node8</title>
<g id="a_edge7_Node000002_Node000008"><a xlink:title=" ">
<path fill="none" stroke="#63b8ff" d="M794.04,-219.73C797.57,-205.2 804.3,-182.39 815,-165 821.65,-154.18 831.33,-143.87 839.82,-135.89"/>
<polygon fill="#63b8ff" stroke="#63b8ff" points="842.36,-138.32 847.46,-129.03 837.68,-133.11 842.36,-138.32"/>
</a>
</g>
</g>
<!-- Node10 -->
<g id="Node000010" class="node">
<title>Node10</title>
<g id="a_Node000010"><a xlink:href="_v_i_c_u_s___database_8h.html" target="_top" xlink:title=" ">
<polygon fill="white" stroke="#666666" points="961,-184 857,-184 857,-165 961,-165 961,-184"/>
<text text-anchor="middle" x="909" y="-172" font-family="Helvetica,sans-Serif" font-size="10.00">VICUS_Database.h</text>
</a>
</g>
</g>
<!-- Node2&#45;&gt;Node10 -->
<g id="edge11_Node000002_Node000010" class="edge">
<title>Node2&#45;&gt;Node10</title>
<g id="a_edge11_Node000002_Node000010"><a xlink:title=" ">
<path fill="none" stroke="#63b8ff" d="M819.26,-219.99C838.42,-210.49 863.58,-198.02 882.39,-188.69"/>
<polygon fill="#63b8ff" stroke="#63b8ff" points="884.17,-191.72 891.57,-184.14 881.06,-185.45 884.17,-191.72"/>
</a>
</g>
</g>
<!-- Node15 -->
<g id="Node000015" class="node">
<title>Node15</title>
<g id="a_Node000015"><a xlink:href="_v_i_c_u_s___schedule_8h.html" target="_top" xlink:title=" ">
<polygon fill="white" stroke="#666666" points="645,-184 543,-184 543,-165 645,-165 645,-184"/>
<text text-anchor="middle" x="594" y="-172" font-family="Helvetica,sans-Serif" font-size="10.00">VICUS_Schedule.h</text>
</a>
</g>
</g>
<!-- Node2&#45;&gt;Node15 -->
<g id="edge17_Node000002_Node000015" class="edge">
<title>Node2&#45;&gt;Node15</title>
<g id="a_edge17_Node000002_Node000015"><a xlink:title=" ">
<path fill="none" stroke="#63b8ff" d="M743.81,-219.99C709.82,-209.89 664.5,-196.44 632.64,-186.98"/>
<polygon fill="#63b8ff" stroke="#63b8ff" points="633.39,-183.55 622.8,-184.05 631.39,-190.26 633.39,-183.55"/>
</a>
</g>
</g>
<!-- Node8&#45;&gt;Node3 -->
<g id="edge9_Node000008_Node000003" class="edge">
<title>Node8&#45;&gt;Node3</title>
<g id="a_edge9_Node000008_Node000003"><a xlink:title=" ">
<path fill="none" stroke="#63b8ff" d="M866.42,-109.75C873.77,-102.11 884.63,-90.82 893.54,-81.56"/>
<polygon fill="#63b8ff" stroke="#63b8ff" points="896.32,-83.72 900.74,-74.09 891.28,-78.87 896.32,-83.72"/>
</a>
</g>
</g>
<!-- Node8&#45;&gt;Node7 -->
<g id="edge10_Node000008_Node000007" class="edge">
<title>Node8&#45;&gt;Node7</title>
<g id="a_edge10_Node000008_Node000007"><a xlink:title=" ">
<path fill="none" stroke="#63b8ff" d="M783.29,-113.14C671.81,-104.83 467.28,-88.31 395,-74 331.21,-61.38 259.11,-37.17 218.45,-22.57"/>
<polygon fill="#63b8ff" stroke="#63b8ff" points="219.41,-19.19 208.81,-19.08 217.02,-25.77 219.41,-19.19"/>
</a>
</g>
</g>
<!-- Node9 -->
<g id="Node000009" class="node">
<title>Node9</title>
<g id="a_Node000009"><a xlink:title=" ">
<polygon fill="#e0e0e0" stroke="#999999" points="716.5,-74 581.5,-74 581.5,-55 716.5,-55 716.5,-74"/>
<text text-anchor="middle" x="649" y="-62" font-family="Helvetica,sans-Serif" font-size="10.00">IBK_MultiLanguageString.h</text>
</a>
</g>
</g>
<!-- Node8&#45;&gt;Node9 -->
<g id="edge8_Node000008_Node000009" class="edge">
<title>Node8&#45;&gt;Node9</title>
<g id="a_edge8_Node000008_Node000009"><a xlink:title=" ">
<path fill="none" stroke="#63b8ff" d="M824.42,-109.98C788.65,-100.91 731.88,-86.52 692.66,-76.57"/>
<polygon fill="#63b8ff" stroke="#63b8ff" points="693.4,-73.15 682.84,-74.08 691.68,-79.93 693.4,-73.15"/>
</a>
</g>
</g>
<!-- Node10&#45;&gt;Node8 -->
<g id="edge13_Node000010_Node000008" class="edge">
<title>Node10&#45;&gt;Node8</title>
<g id="a_edge13_Node000010_Node000008"><a xlink:title=" ">
<path fill="none" stroke="#63b8ff" d="M900.58,-164.75C893.23,-157.11 882.37,-145.82 873.46,-136.56"/>
<polygon fill="#63b8ff" stroke="#63b8ff" points="875.72,-133.87 866.26,-129.09 870.68,-138.72 875.72,-133.87"/>
</a>
</g>
</g>
<!-- Node11 -->
<g id="Node000011" class="node">
<title>Node11</title>
<g id="a_Node000011"><a xlink:title=" ">
<polygon fill="#e0e0e0" stroke="#999999" points="1023.5,-129 988.5,-129 988.5,-110 1023.5,-110 1023.5,-129"/>
<text text-anchor="middle" x="1006" y="-117" font-family="Helvetica,sans-Serif" font-size="10.00">map</text>
</a>
</g>
</g>
<!-- Node10&#45;&gt;Node11 -->
<g id="edge12_Node000010_Node000011" class="edge">
<title>Node10&#45;&gt;Node11</title>
<g id="a_edge12_Node000010_Node000011"><a xlink:title=" ">
<path fill="none" stroke="#63b8ff" d="M924.58,-164.98C939.77,-156.69 963.1,-143.94 980.9,-134.22"/>
<polygon fill="#63b8ff" stroke="#63b8ff" points="983.03,-137.04 990.13,-129.17 979.68,-130.89 983.03,-137.04"/>
</a>
</g>
</g>
<!-- Node12 -->
<g id="Node000012" class="node">
<title>Node12</title>
<g id="a_Node000012"><a xlink:title=" ">
<polygon fill="#e0e0e0" stroke="#999999" points="1108.5,-129 1041.5,-129 1041.5,-110 1108.5,-110 1108.5,-129"/>
<text text-anchor="middle" x="1075" y="-117" font-family="Helvetica,sans-Serif" font-size="10.00">IBK_Path.h</text>
</a>
</g>
</g>
<!-- Node10&#45;&gt;Node12 -->
<g id="edge14_Node000010_Node000012" class="edge">
<title>Node10&#45;&gt;Node12</title>
<g id="a_edge14_Node000010_Node000012"><a xlink:title=" ">
<path fill="none" stroke="#63b8ff" d="M935.67,-164.98C963.54,-156.09 1007.45,-142.07 1038.52,-132.15"/>
<polygon fill="#63b8ff" stroke="#63b8ff" points="1039.66,-135.46 1048.12,-129.08 1037.53,-128.79 1039.66,-135.46"/>
</a>
</g>
</g>
<!-- Node10&#45;&gt;Node13 -->
<g id="edge15_Node000010_Node000013" class="edge">
<title>Node10&#45;&gt;Node13</title>
<g id="a_edge15_Node000010_Node000013"><a xlink:title=" ">
<path fill="none" stroke="#63b8ff" d="M957.52,-164.98C1011.32,-155.54 1097.96,-140.34 1154.7,-130.38"/>
<polygon fill="#63b8ff" stroke="#63b8ff" points="1155.34,-133.82 1164.58,-128.65 1154.13,-126.93 1155.34,-133.82"/>
</a>
</g>
</g>
<!-- Node10&#45;&gt;Node14 -->
<g id="edge16_Node000010_Node000014" class="edge">
<title>Node10&#45;&gt;Node14</title>
<g id="a_edge16_Node000010_Node000014"><a xlink:title=" ">
<path fill="none" stroke="#63b8ff" d="M961.24,-166.16C964.2,-165.76 967.14,-165.37 970,-165 1098.2,-148.27 1133.74,-151.68 1264.76,-129.05"/>
<polygon fill="#63b8ff" stroke="#63b8ff" points="1265.53,-132.47 1274.78,-127.3 1264.33,-125.58 1265.53,-132.47"/>
</a>
</g>
</g>
<!-- Node15&#45;&gt;Node4 -->
<g id="edge20_Node000015_Node000004" class="edge">
<title>Node15&#45;&gt;Node4</title>
<g id="a_edge20_Node000015_Node000004"><a xlink:title=" ">
<path fill="none" stroke="#63b8ff" d="M542.94,-168.71C463.52,-161.12 305.62,-145.5 172,-129 170.53,-128.82 169.04,-128.63 167.54,-128.44"/>
<polygon fill="#63b8ff" stroke="#63b8ff" points="167.89,-124.95 157.51,-127.12 166.97,-131.9 167.89,-124.95"/>
</a>
</g>
</g>
<!-- Node15&#45;&gt;Node6 -->
<g id="edge22_Node000015_Node000006" class="edge">
<title>Node15&#45;&gt;Node6</title>
<g id="a_edge22_Node000015_Node000006"><a xlink:title=" ">
<path fill="none" stroke="#63b8ff" d="M645.34,-171.91C676.99,-167.95 715.35,-157.11 736,-129 747.85,-112.86 743.67,-74.12 725,-55 708.14,-37.73 652.61,-26.2 604.64,-19.21"/>
<polygon fill="#63b8ff" stroke="#63b8ff" points="604.92,-15.72 594.53,-17.79 603.95,-22.65 604.92,-15.72"/>
</a>
</g>
</g>
<!-- Node15&#45;&gt;Node7 -->
<g id="edge23_Node000015_Node000007" class="edge">
<title>Node15&#45;&gt;Node7</title>
<g id="a_edge23_Node000015_Node000007"><a xlink:title=" ">
<path fill="none" stroke="#63b8ff" d="M542.93,-169.72C451.43,-162.56 266.86,-146.19 243,-129 209.61,-104.95 194.98,-56.02 189.25,-29.17"/>
<polygon fill="#63b8ff" stroke="#63b8ff" points="192.65,-28.3 187.31,-19.15 185.77,-29.63 192.65,-28.3"/>
</a>
</g>
</g>
<!-- Node15&#45;&gt;Node8 -->
<g id="edge33_Node000015_Node000008" class="edge">
<title>Node15&#45;&gt;Node8</title>
<g id="a_edge33_Node000015_Node000008"><a xlink:title=" ">
<path fill="none" stroke="#63b8ff" d="M636.42,-164.98C682.37,-155.76 755.75,-141.03 805.35,-131.07"/>
<polygon fill="#63b8ff" stroke="#63b8ff" points="806.14,-134.48 815.25,-129.08 804.76,-127.62 806.14,-134.48"/>
</a>
</g>
</g>
<!-- Node16 -->
<g id="Node000016" class="node">
<title>Node16</title>
<g id="a_Node000016"><a xlink:title=" ">
<polygon fill="#e0e0e0" stroke="#999999" points="644,-129 544,-129 544,-110 644,-110 644,-129"/>
<text text-anchor="middle" x="594" y="-117" font-family="Helvetica,sans-Serif" font-size="10.00">IBK_LinearSpline.h</text>
</a>
</g>
</g>
<!-- Node15&#45;&gt;Node16 -->
<g id="edge18_Node000015_Node000016" class="edge">
<title>Node15&#45;&gt;Node16</title>
<g id="a_edge18_Node000015_Node000016"><a xlink:title=" ">
<path fill="none" stroke="#63b8ff" d="M594,-164.75C594,-157.8 594,-147.85 594,-139.13"/>
<polygon fill="#63b8ff" stroke="#63b8ff" points="597.5,-139.09 594,-129.09 590.5,-139.09 597.5,-139.09"/>
</a>
</g>
</g>
<!-- Node17 -->
<g id="Node000017" class="node">
<title>Node17</title>
<g id="a_Node000017"><a xlink:title=" ">
<polygon fill="#e0e0e0" stroke="#999999" points="727.5,-129 662.5,-129 662.5,-110 727.5,-110 727.5,-129"/>
<text text-anchor="middle" x="695" y="-117" font-family="Helvetica,sans-Serif" font-size="10.00">IBK_Flag.h</text>
</a>
</g>
</g>
<!-- Node15&#45;&gt;Node17 -->
<g id="edge19_Node000015_Node000017" class="edge">
<title>Node15&#45;&gt;Node17</title>
<g id="a_edge19_Node000015_Node000017"><a xlink:title=" ">
<path fill="none" stroke="#63b8ff" d="M610.23,-164.98C626.18,-156.61 650.78,-143.7 669.38,-133.95"/>
<polygon fill="#63b8ff" stroke="#63b8ff" points="671.25,-136.92 678.48,-129.17 668,-130.72 671.25,-136.92"/>
</a>
</g>
</g>
<!-- Node18 -->
<g id="Node000018" class="node">
<title>Node18</title>
<g id="a_Node000018"><a xlink:title=" ">
<polygon fill="#e0e0e0" stroke="#999999" points="374,-129 252,-129 252,-110 374,-110 374,-129"/>
<text text-anchor="middle" x="313" y="-117" font-family="Helvetica,sans-Serif" font-size="10.00">NANDRAD_Schedule.h</text>
</a>
</g>
</g>
<!-- Node15&#45;&gt;Node18 -->
<g id="edge21_Node000015_Node000018" class="edge">
<title>Node15&#45;&gt;Node18</title>
<g id="a_edge21_Node000015_Node000018"><a xlink:title=" ">
<path fill="none" stroke="#63b8ff" d="M548.85,-164.98C499.74,-155.72 421.18,-140.9 368.38,-130.94"/>
<polygon fill="#63b8ff" stroke="#63b8ff" points="368.98,-127.5 358.5,-129.08 367.68,-134.37 368.98,-127.5"/>
</a>
</g>
</g>
<!-- Node19 -->
<g id="Node000019" class="node">
<title>Node19</title>
<g id="a_Node000019"><a xlink:href="_v_i_c_u_s___schedule_interval_8h.html" target="_top" xlink:title=" ">
<polygon fill="white" stroke="#666666" points="526,-129 392,-129 392,-110 526,-110 526,-129"/>
<text text-anchor="middle" x="459" y="-117" font-family="Helvetica,sans-Serif" font-size="10.00">VICUS_ScheduleInterval.h</text>
</a>
</g>
</g>
<!-- Node15&#45;&gt;Node19 -->
<g id="edge24_Node000015_Node000019" class="edge">
<title>Node15&#45;&gt;Node19</title>
<g id="a_edge24_Node000015_Node000019"><a xlink:title=" ">
<path fill="none" stroke="#63b8ff" d="M572.31,-164.98C550.2,-156.3 515.68,-142.75 490.55,-132.88"/>
<polygon fill="#63b8ff" stroke="#63b8ff" points="491.67,-129.57 481.08,-129.17 489.11,-136.08 491.67,-129.57"/>
</a>
</g>
</g>
<!-- Node19&#45;&gt;Node6 -->
<g id="edge26_Node000019_Node000006" class="edge">
<title>Node19&#45;&gt;Node6</title>
<g id="a_edge26_Node000019_Node000006"><a xlink:title=" ">
<path fill="none" stroke="#63b8ff" d="M479.85,-110C494.64,-102.77 513.5,-90.86 523,-74 530.62,-60.47 531.08,-42.64 529.94,-29.32"/>
<polygon fill="#63b8ff" stroke="#63b8ff" points="533.41,-28.89 528.73,-19.39 526.47,-29.74 533.41,-28.89"/>
</a>
</g>
</g>
<!-- Node19&#45;&gt;Node9 -->
<g id="edge25_Node000019_Node000009" class="edge">
<title>Node19&#45;&gt;Node9</title>
<g id="a_edge25_Node000019_Node000009"><a xlink:title=" ">
<path fill="none" stroke="#63b8ff" d="M489.53,-109.98C521.7,-101.01 572.56,-86.82 608.17,-76.89"/>
<polygon fill="#63b8ff" stroke="#63b8ff" points="609.54,-80.14 618.23,-74.08 607.66,-73.4 609.54,-80.14"/>
</a>
</g>
</g>
<!-- Node20 -->
<g id="Node000020" class="node">
<title>Node20</title>
<g id="a_Node000020"><a xlink:title=" ">
<polygon fill="#e0e0e0" stroke="#999999" points="412,-19 368,-19 368,0 412,0 412,-19"/>
<text text-anchor="middle" x="390" y="-7" font-family="Helvetica,sans-Serif" font-size="10.00">vector</text>
</a>
</g>
</g>
<!-- Node19&#45;&gt;Node20 -->
<g id="edge27_Node000019_Node000020" class="edge">
<title>Node19&#45;&gt;Node20</title>
<g id="a_edge27_Node000019_Node000020"><a xlink:title=" ">
<path fill="none" stroke="#63b8ff" d="M438.23,-109.95C423.47,-102.7 404.63,-90.79 395,-74 387.34,-60.65 386.53,-43.04 387.39,-29.75"/>
<polygon fill="#63b8ff" stroke="#63b8ff" points="390.91,-29.7 388.44,-19.4 383.95,-29 390.91,-29.7"/>
</a>
</g>
</g>
<!-- Node21 -->
<g id="Node000021" class="node">
<title>Node21</title>
<g id="a_Node000021"><a xlink:href="_v_i_c_u_s___daily_cycle_8h.html" target="_top" xlink:title=" ">
<polygon fill="white" stroke="#666666" points="514,-74 404,-74 404,-55 514,-55 514,-74"/>
<text text-anchor="middle" x="459" y="-62" font-family="Helvetica,sans-Serif" font-size="10.00">VICUS_DailyCycle.h</text>
</a>
</g>
</g>
<!-- Node19&#45;&gt;Node21 -->
<g id="edge28_Node000019_Node000021" class="edge">
<title>Node19&#45;&gt;Node21</title>
<g id="a_edge28_Node000019_Node000021"><a xlink:title=" ">
<path fill="none" stroke="#63b8ff" d="M459,-109.75C459,-102.8 459,-92.85 459,-84.13"/>
<polygon fill="#63b8ff" stroke="#63b8ff" points="462.5,-84.09 459,-74.09 455.5,-84.09 462.5,-84.09"/>
</a>
</g>
</g>
<!-- Node21&#45;&gt;Node6 -->
<g id="edge29_Node000021_Node000006" class="edge">
<title>Node21&#45;&gt;Node6</title>
<g id="a_edge29_Node000021_Node000006"><a xlink:title=" ">
<path fill="none" stroke="#63b8ff" d="M469.93,-54.98C480.08,-47.07 495.42,-35.11 507.65,-25.58"/>
<polygon fill="#63b8ff" stroke="#63b8ff" points="510.14,-28.08 515.88,-19.17 505.84,-22.56 510.14,-28.08"/>
</a>
</g>
</g>
<!-- Node21&#45;&gt;Node7 -->
<g id="edge30_Node000021_Node000007" class="edge">
<title>Node21&#45;&gt;Node7</title>
<g id="a_edge30_Node000021_Node000007"><a xlink:title=" ">
<path fill="none" stroke="#63b8ff" d="M415.14,-54.98C367.52,-45.74 291.42,-30.97 240.12,-21.01"/>
<polygon fill="#63b8ff" stroke="#63b8ff" points="240.69,-17.55 230.21,-19.08 239.36,-24.42 240.69,-17.55"/>
</a>
</g>
</g>
<!-- Node21&#45;&gt;Node20 -->
<g id="edge31_Node000021_Node000020" class="edge">
<title>Node21&#45;&gt;Node20</title>
<g id="a_edge31_Node000021_Node000020"><a xlink:title=" ">
<path fill="none" stroke="#63b8ff" d="M447.91,-54.98C437.51,-47 421.74,-34.88 409.28,-25.31"/>
<polygon fill="#63b8ff" stroke="#63b8ff" points="411.35,-22.49 401.29,-19.17 407.09,-28.04 411.35,-22.49"/>
</a>
</g>
</g>
<!-- Node22 -->
<g id="Node000022" class="node">
<title>Node22</title>
<g id="a_Node000022"><a xlink:title=" ">
<polygon fill="#e0e0e0" stroke="#999999" points="912.5,-19 871.5,-19 871.5,0 912.5,0 912.5,-19"/>
<text text-anchor="middle" x="892" y="-7" font-family="Helvetica,sans-Serif" font-size="10.00">string</text>
</a>
</g>
</g>
<!-- Node21&#45;&gt;Node22 -->
<g id="edge32_Node000021_Node000022" class="edge">
<title>Node21&#45;&gt;Node22</title>
<g id="a_edge32_Node000021_Node000022"><a xlink:title=" ">
<path fill="none" stroke="#63b8ff" d="M514.28,-56.73C606.44,-45.45 788.54,-23.16 861.1,-14.28"/>
<polygon fill="#63b8ff" stroke="#63b8ff" points="861.88,-17.71 871.38,-13.02 861.03,-10.76 861.88,-17.71"/>
</a>
</g>
</g>
<!-- Node23&#45;&gt;Node4 -->
<g id="edge37_Node000023_Node000004" class="edge">
<title>Node23&#45;&gt;Node4</title>
<g id="a_edge37_Node000023_Node000004"><a xlink:title=" ">
<path fill="none" stroke="#63b8ff" d="M1042.93,-230.06C940.12,-222.83 719.46,-206.11 534,-184 402.25,-168.29 248.31,-143.49 167.7,-130"/>
<polygon fill="#63b8ff" stroke="#63b8ff" points="168.21,-126.53 157.77,-128.33 167.06,-133.44 168.21,-126.53"/>
</a>
</g>
</g>
<!-- Node23&#45;&gt;Node5 -->
<g id="edge38_Node000023_Node000005" class="edge">
<title>Node23&#45;&gt;Node5</title>
<g id="a_edge38_Node000023_Node000005"><a xlink:title=" ">
<path fill="none" stroke="#63b8ff" d="M1088.75,-225.37C1075.64,-216.12 1054.58,-201.28 1038.85,-190.19"/>
<polygon fill="#63b8ff" stroke="#63b8ff" points="1040.49,-187.07 1030.3,-184.17 1036.45,-192.79 1040.49,-187.07"/>
</a>
</g>
</g>
<!-- Node23&#45;&gt;Node22 -->
<g id="edge35_Node000023_Node000022" class="edge">
<title>Node23&#45;&gt;Node22</title>
<g id="a_edge35_Node000023_Node000022"><a xlink:title=" ">
<path fill="none" stroke="#63b8ff" d="M1109.36,-225.3C1117.71,-215.96 1130,-200.25 1135,-184 1144.96,-151.65 1139.71,-135.1 1117,-110 1064.14,-51.57 970.64,-25.68 922.51,-15.78"/>
<polygon fill="#63b8ff" stroke="#63b8ff" points="923.17,-12.34 912.68,-13.85 921.82,-19.21 923.17,-12.34"/>
</a>
</g>
</g>
<!-- Node24 -->
<g id="Node000024" class="node">
<title>Node24</title>
<g id="a_Node000024"><a xlink:title=" ">
<polygon fill="#e0e0e0" stroke="#999999" points="1126.5,-184 1075.5,-184 1075.5,-165 1126.5,-165 1126.5,-184"/>
<text text-anchor="middle" x="1101" y="-172" font-family="Helvetica,sans-Serif" font-size="10.00">typeinfo</text>
</a>
</g>
</g>
<!-- Node23&#45;&gt;Node24 -->
<g id="edge36_Node000023_Node000024" class="edge">
<title>Node23&#45;&gt;Node24</title>
<g id="a_edge36_Node000023_Node000024"><a xlink:title=" ">
<path fill="none" stroke="#63b8ff" d="M1101,-225.37C1101,-217.25 1101,-204.81 1101,-194.39"/>
<polygon fill="#63b8ff" stroke="#63b8ff" points="1104.5,-194.17 1101,-184.17 1097.5,-194.17 1104.5,-194.17"/>
</a>
</g>
</g>
</g>
</svg>
