<?xml version="1.0" encoding="UTF-8" standalone="no"?>
<!DOCTYPE svg PUBLIC "-//W3C//DTD SVG 1.1//EN"
 "http://www.w3.org/Graphics/SVG/1.1/DTD/svg11.dtd">
<!-- Generated by graphviz version 2.43.0 (0)
 -->
<!-- Title: /home/hirth/git/SIM&#45;VICUS.master2/externals/Vicus/src/ncg/ncg_VICUS_MaterialLayer.cpp Pages: 1 -->
<svg width="1679pt" height="280pt"
 viewBox="0.00 0.00 1679.15 280.00" xmlns="http://www.w3.org/2000/svg" xmlns:xlink="http://www.w3.org/1999/xlink">
<g id="graph0" class="graph" transform="scale(1 1) rotate(0) translate(4 276)">
<title>/home/hirth/git/SIM&#45;VICUS.master2/externals/Vicus/src/ncg/ncg_VICUS_MaterialLayer.cpp</title>
<!-- Node1 -->
<g id="Node000001" class="node">
<title>Node1</title>
<g id="a_Node000001"><a xlink:title=" ">
<polygon fill="#999999" stroke="#666666" points="1287.65,-272 1152.65,-272 1152.65,-220 1287.65,-220 1287.65,-272"/>
<text text-anchor="start" x="1160.65" y="-260" font-family="Helvetica,sans-Serif" font-size="10.00">/home/hirth/git/SIM</text>
<text text-anchor="start" x="1160.65" y="-249" font-family="Helvetica,sans-Serif" font-size="10.00">&#45;VICUS.master2/externals</text>
<text text-anchor="start" x="1160.65" y="-238" font-family="Helvetica,sans-Serif" font-size="10.00">/Vicus/src/ncg/ncg_VICUS</text>
<text text-anchor="middle" x="1220.15" y="-227" font-family="Helvetica,sans-Serif" font-size="10.00">_MaterialLayer.cpp</text>
</a>
</g>
</g>
<!-- Node2 -->
<g id="Node000002" class="node">
<title>Node2</title>
<g id="a_Node000002"><a xlink:href="_v_i_c_u_s___material_layer_8h.html" target="_top" xlink:title=" ">
<polygon fill="white" stroke="#666666" points="729.65,-184 610.65,-184 610.65,-165 729.65,-165 729.65,-184"/>
<text text-anchor="middle" x="670.15" y="-172" font-family="Helvetica,sans-Serif" font-size="10.00">VICUS_MaterialLayer.h</text>
</a>
</g>
</g>
<!-- Node1&#45;&gt;Node2 -->
<g id="edge1_Node000001_Node000002" class="edge">
<title>Node1&#45;&gt;Node2</title>
<g id="a_edge1_Node000001_Node000002"><a xlink:title=" ">
<path fill="none" stroke="#63b8ff" d="M1152.43,-236.44C1047.29,-223.16 845.84,-197.7 739.63,-184.28"/>
<polygon fill="#63b8ff" stroke="#63b8ff" points="740.02,-180.8 729.66,-183.02 739.14,-187.75 740.02,-180.8"/>
</a>
</g>
</g>
<!-- Node4 -->
<g id="Node000004" class="node">
<title>Node4</title>
<g id="a_Node000004"><a xlink:href="_v_i_c_u_s___constants_8h.html" target="_top" xlink:title="Contains global constants for the SIM&#45;VICUS data model.">
<polygon fill="white" stroke="#666666" points="144.65,-19 37.65,-19 37.65,0 144.65,0 144.65,-19"/>
<text text-anchor="middle" x="91.15" y="-7" font-family="Helvetica,sans-Serif" font-size="10.00">VICUS_Constants.h</text>
</a>
</g>
</g>
<!-- Node1&#45;&gt;Node4 -->
<g id="edge35_Node000001_Node000004" class="edge">
<title>Node1&#45;&gt;Node4</title>
<g id="a_edge35_Node000001_Node000004"><a xlink:title=" ">
<path fill="none" stroke="#63b8ff" d="M1152.44,-243.63C936.19,-238.41 264.81,-215.47 68.15,-129 28.87,-111.73 -16.07,-91.71 6.15,-55 15.29,-39.89 31.43,-29.67 47.21,-22.87"/>
<polygon fill="#63b8ff" stroke="#63b8ff" points="48.89,-25.97 56.93,-19.07 46.34,-19.46 48.89,-25.97"/>
</a>
</g>
</g>
<!-- Node11 -->
<g id="Node000011" class="node">
<title>Node11</title>
<g id="a_Node000011"><a xlink:title=" ">
<polygon fill="#e0e0e0" stroke="#999999" points="1272.15,-74 1180.15,-74 1180.15,-55 1272.15,-55 1272.15,-74"/>
<text text-anchor="middle" x="1226.15" y="-62" font-family="Helvetica,sans-Serif" font-size="10.00">IBK_messages.h</text>
</a>
</g>
</g>
<!-- Node1&#45;&gt;Node11 -->
<g id="edge32_Node000001_Node000011" class="edge">
<title>Node1&#45;&gt;Node11</title>
<g id="a_edge32_Node000001_Node000011"><a xlink:title=" ">
<path fill="none" stroke="#63b8ff" d="M1188.67,-219.97C1178.52,-209.99 1168.52,-197.62 1163.15,-184 1151.08,-153.41 1148.02,-139.2 1163.15,-110 1170.18,-96.41 1183.49,-86.09 1196.07,-78.82"/>
<polygon fill="#63b8ff" stroke="#63b8ff" points="1197.81,-81.86 1205,-74.07 1194.52,-75.68 1197.81,-81.86"/>
</a>
</g>
</g>
<!-- Node12 -->
<g id="Node000012" class="node">
<title>Node12</title>
<g id="a_Node000012"><a xlink:title=" ">
<polygon fill="#e0e0e0" stroke="#999999" points="1346.15,-74 1290.15,-74 1290.15,-55 1346.15,-55 1346.15,-74"/>
<text text-anchor="middle" x="1318.15" y="-62" font-family="Helvetica,sans-Serif" font-size="10.00">tinyxml.h</text>
</a>
</g>
</g>
<!-- Node1&#45;&gt;Node12 -->
<g id="edge37_Node000001_Node000012" class="edge">
<title>Node1&#45;&gt;Node12</title>
<g id="a_edge37_Node000001_Node000012"><a xlink:title=" ">
<path fill="none" stroke="#63b8ff" d="M1205.59,-219.99C1190.82,-190.95 1173.15,-142.87 1196.15,-110 1206.09,-95.79 1248.14,-82.59 1280.12,-74.31"/>
<polygon fill="#63b8ff" stroke="#63b8ff" points="1281.25,-77.64 1290.1,-71.81 1279.55,-70.85 1281.25,-77.64"/>
</a>
</g>
</g>
<!-- Node21 -->
<g id="Node000021" class="node">
<title>Node21</title>
<g id="a_Node000021"><a xlink:href="_v_i_c_u_s___keyword_list_8h.html" target="_top" xlink:title="Contains the declaration of class KeywordList.">
<polygon fill="white" stroke="#666666" points="1321.15,-184 1205.15,-184 1205.15,-165 1321.15,-165 1321.15,-184"/>
<text text-anchor="middle" x="1263.15" y="-172" font-family="Helvetica,sans-Serif" font-size="10.00">VICUS_KeywordList.h</text>
</a>
</g>
</g>
<!-- Node1&#45;&gt;Node21 -->
<g id="edge27_Node000001_Node000021" class="edge">
<title>Node1&#45;&gt;Node21</title>
<g id="a_edge27_Node000001_Node000021"><a xlink:title=" ">
<path fill="none" stroke="#63b8ff" d="M1235.67,-219.91C1241.2,-210.97 1247.31,-201.1 1252.36,-192.94"/>
<polygon fill="#63b8ff" stroke="#63b8ff" points="1255.41,-194.65 1257.7,-184.3 1249.46,-190.96 1255.41,-194.65"/>
</a>
</g>
</g>
<!-- Node25 -->
<g id="Node000025" class="node">
<title>Node25</title>
<g id="a_Node000025"><a xlink:title=" ">
<polygon fill="#e0e0e0" stroke="#999999" points="1429.15,-184 1339.15,-184 1339.15,-165 1429.15,-165 1429.15,-184"/>
<text text-anchor="middle" x="1384.15" y="-172" font-family="Helvetica,sans-Serif" font-size="10.00">IBK_Exception.h</text>
</a>
</g>
</g>
<!-- Node1&#45;&gt;Node25 -->
<g id="edge33_Node000001_Node000025" class="edge">
<title>Node1&#45;&gt;Node25</title>
<g id="a_edge33_Node000001_Node000025"><a xlink:title=" ">
<path fill="none" stroke="#63b8ff" d="M1279.35,-219.91C1304.86,-209.1 1333.56,-196.94 1354.47,-188.08"/>
<polygon fill="#63b8ff" stroke="#63b8ff" points="1355.93,-191.26 1363.77,-184.14 1353.2,-184.81 1355.93,-191.26"/>
</a>
</g>
</g>
<!-- Node26 -->
<g id="Node000026" class="node">
<title>Node26</title>
<g id="a_Node000026"><a xlink:title=" ">
<polygon fill="#e0e0e0" stroke="#999999" points="1539.15,-184 1447.15,-184 1447.15,-165 1539.15,-165 1539.15,-184"/>
<text text-anchor="middle" x="1493.15" y="-172" font-family="Helvetica,sans-Serif" font-size="10.00">IBK_StringUtils.h</text>
</a>
</g>
</g>
<!-- Node1&#45;&gt;Node26 -->
<g id="edge34_Node000001_Node000026" class="edge">
<title>Node1&#45;&gt;Node26</title>
<g id="a_edge34_Node000001_Node000026"><a xlink:title=" ">
<path fill="none" stroke="#63b8ff" d="M1287.98,-227.73C1338.67,-214.83 1406.44,-197.57 1449.95,-186.5"/>
<polygon fill="#63b8ff" stroke="#63b8ff" points="1450.83,-189.88 1459.66,-184.02 1449.11,-183.1 1450.83,-189.88"/>
</a>
</g>
</g>
<!-- Node27 -->
<g id="Node000027" class="node">
<title>Node27</title>
<g id="a_Node000027"><a xlink:title=" ">
<polygon fill="#e0e0e0" stroke="#999999" points="1671.15,-184 1557.15,-184 1557.15,-165 1671.15,-165 1671.15,-184"/>
<text text-anchor="middle" x="1614.15" y="-172" font-family="Helvetica,sans-Serif" font-size="10.00">NANDRAD_Utilities.h</text>
</a>
</g>
</g>
<!-- Node1&#45;&gt;Node27 -->
<g id="edge36_Node000001_Node000027" class="edge">
<title>Node1&#45;&gt;Node27</title>
<g id="a_edge36_Node000001_Node000027"><a xlink:title=" ">
<path fill="none" stroke="#63b8ff" d="M1287.88,-233.05C1363.37,-219.74 1484.21,-198.42 1555.72,-185.81"/>
<polygon fill="#63b8ff" stroke="#63b8ff" points="1556.66,-189.2 1565.9,-184.01 1555.44,-182.3 1556.66,-189.2"/>
</a>
</g>
</g>
<!-- Node3 -->
<g id="Node000003" class="node">
<title>Node3</title>
<g id="a_Node000003"><a xlink:href="_v_i_c_u_s___code_gen_macros_8h.html" target="_top" xlink:title=" ">
<polygon fill="white" stroke="#666666" points="158.65,-74 23.65,-74 23.65,-55 158.65,-55 158.65,-74"/>
<text text-anchor="middle" x="91.15" y="-62" font-family="Helvetica,sans-Serif" font-size="10.00">VICUS_CodeGenMacros.h</text>
</a>
</g>
</g>
<!-- Node2&#45;&gt;Node3 -->
<g id="edge2_Node000002_Node000003" class="edge">
<title>Node2&#45;&gt;Node3</title>
<g id="a_edge2_Node000002_Node000003"><a xlink:title=" ">
<path fill="none" stroke="#63b8ff" d="M624.23,-164.94C519.08,-145.32 261.11,-97.2 147,-75.92"/>
<polygon fill="#63b8ff" stroke="#63b8ff" points="147.54,-72.46 137.07,-74.07 146.26,-79.34 147.54,-72.46"/>
</a>
</g>
</g>
<!-- Node2&#45;&gt;Node4 -->
<g id="edge3_Node000002_Node000004" class="edge">
<title>Node2&#45;&gt;Node4</title>
<g id="a_edge3_Node000002_Node000004"><a xlink:title=" ">
<path fill="none" stroke="#63b8ff" d="M610.42,-173.96C463.37,-173.67 90.23,-163.91 14.15,-74 -3.13,-53.59 28.4,-34.71 56.17,-22.94"/>
<polygon fill="#63b8ff" stroke="#63b8ff" points="57.78,-26.06 65.75,-19.08 55.17,-19.57 57.78,-26.06"/>
</a>
</g>
</g>
<!-- Node5 -->
<g id="Node000005" class="node">
<title>Node5</title>
<g id="a_Node000005"><a xlink:href="_v_i_c_u_s___database_8h.html" target="_top" xlink:title=" ">
<polygon fill="white" stroke="#666666" points="1111.15,-129 1007.15,-129 1007.15,-110 1111.15,-110 1111.15,-129"/>
<text text-anchor="middle" x="1059.15" y="-117" font-family="Helvetica,sans-Serif" font-size="10.00">VICUS_Database.h</text>
</a>
</g>
</g>
<!-- Node2&#45;&gt;Node5 -->
<g id="edge4_Node000002_Node000005" class="edge">
<title>Node2&#45;&gt;Node5</title>
<g id="a_edge4_Node000002_Node000005"><a xlink:title=" ">
<path fill="none" stroke="#63b8ff" d="M729.65,-165.39C802.02,-155.53 923.58,-138.97 997.08,-128.96"/>
<polygon fill="#63b8ff" stroke="#63b8ff" points="997.69,-132.41 1007.12,-127.59 996.74,-125.47 997.69,-132.41"/>
</a>
</g>
</g>
<!-- Node13 -->
<g id="Node000013" class="node">
<title>Node13</title>
<g id="a_Node000013"><a xlink:href="_v_i_c_u_s___material_8h.html" target="_top" xlink:title=" ">
<polygon fill="white" stroke="#666666" points="642.15,-129 546.15,-129 546.15,-110 642.15,-110 642.15,-129"/>
<text text-anchor="middle" x="594.15" y="-117" font-family="Helvetica,sans-Serif" font-size="10.00">VICUS_Material.h</text>
</a>
</g>
</g>
<!-- Node2&#45;&gt;Node13 -->
<g id="edge13_Node000002_Node000013" class="edge">
<title>Node2&#45;&gt;Node13</title>
<g id="a_edge13_Node000002_Node000013"><a xlink:title=" ">
<path fill="none" stroke="#63b8ff" d="M657.94,-164.98C646.37,-156.92 628.77,-144.65 614.99,-135.03"/>
<polygon fill="#63b8ff" stroke="#63b8ff" points="616.78,-132.02 606.58,-129.17 612.78,-137.76 616.78,-132.02"/>
</a>
</g>
</g>
<!-- Node14 -->
<g id="Node000014" class="node">
<title>Node14</title>
<g id="a_Node000014"><a xlink:title=" ">
<polygon fill="#e0e0e0" stroke="#999999" points="747.15,-74 697.15,-74 697.15,-55 747.15,-55 747.15,-74"/>
<text text-anchor="middle" x="722.15" y="-62" font-family="Helvetica,sans-Serif" font-size="10.00">QString</text>
</a>
</g>
</g>
<!-- Node2&#45;&gt;Node14 -->
<g id="edge23_Node000002_Node000014" class="edge">
<title>Node2&#45;&gt;Node14</title>
<g id="a_edge23_Node000002_Node000014"><a xlink:title=" ">
<path fill="none" stroke="#63b8ff" d="M701.57,-164.97C719.48,-158.32 740.44,-147.09 751.15,-129 760.26,-113.6 749.21,-94.84 738.23,-81.72"/>
<polygon fill="#63b8ff" stroke="#63b8ff" points="740.54,-79.06 731.23,-74 735.36,-83.76 740.54,-79.06"/>
</a>
</g>
</g>
<!-- Node16 -->
<g id="Node000016" class="node">
<title>Node16</title>
<g id="a_Node000016"><a xlink:title=" ">
<polygon fill="#e0e0e0" stroke="#999999" points="856.65,-74 765.65,-74 765.65,-55 856.65,-55 856.65,-74"/>
<text text-anchor="middle" x="811.15" y="-62" font-family="Helvetica,sans-Serif" font-size="10.00">IBK_Parameter.h</text>
</a>
</g>
</g>
<!-- Node2&#45;&gt;Node16 -->
<g id="edge26_Node000002_Node000016" class="edge">
<title>Node2&#45;&gt;Node16</title>
<g id="a_edge26_Node000002_Node000016"><a xlink:title=" ">
<path fill="none" stroke="#63b8ff" d="M670.36,-164.91C671.16,-151.47 674.62,-125.41 689.15,-110 706.6,-91.48 732.38,-80.64 755.75,-74.31"/>
<polygon fill="#63b8ff" stroke="#63b8ff" points="756.73,-77.67 765.59,-71.86 755.04,-70.88 756.73,-77.67"/>
</a>
</g>
</g>
<!-- Node19 -->
<g id="Node000019" class="node">
<title>Node19</title>
<g id="a_Node000019"><a xlink:title=" ">
<polygon fill="#e0e0e0" stroke="#999999" points="742.15,-129 698.15,-129 698.15,-110 742.15,-110 742.15,-129"/>
<text text-anchor="middle" x="720.15" y="-117" font-family="Helvetica,sans-Serif" font-size="10.00">vector</text>
</a>
</g>
</g>
<!-- Node2&#45;&gt;Node19 -->
<g id="edge24_Node000002_Node000019" class="edge">
<title>Node2&#45;&gt;Node19</title>
<g id="a_edge24_Node000002_Node000019"><a xlink:title=" ">
<path fill="none" stroke="#63b8ff" d="M678.4,-164.75C685.61,-157.11 696.26,-145.82 704.99,-136.56"/>
<polygon fill="#63b8ff" stroke="#63b8ff" points="707.73,-138.76 712.04,-129.09 702.64,-133.96 707.73,-138.76"/>
</a>
</g>
</g>
<!-- Node20 -->
<g id="Node000020" class="node">
<title>Node20</title>
<g id="a_Node000020"><a xlink:title=" ">
<polygon fill="#e0e0e0" stroke="#999999" points="527.65,-129 462.65,-129 462.65,-110 527.65,-110 527.65,-129"/>
<text text-anchor="middle" x="495.15" y="-117" font-family="Helvetica,sans-Serif" font-size="10.00">IBK_Flag.h</text>
</a>
</g>
</g>
<!-- Node2&#45;&gt;Node20 -->
<g id="edge25_Node000002_Node000020" class="edge">
<title>Node2&#45;&gt;Node20</title>
<g id="a_edge25_Node000002_Node000020"><a xlink:title=" ">
<path fill="none" stroke="#63b8ff" d="M642.03,-164.98C612.52,-156.05 565.95,-141.94 533.18,-132.02"/>
<polygon fill="#63b8ff" stroke="#63b8ff" points="534.07,-128.63 523.48,-129.08 532.04,-135.33 534.07,-128.63"/>
</a>
</g>
</g>
<!-- Node6 -->
<g id="Node000006" class="node">
<title>Node6</title>
<g id="a_Node000006"><a xlink:title=" ">
<polygon fill="#e0e0e0" stroke="#999999" points="1076.65,-74 1041.65,-74 1041.65,-55 1076.65,-55 1076.65,-74"/>
<text text-anchor="middle" x="1059.15" y="-62" font-family="Helvetica,sans-Serif" font-size="10.00">map</text>
</a>
</g>
</g>
<!-- Node5&#45;&gt;Node6 -->
<g id="edge5_Node000005_Node000006" class="edge">
<title>Node5&#45;&gt;Node6</title>
<g id="a_edge5_Node000005_Node000006"><a xlink:title=" ">
<path fill="none" stroke="#63b8ff" d="M1059.15,-109.75C1059.15,-102.8 1059.15,-92.85 1059.15,-84.13"/>
<polygon fill="#63b8ff" stroke="#63b8ff" points="1062.65,-84.09 1059.15,-74.09 1055.65,-84.09 1062.65,-84.09"/>
</a>
</g>
</g>
<!-- Node7 -->
<g id="Node000007" class="node">
<title>Node7</title>
<g id="a_Node000007"><a xlink:href="_v_i_c_u_s___abstract_d_b_element_8h.html" target="_top" xlink:title=" ">
<polygon fill="white" stroke="#666666" points="1023.65,-74 874.65,-74 874.65,-55 1023.65,-55 1023.65,-74"/>
<text text-anchor="middle" x="949.15" y="-62" font-family="Helvetica,sans-Serif" font-size="10.00">VICUS_AbstractDBElement.h</text>
</a>
</g>
</g>
<!-- Node5&#45;&gt;Node7 -->
<g id="edge6_Node000005_Node000007" class="edge">
<title>Node5&#45;&gt;Node7</title>
<g id="a_edge6_Node000005_Node000007"><a xlink:title=" ">
<path fill="none" stroke="#63b8ff" d="M1041.47,-109.98C1023.86,-101.5 996.57,-88.35 976.22,-78.54"/>
<polygon fill="#63b8ff" stroke="#63b8ff" points="977.67,-75.36 967.14,-74.17 974.63,-81.66 977.67,-75.36"/>
</a>
</g>
</g>
<!-- Node10 -->
<g id="Node000010" class="node">
<title>Node10</title>
<g id="a_Node000010"><a xlink:title=" ">
<polygon fill="#e0e0e0" stroke="#999999" points="1161.65,-74 1094.65,-74 1094.65,-55 1161.65,-55 1161.65,-74"/>
<text text-anchor="middle" x="1128.15" y="-62" font-family="Helvetica,sans-Serif" font-size="10.00">IBK_Path.h</text>
</a>
</g>
</g>
<!-- Node5&#45;&gt;Node10 -->
<g id="edge10_Node000005_Node000010" class="edge">
<title>Node5&#45;&gt;Node10</title>
<g id="a_edge10_Node000005_Node000010"><a xlink:title=" ">
<path fill="none" stroke="#63b8ff" d="M1070.23,-109.98C1080.63,-102 1096.41,-89.88 1108.87,-80.31"/>
<polygon fill="#63b8ff" stroke="#63b8ff" points="1111.06,-83.04 1116.86,-74.17 1106.8,-77.49 1111.06,-83.04"/>
</a>
</g>
</g>
<!-- Node5&#45;&gt;Node11 -->
<g id="edge11_Node000005_Node000011" class="edge">
<title>Node5&#45;&gt;Node11</title>
<g id="a_edge11_Node000005_Node000011"><a xlink:title=" ">
<path fill="none" stroke="#63b8ff" d="M1085.98,-109.98C1114.01,-101.09 1158.19,-87.07 1189.45,-77.15"/>
<polygon fill="#63b8ff" stroke="#63b8ff" points="1190.63,-80.44 1199.1,-74.08 1188.51,-73.77 1190.63,-80.44"/>
</a>
</g>
</g>
<!-- Node5&#45;&gt;Node12 -->
<g id="edge12_Node000005_Node000012" class="edge">
<title>Node5&#45;&gt;Node12</title>
<g id="a_edge12_Node000005_Node000012"><a xlink:title=" ">
<path fill="none" stroke="#63b8ff" d="M1103.45,-110C1146.21,-101.71 1213.03,-88.53 1280,-74.2"/>
<polygon fill="#63b8ff" stroke="#63b8ff" points="1280.84,-77.6 1289.88,-72.08 1279.37,-70.76 1280.84,-77.6"/>
</a>
</g>
</g>
<!-- Node7&#45;&gt;Node4 -->
<g id="edge9_Node000007_Node000004" class="edge">
<title>Node7&#45;&gt;Node4</title>
<g id="a_edge9_Node000007_Node000004"><a xlink:title=" ">
<path fill="none" stroke="#63b8ff" d="M874.51,-55.78C871.34,-55.5 868.21,-55.24 865.15,-55 601.91,-34.12 287.57,-19.11 155.05,-13.23"/>
<polygon fill="#63b8ff" stroke="#63b8ff" points="154.83,-9.72 144.69,-12.78 154.52,-16.71 154.83,-9.72"/>
</a>
</g>
</g>
<!-- Node8 -->
<g id="Node000008" class="node">
<title>Node8</title>
<g id="a_Node000008"><a xlink:title=" ">
<polygon fill="#e0e0e0" stroke="#999999" points="1016.65,-19 881.65,-19 881.65,0 1016.65,0 1016.65,-19"/>
<text text-anchor="middle" x="949.15" y="-7" font-family="Helvetica,sans-Serif" font-size="10.00">IBK_MultiLanguageString.h</text>
</a>
</g>
</g>
<!-- Node7&#45;&gt;Node8 -->
<g id="edge7_Node000007_Node000008" class="edge">
<title>Node7&#45;&gt;Node8</title>
<g id="a_edge7_Node000007_Node000008"><a xlink:title=" ">
<path fill="none" stroke="#63b8ff" d="M949.15,-54.75C949.15,-47.8 949.15,-37.85 949.15,-29.13"/>
<polygon fill="#63b8ff" stroke="#63b8ff" points="952.65,-29.09 949.15,-19.09 945.65,-29.09 952.65,-29.09"/>
</a>
</g>
</g>
<!-- Node9 -->
<g id="Node000009" class="node">
<title>Node9</title>
<g id="a_Node000009"><a xlink:title=" ">
<polygon fill="#e0e0e0" stroke="#999999" points="777.65,-19 730.65,-19 730.65,0 777.65,0 777.65,-19"/>
<text text-anchor="middle" x="754.15" y="-7" font-family="Helvetica,sans-Serif" font-size="10.00">QColor</text>
</a>
</g>
</g>
<!-- Node7&#45;&gt;Node9 -->
<g id="edge8_Node000007_Node000009" class="edge">
<title>Node7&#45;&gt;Node9</title>
<g id="a_edge8_Node000007_Node000009"><a xlink:title=" ">
<path fill="none" stroke="#63b8ff" d="M917.82,-54.98C882.09,-45.28 823.93,-29.47 787.42,-19.54"/>
<polygon fill="#63b8ff" stroke="#63b8ff" points="788.3,-16.16 777.73,-16.91 786.46,-22.91 788.3,-16.16"/>
</a>
</g>
</g>
<!-- Node13&#45;&gt;Node3 -->
<g id="edge14_Node000013_Node000003" class="edge">
<title>Node13&#45;&gt;Node3</title>
<g id="a_edge14_Node000013_Node000003"><a xlink:title=" ">
<path fill="none" stroke="#63b8ff" d="M546.06,-111.28C542.71,-110.83 539.38,-110.4 536.15,-110 375.23,-90.24 334.44,-90.36 173.15,-74 171.68,-73.85 170.19,-73.7 168.7,-73.55"/>
<polygon fill="#63b8ff" stroke="#63b8ff" points="169.02,-70.06 158.71,-72.53 168.31,-77.03 169.02,-70.06"/>
</a>
</g>
</g>
<!-- Node13&#45;&gt;Node4 -->
<g id="edge15_Node000013_Node000004" class="edge">
<title>Node13&#45;&gt;Node4</title>
<g id="a_edge15_Node000013_Node000004"><a xlink:title=" ">
<path fill="none" stroke="#63b8ff" d="M546.06,-111.31C542.71,-110.86 539.38,-110.41 536.15,-110 389.8,-91.3 346.8,-118.53 206.15,-74 196.54,-70.96 145.4,-41.86 114.64,-24.12"/>
<polygon fill="#63b8ff" stroke="#63b8ff" points="116.23,-21 105.82,-19.03 112.72,-27.06 116.23,-21"/>
</a>
</g>
</g>
<!-- Node13&#45;&gt;Node7 -->
<g id="edge16_Node000013_Node000007" class="edge">
<title>Node13&#45;&gt;Node7</title>
<g id="a_edge16_Node000013_Node000007"><a xlink:title=" ">
<path fill="none" stroke="#63b8ff" d="M642.39,-111.3C704.37,-102.04 812.26,-85.94 882.17,-75.5"/>
<polygon fill="#63b8ff" stroke="#63b8ff" points="882.83,-78.94 892.2,-74 881.79,-72.02 882.83,-78.94"/>
</a>
</g>
</g>
<!-- Node13&#45;&gt;Node9 -->
<g id="edge18_Node000013_Node000009" class="edge">
<title>Node13&#45;&gt;Node9</title>
<g id="a_edge18_Node000013_Node000009"><a xlink:title=" ">
<path fill="none" stroke="#63b8ff" d="M606.92,-109.87C624.99,-97.65 659.09,-74.61 688.15,-55 703.08,-44.92 719.92,-33.57 732.85,-24.85"/>
<polygon fill="#63b8ff" stroke="#63b8ff" points="735.16,-27.52 741.49,-19.03 731.24,-21.71 735.16,-27.52"/>
</a>
</g>
</g>
<!-- Node13&#45;&gt;Node14 -->
<g id="edge17_Node000013_Node000014" class="edge">
<title>Node13&#45;&gt;Node14</title>
<g id="a_edge17_Node000013_Node000014"><a xlink:title=" ">
<path fill="none" stroke="#63b8ff" d="M614.71,-109.98C635.58,-101.34 668.12,-87.87 691.92,-78.02"/>
<polygon fill="#63b8ff" stroke="#63b8ff" points="693.31,-81.23 701.21,-74.17 690.63,-74.76 693.31,-81.23"/>
</a>
</g>
</g>
<!-- Node15 -->
<g id="Node000015" class="node">
<title>Node15</title>
<g id="a_Node000015"><a xlink:title=" ">
<polygon fill="#e0e0e0" stroke="#999999" points="640.65,-74 547.65,-74 547.65,-55 640.65,-55 640.65,-74"/>
<text text-anchor="middle" x="594.15" y="-62" font-family="Helvetica,sans-Serif" font-size="10.00">QCoreApplication</text>
</a>
</g>
</g>
<!-- Node13&#45;&gt;Node15 -->
<g id="edge19_Node000013_Node000015" class="edge">
<title>Node13&#45;&gt;Node15</title>
<g id="a_edge19_Node000013_Node000015"><a xlink:title=" ">
<path fill="none" stroke="#63b8ff" d="M594.15,-109.75C594.15,-102.8 594.15,-92.85 594.15,-84.13"/>
<polygon fill="#63b8ff" stroke="#63b8ff" points="597.65,-84.09 594.15,-74.09 590.65,-84.09 597.65,-84.09"/>
</a>
</g>
</g>
<!-- Node13&#45;&gt;Node16 -->
<g id="edge20_Node000013_Node000016" class="edge">
<title>Node13&#45;&gt;Node16</title>
<g id="a_edge20_Node000013_Node000016"><a xlink:title=" ">
<path fill="none" stroke="#63b8ff" d="M629.01,-109.98C666.23,-100.89 725.34,-86.46 766.07,-76.51"/>
<polygon fill="#63b8ff" stroke="#63b8ff" points="767.12,-79.85 776.01,-74.08 765.46,-73.05 767.12,-79.85"/>
</a>
</g>
</g>
<!-- Node17 -->
<g id="Node000017" class="node">
<title>Node17</title>
<g id="a_Node000017"><a xlink:title=" ">
<polygon fill="#e0e0e0" stroke="#999999" points="394.65,-74 215.65,-74 215.65,-55 394.65,-55 394.65,-74"/>
<text text-anchor="middle" x="305.15" y="-62" font-family="Helvetica,sans-Serif" font-size="10.00">NANDRAD_LinearSplineParameter.h</text>
</a>
</g>
</g>
<!-- Node13&#45;&gt;Node17 -->
<g id="edge21_Node000013_Node000017" class="edge">
<title>Node13&#45;&gt;Node17</title>
<g id="a_edge21_Node000013_Node000017"><a xlink:title=" ">
<path fill="none" stroke="#63b8ff" d="M547.71,-109.98C497.2,-100.72 416.41,-85.9 362.1,-75.94"/>
<polygon fill="#63b8ff" stroke="#63b8ff" points="362.41,-72.44 351.94,-74.08 361.15,-79.33 362.41,-72.44"/>
</a>
</g>
</g>
<!-- Node18 -->
<g id="Node000018" class="node">
<title>Node18</title>
<g id="a_Node000018"><a xlink:title=" ">
<polygon fill="#e0e0e0" stroke="#999999" points="529.15,-74 413.15,-74 413.15,-55 529.15,-55 529.15,-74"/>
<text text-anchor="middle" x="471.15" y="-62" font-family="Helvetica,sans-Serif" font-size="10.00">NANDRAD_Material.h</text>
</a>
</g>
</g>
<!-- Node13&#45;&gt;Node18 -->
<g id="edge22_Node000013_Node000018" class="edge">
<title>Node13&#45;&gt;Node18</title>
<g id="a_edge22_Node000013_Node000018"><a xlink:title=" ">
<path fill="none" stroke="#63b8ff" d="M574.38,-109.98C554.42,-101.38 523.34,-87.99 500.5,-78.15"/>
<polygon fill="#63b8ff" stroke="#63b8ff" points="501.84,-74.91 491.27,-74.17 499.07,-81.34 501.84,-74.91"/>
</a>
</g>
</g>
<!-- Node21&#45;&gt;Node16 -->
<g id="edge30_Node000021_Node000016" class="edge">
<title>Node21&#45;&gt;Node16</title>
<g id="a_edge30_Node000021_Node000016"><a xlink:title=" ">
<path fill="none" stroke="#63b8ff" d="M1204.95,-166.47C1150.89,-159.3 1068.38,-146.7 998.15,-129 942.23,-114.91 879.07,-91.92 842.32,-77.81"/>
<polygon fill="#63b8ff" stroke="#63b8ff" points="843.27,-74.43 832.68,-74.09 840.75,-80.96 843.27,-74.43"/>
</a>
</g>
</g>
<!-- Node22 -->
<g id="Node000022" class="node">
<title>Node22</title>
<g id="a_Node000022"><a xlink:title=" ">
<polygon fill="#e0e0e0" stroke="#999999" points="1246.65,-129 1205.65,-129 1205.65,-110 1246.65,-110 1246.65,-129"/>
<text text-anchor="middle" x="1226.15" y="-117" font-family="Helvetica,sans-Serif" font-size="10.00">string</text>
</a>
</g>
</g>
<!-- Node21&#45;&gt;Node22 -->
<g id="edge28_Node000021_Node000022" class="edge">
<title>Node21&#45;&gt;Node22</title>
<g id="a_edge28_Node000021_Node000022"><a xlink:title=" ">
<path fill="none" stroke="#63b8ff" d="M1257.04,-164.75C1251.86,-157.34 1244.3,-146.5 1237.95,-137.41"/>
<polygon fill="#63b8ff" stroke="#63b8ff" points="1240.74,-135.29 1232.14,-129.09 1235,-139.29 1240.74,-135.29"/>
</a>
</g>
</g>
<!-- Node23 -->
<g id="Node000023" class="node">
<title>Node23</title>
<g id="a_Node000023"><a xlink:title=" ">
<polygon fill="#e0e0e0" stroke="#999999" points="1315.65,-129 1264.65,-129 1264.65,-110 1315.65,-110 1315.65,-129"/>
<text text-anchor="middle" x="1290.15" y="-117" font-family="Helvetica,sans-Serif" font-size="10.00">typeinfo</text>
</a>
</g>
</g>
<!-- Node21&#45;&gt;Node23 -->
<g id="edge29_Node000021_Node000023" class="edge">
<title>Node21&#45;&gt;Node23</title>
<g id="a_edge29_Node000021_Node000023"><a xlink:title=" ">
<path fill="none" stroke="#63b8ff" d="M1267.6,-164.75C1271.26,-157.57 1276.56,-147.18 1281.09,-138.27"/>
<polygon fill="#63b8ff" stroke="#63b8ff" points="1284.35,-139.59 1285.77,-129.09 1278.11,-136.41 1284.35,-139.59"/>
</a>
</g>
</g>
<!-- Node24 -->
<g id="Node000024" class="node">
<title>Node24</title>
<g id="a_Node000024"><a xlink:title=" ">
<polygon fill="#e0e0e0" stroke="#999999" points="1412.15,-129 1334.15,-129 1334.15,-110 1412.15,-110 1412.15,-129"/>
<text text-anchor="middle" x="1373.15" y="-117" font-family="Helvetica,sans-Serif" font-size="10.00">IBK_IntPara.h</text>
</a>
</g>
</g>
<!-- Node21&#45;&gt;Node24 -->
<g id="edge31_Node000021_Node000024" class="edge">
<title>Node21&#45;&gt;Node24</title>
<g id="a_edge31_Node000021_Node000024"><a xlink:title=" ">
<path fill="none" stroke="#63b8ff" d="M1280.82,-164.98C1298.44,-156.5 1325.72,-143.35 1346.07,-133.54"/>
<polygon fill="#63b8ff" stroke="#63b8ff" points="1347.66,-136.66 1355.15,-129.17 1344.62,-130.36 1347.66,-136.66"/>
</a>
</g>
</g>
</g>
</svg>
