<?xml version="1.0" encoding="UTF-8" standalone="no"?>
<!DOCTYPE svg PUBLIC "-//W3C//DTD SVG 1.1//EN"
 "http://www.w3.org/Graphics/SVG/1.1/DTD/svg11.dtd">
<!-- Generated by graphviz version 2.43.0 (0)
 -->
<!-- Title: /home/hirth/git/SIM&#45;VICUS.master2/externals/Vicus/src/ncg/ncg_VICUS_ViewSettings.cpp Pages: 1 -->
<svg width="1337pt" height="225pt"
 viewBox="0.00 0.00 1336.50 225.00" xmlns="http://www.w3.org/2000/svg" xmlns:xlink="http://www.w3.org/1999/xlink">
<g id="graph0" class="graph" transform="scale(1 1) rotate(0) translate(4 221)">
<title>/home/hirth/git/SIM&#45;VICUS.master2/externals/Vicus/src/ncg/ncg_VICUS_ViewSettings.cpp</title>
<!-- Node1 -->
<g id="Node000001" class="node">
<title>Node1</title>
<g id="a_Node000001"><a xlink:title=" ">
<polygon fill="#999999" stroke="#666666" points="909,-217 774,-217 774,-165 909,-165 909,-217"/>
<text text-anchor="start" x="782" y="-205" font-family="Helvetica,sans-Serif" font-size="10.00">/home/hirth/git/SIM</text>
<text text-anchor="start" x="782" y="-194" font-family="Helvetica,sans-Serif" font-size="10.00">&#45;VICUS.master2/externals</text>
<text text-anchor="start" x="782" y="-183" font-family="Helvetica,sans-Serif" font-size="10.00">/Vicus/src/ncg/ncg_VICUS</text>
<text text-anchor="middle" x="841.5" y="-172" font-family="Helvetica,sans-Serif" font-size="10.00">_ViewSettings.cpp</text>
</a>
</g>
</g>
<!-- Node2 -->
<g id="Node000002" class="node">
<title>Node2</title>
<g id="a_Node000002"><a xlink:href="_v_i_c_u_s___view_settings_8h.html" target="_top" xlink:title=" ">
<polygon fill="white" stroke="#666666" points="354,-129 235,-129 235,-110 354,-110 354,-129"/>
<text text-anchor="middle" x="294.5" y="-117" font-family="Helvetica,sans-Serif" font-size="10.00">VICUS_ViewSettings.h</text>
</a>
</g>
</g>
<!-- Node1&#45;&gt;Node2 -->
<g id="edge1_Node000001_Node000002" class="edge">
<title>Node1&#45;&gt;Node2</title>
<g id="a_edge1_Node000001_Node000002"><a xlink:title=" ">
<path fill="none" stroke="#63b8ff" d="M773.88,-181.41C669.35,-168.13 469.57,-142.74 363.95,-129.32"/>
<polygon fill="#63b8ff" stroke="#63b8ff" points="364.39,-125.85 354.02,-128.06 363.5,-132.8 364.39,-125.85"/>
</a>
</g>
</g>
<!-- Node6 -->
<g id="Node000006" class="node">
<title>Node6</title>
<g id="a_Node000006"><a xlink:title=" ">
<polygon fill="#e0e0e0" stroke="#999999" points="527,-19 424,-19 424,0 527,0 527,-19"/>
<text text-anchor="middle" x="475.5" y="-7" font-family="Helvetica,sans-Serif" font-size="10.00">IBKMK_Vector3D.h</text>
</a>
</g>
</g>
<!-- Node1&#45;&gt;Node6 -->
<g id="edge23_Node000001_Node000006" class="edge">
<title>Node1&#45;&gt;Node6</title>
<g id="a_edge23_Node000001_Node000006"><a xlink:title=" ">
<path fill="none" stroke="#63b8ff" d="M773.83,-182.67C697.6,-173.3 579.61,-155.1 543.5,-129 508.85,-103.95 489.28,-55.43 480.74,-28.91"/>
<polygon fill="#63b8ff" stroke="#63b8ff" points="483.99,-27.57 477.74,-19.02 477.29,-29.61 483.99,-27.57"/>
</a>
</g>
</g>
<!-- Node10 -->
<g id="Node000010" class="node">
<title>Node10</title>
<g id="a_Node000010"><a xlink:href="_v_i_c_u_s___keyword_list_8h.html" target="_top" xlink:title="Contains the declaration of class KeywordList.">
<polygon fill="white" stroke="#666666" points="668.5,-129 552.5,-129 552.5,-110 668.5,-110 668.5,-129"/>
<text text-anchor="middle" x="610.5" y="-117" font-family="Helvetica,sans-Serif" font-size="10.00">VICUS_KeywordList.h</text>
</a>
</g>
</g>
<!-- Node1&#45;&gt;Node10 -->
<g id="edge14_Node000001_Node000010" class="edge">
<title>Node1&#45;&gt;Node10</title>
<g id="a_edge14_Node000001_Node000010"><a xlink:title=" ">
<path fill="none" stroke="#63b8ff" d="M773.75,-169.62C733.1,-157.38 682.86,-142.27 648.93,-132.06"/>
<polygon fill="#63b8ff" stroke="#63b8ff" points="649.54,-128.59 638.95,-129.06 647.52,-135.29 649.54,-128.59"/>
</a>
</g>
</g>
<!-- Node15 -->
<g id="Node000015" class="node">
<title>Node15</title>
<g id="a_Node000015"><a xlink:title=" ">
<polygon fill="#e0e0e0" stroke="#999999" points="778.5,-129 686.5,-129 686.5,-110 778.5,-110 778.5,-129"/>
<text text-anchor="middle" x="732.5" y="-117" font-family="Helvetica,sans-Serif" font-size="10.00">IBK_messages.h</text>
</a>
</g>
</g>
<!-- Node1&#45;&gt;Node15 -->
<g id="edge19_Node000001_Node000015" class="edge">
<title>Node1&#45;&gt;Node15</title>
<g id="a_edge19_Node000001_Node000015"><a xlink:title=" ">
<path fill="none" stroke="#63b8ff" d="M802.15,-164.91C786.19,-154.74 768.36,-143.36 754.73,-134.68"/>
<polygon fill="#63b8ff" stroke="#63b8ff" points="756.36,-131.56 746.04,-129.14 752.59,-137.46 756.36,-131.56"/>
</a>
</g>
</g>
<!-- Node16 -->
<g id="Node000016" class="node">
<title>Node16</title>
<g id="a_Node000016"><a xlink:title=" ">
<polygon fill="#e0e0e0" stroke="#999999" points="886.5,-129 796.5,-129 796.5,-110 886.5,-110 886.5,-129"/>
<text text-anchor="middle" x="841.5" y="-117" font-family="Helvetica,sans-Serif" font-size="10.00">IBK_Exception.h</text>
</a>
</g>
</g>
<!-- Node1&#45;&gt;Node16 -->
<g id="edge20_Node000001_Node000016" class="edge">
<title>Node1&#45;&gt;Node16</title>
<g id="a_edge20_Node000001_Node000016"><a xlink:title=" ">
<path fill="none" stroke="#63b8ff" d="M841.5,-164.91C841.5,-156.55 841.5,-147.38 841.5,-139.55"/>
<polygon fill="#63b8ff" stroke="#63b8ff" points="845,-139.3 841.5,-129.3 838,-139.3 845,-139.3"/>
</a>
</g>
</g>
<!-- Node17 -->
<g id="Node000017" class="node">
<title>Node17</title>
<g id="a_Node000017"><a xlink:title=" ">
<polygon fill="#e0e0e0" stroke="#999999" points="996.5,-129 904.5,-129 904.5,-110 996.5,-110 996.5,-129"/>
<text text-anchor="middle" x="950.5" y="-117" font-family="Helvetica,sans-Serif" font-size="10.00">IBK_StringUtils.h</text>
</a>
</g>
</g>
<!-- Node1&#45;&gt;Node17 -->
<g id="edge21_Node000001_Node000017" class="edge">
<title>Node1&#45;&gt;Node17</title>
<g id="a_edge21_Node000001_Node000017"><a xlink:title=" ">
<path fill="none" stroke="#63b8ff" d="M880.85,-164.91C896.81,-154.74 914.64,-143.36 928.27,-134.68"/>
<polygon fill="#63b8ff" stroke="#63b8ff" points="930.41,-137.46 936.96,-129.14 926.64,-131.56 930.41,-137.46"/>
</a>
</g>
</g>
<!-- Node18 -->
<g id="Node000018" class="node">
<title>Node18</title>
<g id="a_Node000018"><a xlink:href="_v_i_c_u_s___constants_8h.html" target="_top" xlink:title="Contains global constants for the SIM&#45;VICUS data model.">
<polygon fill="white" stroke="#666666" points="1122,-129 1015,-129 1015,-110 1122,-110 1122,-129"/>
<text text-anchor="middle" x="1068.5" y="-117" font-family="Helvetica,sans-Serif" font-size="10.00">VICUS_Constants.h</text>
</a>
</g>
</g>
<!-- Node1&#45;&gt;Node18 -->
<g id="edge22_Node000001_Node000018" class="edge">
<title>Node1&#45;&gt;Node18</title>
<g id="a_edge22_Node000001_Node000018"><a xlink:title=" ">
<path fill="none" stroke="#63b8ff" d="M909.3,-169.24C949.08,-157.06 997.85,-142.13 1030.85,-132.03"/>
<polygon fill="#63b8ff" stroke="#63b8ff" points="1032.02,-135.33 1040.56,-129.05 1029.97,-128.64 1032.02,-135.33"/>
</a>
</g>
</g>
<!-- Node19 -->
<g id="Node000019" class="node">
<title>Node19</title>
<g id="a_Node000019"><a xlink:title=" ">
<polygon fill="#e0e0e0" stroke="#999999" points="1254.5,-129 1140.5,-129 1140.5,-110 1254.5,-110 1254.5,-129"/>
<text text-anchor="middle" x="1197.5" y="-117" font-family="Helvetica,sans-Serif" font-size="10.00">NANDRAD_Utilities.h</text>
</a>
</g>
</g>
<!-- Node1&#45;&gt;Node19 -->
<g id="edge24_Node000001_Node000019" class="edge">
<title>Node1&#45;&gt;Node19</title>
<g id="a_edge24_Node000001_Node000019"><a xlink:title=" ">
<path fill="none" stroke="#63b8ff" d="M909.3,-176.76C977.43,-163.46 1081.06,-143.23 1143.73,-131"/>
<polygon fill="#63b8ff" stroke="#63b8ff" points="1144.65,-134.38 1153.8,-129.03 1143.31,-127.51 1144.65,-134.38"/>
</a>
</g>
</g>
<!-- Node20 -->
<g id="Node000020" class="node">
<title>Node20</title>
<g id="a_Node000020"><a xlink:title=" ">
<polygon fill="#e0e0e0" stroke="#999999" points="1328.5,-129 1272.5,-129 1272.5,-110 1328.5,-110 1328.5,-129"/>
<text text-anchor="middle" x="1300.5" y="-117" font-family="Helvetica,sans-Serif" font-size="10.00">tinyxml.h</text>
</a>
</g>
</g>
<!-- Node1&#45;&gt;Node20 -->
<g id="edge25_Node000001_Node000020" class="edge">
<title>Node1&#45;&gt;Node20</title>
<g id="a_edge25_Node000001_Node000020"><a xlink:title=" ">
<path fill="none" stroke="#63b8ff" d="M909.02,-181.98C990.46,-171.92 1131.67,-153.22 1262.1,-129.13"/>
<polygon fill="#63b8ff" stroke="#63b8ff" points="1263.08,-132.51 1272.27,-127.24 1261.8,-125.63 1263.08,-132.51"/>
</a>
</g>
</g>
<!-- Node3 -->
<g id="Node000003" class="node">
<title>Node3</title>
<g id="a_Node000003"><a xlink:title=" ">
<polygon fill="#e0e0e0" stroke="#999999" points="65,-74 0,-74 0,-55 65,-55 65,-74"/>
<text text-anchor="middle" x="32.5" y="-62" font-family="Helvetica,sans-Serif" font-size="10.00">IBK_Flag.h</text>
</a>
</g>
</g>
<!-- Node2&#45;&gt;Node3 -->
<g id="edge2_Node000002_Node000003" class="edge">
<title>Node2&#45;&gt;Node3</title>
<g id="a_edge2_Node000002_Node000003"><a xlink:title=" ">
<path fill="none" stroke="#63b8ff" d="M252.41,-109.98C203.79,-100.15 124.24,-84.06 75.32,-74.16"/>
<polygon fill="#63b8ff" stroke="#63b8ff" points="75.86,-70.7 65.37,-72.15 74.48,-77.56 75.86,-70.7"/>
</a>
</g>
</g>
<!-- Node4 -->
<g id="Node000004" class="node">
<title>Node4</title>
<g id="a_Node000004"><a xlink:title=" ">
<polygon fill="#e0e0e0" stroke="#999999" points="406,-19 359,-19 359,0 406,0 406,-19"/>
<text text-anchor="middle" x="382.5" y="-7" font-family="Helvetica,sans-Serif" font-size="10.00">QColor</text>
</a>
</g>
</g>
<!-- Node2&#45;&gt;Node4 -->
<g id="edge3_Node000002_Node000004" class="edge">
<title>Node2&#45;&gt;Node4</title>
<g id="a_edge3_Node000002_Node000004"><a xlink:title=" ">
<path fill="none" stroke="#63b8ff" d="M298.66,-109.74C304.96,-96.97 317.75,-72.81 332.5,-55 341.44,-44.2 353.06,-33.69 362.85,-25.61"/>
<polygon fill="#63b8ff" stroke="#63b8ff" points="365.25,-28.16 370.86,-19.17 360.87,-22.7 365.25,-28.16"/>
</a>
</g>
</g>
<!-- Node5 -->
<g id="Node000005" class="node">
<title>Node5</title>
<g id="a_Node000005"><a xlink:title=" ">
<polygon fill="#e0e0e0" stroke="#999999" points="160,-19 89,-19 89,0 160,0 160,-19"/>
<text text-anchor="middle" x="124.5" y="-7" font-family="Helvetica,sans-Serif" font-size="10.00">QQuaternion</text>
</a>
</g>
</g>
<!-- Node2&#45;&gt;Node5 -->
<g id="edge4_Node000002_Node000005" class="edge">
<title>Node2&#45;&gt;Node5</title>
<g id="a_edge4_Node000002_Node000005"><a xlink:title=" ">
<path fill="none" stroke="#63b8ff" d="M234.95,-111.87C187.86,-105.25 127.61,-93.25 112.5,-74 102.35,-61.08 107.74,-42.16 114.22,-28.33"/>
<polygon fill="#63b8ff" stroke="#63b8ff" points="117.39,-29.81 118.91,-19.32 111.18,-26.57 117.39,-29.81"/>
</a>
</g>
</g>
<!-- Node2&#45;&gt;Node6 -->
<g id="edge5_Node000002_Node000006" class="edge">
<title>Node2&#45;&gt;Node6</title>
<g id="a_edge5_Node000002_Node000006"><a xlink:title=" ">
<path fill="none" stroke="#63b8ff" d="M354.07,-115.4C387.47,-110.67 427.68,-99.56 454.5,-74 466.7,-62.37 471.82,-43.51 473.96,-29.36"/>
<polygon fill="#63b8ff" stroke="#63b8ff" points="477.46,-29.58 475.12,-19.25 470.5,-28.78 477.46,-29.58"/>
</a>
</g>
</g>
<!-- Node7 -->
<g id="Node000007" class="node">
<title>Node7</title>
<g id="a_Node000007"><a xlink:href="_v_i_c_u_s___code_gen_macros_8h.html" target="_top" xlink:title=" ">
<polygon fill="white" stroke="#666666" points="341,-19 206,-19 206,0 341,0 341,-19"/>
<text text-anchor="middle" x="273.5" y="-7" font-family="Helvetica,sans-Serif" font-size="10.00">VICUS_CodeGenMacros.h</text>
</a>
</g>
</g>
<!-- Node2&#45;&gt;Node7 -->
<g id="edge6_Node000002_Node000007" class="edge">
<title>Node2&#45;&gt;Node7</title>
<g id="a_edge6_Node000002_Node000007"><a xlink:title=" ">
<path fill="none" stroke="#63b8ff" d="M292.78,-109.66C289.38,-92.17 281.73,-52.8 277.15,-29.27"/>
<polygon fill="#63b8ff" stroke="#63b8ff" points="280.53,-28.31 275.18,-19.16 273.66,-29.64 280.53,-28.31"/>
</a>
</g>
</g>
<!-- Node8 -->
<g id="Node000008" class="node">
<title>Node8</title>
<g id="a_Node000008"><a xlink:href="_v_i_c_u_s___rotation_matrix_8h.html" target="_top" xlink:title=" ">
<polygon fill="white" stroke="#666666" points="247,-74 122,-74 122,-55 247,-55 247,-74"/>
<text text-anchor="middle" x="184.5" y="-62" font-family="Helvetica,sans-Serif" font-size="10.00">VICUS_RotationMatrix.h</text>
</a>
</g>
</g>
<!-- Node2&#45;&gt;Node8 -->
<g id="edge7_Node000002_Node000008" class="edge">
<title>Node2&#45;&gt;Node8</title>
<g id="a_edge7_Node000002_Node000008"><a xlink:title=" ">
<path fill="none" stroke="#63b8ff" d="M276.83,-109.98C259.21,-101.5 231.92,-88.35 211.57,-78.54"/>
<polygon fill="#63b8ff" stroke="#63b8ff" points="213.02,-75.36 202.49,-74.17 209.98,-81.66 213.02,-75.36"/>
</a>
</g>
</g>
<!-- Node9 -->
<g id="Node000009" class="node">
<title>Node9</title>
<g id="a_Node000009"><a xlink:href="_v_i_c_u_s___grid_plane_8h.html" target="_top" xlink:title=" ">
<polygon fill="white" stroke="#666666" points="445.5,-74 341.5,-74 341.5,-55 445.5,-55 445.5,-74"/>
<text text-anchor="middle" x="393.5" y="-62" font-family="Helvetica,sans-Serif" font-size="10.00">VICUS_GridPlane.h</text>
</a>
</g>
</g>
<!-- Node2&#45;&gt;Node9 -->
<g id="edge10_Node000002_Node000009" class="edge">
<title>Node2&#45;&gt;Node9</title>
<g id="a_edge10_Node000002_Node000009"><a xlink:title=" ">
<path fill="none" stroke="#63b8ff" d="M310.41,-109.98C326.05,-101.61 350.16,-88.7 368.38,-78.95"/>
<polygon fill="#63b8ff" stroke="#63b8ff" points="370.14,-81.98 377.3,-74.17 366.84,-75.8 370.14,-81.98"/>
</a>
</g>
</g>
<!-- Node8&#45;&gt;Node5 -->
<g id="edge8_Node000008_Node000005" class="edge">
<title>Node8&#45;&gt;Node5</title>
<g id="a_edge8_Node000008_Node000005"><a xlink:title=" ">
<path fill="none" stroke="#63b8ff" d="M174.86,-54.98C165.99,-47.15 152.63,-35.34 141.89,-25.86"/>
<polygon fill="#63b8ff" stroke="#63b8ff" points="144.13,-23.17 134.32,-19.17 139.49,-28.41 144.13,-23.17"/>
</a>
</g>
</g>
<!-- Node8&#45;&gt;Node7 -->
<g id="edge9_Node000008_Node000007" class="edge">
<title>Node8&#45;&gt;Node7</title>
<g id="a_edge9_Node000008_Node000007"><a xlink:title=" ">
<path fill="none" stroke="#63b8ff" d="M198.8,-54.98C212.6,-46.77 233.74,-34.18 250.01,-24.49"/>
<polygon fill="#63b8ff" stroke="#63b8ff" points="252.14,-27.29 258.94,-19.17 248.56,-21.28 252.14,-27.29"/>
</a>
</g>
</g>
<!-- Node9&#45;&gt;Node4 -->
<g id="edge11_Node000009_Node000004" class="edge">
<title>Node9&#45;&gt;Node4</title>
<g id="a_edge11_Node000009_Node000004"><a xlink:title=" ">
<path fill="none" stroke="#63b8ff" d="M391.68,-54.75C390.24,-47.8 388.18,-37.85 386.37,-29.13"/>
<polygon fill="#63b8ff" stroke="#63b8ff" points="389.74,-28.17 384.28,-19.09 382.89,-29.59 389.74,-28.17"/>
</a>
</g>
</g>
<!-- Node9&#45;&gt;Node6 -->
<g id="edge12_Node000009_Node000006" class="edge">
<title>Node9&#45;&gt;Node6</title>
<g id="a_edge12_Node000009_Node000006"><a xlink:title=" ">
<path fill="none" stroke="#63b8ff" d="M406.67,-54.98C419.27,-46.84 438.5,-34.41 453.44,-24.76"/>
<polygon fill="#63b8ff" stroke="#63b8ff" points="455.59,-27.54 462.09,-19.17 451.79,-21.66 455.59,-27.54"/>
</a>
</g>
</g>
<!-- Node9&#45;&gt;Node7 -->
<g id="edge13_Node000009_Node000007" class="edge">
<title>Node9&#45;&gt;Node7</title>
<g id="a_edge13_Node000009_Node000007"><a xlink:title=" ">
<path fill="none" stroke="#63b8ff" d="M374.22,-54.98C354.83,-46.42 324.69,-33.11 302.43,-23.28"/>
<polygon fill="#63b8ff" stroke="#63b8ff" points="303.69,-20.01 293.13,-19.17 300.86,-26.41 303.69,-20.01"/>
</a>
</g>
</g>
<!-- Node11 -->
<g id="Node000011" class="node">
<title>Node11</title>
<g id="a_Node000011"><a xlink:title=" ">
<polygon fill="#e0e0e0" stroke="#999999" points="581,-74 540,-74 540,-55 581,-55 581,-74"/>
<text text-anchor="middle" x="560.5" y="-62" font-family="Helvetica,sans-Serif" font-size="10.00">string</text>
</a>
</g>
</g>
<!-- Node10&#45;&gt;Node11 -->
<g id="edge15_Node000010_Node000011" class="edge">
<title>Node10&#45;&gt;Node11</title>
<g id="a_edge15_Node000010_Node000011"><a xlink:title=" ">
<path fill="none" stroke="#63b8ff" d="M602.24,-109.75C595.04,-102.11 584.39,-90.82 575.65,-81.56"/>
<polygon fill="#63b8ff" stroke="#63b8ff" points="578.01,-78.96 568.6,-74.09 572.92,-83.76 578.01,-78.96"/>
</a>
</g>
</g>
<!-- Node12 -->
<g id="Node000012" class="node">
<title>Node12</title>
<g id="a_Node000012"><a xlink:title=" ">
<polygon fill="#e0e0e0" stroke="#999999" points="650,-74 599,-74 599,-55 650,-55 650,-74"/>
<text text-anchor="middle" x="624.5" y="-62" font-family="Helvetica,sans-Serif" font-size="10.00">typeinfo</text>
</a>
</g>
</g>
<!-- Node10&#45;&gt;Node12 -->
<g id="edge16_Node000010_Node000012" class="edge">
<title>Node10&#45;&gt;Node12</title>
<g id="a_edge16_Node000010_Node000012"><a xlink:title=" ">
<path fill="none" stroke="#63b8ff" d="M612.81,-109.75C614.67,-102.72 617.34,-92.62 619.65,-83.84"/>
<polygon fill="#63b8ff" stroke="#63b8ff" points="623.06,-84.65 622.23,-74.09 616.29,-82.86 623.06,-84.65"/>
</a>
</g>
</g>
<!-- Node13 -->
<g id="Node000013" class="node">
<title>Node13</title>
<g id="a_Node000013"><a xlink:title=" ">
<polygon fill="#e0e0e0" stroke="#999999" points="759,-74 668,-74 668,-55 759,-55 759,-74"/>
<text text-anchor="middle" x="713.5" y="-62" font-family="Helvetica,sans-Serif" font-size="10.00">IBK_Parameter.h</text>
</a>
</g>
</g>
<!-- Node10&#45;&gt;Node13 -->
<g id="edge17_Node000010_Node000013" class="edge">
<title>Node10&#45;&gt;Node13</title>
<g id="a_edge17_Node000010_Node000013"><a xlink:title=" ">
<path fill="none" stroke="#63b8ff" d="M627.05,-109.98C643.39,-101.57 668.63,-88.59 687.63,-78.81"/>
<polygon fill="#63b8ff" stroke="#63b8ff" points="689.36,-81.86 696.65,-74.17 686.16,-75.63 689.36,-81.86"/>
</a>
</g>
</g>
<!-- Node14 -->
<g id="Node000014" class="node">
<title>Node14</title>
<g id="a_Node000014"><a xlink:title=" ">
<polygon fill="#e0e0e0" stroke="#999999" points="855.5,-74 777.5,-74 777.5,-55 855.5,-55 855.5,-74"/>
<text text-anchor="middle" x="816.5" y="-62" font-family="Helvetica,sans-Serif" font-size="10.00">IBK_IntPara.h</text>
</a>
</g>
</g>
<!-- Node10&#45;&gt;Node14 -->
<g id="edge18_Node000010_Node000014" class="edge">
<title>Node10&#45;&gt;Node14</title>
<g id="a_edge18_Node000010_Node000014"><a xlink:title=" ">
<path fill="none" stroke="#63b8ff" d="M643.6,-109.98C678.78,-100.93 734.57,-86.58 773.22,-76.64"/>
<polygon fill="#63b8ff" stroke="#63b8ff" points="774.33,-79.96 783.14,-74.08 772.59,-73.18 774.33,-79.96"/>
</a>
</g>
</g>
</g>
</svg>
