<?xml version="1.0" encoding="UTF-8" standalone="no"?>
<!DOCTYPE svg PUBLIC "-//W3C//DTD SVG 1.1//EN"
 "http://www.w3.org/Graphics/SVG/1.1/DTD/svg11.dtd">
<!-- Generated by graphviz version 2.43.0 (0)
 -->
<!-- Title: /home/hirth/git/SIM&#45;VICUS.master2/externals/Vicus/src/ncg/ncg_VICUS_GridPlane.cpp Pages: 1 -->
<svg width="1118pt" height="170pt"
 viewBox="0.00 0.00 1117.50 170.00" xmlns="http://www.w3.org/2000/svg" xmlns:xlink="http://www.w3.org/1999/xlink">
<g id="graph0" class="graph" transform="scale(1 1) rotate(0) translate(4 166)">
<title>/home/hirth/git/SIM&#45;VICUS.master2/externals/Vicus/src/ncg/ncg_VICUS_GridPlane.cpp</title>
<!-- Node1 -->
<g id="Node000001" class="node">
<title>Node1</title>
<g id="a_Node000001"><a xlink:title=" ">
<polygon fill="#999999" stroke="#666666" points="690,-162 555,-162 555,-110 690,-110 690,-162"/>
<text text-anchor="start" x="563" y="-150" font-family="Helvetica,sans-Serif" font-size="10.00">/home/hirth/git/SIM</text>
<text text-anchor="start" x="563" y="-139" font-family="Helvetica,sans-Serif" font-size="10.00">&#45;VICUS.master2/externals</text>
<text text-anchor="start" x="563" y="-128" font-family="Helvetica,sans-Serif" font-size="10.00">/Vicus/src/ncg/ncg_VICUS</text>
<text text-anchor="middle" x="622.5" y="-117" font-family="Helvetica,sans-Serif" font-size="10.00">_GridPlane.cpp</text>
</a>
</g>
</g>
<!-- Node2 -->
<g id="Node000002" class="node">
<title>Node2</title>
<g id="a_Node000002"><a xlink:href="_v_i_c_u_s___grid_plane_8h.html" target="_top" xlink:title=" ">
<polygon fill="white" stroke="#666666" points="215.5,-74 111.5,-74 111.5,-55 215.5,-55 215.5,-74"/>
<text text-anchor="middle" x="163.5" y="-62" font-family="Helvetica,sans-Serif" font-size="10.00">VICUS_GridPlane.h</text>
</a>
</g>
</g>
<!-- Node1&#45;&gt;Node2 -->
<g id="edge1_Node000001_Node000002" class="edge">
<title>Node1&#45;&gt;Node2</title>
<g id="a_edge1_Node000001_Node000002"><a xlink:title=" ">
<path fill="none" stroke="#63b8ff" d="M554.77,-124.75C466.11,-111.32 311.9,-87.97 225.94,-74.95"/>
<polygon fill="#63b8ff" stroke="#63b8ff" points="226.22,-71.46 215.8,-73.42 225.17,-78.38 226.22,-71.46"/>
</a>
</g>
</g>
<!-- Node4 -->
<g id="Node000004" class="node">
<title>Node4</title>
<g id="a_Node000004"><a xlink:title=" ">
<polygon fill="#e0e0e0" stroke="#999999" points="321,-19 218,-19 218,0 321,0 321,-19"/>
<text text-anchor="middle" x="269.5" y="-7" font-family="Helvetica,sans-Serif" font-size="10.00">IBKMK_Vector3D.h</text>
</a>
</g>
</g>
<!-- Node1&#45;&gt;Node4 -->
<g id="edge14_Node000001_Node000004" class="edge">
<title>Node1&#45;&gt;Node4</title>
<g id="a_edge14_Node000001_Node000004"><a xlink:title=" ">
<path fill="none" stroke="#63b8ff" d="M554.77,-133.44C491.32,-129.24 395.83,-115.74 324.5,-74 305.29,-62.76 289.44,-42.36 279.77,-27.71"/>
<polygon fill="#63b8ff" stroke="#63b8ff" points="282.62,-25.67 274.34,-19.07 276.7,-29.4 282.62,-25.67"/>
</a>
</g>
</g>
<!-- Node6 -->
<g id="Node000006" class="node">
<title>Node6</title>
<g id="a_Node000006"><a xlink:href="_v_i_c_u_s___keyword_list_8h.html" target="_top" xlink:title="Contains the declaration of class KeywordList.">
<polygon fill="white" stroke="#666666" points="449.5,-74 333.5,-74 333.5,-55 449.5,-55 449.5,-74"/>
<text text-anchor="middle" x="391.5" y="-62" font-family="Helvetica,sans-Serif" font-size="10.00">VICUS_KeywordList.h</text>
</a>
</g>
</g>
<!-- Node1&#45;&gt;Node6 -->
<g id="edge5_Node000001_Node000006" class="edge">
<title>Node1&#45;&gt;Node6</title>
<g id="a_edge5_Node000001_Node000006"><a xlink:title=" ">
<path fill="none" stroke="#63b8ff" d="M554.75,-114.62C514.1,-102.38 463.86,-87.27 429.93,-77.06"/>
<polygon fill="#63b8ff" stroke="#63b8ff" points="430.54,-73.59 419.95,-74.06 428.52,-80.29 430.54,-73.59"/>
</a>
</g>
</g>
<!-- Node11 -->
<g id="Node000011" class="node">
<title>Node11</title>
<g id="a_Node000011"><a xlink:title=" ">
<polygon fill="#e0e0e0" stroke="#999999" points="559.5,-74 467.5,-74 467.5,-55 559.5,-55 559.5,-74"/>
<text text-anchor="middle" x="513.5" y="-62" font-family="Helvetica,sans-Serif" font-size="10.00">IBK_messages.h</text>
</a>
</g>
</g>
<!-- Node1&#45;&gt;Node11 -->
<g id="edge10_Node000001_Node000011" class="edge">
<title>Node1&#45;&gt;Node11</title>
<g id="a_edge10_Node000001_Node000011"><a xlink:title=" ">
<path fill="none" stroke="#63b8ff" d="M583.15,-109.91C567.19,-99.74 549.36,-88.36 535.73,-79.68"/>
<polygon fill="#63b8ff" stroke="#63b8ff" points="537.36,-76.56 527.04,-74.14 533.59,-82.46 537.36,-76.56"/>
</a>
</g>
</g>
<!-- Node12 -->
<g id="Node000012" class="node">
<title>Node12</title>
<g id="a_Node000012"><a xlink:title=" ">
<polygon fill="#e0e0e0" stroke="#999999" points="667.5,-74 577.5,-74 577.5,-55 667.5,-55 667.5,-74"/>
<text text-anchor="middle" x="622.5" y="-62" font-family="Helvetica,sans-Serif" font-size="10.00">IBK_Exception.h</text>
</a>
</g>
</g>
<!-- Node1&#45;&gt;Node12 -->
<g id="edge11_Node000001_Node000012" class="edge">
<title>Node1&#45;&gt;Node12</title>
<g id="a_edge11_Node000001_Node000012"><a xlink:title=" ">
<path fill="none" stroke="#63b8ff" d="M622.5,-109.91C622.5,-101.55 622.5,-92.38 622.5,-84.55"/>
<polygon fill="#63b8ff" stroke="#63b8ff" points="626,-84.3 622.5,-74.3 619,-84.3 626,-84.3"/>
</a>
</g>
</g>
<!-- Node13 -->
<g id="Node000013" class="node">
<title>Node13</title>
<g id="a_Node000013"><a xlink:title=" ">
<polygon fill="#e0e0e0" stroke="#999999" points="777.5,-74 685.5,-74 685.5,-55 777.5,-55 777.5,-74"/>
<text text-anchor="middle" x="731.5" y="-62" font-family="Helvetica,sans-Serif" font-size="10.00">IBK_StringUtils.h</text>
</a>
</g>
</g>
<!-- Node1&#45;&gt;Node13 -->
<g id="edge12_Node000001_Node000013" class="edge">
<title>Node1&#45;&gt;Node13</title>
<g id="a_edge12_Node000001_Node000013"><a xlink:title=" ">
<path fill="none" stroke="#63b8ff" d="M661.85,-109.91C677.81,-99.74 695.64,-88.36 709.27,-79.68"/>
<polygon fill="#63b8ff" stroke="#63b8ff" points="711.41,-82.46 717.96,-74.14 707.64,-76.56 711.41,-82.46"/>
</a>
</g>
</g>
<!-- Node14 -->
<g id="Node000014" class="node">
<title>Node14</title>
<g id="a_Node000014"><a xlink:href="_v_i_c_u_s___constants_8h.html" target="_top" xlink:title="Contains global constants for the SIM&#45;VICUS data model.">
<polygon fill="white" stroke="#666666" points="903,-74 796,-74 796,-55 903,-55 903,-74"/>
<text text-anchor="middle" x="849.5" y="-62" font-family="Helvetica,sans-Serif" font-size="10.00">VICUS_Constants.h</text>
</a>
</g>
</g>
<!-- Node1&#45;&gt;Node14 -->
<g id="edge13_Node000001_Node000014" class="edge">
<title>Node1&#45;&gt;Node14</title>
<g id="a_edge13_Node000001_Node000014"><a xlink:title=" ">
<path fill="none" stroke="#63b8ff" d="M690.3,-114.24C730.08,-102.06 778.85,-87.13 811.85,-77.03"/>
<polygon fill="#63b8ff" stroke="#63b8ff" points="813.02,-80.33 821.56,-74.05 810.97,-73.64 813.02,-80.33"/>
</a>
</g>
</g>
<!-- Node15 -->
<g id="Node000015" class="node">
<title>Node15</title>
<g id="a_Node000015"><a xlink:title=" ">
<polygon fill="#e0e0e0" stroke="#999999" points="1035.5,-74 921.5,-74 921.5,-55 1035.5,-55 1035.5,-74"/>
<text text-anchor="middle" x="978.5" y="-62" font-family="Helvetica,sans-Serif" font-size="10.00">NANDRAD_Utilities.h</text>
</a>
</g>
</g>
<!-- Node1&#45;&gt;Node15 -->
<g id="edge15_Node000001_Node000015" class="edge">
<title>Node1&#45;&gt;Node15</title>
<g id="a_edge15_Node000001_Node000015"><a xlink:title=" ">
<path fill="none" stroke="#63b8ff" d="M690.3,-121.76C758.43,-108.46 862.06,-88.23 924.73,-76"/>
<polygon fill="#63b8ff" stroke="#63b8ff" points="925.65,-79.38 934.8,-74.03 924.31,-72.51 925.65,-79.38"/>
</a>
</g>
</g>
<!-- Node16 -->
<g id="Node000016" class="node">
<title>Node16</title>
<g id="a_Node000016"><a xlink:title=" ">
<polygon fill="#e0e0e0" stroke="#999999" points="1109.5,-74 1053.5,-74 1053.5,-55 1109.5,-55 1109.5,-74"/>
<text text-anchor="middle" x="1081.5" y="-62" font-family="Helvetica,sans-Serif" font-size="10.00">tinyxml.h</text>
</a>
</g>
</g>
<!-- Node1&#45;&gt;Node16 -->
<g id="edge16_Node000001_Node000016" class="edge">
<title>Node1&#45;&gt;Node16</title>
<g id="a_edge16_Node000001_Node000016"><a xlink:title=" ">
<path fill="none" stroke="#63b8ff" d="M690.02,-126.98C771.46,-116.92 912.67,-98.22 1043.1,-74.13"/>
<polygon fill="#63b8ff" stroke="#63b8ff" points="1044.08,-77.51 1053.27,-72.24 1042.8,-70.63 1044.08,-77.51"/>
</a>
</g>
</g>
<!-- Node3 -->
<g id="Node000003" class="node">
<title>Node3</title>
<g id="a_Node000003"><a xlink:title=" ">
<polygon fill="#e0e0e0" stroke="#999999" points="47,-19 0,-19 0,0 47,0 47,-19"/>
<text text-anchor="middle" x="23.5" y="-7" font-family="Helvetica,sans-Serif" font-size="10.00">QColor</text>
</a>
</g>
</g>
<!-- Node2&#45;&gt;Node3 -->
<g id="edge2_Node000002_Node000003" class="edge">
<title>Node2&#45;&gt;Node3</title>
<g id="a_edge2_Node000002_Node000003"><a xlink:title=" ">
<path fill="none" stroke="#63b8ff" d="M141.01,-54.98C117.98,-46.27 81.96,-32.63 55.87,-22.75"/>
<polygon fill="#63b8ff" stroke="#63b8ff" points="56.99,-19.44 46.4,-19.17 54.52,-25.98 56.99,-19.44"/>
</a>
</g>
</g>
<!-- Node2&#45;&gt;Node4 -->
<g id="edge3_Node000002_Node000004" class="edge">
<title>Node2&#45;&gt;Node4</title>
<g id="a_edge3_Node000002_Node000004"><a xlink:title=" ">
<path fill="none" stroke="#63b8ff" d="M180.53,-54.98C197.43,-46.54 223.56,-33.47 243.14,-23.68"/>
<polygon fill="#63b8ff" stroke="#63b8ff" points="244.78,-26.77 252.16,-19.17 241.65,-20.51 244.78,-26.77"/>
</a>
</g>
</g>
<!-- Node5 -->
<g id="Node000005" class="node">
<title>Node5</title>
<g id="a_Node000005"><a xlink:href="_v_i_c_u_s___code_gen_macros_8h.html" target="_top" xlink:title=" ">
<polygon fill="white" stroke="#666666" points="200,-19 65,-19 65,0 200,0 200,-19"/>
<text text-anchor="middle" x="132.5" y="-7" font-family="Helvetica,sans-Serif" font-size="10.00">VICUS_CodeGenMacros.h</text>
</a>
</g>
</g>
<!-- Node2&#45;&gt;Node5 -->
<g id="edge4_Node000002_Node000005" class="edge">
<title>Node2&#45;&gt;Node5</title>
<g id="a_edge4_Node000002_Node000005"><a xlink:title=" ">
<path fill="none" stroke="#63b8ff" d="M158.38,-54.75C154.14,-47.49 147.97,-36.95 142.72,-27.98"/>
<polygon fill="#63b8ff" stroke="#63b8ff" points="145.59,-25.95 137.52,-19.09 139.55,-29.49 145.59,-25.95"/>
</a>
</g>
</g>
<!-- Node7 -->
<g id="Node000007" class="node">
<title>Node7</title>
<g id="a_Node000007"><a xlink:title=" ">
<polygon fill="#e0e0e0" stroke="#999999" points="380,-19 339,-19 339,0 380,0 380,-19"/>
<text text-anchor="middle" x="359.5" y="-7" font-family="Helvetica,sans-Serif" font-size="10.00">string</text>
</a>
</g>
</g>
<!-- Node6&#45;&gt;Node7 -->
<g id="edge6_Node000006_Node000007" class="edge">
<title>Node6&#45;&gt;Node7</title>
<g id="a_edge6_Node000006_Node000007"><a xlink:title=" ">
<path fill="none" stroke="#63b8ff" d="M386.22,-54.75C381.79,-47.42 375.34,-36.73 369.88,-27.7"/>
<polygon fill="#63b8ff" stroke="#63b8ff" points="372.85,-25.84 364.69,-19.09 366.86,-29.46 372.85,-25.84"/>
</a>
</g>
</g>
<!-- Node8 -->
<g id="Node000008" class="node">
<title>Node8</title>
<g id="a_Node000008"><a xlink:title=" ">
<polygon fill="#e0e0e0" stroke="#999999" points="449,-19 398,-19 398,0 449,0 449,-19"/>
<text text-anchor="middle" x="423.5" y="-7" font-family="Helvetica,sans-Serif" font-size="10.00">typeinfo</text>
</a>
</g>
</g>
<!-- Node6&#45;&gt;Node8 -->
<g id="edge7_Node000006_Node000008" class="edge">
<title>Node6&#45;&gt;Node8</title>
<g id="a_edge7_Node000006_Node000008"><a xlink:title=" ">
<path fill="none" stroke="#63b8ff" d="M396.78,-54.75C401.21,-47.42 407.66,-36.73 413.12,-27.7"/>
<polygon fill="#63b8ff" stroke="#63b8ff" points="416.14,-29.46 418.31,-19.09 410.15,-25.84 416.14,-29.46"/>
</a>
</g>
</g>
<!-- Node9 -->
<g id="Node000009" class="node">
<title>Node9</title>
<g id="a_Node000009"><a xlink:title=" ">
<polygon fill="#e0e0e0" stroke="#999999" points="558,-19 467,-19 467,0 558,0 558,-19"/>
<text text-anchor="middle" x="512.5" y="-7" font-family="Helvetica,sans-Serif" font-size="10.00">IBK_Parameter.h</text>
</a>
</g>
</g>
<!-- Node6&#45;&gt;Node9 -->
<g id="edge8_Node000006_Node000009" class="edge">
<title>Node6&#45;&gt;Node9</title>
<g id="a_edge8_Node000006_Node000009"><a xlink:title=" ">
<path fill="none" stroke="#63b8ff" d="M410.94,-54.98C430.49,-46.42 460.88,-33.11 483.32,-23.28"/>
<polygon fill="#63b8ff" stroke="#63b8ff" points="484.95,-26.39 492.71,-19.17 482.14,-19.98 484.95,-26.39"/>
</a>
</g>
</g>
<!-- Node10 -->
<g id="Node000010" class="node">
<title>Node10</title>
<g id="a_Node000010"><a xlink:title=" ">
<polygon fill="#e0e0e0" stroke="#999999" points="654.5,-19 576.5,-19 576.5,0 654.5,0 654.5,-19"/>
<text text-anchor="middle" x="615.5" y="-7" font-family="Helvetica,sans-Serif" font-size="10.00">IBK_IntPara.h</text>
</a>
</g>
</g>
<!-- Node6&#45;&gt;Node10 -->
<g id="edge9_Node000006_Node000010" class="edge">
<title>Node6&#45;&gt;Node10</title>
<g id="a_edge9_Node000006_Node000010"><a xlink:title=" ">
<path fill="none" stroke="#63b8ff" d="M427.49,-54.98C465.99,-45.87 527.19,-31.4 569.24,-21.45"/>
<polygon fill="#63b8ff" stroke="#63b8ff" points="570.3,-24.79 579.23,-19.08 568.69,-17.98 570.3,-24.79"/>
</a>
</g>
</g>
</g>
</svg>
