<svg xmlns="http://www.w3.org/2000/svg" width="24" height="24" viewBox="0 0 24 24">
  <path fill="rgb(0,44,133)" fill-rule="evenodd" d="M21.85355377 16.85355377l-5 5C16.76307106 21.94403648 16.63807106 22 16.5 22h-14c-.27614236 0-.5-.22385788-.5-.5v-14c0-.13807106.05596447-.26307106.1464467-.3535533l5-5C7.23692894 2.05596447 7.36192894 2 7.5 2h14c.27614212 0 .5.22385764.5.5v14c0 .13807106-.05596352.26307106-.14644623.35355377zM16.29289246 7H8V3h12.29289246l-4 4zM7 3.70710683L3.70710683 7H7V3.70710683zm10 3.99999976V16h4V3.70710683l-4 3.99999976zM3 8h4v8.29289246l-4 4V8zm5 8V8h8v8H8zm-.29289341 1H16v4H3.70710683l3.99999976-4zM17 17h3.29289246L17 20.29289246V17z"/>
</svg>
