<svg xmlns="http://www.w3.org/2000/svg" width="24" height="24" viewBox="0 0 24 24">
  <path fill="rgb(255,170,0)" fill-rule="evenodd" d="M19.5 6c-.27614212 0-.5.2238574-.5.5v3.50427055C17.30684662 8.11055088 14.87095833 7 12.28300953 7H12c-4.78393698 0-8.7251234 3.74270344-8.98628235 8.49908638-.00651026.11857224-.010751.76403618-.01371622 1.9997139-.00066256.27614021.2226572.50053596.49879885.50119781.27614164.00066185.50053572-.22265625.50119829-.49879837.00284767-1.1866703.00725079-1.85687351.01221514-1.94728851C4.24430037 11.327013 7.74775028 8 12 8h.28300953c2.4468689 0 4.74083614 1.11670113 6.25022793 3H14.5c-.27614212 0-.5.22385788-.5.5s.22385788.5.5.5h4.9922676c.04429627.0007267.08893205-.00442314.13269425-.015728.00901604-.00232887.01799393-.00491905.02692414-.0077734.0541439-.01722908.10427856-.04344081.14866638-.07687759.05769539-.04328823.10365104-.09716892.13684845-.15719223.03330612-.05996227.0546379-.12749195.06077003-.19935894.00149727-.01717377.00211334-.03444767.00182915-.05175018V6.5c0-.2761426-.22385788-.5-.5-.5z"/>
</svg>
