<svg xmlns="http://www.w3.org/2000/svg" width="24" height="24" viewBox="0 0 24 24">
  <path fill="rgb(255,170,0)" fill-rule="evenodd" d="M11 4H4.5C3.11928797 4 2 5.11928797 2 6.5v11C2 18.8807106 3.11928797 20 4.5 20h15c1.3807125 0 2.5-1.1192894 2.5-2.5v-8C22 8.1192875 20.8807125 7 19.5 7H14c-.5522852 0-1-.44771528-1-1 0-1.10456944-.89543056-2-2-2zm10 6.4998169V9.5c0-.82842731-.67157364-1.5-1.5-1.5H14c-1.10456944 0-2-.89543056-2-2 0-.55228472-.4477148-1-1-1H4.5C3.67157292 5 3 5.67157269 3 6.5v11c0 .82842636.67157292 1.5 1.5 1.5h1c.82842731 0 1.5-.67157364 1.5-1.5v-5C7 11.1192875 8.1192875 10 9.5 10h10c.56280327 0 1.08217049.18597221 1.5.4998169zM21 12.5c0-.82842731-.67157364-1.5-1.5-1.5h-10c-.82842731 0-1.5.67157269-1.5 1.5v5c0 .56280327-.18597221 1.08216858-.4998169 1.5H19.5c.82842636 0 1.5-.67157364 1.5-1.5v-5z"/>
</svg>
