<svg xmlns="http://www.w3.org/2000/svg" width="24" height="24" viewBox="0 0 24 24">
  <path fill="rgb(0,0,0)" fill-rule="evenodd" d="M20 12c0 2.46913528-1.12682152 4.74575424-3 6.24573135V15.5c0-.27614212-.22385788-.5-.5-.5s-.5.22385788-.5.5v4.00000095c0 .27614212.22385788.5.5.5h4c.27614212 0 .5-.22385788.5-.5S20.77614212 19 20.5 19h-2.84224129C19.74491501 17.3127327 21 14.76295471 21 12c0-4.7632904-3.71146393-8.6942048-8.44361496-8.98306632-.27562904-.0168252-.51270962.19297719-.5295353.46860647-.01682472.27562928.19297696.51271033.46860696.52953553C16.7007408 4.2717762 20 7.7661128 20 12zM4 12c0-2.4692936 1.12699413-4.7459178 3-6.2457409V8.5c0 .27614212.2238574.5.5.5s.5-.22385788.5-.5v-4c0-.2761426-.2238574-.5-.5-.5h-4c-.27614236 0-.5.2238574-.5.5 0 .27614212.22385764.5.5.5h2.84222889C4.2552657 6.68710327 3 9.23687172 3 12c0 4.77846336 3.73441267 8.71693516 8.48438168 8.98546314.27570247.01558686.51183796-.19527817.52742385-.4709816.0155859-.27570343-.19527912-.511837-.4709816-.52742385C7.31964684 19.74842549 4 16.2473812 4 12z"/>
</svg>
