<svg xmlns="http://www.w3.org/2000/svg" width="24" height="24" viewBox="0 0 24 24">
  <path fill="rgb(255,170,0)" fill-rule="evenodd" d="M20 6.52797735v12.97202348c0 1.3807106-1.1192894 2.5-2.5 2.5h-11c-1.38071203 0-2.5-1.1192894-2.5-2.5V4.49999988C4 3.11928797 5.11928797 2 6.5 2h8.97202206c.1327467-.00841951.27092456.03583932.38153171.14644647l4 4.00000012c.11060715.11060714.15486527.24878454.14644623.38153076zM15 3H6.5C5.67157269 3 5 3.67157292 5 4.49999988v15.00000095c0 .82842637.67157269 1.5 1.5 1.5h11c.82842636 0 1.5-.67157363 1.5-1.5V6.99999988h-3.5c-.27614212 0-.5-.22385788-.5-.5V3zm1 2.99999988V3.70710683l2.29289246 2.29289305H16z"/>
</svg>
