<svg xmlns="http://www.w3.org/2000/svg" width="24" height="24" viewBox="0 0 24 24">
  <path fill="rgb(0,0,0)" fill-rule="evenodd" d="M12.47619048 9.14285714V3.62581603l2.0442345 2.04423473c.18596467.18596422.48747108.18596422.67343576 0 .18596467-.18596377.18596467-.48747108 0-.67343485l-2.85714286-2.85714286c-.18596468-.185964-.48747108-.185964-.67343576 0L8.80613926 4.99661591c-.18596376.18596377-.18596376.48747108 0 .67343485.18596468.18596422.48747109.18596422.67343576 0l2.0442345-2.04423473v5.51704111c0 .2629925.21319798.47619048.47619048.47619048s.47619048-.21319798.47619048-.47619048zm-6.80613972 5.37756784l-2.04423473-2.0442345h5.51704111c.2629925 0 .47619048-.21319798.47619048-.47619048s-.21319798-.47619048-.47619048-.47619048H3.62581603l2.04423473-2.0442345c.18596422-.18596467.18596422-.48747108 0-.67343576-.18596377-.18596376-.48747108-.18596376-.67343485 0l-2.85714286 2.85714286c-.185964.18596468-.185964.48747108 0 .67343576l2.85714286 2.85714286c.18596377.18596467.48747108.18596467.67343485 0 .18596422-.18596468.18596422-.48747109 0-.67343576zm14.70413253-2.99661546l-2.0442345-2.0442345c-.18596286-.18596467-.18596286-.48747108 0-.67343576.18596467-.18596376.48747108-.18596376.67343575 0l2.85714286 2.85714286c.18596468.18596468.18596468.48747108 0 .67343576l-2.85714286 2.85714286c-.18596467.18596467-.48747108.18596467-.67343575 0-.18596286-.18596468-.18596286-.48747109 0-.67343576l2.0442345-2.0442345h-5.51704043c-.2629925 0-.47619048-.21319798-.47619048-.47619048s.21319798-.47619048.47619048-.47619048h5.51704043zm-5.85375831 6.80613927l-2.0442345 2.0442345v-5.51704043c0-.2629925-.21319798-.47619048-.47619048-.47619048s-.47619048.21319798-.47619048.47619048v5.51704043l-2.0442345-2.0442345c-.18596467-.18596286-.48747108-.18596286-.67343576 0-.18596376.18596467-.18596376.48747108 0 .67343575l2.85714286 2.85714286c.18596468.18596468.48747108.18596468.67343576 0l2.85714286-2.85714286c.18596467-.18596467.18596467-.48747108 0-.67343575-.18596468-.18596286-.48747109-.18596286-.67343576 0z"/>
</svg>
