<svg xmlns="http://www.w3.org/2000/svg" width="24" height="24" viewBox="0 0 24 24">
  <path fill="rgb(0,0,0)" fill-rule="evenodd" d="M10.14644623 14.85355377l1.13329601 1.13329601c-1.03616333-.0379734-2.02074718-.15696334-2.9254942-.34109783C8.12791062 14.53363705 8 13.30089188 8 12s.12791061-2.5336361.35424805-3.64575195C9.4663639 8.1279106 10.69910812 8 12 8c5.00420189 0 9 1.89274597 9 4 0 1.0221262-.96632957 2.0550108-2.71270752 2.82917309-.25244904.11190986-.36637878.40728092-.25446892.6597309.11190987.25245.40728188.36637975.65973091.25446988C20.76111603 14.82638931 22 13.50217724 22 12c0-2.86330986-4.51079178-5-10-5-1.18700314 0-2.3282547.09991407-3.38803482.28548336C9.33747482 4.70639133 10.6229353 3 12 3c1.0221262 0 2.0550108.9663291 2.82917309 2.71270704.11190986.25244952.40728092.36637974.6597309.25446987.25245-.11190986.36637975-.4072814.25446988-.65973138C14.82638931 3.2388835 13.50217724 2 12 2 9.97580528 2 8.31475258 4.2543459 7.5150261 7.5150261 4.2543459 8.31475257 2 9.97580527 2 12c0 2.02419376 2.2543459 3.68524742 5.5150261 4.4849739C8.31475257 19.74565507 9.97580527 22 12 22c2.74139023 0 4.81672287-4.13483238 4.98848724-9.30440617l1.15795899 1.15795994c.1952629.19526196.51184463.19526196.70710754 0 .195261-.1952629.195261-.51184463 0-.70710754l-2-2c-.1952629-.19526196-.51184463-.19526196-.70710754 0l-2 2c-.19526196.1952629-.19526196.51184463 0 .70710754.1952629.19526196.51184463.19526196.70710754 0l1.13329601-1.13329601C15.8160019 17.3821907 14.00510883 21 12 21c-1.3770647 0-2.66252518-1.70639229-3.38803482-4.28548431.85110283.14903068 1.7547493.24281692 2.69244099.27397155l-1.15795994 1.15795899c-.19526196.1952629-.19526196.51184463 0 .70710754.1952629.195261.51184463.195261.70710754 0l2-2c.19526196-.1952629.19526196-.51184463 0-.70710754l-2-2c-.1952629-.19526196-.51184463-.19526196-.70710754 0-.19526196.1952629-.19526196.51184463 0 .70710754zM3 12c0-1.3770647 1.70639133-2.66252518 4.28548336-3.38803482C7.09991407 9.67174625 7 10.81299686 7 12c0 1.18700314.09991407 2.3282547.28548336 3.38803482C4.70639133 14.66252518 3 13.3770647 3 12z"/>
</svg>
