<svg xmlns="http://www.w3.org/2000/svg" width="24" height="24" viewBox="0 0 24 24">
  <path fill="rgb(255,170,0)" fill-rule="evenodd" d="M5.5 3C4.11928797 3 3 4.11928797 3 5.5v13C3 19.8807125 4.11928797 21 5.5 21h13c1.3807125 0 2.5-1.1192875 2.5-2.5v-12c0-.13260841-.05267906-.25978518-.14644623-.3535533l-3-3C17.7597847 3.05267835 17.63260841 3 17.5 3h-12zM7 20v-7.5c0-.27614212.22385788-.5.5-.5h9c.27614212 0 .5.22385788.5.5V20h1.5c.82842636 0 1.5-.67157364 1.5-1.5V6.70710659L17.29289246 4H15v3.5c0 .27614212-.22385788.5-.5.5h-8c-.27614212 0-.5-.22385788-.5-.5V4h-.5C4.67157269 4 4 4.67157269 4 5.5v13c0 .82842636.67157269 1.5 1.5 1.5H7zM7 4h5v3H7V4zm6 3h1V4h-1v3zm-5 6v7h8v-7H8z"/>
</svg>
