<svg xmlns="http://www.w3.org/2000/svg" width="24" height="24" viewBox="0 0 24 24">
  <path fill="rgb(0,0,0)" fill-rule="evenodd" d="M5.8535533 3.8535533c-.19526196.19526243-.51184464.19526243-.7071066 0-.19526243-.19526196-.19526243-.51184464 0-.7071066l1-1c.00070668-.00070714.00141573-.00141191.0021267-.00211453.0456171-.04507637.0998621-.08144069.16003513-.1063931C6.36756182 2.01349258 6.4322052 2 6.5 2s.1324377.01349258.191391.03793907c.06017303.02495241.11441802.06131673.16003512.1063931.00071097.00070262.0014205.00140762.00212718.00211453l1 1c.19526243.19526196.19526243.51184464 0 .7071066-.19526196.19526243-.51184464.19526243-.7071066 0L7 3.70710659V6h2.29289341l-.14644718-.1464467c-.19526196-.19526196-.19526196-.51184464 0-.7071066.1952629-.19526243.51184463-.19526243.70710754 0l1 1c.04605389.04605437.08316612.10105086.10850716.16216183.02154732.05196095.03458404.10834217.03737354.1674056C10.99981022 6.48396207 11 6.4919591 11 6.5l-.00000858.0029993c-.00038243.06412936-.01302624.12819958-.0379305.18839217-.02439975.05897283-.0605688.11422348-.10850715.16216183l-1 1c-.1952629.19526243-.51184463.19526243-.70710754 0-.19526196-.19526196-.19526196-.51184464 0-.7071066L9.2928934 7H7v2.29289341l.1464467-.14644718c.19526196-.19526196.51184464-.19526196.7071066 0 .19526243.1952629.19526243.51184463 0 .70710754l-1 1c-.09686804.09686852-.2235942.14568043-.350554.14643765L6.5 11l-.0029993-.00000858c-.06670237-.00039196-.13030911-.0138445-.18839217-.0379305-.05897283-.02439975-.11422348-.0605688-.16216183-.10850715l-1-1c-.19526243-.1952629-.19526243-.51184463 0-.70710754.19526196-.19526196.51184464-.19526196.7071066 0L6 9.2928934V7H3.70710659l.1464467.1464467c.19526244.19526196.19526244.51184464 0 .7071066-.19526195.19526243-.51184463.19526243-.70710659 0l-1-1c-.00070738-.00070763-.00141215-.00141669-.00211453-.00212718-.04688883-.0474429-.08235311-.10193252-.10639286-.16003513C2.01349258 6.63243771 2 6.5677948 2 6.5c0-.0677948.01349258-.13243818.03793907-.19139147.02495241-.06017303.06131673-.11441803.1063931-.16003513.00070262-.00071097.00140739-.00142002.0021143-.0021267l.00026536-.00026512.99973487-.99973488c.19526196-.19526243.51184464-.19526243.7071066 0 .19526243.19526196.19526243.51184464 0 .7071066L3.70710659 6H6V3.70710659l-.1464467.1464467zM18.5 9c.69173622 0 1.27410889.46823597 1.44746017 1.10505009C20.11845017 10.03725719 20.30487442 10 20.5 10c.82842636 0 1.5.67157269 1.5 1.5v4c0 3.03756714-2.46243286 5.5-5.5 5.5-1.41570663 0-2.7578783-.63045692-3.66177559-1.72004318l-4.4134674-5.32012749c-.44863797-.540802-.54092265-1.29347706-.23622418-1.92664528l.03569889-.07418156C8.50634861 11.37275982 9.0994072 11 9.75 11c.6015768 0 1.18411446.21090794 1.64625835.59602737l.92383385.76986218c.17587566.14656353.43726444.12280083.58382893-.0530758C12.9660015 12.23831655 13 12.1444111 13 12.04743768V5.5c0-.82842731.67157269-1.5 1.5-1.5s1.5.67157269 1.5 1.5v2.5853529C16.15638924 8.03007698 16.32468224 8 16.5 8c.69173622 0 1.27410889.46823597 1.44745445 1.10504627C18.11845016 9.0372572 18.30487442 9 18.5 9zM14 12.04743767V5.5c0-.27614212.22385788-.5.5-.5s.5.22385788.5.5v7c0 .27614212.22385788.5.5.5s.5-.22385788.5-.5v-3c0-.27614212.22385788-.5.5-.5s.5.22385788.5.5v3c0 .27614212.22385788.5.5.5s.5-.22385788.5-.5v-2c0-.27614212.22385788-.5.5-.5s.5.22385788.5.5v2c0 .27614212.22385788.5.5.5s.5-.22385788.5-.5v-1c0-.27614212.22385788-.5.5-.5s.5.22385788.5.5v4c0 2.485281-2.0147171 4.5-4.5 4.5-1.11815071 0-2.17822075-.49794579-2.89213562-1.3585205l-4.4134674-5.3201275c-.19898701-.2398653-.23991776-.57370376-.10477353-.85453605l.0356989-.07418251C9.24082564 12.15261459 9.48363494 12 9.75 12c.36763954 0 .72364521.128891 1.00607395.36424923l.92383385.76986122c.60015297.5001278 1.49210644.41904163 1.99223423-.18111229C13.88398552 12.69878578 14 12.37834836 14 12.04743766z"/>
</svg>
