<svg xmlns="http://www.w3.org/2000/svg" width="24" height="24" viewBox="0 0 24 24">
  <path fill="rgb(255,170,0)" fill-rule="evenodd" d="M9.94999123 7C9.71835518 8.14111996 8.70947838 9 7.5 9c-1.20947886 0-2.21835613-.85888004-2.44999123-2H3.5c-.27614236 0-.5-.22385788-.5-.5s.22385764-.5.5-.5h1.55000877C5.28164387 4.85888004 6.29052114 4 7.5 4c1.20947838 0 2.21835518.85888004 2.44999123 2H20.5c.27614212 0 .5.22385788.5.5s-.22385788.5-.5.5H9.94999123zM9 6.5C9 7.32842731 8.32842731 8 7.5 8S6 7.32842731 6 6.5 6.67157269 5 7.5 5 9 5.67157269 9 6.5zm7.5 7.5c1.20948029 0 2.21835709-.85888004 2.44999123-2H20.5c.27614212 0 .5-.22385788.5-.5s-.22385788-.5-.5-.5h-1.55000877C18.71835709 9.85888004 17.70948029 9 16.5 9c-1.20947933 0-2.21835613.85888004-2.44999123 2H3.5c-.27614236 0-.5.22385788-.5.5s.22385764.5.5.5h10.55000877c.2316351 1.14111996 1.2405119 2 2.44999123 2zm0-1c.82842636 0 1.5-.67157269 1.5-1.5s-.67157364-1.5-1.5-1.5c-.82842731 0-1.5.67157269-1.5 1.5s.67157269 1.5 1.5 1.5zm-6 6c1.20947933 0 2.21835613-.85887909 2.44999123-2H20.5c.27614212 0 .5-.22385788.5-.5s-.22385788-.5-.5-.5h-7.55000877c-.2316351-1.14111996-1.2405119-2-2.44999123-2-1.20947838 0-2.21835518.85888004-2.44999123 2H3.5c-.27614236 0-.5.22385788-.5.5s.22385764.5.5.5h4.55000877C8.28164482 18.14112091 9.29052162 19 10.5 19zm1.5-2.5c0 .82842636-.67157269 1.5-1.5 1.5S9 17.32842636 9 16.5c0-.82842731.67157269-1.5 1.5-1.5s1.5.67157269 1.5 1.5z"/>
</svg>
