<svg xmlns="http://www.w3.org/2000/svg" width="24" height="24" viewBox="0 0 24 24">
  <path fill="rgb(0,0,0)" fill-rule="evenodd" d="M3.5 6c.27614236 0 .5-.22385788.5-.5C4 4.67157269 4.67157269 4 5.5 4c.27614212 0 .5-.22385764.5-.5 0-.27614236-.22385788-.5-.5-.5C4.11928797 3 3 4.11928797 3 5.5c0 .27614212.22385764.5.5.5zm5-2c-.27614212 0-.5-.22385764-.5-.5 0-.27614236.22385788-.5.5-.5h2c.27614212 0 .5.22385764.5.5 0 .27614236-.22385788.5-.5.5h-2zm4.5-.5c0 .27614236.22385788.5.5.5h2c.27614212 0 .5-.22385764.5-.5 0-.27614236-.22385788-.5-.5-.5h-2c-.27614212 0-.5.22385764-.5.5zm5.5.5c-.27614212 0-.5-.22385764-.5-.5 0-.27614236.22385788-.5.5-.5C19.8807125 3 21 4.11928797 21 5.5c0 .27614212-.22385788.5-.5.5s-.5-.22385788-.5-.5c0-.82842731-.67157364-1.5-1.5-1.5zM8 10.5V7.70710659l1.14644623 1.14644718c.1952629.19526196.51184463.19526196.70710754 0 .19526196-.1952629.19526196-.51184463 0-.70710754L7.8535533 6.1464467c-.19526196-.19526243-.51184464-.19526243-.7071066 0l-2 1.99999953c-.19526243.1952629-.19526243.51184463 0 .70710754.19526196.19526196.51184464.19526196.7071066 0L7 7.7071066V10.5c0 .27614212.22385788.5.5.5s.5-.22385788.5-.5zM3.5 8c-.27614236 0-.5.22385788-.5.5v2c0 .27614212.22385764.5.5.5.27614236 0 .5-.22385788.5-.5v-2c0-.27614212-.22385764-.5-.5-.5zm17 0c-.27614212 0-.5.22385788-.5.5v2c0 .27614212.22385788.5.5.5s.5-.22385788.5-.5v-2c0-.27614212-.22385788-.5-.5-.5zM3 14.5C3 13.11928844 4.11928797 12 5.5 12h4c1.3807125 0 2.5 1.11928844 2.5 2.5v4c0 1.3807125-1.1192875 2.5-2.5 2.5h-4C4.11928797 21 3 19.8807125 3 18.5v-4zm1 0v4c0 .82842636.67157269 1.5 1.5 1.5h4c.82842731 0 1.5-.67157364 1.5-1.5v-4c0-.82842731-.67157269-1.5-1.5-1.5h-4c-.82842731 0-1.5.67157269-1.5 1.5zm16-1c0-.27614212.22385788-.5.5-.5s.5.22385788.5.5v2c0 .27614212-.22385788.5-.5.5s-.5-.22385788-.5-.5v-2zM16.29289246 16l-1.14644623-1.14644623c-.19526196-.1952629-.19526196-.51184463 0-.70710754.1952629-.19526196.51184463-.19526196.70710754 0l2 2c.19526291.1952629.19526291.51184463 0 .70710754l-2 2c-.1952629.19526291-.51184463.19526291-.70710754 0-.19526196-.1952629-.19526196-.51184463 0-.70710754L16.29289246 17H13.5c-.27614212 0-.5-.22385788-.5-.5s.22385788-.5.5-.5h2.79289246zM20.5 18c-.27614212 0-.5.22385788-.5.5 0 .82842636-.67157364 1.5-1.5 1.5-.27614212 0-.5.22385788-.5.5s.22385788.5.5.5c1.3807125 0 2.5-1.1192875 2.5-2.5 0-.27614212-.22385788-.5-.5-.5zm-5 3h-2c-.27614212 0-.5-.22385788-.5-.5s.22385788-.5.5-.5h2c.27614212 0 .5.22385788.5.5s-.22385788.5-.5.5z"/>
</svg>
