<svg xmlns="http://www.w3.org/2000/svg" width="24" height="24" viewBox="0 0 24 24">
  <path fill="rgb(0,0,0)" fill-rule="evenodd" d="M4 7.5V4.70710659l5.14644623 5.14644718c.1952629.19526196.51184463.19526196.70710754 0 .19526196-.1952629.19526196-.51184463 0-.70710754L4.7071066 4H7.5c.2761426 0 .5-.22385764.5-.5 0-.27614236-.2238574-.5-.5-.5h-4c-.27614236 0-.5.22385764-.5.5v4c0 .2761426.22385764.5.5.5.27614236 0 .5-.2238574.5-.5zM16.5 4h2.79289246l-5.14644623 5.14644623c-.19526196.1952629-.19526196.51184463 0 .70710754.1952629.19526196.51184463.19526196.70710754 0L20 4.7071066v2.8240223c0 .2761426.22385788.5.5.5s.5-.2238574.5-.5V3.5c0-.27614236-.22385788-.5-.5-.5h-4c-.27614212 0-.5.22385764-.5.5 0 .27614236.22385788.5.5.5zM4.70710659 20H7.5c.2761426 0 .5.22385788.5.5s-.2238574.5-.5.5h-4c-.27614236 0-.5-.22385788-.5-.5v-4c0-.27614212.22385764-.5.5-.5.27614236 0 .5.22385788.5.5v2.79289246l5.14644623-5.14644623c.1952629-.19526196.51184463-.19526196.70710754 0 .19526196.1952629.19526196.51184463 0 .70710754L4.7071066 20zM20 16.5v2.79289246l-5.14644623-5.14644623c-.1952629-.19526196-.51184463-.19526196-.70710754 0-.19526196.1952629-.19526196.51184463 0 .70710754L19.29289246 20H16.5c-.27614212 0-.5.22385788-.5.5s.22385788.5.5.5h4c.27614212 0 .5-.22385788.5-.5v-4c0-.27614212-.22385788-.5-.5-.5s-.5.22385788-.5.5z"/>
</svg>
