<svg xmlns="http://www.w3.org/2000/svg" width="24" height="24" viewBox="0 0 24 24">
  <path fill="rgb(255,170,0)" fill-rule="evenodd" d="M8.99999976 11.5c0-.27614212-.22385788-.5-.5-.5h-4.0332377c1.50939227-1.88329887 3.80335928-3 6.25022817-3h.28300953c4.25224972 0 7.75569916 3.32701302 7.98778534 7.5539112.00496483.09041501.0093689.76061822.01221657 1.94728852.00066185.27614212.2250557.49946022.50119781.49879837.27614212-.00066185.49946213-.2250576.49879837-.50119781-.00296402-1.23567772-.00720596-1.88114166-.01371574-1.9997139C19.72512412 10.74270344 15.78393721 7 10.99999976 7h-.28300953C8.12904143 7 5.69315243 8.11055088 4 10.00427055V6.5c0-.2761426-.22385764-.5-.5-.5-.27614236 0-.5.2238574-.5.5v4.99133396c-.00143409.08753872.0201478.1743393.0625987.25109482.03319645.0600233.07915474.113904.13684774.15719318.04819417.03630257.10316467.06408978.16267657.08112622.0478754.01375675.0969472.02005005.14560962.01925182h4.99226713c.27614212 0 .5-.22385788.5-.5z"/>
</svg>
