<?xml version="1.0" encoding="UTF-8" standalone="no"?>
<!DOCTYPE svg PUBLIC "-//W3C//DTD SVG 1.1//EN"
 "http://www.w3.org/Graphics/SVG/1.1/DTD/svg11.dtd">
<!-- Generated by graphviz version 6.0.1 (20220911.1526)
 -->
<!-- Title: Beziehungen Pages: 1 -->
<svg width="1785pt" height="476pt"
 viewBox="0.00 0.00 1784.50 476.00" xmlns="http://www.w3.org/2000/svg" xmlns:xlink="http://www.w3.org/1999/xlink">
<g id="graph0" class="graph" transform="scale(1 1) rotate(0) translate(4 472)">
<title>Beziehungen</title>
<polygon fill="white" stroke="none" points="-4,4 -4,-472 1780.5,-472 1780.5,4 -4,4"/>
<!-- RoomStatesModel -->
<g id="node1" class="node">
<title>RoomStatesModel</title>
<ellipse fill="none" stroke="black" cx="1016.98" cy="-90" rx="79.09" ry="18"/>
<text text-anchor="middle" x="1016.98" y="-86.3" font-family="Times New Roman,serif" font-size="14.00">RoomStatesModel</text>
</g>
<!-- y -->
<g id="node2" class="node">
<title>y</title>
<ellipse fill="none" stroke="black" cx="1016.98" cy="-18" rx="27" ry="18"/>
<text text-anchor="middle" x="1016.98" y="-14.3" font-family="Times New Roman,serif" font-size="14.00">y</text>
</g>
<!-- RoomStatesModel&#45;&gt;y -->
<g id="edge1" class="edge">
<title>RoomStatesModel&#45;&gt;y</title>
<path fill="none" stroke="black" d="M1016.98,-71.7C1016.98,-63.98 1016.98,-54.71 1016.98,-46.11"/>
<polygon fill="black" stroke="black" points="1020.48,-46.1 1016.98,-36.1 1013.48,-46.1 1020.48,-46.1"/>
</g>
<!-- ConstructionStatesModel -->
<g id="node3" class="node">
<title>ConstructionStatesModel</title>
<ellipse fill="none" stroke="black" cx="1320.98" cy="-162" rx="103.18" ry="18"/>
<text text-anchor="middle" x="1320.98" y="-158.3" font-family="Times New Roman,serif" font-size="14.00">ConstructionStatesModel</text>
</g>
<!-- ConstructionStatesModel&#45;&gt;y -->
<g id="edge2" class="edge">
<title>ConstructionStatesModel&#45;&gt;y</title>
<path fill="none" stroke="black" d="M1286.7,-144.99C1226.96,-117.08 1104.7,-59.97 1047.61,-33.31"/>
<polygon fill="black" stroke="black" points="1048.93,-30.06 1038.39,-29 1045.97,-36.4 1048.93,-30.06"/>
</g>
<!-- ThermalNetworkStatesModel -->
<g id="node4" class="node">
<title>ThermalNetworkStatesModel</title>
<ellipse fill="none" stroke="black" cx="513.98" cy="-90" rx="116.98" ry="18"/>
<text text-anchor="middle" x="513.98" y="-86.3" font-family="Times New Roman,serif" font-size="14.00">ThermalNetworkStatesModel</text>
</g>
<!-- ThermalNetworkStatesModel&#45;&gt;y -->
<g id="edge3" class="edge">
<title>ThermalNetworkStatesModel&#45;&gt;y</title>
<path fill="none" stroke="black" d="M597.61,-77.36C708.96,-61.87 901.11,-35.12 980.77,-24.04"/>
<polygon fill="black" stroke="black" points="981.38,-27.49 990.8,-22.64 980.41,-20.56 981.38,-27.49"/>
</g>
<!-- NaturalVentilationModel -->
<g id="node5" class="node">
<title>NaturalVentilationModel</title>
<ellipse fill="none" stroke="black" cx="961.98" cy="-234" rx="98.58" ry="18"/>
<text text-anchor="middle" x="961.98" y="-230.3" font-family="Times New Roman,serif" font-size="14.00">NaturalVentilationModel</text>
</g>
<!-- NaturalVentilationModel&#45;&gt;RoomStatesModel -->
<g id="edge4" class="edge">
<title>NaturalVentilationModel&#45;&gt;RoomStatesModel</title>
<path fill="none" stroke="black" d="M968.62,-215.87C978.07,-191.46 995.51,-146.43 1006.67,-117.64"/>
<polygon fill="black" stroke="black" points="1009.98,-118.78 1010.32,-108.19 1003.45,-116.25 1009.98,-118.78"/>
</g>
<!-- ThermalComfortModel -->
<g id="node6" class="node">
<title>ThermalComfortModel</title>
<ellipse fill="none" stroke="black" cx="1205.98" cy="-234" rx="94.78" ry="18"/>
<text text-anchor="middle" x="1205.98" y="-230.3" font-family="Times New Roman,serif" font-size="14.00">ThermalComfortModel</text>
</g>
<!-- ThermalComfortModel&#45;&gt;RoomStatesModel -->
<g id="edge5" class="edge">
<title>ThermalComfortModel&#45;&gt;RoomStatesModel</title>
<path fill="none" stroke="black" d="M1183.93,-216.43C1150.07,-190.99 1085.21,-142.26 1047.06,-113.6"/>
<polygon fill="black" stroke="black" points="1048.99,-110.67 1038.89,-107.46 1044.79,-116.27 1048.99,-110.67"/>
</g>
<!-- ThermalComfortModel&#45;&gt;ConstructionStatesModel -->
<g id="edge10" class="edge">
<title>ThermalComfortModel&#45;&gt;ConstructionStatesModel</title>
<path fill="none" stroke="black" d="M1232.95,-216.59C1248.41,-207.18 1268.01,-195.24 1284.8,-185.02"/>
<polygon fill="black" stroke="black" points="1287.07,-187.74 1293.79,-179.55 1283.43,-181.76 1287.07,-187.74"/>
</g>
<!-- ThermostatModel -->
<g id="node7" class="node">
<title>ThermostatModel</title>
<ellipse fill="none" stroke="black" cx="391.98" cy="-162" rx="75.29" ry="18"/>
<text text-anchor="middle" x="391.98" y="-158.3" font-family="Times New Roman,serif" font-size="14.00">ThermostatModel</text>
</g>
<!-- ThermostatModel&#45;&gt;RoomStatesModel -->
<g id="edge6" class="edge">
<title>ThermostatModel&#45;&gt;RoomStatesModel</title>
<path fill="none" stroke="black" d="M452.9,-151.31C469.75,-148.77 488.06,-146.15 504.98,-144 656.05,-124.83 832.85,-107.7 934.2,-98.38"/>
<polygon fill="black" stroke="black" points="934.73,-101.85 944.37,-97.45 934.09,-94.88 934.73,-101.85"/>
</g>
<!-- WindowModel -->
<g id="node8" class="node">
<title>WindowModel</title>
<ellipse fill="none" stroke="black" cx="1518.98" cy="-234" rx="65.79" ry="18"/>
<text text-anchor="middle" x="1518.98" y="-230.3" font-family="Times New Roman,serif" font-size="14.00">WindowModel</text>
</g>
<!-- WindowModel&#45;&gt;RoomStatesModel -->
<g id="edge7" class="edge">
<title>WindowModel&#45;&gt;RoomStatesModel</title>
<path fill="none" stroke="black" d="M1510.83,-215.9C1499.91,-195.07 1478.44,-160.6 1448.98,-144 1391.93,-111.85 1214.08,-98.94 1105.17,-93.95"/>
<polygon fill="black" stroke="black" points="1105.33,-90.46 1095.18,-93.51 1105.02,-97.45 1105.33,-90.46"/>
</g>
<!-- WindowModel&#45;&gt;ConstructionStatesModel -->
<g id="edge11" class="edge">
<title>WindowModel&#45;&gt;ConstructionStatesModel</title>
<path fill="none" stroke="black" d="M1480.34,-219.34C1450.12,-208.65 1407.77,-193.68 1374.33,-181.86"/>
<polygon fill="black" stroke="black" points="1375.3,-178.49 1364.7,-178.46 1372.96,-185.09 1375.3,-178.49"/>
</g>
<!-- ConstructionBalanceModel -->
<g id="node9" class="node">
<title>ConstructionBalanceModel</title>
<ellipse fill="none" stroke="black" cx="1458.98" cy="-378" rx="109.68" ry="18"/>
<text text-anchor="middle" x="1458.98" y="-374.3" font-family="Times New Roman,serif" font-size="14.00">ConstructionBalanceModel</text>
</g>
<!-- ConstructionBalanceModel&#45;&gt;RoomStatesModel -->
<g id="edge8" class="edge">
<title>ConstructionBalanceModel&#45;&gt;RoomStatesModel</title>
<path fill="none" stroke="black" d="M1565.18,-373.14C1644.65,-367.76 1743.93,-354.87 1769.98,-324 1780.3,-311.77 1776.4,-302.66 1769.98,-288 1751.06,-244.78 1732.02,-240.96 1691.98,-216 1616.76,-169.11 1592.11,-164.95 1505.98,-144 1368.55,-110.56 1204.25,-98.21 1105.38,-93.65"/>
<polygon fill="black" stroke="black" points="1105.28,-90.14 1095.13,-93.2 1104.97,-97.14 1105.28,-90.14"/>
</g>
<!-- ConstructionBalanceModel&#45;&gt;ConstructionStatesModel -->
<g id="edge12" class="edge">
<title>ConstructionBalanceModel&#45;&gt;ConstructionStatesModel</title>
<path fill="none" stroke="black" d="M1558.75,-370.45C1626.43,-363.68 1707.4,-350.24 1728.98,-324 1739.15,-311.64 1736.84,-301.94 1728.98,-288 1698.63,-234.15 1667.78,-237.94 1609.98,-216 1549.36,-192.99 1477.68,-179.76 1420.88,-172.28"/>
<polygon fill="black" stroke="black" points="1421.18,-168.79 1410.81,-170.99 1420.29,-175.73 1421.18,-168.79"/>
</g>
<!-- ConstructionBalanceModel&#45;&gt;WindowModel -->
<g id="edge21" class="edge">
<title>ConstructionBalanceModel&#45;&gt;WindowModel</title>
<path fill="none" stroke="black" d="M1548.84,-367.55C1604.89,-359.59 1669.58,-345.92 1686.98,-324 1720.04,-282.38 1645.03,-257.9 1584.83,-245.47"/>
<polygon fill="black" stroke="black" points="1585.43,-242.02 1574.94,-243.51 1584.06,-248.89 1585.43,-242.02"/>
</g>
<!-- ThermalNetworkBalanceModel -->
<g id="node10" class="node">
<title>ThermalNetworkBalanceModel</title>
<ellipse fill="none" stroke="black" cx="749.98" cy="-306" rx="123.48" ry="18"/>
<text text-anchor="middle" x="749.98" y="-302.3" font-family="Times New Roman,serif" font-size="14.00">ThermalNetworkBalanceModel</text>
</g>
<!-- ConstructionBalanceModel&#45;&gt;ThermalNetworkBalanceModel -->
<g id="edge32" class="edge">
<title>ConstructionBalanceModel&#45;&gt;ThermalNetworkBalanceModel</title>
<path fill="none" stroke="black" d="M1367.38,-367.96C1237.1,-355.09 998.65,-331.55 859.29,-317.79"/>
<polygon fill="black" stroke="black" points="859.31,-314.28 849.02,-316.78 858.63,-321.24 859.31,-314.28"/>
</g>
<!-- IdealPipeRegisterModel -->
<g id="node11" class="node">
<title>IdealPipeRegisterModel</title>
<ellipse fill="none" stroke="black" cx="715.98" cy="-234" rx="97.48" ry="18"/>
<text text-anchor="middle" x="715.98" y="-230.3" font-family="Times New Roman,serif" font-size="14.00">IdealPipeRegisterModel</text>
</g>
<!-- ConstructionBalanceModel&#45;&gt;IdealPipeRegisterModel -->
<g id="edge31" class="edge">
<title>ConstructionBalanceModel&#45;&gt;IdealPipeRegisterModel</title>
<path fill="none" stroke="black" d="M1536.06,-365.17C1559.89,-357.49 1583.62,-344.84 1597.98,-324 1607.06,-310.82 1609.03,-299.58 1597.98,-288 1568.81,-257.41 880.07,-255.92 837.98,-252 825.09,-250.8 811.47,-249.21 798.18,-247.5"/>
<polygon fill="black" stroke="black" points="798.48,-244 788.11,-246.16 797.56,-250.94 798.48,-244"/>
</g>
<!-- IdealSurfaceHeatingCoolingModel -->
<g id="node14" class="node">
<title>IdealSurfaceHeatingCoolingModel</title>
<ellipse fill="none" stroke="black" cx="440.98" cy="-306" rx="135.68" ry="18"/>
<text text-anchor="middle" x="440.98" y="-302.3" font-family="Times New Roman,serif" font-size="14.00">IdealSurfaceHeatingCoolingModel</text>
</g>
<!-- ConstructionBalanceModel&#45;&gt;IdealSurfaceHeatingCoolingModel -->
<g id="edge30" class="edge">
<title>ConstructionBalanceModel&#45;&gt;IdealSurfaceHeatingCoolingModel</title>
<path fill="none" stroke="black" d="M1355.32,-372.05C1194.07,-364.01 873.46,-346.72 601.98,-324 585.48,-322.62 568.04,-320.97 550.97,-319.26"/>
<polygon fill="black" stroke="black" points="551.28,-315.77 540.97,-318.24 550.57,-322.73 551.28,-315.77"/>
</g>
<!-- RoomRadiationLoadsModel -->
<g id="node15" class="node">
<title>RoomRadiationLoadsModel</title>
<ellipse fill="none" stroke="black" cx="1458.98" cy="-306" rx="114.28" ry="18"/>
<text text-anchor="middle" x="1458.98" y="-302.3" font-family="Times New Roman,serif" font-size="14.00">RoomRadiationLoadsModel</text>
</g>
<!-- ConstructionBalanceModel&#45;&gt;RoomRadiationLoadsModel -->
<g id="edge28" class="edge">
<title>ConstructionBalanceModel&#45;&gt;RoomRadiationLoadsModel</title>
<path fill="none" stroke="black" d="M1458.98,-359.7C1458.98,-351.98 1458.98,-342.71 1458.98,-334.11"/>
<polygon fill="black" stroke="black" points="1462.48,-334.1 1458.98,-324.1 1455.48,-334.1 1462.48,-334.1"/>
</g>
<!-- InternalLoadsModel -->
<g id="node17" class="node">
<title>InternalLoadsModel</title>
<ellipse fill="none" stroke="black" cx="1210.98" cy="-306" rx="83.69" ry="18"/>
<text text-anchor="middle" x="1210.98" y="-302.3" font-family="Times New Roman,serif" font-size="14.00">InternalLoadsModel</text>
</g>
<!-- ConstructionBalanceModel&#45;&gt;InternalLoadsModel -->
<g id="edge29" class="edge">
<title>ConstructionBalanceModel&#45;&gt;InternalLoadsModel</title>
<path fill="none" stroke="black" d="M1406.39,-362.15C1366.24,-350.82 1310.94,-335.21 1269.42,-323.49"/>
<polygon fill="black" stroke="black" points="1270.29,-320.1 1259.71,-320.75 1268.38,-326.84 1270.29,-320.1"/>
</g>
<!-- ThermalNetworkBalanceModel&#45;&gt;RoomStatesModel -->
<g id="edge9" class="edge">
<title>ThermalNetworkBalanceModel&#45;&gt;RoomStatesModel</title>
<path fill="none" stroke="black" d="M678.29,-291.33C624.94,-277.82 565.85,-253.65 593.98,-216 635.77,-160.08 832.56,-120.41 942.4,-102.21"/>
<polygon fill="black" stroke="black" points="943.12,-105.64 952.42,-100.57 941.99,-98.73 943.12,-105.64"/>
</g>
<!-- ThermalNetworkBalanceModel&#45;&gt;ConstructionStatesModel -->
<g id="edge13" class="edge">
<title>ThermalNetworkBalanceModel&#45;&gt;ConstructionStatesModel</title>
<path fill="none" stroke="black" d="M862.35,-298.53C1025.56,-288.57 1310.58,-268.89 1325.98,-252 1340.99,-235.55 1337.55,-209.46 1331.65,-189.78"/>
<polygon fill="black" stroke="black" points="1334.92,-188.53 1328.43,-180.16 1328.28,-190.75 1334.92,-188.53"/>
</g>
<!-- HydraulicNetworkModel -->
<g id="node12" class="node">
<title>HydraulicNetworkModel</title>
<ellipse fill="none" stroke="black" cx="161.98" cy="-234" rx="100.98" ry="18"/>
<text text-anchor="middle" x="161.98" y="-230.3" font-family="Times New Roman,serif" font-size="14.00">HydraulicNetworkModel</text>
</g>
<!-- ThermalNetworkBalanceModel&#45;&gt;HydraulicNetworkModel -->
<g id="edge33" class="edge">
<title>ThermalNetworkBalanceModel&#45;&gt;HydraulicNetworkModel</title>
<path fill="none" stroke="black" d="M657.78,-294.02C547.3,-280.87 363.35,-258.97 253.27,-245.87"/>
<polygon fill="black" stroke="black" points="253.53,-242.37 243.18,-244.67 252.7,-249.32 253.53,-242.37"/>
</g>
<!-- IdealPipeRegisterModel&#45;&gt;ConstructionStatesModel -->
<g id="edge14" class="edge">
<title>IdealPipeRegisterModel&#45;&gt;ConstructionStatesModel</title>
<path fill="none" stroke="black" d="M790.46,-222.27C806.14,-220.11 822.6,-217.92 837.98,-216 971.59,-199.36 1126.34,-182.87 1223.93,-172.81"/>
<polygon fill="black" stroke="black" points="1224.49,-176.27 1234.08,-171.77 1223.77,-169.31 1224.49,-176.27"/>
</g>
<!-- IdealPipeRegisterModel&#45;&gt;ThermostatModel -->
<g id="edge18" class="edge">
<title>IdealPipeRegisterModel&#45;&gt;ThermostatModel</title>
<path fill="none" stroke="black" d="M655.04,-219.83C598.23,-207.56 513.82,-189.32 456.04,-176.84"/>
<polygon fill="black" stroke="black" points="456.44,-173.35 445.93,-174.65 454.96,-180.19 456.44,-173.35"/>
</g>
<!-- HydraulicNetworkModel&#45;&gt;ThermalNetworkStatesModel -->
<g id="edge15" class="edge">
<title>HydraulicNetworkModel&#45;&gt;ThermalNetworkStatesModel</title>
<path fill="none" stroke="black" d="M181.75,-216C206.1,-195.91 249.48,-162.85 291.98,-144 333.23,-125.71 381.7,-113.21 422.81,-104.96"/>
<polygon fill="black" stroke="black" points="423.68,-108.36 432.82,-103.01 422.34,-101.49 423.68,-108.36"/>
</g>
<!-- HydraulicNetworkModel&#45;&gt;ThermostatModel -->
<g id="edge16" class="edge">
<title>HydraulicNetworkModel&#45;&gt;ThermostatModel</title>
<path fill="none" stroke="black" d="M210.76,-218.15C247.8,-206.88 298.74,-191.38 337.19,-179.68"/>
<polygon fill="black" stroke="black" points="338.63,-182.9 347.18,-176.64 336.59,-176.2 338.63,-182.9"/>
</g>
<!-- IdealHeatingCoolingModel -->
<g id="node13" class="node">
<title>IdealHeatingCoolingModel</title>
<ellipse fill="none" stroke="black" cx="146.98" cy="-306" rx="107.78" ry="18"/>
<text text-anchor="middle" x="146.98" y="-302.3" font-family="Times New Roman,serif" font-size="14.00">IdealHeatingCoolingModel</text>
</g>
<!-- IdealHeatingCoolingModel&#45;&gt;ThermostatModel -->
<g id="edge17" class="edge">
<title>IdealHeatingCoolingModel&#45;&gt;ThermostatModel</title>
<path fill="none" stroke="black" d="M199.19,-290.2C226.66,-281.24 260.29,-268.36 287.98,-252 318.64,-233.88 349.04,-206.48 368.98,-186.87"/>
<polygon fill="black" stroke="black" points="371.49,-189.31 376.09,-179.77 366.54,-184.36 371.49,-189.31"/>
</g>
<!-- IdealSurfaceHeatingCoolingModel&#45;&gt;ThermostatModel -->
<g id="edge19" class="edge">
<title>IdealSurfaceHeatingCoolingModel&#45;&gt;ThermostatModel</title>
<path fill="none" stroke="black" d="M435.07,-287.87C426.68,-263.56 411.24,-218.82 401.3,-190.01"/>
<polygon fill="black" stroke="black" points="404.48,-188.5 397.91,-180.19 397.87,-190.78 404.48,-188.5"/>
</g>
<!-- RoomRadiationLoadsModel&#45;&gt;WindowModel -->
<g id="edge20" class="edge">
<title>RoomRadiationLoadsModel&#45;&gt;WindowModel</title>
<path fill="none" stroke="black" d="M1473.51,-288.05C1480.88,-279.46 1489.96,-268.86 1498.07,-259.4"/>
<polygon fill="black" stroke="black" points="1500.74,-261.66 1504.59,-251.79 1495.43,-257.1 1500.74,-261.66"/>
</g>
<!-- RoomBalanceModel -->
<g id="node16" class="node">
<title>RoomBalanceModel</title>
<ellipse fill="none" stroke="black" cx="999.98" cy="-378" rx="85.29" ry="18"/>
<text text-anchor="middle" x="999.98" y="-374.3" font-family="Times New Roman,serif" font-size="14.00">RoomBalanceModel</text>
</g>
<!-- RoomBalanceModel&#45;&gt;NaturalVentilationModel -->
<g id="edge24" class="edge">
<title>RoomBalanceModel&#45;&gt;NaturalVentilationModel</title>
<path fill="none" stroke="black" d="M995.4,-359.87C988.89,-335.56 976.92,-290.82 969.21,-262.01"/>
<polygon fill="black" stroke="black" points="972.55,-260.94 966.58,-252.19 965.79,-262.75 972.55,-260.94"/>
</g>
<!-- RoomBalanceModel&#45;&gt;WindowModel -->
<g id="edge22" class="edge">
<title>RoomBalanceModel&#45;&gt;WindowModel</title>
<path fill="none" stroke="black" d="M1013.47,-360.18C1031.29,-339.3 1064.79,-304.43 1101.98,-288 1230.07,-231.42 1276.29,-271.3 1414.98,-252 1427.98,-250.19 1441.86,-248.06 1455.1,-245.93"/>
<polygon fill="black" stroke="black" points="1455.77,-249.37 1465.08,-244.31 1454.65,-242.46 1455.77,-249.37"/>
</g>
<!-- RoomBalanceModel&#45;&gt;ThermalNetworkBalanceModel -->
<g id="edge27" class="edge">
<title>RoomBalanceModel&#45;&gt;ThermalNetworkBalanceModel</title>
<path fill="none" stroke="black" d="M950.89,-363.25C911.84,-352.32 856.88,-336.93 814.32,-325.01"/>
<polygon fill="black" stroke="black" points="815.18,-321.62 804.61,-322.3 813.3,-328.36 815.18,-321.62"/>
</g>
<!-- RoomBalanceModel&#45;&gt;IdealHeatingCoolingModel -->
<g id="edge26" class="edge">
<title>RoomBalanceModel&#45;&gt;IdealHeatingCoolingModel</title>
<path fill="none" stroke="black" d="M918.88,-372.45C785.44,-364.65 511.32,-347.28 279.98,-324 266.38,-322.63 252.01,-320.99 237.95,-319.29"/>
<polygon fill="black" stroke="black" points="238.14,-315.78 227.79,-318.03 237.28,-322.73 238.14,-315.78"/>
</g>
<!-- RoomBalanceModel&#45;&gt;RoomRadiationLoadsModel -->
<g id="edge23" class="edge">
<title>RoomBalanceModel&#45;&gt;RoomRadiationLoadsModel</title>
<path fill="none" stroke="black" d="M1066.73,-366.82C1146.69,-354.63 1280.96,-334.15 1369.77,-320.61"/>
<polygon fill="black" stroke="black" points="1370.47,-324.04 1379.83,-319.07 1369.42,-317.12 1370.47,-324.04"/>
</g>
<!-- RoomBalanceModel&#45;&gt;InternalLoadsModel -->
<g id="edge25" class="edge">
<title>RoomBalanceModel&#45;&gt;InternalLoadsModel</title>
<path fill="none" stroke="black" d="M1043.7,-362.5C1076.8,-351.51 1122.43,-336.38 1157.67,-324.69"/>
<polygon fill="black" stroke="black" points="1158.93,-327.96 1167.32,-321.49 1156.73,-321.31 1158.93,-327.96"/>
</g>
<!-- HeatLoadSummationModel -->
<g id="node18" class="node">
<title>HeatLoadSummationModel</title>
<ellipse fill="none" stroke="black" cx="293.98" cy="-378" rx="110.48" ry="18"/>
<text text-anchor="middle" x="293.98" y="-374.3" font-family="Times New Roman,serif" font-size="14.00">HeatLoadSummationModel</text>
</g>
<!-- HeatLoadSummationModel&#45;&gt;ThermalNetworkBalanceModel -->
<g id="edge37" class="edge">
<title>HeatLoadSummationModel&#45;&gt;ThermalNetworkBalanceModel</title>
<path fill="none" stroke="black" d="M371.34,-365.13C450.69,-352.94 574.12,-334 658.33,-321.07"/>
<polygon fill="black" stroke="black" points="659.04,-324.5 668.4,-319.52 657.98,-317.58 659.04,-324.5"/>
</g>
<!-- HeatLoadSummationModel&#45;&gt;IdealPipeRegisterModel -->
<g id="edge35" class="edge">
<title>HeatLoadSummationModel&#45;&gt;IdealPipeRegisterModel</title>
<path fill="none" stroke="black" d="M185.73,-374.32C84.85,-368.14 -42.2,-348.59 13.98,-288 33.99,-266.43 421.06,-247.32 611.69,-239.18"/>
<polygon fill="black" stroke="black" points="611.89,-242.67 621.73,-238.75 611.59,-235.68 611.89,-242.67"/>
</g>
<!-- HeatLoadSummationModel&#45;&gt;IdealHeatingCoolingModel -->
<g id="edge34" class="edge">
<title>HeatLoadSummationModel&#45;&gt;IdealHeatingCoolingModel</title>
<path fill="none" stroke="black" d="M259.89,-360.76C239.11,-350.87 212.36,-338.13 190.12,-327.54"/>
<polygon fill="black" stroke="black" points="191.43,-324.29 180.89,-323.15 188.42,-330.61 191.43,-324.29"/>
</g>
<!-- HeatLoadSummationModel&#45;&gt;IdealSurfaceHeatingCoolingModel -->
<g id="edge36" class="edge">
<title>HeatLoadSummationModel&#45;&gt;IdealSurfaceHeatingCoolingModel</title>
<path fill="none" stroke="black" d="M328.08,-360.76C348.63,-350.98 375.03,-338.41 397.13,-327.88"/>
<polygon fill="black" stroke="black" points="398.78,-330.97 406.31,-323.51 395.78,-324.65 398.78,-330.97"/>
</g>
<!-- NetworkInterfaceAdapterModel -->
<g id="node19" class="node">
<title>NetworkInterfaceAdapterModel</title>
<ellipse fill="none" stroke="black" cx="293.98" cy="-450" rx="126.18" ry="18"/>
<text text-anchor="middle" x="293.98" y="-446.3" font-family="Times New Roman,serif" font-size="14.00">NetworkInterfaceAdapterModel</text>
</g>
<!-- NetworkInterfaceAdapterModel&#45;&gt;HeatLoadSummationModel -->
<g id="edge38" class="edge">
<title>NetworkInterfaceAdapterModel&#45;&gt;HeatLoadSummationModel</title>
<path fill="none" stroke="black" d="M293.98,-431.7C293.98,-423.98 293.98,-414.71 293.98,-406.11"/>
<polygon fill="black" stroke="black" points="297.48,-406.1 293.98,-396.1 290.48,-406.1 297.48,-406.1"/>
</g>
<!-- ydot -->
<g id="node20" class="node">
<title>ydot</title>
<ellipse fill="none" stroke="black" cx="999.98" cy="-450" rx="27.1" ry="18"/>
<text text-anchor="middle" x="999.98" y="-446.3" font-family="Times New Roman,serif" font-size="14.00">ydot</text>
</g>
<!-- ydot&#45;&gt;ConstructionBalanceModel -->
<g id="edge40" class="edge">
<title>ydot&#45;&gt;ConstructionBalanceModel</title>
<path fill="none" stroke="black" d="M1026.31,-444.99C1091.91,-434.98 1265.02,-408.58 1371.33,-392.37"/>
<polygon fill="black" stroke="black" points="1372.04,-395.8 1381.4,-390.83 1370.99,-388.88 1372.04,-395.8"/>
</g>
<!-- ydot&#45;&gt;ThermalNetworkBalanceModel -->
<g id="edge41" class="edge">
<title>ydot&#45;&gt;ThermalNetworkBalanceModel</title>
<path fill="none" stroke="black" d="M977.68,-439.19C955.18,-429.07 919.62,-412.49 889.98,-396 852.51,-375.16 811.27,-348.45 783.32,-329.76"/>
<polygon fill="black" stroke="black" points="784.99,-326.66 774.73,-323.99 781.08,-332.47 784.99,-326.66"/>
</g>
<!-- ydot&#45;&gt;RoomBalanceModel -->
<g id="edge39" class="edge">
<title>ydot&#45;&gt;RoomBalanceModel</title>
<path fill="none" stroke="black" d="M999.98,-431.7C999.98,-423.98 999.98,-414.71 999.98,-406.11"/>
<polygon fill="black" stroke="black" points="1003.48,-406.1 999.98,-396.1 996.48,-406.1 1003.48,-406.1"/>
</g>
</g>
</svg>
