<?xml version="1.0" encoding="UTF-8" standalone="no"?>
<!DOCTYPE svg PUBLIC "-//W3C//DTD SVG 1.1//EN"
 "http://www.w3.org/Graphics/SVG/1.1/DTD/svg11.dtd">
<!-- Generated by graphviz version 6.0.1 (20220911.1526)
 -->
<!-- Title: Beziehungen Pages: 1 -->
<svg width="1957pt" height="476pt"
 viewBox="0.00 0.00 1956.59 476.00" xmlns="http://www.w3.org/2000/svg" xmlns:xlink="http://www.w3.org/1999/xlink">
<g id="graph0" class="graph" transform="scale(1 1) rotate(0) translate(4 472)">
<title>Beziehungen</title>
<polygon fill="white" stroke="none" points="-4,4 -4,-472 1952.59,-472 1952.59,4 -4,4"/>
<!-- RoomStatesModel -->
<g id="node1" class="node">
<title>RoomStatesModel</title>
<ellipse fill="none" stroke="black" cx="1289.8" cy="-90" rx="79.09" ry="18"/>
<text text-anchor="middle" x="1289.8" y="-86.3" font-family="Times New Roman,serif" font-size="14.00">RoomStatesModel</text>
</g>
<!-- y -->
<g id="node2" class="node">
<title>y</title>
<ellipse fill="none" stroke="black" cx="947.8" cy="-18" rx="27" ry="18"/>
<text text-anchor="middle" x="947.8" y="-14.3" font-family="Times New Roman,serif" font-size="14.00">y</text>
</g>
<!-- RoomStatesModel&#45;&gt;y -->
<g id="edge1" class="edge">
<title>RoomStatesModel&#45;&gt;y</title>
<path fill="none" stroke="black" d="M1232.94,-77.36C1161.98,-62.84 1042.77,-38.44 983.5,-26.31"/>
<polygon fill="black" stroke="black" points="983.99,-22.84 973.49,-24.26 982.59,-29.69 983.99,-22.84"/>
</g>
<!-- ConstructionStatesModel -->
<g id="node3" class="node">
<title>ConstructionStatesModel</title>
<ellipse fill="none" stroke="black" cx="947.8" cy="-162" rx="103.18" ry="18"/>
<text text-anchor="middle" x="947.8" y="-158.3" font-family="Times New Roman,serif" font-size="14.00">ConstructionStatesModel</text>
</g>
<!-- ConstructionStatesModel&#45;&gt;y -->
<g id="edge2" class="edge">
<title>ConstructionStatesModel&#45;&gt;y</title>
<path fill="none" stroke="black" d="M947.8,-143.87C947.8,-119.67 947.8,-75.21 947.8,-46.39"/>
<polygon fill="black" stroke="black" points="951.3,-46.19 947.8,-36.19 944.3,-46.19 951.3,-46.19"/>
</g>
<!-- ThermalNetworkStatesModel -->
<g id="node4" class="node">
<title>ThermalNetworkStatesModel</title>
<ellipse fill="none" stroke="black" cx="711.8" cy="-90" rx="116.98" ry="18"/>
<text text-anchor="middle" x="711.8" y="-86.3" font-family="Times New Roman,serif" font-size="14.00">ThermalNetworkStatesModel</text>
</g>
<!-- ThermalNetworkStatesModel&#45;&gt;y -->
<g id="edge3" class="edge">
<title>ThermalNetworkStatesModel&#45;&gt;y</title>
<path fill="none" stroke="black" d="M763.01,-73.81C808.78,-60.24 874.53,-40.73 914.02,-29.02"/>
<polygon fill="black" stroke="black" points="915.11,-32.35 923.7,-26.15 913.12,-25.64 915.11,-32.35"/>
</g>
<!-- ConstructionBalanceModel -->
<g id="node5" class="node">
<title>ConstructionBalanceModel</title>
<ellipse fill="none" stroke="black" cx="1146.8" cy="-378" rx="109.68" ry="18"/>
<text text-anchor="middle" x="1146.8" y="-374.3" font-family="Times New Roman,serif" font-size="14.00">ConstructionBalanceModel</text>
</g>
<!-- ConstructionBalanceModel&#45;&gt;RoomStatesModel -->
<g id="edge11" class="edge">
<title>ConstructionBalanceModel&#45;&gt;RoomStatesModel</title>
<path fill="none" stroke="black" d="M1154.66,-359.77C1164.41,-340.09 1182.72,-308.01 1206.8,-288 1237.72,-262.3 1261.24,-280.3 1289.8,-252 1325.36,-216.76 1335.23,-192.23 1321.8,-144 1319.13,-134.42 1314.21,-124.84 1309.02,-116.51"/>
<polygon fill="black" stroke="black" points="1311.82,-114.41 1303.36,-108.03 1305.99,-118.29 1311.82,-114.41"/>
</g>
<!-- ConstructionBalanceModel&#45;&gt;ConstructionStatesModel -->
<g id="edge15" class="edge">
<title>ConstructionBalanceModel&#45;&gt;ConstructionStatesModel</title>
<path fill="none" stroke="black" d="M1122.24,-360.39C1090.86,-338.3 1036.16,-296.82 998.8,-252 982.78,-232.78 968.98,-207.85 959.79,-189.26"/>
<polygon fill="black" stroke="black" points="962.91,-187.68 955.42,-180.19 956.6,-190.71 962.91,-187.68"/>
</g>
<!-- Loads -->
<g id="node6" class="node">
<title>Loads</title>
<ellipse fill="none" stroke="black" cx="1525.8" cy="-162" rx="33.6" ry="18"/>
<text text-anchor="middle" x="1525.8" y="-158.3" font-family="Times New Roman,serif" font-size="14.00">Loads</text>
</g>
<!-- ConstructionBalanceModel&#45;&gt;Loads -->
<g id="edge4" class="edge">
<title>ConstructionBalanceModel&#45;&gt;Loads</title>
<path fill="none" stroke="black" d="M1167.82,-360.11C1193.66,-340.13 1239.56,-307.17 1283.8,-288 1345.12,-261.43 1370.98,-283.73 1429.8,-252 1460.53,-235.43 1488.94,-206.7 1506.76,-186.37"/>
<polygon fill="black" stroke="black" points="1509.42,-188.64 1513.27,-178.77 1504.11,-184.08 1509.42,-188.64"/>
</g>
<!-- WindowModel -->
<g id="node8" class="node">
<title>WindowModel</title>
<ellipse fill="none" stroke="black" cx="1635.8" cy="-234" rx="65.79" ry="18"/>
<text text-anchor="middle" x="1635.8" y="-230.3" font-family="Times New Roman,serif" font-size="14.00">WindowModel</text>
</g>
<!-- ConstructionBalanceModel&#45;&gt;WindowModel -->
<g id="edge24" class="edge">
<title>ConstructionBalanceModel&#45;&gt;WindowModel</title>
<path fill="none" stroke="black" d="M1187.41,-361.22C1237.35,-342.2 1324.95,-310.04 1401.8,-288 1459.55,-271.44 1526.51,-256.71 1573.97,-247.01"/>
<polygon fill="black" stroke="black" points="1574.68,-250.44 1583.79,-245.02 1573.29,-243.58 1574.68,-250.44"/>
</g>
<!-- ThermalNetworkBalanceModel -->
<g id="node11" class="node">
<title>ThermalNetworkBalanceModel</title>
<ellipse fill="none" stroke="black" cx="845.8" cy="-306" rx="123.48" ry="18"/>
<text text-anchor="middle" x="845.8" y="-302.3" font-family="Times New Roman,serif" font-size="14.00">ThermalNetworkBalanceModel</text>
</g>
<!-- ConstructionBalanceModel&#45;&gt;ThermalNetworkBalanceModel -->
<g id="edge35" class="edge">
<title>ConstructionBalanceModel&#45;&gt;ThermalNetworkBalanceModel</title>
<path fill="none" stroke="black" d="M1086.25,-362.92C1037.81,-351.65 969.72,-335.82 918.36,-323.87"/>
<polygon fill="black" stroke="black" points="918.86,-320.4 908.32,-321.54 917.27,-327.21 918.86,-320.4"/>
</g>
<!-- IdealPipeRegisterModel -->
<g id="node12" class="node">
<title>IdealPipeRegisterModel</title>
<ellipse fill="none" stroke="black" cx="318.8" cy="-234" rx="97.48" ry="18"/>
<text text-anchor="middle" x="318.8" y="-230.3" font-family="Times New Roman,serif" font-size="14.00">IdealPipeRegisterModel</text>
</g>
<!-- ConstructionBalanceModel&#45;&gt;IdealPipeRegisterModel -->
<g id="edge34" class="edge">
<title>ConstructionBalanceModel&#45;&gt;IdealPipeRegisterModel</title>
<path fill="none" stroke="black" d="M1037.08,-376.65C864.72,-374.81 539.12,-365.7 431.8,-324 395.93,-310.07 362.31,-280.67 341.22,-259.46"/>
<polygon fill="black" stroke="black" points="343.51,-256.8 334.03,-252.07 338.49,-261.68 343.51,-256.8"/>
</g>
<!-- IdealSurfaceHeatingCoolingModel -->
<g id="node15" class="node">
<title>IdealSurfaceHeatingCoolingModel</title>
<ellipse fill="none" stroke="black" cx="168.8" cy="-306" rx="135.68" ry="18"/>
<text text-anchor="middle" x="168.8" y="-302.3" font-family="Times New Roman,serif" font-size="14.00">IdealSurfaceHeatingCoolingModel</text>
</g>
<!-- ConstructionBalanceModel&#45;&gt;IdealSurfaceHeatingCoolingModel -->
<g id="edge33" class="edge">
<title>ConstructionBalanceModel&#45;&gt;IdealSurfaceHeatingCoolingModel</title>
<path fill="none" stroke="black" d="M1044.55,-371.3C891.75,-362.54 594.8,-344.61 342.8,-324 323.39,-322.41 302.78,-320.55 282.79,-318.66"/>
<polygon fill="black" stroke="black" points="283.01,-315.16 272.72,-317.69 282.34,-322.13 283.01,-315.16"/>
</g>
<!-- RoomRadiationLoadsModel -->
<g id="node16" class="node">
<title>RoomRadiationLoadsModel</title>
<ellipse fill="none" stroke="black" cx="1758.8" cy="-306" rx="114.28" ry="18"/>
<text text-anchor="middle" x="1758.8" y="-302.3" font-family="Times New Roman,serif" font-size="14.00">RoomRadiationLoadsModel</text>
</g>
<!-- ConstructionBalanceModel&#45;&gt;RoomRadiationLoadsModel -->
<g id="edge31" class="edge">
<title>ConstructionBalanceModel&#45;&gt;RoomRadiationLoadsModel</title>
<path fill="none" stroke="black" d="M1235.75,-367.3C1330.84,-356.88 1486.02,-339.67 1619.8,-324 1633.4,-322.41 1647.75,-320.69 1661.85,-318.98"/>
<polygon fill="black" stroke="black" points="1662.56,-322.42 1672.06,-317.75 1661.71,-315.48 1662.56,-322.42"/>
</g>
<!-- InternalLoadsModel -->
<g id="node18" class="node">
<title>InternalLoadsModel</title>
<ellipse fill="none" stroke="black" cx="1510.8" cy="-306" rx="83.69" ry="18"/>
<text text-anchor="middle" x="1510.8" y="-302.3" font-family="Times New Roman,serif" font-size="14.00">InternalLoadsModel</text>
</g>
<!-- ConstructionBalanceModel&#45;&gt;InternalLoadsModel -->
<g id="edge32" class="edge">
<title>ConstructionBalanceModel&#45;&gt;InternalLoadsModel</title>
<path fill="none" stroke="black" d="M1215.26,-363.83C1279.58,-351.47 1375.39,-333.04 1440.34,-320.55"/>
<polygon fill="black" stroke="black" points="1441.33,-323.92 1450.49,-318.6 1440.01,-317.05 1441.33,-323.92"/>
</g>
<!-- NaturalVentilationModel -->
<g id="node7" class="node">
<title>NaturalVentilationModel</title>
<ellipse fill="none" stroke="black" cx="1849.8" cy="-234" rx="98.58" ry="18"/>
<text text-anchor="middle" x="1849.8" y="-230.3" font-family="Times New Roman,serif" font-size="14.00">NaturalVentilationModel</text>
</g>
<!-- NaturalVentilationModel&#45;&gt;RoomStatesModel -->
<g id="edge7" class="edge">
<title>NaturalVentilationModel&#45;&gt;RoomStatesModel</title>
<path fill="none" stroke="black" d="M1818.36,-216.9C1777.72,-196.77 1704.27,-162.71 1637.8,-144 1549.35,-119.11 1444.75,-105.17 1373.49,-97.91"/>
<polygon fill="black" stroke="black" points="1373.52,-94.4 1363.22,-96.89 1372.82,-101.36 1373.52,-94.4"/>
</g>
<!-- NaturalVentilationModel&#45;&gt;Loads -->
<g id="edge5" class="edge">
<title>NaturalVentilationModel&#45;&gt;Loads</title>
<path fill="none" stroke="black" d="M1788.48,-219.75C1723.36,-205.68 1622.3,-183.85 1566.42,-171.78"/>
<polygon fill="black" stroke="black" points="1567.04,-168.33 1556.53,-169.64 1565.56,-175.17 1567.04,-168.33"/>
</g>
<!-- WindowModel&#45;&gt;RoomStatesModel -->
<g id="edge10" class="edge">
<title>WindowModel&#45;&gt;RoomStatesModel</title>
<path fill="none" stroke="black" d="M1630.9,-215.88C1624.08,-195.36 1609.69,-161.55 1584.8,-144 1551.44,-120.48 1448.19,-105.89 1373.24,-98.11"/>
<polygon fill="black" stroke="black" points="1373.16,-94.58 1362.86,-97.05 1372.45,-101.55 1373.16,-94.58"/>
</g>
<!-- WindowModel&#45;&gt;ConstructionStatesModel -->
<g id="edge14" class="edge">
<title>WindowModel&#45;&gt;ConstructionStatesModel</title>
<path fill="none" stroke="black" d="M1575.35,-226.85C1455.99,-214.71 1189.14,-187.56 1044.86,-172.88"/>
<polygon fill="black" stroke="black" points="1044.99,-169.37 1034.68,-171.84 1044.28,-176.33 1044.99,-169.37"/>
</g>
<!-- WindowModel&#45;&gt;Loads -->
<g id="edge6" class="edge">
<title>WindowModel&#45;&gt;Loads</title>
<path fill="none" stroke="black" d="M1611.11,-217.29C1594.61,-206.79 1572.8,-192.91 1555.37,-181.82"/>
<polygon fill="black" stroke="black" points="1557.02,-178.72 1546.7,-176.3 1553.26,-184.63 1557.02,-178.72"/>
</g>
<!-- ThermalComfortModel -->
<g id="node9" class="node">
<title>ThermalComfortModel</title>
<ellipse fill="none" stroke="black" cx="1118.8" cy="-234" rx="94.78" ry="18"/>
<text text-anchor="middle" x="1118.8" y="-230.3" font-family="Times New Roman,serif" font-size="14.00">ThermalComfortModel</text>
</g>
<!-- ThermalComfortModel&#45;&gt;RoomStatesModel -->
<g id="edge8" class="edge">
<title>ThermalComfortModel&#45;&gt;RoomStatesModel</title>
<path fill="none" stroke="black" d="M1139.09,-216.15C1169.64,-190.78 1227.53,-142.71 1261.99,-114.09"/>
<polygon fill="black" stroke="black" points="1264.35,-116.69 1269.8,-107.61 1259.87,-111.3 1264.35,-116.69"/>
</g>
<!-- ThermalComfortModel&#45;&gt;ConstructionStatesModel -->
<g id="edge13" class="edge">
<title>ThermalComfortModel&#45;&gt;ConstructionStatesModel</title>
<path fill="none" stroke="black" d="M1080.85,-217.46C1055.79,-207.21 1022.73,-193.67 995.84,-182.66"/>
<polygon fill="black" stroke="black" points="996.82,-179.28 986.23,-178.73 994.16,-185.76 996.82,-179.28"/>
</g>
<!-- ThermostatModel -->
<g id="node10" class="node">
<title>ThermostatModel</title>
<ellipse fill="none" stroke="black" cx="491.8" cy="-162" rx="75.29" ry="18"/>
<text text-anchor="middle" x="491.8" y="-158.3" font-family="Times New Roman,serif" font-size="14.00">ThermostatModel</text>
</g>
<!-- ThermostatModel&#45;&gt;RoomStatesModel -->
<g id="edge9" class="edge">
<title>ThermostatModel&#45;&gt;RoomStatesModel</title>
<path fill="none" stroke="black" d="M561.22,-154.91C708.06,-142.03 1049.57,-112.07 1207.27,-98.24"/>
<polygon fill="black" stroke="black" points="1207.73,-101.71 1217.38,-97.35 1207.12,-94.74 1207.73,-101.71"/>
</g>
<!-- ThermalNetworkBalanceModel&#45;&gt;RoomStatesModel -->
<g id="edge12" class="edge">
<title>ThermalNetworkBalanceModel&#45;&gt;RoomStatesModel</title>
<path fill="none" stroke="black" d="M951.23,-296.6C1060.08,-287.01 1217.06,-270.27 1238.8,-252 1278.36,-218.74 1287.62,-154.96 1289.55,-118.45"/>
<polygon fill="black" stroke="black" points="1293.06,-118.18 1289.94,-108.06 1286.07,-117.92 1293.06,-118.18"/>
</g>
<!-- ThermalNetworkBalanceModel&#45;&gt;ConstructionStatesModel -->
<g id="edge16" class="edge">
<title>ThermalNetworkBalanceModel&#45;&gt;ConstructionStatesModel</title>
<path fill="none" stroke="black" d="M858.1,-287.87C875.87,-263.14 908.84,-217.24 929.47,-188.51"/>
<polygon fill="black" stroke="black" points="932.46,-190.35 935.45,-180.19 926.78,-186.27 932.46,-190.35"/>
</g>
<!-- HydraulicNetworkModel -->
<g id="node13" class="node">
<title>HydraulicNetworkModel</title>
<ellipse fill="none" stroke="black" cx="668.8" cy="-234" rx="100.98" ry="18"/>
<text text-anchor="middle" x="668.8" y="-230.3" font-family="Times New Roman,serif" font-size="14.00">HydraulicNetworkModel</text>
</g>
<!-- ThermalNetworkBalanceModel&#45;&gt;HydraulicNetworkModel -->
<g id="edge36" class="edge">
<title>ThermalNetworkBalanceModel&#45;&gt;HydraulicNetworkModel</title>
<path fill="none" stroke="black" d="M805.19,-288.94C779.17,-278.65 745.25,-265.23 717.74,-254.36"/>
<polygon fill="black" stroke="black" points="718.89,-251.05 708.3,-250.62 716.32,-257.56 718.89,-251.05"/>
</g>
<!-- IdealPipeRegisterModel&#45;&gt;ConstructionStatesModel -->
<g id="edge17" class="edge">
<title>IdealPipeRegisterModel&#45;&gt;ConstructionStatesModel</title>
<path fill="none" stroke="black" d="M400.06,-223.96C516.35,-211.01 729.77,-187.26 853.07,-173.54"/>
<polygon fill="black" stroke="black" points="853.7,-176.99 863.25,-172.41 852.92,-170.04 853.7,-176.99"/>
</g>
<!-- IdealPipeRegisterModel&#45;&gt;ThermostatModel -->
<g id="edge21" class="edge">
<title>IdealPipeRegisterModel&#45;&gt;ThermostatModel</title>
<path fill="none" stroke="black" d="M357.62,-217.29C383.73,-206.73 418.27,-192.75 445.77,-181.62"/>
<polygon fill="black" stroke="black" points="447.22,-184.81 455.18,-177.82 444.59,-178.33 447.22,-184.81"/>
</g>
<!-- HydraulicNetworkModel&#45;&gt;ThermalNetworkStatesModel -->
<g id="edge18" class="edge">
<title>HydraulicNetworkModel&#45;&gt;ThermalNetworkStatesModel</title>
<path fill="none" stroke="black" d="M673.99,-215.87C681.35,-191.56 694.9,-146.82 703.62,-118.01"/>
<polygon fill="black" stroke="black" points="707.05,-118.77 706.59,-108.19 700.35,-116.75 707.05,-118.77"/>
</g>
<!-- HydraulicNetworkModel&#45;&gt;ThermostatModel -->
<g id="edge19" class="edge">
<title>HydraulicNetworkModel&#45;&gt;ThermostatModel</title>
<path fill="none" stroke="black" d="M629.08,-217.29C602.27,-206.69 566.78,-192.65 538.61,-181.51"/>
<polygon fill="black" stroke="black" points="539.56,-178.12 528.97,-177.7 536.98,-184.63 539.56,-178.12"/>
</g>
<!-- IdealHeatingCoolingModel -->
<g id="node14" class="node">
<title>IdealHeatingCoolingModel</title>
<ellipse fill="none" stroke="black" cx="564.8" cy="-306" rx="107.78" ry="18"/>
<text text-anchor="middle" x="564.8" y="-302.3" font-family="Times New Roman,serif" font-size="14.00">IdealHeatingCoolingModel</text>
</g>
<!-- IdealHeatingCoolingModel&#45;&gt;ThermostatModel -->
<g id="edge20" class="edge">
<title>IdealHeatingCoolingModel&#45;&gt;ThermostatModel</title>
<path fill="none" stroke="black" d="M555.99,-287.87C543.39,-263.35 520.09,-218.03 505.3,-189.26"/>
<polygon fill="black" stroke="black" points="508.32,-187.48 500.64,-180.19 502.1,-190.68 508.32,-187.48"/>
</g>
<!-- IdealSurfaceHeatingCoolingModel&#45;&gt;ThermostatModel -->
<g id="edge22" class="edge">
<title>IdealSurfaceHeatingCoolingModel&#45;&gt;ThermostatModel</title>
<path fill="none" stroke="black" d="M169.16,-287.78C170.57,-267.47 176.13,-234.2 196.8,-216 227.78,-188.73 333.63,-174.9 409.67,-168.33"/>
<polygon fill="black" stroke="black" points="410.05,-171.81 419.73,-167.49 409.47,-164.84 410.05,-171.81"/>
</g>
<!-- RoomRadiationLoadsModel&#45;&gt;WindowModel -->
<g id="edge23" class="edge">
<title>RoomRadiationLoadsModel&#45;&gt;WindowModel</title>
<path fill="none" stroke="black" d="M1729.65,-288.41C1712.31,-278.54 1690.18,-265.95 1671.76,-255.47"/>
<polygon fill="black" stroke="black" points="1673.48,-252.42 1663.05,-250.51 1670.01,-258.5 1673.48,-252.42"/>
</g>
<!-- RoomBalanceModel -->
<g id="node17" class="node">
<title>RoomBalanceModel</title>
<ellipse fill="none" stroke="black" cx="1510.8" cy="-378" rx="85.29" ry="18"/>
<text text-anchor="middle" x="1510.8" y="-374.3" font-family="Times New Roman,serif" font-size="14.00">RoomBalanceModel</text>
</g>
<!-- RoomBalanceModel&#45;&gt;NaturalVentilationModel -->
<g id="edge27" class="edge">
<title>RoomBalanceModel&#45;&gt;NaturalVentilationModel</title>
<path fill="none" stroke="black" d="M1592.24,-372.64C1710,-365.5 1916.27,-349.49 1938.8,-324 1949.39,-312.01 1946.71,-301.91 1938.8,-288 1930.78,-273.89 1917.36,-263.14 1903.34,-255.14"/>
<polygon fill="black" stroke="black" points="1904.56,-251.83 1894.09,-250.27 1901.3,-258.03 1904.56,-251.83"/>
</g>
<!-- RoomBalanceModel&#45;&gt;WindowModel -->
<g id="edge25" class="edge">
<title>RoomBalanceModel&#45;&gt;WindowModel</title>
<path fill="none" stroke="black" d="M1596.07,-377.82C1697.94,-376.77 1859.46,-367.95 1897.8,-324 1908.32,-311.94 1907.93,-300.38 1897.8,-288 1896.2,-286.04 1774.82,-262.08 1697.86,-247.06"/>
<polygon fill="black" stroke="black" points="1698.26,-243.57 1687.77,-245.09 1696.92,-250.44 1698.26,-243.57"/>
</g>
<!-- RoomBalanceModel&#45;&gt;ThermalNetworkBalanceModel -->
<g id="edge30" class="edge">
<title>RoomBalanceModel&#45;&gt;ThermalNetworkBalanceModel</title>
<path fill="none" stroke="black" d="M1436.45,-369.17C1318.57,-356.77 1088.29,-332.53 952.71,-318.25"/>
<polygon fill="black" stroke="black" points="953.03,-314.77 942.72,-317.2 952.29,-321.73 953.03,-314.77"/>
</g>
<!-- RoomBalanceModel&#45;&gt;IdealHeatingCoolingModel -->
<g id="edge29" class="edge">
<title>RoomBalanceModel&#45;&gt;IdealHeatingCoolingModel</title>
<path fill="none" stroke="black" d="M1432.39,-370.93C1388.17,-367.58 1331.92,-363.4 1281.8,-360 1022.35,-342.37 956.69,-348.5 697.8,-324 684,-322.69 669.42,-321.08 655.18,-319.36"/>
<polygon fill="black" stroke="black" points="655.23,-315.84 644.88,-318.1 654.38,-322.79 655.23,-315.84"/>
</g>
<!-- RoomBalanceModel&#45;&gt;RoomRadiationLoadsModel -->
<g id="edge26" class="edge">
<title>RoomBalanceModel&#45;&gt;RoomRadiationLoadsModel</title>
<path fill="none" stroke="black" d="M1559.8,-363.17C1598.82,-352.15 1653.73,-336.66 1695.98,-324.73"/>
<polygon fill="black" stroke="black" points="1696.94,-328.1 1705.61,-322.01 1695.04,-321.36 1696.94,-328.1"/>
</g>
<!-- RoomBalanceModel&#45;&gt;InternalLoadsModel -->
<g id="edge28" class="edge">
<title>RoomBalanceModel&#45;&gt;InternalLoadsModel</title>
<path fill="none" stroke="black" d="M1510.8,-359.7C1510.8,-351.98 1510.8,-342.71 1510.8,-334.11"/>
<polygon fill="black" stroke="black" points="1514.3,-334.1 1510.8,-324.1 1507.3,-334.1 1514.3,-334.1"/>
</g>
<!-- HeatLoadSummationModel -->
<g id="node19" class="node">
<title>HeatLoadSummationModel</title>
<ellipse fill="none" stroke="black" cx="366.8" cy="-378" rx="110.48" ry="18"/>
<text text-anchor="middle" x="366.8" y="-374.3" font-family="Times New Roman,serif" font-size="14.00">HeatLoadSummationModel</text>
</g>
<!-- HeatLoadSummationModel&#45;&gt;ThermalNetworkBalanceModel -->
<g id="edge40" class="edge">
<title>HeatLoadSummationModel&#45;&gt;ThermalNetworkBalanceModel</title>
<path fill="none" stroke="black" d="M446.16,-365.4C530.14,-353.13 662.57,-333.78 751.73,-320.75"/>
<polygon fill="black" stroke="black" points="752.46,-324.18 761.85,-319.27 751.44,-317.25 752.46,-324.18"/>
</g>
<!-- HeatLoadSummationModel&#45;&gt;IdealPipeRegisterModel -->
<g id="edge38" class="edge">
<title>HeatLoadSummationModel&#45;&gt;IdealPipeRegisterModel</title>
<path fill="none" stroke="black" d="M256.79,-375.97C163.37,-372.48 39.55,-360.78 7.8,-324 -2.66,-311.89 -2.52,-300.23 7.8,-288 33.97,-256.99 134.02,-244.12 213.67,-238.78"/>
<polygon fill="black" stroke="black" points="214.01,-242.27 223.77,-238.14 213.57,-235.28 214.01,-242.27"/>
</g>
<!-- HeatLoadSummationModel&#45;&gt;IdealHeatingCoolingModel -->
<g id="edge37" class="edge">
<title>HeatLoadSummationModel&#45;&gt;IdealHeatingCoolingModel</title>
<path fill="none" stroke="black" d="M410.74,-361.46C440.48,-350.95 479.93,-337 511.47,-325.86"/>
<polygon fill="black" stroke="black" points="512.72,-329.12 520.98,-322.49 510.38,-322.53 512.72,-329.12"/>
</g>
<!-- HeatLoadSummationModel&#45;&gt;IdealSurfaceHeatingCoolingModel -->
<g id="edge39" class="edge">
<title>HeatLoadSummationModel&#45;&gt;IdealSurfaceHeatingCoolingModel</title>
<path fill="none" stroke="black" d="M322.86,-361.46C293.53,-351.1 254.76,-337.39 223.45,-326.32"/>
<polygon fill="black" stroke="black" points="224.59,-323.01 213.99,-322.98 222.25,-329.61 224.59,-323.01"/>
</g>
<!-- NetworkInterfaceAdapterModel -->
<g id="node20" class="node">
<title>NetworkInterfaceAdapterModel</title>
<ellipse fill="none" stroke="black" cx="366.8" cy="-450" rx="126.18" ry="18"/>
<text text-anchor="middle" x="366.8" y="-446.3" font-family="Times New Roman,serif" font-size="14.00">NetworkInterfaceAdapterModel</text>
</g>
<!-- NetworkInterfaceAdapterModel&#45;&gt;HeatLoadSummationModel -->
<g id="edge41" class="edge">
<title>NetworkInterfaceAdapterModel&#45;&gt;HeatLoadSummationModel</title>
<path fill="none" stroke="black" d="M366.8,-431.7C366.8,-423.98 366.8,-414.71 366.8,-406.11"/>
<polygon fill="black" stroke="black" points="370.3,-406.1 366.8,-396.1 363.3,-406.1 370.3,-406.1"/>
</g>
<!-- ydot -->
<g id="node21" class="node">
<title>ydot</title>
<ellipse fill="none" stroke="black" cx="1146.8" cy="-450" rx="27.1" ry="18"/>
<text text-anchor="middle" x="1146.8" y="-446.3" font-family="Times New Roman,serif" font-size="14.00">ydot</text>
</g>
<!-- ydot&#45;&gt;ConstructionBalanceModel -->
<g id="edge43" class="edge">
<title>ydot&#45;&gt;ConstructionBalanceModel</title>
<path fill="none" stroke="black" d="M1146.8,-431.7C1146.8,-423.98 1146.8,-414.71 1146.8,-406.11"/>
<polygon fill="black" stroke="black" points="1150.3,-406.1 1146.8,-396.1 1143.3,-406.1 1150.3,-406.1"/>
</g>
<!-- ydot&#45;&gt;ThermalNetworkBalanceModel -->
<g id="edge44" class="edge">
<title>ydot&#45;&gt;ThermalNetworkBalanceModel</title>
<path fill="none" stroke="black" d="M1123.03,-440.64C1095.79,-430.83 1049.97,-413.65 1011.8,-396 966.63,-375.11 916.5,-347.61 883.27,-328.73"/>
<polygon fill="black" stroke="black" points="884.78,-325.57 874.36,-323.65 881.31,-331.65 884.78,-325.57"/>
</g>
<!-- ydot&#45;&gt;RoomBalanceModel -->
<g id="edge42" class="edge">
<title>ydot&#45;&gt;RoomBalanceModel</title>
<path fill="none" stroke="black" d="M1172.69,-444.02C1227.8,-433.42 1358.39,-408.31 1440.19,-392.58"/>
<polygon fill="black" stroke="black" points="1441,-395.99 1450.16,-390.66 1439.68,-389.11 1441,-395.99"/>
</g>
</g>
</svg>
