<?xml version="1.0" encoding="UTF-8" standalone="no"?>
<!DOCTYPE svg PUBLIC "-//W3C//DTD SVG 1.1//EN"
 "http://www.w3.org/Graphics/SVG/1.1/DTD/svg11.dtd">
<!-- Generated by graphviz version 6.0.1 (20220911.1526)
 -->
<!-- Title: Beziehungen Pages: 1 -->
<svg width="1978pt" height="476pt"
 viewBox="0.00 0.00 1978.28 476.00" xmlns="http://www.w3.org/2000/svg" xmlns:xlink="http://www.w3.org/1999/xlink">
<g id="graph0" class="graph" transform="scale(1 1) rotate(0) translate(4 472)">
<title>Beziehungen</title>
<polygon fill="white" stroke="none" points="-4,4 -4,-472 1974.28,-472 1974.28,4 -4,4"/>
<!-- RoomStatesModel -->
<g id="node1" class="node">
<title>RoomStatesModel</title>
<ellipse fill="none" stroke="black" cx="767.79" cy="-90" rx="79.09" ry="18"/>
<text text-anchor="middle" x="767.79" y="-86.3" font-family="Times New Roman,serif" font-size="14.00">RoomStatesModel</text>
</g>
<!-- y -->
<g id="node2" class="node">
<title>y</title>
<ellipse fill="none" stroke="black" cx="946.79" cy="-18" rx="27" ry="18"/>
<text text-anchor="middle" x="946.79" y="-14.3" font-family="Times New Roman,serif" font-size="14.00">y</text>
</g>
<!-- RoomStatesModel&#45;&gt;y -->
<g id="edge1" class="edge">
<title>RoomStatesModel&#45;&gt;y</title>
<path fill="none" stroke="black" d="M805.75,-74.15C838.16,-61.48 884.25,-43.46 914.81,-31.5"/>
<polygon fill="black" stroke="black" points="916.12,-34.75 924.15,-27.85 913.57,-28.23 916.12,-34.75"/>
</g>
<!-- ConstructionStatesModel -->
<g id="node3" class="node">
<title>ConstructionStatesModel</title>
<ellipse fill="none" stroke="black" cx="946.79" cy="-162" rx="103.18" ry="18"/>
<text text-anchor="middle" x="946.79" y="-158.3" font-family="Times New Roman,serif" font-size="14.00">ConstructionStatesModel</text>
</g>
<!-- ConstructionStatesModel&#45;&gt;y -->
<g id="edge2" class="edge">
<title>ConstructionStatesModel&#45;&gt;y</title>
<path fill="none" stroke="black" d="M946.79,-143.87C946.79,-119.67 946.79,-75.21 946.79,-46.39"/>
<polygon fill="black" stroke="black" points="950.29,-46.19 946.79,-36.19 943.29,-46.19 950.29,-46.19"/>
</g>
<!-- ThermalNetworkStatesModel -->
<g id="node4" class="node">
<title>ThermalNetworkStatesModel</title>
<ellipse fill="none" stroke="black" cx="1545.79" cy="-90" rx="116.98" ry="18"/>
<text text-anchor="middle" x="1545.79" y="-86.3" font-family="Times New Roman,serif" font-size="14.00">ThermalNetworkStatesModel</text>
</g>
<!-- ThermalNetworkStatesModel&#45;&gt;y -->
<g id="edge3" class="edge">
<title>ThermalNetworkStatesModel&#45;&gt;y</title>
<path fill="none" stroke="black" d="M1455.79,-78.48C1321.82,-62.83 1075.81,-34.08 983.27,-23.26"/>
<polygon fill="black" stroke="black" points="983.61,-19.78 973.27,-22.09 982.8,-26.73 983.61,-19.78"/>
</g>
<!-- NaturalVentilationModel -->
<g id="node5" class="node">
<title>NaturalVentilationModel</title>
<ellipse fill="none" stroke="black" cx="98.79" cy="-234" rx="98.58" ry="18"/>
<text text-anchor="middle" x="98.79" y="-230.3" font-family="Times New Roman,serif" font-size="14.00">NaturalVentilationModel</text>
</g>
<!-- NaturalVentilationModel&#45;&gt;RoomStatesModel -->
<g id="edge4" class="edge">
<title>NaturalVentilationModel&#45;&gt;RoomStatesModel</title>
<path fill="none" stroke="black" d="M158.11,-219.5C236.63,-201.72 379.43,-169.7 501.79,-144 568.9,-129.91 645.72,-114.7 699.5,-104.2"/>
<polygon fill="black" stroke="black" points="700.46,-107.58 709.6,-102.23 699.12,-100.71 700.46,-107.58"/>
</g>
<!-- ThermalComfortModel -->
<g id="node6" class="node">
<title>ThermalComfortModel</title>
<ellipse fill="none" stroke="black" cx="771.79" cy="-234" rx="94.78" ry="18"/>
<text text-anchor="middle" x="771.79" y="-230.3" font-family="Times New Roman,serif" font-size="14.00">ThermalComfortModel</text>
</g>
<!-- ThermalComfortModel&#45;&gt;RoomStatesModel -->
<g id="edge5" class="edge">
<title>ThermalComfortModel&#45;&gt;RoomStatesModel</title>
<path fill="none" stroke="black" d="M771.31,-215.87C770.63,-191.67 769.37,-147.21 768.56,-118.39"/>
<polygon fill="black" stroke="black" points="772.06,-118.09 768.28,-108.19 765.06,-118.28 772.06,-118.09"/>
</g>
<!-- ThermalComfortModel&#45;&gt;ConstructionStatesModel -->
<g id="edge10" class="edge">
<title>ThermalComfortModel&#45;&gt;ConstructionStatesModel</title>
<path fill="none" stroke="black" d="M810.63,-217.46C836.39,-207.16 870.4,-193.55 897.99,-182.52"/>
<polygon fill="black" stroke="black" points="899.47,-185.7 907.46,-178.73 896.87,-179.2 899.47,-185.7"/>
</g>
<!-- ThermostatModel -->
<g id="node7" class="node">
<title>ThermostatModel</title>
<ellipse fill="none" stroke="black" cx="1288.79" cy="-162" rx="75.29" ry="18"/>
<text text-anchor="middle" x="1288.79" y="-158.3" font-family="Times New Roman,serif" font-size="14.00">ThermostatModel</text>
</g>
<!-- ThermostatModel&#45;&gt;RoomStatesModel -->
<g id="edge6" class="edge">
<title>ThermostatModel&#45;&gt;RoomStatesModel</title>
<path fill="none" stroke="black" d="M1224.91,-152.42C1128.79,-139.5 947.3,-115.12 844.28,-101.28"/>
<polygon fill="black" stroke="black" points="844.63,-97.79 834.26,-99.93 843.7,-104.73 844.63,-97.79"/>
</g>
<!-- WindowModel -->
<g id="node8" class="node">
<title>WindowModel</title>
<ellipse fill="none" stroke="black" cx="458.79" cy="-234" rx="65.79" ry="18"/>
<text text-anchor="middle" x="458.79" y="-230.3" font-family="Times New Roman,serif" font-size="14.00">WindowModel</text>
</g>
<!-- WindowModel&#45;&gt;RoomStatesModel -->
<g id="edge7" class="edge">
<title>WindowModel&#45;&gt;RoomStatesModel</title>
<path fill="none" stroke="black" d="M473.66,-216.29C492.46,-196.18 526.75,-162.78 562.79,-144 602.91,-123.09 651.83,-110.04 691.83,-102.12"/>
<polygon fill="black" stroke="black" points="692.62,-105.53 701.79,-100.21 691.31,-98.65 692.62,-105.53"/>
</g>
<!-- WindowModel&#45;&gt;ConstructionStatesModel -->
<g id="edge11" class="edge">
<title>WindowModel&#45;&gt;ConstructionStatesModel</title>
<path fill="none" stroke="black" d="M515.73,-224.83C600.44,-212.68 760.33,-189.75 859.77,-175.48"/>
<polygon fill="black" stroke="black" points="860.4,-178.93 869.8,-174.04 859.4,-172 860.4,-178.93"/>
</g>
<!-- ConstructionBalanceModel -->
<g id="node9" class="node">
<title>ConstructionBalanceModel</title>
<ellipse fill="none" stroke="black" cx="804.79" cy="-378" rx="109.68" ry="18"/>
<text text-anchor="middle" x="804.79" y="-374.3" font-family="Times New Roman,serif" font-size="14.00">ConstructionBalanceModel</text>
</g>
<!-- ConstructionBalanceModel&#45;&gt;RoomStatesModel -->
<g id="edge8" class="edge">
<title>ConstructionBalanceModel&#45;&gt;RoomStatesModel</title>
<path fill="none" stroke="black" d="M779.47,-360.32C739.63,-333.46 665.43,-280.74 651.79,-252 625.96,-197.54 689.61,-142.33 732.5,-112.82"/>
<polygon fill="black" stroke="black" points="734.68,-115.57 741.04,-107.1 730.78,-109.76 734.68,-115.57"/>
</g>
<!-- ConstructionBalanceModel&#45;&gt;ConstructionStatesModel -->
<g id="edge12" class="edge">
<title>ConstructionBalanceModel&#45;&gt;ConstructionStatesModel</title>
<path fill="none" stroke="black" d="M817.2,-359.81C834.35,-335.9 866.11,-291.13 891.79,-252 905.54,-231.05 920.44,-206.84 931.26,-188.96"/>
<polygon fill="black" stroke="black" points="934.35,-190.61 936.52,-180.24 928.36,-186.99 934.35,-190.61"/>
</g>
<!-- ConstructionBalanceModel&#45;&gt;WindowModel -->
<g id="edge21" class="edge">
<title>ConstructionBalanceModel&#45;&gt;WindowModel</title>
<path fill="none" stroke="black" d="M769.29,-360.82C728.79,-342.51 660.43,-312.12 600.79,-288 569.7,-275.42 534.36,-262.23 506.72,-252.15"/>
<polygon fill="black" stroke="black" points="507.87,-248.85 497.28,-248.73 505.48,-255.43 507.87,-248.85"/>
</g>
<!-- ThermalNetworkBalanceModel -->
<g id="node10" class="node">
<title>ThermalNetworkBalanceModel</title>
<ellipse fill="none" stroke="black" cx="1846.79" cy="-306" rx="123.48" ry="18"/>
<text text-anchor="middle" x="1846.79" y="-302.3" font-family="Times New Roman,serif" font-size="14.00">ThermalNetworkBalanceModel</text>
</g>
<!-- ConstructionBalanceModel&#45;&gt;ThermalNetworkBalanceModel -->
<g id="edge32" class="edge">
<title>ConstructionBalanceModel&#45;&gt;ThermalNetworkBalanceModel</title>
<path fill="none" stroke="black" d="M909.87,-372.65C1077.09,-365.31 1413.98,-348.78 1698.79,-324 1714.01,-322.68 1730.08,-321.06 1745.81,-319.35"/>
<polygon fill="black" stroke="black" points="1746.52,-322.79 1756.08,-318.22 1745.76,-315.84 1746.52,-322.79"/>
</g>
<!-- IdealPipeRegisterModel -->
<g id="node11" class="node">
<title>IdealPipeRegisterModel</title>
<ellipse fill="none" stroke="black" cx="1115.79" cy="-234" rx="97.48" ry="18"/>
<text text-anchor="middle" x="1115.79" y="-230.3" font-family="Times New Roman,serif" font-size="14.00">IdealPipeRegisterModel</text>
</g>
<!-- ConstructionBalanceModel&#45;&gt;IdealPipeRegisterModel -->
<g id="edge31" class="edge">
<title>ConstructionBalanceModel&#45;&gt;IdealPipeRegisterModel</title>
<path fill="none" stroke="black" d="M840.16,-360.85C897.25,-334.78 1009.58,-283.5 1071.76,-255.1"/>
<polygon fill="black" stroke="black" points="1073.28,-258.26 1080.93,-250.92 1070.38,-251.89 1073.28,-258.26"/>
</g>
<!-- IdealSurfaceHeatingCoolingModel -->
<g id="node14" class="node">
<title>IdealSurfaceHeatingCoolingModel</title>
<ellipse fill="none" stroke="black" cx="1537.79" cy="-306" rx="135.68" ry="18"/>
<text text-anchor="middle" x="1537.79" y="-302.3" font-family="Times New Roman,serif" font-size="14.00">IdealSurfaceHeatingCoolingModel</text>
</g>
<!-- ConstructionBalanceModel&#45;&gt;IdealSurfaceHeatingCoolingModel -->
<g id="edge30" class="edge">
<title>ConstructionBalanceModel&#45;&gt;IdealSurfaceHeatingCoolingModel</title>
<path fill="none" stroke="black" d="M897.25,-368.17C1030.21,-355.47 1275.36,-332.06 1420.77,-318.18"/>
<polygon fill="black" stroke="black" points="1421.44,-321.63 1431.06,-317.19 1420.78,-314.66 1421.44,-321.63"/>
</g>
<!-- RoomRadiationLoadsModel -->
<g id="node15" class="node">
<title>RoomRadiationLoadsModel</title>
<ellipse fill="none" stroke="black" cx="243.79" cy="-306" rx="114.28" ry="18"/>
<text text-anchor="middle" x="243.79" y="-302.3" font-family="Times New Roman,serif" font-size="14.00">RoomRadiationLoadsModel</text>
</g>
<!-- ConstructionBalanceModel&#45;&gt;RoomRadiationLoadsModel -->
<g id="edge28" class="edge">
<title>ConstructionBalanceModel&#45;&gt;RoomRadiationLoadsModel</title>
<path fill="none" stroke="black" d="M720.2,-366.44C618.34,-353.73 447.64,-332.44 340.61,-319.08"/>
<polygon fill="black" stroke="black" points="340.82,-315.58 330.46,-317.81 339.95,-322.53 340.82,-315.58"/>
</g>
<!-- InternalLoadsModel -->
<g id="node17" class="node">
<title>InternalLoadsModel</title>
<ellipse fill="none" stroke="black" cx="491.79" cy="-306" rx="83.69" ry="18"/>
<text text-anchor="middle" x="491.79" y="-302.3" font-family="Times New Roman,serif" font-size="14.00">InternalLoadsModel</text>
</g>
<!-- ConstructionBalanceModel&#45;&gt;InternalLoadsModel -->
<g id="edge29" class="edge">
<title>ConstructionBalanceModel&#45;&gt;InternalLoadsModel</title>
<path fill="none" stroke="black" d="M742.58,-363.09C689.04,-351.11 612.03,-333.89 557.5,-321.69"/>
<polygon fill="black" stroke="black" points="558.11,-318.25 547.59,-319.48 556.58,-325.08 558.11,-318.25"/>
</g>
<!-- ThermalNetworkBalanceModel&#45;&gt;RoomStatesModel -->
<g id="edge9" class="edge">
<title>ThermalNetworkBalanceModel&#45;&gt;RoomStatesModel</title>
<path fill="none" stroke="black" d="M1841.9,-287.87C1835.09,-267.34 1820.7,-233.51 1795.79,-216 1645.31,-110.21 1078.59,-93.67 857.19,-91.3"/>
<polygon fill="black" stroke="black" points="856.95,-87.8 846.91,-91.2 856.88,-94.8 856.95,-87.8"/>
</g>
<!-- ThermalNetworkBalanceModel&#45;&gt;ConstructionStatesModel -->
<g id="edge13" class="edge">
<title>ThermalNetworkBalanceModel&#45;&gt;ConstructionStatesModel</title>
<path fill="none" stroke="black" d="M1766.13,-292.27C1596.28,-265.48 1203.26,-203.47 1030.65,-176.23"/>
<polygon fill="black" stroke="black" points="1031.03,-172.75 1020.6,-174.65 1029.93,-179.66 1031.03,-172.75"/>
</g>
<!-- HydraulicNetworkModel -->
<g id="node12" class="node">
<title>HydraulicNetworkModel</title>
<ellipse fill="none" stroke="black" cx="1669.79" cy="-234" rx="100.98" ry="18"/>
<text text-anchor="middle" x="1669.79" y="-230.3" font-family="Times New Roman,serif" font-size="14.00">HydraulicNetworkModel</text>
</g>
<!-- ThermalNetworkBalanceModel&#45;&gt;HydraulicNetworkModel -->
<g id="edge33" class="edge">
<title>ThermalNetworkBalanceModel&#45;&gt;HydraulicNetworkModel</title>
<path fill="none" stroke="black" d="M1806.18,-288.94C1780.16,-278.65 1746.24,-265.23 1718.73,-254.36"/>
<polygon fill="black" stroke="black" points="1719.88,-251.05 1709.3,-250.62 1717.31,-257.56 1719.88,-251.05"/>
</g>
<!-- IdealPipeRegisterModel&#45;&gt;ConstructionStatesModel -->
<g id="edge14" class="edge">
<title>IdealPipeRegisterModel&#45;&gt;ConstructionStatesModel</title>
<path fill="none" stroke="black" d="M1077.86,-217.29C1053.16,-207.06 1020.74,-193.63 994.32,-182.69"/>
<polygon fill="black" stroke="black" points="995.46,-179.37 984.88,-178.78 992.78,-185.84 995.46,-179.37"/>
</g>
<!-- IdealPipeRegisterModel&#45;&gt;ThermostatModel -->
<g id="edge18" class="edge">
<title>IdealPipeRegisterModel&#45;&gt;ThermostatModel</title>
<path fill="none" stroke="black" d="M1154.62,-217.29C1180.73,-206.73 1215.27,-192.75 1242.76,-181.62"/>
<polygon fill="black" stroke="black" points="1244.21,-184.81 1252.17,-177.82 1241.58,-178.33 1244.21,-184.81"/>
</g>
<!-- HydraulicNetworkModel&#45;&gt;ThermalNetworkStatesModel -->
<g id="edge15" class="edge">
<title>HydraulicNetworkModel&#45;&gt;ThermalNetworkStatesModel</title>
<path fill="none" stroke="black" d="M1655.08,-216.15C1633.38,-191.31 1592.66,-144.68 1567.52,-115.88"/>
<polygon fill="black" stroke="black" points="1570.08,-113.5 1560.87,-108.27 1564.81,-118.1 1570.08,-113.5"/>
</g>
<!-- HydraulicNetworkModel&#45;&gt;ThermostatModel -->
<g id="edge16" class="edge">
<title>HydraulicNetworkModel&#45;&gt;ThermostatModel</title>
<path fill="none" stroke="black" d="M1602.12,-220.57C1532.82,-207.83 1425.72,-188.16 1356.44,-175.43"/>
<polygon fill="black" stroke="black" points="1356.97,-171.97 1346.5,-173.6 1355.7,-178.85 1356.97,-171.97"/>
</g>
<!-- IdealHeatingCoolingModel -->
<g id="node13" class="node">
<title>IdealHeatingCoolingModel</title>
<ellipse fill="none" stroke="black" cx="1141.79" cy="-306" rx="107.78" ry="18"/>
<text text-anchor="middle" x="1141.79" y="-302.3" font-family="Times New Roman,serif" font-size="14.00">IdealHeatingCoolingModel</text>
</g>
<!-- IdealHeatingCoolingModel&#45;&gt;ThermostatModel -->
<g id="edge17" class="edge">
<title>IdealHeatingCoolingModel&#45;&gt;ThermostatModel</title>
<path fill="none" stroke="black" d="M1181.45,-289.14C1200.13,-280.25 1221.78,-267.76 1237.79,-252 1255.84,-234.24 1269.58,-208.74 1278.22,-189.59"/>
<polygon fill="black" stroke="black" points="1281.51,-190.79 1282.27,-180.23 1275.09,-188.01 1281.51,-190.79"/>
</g>
<!-- IdealSurfaceHeatingCoolingModel&#45;&gt;ThermostatModel -->
<g id="edge19" class="edge">
<title>IdealSurfaceHeatingCoolingModel&#45;&gt;ThermostatModel</title>
<path fill="none" stroke="black" d="M1508.25,-288.15C1462.65,-262.15 1375.21,-212.28 1325.57,-183.98"/>
<polygon fill="black" stroke="black" points="1327.19,-180.87 1316.77,-178.95 1323.72,-186.95 1327.19,-180.87"/>
</g>
<!-- RoomRadiationLoadsModel&#45;&gt;WindowModel -->
<g id="edge20" class="edge">
<title>RoomRadiationLoadsModel&#45;&gt;WindowModel</title>
<path fill="none" stroke="black" d="M291.24,-289.55C325.94,-278.25 372.94,-262.95 408.32,-251.43"/>
<polygon fill="black" stroke="black" points="409.55,-254.71 417.98,-248.29 407.39,-248.06 409.55,-254.71"/>
</g>
<!-- RoomBalanceModel -->
<g id="node16" class="node">
<title>RoomBalanceModel</title>
<ellipse fill="none" stroke="black" cx="491.79" cy="-378" rx="85.29" ry="18"/>
<text text-anchor="middle" x="491.79" y="-374.3" font-family="Times New Roman,serif" font-size="14.00">RoomBalanceModel</text>
</g>
<!-- RoomBalanceModel&#45;&gt;NaturalVentilationModel -->
<g id="edge24" class="edge">
<title>RoomBalanceModel&#45;&gt;NaturalVentilationModel</title>
<path fill="none" stroke="black" d="M411.27,-372.12C299.04,-364.48 106.9,-348.04 85.79,-324 70.9,-307.03 76.97,-280.85 85.08,-261.26"/>
<polygon fill="black" stroke="black" points="88.35,-262.53 89.27,-251.98 81.97,-259.65 88.35,-262.53"/>
</g>
<!-- RoomBalanceModel&#45;&gt;WindowModel -->
<g id="edge22" class="edge">
<title>RoomBalanceModel&#45;&gt;WindowModel</title>
<path fill="none" stroke="black" d="M406.52,-377.82C304.65,-376.77 143.13,-367.95 104.79,-324 94.27,-311.94 94.35,-300.12 104.79,-288 122.91,-266.97 288.18,-249.48 386.37,-240.83"/>
<polygon fill="black" stroke="black" points="386.88,-244.3 396.54,-239.94 386.27,-237.32 386.88,-244.3"/>
</g>
<!-- RoomBalanceModel&#45;&gt;ThermalNetworkBalanceModel -->
<g id="edge27" class="edge">
<title>RoomBalanceModel&#45;&gt;ThermalNetworkBalanceModel</title>
<path fill="none" stroke="black" d="M565.76,-368.93C597.72,-365.7 635.56,-362.23 669.79,-360 1126.44,-330.23 1242.45,-358.14 1698.79,-324 1714.49,-322.83 1731.09,-321.25 1747.28,-319.53"/>
<polygon fill="black" stroke="black" points="1747.72,-323 1757.29,-318.44 1746.97,-316.04 1747.72,-323"/>
</g>
<!-- RoomBalanceModel&#45;&gt;IdealHeatingCoolingModel -->
<g id="edge26" class="edge">
<title>RoomBalanceModel&#45;&gt;IdealHeatingCoolingModel</title>
<path fill="none" stroke="black" d="M565.72,-369.04C683.2,-356.39 912.57,-331.68 1043.67,-317.57"/>
<polygon fill="black" stroke="black" points="1044.14,-321.04 1053.71,-316.49 1043.4,-314.08 1044.14,-321.04"/>
</g>
<!-- RoomBalanceModel&#45;&gt;RoomRadiationLoadsModel -->
<g id="edge23" class="edge">
<title>RoomBalanceModel&#45;&gt;RoomRadiationLoadsModel</title>
<path fill="none" stroke="black" d="M442.79,-363.17C403.77,-352.15 348.86,-336.66 306.61,-324.73"/>
<polygon fill="black" stroke="black" points="307.55,-321.36 296.98,-322.01 305.65,-328.1 307.55,-321.36"/>
</g>
<!-- RoomBalanceModel&#45;&gt;InternalLoadsModel -->
<g id="edge25" class="edge">
<title>RoomBalanceModel&#45;&gt;InternalLoadsModel</title>
<path fill="none" stroke="black" d="M491.79,-359.7C491.79,-351.98 491.79,-342.71 491.79,-334.11"/>
<polygon fill="black" stroke="black" points="495.29,-334.1 491.79,-324.1 488.29,-334.1 495.29,-334.1"/>
</g>
<!-- HeatLoadSummationModel -->
<g id="node18" class="node">
<title>HeatLoadSummationModel</title>
<ellipse fill="none" stroke="black" cx="1537.79" cy="-378" rx="110.48" ry="18"/>
<text text-anchor="middle" x="1537.79" y="-374.3" font-family="Times New Roman,serif" font-size="14.00">HeatLoadSummationModel</text>
</g>
<!-- HeatLoadSummationModel&#45;&gt;ThermalNetworkBalanceModel -->
<g id="edge37" class="edge">
<title>HeatLoadSummationModel&#45;&gt;ThermalNetworkBalanceModel</title>
<path fill="none" stroke="black" d="M1588.36,-361.98C1635.81,-350.33 1706.82,-334.23 1762.65,-322.47"/>
<polygon fill="black" stroke="black" points="1763.47,-325.87 1772.54,-320.4 1762.03,-319.02 1763.47,-325.87"/>
</g>
<!-- HeatLoadSummationModel&#45;&gt;ThermalNetworkBalanceModel -->
<g id="edge38" class="edge">
<title>HeatLoadSummationModel&#45;&gt;ThermalNetworkBalanceModel</title>
<path fill="none" stroke="black" d="M1609.37,-364.16C1662.62,-353.12 1734.02,-337.07 1784.85,-324.79"/>
<polygon fill="black" stroke="black" points="1785.84,-328.15 1794.73,-322.38 1784.18,-321.35 1785.84,-328.15"/>
</g>
<!-- HeatLoadSummationModel&#45;&gt;IdealPipeRegisterModel -->
<g id="edge35" class="edge">
<title>HeatLoadSummationModel&#45;&gt;IdealPipeRegisterModel</title>
<path fill="none" stroke="black" d="M1490.5,-361.73C1458.37,-351.28 1414.95,-337.01 1376.79,-324 1331.29,-308.48 1320.26,-303.6 1274.79,-288 1240.4,-276.2 1201.69,-263.29 1171.08,-253.16"/>
<polygon fill="black" stroke="black" points="1172.03,-249.79 1161.44,-249.98 1169.84,-256.44 1172.03,-249.79"/>
</g>
<!-- HeatLoadSummationModel&#45;&gt;IdealHeatingCoolingModel -->
<g id="edge34" class="edge">
<title>HeatLoadSummationModel&#45;&gt;IdealHeatingCoolingModel</title>
<path fill="none" stroke="black" d="M1465.62,-364.24C1397.01,-352.11 1293.99,-333.9 1222.65,-321.29"/>
<polygon fill="black" stroke="black" points="1223.26,-317.85 1212.8,-319.55 1222.04,-324.74 1223.26,-317.85"/>
</g>
<!-- HeatLoadSummationModel&#45;&gt;IdealSurfaceHeatingCoolingModel -->
<g id="edge36" class="edge">
<title>HeatLoadSummationModel&#45;&gt;IdealSurfaceHeatingCoolingModel</title>
<path fill="none" stroke="black" d="M1537.79,-359.7C1537.79,-351.98 1537.79,-342.71 1537.79,-334.11"/>
<polygon fill="black" stroke="black" points="1541.29,-334.1 1537.79,-324.1 1534.29,-334.1 1541.29,-334.1"/>
</g>
<!-- NetworkInterfaceAdapterModel -->
<g id="node19" class="node">
<title>NetworkInterfaceAdapterModel</title>
<ellipse fill="none" stroke="black" cx="1537.79" cy="-450" rx="126.18" ry="18"/>
<text text-anchor="middle" x="1537.79" y="-446.3" font-family="Times New Roman,serif" font-size="14.00">NetworkInterfaceAdapterModel</text>
</g>
<!-- NetworkInterfaceAdapterModel&#45;&gt;HeatLoadSummationModel -->
<g id="edge39" class="edge">
<title>NetworkInterfaceAdapterModel&#45;&gt;HeatLoadSummationModel</title>
<path fill="none" stroke="black" d="M1537.79,-431.7C1537.79,-423.98 1537.79,-414.71 1537.79,-406.11"/>
<polygon fill="black" stroke="black" points="1541.29,-406.1 1537.79,-396.1 1534.29,-406.1 1541.29,-406.1"/>
</g>
<!-- ydot -->
<g id="node20" class="node">
<title>ydot</title>
<ellipse fill="none" stroke="black" cx="804.79" cy="-450" rx="27.1" ry="18"/>
<text text-anchor="middle" x="804.79" y="-446.3" font-family="Times New Roman,serif" font-size="14.00">ydot</text>
</g>
<!-- ydot&#45;&gt;ConstructionBalanceModel -->
<g id="edge41" class="edge">
<title>ydot&#45;&gt;ConstructionBalanceModel</title>
<path fill="none" stroke="black" d="M804.79,-431.7C804.79,-423.98 804.79,-414.71 804.79,-406.11"/>
<polygon fill="black" stroke="black" points="808.29,-406.1 804.79,-396.1 801.29,-406.1 808.29,-406.1"/>
</g>
<!-- ydot&#45;&gt;ThermalNetworkBalanceModel -->
<g id="edge42" class="edge">
<title>ydot&#45;&gt;ThermalNetworkBalanceModel</title>
<path fill="none" stroke="black" d="M832.25,-448.83C961.39,-447.81 1508.78,-440.84 1672.79,-396 1725.07,-381.71 1779.85,-350.6 1813.66,-329.23"/>
<polygon fill="black" stroke="black" points="1815.67,-332.1 1822.2,-323.75 1811.89,-326.2 1815.67,-332.1"/>
</g>
<!-- ydot&#45;&gt;RoomBalanceModel -->
<g id="edge40" class="edge">
<title>ydot&#45;&gt;RoomBalanceModel</title>
<path fill="none" stroke="black" d="M779.18,-443.27C731.31,-432.57 626.89,-409.21 557.99,-393.8"/>
<polygon fill="black" stroke="black" points="558.61,-390.36 548.09,-391.59 557.08,-397.19 558.61,-390.36"/>
</g>
</g>
</svg>
