<svg xmlns="http://www.w3.org/2000/svg" xmlns:xlink="http://www.w3.org/1999/xlink" viewBox="0 0 97.92 69.64"><defs><style>.cls-1{fill:url(#Unbenannter_Verlauf_24);}</style><linearGradient id="Unbenannter_Verlauf_24" x1="623.97" y1="328.9" x2="696.85" y2="308.01" gradientUnits="userSpaceOnUse"><stop offset="0.12" stop-color="#72c1a8" stop-opacity="0.1"/><stop offset="1" stop-color="#185d93"/></linearGradient></defs><title>Element 1</title><g id="Ebene_2" data-name="Ebene 2"><g id="Ebene_3" data-name="Ebene 3"><path class="cls-1" d="M704.63,353.28l-23.18-68,4.73-1.62,23.19,68Zm-10,0-23.18-68,4.73-1.62,23.19,68Zm-10,0-23.18-68,4.73-1.62,23.19,68Zm-10,0-23.18-68,4.73-1.62,23.19,68Zm-10,0-23.18-68,4.73-1.62,23.19,68Zm-10,0-23.18-68,4.73-1.62,23.19,68Zm-10,0-23.18-68,4.73-1.62,23.19,68Zm-10,0-23.18-68,4.73-1.62,23.19,68Z" transform="translate(-611.45 -283.63)"/></g></g></svg>