<?xml version="1.0" encoding="UTF-8" standalone="no"?>
<!-- Created with Inkscape (http://www.inkscape.org/) -->

<svg
   xmlns:dc="http://purl.org/dc/elements/1.1/"
   xmlns:cc="http://creativecommons.org/ns#"
   xmlns:rdf="http://www.w3.org/1999/02/22-rdf-syntax-ns#"
   xmlns:svg="http://www.w3.org/2000/svg"
   xmlns="http://www.w3.org/2000/svg"
   xmlns:sodipodi="http://sodipodi.sourceforge.net/DTD/sodipodi-0.dtd"
   xmlns:inkscape="http://www.inkscape.org/namespaces/inkscape"
   width="553.88751"
   height="583.25201"
   id="svg2"
   version="1.1"
   inkscape:version="0.91 r"
   sodipodi:docname="Wavy_checkered_flag.svg">
  <defs
     id="defs4">
    <inkscape:perspective
       sodipodi:type="inkscape:persp3d"
       inkscape:vp_x="0 : 526.18109 : 1"
       inkscape:vp_y="0 : 1000 : 0"
       inkscape:vp_z="744.09448 : 526.18109 : 1"
       inkscape:persp3d-origin="372.04724 : 350.78739 : 1"
       id="perspective10" />
    <inkscape:perspective
       id="perspective4341"
       inkscape:persp3d-origin="0.5 : 0.33333333 : 1"
       inkscape:vp_z="1 : 0.5 : 1"
       inkscape:vp_y="0 : 1000 : 0"
       inkscape:vp_x="0 : 0.5 : 1"
       sodipodi:type="inkscape:persp3d" />
    <inkscape:perspective
       id="perspective4363"
       inkscape:persp3d-origin="0.5 : 0.33333333 : 1"
       inkscape:vp_z="1 : 0.5 : 1"
       inkscape:vp_y="0 : 1000 : 0"
       inkscape:vp_x="0 : 0.5 : 1"
       sodipodi:type="inkscape:persp3d" />
    <inkscape:perspective
       id="perspective4673"
       inkscape:persp3d-origin="0.5 : 0.33333333 : 1"
       inkscape:vp_z="1 : 0.5 : 1"
       inkscape:vp_y="0 : 1000 : 0"
       inkscape:vp_x="0 : 0.5 : 1"
       sodipodi:type="inkscape:persp3d" />
    <inkscape:perspective
       id="perspective4673-1"
       inkscape:persp3d-origin="0.5 : 0.33333333 : 1"
       inkscape:vp_z="1 : 0.5 : 1"
       inkscape:vp_y="0 : 1000 : 0"
       inkscape:vp_x="0 : 0.5 : 1"
       sodipodi:type="inkscape:persp3d" />
    <inkscape:perspective
       id="perspective4673-5"
       inkscape:persp3d-origin="0.5 : 0.33333333 : 1"
       inkscape:vp_z="1 : 0.5 : 1"
       inkscape:vp_y="0 : 1000 : 0"
       inkscape:vp_x="0 : 0.5 : 1"
       sodipodi:type="inkscape:persp3d" />
    <inkscape:perspective
       id="perspective4673-4"
       inkscape:persp3d-origin="0.5 : 0.33333333 : 1"
       inkscape:vp_z="1 : 0.5 : 1"
       inkscape:vp_y="0 : 1000 : 0"
       inkscape:vp_x="0 : 0.5 : 1"
       sodipodi:type="inkscape:persp3d" />
  </defs>
  <sodipodi:namedview
     id="base"
     pagecolor="#ffffff"
     bordercolor="#666666"
     borderopacity="1.0"
     inkscape:pageopacity="0.0"
     inkscape:pageshadow="2"
     inkscape:zoom="0.73953475"
     inkscape:cx="-87.474545"
     inkscape:cy="291.626"
     inkscape:document-units="px"
     inkscape:current-layer="layer1"
     showgrid="false"
     inkscape:window-width="1855"
     inkscape:window-height="1056"
     inkscape:window-x="65"
     inkscape:window-y="24"
     inkscape:window-maximized="1"
     showguides="true"
     inkscape:guide-bbox="true" />
  <metadata
     id="metadata7">
    <rdf:RDF>
      <cc:Work
         rdf:about="">
        <dc:format>image/svg+xml</dc:format>
        <dc:type
           rdf:resource="http://purl.org/dc/dcmitype/StillImage" />
        <dc:title></dc:title>
      </cc:Work>
    </rdf:RDF>
  </metadata>
  <g
     inkscape:label="Layer 1"
     inkscape:groupmode="layer"
     id="layer1"
     transform="translate(-52.530009,-151.15086)">
    <g
       id="g4788">
      <path
         sodipodi:nodetypes="csssssssc"
         transform="translate(52.530009,151.15086)"
         id="path4736"
         d="m 389.6679,311.12031 c -7.21741,-4.82939 -14.21201,-9.23351 -14.2255,-9.62218 -0.0469,-1.35365 11.52058,-14.04932 15.56548,-17.13495 2.51632,-1.91955 6.38986,-3.37709 8.17233,-3.37709 4.02858,0 8.35411,4.60149 10.49015,9.43037 2.00246,4.52689 1.02277,7.40163 -2.67928,18.10832 -1.07133,3.09839 -2.58079,6.59363 -2.69532,8.09672 -0.11453,1.50309 1.0434,4.72624 0.76085,4.69121 -0.28255,-0.035 -8.1713,-5.36302 -15.38871,-10.1924 z"
         style="color:#000000;fill:#434343;fill-opacity:1;fill-rule:nonzero;stroke:#434343;stroke-width:1;stroke-linecap:round;stroke-linejoin:round;stroke-miterlimit:4;stroke-opacity:1;stroke-dasharray:none;stroke-dashoffset:0;marker:none;visibility:visible;display:inline;overflow:visible;enable-background:accumulate" />
      <path
         sodipodi:nodetypes="cccssssscc"
         transform="translate(52.530009,151.15086)"
         id="path4738"
         d="m 466.01713,257.00568 -7.73311,-8.06318 5.99674,-12.5095 c 9.39581,-18.75072 17.78355,-21.84295 26.79341,-14.26165 3.75026,3.15563 5.35509,9.37725 3.9281,14.77616 -0.59073,2.235 -4.00439,8.01991 -7.5859,13.34964 -3.58151,5.32972 -7.47915,10.89103 -7.83764,12.52323 -0.35849,1.6322 -0.21916,5.49174 -0.67892,5.77589 -0.45976,0.28415 -5.6571,-4.82378 -10.72586,-9.70337 l -2.15682,-1.88722 z"
         style="color:#000000;fill:#434343;fill-opacity:1;fill-rule:nonzero;stroke:#434343;stroke-width:1;stroke-linecap:round;stroke-linejoin:round;stroke-miterlimit:4;stroke-opacity:1;stroke-dasharray:none;stroke-dashoffset:0;marker:none;visibility:visible;display:inline;overflow:visible;enable-background:accumulate" />
      <rect
         ry="5.3837175"
         transform="matrix(0.78076888,0.62481994,-0.62481994,0.78076888,0,0)"
         y="239.19142"
         x="264.65015"
         height="10.767435"
         width="601.71381"
         id="rect2818"
         style="color:#000000;fill:#000000;fill-opacity:1;fill-rule:nonzero;stroke:#ffc7c7;stroke-width:0.2;stroke-linecap:round;stroke-linejoin:round;stroke-miterlimit:4;stroke-opacity:1;stroke-dasharray:none;stroke-dashoffset:0;marker:none;visibility:visible;display:inline;overflow:visible;enable-background:accumulate" />
      <path
         sodipodi:nodetypes="cccc"
         transform="translate(52.530004,15.031062)"
         id="path4600"
         d="M 11.793207,345.52718 C 36.299443,317.32822 63.386478,200.13135 117.93207,198.1121 c 18.8149,-3.59375 205.68441,172.74871 283.41329,219.35364 -22.07293,-12.22666 -79.89871,121.51828 -111.23248,150.95304"
         style="fill:none;stroke:#000000;stroke-width:1px;stroke-linecap:butt;stroke-linejoin:miter;stroke-opacity:1" />
      <path
         sodipodi:nodetypes="cccccc"
         transform="translate(52.530004,15.031062)"
         id="path4602"
         d="m 401.04014,417.30116 c 1.39201,0.77334 6.8881,3.02357 9.57014,10.5754 2.88285,10.51309 -11.82311,26.28891 -2.56533,32.04472 37.33237,23.21055 45.64918,-125.23977 81.37312,-103.78022 0,0 -259.09508,-199.97334 -284.21628,-199.30519 -28.6992,1.45819 -52.57528,62.78526 -52.57528,62.78526"
         style="fill:none;stroke:#000000;stroke-width:1px;stroke-linecap:butt;stroke-linejoin:miter;stroke-opacity:1" />
      <path
         sodipodi:nodetypes="cccccc"
         transform="translate(52.530004,15.031062)"
         id="path4604"
         d="m 489.07917,355.89371 c 1.94867,1.10142 11.37668,7.21503 4.47737,22.25068 -2.28878,4.98743 -20.59728,24.42122 -11.84596,30.37527 28.5367,19.41524 71.67695,-101.73227 71.67695,-101.73227 -75.35148,-29.67884 -148.59244,-98.94245 -261.32068,-170.16759 -3.40286,24.68787 -23.1777,39.92692 -32.83375,50.02401"
         style="fill:none;stroke:#000000;stroke-width:1px;stroke-linecap:butt;stroke-linejoin:miter;stroke-opacity:1" />
      <path
         sodipodi:nodetypes="cc"
         transform="translate(52.530009,151.15086)"
         id="path4659"
         d="M 480.71296,271.53554 457.96652,249.7956"
         style="fill:none;stroke:#000000;stroke-width:1px;stroke-linecap:butt;stroke-linejoin:miter;stroke-opacity:1" />
      <path
         sodipodi:nodetypes="cc"
         transform="translate(52.530009,151.15086)"
         id="path4661"
         d="m 408.13947,323.86858 c 0,0 -33.41141,-22.25628 -33.41141,-22.25628"
         style="fill:none;stroke:#000000;stroke-width:1px;stroke-linecap:butt;stroke-linejoin:miter;stroke-opacity:1" />
      <path
         sodipodi:nodetypes="cc"
         transform="translate(52.530009,151.15086)"
         id="path4663"
         d="M 53.544448,239.99386 C 87.730216,188.50904 96.495506,118.5366 156.80874,86.053572"
         style="fill:none;stroke:#000000;stroke-width:1px;stroke-linecap:butt;stroke-linejoin:miter;stroke-opacity:1" />
      <path
         sodipodi:nodetypes="cc"
         id="path4663-6"
         d="M 151.01355,428.91268 C 185.19932,377.42786 194.91763,307.45542 255.23086,274.97239"
         style="fill:none;stroke:#000000;stroke-width:1px;stroke-linecap:butt;stroke-linejoin:miter;stroke-opacity:1" />
      <path
         sodipodi:nodetypes="cc"
         id="path4663-0"
         d="M 196.90879,467.15872 C 240.65607,410.89315 248.93858,354.06543 301.6026,313.93319"
         style="fill:none;stroke:#000000;stroke-width:1px;stroke-linecap:butt;stroke-linejoin:miter;stroke-opacity:1" />
      <path
         sodipodi:nodetypes="cc"
         id="path4663-7"
         d="M 247.58478,507.31705 C 290.37591,459.65683 296.51414,387.76896 350.13431,354.32978"
         style="fill:none;stroke:#000000;stroke-width:1px;stroke-linecap:butt;stroke-linejoin:miter;stroke-opacity:1" />
      <path
         sodipodi:nodetypes="cc"
         id="path4663-2"
         d="M 293.48002,546.51923 C 336.27115,497.90286 345.03644,436.53578 402.48123,396.40354"
         style="fill:none;stroke:#000000;stroke-width:1px;stroke-linecap:butt;stroke-linejoin:miter;stroke-opacity:1" />
      <path
         sodipodi:nodetypes="cc"
         transform="translate(52.530009,151.15086)"
         id="path4714"
         d="M 69.799012,97.527382 C 186.16156,181.69952 267.02378,273.39811 354.73197,331.78434"
         style="fill:none;stroke:#000000;stroke-width:1px;stroke-linecap:butt;stroke-linejoin:miter;stroke-opacity:1" />
      <path
         sodipodi:nodetypes="cc"
         transform="translate(52.530009,151.15086)"
         id="path4716"
         d="M 38.004645,158.95929 C 153.6989,232.80364 215.13707,315.0534 323.18212,384.85228"
         style="fill:none;stroke:#000000;stroke-width:1px;stroke-linecap:butt;stroke-linejoin:miter;stroke-opacity:1" />
      <path
         transform="translate(52.530009,151.15086)"
         id="path4718"
         d="M 92.09694,112.96954 C 81.987411,105.24003 73.216701,98.416609 72.606471,97.806379 71.76456,96.964468 73.003026,94.779187 77.741373,88.74581 88.079579,75.582086 97.402308,68.24045 107.89559,64.999405 c 8.52142,-2.631997 11.92923,-2.420969 18.24241,1.129657 7.66776,4.312463 27.84476,18.766963 27.84476,19.947565 0,0.286438 -1.39837,1.319517 -3.10749,2.295733 -10.91411,6.233926 -25.85565,19.86965 -34.915,31.86361 -2.8798,3.81265 -5.29143,6.8995 -5.35918,6.85966 -0.0678,-0.0399 -8.39462,-6.39659 -18.50415,-14.12609 l 0,0 z"
         style="color:#000000;fill:#000000;fill-opacity:1;fill-rule:nonzero;stroke:#000000;stroke-width:1;stroke-linecap:round;stroke-linejoin:round;stroke-miterlimit:4;stroke-opacity:1;stroke-dasharray:none;stroke-dashoffset:0;marker:none;visibility:visible;display:inline;overflow:visible;enable-background:accumulate" />
      <path
         sodipodi:nodetypes="cssscccssssc"
         transform="translate(52.530009,151.15086)"
         id="path4720"
         d="m 199.878,202.50732 c -2.89235,-2.69749 -13.21878,-11.78394 -22.94762,-20.19211 -9.72883,-8.40818 -17.8323,-15.6509 -18.0077,-16.09494 -0.38565,-0.9763 4.59987,-7.54719 12.78221,-16.82597 6.81503,-7.72826 16.63649,-16.36655 25.43391,-21.71071 l 5.6104,-2.56795 22.00691,18.42555 c 12.10379,10.13405 22.38709,18.73336 22.24637,19.10957 -0.14071,0.37622 -4.38688,4.02494 -8.83054,8.10827 -10.31511,9.4787 -17.73483,17.83775 -25.17257,28.35939 -3.25278,4.60147 -5.76003,9.43616 -6.29584,9.41612 -0.53581,-0.02 -3.93317,-3.32974 -6.82553,-6.02722 z"
         style="color:#000000;fill:#000000;fill-opacity:1;fill-rule:nonzero;stroke:#000000;stroke-width:1;stroke-linecap:round;stroke-linejoin:round;stroke-miterlimit:4;stroke-opacity:1;stroke-dasharray:none;stroke-dashoffset:0;marker:none;visibility:visible;display:inline;overflow:visible;enable-background:accumulate" />
      <path
         sodipodi:nodetypes="cssscccssccc"
         transform="translate(52.530009,151.15086)"
         id="path4722"
         d="m 299.2245,288.90692 c -2.31522,-1.88085 -13.02998,-10.93132 -23.81058,-20.11216 -10.7806,-9.18083 -19.76606,-16.82091 -19.96769,-16.97796 -0.20163,-0.15704 2.88741,-5.17178 6.86453,-11.14386 8.48969,-12.74817 17.94066,-23.18286 27.92098,-30.82717 l 7.16952,-5.4914 4.66153,3.71652 c 29.23772,23.31053 47.03272,36.96881 46.43326,37.45353 -0.40135,0.32453 -4.91039,3.23981 -8.65223,6.237 -9.34351,7.48412 -20.87964,19.69764 -29.33006,31.0523 l -7.07977,9.51294 -4.20949,-3.41974 z"
         style="color:#000000;fill:#000000;fill-opacity:1;fill-rule:nonzero;stroke:#000000;stroke-width:1;stroke-linecap:round;stroke-linejoin:round;stroke-miterlimit:4;stroke-opacity:1;stroke-dasharray:none;stroke-dashoffset:0;marker:none;visibility:visible;display:inline;overflow:visible;enable-background:accumulate" />
      <path
         sodipodi:nodetypes="csssssc"
         transform="translate(52.530009,151.15086)"
         id="path4724"
         d="m 219.04169,303.31554 c -20.20049,-17.49156 -41.5966,-36.9084 -41.40828,-37.57774 0.37209,-1.32242 21.71495,-41.05911 25.53959,-47.55025 1.95406,-3.31641 3.60577,-7.08301 4.03255,-6.92191 1.4749,0.55676 45.29601,40.57354 45.03977,41.10403 -5.17329,10.70983 -27.56798,55.50406 -27.74079,55.48759 -0.13457,-0.0128 -2.59285,-2.05661 -5.46284,-4.54172 z"
         style="color:#000000;fill:#000000;fill-opacity:1;fill-rule:nonzero;stroke:#000000;stroke-width:1;stroke-linecap:round;stroke-linejoin:round;stroke-miterlimit:4;stroke-opacity:1;stroke-dasharray:none;stroke-dashoffset:0;marker:none;visibility:visible;display:inline;overflow:visible;enable-background:accumulate" />
      <path
         transform="translate(52.530009,151.15086)"
         id="path4726"
         d="m 311.18579,375.46793 c -6.35667,-4.30536 -17.35166,-12.09585 -24.43331,-17.31219 l -12.87572,-9.48427 8.71689,-15.85373 c 12.19996,-22.18851 20.61791,-36.41097 21.55083,-36.41097 0.43645,0 6.95108,4.74456 14.47697,10.54348 7.5259,5.79892 18.45923,13.86644 24.29629,17.92783 l 10.61284,7.38434 -3.54918,5.73691 c -1.95206,3.1553 -8.81661,14.66496 -15.25457,25.57703 -6.43796,10.91207 -11.76794,19.81299 -11.84441,19.77982 -0.0765,-0.0332 -5.33995,-3.58289 -11.69663,-7.88825 l 0,0 z"
         style="color:#000000;fill:#000000;fill-opacity:1;fill-rule:nonzero;stroke:#000000;stroke-width:1;stroke-linecap:round;stroke-linejoin:round;stroke-miterlimit:4;stroke-opacity:1;stroke-dasharray:none;stroke-dashoffset:0;marker:none;visibility:visible;display:inline;overflow:visible;enable-background:accumulate" />
      <path
         sodipodi:nodetypes="csscccsssc"
         transform="translate(52.530009,151.15086)"
         id="path4728"
         d="m 123.89561,220.92197 c -0.72194,-1.16811 -20.28515,-16.79646 -32.30169,-25.80466 -5.127359,-3.84373 -9.322471,-7.39492 -9.322471,-7.89154 0,-2.05589 17.3488,-37.60003 22.904461,-46.92655 l 6.00569,-10.082 18.77117,15.32602 c 26.99643,22.04167 26.29978,19.91417 24.75214,22.34693 -6.18406,9.72077 -10.95554,17.86387 -19.16046,34.57477 -5.22863,10.64913 -9.86276,19.36206 -10.29805,19.36206 -0.4353,0 -1.04316,-0.40726 -1.35079,-0.90503 z"
         style="color:#000000;fill:#000000;fill-opacity:1;fill-rule:nonzero;stroke:#000000;stroke-width:1;stroke-linecap:round;stroke-linejoin:round;stroke-miterlimit:4;stroke-opacity:1;stroke-dasharray:none;stroke-dashoffset:0;marker:none;visibility:visible;display:inline;overflow:visible;enable-background:accumulate" />
      <path
         transform="translate(52.530009,151.15086)"
         id="path4730"
         d="M 33.903758,223.53707 C 23.431239,215.07805 14.964566,207.80808 15.08893,207.38158 c 0.124364,-0.4265 1.679704,-3.05181 3.456312,-5.83402 1.776608,-2.78221 6.989439,-13.01851 11.584068,-22.74735 4.59463,-9.72883 8.440943,-17.7838 8.54736,-17.89993 0.268241,-0.29272 10.966117,6.85704 27.045885,18.0757 l 13.569858,9.46752 -5.253624,11.19388 c -6.141978,13.0867 -14.189222,28.43963 -18.239541,34.79831 l -2.854546,4.4814 -19.040944,-15.38002 z"
         style="color:#000000;fill:#000000;fill-opacity:1;fill-rule:nonzero;stroke:#000000;stroke-width:1;stroke-linecap:round;stroke-linejoin:round;stroke-miterlimit:4;stroke-opacity:1;stroke-dasharray:none;stroke-dashoffset:0;marker:none;visibility:visible;display:inline;overflow:visible;enable-background:accumulate" />
      <path
         transform="translate(52.530009,151.15086)"
         id="path4732"
         d="m 122.90786,294.90505 c -12.09531,-9.72574 -21.86234,-18.1642 -21.70451,-18.75214 0.15782,-0.58794 2.37832,-4.60973 4.93443,-8.93732 2.55611,-4.32759 8.26147,-15.38931 12.67857,-24.58161 l 8.03109,-16.71327 11.8944,10.0429 c 16.96596,14.32503 34.78899,30.00336 35.15209,30.92216 0.63945,1.61808 -26.9286,45.85619 -28.50337,45.73901 -0.27018,-0.0201 -10.38739,-7.99399 -22.4827,-17.71973 z"
         style="color:#000000;fill:#000000;fill-opacity:1;fill-rule:nonzero;stroke:#000000;stroke-width:1;stroke-linecap:round;stroke-linejoin:round;stroke-miterlimit:4;stroke-opacity:1;stroke-dasharray:none;stroke-dashoffset:0;marker:none;visibility:visible;display:inline;overflow:visible;enable-background:accumulate" />
      <path
         transform="translate(52.530009,151.15086)"
         id="path4734"
         d="m 220.76369,373.21141 c -12.27595,-9.80166 -22.46352,-17.93364 -22.63904,-18.07105 -0.17552,-0.13742 2.23685,-3.6201 5.36082,-7.73929 6.75464,-8.90651 11.93851,-17.06603 17.69208,-27.84772 l 4.23089,-7.92833 13.31865,11.27485 c 10.33719,8.75091 24.62611,20.34049 31.87739,25.85539 1.19239,0.90687 -16.9449,29.63694 -24.13476,38.23026 l -3.38613,4.0471 -22.3199,-17.82121 z"
         style="color:#000000;fill:#000000;fill-opacity:1;fill-rule:nonzero;stroke:#000000;stroke-width:1;stroke-linecap:round;stroke-linejoin:round;stroke-miterlimit:4;stroke-opacity:1;stroke-dasharray:none;stroke-dashoffset:0;marker:none;visibility:visible;display:inline;overflow:visible;enable-background:accumulate" />
      <path
         sodipodi:nodetypes="cc"
         transform="translate(52.530009,151.15086)"
         id="path4740"
         d="M 195.05477,116.6504 C 213.99372,93.291155 226.71348,40.289747 249.1447,44.39361"
         style="fill:none;stroke:#000000;stroke-width:1px;stroke-linecap:butt;stroke-linejoin:miter;stroke-opacity:1" />
      <path
         sodipodi:nodetypes="cc"
         transform="translate(52.530009,151.15086)"
         id="path4742"
         d="m 244.36395,157.35422 c 22.26291,-22.63868 33.9679,-81.211176 52.58829,-80.087831"
         style="fill:none;stroke:#000000;stroke-width:1px;stroke-linecap:butt;stroke-linejoin:miter;stroke-opacity:1" />
      <path
         sodipodi:nodetypes="cc"
         transform="translate(52.530009,151.15086)"
         id="path4744"
         d="m 287.61958,194.82592 c 19.38439,-15.27521 41.71063,-94.0643 58.68886,-82.18195"
         style="fill:none;stroke:#000000;stroke-width:1px;stroke-linecap:butt;stroke-linejoin:miter;stroke-opacity:1" />
      <path
         sodipodi:nodetypes="cc"
         transform="translate(52.530009,151.15086)"
         id="path4746"
         d="m 337.4272,234.79616 c 23.2268,-24.33066 37.61278,-93.72995 58.0556,-85.68365"
         style="fill:none;stroke:#000000;stroke-width:1px;stroke-linecap:butt;stroke-linejoin:miter;stroke-opacity:1" />
      <path
         sodipodi:nodetypes="cc"
         transform="translate(52.530009,151.15086)"
         id="path4748"
         d="m 388.58911,272.9889 c 14.24558,-15.30084 25.68145,-92.46963 49.09913,-92.27639"
         style="fill:none;stroke:#000000;stroke-width:1px;stroke-linecap:butt;stroke-linejoin:miter;stroke-opacity:1" />
      <path
         sodipodi:nodetypes="cc"
         transform="translate(52.530009,151.15086)"
         id="path4750"
         d="M 175.66529,41.490672 C 276.5159,149.09068 368.43968,183.57808 448.43475,271.54684"
         style="fill:none;stroke:#000000;stroke-width:1px;stroke-linecap:butt;stroke-linejoin:miter;stroke-opacity:1" />
      <path
         transform="translate(52.530009,151.15086)"
         id="path4752"
         d="m 177.32719,101.48128 c -9.4975,-7.69641 -18.66315,-15.069145 -20.36812,-16.383852 l -3.09995,-2.390377 5.8,-11.767738 c 6.35274,-12.889203 15.12627,-27.19849 16.40609,-26.757694 0.44616,0.153669 9.19643,8.627043 19.44504,18.829721 l 18.63383,18.550324 -5.87435,11.090353 c -3.23089,6.099693 -7.62935,13.730143 -9.77436,16.956553 l -3.9,5.86619 -17.26818,-13.99348 z"
         style="color:#000000;fill:#000000;fill-opacity:1;fill-rule:nonzero;stroke:#000000;stroke-width:1;stroke-linecap:round;stroke-linejoin:round;stroke-miterlimit:4;stroke-opacity:1;stroke-dasharray:none;stroke-dashoffset:0;marker:none;visibility:visible;display:inline;overflow:visible;enable-background:accumulate" />
      <path
         sodipodi:nodetypes="csssscccsc"
         transform="translate(52.530009,151.15086)"
         id="path4754"
         d="m 267.64785,176.72464 c -10.71633,-8.9548 -21.29865,-18.06846 -22.00282,-18.73911 -1.06122,-1.01072 0.54562,-0.75093 3.39217,-4.48011 3.76233,-4.92892 9.37504,-14.31256 13.46573,-22.51275 1.44286,-2.89236 2.51686,-7.14948 2.68935,-7.34142 0.29401,-0.32714 36.36916,27.809 41.94043,32.45847 l 2.55618,2.13325 -5.73252,11.46328 c -7.05748,12.89319 -13.86023,22.06837 -16.1123,23.47481 -1.45448,0.90835 -3.55162,-2.54783 -20.19622,-16.45642 z"
         style="color:#000000;fill:#000000;fill-opacity:1;fill-rule:nonzero;stroke:#000000;stroke-width:1;stroke-linecap:round;stroke-linejoin:round;stroke-miterlimit:4;stroke-opacity:1;stroke-dasharray:none;stroke-dashoffset:0;marker:none;visibility:visible;display:inline;overflow:visible;enable-background:accumulate" />
      <path
         transform="translate(52.530009,151.15086)"
         id="path4756"
         d="m 377.72206,264.26288 c -5.52177,-3.92157 -16.60298,-12.14417 -24.62492,-18.27245 l -14.58533,-11.14233 2.33022,-2.44691 c 3.09052,-3.24528 7.97116,-11.45022 14.97807,-25.17994 l 5.74611,-11.25923 10.22926,7.86444 c 5.6261,4.32545 15.4515,12.17425 21.83422,17.44179 l 11.60496,9.57735 -3.64701,10.55008 c -5.02102,14.52481 -10.27071,26.79912 -12.20681,28.54077 -1.47529,1.32711 -2.51138,0.82291 -11.65877,-5.67357 z"
         style="color:#000000;fill:#000000;fill-opacity:1;fill-rule:nonzero;stroke:#000000;stroke-width:1;stroke-linecap:round;stroke-linejoin:round;stroke-miterlimit:4;stroke-opacity:1;stroke-dasharray:none;stroke-dashoffset:0;marker:none;visibility:visible;display:inline;overflow:visible;enable-background:accumulate" />
      <path
         sodipodi:nodetypes="ccccsscccsscc"
         transform="translate(52.530009,151.15086)"
         id="path4758"
         d="m 436.52364,257.72646 c -6.83554,-6.98955 -16.16665,-16.09765 -20.73579,-20.24023 l -8.30753,-7.53195 3.77302,-10.03958 c 5.66485,-15.07353 11.77166,-27.12853 16.14766,-31.87593 4.36586,-4.7364 8.91455,-7.13182 10.79847,-5.68665 0.65688,0.5039 11.03249,8.40623 23.05692,17.56072 l 23.0476,17.43454 -4.80787,0.0668 c -7.95653,1.88168 -16.77992,15.66476 -25.7783,40.26849 -2.50032,6.83647 -4.59551,12.50243 -4.65598,12.59101 -0.0605,0.0886 -5.70265,-5.55767 -12.5382,-12.54721 l 0,0 z"
         style="color:#000000;fill:#000000;fill-opacity:1;fill-rule:nonzero;stroke:#000000;stroke-width:1;stroke-linecap:round;stroke-linejoin:round;stroke-miterlimit:4;stroke-opacity:1;stroke-dasharray:none;stroke-dashoffset:0;marker:none;visibility:visible;display:inline;overflow:visible;enable-background:accumulate" />
      <path
         sodipodi:nodetypes="cssssssssc"
         transform="translate(52.530009,151.15086)"
         id="path4760"
         d="m 336.64698,174.88576 c -12.86246,-9.46078 -23.50667,-17.48255 -23.7998,-17.61493 -1.80647,-0.81584 11.98783,-27.83651 15.58975,-33.20625 4.89016,-7.29025 11.135,-11.98176 13.97788,-11.98176 1.79018,0 9.28622,5.72093 25.37796,17.5959 12.56053,9.2691 23.99711,17.74677 24.20385,17.93119 0.20674,0.18441 -1.42929,-0.1188 -2.42486,0.23429 -6.8571,2.43196 -13.09662,12.41168 -22.51057,32.12935 -3.59715,7.5343 -6.65,12.19046 -6.7841,12.1632 -0.1341,-0.0273 -10.76765,-7.79021 -23.63011,-17.25099 z"
         style="color:#000000;fill:#000000;fill-opacity:1;fill-rule:nonzero;stroke:#000000;stroke-width:1;stroke-linecap:round;stroke-linejoin:round;stroke-miterlimit:4;stroke-opacity:1;stroke-dasharray:none;stroke-dashoffset:0;marker:none;visibility:visible;display:inline;overflow:visible;enable-background:accumulate" />
      <path
         sodipodi:nodetypes="ccccsssssc"
         transform="translate(52.530009,151.15086)"
         id="path4762"
         d="M 257.67341,116.32362 C 242.66607,103.80448 226.38211,89.230136 221.9975,85.304046 l -5.1308,-4.594249 3.57511,-7.099219 c 8.3484,-16.57771 15.88913,-25.572258 23.30053,-27.792766 4.55229,-1.363901 1.9583,-2.802271 30.97915,17.177969 18.36126,12.641335 19.8363,12.563443 17.72327,13.923454 -5.59394,3.600437 -10.77714,10.231729 -18.76492,26.508575 -4.56802,9.30836 -8.24045,18.17521 -8.76633,18.19065 -0.52589,0.0154 -4.87363,-3.32073 -7.2401,-5.29484 z"
         style="color:#000000;fill:#000000;fill-opacity:1;fill-rule:nonzero;stroke:#000000;stroke-width:1;stroke-linecap:round;stroke-linejoin:round;stroke-miterlimit:4;stroke-opacity:1;stroke-dasharray:none;stroke-dashoffset:0;marker:none;visibility:visible;display:inline;overflow:visible;enable-background:accumulate" />
      <path
         sodipodi:nodetypes="cc"
         transform="translate(52.530009,151.15086)"
         id="path4764"
         d="m 270.59069,39.20218 c 75.5246,43.724103 161.12289,124.29686 258.16073,186.44942"
         style="fill:none;stroke:#000000;stroke-width:1px;stroke-linecap:butt;stroke-linejoin:miter;stroke-opacity:1" />
      <path
         sodipodi:nodetypes="cc"
         transform="translate(52.530009,151.15086)"
         id="path4766"
         d="m 335.34597,28.173298 c -5.0901,35.404258 -19.27101,34.50235 -31.10063,54.764161"
         style="fill:none;stroke:#000000;stroke-width:1px;stroke-linecap:butt;stroke-linejoin:miter;stroke-opacity:1" />
      <path
         sodipodi:nodetypes="cc"
         transform="translate(52.530009,151.15086)"
         id="path4768"
         d="M 381.99693,63.330537 C 375.40539,92.799485 362.43892,101.21134 354.2768,118.09469"
         style="fill:none;stroke:#000000;stroke-width:1px;stroke-linecap:butt;stroke-linejoin:miter;stroke-opacity:1" />
      <path
         sodipodi:nodetypes="cc"
         transform="translate(52.530009,151.15086)"
         id="path4770"
         d="m 423.91517,91.726769 c -7.60203,39.181041 -17.59789,33.283121 -22.31132,60.849071"
         style="fill:none;stroke:#000000;stroke-width:1px;stroke-linecap:butt;stroke-linejoin:miter;stroke-opacity:1" />
      <path
         sodipodi:nodetypes="cc"
         transform="translate(52.530009,151.15086)"
         id="path4772"
         d="m 465.15732,121.4752 c -5.38044,32.5626 -11.40011,39.61914 -20.28303,64.90567"
         style="fill:none;stroke:#000000;stroke-width:1px;stroke-linecap:butt;stroke-linejoin:miter;stroke-opacity:1" />
      <path
         sodipodi:nodetypes="cc"
         transform="translate(52.530009,151.15086)"
         id="path4774"
         d="m 508.42776,149.87143 c -4.3229,19.53198 -11.256,41.43766 -27.04403,62.87737"
         style="fill:none;stroke:#000000;stroke-width:1px;stroke-linecap:butt;stroke-linejoin:miter;stroke-opacity:1" />
      <path
         transform="translate(52.530009,151.15086)"
         id="path4776"
         d="m 305.45739,60.335354 c -5.3919,-3.702838 -14.97563,-9.953531 -21.29717,-13.890429 -6.32155,-3.936899 -11.62686,-7.271467 -11.7896,-7.410154 -0.16274,-0.138686 0.93099,-1.538821 2.43049,-3.11141 8.05428,-8.446828 14.71838,-20.170813 17.0938,-30.072673 0.46829,-1.9520408 0.9523,-3.549165 1.07558,-3.549165 0.33032,0 24.17186,15.42193 33.41915,21.617223 l 7.98049,5.346588 -0.60462,3.251588 c -2.50762,13.485756 -8.21857,24.887796 -16.23986,32.423241 l -2.2648,2.127623 -9.80346,-6.732432 z"
         style="color:#000000;fill:#000000;fill-opacity:1;fill-rule:nonzero;stroke:#000000;stroke-width:1;stroke-linecap:round;stroke-linejoin:round;stroke-miterlimit:4;stroke-opacity:1;stroke-dasharray:none;stroke-dashoffset:0;marker:none;visibility:visible;display:inline;overflow:visible;enable-background:accumulate" />
      <path
         transform="translate(52.530009,151.15086)"
         id="path4778"
         d="m 385.14641,119.38367 -20.64649,-15.96072 3.53354,-5.430991 c 7.11308,-10.932652 9.809,-16.783622 13.10805,-28.448397 l 1.72942,-6.114892 20.01708,14.443668 20.01709,14.443669 -1.2726,5.531289 c -2.62845,11.424424 -5.34251,18.404424 -11.53765,29.672494 l -4.30195,7.82461 -20.64649,-15.96073 z"
         style="color:#000000;fill:#000000;fill-opacity:1;fill-rule:nonzero;stroke:#000000;stroke-width:1;stroke-linecap:round;stroke-linejoin:round;stroke-miterlimit:4;stroke-opacity:1;stroke-dasharray:none;stroke-dashoffset:0;marker:none;visibility:visible;display:inline;overflow:visible;enable-background:accumulate" />
      <path
         transform="translate(52.530009,151.15086)"
         id="path4780"
         d="m 470.94169,184.61174 c -10.31423,-7.4927 -18.75704,-13.96154 -18.76179,-14.37522 -0.005,-0.41367 0.85365,-2.84763 1.90758,-5.4088 4.55967,-11.08059 8.7682,-25.54958 10.93201,-37.58441 l 0.81475,-4.53151 6.85955,4.59705 c 8.09597,5.42568 27.04228,17.30176 31.91858,20.00747 l 3.42381,1.89977 -0.85111,2.77308 c -0.46812,1.52519 -1.91177,6.60385 -3.20811,11.28591 -2.76994,10.00432 -6.38827,19.37744 -10.97711,28.43572 l -3.30501,6.52401 -18.75315,-13.62307 z"
         style="color:#000000;fill:#000000;fill-opacity:1;fill-rule:nonzero;stroke:#000000;stroke-width:1;stroke-linecap:round;stroke-linejoin:round;stroke-miterlimit:4;stroke-opacity:1;stroke-dasharray:none;stroke-dashoffset:0;marker:none;visibility:visible;display:inline;overflow:visible;enable-background:accumulate" />
      <path
         transform="translate(52.530009,151.15086)"
         id="path4782"
         d="m 423.37513,168.79286 -21.02096,-15.90221 1.20256,-5.14911 c 0.66142,-2.83201 1.61551,-6.1269 2.12021,-7.32197 l 0.91763,-2.17285 7.069,5.51386 c 3.88795,3.03263 13.30603,10.22018 20.92906,15.97234 7.62304,5.75217 14.13262,10.69744 14.46573,10.98951 0.34487,0.30236 -0.49228,3.4581 -1.94412,7.32866 -1.40239,3.7387 -2.58767,6.76306 -2.63397,6.72081 -0.0463,-0.0423 -9.54361,-7.23282 -21.10514,-15.97904 z"
         style="color:#000000;fill:#000000;fill-opacity:1;fill-rule:nonzero;stroke:#000000;stroke-width:1;stroke-linecap:round;stroke-linejoin:round;stroke-miterlimit:4;stroke-opacity:1;stroke-dasharray:none;stroke-dashoffset:0;marker:none;visibility:visible;display:inline;overflow:visible;enable-background:accumulate" />
      <path
         transform="translate(52.530009,151.15086)"
         id="path4784"
         d="m 330.81117,100.23957 c -12.27123,-8.934906 -22.89282,-16.662629 -23.60354,-17.172721 -1.2579,-0.902819 -1.24643,-0.996618 0.43222,-3.533237 1.95915,-2.960474 7.20137,-9.178026 8.0037,-9.492806 0.60483,-0.237296 5.56808,3.310486 29.02768,20.749288 9.11046,6.772299 16.66127,12.589536 16.77958,12.927186 0.11831,0.33766 -0.97863,2.37718 -2.43766,4.53227 -1.45902,2.15509 -3.16092,4.90714 -3.782,6.11567 -0.62108,1.20853 -1.3496,2.17985 -1.61894,2.15848 -0.26935,-0.0214 -10.52981,-7.34923 -22.80104,-16.28413 z"
         style="color:#000000;fill:#000000;fill-opacity:1;fill-rule:nonzero;stroke:#000000;stroke-width:1;stroke-linecap:round;stroke-linejoin:round;stroke-miterlimit:4;stroke-opacity:1;stroke-dasharray:none;stroke-dashoffset:0;marker:none;visibility:visible;display:inline;overflow:visible;enable-background:accumulate" />
      <path
         sodipodi:nodetypes="csssssscccc"
         transform="translate(52.530009,151.15086)"
         id="path4786"
         d="m 483.41754,272.05892 c -5.18032,-3.15842 -3.97924,-7.70598 5.80165,-21.96647 7.15287,-10.42885 9.12468,-17.63102 6.52829,-23.84504 -1.32972,-3.18248 -2.92363,-4.86552 -8.58801,-9.06828 -2.51003,-1.86234 -5.35368,-3.67187 -5.35368,-4.02118 0,-0.54042 7.04686,-10.96385 8.45052,-12.60929 0.25953,-0.30422 3.39539,2.61914 7.20997,5.28942 3.81458,2.67028 12.35238,8.43217 18.97289,12.8042 l 12.03728,7.94914 -4.41205,8.03196 c -16.58099,30.18498 -30.90355,43.37599 -40.64686,37.43554 z"
         style="color:#000000;fill:#000000;fill-opacity:1;fill-rule:nonzero;stroke:#000000;stroke-width:1;stroke-linecap:round;stroke-linejoin:round;stroke-miterlimit:4;stroke-opacity:1;stroke-dasharray:none;stroke-dashoffset:0;marker:none;visibility:visible;display:inline;overflow:visible;enable-background:accumulate" />
    </g>
  </g>
</svg>
