<svg xmlns="http://www.w3.org/2000/svg" xmlns:xlink="http://www.w3.org/1999/xlink" viewBox="0 0 7.6799 7.6799"><defs><style>.a{fill:none;}.b{clip-path:url(#a);}.c{fill:#eb992f;}.c,.d{fill-rule:evenodd;}.d{fill:#a4a3a4;}</style><clipPath id="a"><rect class="a" x="-0.0003" width="7.6799" height="7.6802"/></clipPath></defs><title>haukehirsch-1</title><g class="b"><path class="c" d="M5.7586,2.6379a.2401.2401,0,1,1-.4802,0A1.43909,1.43909,0,0,0,3.8398,1.1993a.2401.2401,0,1,1,0-.4802A1.9193,1.9193,0,0,1,5.7586,2.6379M5.2277,5.2792A5.02081,5.02081,0,0,0,6.4786,2.6379a2.6388,2.6388,0,0,0-5.2776,0A5.02425,5.02425,0,0,0,2.452,5.2792Z"/><path class="d" d="M2.6388,5.7591H5.0386v.9607a.9628.9628,0,0,1-.9604.9604H3.5991a.96278.96278,0,0,1-.9603-.9604Z"/></g></svg>