<svg xmlns="http://www.w3.org/2000/svg" xmlns:xlink="http://www.w3.org/1999/xlink" viewBox="0 0 7.6799 7.6799"><defs><style>.a{fill:none;}.b{clip-path:url(#a);}.c{fill:#a4a3a4;fill-rule:evenodd;}</style><clipPath id="a"><rect class="a" x="-0.0003" width="7.6799" height="7.6802"/></clipPath></defs><title>haukehirsch-2</title><g class="b"><path class="c" d="M5.7574,2.6379a.24005.24005,0,1,1-.4801,0A1.43926,1.43926,0,0,0,3.8387,1.1993a.2401.2401,0,0,1,0-.4802A1.9193,1.9193,0,0,1,5.7574,2.6379M5.2265,5.2792A5.02,5.02,0,0,0,6.4774,2.6379a2.63875,2.63875,0,1,0-5.2775,0A5.024,5.024,0,0,0,2.4508,5.2792Z"/><path class="c" d="M2.6388,5.7591H5.0386v.9607a.9628.9628,0,0,1-.9604.9604H3.5991a.96278.96278,0,0,1-.9603-.9604Z"/></g></svg>