<svg xmlns="http://www.w3.org/2000/svg" xmlns:xlink="http://www.w3.org/1999/xlink" viewBox="0 0 7.6799 7.6799"><defs><style>.a{fill:none;}.b{clip-path:url(#a);}.c{fill:#0075c3;fill-rule:evenodd;}.d{fill:#a3a2a3;}</style><clipPath id="a"><rect class="a" width="7.6799" height="7.6802"/></clipPath></defs><title>haukehirsch-3</title><g class="b"><path class="c" d="M.9604,7.1997h5.76a.481.481,0,0,0,.4799-.4799V2.8922L4.6885,5.4062l-.0632.0562a1.19715,1.19715,0,0,1-1.6336-.0562L1.7912,4.2058a1.19769,1.19769,0,0,1,0-1.694l.0028-.0029a1.19769,1.19769,0,0,1,1.694,0l.3521.3521L6.1118.5893,6.1744.5335c.0216-.0187.0437-.0366.0661-.0536H.9604A.481.481,0,0,0,.4805.9598v5.76a.481.481,0,0,0,.4799.4799"/><path class="d" d="M3.8399,5.27756a.71839.71839,0,0,1-.50927-.21094l-1.2002-1.2002A.71988.71988,0,0,1,3.149,2.84885l.69091.69043L6.45074.92892A.71988.71988,0,1,1,7.4693,1.9465L4.34918,5.06662A.7184.7184,0,0,1,3.8399,5.27756Z"/></g></svg>