<svg xmlns="http://www.w3.org/2000/svg" xmlns:xlink="http://www.w3.org/1999/xlink" viewBox="0 0 7.6799 7.6799"><defs><clipPath id="clip-path"><rect x="-0.0003" y="-0.00015" width="7.6799" height="7.6802" style="fill:none"/></clipPath></defs><title>haukehirsch-33</title><g id="Page_33" data-name="Page 33"><g id="Page_33-2" data-name="Page 33"><g style="clip-path:url(#clip-path)"><path d="M6.9588,3.90115A1.42766,1.42766,0,0,1,7.6805,5.039a.2401.2401,0,0,1-.4802,0,.842.842,0,0,0-.3444-.6151.92557.92557,0,0,0,.1032-.4342Z" style="fill:#f0f0f0"/><path d="M.8243,4.42305a.8428.8428,0,0,0-.345.6159.2401.2401,0,0,1-.4802,0,1.42938,1.42938,0,0,1,.7212-1.1378v.0913a.9695.9695,0,0,0,.104.4306" style="fill:#f0f0f0"/><path d="M3.83984,6.95905C1.68652,6.95905,0,6.1153,0,5.03913a.24024.24024,0,1,1,.48047,0c0,.68066,1.37988,1.43945,3.35937,1.43945a.24024.24024,0,1,1,0,.48047ZM4.79,6.89948A.24022.24022,0,0,1,4.75977,6.421c1.41406-.17969,2.43945-.76074,2.43945-1.38183a.24024.24024,0,1,1,.48047,0c0,.89355-1.14942,1.64062-2.85938,1.85839Z" style="fill:#f0f0f0"/><path d="M3.3148,1.96365,1.2084,1.161l-.0091.0348v2.7939a.46752.46752,0,0,0,.0777.2602.43116.43116,0,0,0,.1964.1565l2.1263.8101V2.37525a.45292.45292,0,0,0-.0765-.2494.43919.43919,0,0,0-.2084-.1622" style="fill:#0075c3;fill-rule:evenodd"/><path d="M3.8398-.00275a.42735.42735,0,0,0-.1528.0295L1.6396.81225l2.0474.7801a.40986.40986,0,0,0,.2974.0031L6.0321.81505,3.9915.026a.42124.42124,0,0,0-.1517-.0287" style="fill:#c0392b;fill-rule:evenodd"/><path d="M4.0799,2.37445v2.8417l2.126-.8098a.44033.44033,0,0,0,.1987-.1591.45324.45324,0,0,0,.0754-.2576l-.0079-2.6961a.47165.47165,0,0,0-.0176-.1261l-2.0897.7962a.43919.43919,0,0,0-.2084.1622.45513.45513,0,0,0-.0765.2486" style="fill:#068f55;fill-rule:evenodd"/><path d="M3.14063,7.67877a.24023.24023,0,0,1-.16993-.41015l.55078-.54981L2.9707,6.169a.24031.24031,0,0,1,.33985-.33985l.71972.71973a.24049.24049,0,0,1,0,.33985l-.71972.71972A.23954.23954,0,0,1,3.14063,7.67877Z" style="fill:#f0f0f0"/></g></g></g></svg>