<svg xmlns="http://www.w3.org/2000/svg" xmlns:xlink="http://www.w3.org/1999/xlink" viewBox="0 0 7.6799 7.6799"><defs><clipPath id="clip-path"><rect y="-0.00015" width="7.6799" height="7.6802" style="fill:none"/></clipPath></defs><title>haukehirsch-38</title><g id="Page_38" data-name="Page 38"><g id="Page_38-2" data-name="Page 38"><g style="clip-path:url(#clip-path)"><path d="M2.39932,7.20221A.23959.23959,0,0,1,2.2294,7.1319L.54776,5.45026a.24105.24105,0,0,1-.07031-.16992V.71784A.24006.24006,0,0,1,.71768.4776h4.5625A.241.241,0,0,1,5.4501.54791L7.13174,2.22956a.2403.2403,0,0,1-.33984.33984L5.18057.95807H.95792V5.18073L2.56924,6.79206a.24023.24023,0,0,1-.16992.41015Z" style="fill:#d1cdcd"/><path d="M6.96182,7.20221H2.4003A.24007.24007,0,0,1,2.16006,6.962V2.40045a.24007.24007,0,0,1,.24024-.24023H6.96182a.24006.24006,0,0,1,.24024.24023V6.962A.24006.24006,0,0,1,6.96182,7.20221ZM2.64053,6.72174H6.72159v-4.081H2.64053Z" style="fill:#d1cdcd"/><path d="M2.39932,2.63971A.23959.23959,0,0,1,2.2294,2.5694L.54776.88776A.24031.24031,0,0,1,.8876.54791L2.56924,2.22956a.24023.24023,0,0,1-.16992.41015Z" style="fill:#d1cdcd"/></g></g></g></svg>