<svg xmlns="http://www.w3.org/2000/svg" xmlns:xlink="http://www.w3.org/1999/xlink" viewBox="0 0 7.6799 7.6799"><defs><clipPath id="clip-path"><rect x="-0.0003" y="-0.00015" width="7.6799" height="7.6802" style="fill:none"/></clipPath></defs><title>haukehirsch-37</title><g id="Page_37" data-name="Page 37"><g id="Page_37-2" data-name="Page 37"><g style="clip-path:url(#clip-path)"><path d="M3.84,7.44049a.24071.24071,0,0,1-.15332-.05566L.80481,4.98541A.24138.24138,0,0,1,.7179,4.80084V1.44049A.23962.23962,0,0,1,.882,1.213L3.76379.252a.23516.23516,0,0,1,.2295.043L6.87415,2.6944a.24142.24142,0,0,1,.08691.18457V6.23932a.23962.23962,0,0,1-.16406.22754L3.91614,7.4278A.23082.23082,0,0,1,3.84,7.44049ZM1.19836,4.68854,3.89075,6.93073l2.58984-.86426V2.99127L3.78918.74909l-2.59082.86425Z" style="fill:#f0f0f0"/></g></g></g></svg>