<svg xmlns="http://www.w3.org/2000/svg" xmlns:xlink="http://www.w3.org/1999/xlink" viewBox="0 0 7.6799 7.6799"><defs><clipPath id="clip-path"><rect y="-0.00015" width="7.6799" height="7.6802" style="fill:none"/></clipPath></defs><title>haukehirsch-41</title><g id="Page_41" data-name="Page 41"><g id="Page_41-2" data-name="Page 41"><g style="clip-path:url(#clip-path)"><path d="M3.84009,4.79791H2.63892A2.4027,2.4027,0,0,1,.2395,2.39752v-.7207H2.15942v.7207a.48631.48631,0,0,0,.4795.48047H3.84009Z" style="fill:#f0f0f0"/><path d="M7.4397,5.99811H5.51978v-.7207a.47972.47972,0,0,0-.4795-.4795H3.84009V2.878H5.04028A2.40187,2.40187,0,0,1,7.4397,5.27741Z" style="fill:#f0f0f0"/><path d="M.2398-.00015H2.16a.24023.24023,0,0,1,.2398.2398v.718a.24023.24023,0,0,1-.2398.2398H.2398A.24023.24023,0,0,1,0,.95765v-.718a.24023.24023,0,0,1,.2398-.2398" style="fill:#0075c3;fill-rule:evenodd"/><path d="M5.5199,6.48235H7.4401a.24032.24032,0,0,1,.2398.2399v.718a.24023.24023,0,0,1-.2398.2398H5.5199a.24023.24023,0,0,1-.2398-.2398v-.718a.24032.24032,0,0,1,.2398-.2399" style="fill:#0075c3;fill-rule:evenodd"/></g></g></g></svg>