<svg xmlns="http://www.w3.org/2000/svg" xmlns:xlink="http://www.w3.org/1999/xlink" viewBox="0 0 7.6799 7.6799"><defs><style>.a{fill:none;}.b{clip-path:url(#a);}.c{fill:#0075c3;}.c,.d{fill-rule:evenodd;}.d{fill:#d1cdcd;}</style><clipPath id="a"><rect class="a" width="7.6799" height="7.6802"/></clipPath></defs><title>haukehirsch-5</title><g class="b"><path class="c" d="M3.4489,4.9745a6.46326,6.46326,0,0,1-.9286.0652A5.43554,5.43554,0,0,1,.6531,4.7424L.6457,4.7395.6386,4.7367.6313,4.7339l-.004-.0015L.6242,4.731.6171,4.7282.61,4.7253.6029,4.7225.6021,4.7222.5958,4.7197l-.007-.0029L.5817,4.714.5769,4.712.5746,4.7112.5678,4.7081.5607,4.7052.5536,4.7024.5522,4.7018.5468,4.6993.54,4.6964.5332,4.6933.5278,4.691.5261,4.6905.5193,4.6874.5128,4.6845.506,4.6814.5037,4.6806.4992,4.6783.4924,4.6755.4859,4.6723l-.006-.0028L.4791,4.6692.4725,4.6661.4657,4.663.4592,4.6599.4564,4.6587.4527,4.6568.4462,4.6536.4397,4.6505.4334,4.6474H.4331L.4269,4.6443.4204,4.6412.4139,4.6378.4105,4.6363.4076,4.6346.4014,4.6315.3949,4.6281.3886,4.625.3881,4.6247.3824,4.6219.3762,4.6185.3699,4.6154.366,4.6131.3637,4.612l-.006-.0034L.3515,4.6054.3455,4.602.3441,4.6015.3393,4.5986.3334,4.5955l-.006-.0034L.3229,4.5896.3212,4.5887l-.006-.0034L.3093,4.5819.3036,4.5785l-.002-.0008-.004-.0026L.2917,4.5717.286,4.5683.2809,4.5655.2801,4.5649.2744,4.5615.2687,4.5581.2631,4.5544.2605,4.553.2574,4.551.2517,4.5476.246,4.5439.2407,4.5408.2404,4.5405v.7387c0,.1548.2233.3178.5833.455a4.95438,4.95438,0,0,0,1.6966.265,6.09666,6.09666,0,0,0,.8101-.0527l-.0998-.1196a.466.466,0,0,1-.0966-.4238.71407.71407,0,0,1,.3149-.4286m.8705-.2072q-.0582.02085-.1193.04a1.15978,1.15978,0,0,1,.1193.0218Zm0-.5142-.1026.0414a4.95578,4.95578,0,0,1-1.6965.265,4.95681,4.95681,0,0,1-1.6966-.265c-.36-.1372-.5833-.3002-.5833-.455v-.739l.0003.0003.0053.0031.0057.0037.0057.0034.0031.002.0026.0014.0056.0037.0057.0034.0057.0034.0008.0006.0051.0028.0057.0034.0059.0034.004.0026.002.0008.0057.0034.0059.0034.006.0034.0017.0009.0045.0025.006.0034.0059.0031.0048.0029.0014.0005.006.0034.0062.0032.006.0034.0023.0011.0039.0023.0063.0031.0062.0034.0057.0028.0005.0003.0063.0031.0065.0034.0062.0031.0029.0017.0034.0015.0065.0034.0065.0031.0062.0031H.4334l.0063.0031.0065.0031.0065.0032.0037.0019.0028.0012.0065.0031.0068.0031.0066.0031.0008.0003.006.0028.0065.0032.0068.0028.0045.0023.0023.0008.0068.0031.0065.0029.0068.0031.0017.0005.0054.0023L.54,3.2564l.0068.0029.0054.0025.0014.0006.0071.0028.0071.0029.0068.0031.0023.0008.0048.002.0071.0028.007.0029.0063.0025.0008.0003L.61,3.2853l.0071.0029.0071.0028.0031.0014.004.0015.0073.0028.0071.0028.0074.0029a5.43554,5.43554,0,0,0,1.8672.2973,5.548,5.548,0,0,0,1.7991-.2724Zm0-1.44-.1026.0414a4.95578,4.95578,0,0,1-1.6965.265,4.95681,4.95681,0,0,1-1.6966-.265c-.36-.1372-.5833-.3002-.5833-.455V1.6608l.0003.0003.0053.0031.0057.0037.0057.0034.0113.0071.0057.0034.0057.0034.0008.0006.0051.0028.0057.0034.0059.0034.004.0025.002.0009.0057.0034.0059.0034.006.0034.0017.0009.0045.0025.006.0034.0059.0031.0048.0029.0014.0005.006.0034.0062.0031.006.0034.0023.0012.0039.0022.0063.0032.0062.0034.0057.0028.0005.0003.0063.0031.0065.0034.0062.0031.0029.0017.0034.0014.0065.0034.0065.0032.0062.0031H.4334l.0063.0031.0065.0031.0065.0031.0037.002.0028.0012.0065.0031.0068.0031.0066.0031.0008.0003.006.0028.0065.0031.0068.0029.0045.0022.0023.0009.0068.0031.0065.0028.0068.0032.0017.0005.0054.0023L.54,1.8167l.0068.0029.0054.0025.0014.0006.0071.0028.0071.0028.0068.0032.0023.0008.0048.002.0071.0028.007.0029.0063.0025.0008.0003L.61,1.8456l.0071.0029.0071.0028.0031.0014.004.0014.0073.0029.0071.0028.0074.0028A5.433,5.433,0,0,0,2.5203,2.16a5.43934,5.43934,0,0,0,1.8672-.2974l.0073-.0028.0071-.0028.0074-.0029.004-.0014.0031-.0014.0071-.0028.0071-.0029.007-.0028.0009-.0003L4.4447,1.84l.0071-.0029.0071-.0028.0048-.002.0023-.0008.0068-.0032.0071-.0028.0071-.0028.0014-.0006.0054-.0025.0068-.0029.0068-.0031.0054-.0023.0017-.0005.0068-.0032.0065-.0028.0068-.0031.0023-.0009.0045-.0022.0068-.0029.0065-.0031.006-.0028.0008-.0003.0065-.0031.0068-.0031.0066-.0031.0028-.0012.0037-.002.0065-.0031.0065-.0031.0062-.0031h.0003l.0063-.0031.0065-.0032.0065-.0034.0034-.0014.0028-.0017.0063-.0031.0065-.0034.0062-.0031.0006-.0003.0057-.0028.0062-.0034.0062-.0032.004-.0022.0023-.0012.0059-.0034.0063-.0031.0059-.0034.0014-.0005.0049-.0029.0059-.0031.006-.0034.0045-.0025.0017-.0009.006-.0034.0059-.0034.0057-.0034.002-.0009.0039-.0025.006-.0034.0057-.0034.0051-.0028.0008-.0006.0057-.0034.0056-.0034.0114-.0071.0057-.0034.0056-.0037.0054-.0031.0003-.0003v.3396a.84055.84055,0,0,0-.4808.7591ZM4.8002.9601c0,.1548-.2234.3175-.5834.4547a4.95578,4.95578,0,0,1-1.6965.265,4.95681,4.95681,0,0,1-1.6966-.265C.4637,1.2776.2404,1.1149.2404.9601c0-.1551.2233-.3178.5833-.455A4.95681,4.95681,0,0,1,2.5203.2401a4.95578,4.95578,0,0,1,1.6965.265C4.5768.6423,4.8002.805,4.8002.9601Z"/><path class="d" d="M5.1593,2.3995h.0003a.36067.36067,0,0,1,.36.36V5.8796a.36067.36067,0,0,1-.36.36H5.1593a.36074.36074,0,0,1-.36-.36V2.7595a.36074.36074,0,0,1,.36-.36"/><path class="d" d="M5.8799,3.8395H5.8796a.36093.36093,0,0,0-.36.36V5.8796a.36086.36086,0,0,0,.36.36h.0003a.36086.36086,0,0,0,.36-.36V4.1995a.36093.36093,0,0,0-.36-.36"/><path class="d" d="M6.5999,4.0796h.0003a.36093.36093,0,0,1,.36.36v1.44a.36086.36086,0,0,1-.36.36H6.5999a.36086.36086,0,0,1-.36-.36v-1.44a.36093.36093,0,0,1,.36-.36"/><path class="d" d="M7.3205,4.3197H7.3202a.36086.36086,0,0,0-.36.36V5.8796a.3608.3608,0,0,0,.36.36h.0003a.36086.36086,0,0,0,.36-.36V4.6797a.36093.36093,0,0,0-.36-.36"/><path class="d" d="M4.8609,5.7543a1.22109,1.22109,0,0,0-.7816-.4748c-.4184,0-.4799.2401-.4799.2401L4.9808,7.1124l2.6988-.1528V5.2795Z"/><path class="d" d="M5.9998,7.6799h.7197a.96286.96286,0,0,0,.9601-.9601v-.36A1.32383,1.32383,0,0,0,6.359,5.0397H6.12A1.32392,1.32392,0,0,0,4.7993,6.3598v.1199A1.20335,1.20335,0,0,0,5.9998,7.6799"/></g></svg>