<svg xmlns="http://www.w3.org/2000/svg" xmlns:xlink="http://www.w3.org/1999/xlink" viewBox="0 0 7.6799 7.6799"><defs><style>.a{fill:none;}.b{clip-path:url(#a);}.c{fill:#eb992f;}.d{fill:#1475bb;}.e{fill:#c0392b;}.f{fill:#0075c3;}.g{fill:#068f55;}.h{fill:#d1cdcd;fill-rule:evenodd;}</style><clipPath id="a"><rect class="a" width="7.6799" height="7.6802"/></clipPath></defs><title>haukehirsch-6</title><g class="b"><rect class="c" x="0.36" y="0.36" width="1.1999" height="1.1999"/><path class="d" d="M6.72012,1.20041H2.4003a.24024.24024,0,0,1,0-.48047H6.72012a.24024.24024,0,0,1,0,.48047Z"/><rect class="e" x="0.36" y="2.0392" width="1.1999" height="1.1999"/><path class="f" d="M2.4001,4.5595a.2401.2401,0,0,1,0-.4802H4.3194v.4802Z"/><path class="f" d="M5.9182,2.399h.8019a.24005.24005,0,1,1,0,.4801H5.9995V2.7595a.83581.83581,0,0,0-.0813-.3605m-3.5181.4801a.24005.24005,0,1,1,0-.4801H4.4008a.83444.83444,0,0,0-.0814.3605v.1196Z"/><rect class="g" x="0.36" y="3.7193" width="1.1999" height="1.1999"/><path class="h" d="M5.1593,2.3995h.0003a.36067.36067,0,0,1,.36.36V5.8796a.36067.36067,0,0,1-.36.36H5.1593a.36074.36074,0,0,1-.36-.36V2.7595a.36074.36074,0,0,1,.36-.36"/><path class="h" d="M5.8799,3.8395H5.8796a.36093.36093,0,0,0-.36.36V5.8796a.36086.36086,0,0,0,.36.36h.0003a.36086.36086,0,0,0,.36-.36V4.1995a.36093.36093,0,0,0-.36-.36"/><path class="h" d="M6.5999,4.0796h.0003a.36093.36093,0,0,1,.36.36v1.44a.36086.36086,0,0,1-.36.36H6.5999a.36086.36086,0,0,1-.36-.36v-1.44a.36093.36093,0,0,1,.36-.36"/><path class="h" d="M7.3205,4.3197H7.3202a.36086.36086,0,0,0-.36.36V5.8796a.3608.3608,0,0,0,.36.36h.0003a.36086.36086,0,0,0,.36-.36V4.6797a.36093.36093,0,0,0-.36-.36"/><path class="h" d="M4.8609,5.7543a1.22109,1.22109,0,0,0-.7816-.4748c-.4184,0-.4799.2401-.4799.2401L4.9808,7.1124l2.6988-.1528V5.2795Z"/><path class="h" d="M5.9998,7.6799h.7197a.96286.96286,0,0,0,.9601-.9601v-.36A1.32383,1.32383,0,0,0,6.359,5.0397H6.12A1.32392,1.32392,0,0,0,4.7993,6.3598v.1199A1.20335,1.20335,0,0,0,5.9998,7.6799"/></g></svg>