<svg xmlns="http://www.w3.org/2000/svg" xmlns:xlink="http://www.w3.org/1999/xlink" viewBox="0 0 7.6799 7.6799"><defs><style>.a{fill:none;}.b{clip-path:url(#a);}.c,.e{fill:#d1cdcd;}.d{fill:#0075c3;}.d,.e{fill-rule:evenodd;}</style><clipPath id="a"><rect class="a" width="7.6799" height="7.6802"/></clipPath></defs><title>haukehirsch-2</title><g class="b"><path class="c" d="M5.2801.4799V.9598h.9598V.4799ZM3.3599.9598V.4799H.4802V.9598Zm1.44,0V.4799H3.8401V.9598ZM.4802,5.7597h2.16v.4802H.2401A.24036.24036,0,0,1,0,5.9998V.2398A.24036.24036,0,0,1,.2401-.0003H6.48a.24036.24036,0,0,1,.2401.2401V1.9199H6.2399V1.44H5.2801v.4799H4.7999V1.44H3.8401V3.3605H3.3599V1.44H.4802Z"/><path class="d" d="M7.4398,6.2393H6.7195V4.0802a.72012.72012,0,0,0-.7197-.7197H4.5601V2.6396a.24017.24017,0,0,1,.2395-.2398H7.4398a.24.24,0,0,1,.2398.2398V5.9995a.24.24,0,0,1-.2398.2398"/><path class="e" d="M5.9998,7.6799H3.3596a.24017.24017,0,0,1-.2395-.2398V4.0802a.24017.24017,0,0,1,.2395-.2398H5.9998a.24.24,0,0,1,.2398.2398V7.4401a.24.24,0,0,1-.2398.2398"/></g></svg>