<svg xmlns="http://www.w3.org/2000/svg" xmlns:xlink="http://www.w3.org/1999/xlink" viewBox="0 0 7.6799 7.6799"><defs><clipPath id="clip-path"><rect y="-0.00015" width="7.6799" height="7.6802" style="fill:none"/></clipPath></defs><title>haukehirsch-27</title><g id="Page_27" data-name="Page 27"><g id="Page_27-2" data-name="Page 27"><g style="clip-path:url(#clip-path)"><path d="M3.84015,7.20124A3.36133,3.36133,0,1,1,7.20148,3.83991,3.365,3.365,0,0,1,3.84015,7.20124Zm0-6.24219A2.88086,2.88086,0,1,0,6.721,3.83991,2.88366,2.88366,0,0,0,3.84015.95905Z" style="fill:#f0f0f0"/><rect x="2.3998" y="3.60015" width="2.88" height="0.4796" style="fill:#c0392b"/><path d="M5.2796,4.32038H2.39972a.24007.24007,0,0,1-.24024-.24024V3.59967a.24007.24007,0,0,1,.24024-.24023H5.2796a.24007.24007,0,0,1,.24024.24023v.48047A.24007.24007,0,0,1,5.2796,4.32038ZM2.63995,3.83991h0Z" style="fill:#c0392b"/></g></g></g></svg>