<svg xmlns="http://www.w3.org/2000/svg" xmlns:xlink="http://www.w3.org/1999/xlink" viewBox="0 0 7.6799 7.6799"><defs><clipPath id="clip-path"><rect y="-0.00015" width="7.6799" height="7.6802" style="fill:none"/></clipPath></defs><title>haukehirsch-30</title><g id="Page_30" data-name="Page 30"><g id="Page_30-2" data-name="Page 30"><g style="clip-path:url(#clip-path)"><path d="M1.91959,2.15924H.72037A.24006.24006,0,0,1,.48013,1.919V.71881A.24006.24006,0,0,1,.72037.47858H1.91959a.24006.24006,0,0,1,.24023.24023V1.919A.24006.24006,0,0,1,1.91959,2.15924Zm-.959-.48047h.71875V.95905H.9606Z" style="fill:#f0f0f0"/><path d="M1.92056,4.55963H.72134A.24006.24006,0,0,1,.48111,4.3194V3.1192A.24006.24006,0,0,1,.72134,2.879H1.92056a.24006.24006,0,0,1,.24024.24023V4.3194A.24006.24006,0,0,1,1.92056,4.55963Zm-.959-.48047h.71875V3.35944H.96158Z" style="fill:#f0f0f0"/><path d="M1.92056,6.95905H.72134a.24006.24006,0,0,1-.24023-.24024V5.51959a.24006.24006,0,0,1,.24023-.24023H1.92056a.24006.24006,0,0,1,.24024.24023V6.71881A.24006.24006,0,0,1,1.92056,6.95905Zm-.959-.48047h.71875V5.75983H.96158Z" style="fill:#f0f0f0"/><path d="M6.71939,1.67975H3.36a.24024.24024,0,1,1,0-.48047H6.71939a.24024.24024,0,1,1,0,.48047Z" style="fill:#f0f0f0"/><path d="M6.71939,4.08112H3.36a.24024.24024,0,1,1,0-.48047H6.71939a.24024.24024,0,1,1,0,.48047Z" style="fill:#f0f0f0"/><path d="M6.71939,6.48151H3.36a.24024.24024,0,1,1,0-.48047H6.71939a.24024.24024,0,1,1,0,.48047Z" style="fill:#f0f0f0"/></g></g></g></svg>