<svg xmlns="http://www.w3.org/2000/svg" xmlns:xlink="http://www.w3.org/1999/xlink" viewBox="0 0 7.6799 7.6799"><defs><style>.a{fill:none;}.b{clip-path:url(#a);}.c{fill:#1475bb;}.d{fill:#0075c3;}.e{fill:#d1cdcd;fill-rule:evenodd;}.f{fill:#eb992f;}.g{fill:#c0392b;}.h{fill:#068f55;}</style><clipPath id="a"><rect class="a" x="-0.0003" width="7.6799" height="7.6802"/></clipPath></defs><title>haukehirsch-1</title><g class="b"><path class="c" d="M6.71973,1.20041H2.3999a.24024.24024,0,0,1,0-.48047H6.71973a.24024.24024,0,0,1,0,.48047Z"/><path class="d" d="M2.3998,4.5595a.2401.2401,0,0,1,0-.4802H4.2299l-.4802.4802Z"/><path class="d" d="M2.3998,2.8791a.24005.24005,0,1,1,0-.4801H5.9159c-.0241.0201-.047.0411-.0692.0632l-.4169.4169Z"/><path class="e" d="M3.0056,5.9655l-.345,1.3972a.22019.22019,0,0,0,.2974.2974l1.3969-.345c1.3844-1.3845,1.7759-1.7756,3.16-3.1601a.42251.42251,0,0,0,.0854-.5757l-.8589-.8589a.42289.42289,0,0,0-.5758.0853Z"/><rect class="f" x="0.3597" y="0.36" width="1.1999" height="1.1999"/><rect class="g" x="0.3597" y="2.0392" width="1.1999" height="1.1999"/><rect class="h" x="0.3597" y="3.7193" width="1.1999" height="1.1999"/></g></svg>