<svg xmlns="http://www.w3.org/2000/svg" xmlns:xlink="http://www.w3.org/1999/xlink" viewBox="0 0 7.6799 7.6799"><defs><style>.a{fill:none;}.b{clip-path:url(#a);}.c{fill:#0075c3;}.d{fill:#1475bb;}.e{fill:#d1cdcd;}.f{fill:#eb992f;}.g{fill:#c0392b;}.h{fill:#068f55;}</style><clipPath id="a"><rect class="a" x="-0.0003" width="7.6799" height="7.6802"/></clipPath></defs><title>haukehirsch-2</title><g class="b"><path class="c" d="M2.3998,4.5595a.2401.2401,0,0,1,0-.4802h.8036l-.0416.0417a.9652.9652,0,0,0-.2075.3115,1.03115,1.03115,0,0,0-.0431.127Z"/><path class="d" d="M6.72,1.20041H2.39969a.24024.24024,0,0,1,0-.48047H6.72a.24024.24024,0,0,1,0,.48047Z"/><path class="d" d="M6.72,2.87912H2.39969a.24024.24024,0,0,1,0-.48047H6.72a.24024.24024,0,0,1,0,.48047Z"/><path class="e" d="M7.19949,6.48068H3.83963a.36035.36035,0,0,1,0-.7207H7.19949a.36035.36035,0,0,1,0,.7207Z"/><path class="e" d="M6.24,7.43967a.36036.36036,0,0,1-.25439-.61524l.95947-.959a.36011.36011,0,1,1,.50879.50976l-.95947.959A.35825.35825,0,0,1,6.24,7.43967Z"/><path class="e" d="M7.19949,5.04025H3.83963a.36035.36035,0,0,1,0-.7207H7.19949a.36035.36035,0,0,1,0,.7207Z"/><path class="e" d="M3.84012,5.04025a.36035.36035,0,0,1-.2544-.61523l.96-.96a.36011.36011,0,0,1,.50879.50976l-.96.96A.35819.35819,0,0,1,3.84012,5.04025Z"/><rect class="f" x="0.36" y="0.36" width="1.1999" height="1.1999"/><rect class="g" x="0.36" y="2.0392" width="1.1999" height="1.1999"/><rect class="h" x="0.36" y="3.7193" width="1.1999" height="1.1999"/></g></svg>