<svg xmlns="http://www.w3.org/2000/svg" xmlns:xlink="http://www.w3.org/1999/xlink" viewBox="0 0 7.6799 7.6799"><defs><clipPath id="clip-path"><rect x="-0.0003" width="7.6799" height="7.6802" style="fill:none"/></clipPath></defs><title>haukehirsch-03</title><g id="Page_3" data-name="Page 3"><g id="Page_3-2" data-name="Page 3"><g style="clip-path:url(#clip-path)"><path d="M.6395,7.4404h.5601V5.44a.90686.90686,0,0,1,.9159-.8799H5.8037a.90108.90108,0,0,1,.9161.8799V7.4404h.3203a.40079.40079,0,0,0,.4-.4V1.6398l-1.4-1.4H5.9998V2.0072a.89257.89257,0,0,1-.9091.8725H2.109a.89705.89705,0,0,1-.9091-.8725V.2398H.6395a.40419.40419,0,0,0-.4.4V7.0404a.40208.40208,0,0,0,.4.4" style="fill:#0075c3;fill-rule:evenodd"/><path d="M2.8811,6.9602a.2401.2401,0,0,1,0-.4802H5.04a.2401.2401,0,1,1,0,.4802ZM5.04,5.5199a.2401.2401,0,1,1,0,.4802H2.8811a.2401.2401,0,0,1,0-.4802ZM1.6795,7.4407H6.2399V5.44a.42168.42168,0,0,0-.4362-.4H2.1155a.42751.42751,0,0,0-.436.4Z" style="fill:#d1cdcd;fill-rule:evenodd"/><path d="M4.32.7197h.72V1.9199H4.32ZM5.5199.2398H1.6798V2.0072a.41765.41765,0,0,0,.4292.3926H5.0907a.41308.41308,0,0,0,.4292-.3926Z" style="fill:#d1cdcd;fill-rule:evenodd"/></g></g></g></svg>