<svg xmlns="http://www.w3.org/2000/svg" xmlns:xlink="http://www.w3.org/1999/xlink" viewBox="0 0 7.6799 7.6799"><defs><clipPath id="clip-path"><rect x="-0.0003" width="7.6799" height="7.6802" style="fill:none"/></clipPath></defs><title>haukehirsch-02</title><g id="Page_2" data-name="Page 2"><g id="Page_2-2" data-name="Page 2"><g style="clip-path:url(#clip-path)"><path d="M5.0397.7197l.9601.9601H5.0397ZM.9595,2.6385V.2398a.24036.24036,0,0,1,.2401-.2401H5.0397A.23949.23949,0,0,1,5.2095.07l1.44,1.44a.24.24,0,0,1,.0703.1698V3.3585H4.4529L3.424,2.7411a.71571.71571,0,0,0-.3702-.1026Z" style="fill:#f0f0f0;fill-rule:evenodd"/><path d="M1.1996,7.2006a.2401.2401,0,0,1,0-.4802H2.6393a.2401.2401,0,1,1,0,.4802Zm.0006-.9613a.2401.2401,0,1,1,0-.4802H2.6399a.2401.2401,0,0,1,0,.4802ZM.7194,7.6799H6.9602A.24023.24023,0,0,0,7.2,7.4401V4.0782a.241.241,0,0,0-.2398-.2398H4.3866a.23354.23354,0,0,1-.1233-.034L3.1771,3.1527a.23292.23292,0,0,0-.1233-.0343H.7194a.24173.24173,0,0,0-.2398.2398V7.4401A.241.241,0,0,0,.7194,7.6799Z" style="fill:#0075c3;fill-rule:evenodd"/></g></g></g></svg>