<svg id="Page_1" data-name="Page 1" xmlns="http://www.w3.org/2000/svg" xmlns:xlink="http://www.w3.org/1999/xlink" viewBox="0 0 7.6799 7.6799"><defs><clipPath id="clip-path"><rect x="-0.0003" width="7.6799" height="7.6802" style="fill:none"/></clipPath></defs><title>haukehirsch-01</title><g id="Page_1-2" data-name="Page 1"><g style="clip-path:url(#clip-path)"><path d="M4.8005,6.9608l.9601-.9601H4.8005ZM.9604.4799H3.9787a.24088.24088,0,0,1,.1038.0235A1.92188,1.92188,0,0,0,6.4678,3.2253l.0043.015.0073.0589.0012,2.7015a.241.241,0,0,1-.0703.1698l-1.44,1.44a.23991.23991,0,0,1-.1698.0703H.9604a.24043.24043,0,0,1-.2401-.2401V.72A.24036.24036,0,0,1,.9604.4799Z" style="fill:#d1cdcd"/><path d="M5.0397,1.6798a.2401.2401,0,0,1,0-.4802h.4796V.7197a.2401.2401,0,0,1,.4802,0v.4799h.4799a.2401.2401,0,0,1,0,.4802H5.9995v.4796a.2401.2401,0,1,1-.4802,0V1.6798ZM5.7597,0A1.43807,1.43807,0,1,0,6.7788.4218,1.43425,1.43425,0,0,0,5.7597,0Z" style="fill:#0075c3"/></g></g></svg>