<svg xmlns="http://www.w3.org/2000/svg" xmlns:xlink="http://www.w3.org/1999/xlink" viewBox="0 0 7.68 7.68"><defs><style>.a{fill:none;}.b{clip-path:url(#a);}.c{fill:#d1cdcd;}.d{fill:#0075c3;}.d,.e{fill-rule:evenodd;}.e{fill:#eb992c;}</style><clipPath id="a"><rect class="a" width="7.68" height="7.68"/></clipPath></defs><title>haukehirsch-11</title><g class="b"><path class="c" d="M1.2,7.44h0A.24.24,0,0,1,1,7.29L0,4.88a.24.24,0,0,1,.13-.31.24.24,0,0,1,.31.14l.78,1.94L2,5.4a.23.23,0,0,1,.2-.12.2.2,0,0,1,.2.09l.5.67.78-1.36a.23.23,0,0,1,.2-.12.21.21,0,0,1,.2.09l.43.57L5.29,2.1a.24.24,0,0,1,.24-.18.23.23,0,0,1,.23.2L6.29,5l.44-1.45A.24.24,0,0,1,7,3.36H7a.25.25,0,0,1,.23.16L7.67,5a.25.25,0,0,1-.15.31.25.25,0,0,1-.31-.15L7,4.39l-.5,1.68c0,.1-.13.2-.24.17A.26.26,0,0,1,6,6l-.52-2.8L4.79,5.82A.21.21,0,0,1,4.61,6a.22.22,0,0,1-.24-.09l-.5-.67L3.09,6.6a.25.25,0,0,1-.2.12.19.19,0,0,1-.2-.1L2.19,6,1.41,7.32A.24.24,0,0,1,1.2,7.44Z"/><path class="d" d="M5.52,7.68H7a.24.24,0,0,0,.24-.24V7A.24.24,0,0,0,7,6.72H5.52A.24.24,0,0,0,5.28,7v.48a.24.24,0,0,0,.24.24"/><path class="e" d="M1.5,1.71,0,1.14v2a.25.25,0,0,0,.05.16.24.24,0,0,0,.12.1L1.68,4V2h0a.25.25,0,0,0-.05-.15.27.27,0,0,0-.13-.1"/><path class="e" d="M1.69,1.27h0L.44.79,1.84.25h.08L2,.26,3.4.79l-1.24.47h0L2,1.32l-.08,0-.09,0Z"/><path class="e" d="M2.16,2h0V4l1.51-.58a.24.24,0,0,0,.12-.1.25.25,0,0,0,0-.16v-2l-1.5.57a.29.29,0,0,0-.12.1.25.25,0,0,0,0,.15"/></g></svg>