<svg xmlns="http://www.w3.org/2000/svg" xmlns:xlink="http://www.w3.org/1999/xlink" viewBox="0 0 7.68 7.68"><defs><style>.a{fill:none;}.b{clip-path:url(#a);}.c{fill:#d1cdcd;}.d{fill:#0075c3;}.d,.e{fill-rule:evenodd;}.e{fill:#c0392b;}</style><clipPath id="a"><rect class="a" width="7.68" height="7.68"/></clipPath></defs><title>haukehirsch-07</title><g class="b"><path class="c" d="M.24,6H.17A.24.24,0,0,1,0,5.69L1,2.57a.25.25,0,0,1,.2-.17.26.26,0,0,1,.24.12l.78,1.36.5-.66a.19.19,0,0,1,.2-.1.25.25,0,0,1,.2.12l.68,1.2.56-1.87a.25.25,0,0,1,.22-.17.23.23,0,0,1,.23.14l.46,1.08.53-1.77A.23.23,0,0,1,6,1.68a.21.21,0,0,1,.23.16l.73,2L7.21,3a.24.24,0,0,1,.3-.15.25.25,0,0,1,.16.31L7.19,4.64A.26.26,0,0,1,7,4.8H7a.25.25,0,0,1-.23-.16L6,2.68,5.51,4.39a.25.25,0,0,1-.22.17.2.2,0,0,1-.23-.15L4.6,3.34,4.07,5.11a.25.25,0,0,1-.2.17.27.27,0,0,1-.24-.12L2.85,3.8l-.5.66a.23.23,0,0,1-.21.1A.22.22,0,0,1,2,4.44l-.68-1.2L.47,5.83A.25.25,0,0,1,.24,6Z"/><path class="d" d="M2.16,7h2.4a.24.24,0,0,0,.24-.24V6.24A.24.24,0,0,0,4.56,6H2.16a.24.24,0,0,0-.24.24v.48A.24.24,0,0,0,2.16,7"/><path class="e" d="M2.16,1.68h2.4a.24.24,0,0,0,.24-.24V1A.24.24,0,0,0,4.56.72H2.16A.24.24,0,0,0,1.92,1v.48a.24.24,0,0,0,.24.24"/></g></svg>