<svg xmlns="http://www.w3.org/2000/svg" xmlns:xlink="http://www.w3.org/1999/xlink" viewBox="0 0 7.68 7.68"><defs><style>.a{fill:none;}.b{clip-path:url(#a);}.c{fill:#d1cdcd;}.d{fill:#c0392b;}.d,.e{fill-rule:evenodd;}.e{fill:#eb992c;}</style><clipPath id="a"><rect class="a" width="7.68" height="7.68"/></clipPath></defs><title>haukehirsch-10</title><g class="b"><path class="c" d="M5.52,5.76a.23.23,0,0,1-.23-.18L4.46,2.46,4,3a.21.21,0,0,1-.2.1A.23.23,0,0,1,3.63,3L2.85,1.64l-.5.67a.2.2,0,0,1-.2.09A.23.23,0,0,1,2,2.28L1.24,1,.46,3a.24.24,0,0,1-.31.13A.23.23,0,0,1,0,2.79L1,.39a.24.24,0,0,1,.2-.15.25.25,0,0,1,.23.12l.78,1.37.5-.67a.21.21,0,0,1,.2-.1.25.25,0,0,1,.2.12l.78,1.36.5-.66a.25.25,0,0,1,.24-.1.24.24,0,0,1,.18.18l.69,2.57L6,1.64a.26.26,0,0,1,.23-.2.22.22,0,0,1,.24.17L7,3.28l.24-.72a.24.24,0,1,1,.46.16L7.19,4.16A.23.23,0,0,1,7,4.32a.24.24,0,0,1-.23-.17L6.29,2.69,5.76,5.56a.26.26,0,0,1-.23.2Z"/><path class="d" d="M5.52,0H7A.24.24,0,0,1,7.2.24V.72A.24.24,0,0,1,7,1H5.52A.24.24,0,0,1,5.28.72V.24A.24.24,0,0,1,5.52,0"/><path class="e" d="M1.5,5.07,0,4.5v2a.28.28,0,0,0,.05.16.24.24,0,0,0,.12.1l1.51.57v-2h0a.25.25,0,0,0-.05-.15.22.22,0,0,0-.13-.1"/><path class="e" d="M1.69,4.63h0L.44,4.15l1.4-.54h.08a.15.15,0,0,1,.09,0l1.39.53-1.24.47h0L2,4.68l-.08,0-.09,0Z"/><path class="e" d="M2.16,5.32h0v2l1.51-.58a.24.24,0,0,0,.12-.1.28.28,0,0,0,0-.16v-2l-1.5.57a.23.23,0,0,0-.12.1.25.25,0,0,0,0,.15"/></g></svg>