<svg xmlns="http://www.w3.org/2000/svg" xmlns:xlink="http://www.w3.org/1999/xlink" viewBox="0 0 7.6799 7.6799"><defs><clipPath id="clip-path"><rect width="7.6799" height="7.6802" style="fill:none"/></clipPath></defs><title>haukehirsch-07</title><g id="Page_7" data-name="Page 7"><g id="Page_7-2" data-name="Page 7"><g style="clip-path:url(#clip-path)"><path d="M7.43964,1.43967a.24.24,0,0,1-.23975-.24024V.47971h-.7207a.24024.24024,0,0,1,0-.48047h.96045a.24.24,0,0,1,.23974.24023v.96A.24.24,0,0,1,7.43964,1.43967Z" style="fill:#f0f0f0"/><path d="M1.1994,7.6799h-.96a.24.24,0,0,1-.23975-.24023v-.96a.23975.23975,0,1,1,.4795,0v.71972H1.1994a.24024.24024,0,0,1,0,.48047Z" style="fill:#f0f0f0"/><path d="M.23944,7.6799A.23763.23763,0,0,1,.07,7.60959a.24049.24049,0,0,1,0-.33985l1.585-1.585a.24.24,0,0,1,.33887.33985l-1.585,1.585A.23763.23763,0,0,1,.23944,7.6799Zm5.6084-5.6084a.23758.23758,0,0,1-.16943-.07031.24047.24047,0,0,1,0-.33984L7.2702.06955a.24.24,0,0,1,.33887.33984l-1.5918,1.5918A.23758.23758,0,0,1,5.84784,2.0715Z" style="fill:#f0f0f0"/><path d="M7.43964,7.6799H6.47919a.24024.24024,0,0,1,0-.48047h.7207V6.47971a.23975.23975,0,1,1,.47949,0v.96A.24.24,0,0,1,7.43964,7.6799Z" style="fill:#f0f0f0"/><path d="M.23944,1.43967a.24.24,0,0,1-.23975-.24024v-.96A.24.24,0,0,1,.23944-.00076h.96a.24024.24024,0,0,1,0,.48047H.47919v.71972A.24.24,0,0,1,.23944,1.43967Z" style="fill:#f0f0f0"/><path d="M7.43964,7.6799a.23765.23765,0,0,1-.16944-.07031L5.67841,6.01779A.24.24,0,0,1,6.01727,5.678l1.5918,1.59179a.24049.24049,0,0,1,0,.33985A.23764.23764,0,0,1,7.43964,7.6799ZM1.8244,2.06467A.23759.23759,0,0,1,1.655,1.99435L.07.40939A.24.24,0,1,1,.40887.06955l1.585,1.585a.24047.24047,0,0,1,0,.33984A.23762.23762,0,0,1,1.8244,2.06467Z" style="fill:#f0f0f0"/><path d="M3.4248,3.3902,1.9227,2.8179l-.0028-.0011v2.037a.2889.2889,0,0,0,.0476.1612.26787.26787,0,0,0,.1177.0947l1.5145.5766V3.6411a.28808.28808,0,0,0-.0468-.1517.27035.27035,0,0,0-.1281-.0992m.1846-.4425-.0071-.0028-.0068-.0025L2.3576,2.4707l1.4006-.5378a.2602.2602,0,0,1,.0819-.0133.25725.25725,0,0,1,.0921.0173l1.385.5358-1.233.4697-.0068.0025-.0071.0028-.0068.0029-.1381.0524a.26355.26355,0,0,1-.0856.015.26745.26745,0,0,1-.093-.0181Zm.4705,2.7389V3.6411a.28462.28462,0,0,1,.0468-.1517.27123.27123,0,0,1,.1281-.0992L5.754,2.819l.0057,2.0348a.28064.28064,0,0,1-.0459.1593.27443.27443,0,0,1-.1193.0966Z" style="fill:#eb992f;fill-rule:evenodd"/></g></g></g></svg>