<svg xmlns="http://www.w3.org/2000/svg" xmlns:xlink="http://www.w3.org/1999/xlink" viewBox="0 0 7.6799 7.6799"><defs><clipPath id="clip-path"><rect width="7.6799" height="7.6802" style="fill:none"/></clipPath></defs><title>haukehirsch-06</title><g id="Page_6" data-name="Page 6"><g id="Page_6-2" data-name="Page 6"><g style="clip-path:url(#clip-path)"><path d="M7.19962,2.4006h-.96a.24023.24023,0,0,1,0-.48046h.72022V1.19943a.23975.23975,0,1,1,.47949,0v.96094A.24.24,0,0,1,7.19962,2.4006Z" style="fill:#f0f0f0"/><path d="M.23965,4.08029a.24.24,0,0,1-.23974-.24023,3.84044,3.84044,0,0,1,7.148-1.95117.23992.23992,0,1,1-.41309.24414A3.36106,3.36106,0,0,0,.4794,3.84006.24.24,0,0,1,.23965,4.08029Z" style="fill:#f0f0f0"/><path d="M.47989,6.71994a.24.24,0,0,1-.23975-.24023v-.96a.24.24,0,0,1,.23975-.24023h.96a.24024.24024,0,0,1,0,.48047H.71964v.71973A.24.24,0,0,1,.47989,6.71994Z" style="fill:#f0f0f0"/><path d="M3.83975,7.6799A3.86076,3.86076,0,0,1,.53165,5.79123a.23992.23992,0,0,1,.41308-.24414,3.36106,3.36106,0,0,0,6.25537-1.707.23975.23975,0,1,1,.4795,0A3.84434,3.84434,0,0,1,3.83975,7.6799Z" style="fill:#f0f0f0"/><path d="M3.4248,3.3902,1.9227,2.8179l-.0028-.0011v2.037a.2889.2889,0,0,0,.0476.1612.26787.26787,0,0,0,.1177.0947l1.5145.5766V3.6411a.28808.28808,0,0,0-.0468-.1517.27035.27035,0,0,0-.1281-.0992m.1846-.4425-.0071-.0028-.0068-.0025L2.3576,2.4707l1.4006-.5378a.2602.2602,0,0,1,.0819-.0133.25725.25725,0,0,1,.0921.0173l1.385.5358-1.233.4697-.0068.0025-.0071.0028-.0068.0029-.1381.0524a.26355.26355,0,0,1-.0856.015.26745.26745,0,0,1-.093-.0181Zm.4705,2.7389V3.6411a.28462.28462,0,0,1,.0468-.1517.27123.27123,0,0,1,.1281-.0992L5.754,2.819l.0057,2.0348a.28064.28064,0,0,1-.0459.1593.27443.27443,0,0,1-.1193.0966Z" style="fill:#cc9800;fill-rule:evenodd"/></g></g></g></svg>