<svg id="Page_1" data-name="Page 1" xmlns="http://www.w3.org/2000/svg" xmlns:xlink="http://www.w3.org/1999/xlink" viewBox="0 0 7.6799 7.6799"><defs><clipPath id="clip-path"><rect x="-0.0003" width="7.6799" height="7.6802" style="fill:none"/></clipPath></defs><title>haukehirsch-1</title><g id="Page_1-2" data-name="Page 1"><g style="clip-path:url(#clip-path)"><path d="M3.83936,7.6799A3.83985,3.83985,0,1,1,7.6792,3.84006,3.84434,3.84434,0,0,1,3.83936,7.6799Zm0-7.19922A3.35938,3.35938,0,1,0,7.19971,3.84006,3.36349,3.36349,0,0,0,3.83936.48068Z" style="fill:#5194c3"/><rect x="2.1597" y="3.6" width="3.3596" height="0.4802" style="fill:#e6e6e6"/><path d="M5.51953,4.32053H2.15967a.24.24,0,0,1-.23975-.24024V3.59982a.24.24,0,0,1,.23975-.24023H5.51953a.24.24,0,0,1,.23975.24023v.48047A.24.24,0,0,1,5.51953,4.32053ZM2.39941,3.84006h0Z" style="fill:#e6e6e5"/><rect x="3.5997" y="2.16" width="0.4796" height="3.3602" style="fill:#e6e6e6"/><path d="M3.6001,1.92014h.479a.23975.23975,0,0,1,.23975.23975V5.51974A.24023.24023,0,0,1,4.07861,5.76h-.479a.23975.23975,0,0,1-.23975-.23975V2.16037A.24023.24023,0,0,1,3.6001,1.92014Z" style="fill:#e6e6e5"/></g></g></svg>