<svg xmlns="http://www.w3.org/2000/svg" xmlns:xlink="http://www.w3.org/1999/xlink" viewBox="0 0 7.6799 7.6799"><defs><clipPath id="clip-path"><rect x="-0.0003" width="7.6799" height="7.6802" style="fill:none"/></clipPath></defs><title>haukehirsch-2</title><g id="Page_2" data-name="Page 2"><g id="Page_2-2" data-name="Page 2"><g style="clip-path:url(#clip-path)"><path d="M5.2801,3.3599H6.4794v.9604H5.2801Zm-4.0805,0H2.4001v.9604H1.1996Z" style="fill:#5195c3;fill-rule:evenodd"/><polygon points="6.001 2.4 7.68 3.84 6.001 5.28 6.001 2.4" style="fill:#5195c3;fill-rule:evenodd"/><polygon points="1.679 2.4 0.001 3.84 1.679 5.28 1.679 2.4" style="fill:#5195c3;fill-rule:evenodd"/><path d="M3.3608,2.4001V1.2008h.9586V2.4001Zm0,4.0805V5.2801h.9586V6.4806Z" style="fill:#5195c3;fill-rule:evenodd"/><polygon points="2.4 1.68 3.84 0.001 5.28 1.68 2.4 1.68" style="fill:#5195c3;fill-rule:evenodd"/><polygon points="2.4 6.001 3.84 7.68 5.28 6.001 2.4 6.001" style="fill:#5195c3;fill-rule:evenodd"/><path d="M3.1198,2.88H4.5604a.24023.24023,0,0,1,.2398.2398V4.5604a.24023.24023,0,0,1-.2398.2398H3.1198A.24023.24023,0,0,1,2.88,4.5604V3.1198A.24023.24023,0,0,1,3.1198,2.88" style="fill:#e6e6e6;fill-rule:evenodd"/></g></g></g></svg>