<svg xmlns="http://www.w3.org/2000/svg" xmlns:xlink="http://www.w3.org/1999/xlink" viewBox="0 0 7.6799 7.6799"><defs><clipPath id="clip-path"><rect x="-0.0003" width="7.6799" height="7.6802" style="fill:none"/></clipPath></defs><title>haukehirsch-08</title><g id="Page_8" data-name="Page 8"><g id="Page_8-2" data-name="Page 8"><g style="clip-path:url(#clip-path)"><path d="M3.84225,7.6799a.24.24,0,0,1-.23974-.24023V.23947a.23975.23975,0,1,1,.47949,0v7.2002A.24.24,0,0,1,3.84225,7.6799Z" style="fill:#f0f0f0"/><rect x="0.4802" y="1.4394" width="2.4001" height="4.7999" style="fill:#0075c3"/><path d="M2.88034,6.47971H.48044a.24.24,0,0,1-.23975-.24024V1.43967a.24.24,0,0,1,.23975-.24024h2.3999a.24.24,0,0,1,.23975.24024v4.7998A.24.24,0,0,1,2.88034,6.47971ZM.72018,5.99924H2.64059V1.6799H.72018Z" style="fill:#0075c3"/><rect x="4.8039" y="1.4394" width="2.4001" height="4.7999" style="fill:#068f55"/><path d="M7.20407,6.47971H4.80368a.24.24,0,0,1-.23975-.24024V1.43967a.24.24,0,0,1,.23975-.24024H7.20407a.24.24,0,0,1,.23975.24024v4.7998A.24.24,0,0,1,7.20407,6.47971ZM5.04343,5.99924H6.96432V1.6799H5.04343Z" style="fill:#068f55"/></g></g></g></svg>