<svg xmlns="http://www.w3.org/2000/svg" xmlns:xlink="http://www.w3.org/1999/xlink" viewBox="0 0 7.6799 7.6799"><defs><clipPath id="clip-path"><rect y="-0.00015" width="7.6799" height="7.6802" style="fill:none"/></clipPath></defs><title>haukehirsch-28</title><g id="Page_28" data-name="Page 28"><g id="Page_28-2" data-name="Page 28"><g style="clip-path:url(#clip-path)"><path d="M4.8679,1.79645a4.55782,4.55782,0,0,0-1.0281-.1168,4.4526,4.4526,0,0,0-3.8401,2.16A4.38635,4.38635,0,0,0,1.3859,5.278l.8716-.8714a1.68131,1.68131,0,0,1,2.1492-2.1489ZM3.8398,6a4.45338,4.45338,0,0,0,3.8401-2.1603,4.38674,4.38674,0,0,0-1.385-1.4377l-.8725.8725a1.6809,1.6809,0,0,1-2.1481,2.1481l-.4609.4609A4.54916,4.54916,0,0,0,3.8398,6Z" style="fill:#f0f0f0;fill-rule:evenodd"/><path d="M3.7828,2.88125a.9605.9605,0,0,0-.9017.9017Zm.1154,1.9174a.96113.96113,0,0,0,.9003-.9003Z" style="fill:#f0f0f0;fill-rule:evenodd"/><path d="M.72079,7.20026A.24024.24024,0,0,1,.55087,6.7901L6.79111.54987A.2403.2403,0,1,1,7.131.88971L.89072,7.13A.23959.23959,0,0,1,.72079,7.20026Z" style="fill:#0075c3"/></g></g></g></svg>