<svg xmlns="http://www.w3.org/2000/svg" xmlns:xlink="http://www.w3.org/1999/xlink" viewBox="0 0 7.68 7.68"><defs><style>.a{fill:none;}.b{clip-path:url(#a);}.c{fill:#d1cdcd;}.d{fill:#c0392b;fill-rule:evenodd;}.e{fill:#068f55;}</style><clipPath id="a"><rect class="a" width="7.68" height="7.68"/></clipPath></defs><title>haukehirsch-08</title><g class="b"><path class="c" d="M.24,7.68H.17A.24.24,0,0,1,0,7.37L1,4.25a.25.25,0,0,1,.2-.17.24.24,0,0,1,.24.12l.78,1.36.5-.67a.21.21,0,0,1,.2-.09.23.23,0,0,1,.2.12l.68,1.19.56-1.86a.23.23,0,0,1,.22-.17.2.2,0,0,1,.23.14l.42,1,.56-2.84A.24.24,0,0,1,6,2.16a.23.23,0,0,1,.24.18l.76,3,.22-.66a.25.25,0,0,1,.31-.15.24.24,0,0,1,.15.3L7.19,6.31A.25.25,0,0,1,7,6.48a.24.24,0,0,1-.22-.18L6,3.49,5.51,6a.24.24,0,0,1-.21.2.24.24,0,0,1-.24-.15L4.6,5,4.07,6.79a.27.27,0,0,1-.2.17.27.27,0,0,1-.24-.12L2.85,5.47l-.5.67a.23.23,0,0,1-.21.1A.25.25,0,0,1,2,6.12l-.68-1.2L.47,7.51A.25.25,0,0,1,.24,7.68Z"/><path class="d" d="M5.52.72H7A.24.24,0,0,1,7.2,1v.48A.24.24,0,0,1,7,1.68H5.52a.24.24,0,0,1-.24-.24V1A.24.24,0,0,1,5.52.72"/><path class="e" d="M4.32,1.44H1.92a.24.24,0,1,1,0-.48h2.4a.24.24,0,0,1,0,.48Z"/><path class="e" d="M4.32,1.44a.23.23,0,0,1-.17-.07L3.43.65a.25.25,0,0,1,0-.34.25.25,0,0,1,.34,0L4.49,1a.25.25,0,0,1,0,.34A.23.23,0,0,1,4.32,1.44Z"/><path class="e" d="M3.6,2.16a.23.23,0,0,1-.17-.07.25.25,0,0,1,0-.34L4.15,1a.24.24,0,0,1,.34.34l-.72.72A.23.23,0,0,1,3.6,2.16Z"/></g></svg>