<svg xmlns="http://www.w3.org/2000/svg" xmlns:xlink="http://www.w3.org/1999/xlink" viewBox="0 0 7.6799 7.6799"><defs><clipPath id="clip-path"><rect x="-0.0003" y="-0.00015" width="7.6799" height="7.6802" style="fill:none"/></clipPath></defs><title>haukehirsch-24</title><g id="Page_24" data-name="Page 24"><g id="Page_24-2" data-name="Page 24"><g style="clip-path:url(#clip-path)"><path d="M3.3591.83865a.48015.48015,0,1,1,.9603,0v3.3698a.96.96,0,0,0-.9603,0Z" style="fill:#0075c3"/><path d="M.7174,7.37615a.47967.47967,0,0,1-.4762-.8328l2.6379-1.5075v.004a.95867.95867,0,0,0,.476.8291Z" style="fill:#c0392b"/><path d="M7.4373,6.54335a.47969.47969,0,1,1-.4763.8328L4.3234,5.869a.95859.95859,0,0,0,.4759-.8291v-.004Z" style="fill:#068f55"/><path d="M3.8392,4.55965a.4802.4802,0,1,1-.4801.4802.48.48,0,0,1,.4801-.4802" style="fill:#f0f0f0;fill-rule:evenodd"/></g></g></g></svg>