<svg xmlns="http://www.w3.org/2000/svg" xmlns:xlink="http://www.w3.org/1999/xlink" viewBox="0 0 7.6799 7.6799"><defs><clipPath id="clip-path"><rect width="7.6799" height="7.6802" style="fill:none"/></clipPath></defs><title>haukehirsch-14</title><g id="Page_14" data-name="Page 14"><g id="Page_14-2" data-name="Page 14"><g style="clip-path:url(#clip-path)"><path d="M4.7996.2925A6.06516,6.06516,0,0,1,6.3028.6429c.7016.2755,1.1367.6829,1.1367,1.1562a.2401.2401,0,0,1-.4802,0c0-.2556-.318-.5088-.8311-.71A5.486,5.486,0,0,0,4.7996.7756Z" style="fill:#d1cdcd"/><path d="M4.3197,3.8222v.6259a.9602.9602,0,0,0-.9604,0V3.8222c.1823.0117.3453.0168.4802.0168.1341,0,.2974-.0051.4802-.0168M3.3593.4793a.4802.4802,0,1,1,.9604,0V2.3848c-.1624.0096-.3237.0142-.4802.0142-.1562,0-.3172-.0046-.4802-.0142Z" style="fill:#0075c3"/><path d="M.7177,7.6158A.47967.47967,0,1,1,.2415,6.783L2.8794,5.2756v.0039a.95884.95884,0,0,0,.476.8292Z" style="fill:#c0392b"/><path d="M7.4375,6.783a.47967.47967,0,1,1-.4762.8328L4.3237,6.1087a.95875.95875,0,0,0,.4759-.8292V5.2756Z" style="fill:#068f55"/><path d="M3.8395,4.7993a.4802.4802,0,1,1-.4802.4802.48.48,0,0,1,.4802-.4802" style="fill:#d1cdcd;fill-rule:evenodd"/><path d="M3.83951,3.35959C2.09439,3.35959.2399,2.81271.2399,1.799c0-.43359.36523-.82812,1.0293-1.1123a.2427.2427,0,0,1,.31494.126.24006.24006,0,0,1-.12647.31543c-.46191.19727-.73828.44825-.73828.6709,0,.50977,1.33447,1.08008,3.12012,1.08008S6.95963,2.30881,6.95963,1.799a.23975.23975,0,1,1,.47949,0C7.43912,2.81271,5.58463,3.35959,3.83951,3.35959Z" style="fill:#d1cdcd"/><path d="M1.67935,1.67892a.24.24,0,0,1-.23974-.24023V.71994H.71939a.24024.24024,0,0,1,0-.48047h.96A.24.24,0,0,1,1.9191.47971v.959A.24.24,0,0,1,1.67935,1.67892Z" style="fill:#d1cdcd"/></g></g></g></svg>