<svg xmlns="http://www.w3.org/2000/svg" xmlns:xlink="http://www.w3.org/1999/xlink" viewBox="0 0 7.6799 7.6799"><defs><clipPath id="clip-path"><rect x="-0.0003" y="-0.00015" width="7.6799" height="7.6802" style="fill:none"/></clipPath></defs><title>haukehirsch-23</title><g id="Page_23" data-name="Page 23"><g id="Page_23-2" data-name="Page 23"><g style="clip-path:url(#clip-path)"><path d="M1.43964,4.08014a.23959.23959,0,0,1-.16993-.07031L.591,3.33112a.24049.24049,0,0,1,0-.33985l.67871-.67871a.24031.24031,0,0,1,.33985.33985l-.50977.50879L1.60956,3.67a.24023.24023,0,0,1-.16992.41015Z" style="fill:#d1cdcd"/><path d="M6.96014,3.35944h-6a.24024.24024,0,0,1,0-.48047h6a.24024.24024,0,1,1,0,.48047Z" style="fill:#d1cdcd"/><path d="M4.3194,3.83965v.6083a.96.96,0,0,0-.9603,0v-.6083ZM3.3591.47915a.48015.48015,0,1,1,.9603,0v1.9205H3.3591Z" style="fill:#0075c3"/><path d="M.7174,7.61565a.47967.47967,0,1,1-.4762-.8328l2.6379-1.5074v.0039a.95884.95884,0,0,0,.476.8292Z" style="fill:#c0392b"/><path d="M7.4373,6.78285a.47969.47969,0,1,1-.4763.8328L4.3234,6.10855a.95875.95875,0,0,0,.4759-.8292v-.0039Z" style="fill:#068f55"/><path d="M3.8392,4.79915a.4802.4802,0,1,1-.4801.4802.48.48,0,0,1,.4801-.4802" style="fill:#d1cdcd;fill-rule:evenodd"/></g></g></g></svg>