<svg xmlns="http://www.w3.org/2000/svg" xmlns:xlink="http://www.w3.org/1999/xlink" viewBox="0 0 7.6799 7.6799"><defs><clipPath id="clip-path"><rect width="7.6799" height="7.6802" style="fill:none"/></clipPath></defs><title>haukehirsch-13</title><g id="Page_13" data-name="Page 13"><g id="Page_13-2" data-name="Page 13"><g style="clip-path:url(#clip-path)"><path d="M1.67908.47971h-.96a.24024.24024,0,0,1,0-.48047h.96a.24024.24024,0,0,1,0,.48047Z" style="fill:#f0f0f0"/><path d="M1.67908,7.67892h-.96a.24023.24023,0,0,1,0-.48046h.96a.24023.24023,0,0,1,0,.48046Z" style="fill:#f0f0f0"/><path d="M1.1991,7.43967a.24.24,0,0,1-.23975-.24024v-6.96a.23975.23975,0,1,1,.47949,0v6.96A.24.24,0,0,1,1.1991,7.43967Z" style="fill:#f0f0f0"/><path d="M2.8791,1.1973a.24005.24005,0,0,1,0-.4801h.4802a.24005.24005,0,1,1,0,.4801Zm0,1.2005a.2401.2401,0,0,1,0-.4802h.4802a.2401.2401,0,0,1,0,.4802Zm0,1.2005a.2401.2401,0,0,1,0-.4802h.4802a.2401.2401,0,0,1,0,.4802Zm0,1.2005a.2401.2401,0,0,1,0-.4802h.4802a.2401.2401,0,0,1,0,.4802ZM4.9388,5.999H6.9596a.24034.24034,0,0,1,.2401.24V7.4392a.24036.24036,0,0,1-.2401.2401H2.8834Zm-2.0597.0014a.2401.2401,0,0,1,0-.4802h.4802a.2401.2401,0,0,1,0,.4802ZM2.6374-.0009H4.3172a.24049.24049,0,0,1,.2401.2401V5.6911L2.3978,7.4565l-.0005-.0173v-7.2A.24043.24043,0,0,1,2.6374-.0009Z" style="fill:#0075c3;fill-rule:evenodd"/></g></g></g></svg>