<svg xmlns="http://www.w3.org/2000/svg" xmlns:xlink="http://www.w3.org/1999/xlink" viewBox="0 0 7.6799 7.6799"><defs><style>.a{fill:none;}.b{clip-path:url(#a);}.c{fill:#1475bb;}.d{fill:#d1cdcd;}</style><clipPath id="a"><rect class="a" width="7.6799" height="7.6802"/></clipPath></defs><title>haukehirsch-4</title><g class="b"><path class="c" d="M3.83823,7.68088a.48064.48064,0,0,1-.48-.48047V.47971a.48.48,0,1,1,.96,0v6.7207A.48065.48065,0,0,1,3.83823,7.68088Z"/><path class="d" d="M5.76059,4.8a.23845.23845,0,0,1-.16943-.07031L4.87094,4.01a.24048.24048,0,0,1,0-.33984l.71973-.71973a.24.24,0,0,1,.33886.33984l-.5498.54981.55029.5498A.24.24,0,0,1,5.76059,4.8Z"/><path class="d" d="M7.20053,4.07932H5.23911a.24024.24024,0,0,1,0-.48047H7.20053a.24024.24024,0,0,1,0,.48047Z"/><path class="d" d="M2.43832,4.07932H.4769a.24024.24024,0,0,1,0-.48047H2.43832a.24024.24024,0,0,1,0,.48047Z"/><path class="d" d="M1.92026,4.8a.24.24,0,0,1-.16944-.41016l.5503-.5498-.54981-.54981a.24.24,0,0,1,.33887-.33984l.71973.71973a.24048.24048,0,0,1,0,.33984l-.72022.71973A.23845.23845,0,0,1,1.92026,4.8Z"/></g></svg>