<svg xmlns="http://www.w3.org/2000/svg" xmlns:xlink="http://www.w3.org/1999/xlink" viewBox="0 0 7.68 7.68"><defs><style>.a{fill:none;}.b{clip-path:url(#a);}.c{fill:#0075c3;}.c,.d{fill-rule:evenodd;}.d{fill:#068f55;}.e{fill:#d1cdcd;}</style><clipPath id="a"><rect class="a" width="7.68" height="7.68"/></clipPath></defs><title>haukehirsch-02</title><g class="b"><path class="c" d="M6.48.24a1,1,0,1,1-1,1,1,1,0,0,1,1-1"/><path class="d" d="M2.64,4.08a1,1,0,1,1-1,1,1,1,0,0,1,1-1"/><path class="e" d="M5.75,2.44l-.34.33-.5-.5.33-.34a1.39,1.39,0,0,0,.51.51"/><path class="e" d="M4.21,4l-.33.34a1.39,1.39,0,0,0-.51-.51l.34-.33Z"/><path class="e" d="M3.94,5.66l1.2,1.2a.48.48,0,0,1-.68.68l-1.2-1.2a1.4,1.4,0,0,0,.68-.68M.14,3.22a.48.48,0,0,1,0-.68.48.48,0,0,1,.68,0L2,3.74a1.4,1.4,0,0,0-.68.68Z"/><rect class="e" x="4.2" y="2.77" width="0.7" height="0.72" transform="translate(-0.88 4.13) rotate(-45)"/></g></svg>