<svg xmlns="http://www.w3.org/2000/svg" xmlns:xlink="http://www.w3.org/1999/xlink" viewBox="0 0 7.6799 7.6799"><defs><style>.a{fill:none;}.b{clip-path:url(#a);}.c{fill:#d1cdcd;}.d{fill:#068f55;}.d,.e{fill-rule:evenodd;}.e{fill:#0075c3;}</style><clipPath id="a"><rect class="a" x="-0.0003" width="7.6799" height="7.6802"/></clipPath></defs><title>haukehirsch-1</title><g class="b"><path class="c" d="M1.5789,5.4207,5.419,1.5806a1.4447,1.4447,0,0,0,.6786.6786L2.2575,6.0993a1.4447,1.4447,0,0,0-.6786-.6786"/><path class="d" d="M.9584,7.6802a.9601.9601,0,1,1,.9601-.9601.96029.96029,0,0,1-.9601.9601"/><path class="e" d="M6.7184,0a.9601.9601,0,1,1-.9601.9601A.96029.96029,0,0,1,6.7184,0"/><path class="c" d="M6.25684,6.49826A.23959.23959,0,0,1,6.08691,6.428L4.86963,5.21017a.2403.2403,0,0,1,.33984-.33984L6.42676,6.0881a.24093.24093,0,0,1-.00049.33985A.23847.23847,0,0,1,6.25684,6.49826Z"/><path class="c" d="M5.03955,6.299a.24.24,0,0,1-.23975-.24023V5.04025a.23975.23975,0,1,1,.4795,0V6.05881A.24.24,0,0,1,5.03955,6.299Z"/><path class="c" d="M6.05762,5.28049H5.03955a.24024.24024,0,0,1,0-.48047H6.05762a.24024.24024,0,0,1,0,.48047Z"/><path class="c" d="M2.63818,2.87912a.23847.23847,0,0,1-.16943-.07031L1.25146,1.592a.24.24,0,1,1,.33887-.33984L2.80762,2.469a.24.24,0,0,1-.16944.41016Z"/><path class="c" d="M2.63818,2.87912a.24.24,0,0,1-.23974-.24023V1.62131a.23975.23975,0,1,1,.47949,0V2.63889A.24.24,0,0,1,2.63818,2.87912Z"/><path class="c" d="M2.63818,2.87912H1.62012a.24024.24024,0,0,1,0-.48047H2.63818a.24024.24024,0,0,1,0,.48047Z"/></g></svg>