<svg xmlns="http://www.w3.org/2000/svg" xmlns:xlink="http://www.w3.org/1999/xlink" viewBox="0 0 7.68 7.68"><defs><style>.a{fill:none;}.b{clip-path:url(#a);}.c{fill:#068f55;fill-rule:evenodd;}.d{fill:#c0392b;}.e{fill:#d1cdcd;}</style><clipPath id="a"><rect class="a" width="7.68" height="7.68"/></clipPath></defs><title>haukehirsch-03</title><g class="b"><path class="c" d="M6.48.24a1,1,0,1,1-1,1,1,1,0,0,1,1-1"/><path class="d" d="M5.86,2.5,3.94,4.42a1.4,1.4,0,0,0-.68-.68L5.18,1.82a1.4,1.4,0,0,0,.68.68"/><path class="e" d="M3.94,5.66l1.2,1.2a.48.48,0,0,1-.68.68l-1.2-1.2a1.4,1.4,0,0,0,.68-.68M.14,3.22a.48.48,0,0,1,0-.68.48.48,0,0,1,.68,0L2,3.74a1.4,1.4,0,0,0-.68.68Z"/><path class="c" d="M2.64,4.08a1,1,0,1,1-1,1,1,1,0,0,1,1-1"/></g></svg>