<svg xmlns="http://www.w3.org/2000/svg" xmlns:xlink="http://www.w3.org/1999/xlink" viewBox="0 0 7.6799 7.6799"><defs><style>.a{fill:none;}.b{clip-path:url(#a);}.c,.e{fill:#d1cdcd;}.d{fill:#eb992f;}.d,.e{fill-rule:evenodd;}</style><clipPath id="a"><rect class="a" width="7.6799" height="7.6802"/></clipPath></defs><title>haukehirsch-3</title><g class="b"><path class="c" d="M5.2798.4799V.9598h.9598V.4799ZM3.3596.9598V.4799H.4799V.9598Zm1.44,0V.4799H3.8398V.9598ZM.4799,5.7597h2.16v.4802H.2398a.24036.24036,0,0,1-.2401-.2401V.2398A.24036.24036,0,0,1,.2398-.0003H6.4797a.24036.24036,0,0,1,.2401.2401V1.6801H6.2396V1.44H3.8398v.2401H3.3596V1.44H.4799Z"/><path class="d" d="M4.32,2.16V2.1535a.24031.24031,0,0,1,.2398-.2336h.9604a.24055.24055,0,0,1,.2395.2276v.4924H4.32ZM4.0805,6.7198H3.3596a.2403.2403,0,0,1-.2398-.2401V2.3998A.24023.24023,0,0,1,3.3596,2.16h.4802v.72a.24036.24036,0,0,0,.2401.2401H5.9998A.24036.24036,0,0,0,6.2399,2.88V2.16h.4802a.24023.24023,0,0,1,.2398.2398v.9607h-2.16a.72025.72025,0,0,0-.7194.7197Z"/><path class="e" d="M5.2801,6.0012a.2401.2401,0,0,1,0-.4802H6.9599a.2401.2401,0,0,1,0,.4802Zm0-.9618a.2401.2401,0,0,1,0-.4802H6.9599a.2401.2401,0,0,1,0,.4802Zm0,1.9225a.2401.2401,0,1,1,0-.4802H6.9599a.2401.2401,0,0,1,0,.4802Zm2.16.718H4.7999a.24017.24017,0,0,1-.2395-.2398V4.0802a.24017.24017,0,0,1,.2395-.2398H7.4401a.24.24,0,0,1,.2398.2398V7.4401A.24.24,0,0,1,7.4401,7.6799Z"/></g></svg>