<svg xmlns="http://www.w3.org/2000/svg" xmlns:xlink="http://www.w3.org/1999/xlink" viewBox="0 0 7.6799 7.6799"><defs><clipPath id="clip-path"><rect x="-0.0003" y="-0.00015" width="7.6799" height="7.6802" style="fill:none"/></clipPath></defs><title>haukehirsch-35</title><g id="Page_35" data-name="Page 35"><g id="Page_35-2" data-name="Page 35"><g style="clip-path:url(#clip-path)"><path d="M.7203,2.63915a.2401.2401,0,0,1,.4802,0V6.479h4.32a.2401.2401,0,0,1,0,.4802H.9604a.24036.24036,0,0,1-.2401-.2401Zm1.3915,3.2633a.23915.23915,0,0,1-.3827-.2869l.72-.9601a.23953.23953,0,0,1,.3348-.0479l.7688.5766.5765-.7685a.23945.23945,0,0,1,.3235-.0558l.5385.3583L5.8139,3.69a.23877.23877,0,0,1,.373.2982L5.237,5.17565a.23991.23991,0,0,1-.3285.0626l-.5324-.3546-.5842.7787a.23952.23952,0,0,1-.3348.0479l-.7687-.5766ZM.4805,7.67915h5.76a.481.481,0,0,0,.4799-.4799V2.41075a.83313.83313,0,0,1-.1157-.148L5.5894,3.27785a.83934.83934,0,1,1-1.188-1.186L5.417,1.07505a.86171.86171,0,0,1-.148-.1157H.4805a.481.481,0,0,0-.4799.4799v5.76A.481.481,0,0,0,.4805,7.67915Z" style="fill:#0075c3;fill-rule:evenodd"/><path d="M7.32086,2.18366a.3601.3601,0,0,1-.36035-.36035V.71979H5.856a.36035.36035,0,0,1,0-.7207H7.32086a.36009.36009,0,0,1,.36035.36035V1.82331A.3601.3601,0,0,1,7.32086,2.18366Z" style="fill:#d1cdcd"/><path d="M4.99567,3.044a.36036.36036,0,0,1-.25489-.61524L7.05231.11725A.36046.36046,0,0,1,7.56207.627L5.25055,2.93854A.36018.36018,0,0,1,4.99567,3.044Z" style="fill:#d1cdcd"/></g></g></g></svg>