<svg xmlns="http://www.w3.org/2000/svg" xmlns:xlink="http://www.w3.org/1999/xlink" viewBox="0 0 7.6799 7.6799"><defs><clipPath id="clip-path"><rect width="7.6799" height="7.6802" style="fill:none"/></clipPath></defs><title>haukehirsch-5</title><g id="Page_5" data-name="Page 5"><g id="Page_5-2" data-name="Page 5"><g style="clip-path:url(#clip-path)"><path d="M.4802,3.5011V6.0676A.40326.40326,0,0,0,.8714,6.48H1.9202V4.7401a.66048.66048,0,0,1,.6599-.6599h1.08a.6575.6575,0,0,1,.2095.034A.72007.72007,0,0,1,5.2795,4.32v.2815a.71939.71939,0,0,1,.4802-.0003V4.32L5.76,4.3016V3.5011L3.1201,1.9604Z" style="fill:#e6e6e6;fill-rule:evenodd"/><path d="M3.1201,0,.4045,1.5985a.77009.77009,0,0,0-.4042.6726v.6968a.14812.14812,0,0,0,.0694.1278.13259.13259,0,0,0,.142.0065L3.1201,1.4048,6.0287,3.1022a.13321.13321,0,0,0,.142-.0065.14775.14775,0,0,0,.0695-.1278V2.2711a.76974.76974,0,0,0-.4042-.6726Z" style="fill:#5195c3;fill-rule:evenodd"/><path d="M2.5801,4.5601h.4842a.71727.71727,0,0,0-.1837.4796V6.48H2.4001V4.7401a.18027.18027,0,0,1,.18-.18" style="fill:#069054;fill-rule:evenodd"/><path d="M7.44055,6.71994a.24.24,0,0,1-.23974-.24023V5.27951a.23975.23975,0,1,1,.47949,0v1.2002A.24.24,0,0,1,7.44055,6.71994Z" style="fill:#ca982c"/><path d="M6.47961,7.6799a.24.24,0,0,1-.23974-.24023V4.31955a.23975.23975,0,1,1,.47949,0V7.43967A.24.24,0,0,1,6.47961,7.6799Z" style="fill:#ca982c"/><path d="M5.52014,6.71994a.24.24,0,0,1-.23974-.24023V5.28049a.23975.23975,0,1,1,.47949,0V6.47971A.24.24,0,0,1,5.52014,6.71994Z" style="fill:#ca982c"/><path d="M3.60071,6.72092A.24.24,0,0,1,3.361,6.48068V5.03928a.23975.23975,0,1,1,.47949,0v1.4414A.24.24,0,0,1,3.60071,6.72092Z" style="fill:#ca982c"/><path d="M4.55969,7.6799A.24.24,0,0,1,4.32,7.43967V4.31955a.23975.23975,0,1,1,.47949,0V7.43967A.24.24,0,0,1,4.55969,7.6799Z" style="fill:#ca982c"/></g></g></g></svg>