<svg xmlns="http://www.w3.org/2000/svg" xmlns:xlink="http://www.w3.org/1999/xlink" viewBox="0 0 7.6799 7.6799"><defs><clipPath id="clip-path"><rect width="7.6799" height="7.6802" style="fill:none"/></clipPath></defs><title>haukehirsch-6</title><g id="Page_6" data-name="Page 6"><g id="Page_6-2" data-name="Page 6"><g style="clip-path:url(#clip-path)"><path d="M1.5299,1.1494l.6193.6016.9289-.7271A.24017.24017,0,0,1,3.3718.9998L5.1389,2.1577l.4213-.5933a1.08212,1.08212,0,0,0,.3914.2753l-.4121.5805L6.8516,3.28a.24072.24072,0,0,1,.076.3197L5.6577,5.7983l.7015.4782a1.07775,1.07775,0,0,0-.2766.3909l-.665-.4533-.3042.5264a.239.239,0,0,1-.3336.0524l-.9522-.695-.2239.3075a1.08535,1.08535,0,0,0-.3739-.2982l.2117-.2908L1.8051,4.6219l-.33.3852A1.08336,1.08336,0,0,0,1.116,4.691l.3016-.352L.3512,3.5609a.23587.23587,0,0,1-.0581-.0533A.23931.23931,0,0,1,.3345,3.172L1.7688,2.0489,1.201,1.4973a1.08094,1.08094,0,0,0,.3289-.3479m1.7226.3456-.9621.7529-.0045.0039-.0049.0037-.0048.0037-.0048.0037L.8779,3.3539l1.0199.7444.0105.0074.0048.0037.0048.0037L3.9056,5.5638l.0051.0034.0051.0037.0048.0037.0048.0037.921.6718.2789-.4833a.22587.22587,0,0,1,.0173-.03L6.4001,3.5575,4.5833,2.3672l-.4538.5006a1.089,1.089,0,0,0-.3512-.324l.4005-.4416Z" style="fill:#e6e6e6"/><path d="M3.2403,4.0802a.6.6,0,1,0-.5998-.5998.59969.59969,0,0,0,.5998.5998" style="fill:#cc9800;fill-rule:evenodd"/><path d="M6.3607,1.44A.6.6,0,1,0,5.7609.8402a.59969.59969,0,0,0,.5998.5998" style="fill:#068f55;fill-rule:evenodd"/><path d="M.6004,6.2399a.6.6,0,1,0-.5998-.5998.59969.59969,0,0,0,.5998.5998" style="fill:#5195c3;fill-rule:evenodd"/><path d="M2.7607,7.6799a.6.6,0,1,0-.5998-.5998.59969.59969,0,0,0,.5998.5998" style="fill:#068f55;fill-rule:evenodd"/><path d="M7.0807,7.6799a.6.6,0,1,1,.5998-.5998.59962.59962,0,0,1-.5998.5998" style="fill:#5195c3;fill-rule:evenodd"/><path d="M.6004,0A.6.6,0,1,1,.0006.5998.59969.59969,0,0,1,.6004,0" style="fill:#5195c3;fill-rule:evenodd"/></g></g></g></svg>