<svg xmlns="http://www.w3.org/2000/svg" xmlns:xlink="http://www.w3.org/1999/xlink" viewBox="0 0 7.6799 7.6799"><defs><clipPath id="clip-path"><rect y="-0.00015" width="7.6799" height="7.6802" style="fill:none"/></clipPath></defs><title>haukehirsch-08</title><g id="Page_8" data-name="Page 8"><g id="Page_8-2" data-name="Page 8"><g style="clip-path:url(#clip-path)"><path d="M3.7091,2.50705l.4507-.5913L2.9262,1.045,1.006,3.44735l2.8996,2.1163.0051.0034.0051.0037.0048.0037.0048.0037.9363.6831.3736-.5496.0091-.0136.0037-.0051.0036-.0048,1.3791-2.0285L5.0924,2.57375l-.0051-.0034-.0051-.0035-.0099-.007-.0048-.0037-.5159-.3643-.468.614a1.08172,1.08172,0,0,0-.3745-.2988m2.2204-.6772-.3708.487,1.5398,1.0868a.24012.24012,0,0,1,.0601.33L5.7654,5.782l.6242.4683a1.08062,1.08062,0,0,0-.2909.3798L5.4961,6.178l-.3827.5624a.239.239,0,0,1-.3336.0524l-.9522-.695-.2239.3075a1.08535,1.08535,0,0,0-.3739-.2982l.2117-.2908L1.8051,4.62175l-.33.3852a1.082,1.082,0,0,0-.3594-.3163l.3016-.3518-.9028-.6591a.239.239,0,0,1-.0374-.3356l1.2061-1.5094-.4351-.3711a1.08115,1.08115,0,0,0,.3098-.3648l.4244.362.7024-.8791a.23976.23976,0,0,1,.3336-.0581l1.618,1.1424.0051.0034.5259.3711.3764-.4947A1.08506,1.08506,0,0,0,5.9295,1.82985Z" style="fill:#f0f0f0"/><path d="M3.2403,4.08005a.6.6,0,1,0-.5998-.5998.59969.59969,0,0,0,.5998.5998" style="fill:#eb992f;fill-rule:evenodd"/><path d="M6.3607,1.43985a.6.6,0,1,0-.5998-.5998.59969.59969,0,0,0,.5998.5998" style="fill:#068f55;fill-rule:evenodd"/><path d="M.6004,6.23975A.6.6,0,1,0,.0006,5.64a.59969.59969,0,0,0,.5998.5998" style="fill:#0075c3;fill-rule:evenodd"/><path d="M2.7607,7.67975A.6.6,0,1,0,2.1609,7.08a.59969.59969,0,0,0,.5998.5998" style="fill:#068f55;fill-rule:evenodd"/><path d="M7.0807,7.67975A.6.6,0,1,1,7.6805,7.08a.59962.59962,0,0,1-.5998.5998" style="fill:#0075c3;fill-rule:evenodd"/><path d="M.6004-.00015a.6.6,0,1,1-.5998.5998.59969.59969,0,0,1,.5998-.5998" style="fill:#0075c3;fill-rule:evenodd"/></g></g></g></svg>