<svg xmlns="http://www.w3.org/2000/svg" xmlns:xlink="http://www.w3.org/1999/xlink" viewBox="0 0 7.6799 7.6799"><defs><clipPath id="clip-path"><rect x="-0.0003" y="-0.00015" width="7.6799" height="7.6802" style="fill:none"/></clipPath></defs><title>haukehirsch-05</title><g id="Page_5" data-name="Page 5"><g id="Page_5-2" data-name="Page 5"><g style="clip-path:url(#clip-path)"><path d="M6.24084,3.35944H5.57971a.24024.24024,0,0,1,0-.48047h.66113a.24024.24024,0,0,1,0,.48047Z" style="fill:#d1cdcd"/><path d="M6.24084,1.44049H5.57971a.24024.24024,0,0,1,0-.48047h.66113a.24024.24024,0,0,1,0,.48047Z" style="fill:#d1cdcd"/><path d="M5.84485,4.3194H5.57971a.24024.24024,0,0,1,0-.48047h.26514a.24024.24024,0,0,1,0,.48047Z" style="fill:#d1cdcd"/><path d="M5.84485,2.40045H5.57971a.24023.24023,0,0,1,0-.48046h.26514a.24023.24023,0,0,1,0,.48046Z" style="fill:#d1cdcd"/><path d="M3.84094,7.67975A1.77147,1.77147,0,0,1,2.16077,5.99909a1.51294,1.51294,0,0,1,.48-1.19629V1.19928A1.20851,1.20851,0,0,1,3.72961.005a1.032,1.032,0,0,1,.23291.001A1.19576,1.19576,0,0,1,5.04016,1.19928V4.8028a1.51165,1.51165,0,0,1,.48047,1.19629A1.771,1.771,0,0,1,3.84094,7.67975ZM3.84045.47858,3.77356.48346a.72388.72388,0,0,0-.65332.71582V4.91315a.23841.23841,0,0,1-.09033.1875,1.03439,1.03439,0,0,0-.38965.89844A1.30142,1.30142,0,0,0,3.84094,7.19928a1.30094,1.30094,0,0,0,1.2002-1.20019A1.03347,1.03347,0,0,0,4.651,5.10065a.23841.23841,0,0,1-.09033-.1875V1.19928A.72681.72681,0,0,0,3.91418.48346.58639.58639,0,0,0,3.84045.47858Z" style="fill:#d1cdcd"/><path d="M3.8404,2.39965h0a.24023.24023,0,0,1,.2398.2398v2.8803a.2398.2398,0,0,1-.4796,0V2.63945a.24023.24023,0,0,1,.2398-.2398" style="fill:#0075c3;fill-rule:evenodd"/><path d="M3.8401,5.27965a.72.72,0,1,1-.72.72.71993.71993,0,0,1,.72-.72" style="fill:#0075c3;fill-rule:evenodd"/></g></g></g></svg>