<svg xmlns="http://www.w3.org/2000/svg" xmlns:xlink="http://www.w3.org/1999/xlink" viewBox="0 0 7.6799 7.6799"><defs><clipPath id="clip-path"><rect width="7.6799" height="7.6802" style="fill:none"/></clipPath></defs><title>haukehirsch-04</title><g id="Page_42" data-name="Page 42"><g id="Page_4-2" data-name="Page 4"><g style="clip-path:url(#clip-path)"><path d="M.4799,3.5013V6.0678a.40335.40335,0,0,0,.3912.4125H2.7026a1.92831,1.92831,0,0,1-.0621-.4811,2.31386,2.31386,0,0,1,.1284-.7891A1.83775,1.83775,0,0,1,3.1201,4.61V1.9607Z" style="fill:#d1cdcd;fill-rule:evenodd"/><path d="M3.1198.0003.4042,1.5987A.77037.77037,0,0,0,0,2.2714v.6968a.14811.14811,0,0,0,.0695.1278.13278.13278,0,0,0,.142.0065L3.1198,1.4051l.0003.0003V1.1996A1.67722,1.67722,0,0,1,3.4537.1967Z" style="fill:#d1cdcd;fill-rule:evenodd"/><path d="M4.80044,7.6799A1.771,1.771,0,0,1,3.12075,5.99924,1.51424,1.51424,0,0,1,3.60025,4.803V1.19943A1.20851,1.20851,0,0,1,4.68911.0051a1.032,1.032,0,0,1,.23291.001A1.19537,1.19537,0,0,1,5.99966,1.19943V4.803a1.51165,1.51165,0,0,1,.48047,1.19629A1.771,1.771,0,0,1,4.80044,7.6799Zm0-7.20117L4.73306.48361a.72388.72388,0,0,0-.65332.71582V4.9133a.23988.23988,0,0,1-.09033.1875,1.0353,1.0353,0,0,0-.38916.89844A1.30094,1.30094,0,0,0,4.80044,7.19943a1.30094,1.30094,0,0,0,1.2002-1.20019A1.03347,1.03347,0,0,0,5.6105,5.1008a.23841.23841,0,0,1-.09033-.1875V1.19943a.72678.72678,0,0,0-.646-.71582A.58992.58992,0,0,0,4.80044.47873Z" style="fill:#d1cdcd"/><path d="M4.8002,2.3998h0a.24023.24023,0,0,1,.2398.2398V5.5199a.2398.2398,0,0,1-.4796,0V2.6396a.24023.24023,0,0,1,.2398-.2398" style="fill:#0075c3;fill-rule:evenodd"/><path d="M4.7999,5.2798a.72.72,0,1,1-.72.72.71993.71993,0,0,1,.72-.72" style="fill:#0075c3;fill-rule:evenodd"/><path d="M7.3815,3.12033H6.72036a.24024.24024,0,0,1,0-.48047H7.3815a.24024.24024,0,0,1,0,.48047Z" style="fill:#d1cdcd"/><path d="M7.3815,1.20138H6.72036a.24023.24023,0,0,1,0-.48046H7.3815a.24023.24023,0,0,1,0,.48046Z" style="fill:#d1cdcd"/><path d="M6.9855,4.08029H6.72036a.24024.24024,0,0,1,0-.48047H6.9855a.24024.24024,0,0,1,0,.48047Z" style="fill:#d1cdcd"/><path d="M6.9855,2.16037H6.72036a.24024.24024,0,0,1,0-.48047H6.9855a.24024.24024,0,0,1,0,.48047Z" style="fill:#d1cdcd"/></g></g></g></svg>