<svg xmlns="http://www.w3.org/2000/svg" xmlns:xlink="http://www.w3.org/1999/xlink" viewBox="0 0 7.6799 7.6799"><defs><clipPath id="clip-path"><rect width="7.6799" height="7.6802" style="fill:none"/></clipPath></defs><title>haukehirsch-4</title><g id="Page_4" data-name="Page 4"><g id="Page_4-2" data-name="Page 4"><g style="clip-path:url(#clip-path)"><path d="M.4802,3.5011V6.0676A.40326.40326,0,0,0,.8714,6.48H1.9202V4.7401a.66048.66048,0,0,1,.6599-.6599h1.08a.6584.6584,0,0,1,.3093.0768l.2829-.2829a.60775.60775,0,0,1,.6754-.1239.60705.60705,0,0,1,.565-.39h.0258L3.1201,1.9604Z" style="fill:#e6e6e6;fill-rule:evenodd"/><path d="M3.1201,0,.4045,1.5985a.77009.77009,0,0,0-.4042.6726v.6968a.14812.14812,0,0,0,.0694.1278.13259.13259,0,0,0,.142.0065L3.1201,1.4048,6.0287,3.1022a.13321.13321,0,0,0,.142-.0065.14775.14775,0,0,0,.0695-.1278V2.2711a.76974.76974,0,0,0-.4042-.6726Z" style="fill:#5195c3;fill-rule:evenodd"/><path d="M2.5801,4.5601h1.08a.18433.18433,0,0,1,.0485.0065.62662.62662,0,0,0,.0416.3609.60732.60732,0,0,0-.39.5652v.5349A.59628.59628,0,0,0,3.566,6.48H2.4001V4.7401a.18027.18027,0,0,1,.18-.18" style="fill:#069054;fill-rule:evenodd"/><path d="M5.7603,5.04a.7203.7203,0,1,1-.7203.7203A.72025.72025,0,0,1,5.7603,5.04m.4377-.771a1.52447,1.52447,0,0,1,.3069.1272l.2396-.1828a.13756.13756,0,0,1,.1842,0l.3782.3782a.13788.13788,0,0,1,0,.1842l-.1826.2395a1.56981,1.56981,0,0,1,.1273.307l.2985.04a.13791.13791,0,0,1,.1301.1304v.5349a.13749.13749,0,0,1-.1301.1301l-.2985.0402a1.56473,1.56473,0,0,1-.1273.307l.1826.2396a.13756.13756,0,0,1,0,.1842l-.3782.3782a.13789.13789,0,0,1-.1842,0L6.5047,7.124a1.524,1.524,0,0,1-.3067.1273l-.04.2988a.138.138,0,0,1-.1304.1301H5.4927a.13741.13741,0,0,1-.1301-.1301l-.0403-.2985a1.56981,1.56981,0,0,1-.307-.1273l-.2395.1826a.13756.13756,0,0,1-.1842,0l-.3782-.3782a.13778.13778,0,0,1,0-.1842l.1829-.2398a1.51105,1.51105,0,0,1-.1273-.3068l-.2988-.0402a.13741.13741,0,0,1-.1301-.1301V5.4927a.13783.13783,0,0,1,.1301-.1304l.2985-.04a1.55764,1.55764,0,0,1,.1273-.307l-.1826-.2395a.13756.13756,0,0,1,0-.1842l.3782-.3782a.13777.13777,0,0,1,.1842,0l.2398.1828a1.518,1.518,0,0,1,.3067-.1272l.0403-.2988a.13733.13733,0,0,1,.1301-.1301h.5349a.13791.13791,0,0,1,.1304.1301Z" style="fill:#cc9800;fill-rule:evenodd"/></g></g></g></svg>