<svg xmlns="http://www.w3.org/2000/svg" xmlns:xlink="http://www.w3.org/1999/xlink" viewBox="0 0 7.6799 7.6799"><defs><clipPath id="clip-path"><rect x="-0.0003" y="-0.00015" width="7.6799" height="7.6802" style="fill:none"/></clipPath></defs><title>haukehirsch-04</title><g id="Page_4" data-name="Page 4"><g id="Page_4-2" data-name="Page 4"><g style="clip-path:url(#clip-path)"><path d="M3.1623.82415,3.1195.80855.4796,1.765v4.3027a.40335.40335,0,0,0,.3912.4125H2.7023a1.92831,1.92831,0,0,1-.0621-.4811A2.31386,2.31386,0,0,1,2.7686,5.21a1.83775,1.83775,0,0,1,.3512-.6001V1.19945a1.66147,1.66147,0,0,1,.0425-.3753" style="fill:#f0f0f0;fill-rule:evenodd"/><path d="M3.1195.00015.4039,1.59855a.77037.77037,0,0,0-.4042.6727v.6968a.14811.14811,0,0,0,.0695.1278.13278.13278,0,0,0,.142.0065L3.1195,1.405l.0003.0003v-.2058A1.67722,1.67722,0,0,1,3.4534.19655Z" style="fill:#f0f0f0;fill-rule:evenodd"/><path d="M4.80014,7.67975A1.771,1.771,0,0,1,3.12045,5.99909,1.5142,1.5142,0,0,1,3.6,4.8028V1.19928A1.20851,1.20851,0,0,1,4.68881.005a1.032,1.032,0,0,1,.23291.001A1.19537,1.19537,0,0,1,5.99936,1.19928V4.8028a1.51165,1.51165,0,0,1,.48047,1.19629A1.771,1.771,0,0,1,4.80014,7.67975Zm0-7.20117L4.73276.48346a.72388.72388,0,0,0-.65332.71582V4.91315a.23988.23988,0,0,1-.09033.1875A1.0353,1.0353,0,0,0,3.6,5.99909,1.30094,1.30094,0,0,0,4.80014,7.19928a1.301,1.301,0,0,0,1.2002-1.20019,1.03347,1.03347,0,0,0-.39014-.89844.23841.23841,0,0,1-.09033-.1875V1.19928a.72678.72678,0,0,0-.646-.71582A.59186.59186,0,0,0,4.80014.47858Z" style="fill:#f0f0f0"/><path d="M4.7999,2.39965h0a.24023.24023,0,0,1,.2398.2398v2.8803a.2398.2398,0,0,1-.4796,0V2.63945a.24023.24023,0,0,1,.2398-.2398" style="fill:#0075c3;fill-rule:evenodd"/><path d="M4.7996,5.27965a.72.72,0,1,1-.72.72.71993.71993,0,0,1,.72-.72" style="fill:#0075c3;fill-rule:evenodd"/><path d="M7.3812,3.12018H6.72006a.24024.24024,0,0,1,0-.48047H7.3812a.24024.24024,0,0,1,0,.48047Z" style="fill:#f0f0f0"/><path d="M7.3812,1.20124H6.72006a.24024.24024,0,0,1,0-.48047H7.3812a.24024.24024,0,0,1,0,.48047Z" style="fill:#f0f0f0"/><path d="M6.9852,4.08014H6.72006a.24024.24024,0,0,1,0-.48047H6.9852a.24024.24024,0,0,1,0,.48047Z" style="fill:#f0f0f0"/><path d="M6.9852,2.16022H6.72006a.24024.24024,0,0,1,0-.48047H6.9852a.24024.24024,0,0,1,0,.48047Z" style="fill:#f0f0f0"/></g></g></g></svg>