<svg xmlns="http://www.w3.org/2000/svg" xmlns:xlink="http://www.w3.org/1999/xlink" viewBox="0 0 7.6799 7.6799"><defs><style>.a{fill:none;}.b{clip-path:url(#a);}.c{fill:#eb992f;fill-rule:evenodd;}.d{fill:#d1cdcd;}</style><clipPath id="a"><rect class="a" x="-0.0003" width="7.6799" height="7.6802"/></clipPath></defs><title>haukehirsch-3</title><g class="b"><path class="c" d="M3.3148,3.1646,1.2084,2.3618l-.0091.0349V5.1905a.46752.46752,0,0,0,.0777.2602.43051.43051,0,0,0,.1964.1565l2.1263.8101V3.5762a.45351.45351,0,0,0-.0765-.2495.4384.4384,0,0,0-.2084-.1621"/><path class="c" d="M3.8398,2.9565a.9188.9188,0,0,0-.3543-.2398L1.639,2.0132l2.048-.7855a.42735.42735,0,0,1,.1528-.0295.42112.42112,0,0,1,.1517.0286l2.0412.7895-1.8386.7004a.9203.9203,0,0,0-.3543.2398"/><path class="c" d="M4.0799,3.5762V6.4171l2.126-.8099a.44079.44079,0,0,0,.1987-.159A.45334.45334,0,0,0,6.48,5.1905l-.0079-2.696a.473.473,0,0,0-.0176-.1262l-2.0897.7963a.4384.4384,0,0,0-.2084.1621.45351.45351,0,0,0-.0765.2495"/><path class="d" d="M4.08014.48068h-.48a.24024.24024,0,0,1,0-.48047h.48a.24024.24024,0,0,1,0,.48047Z"/><path class="d" d="M2.4.48068H1.92a.24024.24024,0,0,1,0-.48047H2.4a.24024.24024,0,0,1,0,.48047Z"/><path class="d" d="M.71979.48068h-.48a.24024.24024,0,0,1,0-.48047h.48a.24024.24024,0,0,1,0,.48047Z"/><path class="d" d="M7.44.48068H6.96a.24024.24024,0,0,1,0-.48047h.48a.24024.24024,0,0,1,0,.48047Z"/><path class="d" d="M5.76031.48068h-.48a.24024.24024,0,0,1,0-.48047h.48a.24024.24024,0,0,1,0,.48047Z"/><path class="d" d="M.23981,4.32053a.24.24,0,0,1-.23975-.24024V3.59982a.23975.23975,0,1,1,.47949,0v.48047A.24.24,0,0,1,.23981,4.32053Z"/><path class="d" d="M.23981,6.00021A.24.24,0,0,1,.00006,5.76V5.28049a.23975.23975,0,1,1,.47949,0V5.76A.24.24,0,0,1,.23981,6.00021Z"/><path class="d" d="M.23981,7.6799a.24.24,0,0,1-.23975-.24023v-.4795a.23975.23975,0,1,1,.47949,0v.4795A.24.24,0,0,1,.23981,7.6799Z"/><path class="d" d="M.23981.96017A.24.24,0,0,1,.00006.71994V.24045a.23975.23975,0,1,1,.47949,0V.71994A.24.24,0,0,1,.23981.96017Z"/><path class="d" d="M.23981,2.63986a.24.24,0,0,1-.23975-.24023V1.91916a.23975.23975,0,1,1,.47949,0v.48047A.24.24,0,0,1,.23981,2.63986Z"/><path class="d" d="M4.07965,7.6799h-.48a.24024.24024,0,0,1,0-.48047h.48a.24024.24024,0,0,1,0,.48047Z"/><path class="d" d="M5.75983,7.6799h-.48a.24024.24024,0,0,1,0-.48047h.48a.24024.24024,0,0,1,0,.48047Z"/><path class="d" d="M7.44,7.6799H6.96a.24024.24024,0,0,1,0-.48047h.48a.24024.24024,0,0,1,0,.48047Z"/><path class="d" d="M.71979,7.6799h-.48a.24024.24024,0,0,1,0-.48047h.48a.24024.24024,0,0,1,0,.48047Z"/><path class="d" d="M2.399,7.6799h-.4795a.24024.24024,0,0,1,0-.48047H2.399a.24024.24024,0,0,1,0,.48047Z"/><path class="d" d="M7.44,4.32053a.24.24,0,0,1-.23974-.24024V3.59982a.23975.23975,0,1,1,.47949,0v.48047A.24.24,0,0,1,7.44,4.32053Z"/><path class="d" d="M7.44,2.63986a.24.24,0,0,1-.23974-.24023V1.92014a.23975.23975,0,1,1,.47949,0v.47949A.24.24,0,0,1,7.44,2.63986Z"/><path class="d" d="M7.44.96017A.24.24,0,0,1,7.20026.71994V.24045a.23975.23975,0,1,1,.47949,0V.71994A.24.24,0,0,1,7.44.96017Z"/><path class="d" d="M7.44,7.6799a.24.24,0,0,1-.23974-.24023v-.4795a.23975.23975,0,1,1,.47949,0v.4795A.24.24,0,0,1,7.44,7.6799Z"/><path class="d" d="M7.44,6.00119A.24.24,0,0,1,7.20026,5.761V5.28049a.23975.23975,0,1,1,.47949,0V5.761A.24.24,0,0,1,7.44,6.00119Z"/></g></svg>