<svg xmlns="http://www.w3.org/2000/svg" xmlns:xlink="http://www.w3.org/1999/xlink" viewBox="0 0 7.6799 7.6799"><defs><clipPath id="clip-path"><rect y="-0.00015" width="7.6799" height="7.6802" style="fill:none"/></clipPath></defs><title>haukehirsch-29</title><g id="Page_29" data-name="Page 29"><g id="Page_29-2" data-name="Page 29"><g style="clip-path:url(#clip-path)"><path d="M3.8398,5.52035A1.6804,1.6804,0,1,0,2.1594,3.84a1.68035,1.68035,0,0,0,1.6804,1.6804m0,.4796a4.45338,4.45338,0,0,0,3.8401-2.1603,4.45247,4.45247,0,0,0-3.8401-2.16,4.4526,4.4526,0,0,0-3.8401,2.16A4.45351,4.45351,0,0,0,3.8398,6Z" style="fill:#0075c3;fill-rule:evenodd"/><path d="M3.8398,4.80035a.96107.96107,0,0,0,.9536-1.0752.59982.59982,0,0,1-.8374-.8385.92962.92962,0,0,0-.1162-.0071.9604.9604,0,0,0,0,1.9208" style="fill:#f0f0f0;fill-rule:evenodd"/></g></g></g></svg>