<svg xmlns="http://www.w3.org/2000/svg" xmlns:xlink="http://www.w3.org/1999/xlink" viewBox="0 0 7.6799 7.6799"><defs><clipPath id="clip-path"><rect x="-0.0003" width="7.6799" height="7.6802" style="fill:none"/></clipPath></defs><title>haukehirsch-11</title><g id="Page_11" data-name="Page 11"><g id="Page_11-2" data-name="Page 11"><g style="clip-path:url(#clip-path)"><path d="M1.4397,6.7195V4.5592a.24023.24023,0,0,0-.2398-.2398H.7194a.24023.24023,0,0,0-.2398.2398V6.7195Z" style="fill:#cc9800;fill-rule:evenodd"/><path d="M2.8797,6.7195V4.799a.2403.2403,0,0,0-.2398-.2398H2.1594a.2403.2403,0,0,0-.2398.2398V6.7195Z" style="fill:#0075c3;fill-rule:evenodd"/><path d="M4.3197,6.7195V4.079a.2403.2403,0,0,0-.2398-.2398H3.5994a.2403.2403,0,0,0-.2398.2398V6.7195Z" style="fill:#c0392b;fill-rule:evenodd"/><path d="M5.7597,6.7195V1.6792a.24023.24023,0,0,0-.2398-.2398H5.0394a.24023.24023,0,0,0-.2398.2398V6.7195Z" style="fill:#0075c3;fill-rule:evenodd"/><path d="M7.1997,6.7195V3.5991a.24023.24023,0,0,0-.2398-.2398H6.4794a.24023.24023,0,0,0-.2398.2398V6.7195Z" style="fill:#068f55;fill-rule:evenodd"/><path d="M.1199,7.6799H7.5597A.12012.12012,0,0,0,7.6796,7.56V7.3193a.12012.12012,0,0,0-.1199-.1199H.1199A.12018.12018,0,0,0,0,7.3193V7.56a.12018.12018,0,0,0,.1199.1199" style="fill:#f0f0f0;fill-rule:evenodd"/><path d="M1.9193,1.4394a.4802.4802,0,1,1-.4802.4802.48.48,0,0,1,.4802-.4802" style="fill:#f0f0f0;fill-rule:evenodd"/><path d="M3.1198,1.9196a1.18457,1.18457,0,0,1-1.2005.7203A1.18443,1.18443,0,0,1,.7189,1.9196a1.18443,1.18443,0,0,1,1.2004-.7203,1.18457,1.18457,0,0,1,1.2005.7203M1.9193,0A1.9196,1.9196,0,1,1-.0003,1.9196,1.91971,1.91971,0,0,1,1.9193,0Z" style="fill:#f0f0f0;fill-rule:evenodd"/></g></g></g></svg>