<svg xmlns="http://www.w3.org/2000/svg" xmlns:xlink="http://www.w3.org/1999/xlink" viewBox="0 0 7.6799 7.6799"><defs><clipPath id="clip-path"><rect x="-0.0003" width="7.6799" height="7.6802" style="fill:none"/></clipPath></defs><title>haukehirsch-3</title><g id="Page_3" data-name="Page 3"><g id="Page_3-2" data-name="Page 3"><g style="clip-path:url(#clip-path)"><path d="M3.11969.96017A.24.24,0,0,1,2.87994.71994V.24045a.23975.23975,0,1,1,.4795,0V.71994A.24.24,0,0,1,3.11969.96017Z" style="fill:#5194c3"/><path d="M2.10162,1.38205a.23845.23845,0,0,1-.16943-.07031L1.59283.97287A.24.24,0,1,1,1.9317.633l.33936.33886a.24.24,0,0,1-.16944.41016Z" style="fill:#018f55"/><path d="M1.67975,2.4006h-.48a.24023.24023,0,0,1,0-.48046h.48a.24023.24023,0,0,1,0,.48046Z" style="fill:#5194c3"/><path d="M1.76227,3.758a.24048.24048,0,0,1-.16992-.41016L1.9317,3.008a.24031.24031,0,0,1,.33985.33984l-.33936.33984A.23955.23955,0,0,1,1.76227,3.758Z" style="fill:#018f55"/><path d="M5.03961,2.4006h-.48a.24023.24023,0,0,1,0-.48046h.48a.24023.24023,0,0,1,0,.48046Z" style="fill:#5194c3"/><path d="M4.13776,1.38205A.24.24,0,0,1,3.96832.97189L4.30768.633a.24.24,0,1,1,.33887.33984l-.33936.33887A.23847.23847,0,0,1,4.13776,1.38205Z" style="fill:#018f55"/><path d="M3.2386,1.9199h.0003a.36074.36074,0,0,1,.36.36V5.4a.36074.36074,0,0,1-.36.36H3.2386a.36067.36067,0,0,1-.36-.36V2.2799a.36067.36067,0,0,1,.36-.36" style="fill:#e6e6e6;fill-rule:evenodd"/><path d="M3.9591,3.3599H3.9589a.36086.36086,0,0,0-.36.36V5.4a.36086.36086,0,0,0,.36.36h.0002a.36086.36086,0,0,0,.36-.36V3.7199a.36086.36086,0,0,0-.36-.36" style="fill:#e6e6e6;fill-rule:evenodd"/><path d="M4.6791,3.6h.0003a.36086.36086,0,0,1,.36.36V5.4a.36086.36086,0,0,1-.36.36H4.6791a.36093.36093,0,0,1-.36-.36V3.96a.36093.36093,0,0,1,.36-.36" style="fill:#e6e6e6;fill-rule:evenodd"/><path d="M5.3997,3.8401H5.3994a.36086.36086,0,0,0-.36.36V5.4a.36093.36093,0,0,0,.36.36h.0003a.36086.36086,0,0,0,.36-.36V4.2001a.3608.3608,0,0,0-.36-.36" style="fill:#e6e6e6;fill-rule:evenodd"/><path d="M2.9401,5.2747a1.22076,1.22076,0,0,0-.7815-.4748c-.4184,0-.4799.2401-.4799.2401L2.8789,6.48h2.88V4.7999Z" style="fill:#e6e6e6;fill-rule:evenodd"/><path d="M4.0791,7.2003h.7197a.96286.96286,0,0,0,.9601-.9601v-.36A1.32386,1.32386,0,0,0,4.4382,4.5601h-.239A1.32377,1.32377,0,0,0,2.8786,5.8802v.1199A1.20329,1.20329,0,0,0,4.0791,7.2003" style="fill:#e6e6e6;fill-rule:evenodd"/></g></g></g></svg>