<svg xmlns="http://www.w3.org/2000/svg" xmlns:xlink="http://www.w3.org/1999/xlink" viewBox="0 0 7.6799 7.6799"><defs><clipPath id="clip-path"><rect y="-0.00015" width="7.6799" height="7.6802" style="fill:none"/></clipPath></defs><title>haukehirsch-43</title><g id="Page_42" data-name="Page 42"><g id="Page_43" data-name="Page 43"><g style="clip-path:url(#clip-path)"><path d="M.4799,3.50115v2.5665a.40335.40335,0,0,0,.3912.4125H1.9826A.47744.47744,0,0,1,2.236,6.269l.4096-.1488-.4096-.1491a.47994.47994,0,0,1,0-.902l.4096-.1488-.4096-.1491a.47994.47994,0,0,1,0-.902l2.5594-.9309-1.6756-.9777Z" style="fill:#d1cdcd;fill-rule:evenodd"/><path d="M3.1198.00015.4042,1.59855A.77037.77037,0,0,0,0,2.27125v.6968a.14811.14811,0,0,0,.0695.1278.13278.13278,0,0,0,.142.0065L3.1198,1.405l2.9087,1.6974a.13342.13342,0,0,0,.142-.0065.14788.14788,0,0,0,.0694-.1278v-.6968a.77.77,0,0,0-.4042-.6727Z" style="fill:#d1cdcd;fill-rule:evenodd"/><path d="M2.4001,6.72l.9476-.3447,1.5282.5559a.46166.46166,0,0,0,.3282,0l1.5282-.5559.9476.3447L5.04,7.68005Z" style="fill:#0075c3;fill-rule:evenodd"/><path d="M2.4001,5.52005l.9476-.3447,1.5282.5559a.46166.46166,0,0,0,.3282,0l1.5282-.5559.9476.3447L5.04,6.48015Z" style="fill:#0075c3;fill-rule:evenodd"/><polygon points="2.4 4.32 5.04 3.36 7.68 4.32 5.04 5.28 2.4 4.32" style="fill:#d1cdcd;fill-rule:evenodd"/></g></g></g></svg>