<svg xmlns="http://www.w3.org/2000/svg" xmlns:xlink="http://www.w3.org/1999/xlink" viewBox="0 0 7.6799 7.6799"><defs><clipPath id="clip-path"><rect x="0.0003" y="-0.00015" width="7.6799" height="7.6802" style="fill:none"/></clipPath></defs><title>haukehirsch-39</title><g id="Page_42" data-name="Page 42"><g id="Page_39-2" data-name="Page 39"><g style="clip-path:url(#clip-path)"><path d="M3.8404,1.91835.4978,3.88555a.94829.94829,0,0,0-.4975.828V5.571a.18323.18323,0,0,0,.0853.1576.16539.16539,0,0,0,.1752.008l3.5796-2.0892,3.5793,2.0892a.16581.16581,0,0,0,.1752-.008.1825.1825,0,0,0,.0853-.1576v-.8575a.94806.94806,0,0,0-.4975-.828Z" style="fill:#727275;fill-rule:evenodd"/><rect x="5.2815" y="2.15815" width="1.44" height="1.9199" style="fill:#727275"/><path d="M5.2812,1.43815H6.7218a.24023.24023,0,0,1,.2398.2398v.4805a.24023.24023,0,0,1-.2398.2398H5.2812a.2403.2403,0,0,1-.2398-.2398V1.678a.2403.2403,0,0,1,.2398-.2398" style="fill:#727275;fill-rule:evenodd"/></g></g></g></svg>