<svg xmlns="http://www.w3.org/2000/svg" xmlns:xlink="http://www.w3.org/1999/xlink" viewBox="0 0 7.6799 7.6799"><defs><clipPath id="clip-path"><rect x="0.0003" y="-0.00015" width="7.6799" height="7.6802" style="fill:none"/></clipPath></defs><title>haukehirsch-38</title><g id="Page_42" data-name="Page 42"><g id="Page_38-2" data-name="Page 38"><g style="clip-path:url(#clip-path)"><path d="M2.39962,7.20221A.23959.23959,0,0,1,2.2297,7.1319L.54806,5.45026a.24105.24105,0,0,1-.07031-.16992V.71784A.24006.24006,0,0,1,.718.4776h4.5625A.241.241,0,0,1,5.4504.54791L7.132,2.22956a.2403.2403,0,1,1-.33984.33984L5.18087.95807H.95822V5.18073L2.56954,6.79206a.24023.24023,0,0,1-.16992.41015Z" style="fill:#727275"/><path d="M6.96212,7.20221H2.4006A.24007.24007,0,0,1,2.16036,6.962V2.40045a.24007.24007,0,0,1,.24024-.24023H6.96212a.24006.24006,0,0,1,.24024.24023V6.962A.24006.24006,0,0,1,6.96212,7.20221ZM2.64083,6.72174H6.72189v-4.081H2.64083Z" style="fill:#727275"/><path d="M2.39962,2.63971A.23959.23959,0,0,1,2.2297,2.5694L.54806.88776A.24031.24031,0,0,1,.8879.54791L2.56954,2.22956a.24023.24023,0,0,1-.16992.41015Z" style="fill:#727275"/></g></g></g></svg>