<svg xmlns="http://www.w3.org/2000/svg" xmlns:xlink="http://www.w3.org/1999/xlink" viewBox="0 0 7.6799 7.6799"><defs><clipPath id="clip-path"><rect x="0.0003" y="-0.00015" width="7.6799" height="7.6802" style="fill:none"/></clipPath></defs><title>haukehirsch-40</title><g id="Page_42" data-name="Page 42"><g id="Page_40-2" data-name="Page 40"><g style="clip-path:url(#clip-path)"><path d="M6.71951,7.43854H.95974a.24006.24006,0,0,1-.24023-.24023V.4776A.24006.24006,0,0,1,.95974.23737H6.71951A.24006.24006,0,0,1,6.95974.4776V7.19831A.24006.24006,0,0,1,6.71951,7.43854ZM1.2,6.95807H6.47927V.71784H1.2Z" style="fill:#727275"/><path d="M3.83962,7.43854a.24006.24006,0,0,1-.24023-.24023V.4776a.24024.24024,0,0,1,.48047,0V7.19831A.24006.24006,0,0,1,3.83962,7.43854Z" style="fill:#727275"/><path d="M6.71951,4.07819H.95974a.24024.24024,0,0,1,0-.48047H6.71951a.24024.24024,0,0,1,0,.48047Z" style="fill:#727275"/><rect x="1.6798" y="1.19745" width="1.44" height="1.9202" style="fill:#0075c3"/><rect x="4.5593" y="1.19745" width="1.44" height="1.9202" style="fill:#0075c3"/><rect x="1.6798" y="4.55765" width="1.44" height="1.9202" style="fill:#0075c3"/><rect x="4.5593" y="4.55765" width="1.44" height="1.9202" style="fill:#0075c3"/></g></g></g></svg>