<svg xmlns="http://www.w3.org/2000/svg" xmlns:xlink="http://www.w3.org/1999/xlink" viewBox="0 0 7.6799 7.6799"><defs><clipPath id="clip-path"><rect x="0.0003" y="-0.00015" width="7.6799" height="7.6802" style="fill:none"/></clipPath></defs><title>haukehirsch-41</title><g id="Page_42" data-name="Page 42"><g id="Page_41-2" data-name="Page 41"><g style="clip-path:url(#clip-path)"><path d="M3.84039,4.79791H2.63922A2.4027,2.4027,0,0,1,.2398,2.39752v-.7207H2.15972v.7207a.48631.48631,0,0,0,.4795.48047H3.84039Z" style="fill:#727275"/><path d="M7.44,5.99811H5.52008v-.7207a.47972.47972,0,0,0-.4795-.4795H3.84039V2.878H5.04058A2.40187,2.40187,0,0,1,7.44,5.27741Z" style="fill:#727275"/><path d="M.2401-.00015H2.1603a.24023.24023,0,0,1,.2398.2398v.718a.24023.24023,0,0,1-.2398.2398H.2401A.24023.24023,0,0,1,.0003.95765v-.718a.24023.24023,0,0,1,.2398-.2398" style="fill:#0075c3;fill-rule:evenodd"/><path d="M5.5202,6.48235H7.4404a.24032.24032,0,0,1,.2398.2399v.718a.24023.24023,0,0,1-.2398.2398H5.5202a.24023.24023,0,0,1-.2398-.2398v-.718a.24032.24032,0,0,1,.2398-.2399" style="fill:#0075c3;fill-rule:evenodd"/></g></g></g></svg>