<svg xmlns="http://www.w3.org/2000/svg" xmlns:xlink="http://www.w3.org/1999/xlink" viewBox="0 0 7.6799 7.6799"><defs><clipPath id="clip-path"><rect y="-0.00015" width="7.6799" height="7.6802" style="fill:none"/></clipPath></defs><title>haukehirsch-37</title><g id="Page_42" data-name="Page 42"><g id="Page_37-2" data-name="Page 37"><g style="clip-path:url(#clip-path)"><path d="M3.84027,7.44049A.24071.24071,0,0,1,3.687,7.38483L.80511,4.98541A.24138.24138,0,0,1,.7182,4.80084V1.44049A.23962.23962,0,0,1,.88226,1.213L3.76409.252a.23516.23516,0,0,1,.2295.043L6.87445,2.6944a.24142.24142,0,0,1,.08691.18457V6.23932a.23962.23962,0,0,1-.16406.22754L3.91644,7.4278A.23082.23082,0,0,1,3.84027,7.44049ZM1.19866,4.68854,3.89105,6.93073l2.58984-.86426V2.99127L3.78948.74909l-2.59082.86425Z" style="fill:#727275"/></g></g></g></svg>