<svg xmlns="http://www.w3.org/2000/svg" xmlns:xlink="http://www.w3.org/1999/xlink" viewBox="0 0 7.6799 7.6799"><defs><clipPath id="clip-path"><rect x="0.0003" y="-0.00015" width="7.6799" height="7.6802" style="fill:none"/></clipPath></defs><title>haukehirsch-42</title><g id="Page_42" data-name="Page 42"><g id="Page_42-2" data-name="Page 42"><g style="clip-path:url(#clip-path)"><path d="M7.43978,7.19733a.24006.24006,0,0,1-.24023-.24024V2.28522L4.5599.52545,1.92025,2.28522V5.03815a.24024.24024,0,0,1-.48047,0V2.15729a.23767.23767,0,0,1,.10743-.19922L4.42709.03815a.23552.23552,0,0,1,.26562,0L7.5726,1.95807A.23768.23768,0,0,1,7.68,2.15729v4.7998A.24006.24006,0,0,1,7.43978,7.19733Z" style="fill:#727275"/><path d="M.2398,6.71765H7.4401a.24075.24075,0,0,1,.2401.2401V7.44a.24075.24075,0,0,1-.2401.2401H.2398A.24075.24075,0,0,1-.0003,7.44v-.4822a.24075.24075,0,0,1,.2401-.2401" style="fill:#727275;fill-rule:evenodd"/><path d="M6.47982,6.23834H.24056a.24023.24023,0,1,1,0-.48046H6.47982a.24023.24023,0,1,1,0,.48046Z" style="fill:#0075c3"/></g></g></g></svg>