<svg xmlns="http://www.w3.org/2000/svg" xmlns:xlink="http://www.w3.org/1999/xlink" viewBox="0 0 7.6799 7.6799"><defs><style>.a{fill:none;}.b{clip-path:url(#a);}.c{fill:#eb992c;}.d{fill:#1875bb;}.e{fill:#bf3b2b;}.f{fill:#008f55;}.g{fill:#737375;fill-rule:evenodd;}</style><clipPath id="a"><rect class="a" x="0.0003" y="-0.00015" width="7.6799" height="7.6802"/></clipPath></defs><title>haukehirsch-6</title><g class="b"><rect class="c" x="0.3603" y="0.35985" width="1.1999" height="1.1999"/><path class="d" d="M6.72061,1.20048H2.4003a.24024.24024,0,0,1,0-.48047H6.72061a.24024.24024,0,0,1,0,.48047Z"/><rect class="e" x="0.3603" y="2.03905" width="1.1999" height="1.1999"/><path class="d" d="M2.4004,4.55935a.2401.2401,0,1,1,0-.4802H4.3197v.4802Z"/><path class="d" d="M5.9185,2.39885h.8019a.24005.24005,0,1,1,0,.4801H5.9998v-.1196a.83581.83581,0,0,0-.0813-.3605M2.4004,2.879a.24005.24005,0,1,1,0-.4801H4.4011a.83444.83444,0,0,0-.0814.3605V2.879Z"/><rect class="f" x="0.3603" y="3.71915" width="1.1999" height="1.1999"/><path class="g" d="M5.1596,2.39935h.0003a.36067.36067,0,0,1,.36.36v3.1201a.36067.36067,0,0,1-.36.36H5.1596a.36074.36074,0,0,1-.36-.36V2.75935a.36074.36074,0,0,1,.36-.36"/><path class="g" d="M5.8802,3.83935H5.8799a.36093.36093,0,0,0-.36.36v1.6801a.36086.36086,0,0,0,.36.36h.0003a.36086.36086,0,0,0,.36-.36V4.19935a.36093.36093,0,0,0-.36-.36"/><path class="g" d="M6.6002,4.07945h.0003a.36093.36093,0,0,1,.36.36v1.44a.36086.36086,0,0,1-.36.36H6.6002a.36086.36086,0,0,1-.36-.36v-1.44a.36093.36093,0,0,1,.36-.36"/><path class="g" d="M7.3208,4.31955H7.3205a.36086.36086,0,0,0-.36.36v1.1999a.3608.3608,0,0,0,.36.36h.0003a.36086.36086,0,0,0,.36-.36V4.67955a.36093.36093,0,0,0-.36-.36"/><path class="g" d="M4.8612,5.75415a1.22109,1.22109,0,0,0-.7816-.4748c-.4184,0-.4799.2401-.4799.2401l1.3814,1.5928,2.6988-.1528V5.27935Z"/><path class="g" d="M6.0001,7.67975h.7197a.96286.96286,0,0,0,.9601-.9601v-.36a1.32383,1.32383,0,0,0-1.3206-1.3201h-.239a1.32392,1.32392,0,0,0-1.3207,1.3201v.1199a1.20335,1.20335,0,0,0,1.2005,1.2002"/></g></svg>