<svg xmlns="http://www.w3.org/2000/svg" xmlns:xlink="http://www.w3.org/1999/xlink" viewBox="0 0 7.6799 7.6799"><defs><style>.a{fill:none;}.b{clip-path:url(#a);}.c{fill:#1875bb;}.c,.d{fill-rule:evenodd;}.d{fill:#737375;}</style><clipPath id="a"><rect class="a" x="0.0003" y="-0.00015" width="7.6799" height="7.6802"/></clipPath></defs><title>haukehirsch-5</title><g class="b"><path class="c" d="M3.4492,4.97435a6.46326,6.46326,0,0,1-.9286.0652,5.43554,5.43554,0,0,1-1.8672-.2973L.646,4.73935l-.0071-.0028-.0073-.0028-.004-.0015-.0031-.0014-.0071-.0028-.0071-.0029-.0071-.0028-.0008-.0003-.0063-.0025-.007-.0029L.582,4.71385l-.0048-.002-.0023-.0008L.5681,4.708.561,4.70505l-.0071-.0028-.0014-.0006-.0054-.0025-.0068-.0029-.0068-.0031-.0054-.0023-.0017-.0005-.0068-.0031-.0065-.0029-.0068-.0031L.504,4.68045l-.0045-.0023-.0068-.0028-.0065-.0032-.006-.0028-.0008-.0003-.0066-.0031L.466,4.66285l-.0065-.0031-.0028-.0012L.453,4.65665l-.0065-.0032L.44,4.65035l-.0063-.0031H.4334l-.0062-.0031-.0065-.0031-.0065-.0034-.0034-.0015-.0029-.0017-.0062-.0031L.3952,4.628l-.0063-.0031-.0005-.0003-.0057-.0028-.0062-.0034-.0063-.0031L.3663,4.613.364,4.61185l-.006-.0034-.0062-.0032-.006-.0034-.0014-.0005-.0048-.0029-.0059-.0031L.3277,4.592l-.0045-.0025-.0017-.0009-.006-.0034-.0059-.0034-.0057-.0034-.002-.0008L.2979,4.575.292,4.57155l-.0057-.0034-.0051-.0028-.0008-.0006-.0057-.0034L.269,4.558l-.0056-.0037-.0026-.0014-.0031-.002L.252,4.54745l-.0057-.0037L.241,4.54065l-.0003-.0003v.7387c0,.1548.2233.3178.5833.455a4.95438,4.95438,0,0,0,1.6966.265,6.09666,6.09666,0,0,0,.8101-.0527l-.0998-.1196a.466.466,0,0,1-.0966-.4238.71407.71407,0,0,1,.3149-.4286m.8705-.2072q-.0582.02085-.1193.04a1.15978,1.15978,0,0,1,.1193.0218Zm0-.5142-.1026.0414a4.95578,4.95578,0,0,1-1.6965.265,4.95681,4.95681,0,0,1-1.6966-.265c-.36-.1372-.5833-.3002-.5833-.455v-.739l.0003.0003.0053.0031.0057.0037.0057.0034.0031.002.0026.0014L.269,3.118l.0057.0034.0057.0034.0008.0006.0051.0028.0057.0034.0059.0034.004.0026.002.0008.0057.0034.0059.0034.006.0034.0017.0009.0045.0025.006.0034.0059.0031.0048.0029.0014.0005.006.0034.0062.0032.006.0034.0023.0011.0039.0023.0063.0031.0062.0034.0057.0028.0005.0003.0063.0031.0065.0034.0062.0031.0029.0017.0034.0015.0065.0034.0065.0031.0062.0031H.4337l.0063.0031.0065.0031.0065.0032.0037.0019.0028.0012.0065.0031.0068.0031.0066.0031.0008.0003.006.0028.0065.0032.0068.0028.0045.0023.0023.0008.0068.0031.0065.0029.0068.0031.0017.0005.0054.0023.0068.0031.0068.0029.0054.0025.0014.0006.0071.0028.0071.0029.0068.0031.0023.0008.0048.002.0071.0028.007.0029.0063.0025.0008.0003.0071.0028.0071.0029.0071.0028.0031.0014.004.0015.0073.0028.0071.0028.0074.0029a5.43554,5.43554,0,0,0,1.8672.2973,5.548,5.548,0,0,0,1.7991-.2724Zm0-1.44-.1026.0414a4.95578,4.95578,0,0,1-1.6965.265,4.95681,4.95681,0,0,1-1.6966-.265c-.36-.1372-.5833-.3002-.5833-.455v-.7387L.241,1.661l.0053.0031.0057.0037.0057.0034.0113.0071.0057.0034.0057.0034.0008.0006.0051.0028.0057.0034.0059.0034.004.0025.002.0009.0057.0034.0059.0034.006.0034.0017.0009.0045.0025.006.0034.0059.0031.0048.0029.0014.0005.006.0034.0062.0031.006.0034.0023.0012.0039.0022.0063.0032.0062.0034.0057.0028.0005.0003.0063.0031.0065.0034.0062.0031.0029.0017.0034.0014.0065.0034.0065.0032.0062.0031H.4337l.0063.0031.0065.0031.0065.0031.0037.002.0028.0012.0065.0031.0068.0031.0066.0031.0008.0003.006.0028.0065.0031.0068.0029.0045.0022.0023.0009.0068.0031.0065.0028.0068.0032.0017.0005.0054.0023.0068.0031.0068.0029.0054.0025.0014.0006.0071.0028.0071.0028.0068.0032.0023.0008.0048.002.0071.0028.007.0029.0063.0025.0008.0003.0071.0028.0071.0029.0071.0028.0031.0014.004.0014.0073.0029.0071.0028.0074.0028a5.433,5.433,0,0,0,1.8672.2974,5.43934,5.43934,0,0,0,1.8672-.2974l.0073-.0028.0071-.0028.0074-.0029.004-.0014.0031-.0014.0071-.0028.0071-.0029.007-.0028.0009-.0003.0062-.0025.0071-.0029.0071-.0028.0048-.002.0023-.0008.0068-.0032.0071-.0028.0071-.0028.0014-.0006.0054-.0025.0068-.0029.0068-.0031.0054-.0023.0017-.0005.0068-.0032.0065-.0028.0068-.0031.0023-.0009.0045-.0022.0068-.0029.0065-.0031.006-.0028.0008-.0003.0065-.0031.0068-.0031.0066-.0031.0028-.0012.0037-.002.0065-.0031.0065-.0031.0062-.0031h.0003l.0063-.0031.0065-.0032.0065-.0034.0034-.0014.0028-.0017.0063-.0031.0065-.0034.0062-.0031.0006-.0003.0057-.0028.0062-.0034.0062-.0032.004-.0022.0023-.0012.0059-.0034.0063-.0031.0059-.0034.0014-.0005.0049-.0029.0059-.0031.006-.0034.0045-.0025.0017-.0009.006-.0034.0059-.0034.0057-.0034.002-.0009.0039-.0025.006-.0034.0057-.0034.0051-.0028.0008-.0006.0057-.0034.0056-.0034.0114-.0071.0057-.0034.0056-.0037.0054-.0031.0003-.0003v.3396a.84055.84055,0,0,0-.4808.7591ZM4.8005.96c0,.1548-.2234.3175-.5834.4547a4.95578,4.95578,0,0,1-1.6965.265,4.95681,4.95681,0,0,1-1.6966-.265C.464,1.27745.2407,1.11475.2407.96c0-.1551.2233-.3178.5833-.455A4.95681,4.95681,0,0,1,2.5206.24,4.95578,4.95578,0,0,1,4.2171.505C4.5771.64215,4.8005.80485,4.8005.96Z"/><path class="d" d="M5.1596,2.39935h.0003a.36067.36067,0,0,1,.36.36v3.1201a.36067.36067,0,0,1-.36.36H5.1596a.36074.36074,0,0,1-.36-.36V2.75935a.36074.36074,0,0,1,.36-.36"/><path class="d" d="M5.8802,3.83935H5.8799a.36093.36093,0,0,0-.36.36v1.6801a.36086.36086,0,0,0,.36.36h.0003a.36086.36086,0,0,0,.36-.36V4.19935a.36093.36093,0,0,0-.36-.36"/><path class="d" d="M6.6002,4.07945h.0003a.36093.36093,0,0,1,.36.36v1.44a.36086.36086,0,0,1-.36.36H6.6002a.36086.36086,0,0,1-.36-.36v-1.44a.36093.36093,0,0,1,.36-.36"/><path class="d" d="M7.3208,4.31955H7.3205a.36086.36086,0,0,0-.36.36v1.1999a.3608.3608,0,0,0,.36.36h.0003a.36086.36086,0,0,0,.36-.36V4.67955a.36093.36093,0,0,0-.36-.36"/><path class="d" d="M4.8612,5.75415a1.22109,1.22109,0,0,0-.7816-.4748c-.4184,0-.4799.2401-.4799.2401l1.3814,1.5928,2.6988-.1528V5.27935Z"/><path class="d" d="M6.0001,7.67975h.7197a.96286.96286,0,0,0,.9601-.9601v-.36a1.32383,1.32383,0,0,0-1.3206-1.3201h-.239a1.32392,1.32392,0,0,0-1.3207,1.3201v.1199a1.20335,1.20335,0,0,0,1.2005,1.2002"/></g></svg>