<svg xmlns="http://www.w3.org/2000/svg" xmlns:xlink="http://www.w3.org/1999/xlink" viewBox="0 0 7.6799 7.6799"><defs><style>.a{fill:none;}.b{clip-path:url(#a);}.c,.e{fill:#727275;}.d{fill:#1875bb;}.d,.e{fill-rule:evenodd;}</style><clipPath id="a"><rect class="a" y="-0.00015" width="7.6799" height="7.6802"/></clipPath></defs><title>haukehirsch-2</title><g class="b"><path class="c" d="M5.2801.47975v.4799h.9598V.47975ZM3.3599.95965V.47975H.4802v.4799Zm1.44,0V.47975H3.8401v.4799ZM.4802,5.75955h2.16v.4802H.2401A.24036.24036,0,0,1,0,5.99965v-5.76a.24036.24036,0,0,1,.2401-.2401H6.48a.24036.24036,0,0,1,.2401.2401v1.6801H6.2399v-.4799H5.2801v.4799H4.7999v-.4799H3.8401v1.9204H3.3599V1.43985H.4802Z"/><path class="d" d="M7.4398,6.23915H6.7195V4.08005a.72014.72014,0,0,0-.7197-.7198H4.5601v-.7208a.24017.24017,0,0,1,.2395-.2398H7.4398a.24.24,0,0,1,.2398.2398v3.3599a.24.24,0,0,1-.2398.2398"/><path class="e" d="M5.9998,7.67975H3.3596A.24017.24017,0,0,1,3.1201,7.44V4.08005a.24017.24017,0,0,1,.2395-.2398H5.9998a.24.24,0,0,1,.2398.2398V7.44a.24.24,0,0,1-.2398.2398"/></g></svg>