<svg xmlns="http://www.w3.org/2000/svg" xmlns:xlink="http://www.w3.org/1999/xlink" viewBox="0 0 7.6799 7.6799"><defs><clipPath id="clip-path"><rect x="0.0003" y="-0.00015" width="7.6799" height="7.6802" style="fill:none"/></clipPath></defs><title>haukehirsch-30</title><g id="Page_42" data-name="Page 42"><g id="Page_30-2" data-name="Page 30"><g style="clip-path:url(#clip-path)"><path d="M1.91989,2.15924H.72067A.24006.24006,0,0,1,.48043,1.919V.71881A.24006.24006,0,0,1,.72067.47858H1.91989a.24006.24006,0,0,1,.24023.24023V1.919A.24006.24006,0,0,1,1.91989,2.15924Zm-.959-.48047h.71875V.95905H.9609Z" style="fill:#727275"/><path d="M1.92086,4.55963H.72164A.24006.24006,0,0,1,.48141,4.3194V3.1192A.24006.24006,0,0,1,.72164,2.879H1.92086a.24006.24006,0,0,1,.24024.24023V4.3194A.24006.24006,0,0,1,1.92086,4.55963Zm-.959-.48047h.71875V3.35944H.96188Z" style="fill:#727275"/><path d="M1.92086,6.95905H.72164a.24006.24006,0,0,1-.24023-.24024V5.51959a.24006.24006,0,0,1,.24023-.24023H1.92086a.24006.24006,0,0,1,.24024.24023V6.71881A.24006.24006,0,0,1,1.92086,6.95905Zm-.959-.48047h.71875V5.75983H.96188Z" style="fill:#727275"/><path d="M6.71969,1.67975H3.36032a.24024.24024,0,1,1,0-.48047H6.71969a.24024.24024,0,1,1,0,.48047Z" style="fill:#727275"/><path d="M6.71969,4.08112H3.36032a.24024.24024,0,1,1,0-.48047H6.71969a.24024.24024,0,1,1,0,.48047Z" style="fill:#727275"/><path d="M6.71969,6.48151H3.36032a.24024.24024,0,1,1,0-.48047H6.71969a.24024.24024,0,1,1,0,.48047Z" style="fill:#727275"/></g></g></g></svg>