<svg xmlns="http://www.w3.org/2000/svg" xmlns:xlink="http://www.w3.org/1999/xlink" viewBox="0 0 7.6799 7.6799"><defs><clipPath id="clip-path"><rect y="-0.00015" width="7.6799" height="7.6802" style="fill:none"/></clipPath></defs><title>haukehirsch-25</title><g id="Page_42" data-name="Page 42"><g id="Page_25-2" data-name="Page 25"><g style="clip-path:url(#clip-path)"><path d="M4.3118,2.28085l-1.815-.6913-.095-.0363-.0017,2.5653a.40518.40518,0,0,0,.0675.2268.38094.38094,0,0,0,.1701.1361l1.9224.7319V2.63885a.39612.39612,0,0,0-.0666-.2168.38216.38216,0,0,0-.1817-.1412" style="fill:#eb992f;fill-rule:evenodd"/><path d="M4.8002.48065a.37172.37172,0,0,0-.1329.0255l-1.8275.701,1.8275.6959a.35468.35468,0,0,0,.2656,0l1.8209-.6934L4.9329.50615a.37.37,0,0,0-.1327-.0255" style="fill:#eb992f;fill-rule:evenodd"/><path d="M5.0403,2.63885v2.5745l1.9222-.7319a.39.39,0,0,0,.172-.1384A.39584.39584,0,0,0,7.2,4.11855l-.0071-2.4704a.40735.40735,0,0,0-.0099-.089l-.0419.0159-1.8528.7058a.38183.38183,0,0,0-.1814.1412.39612.39612,0,0,0-.0666.2168" style="fill:#eb992f;fill-rule:evenodd"/><path d="M2.64068,7.67975a.23957.23957,0,0,1-.16992-.07031l-.7207-.71973a.24046.24046,0,0,1,0-.33984l.71972-.71973A.24031.24031,0,1,1,2.80963,6.17l-.54981.5498.55078.5498a.24024.24024,0,0,1-.16992.41016Z" style="fill:#727275"/><path d="M7.44049,6.96H1.92a.24023.24023,0,1,1,0-.48046H7.44049a.24023.24023,0,1,1,0,.48046Z" style="fill:#727275"/><path d="M6.71978,7.67975a.24024.24024,0,0,1-.16992-.41016l.55078-.5498L6.54986,6.17a.24031.24031,0,0,1,.33984-.33985l.72071.71973a.24048.24048,0,0,1,0,.33984l-.72071.71973A.23955.23955,0,0,1,6.71978,7.67975Z" style="fill:#727275"/><path d="M.96,6.00006a.23955.23955,0,0,1-.16993-.07031L.07037,5.21a.2403.2403,0,0,1,.33984-.33984L.96,5.421l.5498-.55078A.24031.24031,0,0,1,1.84967,5.21l-.71973.71973A.23954.23954,0,0,1,.96,6.00006Z" style="fill:#727275"/><path d="M.96,5.88092a.24006.24006,0,0,1-.24024-.24023V.12018a.24024.24024,0,0,1,.48047,0V5.64069A.24006.24006,0,0,1,.96,5.88092Z" style="fill:#727275"/><path d="M1.67974,1.20026A.23959.23959,0,0,1,1.50982,1.13L.96.57916.41021,1.13A.24031.24031,0,0,1,.07037.7901L.79009.07038a.24049.24049,0,0,1,.33985,0L1.84967.7901a.24024.24024,0,0,1-.16993.41016Z" style="fill:#727275"/></g></g></g></svg>