<svg xmlns="http://www.w3.org/2000/svg" xmlns:xlink="http://www.w3.org/1999/xlink" viewBox="0 0 7.6799 7.6799"><defs><style>.a{fill:none;}.b{clip-path:url(#a);}.c{fill:#1875bb;}.d{fill:#737375;fill-rule:evenodd;}.e{fill:#eb992c;}.f{fill:#bf3b2b;}.g{fill:#008f55;}</style><clipPath id="a"><rect class="a" y="-0.00015" width="7.6799" height="7.6802"/></clipPath></defs><title>haukehirsch-1</title><g class="b"><path class="c" d="M6.72021,1.20048H2.3999a.24024.24024,0,0,1,0-.48047H6.72021a.24024.24024,0,0,1,0,.48047Z"/><path class="c" d="M2.4001,4.55935a.2401.2401,0,0,1,0-.4802H4.2302l-.4802.4802Z"/><path class="c" d="M2.4001,2.879a.24005.24005,0,1,1,0-.4801H5.9162c-.0241.0201-.047.0411-.0692.0632l-.4169.4169Z"/><path class="d" d="M3.0059,5.96535l-.345,1.3972a.22019.22019,0,0,0,.2974.2974l1.3969-.345c1.3844-1.3845,1.7759-1.7756,3.16-3.1601a.42251.42251,0,0,0,.0854-.5757l-.8589-.8589a.42289.42289,0,0,0-.5758.0853Z"/><rect class="e" x="0.36" y="0.35985" width="1.1999" height="1.1999"/><rect class="f" x="0.36" y="2.03905" width="1.1999" height="1.1999"/><rect class="g" x="0.36" y="3.71915" width="1.1999" height="1.1999"/></g></svg>