<svg xmlns="http://www.w3.org/2000/svg" xmlns:xlink="http://www.w3.org/1999/xlink" viewBox="0 0 7.6799 7.6799"><defs><style>.a{fill:none;}.b{clip-path:url(#a);}.c{fill:#1875bb;}.d{fill:#737375;}.e{fill:#eb992c;}.f{fill:#bf3b2b;}.g{fill:#008f55;}</style><clipPath id="a"><rect class="a" y="-0.00015" width="7.6799" height="7.6802"/></clipPath></defs><title>haukehirsch-2</title><g class="b"><path class="c" d="M2.4001,4.55935a.2401.2401,0,0,1,0-.4802h.8036l-.0416.0417a.9652.9652,0,0,0-.2075.3115,1.03115,1.03115,0,0,0-.0431.127Z"/><path class="c" d="M6.72,1.20048H2.40018a.24024.24024,0,0,1,0-.48047H6.72a.24024.24024,0,0,1,0,.48047Z"/><path class="c" d="M6.72,2.87919H2.40018a.24024.24024,0,0,1,0-.48047H6.72a.24024.24024,0,0,1,0,.48047Z"/><path class="d" d="M7.2,6.48075H3.84012a.36035.36035,0,0,1,0-.7207H7.2a.36035.36035,0,0,1,0,.7207Z"/><path class="d" d="M6.24,7.43974a.36036.36036,0,0,1-.25439-.61524l.95947-.959a.36011.36011,0,1,1,.50879.50976l-.95947.959A.35825.35825,0,0,1,6.24,7.43974Z"/><path class="d" d="M7.2,5.04032H3.84012a.36035.36035,0,0,1,0-.7207H7.2a.36035.36035,0,0,1,0,.7207Z"/><path class="d" d="M3.84061,5.04032a.36035.36035,0,0,1-.2544-.61523l.95947-.96a.36011.36011,0,0,1,.50879.50976l-.95947.96A.35739.35739,0,0,1,3.84061,5.04032Z"/><rect class="e" x="0.3603" y="0.35985" width="1.1999" height="1.1999"/><rect class="f" x="0.3603" y="2.03905" width="1.1999" height="1.1999"/><rect class="g" x="0.3603" y="3.71915" width="1.1999" height="1.1999"/></g></svg>