<svg xmlns="http://www.w3.org/2000/svg" xmlns:xlink="http://www.w3.org/1999/xlink" viewBox="0 0 7.68 7.68"><defs><style>.a{fill:none;}.b{clip-path:url(#a);}.c{fill:#727275;}.d{fill:#bf3b2b;}.d,.e{fill-rule:evenodd;}.e{fill:#1875bb;}</style><clipPath id="a"><rect class="a" width="7.68" height="7.68"/></clipPath></defs><title>haukehirsch-06</title><g class="b"><path class="c" d="M.24,6H.17A.24.24,0,0,1,0,5.69L1,2.57a.25.25,0,0,1,.2-.17.26.26,0,0,1,.24.12l.78,1.36.5-.66a.19.19,0,0,1,.2-.1.23.23,0,0,1,.2.12l.68,1.2.56-1.87a.25.25,0,0,1,.22-.17.2.2,0,0,1,.23.14l.46,1.08.53-1.77A.23.23,0,0,1,6,1.68a.28.28,0,0,1,.24.16l.72,2L7.21,3a.24.24,0,1,1,.46.16L7.19,4.64A.24.24,0,0,1,7,4.8H7a.25.25,0,0,1-.23-.16L6,2.68,5.51,4.39a.25.25,0,0,1-.22.17.21.21,0,0,1-.23-.15L4.6,3.34,4.07,5.11a.25.25,0,0,1-.2.17.25.25,0,0,1-.24-.12L2.85,3.8l-.5.66a.21.21,0,0,1-.2.1A.23.23,0,0,1,2,4.44l-.68-1.2L.47,5.83A.25.25,0,0,1,.24,6Z"/><path class="d" d="M.48,1.2H7.2A.24.24,0,0,0,7.44,1V.48A.24.24,0,0,0,7.2.24H.48A.24.24,0,0,0,.24.48V1a.24.24,0,0,0,.24.24"/><path class="e" d="M.48,7.44H7.2a.24.24,0,0,0,.24-.24V6.72a.24.24,0,0,0-.24-.24H.48a.24.24,0,0,0-.24.24V7.2a.24.24,0,0,0,.24.24"/></g></svg>