<svg xmlns="http://www.w3.org/2000/svg" xmlns:xlink="http://www.w3.org/1999/xlink" viewBox="0 0 7.6799 7.6799"><defs><clipPath id="clip-path"><rect x="-0.0003" width="7.6799" height="7.6802" style="fill:none"/></clipPath></defs><title>haukehirsch-09</title><g id="Page_9" data-name="Page 9"><g id="Page_9-2" data-name="Page 9"><g style="clip-path:url(#clip-path)"><path d="M5.2795,3.5277V1.6991A.72044.72044,0,0,0,4.5598.9794H.9595V.2401A.24075.24075,0,0,1,1.1996,0H5.9995a.24075.24075,0,0,1,.2401.2401V3.5277l-.2143-.0828a.73395.73395,0,0,0-.5091-.0079Z" style="fill:#0075c3;fill-rule:evenodd"/><path d="M3.7242,7.4591H.2395a.24017.24017,0,0,1-.2398-.2395V1.6991a.24043.24043,0,0,1,.2398-.2398H4.5598a.24043.24043,0,0,1,.2398.2398V3.712l-.6942.2661a.47181.47181,0,0,0-.2894.3133.47348.47348,0,0,0-.2452.0836.46706.46706,0,0,0-.2109.3974v2.037a.76558.76558,0,0,0,.1304.4306.73378.73378,0,0,0,.2339.2191" style="fill:#3a3b3f;fill-rule:evenodd"/><path d="M5.3447,5.3459,3.8426,4.7735l-.0028-.0011v2.037a.28948.28948,0,0,0,.0476.1613.26836.26836,0,0,0,.1177.0946l1.5145.5766V5.5967a.28827.28827,0,0,0-.0467-.1516.2705.2705,0,0,0-.1282-.0992m.1846-.4425-.0071-.0029L5.5154,4.898,4.2775,4.4263l1.4006-.5377a.25529.25529,0,0,1,.174.0039l1.385.5358-1.233.4697-.0068.0025-.0071.0029-.0068.0028-.1381.0524a.26109.26109,0,0,1-.0856.0151.26762.26762,0,0,1-.093-.0182Zm.4705,2.7388V5.5967a.284.284,0,0,1,.0468-.1516.27.27,0,0,1,.1281-.0992L7.674,4.7747l.0056,2.0347a.28064.28064,0,0,1-.0459.1593.27317.27317,0,0,1-.1193.0966Z" style="fill:#cc9800;fill-rule:evenodd"/></g></g></g></svg>