<svg xmlns="http://www.w3.org/2000/svg" xmlns:xlink="http://www.w3.org/1999/xlink" viewBox="0 0 7.6799 7.6799"><defs><clipPath id="clip-path"><rect y="-0.00015" width="7.6799" height="7.6802" style="fill:none"/></clipPath></defs><title>haukehirsch-01</title><g id="Page_42" data-name="Page 42"><g id="Page_1-2" data-name="Page 1"><g style="clip-path:url(#clip-path)"><path d="M3.83966,7.67975A3.83985,3.83985,0,1,1,7.6795,3.83991,3.84434,3.84434,0,0,1,3.83966,7.67975Zm0-7.19922A3.35938,3.35938,0,1,0,7.2,3.83991,3.36349,3.36349,0,0,0,3.83966.48053Z" style="fill:#0075c3"/><rect x="2.16" y="3.59985" width="3.3596" height="0.4802" style="fill:#727275"/><path d="M5.51983,4.32038H2.16a.24.24,0,0,1-.23975-.24024V3.59967A.24.24,0,0,1,2.16,3.35944H5.51983a.24.24,0,0,1,.23975.24023v.48047A.24.24,0,0,1,5.51983,4.32038ZM2.39971,3.83991h0Z" style="fill:#727275"/><rect x="3.6" y="2.15985" width="0.4796" height="3.3602" style="fill:#727275"/><path d="M3.6004,1.92h.479a.23975.23975,0,0,1,.23975.23975V5.51959a.24023.24023,0,0,1-.24023.24023h-.479a.23975.23975,0,0,1-.23975-.23975V2.16022A.24023.24023,0,0,1,3.6004,1.92Z" style="fill:#727275"/></g></g></g></svg>