<svg xmlns="http://www.w3.org/2000/svg" xmlns:xlink="http://www.w3.org/1999/xlink" viewBox="0 0 7.6799 7.6799"><defs><clipPath id="clip-path"><rect y="-0.00015" width="7.6799" height="7.6802" style="fill:none"/></clipPath></defs><title>haukehirsch-02</title><g id="Page_42" data-name="Page 42"><g id="Page_2-2" data-name="Page 2"><g style="clip-path:url(#clip-path)"><path d="M5.2804,3.35975H6.4797v.9604H5.2804Zm-4.0805,0H2.4004v.9604H1.1999Z" style="fill:#0075c3;fill-rule:evenodd"/><polygon points="6.001 2.4 7.68 3.84 6.001 5.28 6.001 2.4" style="fill:#0075c3;fill-rule:evenodd"/><polygon points="1.68 2.4 0.001 3.84 1.68 5.28 1.68 2.4" style="fill:#0075c3;fill-rule:evenodd"/><path d="M3.3611,2.4V1.20065h.9586V2.4Zm0,4.0805V5.28h.9586v1.2005Z" style="fill:#0075c3;fill-rule:evenodd"/><polygon points="2.4 1.679 3.84 0 5.28 1.679 2.4 1.679" style="fill:#0075c3;fill-rule:evenodd"/><polygon points="2.4 6.001 3.84 7.679 5.28 6.001 2.4 6.001" style="fill:#0075c3;fill-rule:evenodd"/><path d="M3.1201,2.87985H4.5607a.24023.24023,0,0,1,.2398.2398v1.4406a.24023.24023,0,0,1-.2398.2398H3.1201a.24023.24023,0,0,1-.2398-.2398V3.11965a.24023.24023,0,0,1,.2398-.2398" style="fill:#727275;fill-rule:evenodd"/></g></g></g></svg>