<svg xmlns="http://www.w3.org/2000/svg" xmlns:xlink="http://www.w3.org/1999/xlink" viewBox="0 0 7.6799 7.6799"><defs><clipPath id="clip-path"><rect x="-0.0003" width="7.6799" height="7.6802" style="fill:none"/></clipPath></defs><title>haukehirsch-10</title><g id="Page_10" data-name="Page 10"><g id="Page_10-2" data-name="Page 10"><g style="clip-path:url(#clip-path)"><path d="M2.8794,3.3596H1.6801V4.559H2.8794Zm1.6796,0H3.3596V4.559H4.559ZM2.8794,1.6801H1.6801V2.8794H2.8794Zm1.6796,0H3.3596V2.8794H4.559ZM.4796,6.2393H3.1714l.0354-.144a.46162.46162,0,0,1,.1267-.2242l.832-.832H3.3596v.4808a.2401.2401,0,0,1-.4802,0V5.0391H1.6801v.4808a.2401.2401,0,0,1-.4802,0V5.0391H.7189a.24005.24005,0,1,1,0-.4801h.481V3.3596H.72a.2401.2401,0,0,1,0-.4802h.4799V1.6801H.7189a.2401.2401,0,0,1,0-.4802h.481V.7194a.2401.2401,0,1,1,.4802,0v.4805H2.8794V.7194a.2401.2401,0,1,1,.4802,0v.4805H4.559V.7194a.24005.24005,0,1,1,.4801,0v.4805h.4808a.2401.2401,0,0,1,0,.4802H5.0391V2.8794h.4797a.2401.2401,0,0,1,0,.4802H5.0391v.8059L6.0423,3.1623a.98567.98567,0,0,1,.1968-.1522V.4799A.48107.48107,0,0,0,5.7591,0H.4796A.481.481,0,0,0-.0003.4799V5.7594A.481.481,0,0,0,.4796,6.2393Z" style="fill:#3a3b3f;fill-rule:evenodd"/><path d="M3.6729,6.2104,3.3772,7.4081a.18859.18859,0,0,0,.2548.2548l1.1977-.2957C6.0163,6.1804,6.3519,5.8453,7.5385,4.6585a.362.362,0,0,0,.0728-.4936l-.7362-.7361a.3619.3619,0,0,0-.4935.0728Z" style="fill:#0075c3;fill-rule:evenodd"/></g></g></g></svg>