<svg xmlns="http://www.w3.org/2000/svg" xmlns:xlink="http://www.w3.org/1999/xlink" viewBox="0 0 7.6799 7.6799"><defs><clipPath id="clip-path"><rect x="0.0003" y="-0.00015" width="7.6799" height="7.6802" style="fill:none"/></clipPath></defs><title>haukehirsch-28</title><g id="Page_42" data-name="Page 42"><g id="Page_28-2" data-name="Page 28"><g style="clip-path:url(#clip-path)"><path d="M4.8682,1.79645a4.55782,4.55782,0,0,0-1.0281-.1168A4.4526,4.4526,0,0,0,0,3.83965,4.38635,4.38635,0,0,0,1.3862,5.278l.8716-.8714A1.68131,1.68131,0,0,1,4.407,2.25765ZM3.8401,6a4.45338,4.45338,0,0,0,3.8401-2.1603,4.38674,4.38674,0,0,0-1.385-1.4377l-.8725.8725a1.6809,1.6809,0,0,1-2.1481,2.1481l-.4609.4609A4.54916,4.54916,0,0,0,3.8401,6Z" style="fill:#3a3b3f;fill-rule:evenodd"/><path d="M3.7831,2.88125a.9605.9605,0,0,0-.9017.9017Zm.1154,1.9174a.96113.96113,0,0,0,.9003-.9003Z" style="fill:#3a3b3f;fill-rule:evenodd"/><path d="M.72109,7.20026A.24024.24024,0,0,1,.55117,6.7901L6.79141.54987a.2403.2403,0,1,1,.33984.33984L.891,7.13A.23959.23959,0,0,1,.72109,7.20026Z" style="fill:#0075c3"/></g></g></g></svg>