<svg xmlns="http://www.w3.org/2000/svg" xmlns:xlink="http://www.w3.org/1999/xlink" viewBox="0 0 7.6799 7.6799"><defs><clipPath id="clip-path"><rect x="0.0003" y="-0.00015" width="7.6799" height="7.6802" style="fill:none"/></clipPath></defs><title>haukehirsch-32</title><g id="Page_42" data-name="Page 42"><g id="Page_32-2" data-name="Page 32"><g style="clip-path:url(#clip-path)"><path d="M2.16067,6.95905H.96145a.24006.24006,0,0,1-.24023-.24024V5.51959a.24006.24006,0,0,1,.24023-.24023H2.16067a.24006.24006,0,0,1,.24023.24023V6.71881A.24006.24006,0,0,1,2.16067,6.95905Zm-.959-.48047h.71875V5.75983H1.20169Z" style="fill:#727275"/><path d="M6.96047,1.918H3.60012a.24024.24024,0,0,1,0-.48047H6.96047a.24024.24024,0,1,1,0,.48047Z" style="fill:#727275"/><path d="M7.32083,4.07916h-6.96a.24023.24023,0,1,1,0-.48046h6.96a.24023.24023,0,0,1,0,.48046Z" style="fill:#068f55"/><path d="M6.96047,6.47956H3.35989a.24024.24024,0,1,1,0-.48047H6.96047a.24024.24024,0,1,1,0,.48047Z" style="fill:#727275"/><path d="M1.31106,2.63971h0a.35757.35757,0,0,1-.25488-.10644L.5679,2.044a.35977.35977,0,1,1,.50976-.50781l.2334.23339.834-.834a.36046.36046,0,0,1,.50977.50977L1.56594,2.53424A.36067.36067,0,0,1,1.31106,2.63971Z" style="fill:#0075c3"/></g></g></g></svg>