<svg xmlns="http://www.w3.org/2000/svg" xmlns:xlink="http://www.w3.org/1999/xlink" viewBox="0 0 7.68 7.68"><defs><style>.a{fill:none;}.b{clip-path:url(#a);}.c{fill:#727275;}.d{fill:#1875bb;fill-rule:evenodd;}.e{fill:#008f55;}</style><clipPath id="a"><rect class="a" width="7.68" height="7.68"/></clipPath></defs><title>haukehirsch-09</title><g class="b"><path class="c" d="M5.28,5.28a.24.24,0,0,1-.23-.18l-.76-3L3.83,3.44a.25.25,0,0,1-.21.16.21.21,0,0,1-.23-.13L2.84,2.38,2.35,3a.21.21,0,0,1-.2.09A.23.23,0,0,1,2,3L1.27,1.8.47,4.39a.24.24,0,0,1-.3.16A.24.24,0,0,1,0,4.25L1,1.13A.25.25,0,0,1,1.17,1a.26.26,0,0,1,.24.12l.78,1.37.5-.67a.25.25,0,0,1,.21-.1.24.24,0,0,1,.19.13l.47.92.53-1.61A.25.25,0,0,1,4.33,1a.23.23,0,0,1,.22.18L5.26,4,6,.43A.27.27,0,0,1,6.23.24.24.24,0,0,1,6.47.4L7,1.88l.25-.76A.25.25,0,0,1,7.52,1a.25.25,0,0,1,.15.31L7.19,2.72a.26.26,0,0,1-.46,0L6.29,1.4,5.51,5.09a.23.23,0,0,1-.23.19Z"/><path class="d" d="M4.56,6.72H6a.24.24,0,0,0,.24-.24V6A.24.24,0,0,0,6,5.76H4.56A.24.24,0,0,0,4.32,6v.48a.24.24,0,0,0,.24.24"/><path class="e" d="M3.36,6.48H1A.24.24,0,0,1,1,6h2.4a.24.24,0,0,1,0,.48Z"/><path class="e" d="M2.64,7.2a.23.23,0,0,1-.17-.07.25.25,0,0,1,0-.34l.72-.72a.24.24,0,0,1,.34.34l-.72.72A.23.23,0,0,1,2.64,7.2Z"/><path class="e" d="M3.36,6.48a.23.23,0,0,1-.17-.07l-.72-.72a.24.24,0,1,1,.34-.34l.72.72a.25.25,0,0,1,0,.34A.23.23,0,0,1,3.36,6.48Z"/></g></svg>