<svg xmlns="http://www.w3.org/2000/svg" xmlns:xlink="http://www.w3.org/1999/xlink" viewBox="0 0 7.68 7.68"><defs><style>.a{fill:none;}.b{clip-path:url(#a);}.c,.h{fill:#727275;}.d{fill:#008f55;}.e{fill:#1875bb;}.f{fill:#eb992c;}.g{fill:#bf3b2b;}.g,.h{fill-rule:evenodd;}</style><clipPath id="a"><rect class="a" width="7.68" height="7.68"/></clipPath></defs><title>haukehirsch-05</title><g class="b"><path class="c" d="M2,.48h5.4a.24.24,0,0,1,.24.24V2.29a1,1,0,0,0-.48-.13V1H2A1.56,1.56,0,0,0,2,4.08H3.36v.48H2A2,2,0,0,1,2,.48"/><rect class="d" x="5.76" y="1.44" width="0.96" height="0.72"/><rect class="e" x="4.32" y="1.44" width="0.96" height="0.72"/><rect class="f" x="1.44" y="1.44" width="0.96" height="2.16"/><path class="g" d="M2.88,1.44h1v.85a1,1,0,0,0-.48.83V3.6H2.88Z"/><path class="h" d="M4.8,4.08a.24.24,0,0,1,0-.48H6.74a.24.24,0,0,1,0,.48Zm0,1.2a.24.24,0,0,1,0-.48H6.73a.24.24,0,0,1,0,.48Zm0,1.2A.24.24,0,1,1,4.8,6H6.24a.24.24,0,0,1,0,.48ZM7.2,2.64H4.32a.49.49,0,0,0-.48.48V7a.49.49,0,0,0,.48.48h2.4l1-1V3.12A.49.49,0,0,0,7.2,2.64Z"/></g></svg>