<svg xmlns="http://www.w3.org/2000/svg" xmlns:xlink="http://www.w3.org/1999/xlink" viewBox="0 0 7.6799 7.6799"><defs><clipPath id="clip-path"><rect y="-0.00015" width="7.6799" height="7.6802" style="fill:none"/></clipPath></defs><title>haukehirsch-23</title><g id="Page_42" data-name="Page 42"><g id="Page_23-2" data-name="Page 23"><g style="clip-path:url(#clip-path)"><path d="M1.43994,4.08014A.23959.23959,0,0,1,1.27,4.00983L.5913,3.33112a.24049.24049,0,0,1,0-.33985L1.27,2.31256a.24031.24031,0,1,1,.33985.33985l-.50977.50879L1.60986,3.67a.24023.24023,0,0,1-.16992.41015Z" style="fill:#727275"/><path d="M6.96044,3.35944h-6a.24024.24024,0,0,1,0-.48047h6a.24024.24024,0,1,1,0,.48047Z" style="fill:#727275"/><path d="M4.3197,3.83965v.6083a.96.96,0,0,0-.9603,0v-.6083ZM3.3594.47915a.48015.48015,0,1,1,.9603,0v1.9205H3.3594Z" style="fill:#0075c3"/><path d="M.7177,7.61565a.47967.47967,0,1,1-.4762-.8328l2.6379-1.5074v.0039a.95884.95884,0,0,0,.476.8292Z" style="fill:#c0392b"/><path d="M7.4376,6.78285a.47969.47969,0,1,1-.4763.8328L4.3237,6.10855a.95875.95875,0,0,0,.4759-.8292v-.0039Z" style="fill:#068f55"/><path d="M3.8395,4.79915a.4802.4802,0,1,1-.4801.4802.48.48,0,0,1,.4801-.4802" style="fill:#727275;fill-rule:evenodd"/></g></g></g></svg>