<svg xmlns="http://www.w3.org/2000/svg" xmlns:xlink="http://www.w3.org/1999/xlink" viewBox="0 0 7.6799 7.6799"><defs><style>.a{fill:none;}.b{clip-path:url(#a);}.c{fill:#1875bb;}.d{fill:#737375;}</style><clipPath id="a"><rect class="a" x="0.0003" y="-0.00015" width="7.6799" height="7.6802"/></clipPath></defs><title>haukehirsch-4</title><g class="b"><path class="c" d="M3.83823,7.68a.48064.48064,0,0,1-.48-.48047V.4788a.48.48,0,1,1,.96,0V7.1995A.48065.48065,0,0,1,3.83823,7.68Z"/><path class="d" d="M5.76108,4.80009a.23848.23848,0,0,1-.16944-.07031l-.72021-.71973a.24048.24048,0,0,1,0-.33984l.71973-.71973A.24.24,0,1,1,5.93,3.29032l-.5498.54981.55029.5498a.24.24,0,0,1-.16943.41016Z"/><path class="d" d="M7.201,4.07939H5.23959a.24024.24024,0,0,1,0-.48047H7.201a.24024.24024,0,0,1,0,.48047Z"/><path class="d" d="M2.43832,4.07939H.4769a.24024.24024,0,0,1,0-.48047H2.43832a.24024.24024,0,0,1,0,.48047Z"/><path class="d" d="M1.92075,4.80009a.24.24,0,0,1-.16944-.41016l.5503-.5498L1.7518,3.29032a.24.24,0,1,1,.33887-.33984l.71972.71973a.24046.24046,0,0,1,0,.33984l-.72021.71973A.23847.23847,0,0,1,1.92075,4.80009Z"/></g></svg>