<svg xmlns="http://www.w3.org/2000/svg" xmlns:xlink="http://www.w3.org/1999/xlink" viewBox="0 0 7.68 7.68"><defs><style>.a{fill:none;}.b{clip-path:url(#a);}.c{fill:#727275;}.d{fill:#008f55;fill-rule:evenodd;}</style><clipPath id="a"><rect class="a" width="7.68" height="7.68"/></clipPath></defs><title>haukehirsch-01</title><g class="b"><path class="c" d="M3.22,5.14,1.06,7.3a.48.48,0,0,1-.68-.68L2.54,4.46a1.4,1.4,0,0,0,.68.68m1.92-.68L7.3,6.62a.48.48,0,0,1-.68.68L4.46,5.14A1.4,1.4,0,0,0,5.14,4.46ZM4.46,2.54,6.62.38a.48.48,0,1,1,.68.68L5.14,3.22A1.4,1.4,0,0,0,4.46,2.54ZM.38,1.06A.48.48,0,0,1,1.06.38L3.22,2.54a1.4,1.4,0,0,0-.68.68Z"/><path class="d" d="M3.84,2.88a1,1,0,1,1-1,1,1,1,0,0,1,1-1"/></g></svg>