<svg xmlns="http://www.w3.org/2000/svg" xmlns:xlink="http://www.w3.org/1999/xlink" viewBox="0 0 7.6799 7.6799"><defs><style>.a{fill:none;}.b{clip-path:url(#a);}.c{fill:#727275;}.d{fill:#008f55;}.d,.e{fill-rule:evenodd;}.e{fill:#1875bb;}</style><clipPath id="a"><rect class="a" y="-0.00015" width="7.6799" height="7.6802"/></clipPath></defs><title>haukehirsch-1</title><g class="b"><path class="c" d="M1.5791,5.42055l3.8401-3.8401a1.44514,1.44514,0,0,0,.6786.6786L2.2577,6.09915a1.4447,1.4447,0,0,0-.6786-.6786"/><path class="d" d="M.9586,7.68005A.9601.9601,0,1,1,1.9187,6.72a.96035.96035,0,0,1-.9601.9601"/><path class="e" d="M6.7186-.00015A.9601.9601,0,1,1,5.7585.96a.96029.96029,0,0,1,.9601-.9601"/><path class="c" d="M6.25708,6.4976a.23844.23844,0,0,1-.16943-.07032L4.87037,5.21049a.24.24,0,1,1,.33886-.33985l1.21729,1.2168a.24.24,0,0,1-.16944.41016Z"/><path class="c" d="M5.0398,6.29838a.24.24,0,0,1-.23975-.24024V5.04056a.23975.23975,0,1,1,.4795,0V6.05814A.24.24,0,0,1,5.0398,6.29838Z"/><path class="c" d="M6.05787,5.2808H5.0398a.24024.24024,0,0,1,0-.48047H6.05787a.24024.24024,0,0,1,0,.48047Z"/><path class="c" d="M2.63843,2.87943A.23845.23845,0,0,1,2.469,2.80912L1.25171,1.59232a.24.24,0,1,1,.33887-.33984L2.80787,2.46927a.24.24,0,0,1-.16944.41016Z"/><path class="c" d="M2.63843,2.87943a.24.24,0,0,1-.23974-.24023V1.62064a.23975.23975,0,1,1,.47949,0V2.6392A.24.24,0,0,1,2.63843,2.87943Z"/><path class="c" d="M2.63843,2.87943H1.62037a.24024.24024,0,0,1,0-.48047H2.63843a.24024.24024,0,0,1,0,.48047Z"/></g></svg>