<svg xmlns="http://www.w3.org/2000/svg" xmlns:xlink="http://www.w3.org/1999/xlink" viewBox="0 0 7.6799 7.6799"><defs><style>.a{fill:none;}.b{clip-path:url(#a);}.c,.e{fill:#727275;}.d{fill:#eb992c;}.d,.e{fill-rule:evenodd;}</style><clipPath id="a"><rect class="a" y="-0.00015" width="7.6799" height="7.6802"/></clipPath></defs><title>haukehirsch-3</title><g class="b"><path class="c" d="M5.2798.47975v.4799h.9598V.47975ZM3.3596.95965V.47975H.4799v.4799Zm1.44,0V.47975H3.8398v.4799ZM.4799,5.75955h2.16v.4802H.2398a.24036.24036,0,0,1-.2401-.2401v-5.76a.24036.24036,0,0,1,.2401-.2401H6.4797a.24036.24036,0,0,1,.2401.2401V1.68H6.2396v-.2401H3.8398V1.68H3.3596v-.2401H.4799Z"/><path class="d" d="M4.32,2.15985v-.0065a.24031.24031,0,0,1,.2398-.2336h.9604a.24055.24055,0,0,1,.2395.2276v.4924H4.32Zm-.2395,4.5598H3.3596a.2403.2403,0,0,1-.2398-.2401V2.39965a.24023.24023,0,0,1,.2398-.2398h.4802v.72a.24036.24036,0,0,0,.2401.2401H5.9998a.24036.24036,0,0,0,.2401-.2401v-.72h.4802a.24023.24023,0,0,1,.2398.2398v.9606h-2.16a.72034.72034,0,0,0-.7194.7198Z"/><path class="e" d="M5.2801,6.00105a.2401.2401,0,0,1,0-.4802H6.9599a.2401.2401,0,0,1,0,.4802Zm0-.9618a.2401.2401,0,0,1,0-.4802H6.9599a.2401.2401,0,0,1,0,.4802Zm0,1.9225a.2401.2401,0,0,1,0-.4802H6.9599a.2401.2401,0,1,1,0,.4802Zm2.16.718H4.7999A.24017.24017,0,0,1,4.5604,7.44V4.08005a.24017.24017,0,0,1,.2395-.2398H7.4401a.24.24,0,0,1,.2398.2398V7.44A.24.24,0,0,1,7.4401,7.67975Z"/></g></svg>