<svg xmlns="http://www.w3.org/2000/svg" xmlns:xlink="http://www.w3.org/1999/xlink" viewBox="0 0 7.6799 7.6799"><defs><clipPath id="clip-path"><rect y="-0.00015" width="7.6799" height="7.6802" style="fill:none"/></clipPath></defs><title>haukehirsch-06</title><g id="Page_42" data-name="Page 42"><g id="Page_6-2" data-name="Page 6"><g style="clip-path:url(#clip-path)"><path d="M5.2818,6.47955h.0876a.37075.37075,0,0,0,.0663-.0059.739.739,0,0,1-.1539-.0363Zm0-3.2581v.8994a.71691.71691,0,0,1,.4785-.0006v-.6196Zm-4.8013.2792v2.5665a.40326.40326,0,0,0,.3912.4124H2.8812v-.0434a.71123.71123,0,0,1-.2418.042.72091.72091,0,0,1-.72-.72v-.9581a.7198.7198,0,0,1,.9618-.6781v-.0425a.72.72,0,0,1,.9606-.6786v-.2823a.71831.71831,0,0,1,.2112-.5088.73772.73772,0,0,1,.0723-.0633l-1.0049-.5864Z" style="fill:#727275;fill-rule:evenodd"/><path d="M3.1204-.00045.4048,1.59805a.77009.77009,0,0,0-.4042.6726v.6968a.148.148,0,0,0,.0694.1278.13259.13259,0,0,0,.142.0065l2.9084-1.6973,2.6597,1.5519a.72366.72366,0,0,1,.4604-.5162v-.1695a.76986.76986,0,0,0-.4042-.6726Z" style="fill:#727275;fill-rule:evenodd"/><path d="M4.56173,7.67975A.24.24,0,0,1,4.322,7.43952V3.11823a.23975.23975,0,1,1,.47949,0V7.43952A.24.24,0,0,1,4.56173,7.67975Z" style="fill:#0075c3"/><path d="M3.60128,6.71881a.24.24,0,0,1-.23974-.24023V4.07916a.23975.23975,0,1,1,.47949,0V6.47858A.24.24,0,0,1,3.60128,6.71881Z" style="fill:#0075c3"/><path d="M5.5212,5.99909a.24.24,0,0,1-.23974-.24024v-.959a.23975.23975,0,1,1,.47949,0v.959A.24.24,0,0,1,5.5212,5.99909Z" style="fill:#0075c3"/><path d="M7.44064,6.48053a.24.24,0,0,1-.23975-.24023V4.31842a.23975.23975,0,1,1,.47949,0V6.2403A.24.24,0,0,1,7.44064,6.48053Z" style="fill:#0075c3"/><path d="M6.48165,7.67975a.24.24,0,0,1-.23974-.24023V3.11823a.23975.23975,0,1,1,.47949,0V7.43952A.24.24,0,0,1,6.48165,7.67975Z" style="fill:#0075c3"/><path d="M2.63937,5.99811a.24.24,0,0,1-.23975-.24023v-.958a.23975.23975,0,1,1,.47949,0v.958A.24.24,0,0,1,2.63937,5.99811Z" style="fill:#0075c3"/></g></g></g></svg>