<svg xmlns="http://www.w3.org/2000/svg" xmlns:xlink="http://www.w3.org/1999/xlink" viewBox="0 0 7.6799 7.6799"><defs><clipPath id="clip-path"><rect width="7.6799" height="7.6802" style="fill:none"/></clipPath></defs><title>haukehirsch-05</title><g id="Page_5" data-name="Page 5"><g id="Page_5-2" data-name="Page 5"><g style="clip-path:url(#clip-path)"><path d="M4.8002,1.6798H2.8684A2.4826,2.4826,0,0,0,.2401,4.3081,2.87951,2.87951,0,0,0,2.0957,6.9908a.12335.12335,0,0,0,.1303-.2032,1.3383,1.3383,0,0,1-.3996-.9533V5.834c0-.7384.5264-1.7541,1.2639-1.7541H4.8002Z" style="fill:#0075c3;fill-rule:evenodd"/><path d="M7.306,2.603,4.6003.5468A.309.309,0,0,0,4.2591.5185a.33718.33718,0,0,0-.1789.305V4.936a.3373.3373,0,0,0,.1789.305.30922.30922,0,0,0,.3412-.0284L7.306,3.1564a.35123.35123,0,0,0,0-.5534" style="fill:#0075c3;fill-rule:evenodd"/></g></g></g></svg>