<svg xmlns="http://www.w3.org/2000/svg" xmlns:xlink="http://www.w3.org/1999/xlink" viewBox="0 0 7.68 7.68"><defs><style>.a{fill:none;}.b{clip-path:url(#a);}.c{fill:#727275;}.d{fill:#008f55;}.e,.h{fill:#1875bb;}.f{fill:#eb992c;}.g{fill:#bf3b2b;}.g,.h{fill-rule:evenodd;}</style><clipPath id="a"><rect class="a" width="7.68" height="7.68"/></clipPath></defs><title>haukehirsch-04</title><g class="b"><path class="c" d="M2,.48h5.4a.24.24,0,0,1,.24.24V2.53A1,1,0,0,0,7.2,2.4V1H2A1.56,1.56,0,0,0,2,4.08h.84v.48H2A2,2,0,0,1,2,.48"/><rect class="d" x="5.76" y="1.44" width="0.96" height="0.96"/><rect class="e" x="4.32" y="1.44" width="0.96" height="0.96"/><rect class="f" x="1.44" y="1.44" width="0.96" height="2.16"/><path class="g" d="M2.88,1.44h1v1a1,1,0,0,0-1,1V3.6h0Z"/><path class="h" d="M7.2,2.88H7V3.6a.48.48,0,0,1-.48.48H4.56A.53.53,0,0,1,4.24,4l0,0a.48.48,0,0,1-.14-.34V2.88H3.84a.49.49,0,0,0-.48.48V6.72a.49.49,0,0,0,.48.48h.48V6.48A.48.48,0,0,1,4.8,6H6.24a.48.48,0,0,1,.48.48V7.2h0l1-1V3.36a.49.49,0,0,0-.48-.48"/><rect class="c" x="4.56" y="2.88" width="1.92" height="0.72"/><rect class="c" x="4.8" y="6.48" width="1.44" height="0.72"/></g></svg>