<svg xmlns="http://www.w3.org/2000/svg" xmlns:xlink="http://www.w3.org/1999/xlink" viewBox="0 0 7.6799 7.6799"><defs><style>.a{fill:none;}.b{clip-path:url(#a);}.c{fill:#eb992c;fill-rule:evenodd;}.d{fill:#737375;}</style><clipPath id="a"><rect class="a" y="-0.00015" width="7.6799" height="7.6802"/></clipPath></defs><title>haukehirsch-3</title><g class="b"><path class="c" d="M3.3151,3.16445l-2.1064-.8028-.0091.0349v2.7938a.46752.46752,0,0,0,.0777.2602.43051.43051,0,0,0,.1964.1565L3.6,6.41715V3.57605a.45351.45351,0,0,0-.0765-.2495.4384.4384,0,0,0-.2084-.1621"/><path class="c" d="M3.8401,2.95635a.9188.9188,0,0,0-.3543-.2398L1.6393,2.013l2.048-.7855a.42735.42735,0,0,1,.1528-.0295.42112.42112,0,0,1,.1517.0286l2.0412.7895-1.8386.7004a.9203.9203,0,0,0-.3543.2398"/><path class="c" d="M4.0802,3.57605V6.417l2.126-.8099a.44079.44079,0,0,0,.1987-.159.45334.45334,0,0,0,.0754-.2577l-.0079-2.696a.473.473,0,0,0-.0176-.1262l-2.0897.7963a.4384.4384,0,0,0-.2084.1621.45351.45351,0,0,0-.0765.2495"/><path class="d" d="M4.08014.47978h-.48a.24024.24024,0,0,1,0-.48047h.48a.24024.24024,0,0,1,0,.48047Z"/><path class="d" d="M2.4.47978H1.92a.24024.24024,0,0,1,0-.48047H2.4a.24024.24024,0,0,1,0,.48047Z"/><path class="d" d="M.71979.47978H.2403a.24024.24024,0,0,1,0-.48047H.71979a.24024.24024,0,0,1,0,.48047Z"/><path class="d" d="M7.44.47978H6.96a.24024.24024,0,0,1,0-.48047h.48a.24024.24024,0,0,1,0,.48047Z"/><path class="d" d="M5.7608.47978h-.48a.24024.24024,0,0,1,0-.48047h.48a.24024.24024,0,0,1,0,.48047Z"/><path class="d" d="M.2403,4.31962a.24.24,0,0,1-.23975-.24023v-.4795a.23975.23975,0,1,1,.47949,0v.4795A.24.24,0,0,1,.2403,4.31962Z"/><path class="d" d="M.2403,6.00028a.24.24,0,0,1-.23975-.24023V5.27958a.23975.23975,0,1,1,.47949,0v.48047A.24.24,0,0,1,.2403,6.00028Z"/><path class="d" d="M.2403,7.68a.24.24,0,0,1-.23975-.24023V6.96025a.23975.23975,0,1,1,.47949,0v.47949A.24.24,0,0,1,.2403,7.68Z"/><path class="d" d="M.2403.96025A.24.24,0,0,1,.00055.72V.23954a.23975.23975,0,1,1,.47949,0V.72A.24.24,0,0,1,.2403.96025Z"/><path class="d" d="M.2403,2.63993A.24.24,0,0,1,.00055,2.3997V1.91923a.23975.23975,0,1,1,.47949,0V2.3997A.24.24,0,0,1,.2403,2.63993Z"/><path class="d" d="M4.08014,7.68h-.48a.24024.24024,0,0,1,0-.48047h.48a.24024.24024,0,0,1,0,.48047Z"/><path class="d" d="M5.75983,7.68h-.4795a.24024.24024,0,0,1,0-.48047h.4795a.24024.24024,0,0,1,0,.48047Z"/><path class="d" d="M7.44,7.68H6.96a.24024.24024,0,0,1,0-.48047h.48a.24024.24024,0,0,1,0,.48047Z"/><path class="d" d="M.71979,7.68H.2403a.24024.24024,0,0,1,0-.48047H.71979a.24024.24024,0,0,1,0,.48047Z"/><path class="d" d="M2.39948,7.68h-.48a.24024.24024,0,0,1,0-.48047h.48a.24024.24024,0,0,1,0,.48047Z"/><path class="d" d="M7.44,4.3206a.24.24,0,0,1-.23974-.24024V3.59989a.23975.23975,0,1,1,.47949,0v.48047A.24.24,0,0,1,7.44,4.3206Z"/><path class="d" d="M7.44,2.63993a.24.24,0,0,1-.23974-.24023V1.92021a.23975.23975,0,1,1,.47949,0V2.3997A.24.24,0,0,1,7.44,2.63993Z"/><path class="d" d="M7.44.96025A.24.24,0,0,1,7.20026.72V.23954a.23975.23975,0,1,1,.47949,0V.72A.24.24,0,0,1,7.44.96025Z"/><path class="d" d="M7.44,7.68a.24.24,0,0,1-.23974-.24023V6.96025a.23975.23975,0,1,1,.47949,0v.47949A.24.24,0,0,1,7.44,7.68Z"/><path class="d" d="M7.44,6.00028a.24.24,0,0,1-.23974-.24023V5.28056a.23975.23975,0,1,1,.47949,0v.47949A.24.24,0,0,1,7.44,6.00028Z"/></g></svg>