<svg xmlns="http://www.w3.org/2000/svg" xmlns:xlink="http://www.w3.org/1999/xlink" viewBox="0 0 7.6799 7.6799"><defs><clipPath id="clip-path"><rect x="0.0003" y="-0.00015" width="7.6799" height="7.6802" style="fill:none"/></clipPath></defs><title>haukehirsch-31</title><g id="Page_42" data-name="Page 42"><g id="Page_31-2" data-name="Page 31"><g style="clip-path:url(#clip-path)"><path d="M1.31225,2.39948A.36016.36016,0,0,1,1.05737,2.294L.56811,1.80475A.36046.36046,0,0,1,1.07788,1.295l.23437.23535.834-.835a.36045.36045,0,0,1,.50976.50976L1.56713,2.294A.36016.36016,0,0,1,1.31225,2.39948Z" style="fill:#0075c3"/><path d="M6.84252,1.6778H3.60034a.24024.24024,0,1,1,0-.48047H6.84252a.24024.24024,0,1,1,0,.48047Z" style="fill:#3a3b3f"/><path d="M6.84252,4.07916H3.60034a.24023.24023,0,1,1,0-.48046H6.84252a.24023.24023,0,1,1,0,.48046Z" style="fill:#3a3b3f"/><path d="M6.84252,6.47858H3.60034a.24024.24024,0,1,1,0-.48047H6.84252a.24024.24024,0,1,1,0,.48047Z" style="fill:#3a3b3f"/><path d="M1.31225,4.79987a.36016.36016,0,0,1-.25488-.10547L.56811,4.20514a.36046.36046,0,0,1,.50977-.50976l.23437.23535.834-.835a.36045.36045,0,0,1,.50976.50976L1.56713,4.6944A.36016.36016,0,0,1,1.31225,4.79987Z" style="fill:#0075c3"/><path d="M1.31225,7.19928a.35793.35793,0,0,1-.25391-.10547L.56909,6.60553a.35977.35977,0,1,1,.50781-.50976l.23535.23437.834-.835A.36046.36046,0,0,1,2.656,6.005L1.56713,7.09381A.36012.36012,0,0,1,1.31225,7.19928Z" style="fill:#0075c3"/></g></g></g></svg>