<svg xmlns="http://www.w3.org/2000/svg" xmlns:xlink="http://www.w3.org/1999/xlink" viewBox="0 0 7.6799 7.6799"><defs><clipPath id="clip-path"><rect y="-0.00015" width="7.6799" height="7.6802" style="fill:none"/></clipPath></defs><title>haukehirsch-34</title><g id="Page_42" data-name="Page 42"><g id="Page_34-2" data-name="Page 34"><g style="clip-path:url(#clip-path)"><path d="M3.7752,2.29135l1.425.9502a.70657.70657,0,0,1,.237.2585l.0096.0201a.72622.72622,0,0,1-.0102.6588.70656.70656,0,0,1-.2361.2594l-1.4403.9595a.70861.70861,0,0,1-.7382.036.71047.71047,0,0,1-.3809-.6338V2.87925a.71856.71856,0,0,1,1.1191-.5986Zm.8864-1.2481a2.91188,2.91188,0,0,1,.5751.2387L5.6863.939a.25889.25889,0,0,1,.3456,0l.7095.7095a.25889.25889,0,0,1,0,.3456l-.343.4495a2.91276,2.91276,0,0,1,.2387.5752l.5598.0757a.25807.25807,0,0,1,.2443.244V4.342a.25816.25816,0,0,1-.2443.2441l-.5598.0754a2.8892,2.8892,0,0,1-.2387.5754l.343.4496a.25875.25875,0,0,1,0,.3455l-.7095.7095a.259.259,0,0,1-.3456,0l-.4496-.343a2.89992,2.89992,0,0,1-.5751.2387l-.0757.5599a.25816.25816,0,0,1-.2441.2443H3.3384a.2584.2584,0,0,1-.2441-.2443l-.0754-.5599a2.87744,2.87744,0,0,1-.5754-.2387l-.4496.343a.25853.25853,0,0,1-.3455,0L.9391,6.032a.25843.25843,0,0,1,0-.3455l.3427-.4496a2.90819,2.90819,0,0,1-.2386-.5754l-.5599-.0754A.25816.25816,0,0,1,.239,4.342V3.33845a.25831.25831,0,0,1,.2443-.244l.5599-.0757a2.89526,2.89526,0,0,1,.2386-.5754l-.3427-.4493a.25823.25823,0,0,1,0-.3456L1.6484.939a.25876.25876,0,0,1,.3455,0l.4496.343a2.91451,2.91451,0,0,1,.5754-.2387l.0754-.5598a.25826.25826,0,0,1,.2441-.2444H4.3418a.25826.25826,0,0,1,.2441.2444Z" style="fill:#0075c3;fill-rule:evenodd"/><polygon points="3.361 2.879 4.801 3.84 3.361 4.8 3.361 2.879" style="fill:#3a3b3f;fill-rule:evenodd"/><path d="M3.36044,5.0401a.24333.24333,0,0,1-.11328-.02832.24033.24033,0,0,1-.127-.21191V2.879a.24033.24033,0,0,1,.127-.21191.23752.23752,0,0,1,.24609.01269l1.44043.96094a.23845.23845,0,0,1,0,.39844l-1.44043.96A.23414.23414,0,0,1,3.36044,5.0401Zm.24023-1.71289V4.35163l.76758-.51172Z" style="fill:#3a3b3f"/></g></g></g></svg>