<svg xmlns="http://www.w3.org/2000/svg" xmlns:xlink="http://www.w3.org/1999/xlink" viewBox="0 0 7.6799 7.6799"><defs><clipPath id="clip-path"><rect y="-0.00015" width="7.6799" height="7.6802" style="fill:none"/></clipPath></defs><title>haukehirsch-03</title><g id="Page_42" data-name="Page 42"><g id="Page_3-2" data-name="Page 3"><g style="clip-path:url(#clip-path)"><path d="M3.12.96A.24.24,0,0,1,2.88024.71979V.2403a.23975.23975,0,1,1,.4795,0V.71979A.24.24,0,0,1,3.12.96Z" style="fill:#0075c3"/><path d="M2.10192,1.3819a.23845.23845,0,0,1-.16943-.07031L1.59313.97272A.24.24,0,1,1,1.932.63288l.33936.33886a.24.24,0,0,1-.16944.41016Z" style="fill:#068f55"/><path d="M1.68005,2.40045h-.48a.24023.24023,0,0,1,0-.48046h.48a.24023.24023,0,0,1,0,.48046Z" style="fill:#0075c3"/><path d="M1.76257,3.75788a.24048.24048,0,0,1-.16992-.41016L1.932,3.00788a.24031.24031,0,0,1,.33985.33984l-.33936.33984A.23955.23955,0,0,1,1.76257,3.75788Z" style="fill:#068f55"/><path d="M5.03991,2.40045h-.48a.24023.24023,0,0,1,0-.48046h.48a.24023.24023,0,0,1,0,.48046Z" style="fill:#0075c3"/><path d="M4.13806,1.3819A.24.24,0,0,1,3.96862.97174L4.308.63288a.24.24,0,1,1,.33887.33984l-.33936.33887A.23847.23847,0,0,1,4.13806,1.3819Z" style="fill:#068f55"/><path d="M3.2389,1.91975h.0003a.36074.36074,0,0,1,.36.36v3.1201a.36074.36074,0,0,1-.36.36H3.2389a.36067.36067,0,0,1-.36-.36V2.27975a.36067.36067,0,0,1,.36-.36" style="fill:#727275;fill-rule:evenodd"/><path d="M3.9594,3.35975H3.9592a.36086.36086,0,0,0-.36.36v1.6801a.36086.36086,0,0,0,.36.36h.0002a.36086.36086,0,0,0,.36-.36V3.71975a.36086.36086,0,0,0-.36-.36" style="fill:#727275;fill-rule:evenodd"/><path d="M4.6794,3.59985h.0003a.36086.36086,0,0,1,.36.36v1.44a.36086.36086,0,0,1-.36.36H4.6794a.36093.36093,0,0,1-.36-.36v-1.44a.36093.36093,0,0,1,.36-.36" style="fill:#727275;fill-rule:evenodd"/><path d="M5.4,3.84H5.3997a.36086.36086,0,0,0-.36.36v1.1999a.36093.36093,0,0,0,.36.36H5.4a.36086.36086,0,0,0,.36-.36V4.2a.3608.3608,0,0,0-.36-.36" style="fill:#727275;fill-rule:evenodd"/><path d="M2.9404,5.27455a1.22076,1.22076,0,0,0-.7815-.4748c-.4184,0-.4799.2401-.4799.2401l1.2002,1.44h2.88V4.79975Z" style="fill:#727275;fill-rule:evenodd"/><path d="M4.0794,7.20015h.7197a.96286.96286,0,0,0,.9601-.9601v-.36A1.32386,1.32386,0,0,0,4.4385,4.56h-.239a1.32377,1.32377,0,0,0-1.3206,1.3201V6a1.20329,1.20329,0,0,0,1.2005,1.2002" style="fill:#727275;fill-rule:evenodd"/></g></g></g></svg>