<svg xmlns="http://www.w3.org/2000/svg" xmlns:xlink="http://www.w3.org/1999/xlink" viewBox="0 0 7.6799 7.6799"><defs><clipPath id="clip-path"><rect width="7.6799" height="7.6802" style="fill:none"/></clipPath></defs><title>haukehirsch-12</title><g id="Page_12" data-name="Page 12"><g id="Page_12-2" data-name="Page 12"><g style="clip-path:url(#clip-path)"><path d="M2.1169,4.8835a1.38211,1.38211,0,0,1,.2784-1.546l.828-.8283-.9734-.9737-.9678.9675A2.76722,2.76722,0,0,0,.9723,6.0282Z" style="fill:#c0392b;fill-rule:evenodd"/><path d="M.97226,6.26877l-.021-.001a.24345.24345,0,0,1-.17578-.10156,2.99317,2.99317,0,0,1,.3374-3.833l.96778-.96777a.23989.23989,0,0,1,.16943-.07031h0A.2419.2419,0,0,1,2.42,1.36545l.97315.97363a.24092.24092,0,0,1-.00049.33984l-.82813.82813a1.14333,1.14333,0,0,0-.22949,1.27637.24116.24116,0,0,1-.04834.26953L1.14218,6.19846A.2419.2419,0,0,1,.97226,6.26877ZM2.25009,1.87521l-.79834.79786a2.51328,2.51328,0,0,0-.43506,2.97167l.81983-.82031a1.627,1.627,0,0,1,.38916-1.65722l.6582-.65821Z" style="fill:#c0392b"/><path d="M1.6509,6.7068a2.7644,2.7644,0,0,0,3.526-.309L6.1444,5.43l-.9737-.9734-.8283.828a1.38546,1.38546,0,0,1-1.5472.2778Z" style="fill:#0075c3;fill-rule:evenodd"/><path d="M3.23007,7.44553a2.991,2.991,0,0,1-1.71631-.542.23751.23751,0,0,1-.102-.1748.244.244,0,0,1,.06934-.19141l1.144-1.14453a.2414.2414,0,0,1,.269-.04883,1.13963,1.13963,0,0,0,1.27881-.22949l.82813-.82812a.2393.2393,0,0,1,.33887,0L6.31406,5.26a.24048.24048,0,0,1,0,.33984l-.96778.96778A2.9852,2.9852,0,0,1,3.23007,7.44553ZM2.03476,6.66232a2.50931,2.50931,0,0,0,2.97217-.43457l.79834-.79785L5.1705,4.79514l-.65869.65918A1.62586,1.62586,0,0,1,2.8541,5.843Z" style="fill:#0075c3"/><path d="M3.8597,1.8726l.42-.4198L3.306.479,2.8862.8989ZM6.781,4.7937l.4199-.4198-.9738-.9737-.4198.42Z" style="fill:#727275;fill-rule:evenodd"/><path d="M6.78085,5.03439a.2376.2376,0,0,1-.16943-.07031l-.97363-.97363a.24049.24049,0,0,1,0-.33985l.41992-.41992a.2393.2393,0,0,1,.33887,0l.97363.97364a.24047.24047,0,0,1,0,.33984l-.41992.41992A.23761.23761,0,0,1,6.78085,5.03439ZM6.14658,3.82053l.63427.63476.08057-.081-.63428-.63477Zm-2.28711-1.708a.23959.23959,0,0,1-.16993-.07031L2.7164,1.06857A.24092.24092,0,0,1,2.71689.72873L3.13681.30881a.2393.2393,0,0,1,.33887,0l.97363.97363a.24048.24048,0,0,1,0,.33984l-.42041.41993A.23845.23845,0,0,1,3.85947,2.11252ZM3.22568.89865l.63379.63477.081-.08106L3.30624.8176Z" style="fill:#727275"/><path d="M5.27988,2.63986a.24012.24012,0,0,1-.07618-.46777l.71192-.23731-.44531-.44531A.24021.24021,0,0,1,5.56357,1.092L6.64365.73166a.24.24,0,0,1,.15234.45508l-.71191.2373.44482.44531a.24023.24023,0,0,1-.09326.39747l-1.07959.36035A.23292.23292,0,0,1,5.27988,2.63986Z" style="fill:#eb992f"/></g></g></g></svg>