<svg xmlns="http://www.w3.org/2000/svg" xmlns:xlink="http://www.w3.org/1999/xlink" viewBox="0 0 7.6799 7.6799"><defs><clipPath id="clip-path"><rect y="-0.0003" width="7.6799" height="7.6802" style="fill:none"/></clipPath></defs><title>haukehirsch-43</title><g id="Page_42" data-name="Page 42"><g id="Page_43" data-name="Page 43"><g style="clip-path:url(#clip-path)"><path d="M.4799,3.501V6.0675A.40335.40335,0,0,0,.8711,6.48H1.9826a.47744.47744,0,0,1,.2534-.2112L2.6456,6.12,2.236,5.9709a.47994.47994,0,0,1,0-.902l.4096-.1488L2.236,4.771a.47994.47994,0,0,1,0-.902l2.5594-.9309L3.1198,1.9604Z" style="fill:#727275;fill-rule:evenodd"/><path d="M3.1198,0,.4042,1.5984A.77037.77037,0,0,0,0,2.2711v.6968a.14811.14811,0,0,0,.0695.1278.13278.13278,0,0,0,.142.0065L3.1198,1.4048,6.0285,3.1022a.13342.13342,0,0,0,.142-.0065.14788.14788,0,0,0,.0694-.1278V2.2711a.77.77,0,0,0-.4042-.6727Z" style="fill:#727275;fill-rule:evenodd"/><path d="M2.4001,6.7198l.9476-.3447,1.5282.5559a.46166.46166,0,0,0,.3282,0l1.5282-.5559.9476.3447L5.04,7.6799Z" style="fill:#0075c3;fill-rule:evenodd"/><path d="M2.4001,5.5199l.9476-.3447,1.5282.5559a.46166.46166,0,0,0,.3282,0l1.5282-.5559.9476.3447L5.04,6.48Z" style="fill:#0075c3;fill-rule:evenodd"/><polygon points="2.4 4.32 5.04 3.36 7.68 4.32 5.04 5.28 2.4 4.32" style="fill:#727275;fill-rule:evenodd"/></g></g></g></svg>