<svg xmlns="http://www.w3.org/2000/svg" xmlns:xlink="http://www.w3.org/1999/xlink" viewBox="0 0 7.6799 7.6799"><defs><clipPath id="clip-path"><rect y="-0.00015" width="7.6799" height="7.6802" style="fill:none"/></clipPath></defs><title>haukehirsch-26</title><g id="Page_42" data-name="Page 42"><g id="Page_26-2" data-name="Page 26"><g style="clip-path:url(#clip-path)"><path d="M2.6402,2.61705v2.842L.5139,4.64865a.42793.42793,0,0,1-.1964-.1565.46481.46481,0,0,1-.0774-.2599V1.43845l.0088-.0346,2.1064.8025a.4384.4384,0,0,1,.2084.1621.45539.45539,0,0,1,.0765.2486" style="fill:#eb992f;fill-rule:evenodd"/><path d="M5.0723,1.05805l-1.838.7004-.2094.0797a.41057.41057,0,0,1-.2974-.0032l-.2015-.0765L.6803,1.05515,2.7275.26945A.42735.42735,0,0,1,2.8803.24a.42112.42112,0,0,1,.1517.0286Z" style="fill:#eb992f;fill-rule:evenodd"/><path d="M5.495,1.41005l-2.09.7963a.43669.43669,0,0,0-.2081.1613.45826.45826,0,0,0-.0765.2503v2.8409l.2733-.1041a2.401,2.401,0,0,1,2.1242-1.9831l-.0053-1.8354a.47125.47125,0,0,0-.0176-.1262" style="fill:#eb992f;fill-rule:evenodd"/><path d="M5.75961,7.68073a1.9209,1.9209,0,1,1,1.9209-1.9209A1.923,1.923,0,0,1,5.75961,7.68073Zm0-3.36133A1.44043,1.44043,0,1,0,7.2,5.75983,1.44163,1.44163,0,0,0,5.75961,4.3194Z" style="fill:#727275"/><path d="M5.7603,5.27965a.24.24,0,1,1,.2398-.2398A.23991.23991,0,0,1,5.7603,5.27965Z" style="fill:#727275;fill-rule:evenodd"/><path d="M5.76058,5.39948A.35987.35987,0,1,1,6.12,5.0401.36052.36052,0,0,1,5.76058,5.39948Zm0-.47949a.11963.11963,0,1,0,.11915.12011A.12.12,0,0,0,5.76058,4.92Z" style="fill:#727275"/><path d="M5.73715,6.90338a.24006.24006,0,0,1-.24024-.24023v-.8457a.24024.24024,0,1,1,.48047,0v.8457A.24006.24006,0,0,1,5.73715,6.90338Z" style="fill:#727275"/><path d="M5.99984,6.19049a.23717.23717,0,0,1-.14062-.0459l-.26367-.19043a.23988.23988,0,1,1,.28125-.38867l.26367.19043a.24017.24017,0,0,1-.14063.43457Z" style="fill:#727275"/><path d="M5.73715,6.96a.23719.23719,0,0,1-.14063-.04589l-.21679-.15625A.23988.23988,0,1,1,5.661,6.3692l.21679.15625A.24017.24017,0,0,1,5.73715,6.96Z" style="fill:#727275"/></g></g></g></svg>