<svg xmlns="http://www.w3.org/2000/svg" xmlns:xlink="http://www.w3.org/1999/xlink" viewBox="0 0 7.6799 7.6799"><defs><clipPath id="clip-path"><rect width="7.6799" height="7.6802" style="fill:none"/></clipPath></defs><title>haukehirsch-04</title><g id="Page_4" data-name="Page 4"><g id="Page_4-2" data-name="Page 4"><g style="clip-path:url(#clip-path)"><path d="M2.8797,1.6798H4.8115A2.4826,2.4826,0,0,1,7.4398,4.3081,2.87942,2.87942,0,0,1,5.5843,6.9908a.12339.12339,0,0,1-.1304-.2032,1.3383,1.3383,0,0,0,.3996-.9533V5.834c0-.7384-.5264-1.7541-1.2639-1.7541H2.8797Z" style="fill:#0075c3;fill-rule:evenodd"/><path d="M.3739,2.603,3.0796.5468A.30917.30917,0,0,1,3.4209.5185a.33728.33728,0,0,1,.1788.305V4.936a.33739.33739,0,0,1-.1788.305.30937.30937,0,0,1-.3413-.0284L.3739,3.1564a.35123.35123,0,0,1,0-.5534" style="fill:#0075c3;fill-rule:evenodd"/></g></g></g></svg>