<svg id="Ebene_1" data-name="Ebene 1" xmlns="http://www.w3.org/2000/svg" xmlns:xlink="http://www.w3.org/1999/xlink" viewBox="0 0 177.33 145.5"><defs><style>.cls-1,.cls-2,.cls-3{fill:none;}.cls-1{clip-rule:evenodd;}.cls-2{fill-rule:evenodd;}.cls-3{stroke:#000;stroke-linecap:round;stroke-linejoin:round;stroke-width:0.71px;}.cls-4{clip-path:url(#clip-path);}.cls-5{font-size:9.9px;font-family:ArialMT, Arial;}</style><clipPath id="clip-path"><polyline class="cls-1" points="-53.01 649.51 -53.01 -192.4 542.28 -192.4 542.28 649.51 -53.01 649.51"/></clipPath></defs><title>const3-print</title><path class="cls-3" d="M62.54,299.62l4-4M57.13,305l4-4M54,308.14l1.71-1.71m50.71-38.68,4-4M101,273.16l4-4m-9.42,9.42,4-4M90.2,284l4-4m-9.42,9.42,4-4m-9.42,9.42,4-4M74,300.22l4-4m-9.42,9.42,4-4M63.14,311l4-4m-9.27,9.27,3.86-3.86M107,279.17l3.67-3.67m-9.09,9.09,4-4M96.21,290l4-4m-9.42,9.42,4-4m-9.42,9.42,4-4M80,306.23l4-4m-9.42,9.42,4-4m-8.67,8.67L73.16,313m34.48-22.45,3.07-3.07M102.23,296l4-4m-9.42,9.42,4-4m-9.42,9.42,4-4M86,312.25l4-4m-8.07,8.07,2.66-2.66M108.24,302l2.47-2.47m-7.88,7.88,4-4m-9.42,9.42,4-4M94,316.31,96,314.25m12.83-.8,1.87-1.87M106,316.31l1.46-1.46M54,181.86l7.29-7.29M54,193.89l19.31-19.31M54,205.92l31.34-31.34M54,217.94l43.37-43.37M54,230l55.39-55.39M54,242l56.69-56.69M54,254l56.69-56.69M54,266l56.69-56.69M54,278.07l56.69-56.69M54,290.1l56.69-56.69M54,302.13l56.69-56.69M54,314.15l56.69-56.69M63.89,316.31l46.82-46.82M75.92,316.31l34.79-34.79M87.94,316.31l22.77-22.77M100,316.31l10.74-10.74m242-452.5.71-.71"/><path class="cls-3" d="M161.3,39.44H167m-13.32,0h5.67m-13.32,0h5.67m-13.32,0H144m-13.32,0h5.67m-13.32,0h5.67m-13.32,0H121m-13.32,0h5.67m-13.32,0h5.67m-13.32,0h5.67m-13.32,0h5.67m-13.32,0h5.67m-13.32,0h5.67m-13.32,0h5.67m-13.32,0h5.67m-13.32,0h5.67m-13.32,0h5.67m-13.32,0h5.67m-10.09,0H29.2m-2.44,70.87H168.5M26.76,96.13H168.5M26.76,39.44H168.5"/><rect x="26.51" y="39.19" width="0.5" height="0.5" transform="translate(-20.05 30.48) rotate(-45)"/><rect x="168.25" y="39.19" width="0.5" height="0.5" transform="translate(21.53 130.8) rotate(-45.04)"/><path class="cls-3" d="M26.76,14.26V11.09m0,10.82V16.24m0,13.32V23.89m0,13.32V31.55m0,13.32V39.2m0,13.32V46.85m0,13.32V54.51m0,13.32V62.16m0,13.32V69.81m0,13.32V77.47m0,13.32V85.12m0,13.32V92.78m0,13.32v-5.67m0,13.32v-5.67m0,13.32v-5.67m0,13.32v-5.67m0,13.32V131"/><rect x="26.51" y="138.4" width="0.5" height="0.5" transform="translate(-90.2 59.54) rotate(-45)"/><rect x="26.51" y="10.84" width="0.5" height="0.5" transform="translate(-0.01 22.17) rotate(-45)"/><path class="cls-3" d="M168.5,14.26V11.09m0,10.82V16.24m0,13.32V23.89m0,13.32V31.55m0,13.32V39.2m0,13.32V46.85m0,13.32V54.51m0,13.32V62.16m0,13.32V69.81m0,13.32V77.47m0,13.32V85.12m0,13.32V92.78m0,13.32v-5.67m0,13.32v-5.67m0,13.32v-5.67m0,13.32v-5.67m0,13.32V131"/><rect x="168.25" y="138.4" width="0.5" height="0.5" transform="translate(-48.71 159.6) rotate(-44.96)"/><rect x="168.25" y="10.84" width="0.5" height="0.5" transform="translate(41.43 122.3) rotate(-44.96)"/><path class="cls-3" d="M161.3,174.57H167m-13.32,0h5.67m-13.32,0h5.67m-13.32,0H144m-13.32,0h5.67m-13.32,0h5.67m-13.32,0H121m-13.32,0h5.67m-13.32,0h5.67m-13.32,0h5.67m-13.32,0h5.67m-13.32,0h5.67m-13.32,0h5.67m-13.32,0h5.67m-13.32,0h5.67m-13.32,0h5.67m-13.32,0h5.67m-13.32,0h5.67m-11.19,0H29.2M430.7-12.86l-14.17,6.8M430.7-27l-14.17,6.8m14.17-21-14.17,6.8m14.17-21-14.17,6.8m14.17-21-14.17,6.8m14.17-21-14.17,6.8m14.17-21-14.17,6.8m14.17-21-14.17,6.8m14.17-21-14.17,6.8m14.17-21-14.17,6.8m0,113.67,14.17,6.8m-14.17-21,14.17,6.8m-14.17-21,14.17,6.8m-14.17-21,14.17,6.8m-14.17-21,14.17,6.8m-14.17-21L430.7-84m-14.17-21,14.17,6.8m-14.17-21,14.17,6.8m-14.17-21,14.17,6.8m-14.17-21,14.17,6.8"/><path class="cls-3" d="M127.58,110.31l5.57-.27,6.38.23m12.9-6,16.07-.87m-141.73,0,5.48-.3,16.87-.82,15.17-2.86,25.94-2.89,33.45.34,10.28-.78m5.59,14.13.27,0m28.69-2.59-15.93.33m-124.16-.37-1.65,0M45,110.31l6.41-1.55,23.53-2.61,13.61-.51,15.59-2.32,48.33,1m-74.57,6,11.64-.41,11.34-3.57h19.7l19.56,1.16L152,108m.43-9.38,12.76-.45h3.31m-141.73,0,9.59,0,21.91-2.08M28.41,107.68l23.24-1.62,14.88-3.15,23.1-2.69,22-.11,20.83.62,13.89-1.11,6.09-1"/><path class="cls-3" d="M40.94,95.85A13.89,13.89,0,0,0,54.83,82M27,82A13.89,13.89,0,0,0,40.94,95.85"/><path class="cls-3" d="M69.28,95.85A13.89,13.89,0,0,0,83.17,82M55.39,82A13.89,13.89,0,0,0,69.28,95.85"/><path class="cls-3" d="M97.63,95.85A13.89,13.89,0,0,0,111.52,82M83.74,82A13.89,13.89,0,0,0,97.63,95.85"/><path class="cls-3" d="M126,95.85A13.89,13.89,0,0,0,139.87,82m-27.78,0A13.89,13.89,0,0,0,126,95.85"/><path class="cls-3" d="M154.32,95.85A13.89,13.89,0,0,0,168.21,82m-27.78,0a13.89,13.89,0,0,0,13.89,13.89"/><path class="cls-3" d="M40.65,53.61A13.89,13.89,0,0,0,26.76,39.72"/><path class="cls-3" d="M69,53.61A13.89,13.89,0,0,0,55.11,39.72"/><path class="cls-3" d="M97.35,53.61A13.89,13.89,0,0,0,83.46,39.72"/><path class="cls-3" d="M125.69,53.61A13.89,13.89,0,0,0,111.8,39.72"/><path class="cls-3" d="M154,53.61a13.89,13.89,0,0,0-13.89-13.89"/><path class="cls-3" d="M55.11,39.72A13.89,13.89,0,0,0,41.22,53.61"/><path class="cls-3" d="M83.46,39.72A13.89,13.89,0,0,0,69.57,53.61"/><path class="cls-3" d="M111.8,39.72A13.89,13.89,0,0,0,97.91,53.61"/><path class="cls-3" d="M140.15,39.72a13.89,13.89,0,0,0-13.89,13.89"/><path class="cls-3" d="M168.5,39.72a13.89,13.89,0,0,0-13.89,13.89"/><path class="cls-3" d="M437.79-147.65V-5.91M409.44-147.65V-5.91M352.75-147.65V-5.91M154.61,53.61,168.21,82m-42-28.35L139.87,82m-42-28.35L111.52,82m-42-28.35L83.17,82m-42-28.35L54.83,82m85.61,0L154,53.61M112.09,82l13.61-28.35M83.74,82,97.35,53.61M55.39,82,69,53.61M27,82,40.65,53.61"/><path class="cls-3" d="M11,39.44V35.19m0,75.12v4.25m0-75.12H15.3m-4.25,0H6.79M11,96.13H15.3m-4.25,0H6.79M11,110.31H15.3m-4.25,0H6.79M13.6,42l-5.1-5.1m5.1,61.79-5.1-5.1m5.1,19.28-5.1-5.1M11-128.11v-19.53M11-90v-20.52m0,33.71v-1"/><g class="cls-4"><text class="cls-5" transform="translate(14.53 105.77) rotate(-90)">5</text></g><g class="cls-4"><text class="cls-5" transform="translate(14.53 73.05) rotate(-90)">20</text></g><path class="cls-3" d="M437.79-161.82H442m-89.29,0H348.5m89.29,0v4.25m0-4.25v-4.25m-28.35,4.25v4.25m0-4.25v-4.25m-56.69,4.25v4.25m0-4.25v-4.25m82.49,6.8,5.1-5.1m-33.45,5.1,5.1-5.1m-61.79,5.1,5.1-5.1M11,59V39.44m0,57.68V76.6m0,33.71v-1"/></svg>