<svg id="Ebene_1" data-name="Ebene 1" xmlns="http://www.w3.org/2000/svg" xmlns:xlink="http://www.w3.org/1999/xlink" viewBox="0 0 172 194.24"><defs><style>.cls-1,.cls-2,.cls-3{fill:none;}.cls-1{clip-rule:evenodd;}.cls-2{fill-rule:evenodd;}.cls-3{stroke:#000;stroke-linecap:round;stroke-linejoin:round;stroke-width:0.71px;}.cls-4{clip-path:url(#clip-path);}.cls-5{font-size:9.9px;font-family:ArialMT, Arial;}</style><clipPath id="clip-path"><polyline class="cls-1" points="-362.51 833.01 -362.51 -8.9 232.78 -8.9 232.78 833.01 -362.51 833.01"/></clipPath></defs><title>const2-print</title><path class="cls-3" d="M54.9,157.2l4-4m-9.42,9.42,4-4M44.08,168l4-4M98.8,125.33l1.14-1.14m-6.56,6.56,4-4M88,136.16l4-4m-9.42,9.42,4-4M77.15,147l4-4m-9.42,9.42,4-4m-9.42,9.42,4-4m-9.42,9.42,4-4m-9.42,9.42,4-4M50.09,174l4-4m-7.55,7.55,2.14-2.14M99.4,136.76l.54-.54m-6,6,4-4m-9.42,9.42,4-4M83.16,153l4-4m-9.42,9.42,4-4m-9.42,9.42,4-4m-9.42,9.42,4-4m-9.42,9.42,4-4m-7,7L60.11,176m34.48-22.45,4-4M89.18,159l4-4m-9.42,9.42,4-4m-9.42,9.42,4-4m-9.42,9.42,4-4m-6.35,6.35.94-.94M95.19,165l4-4m-9.42,9.42,4-4m-9.42,9.42,4-4m-5.75,5.75.34-.34m12.83-.8,4-4M43.25,42.58,50,35.85M43.25,54.6,62,35.85M43.25,66.63,74,35.85M43.25,78.66l42.8-42.8M43.25,90.68,98.08,35.85M43.25,102.71,99.94,46M43.25,114.74,99.94,58M43.25,126.76,99.94,70.07M43.25,138.79,99.94,82.1M43.25,150.82,99.94,94.12M43.25,162.84l56.69-56.69M43.25,174.87l56.69-56.69M52.56,177.59,99.94,130.2M64.58,177.59l35.36-35.36M76.61,177.59l23.33-23.33m-11.3,23.33,11.3-11.3"/><path class="cls-3" d="M85,79l4-4m-9.42,9.42,4-4m-9.42,9.42,4-4m-9.42,9.42,4-4m-9.42,9.42,4-4m-9.42,9.42,4-4M52.5,111.5l4-4m-9.42,9.42,4-4m-7.84,7.84,2.43-2.43M96.39,79.63l3.55-3.55m-9,9,4-4m-9.42,9.42,4-4m-9.42,9.42,4-4m-9.42,9.42,4-4m-9.42,9.42,4-4m-9.42,9.42,4-4m-9.42,9.42,4-4m-9.42,9.42,4-4m-9.42,9.42,4-4m-8.45,8.45,3-3M97,91.06l2.95-2.95m-8.36,8.36,4-4m-9.42,9.42,4-4m-9.42,9.42,4-4m-9.42,9.42,4-4m-9.42,9.42,4-4m-9.42,9.42,4-4m-9.42,9.42,4-4m-9.42,9.42,4-4m-9.42,9.42,4-4m-9,9,3.63-3.63m50.71-38.69,2.35-2.35m-7.76,7.76,4-4m-9.42,9.42,4-4m-9.42,9.42,4-4m-9.42,9.42,4-4m-9.42,9.42,4-4M65.12,135l4-4m-9.42,9.42,4-4m-9.42,9.42,4-4m-9.42,9.42,4-4m-9.42,9.42,4-4M98.2,113.91l1.75-1.75m-7.16,7.16,4-4m-9.42,9.42,4-4M82,130.14l4-4m-9.42,9.42,4-4M71.14,141l4-4m-9.42,9.42,4-4m-9.42,9.42,4-4"/><path class="cls-3" d="M54.3,37.54,56,35.85M48.89,43l4-4m-9.42,9.42,4-4m18.24-6.21L68,35.85m-7.7,7.7,4-4M54.9,49l4-4m-9.42,9.42,4-4m-9.42,9.42,4-4m29.06-17L80,35.85m-8.3,8.3,4-4m-9.42,9.42,4-4M60.91,55l4-4M55.5,60.39l4-4M50.09,65.8l4-4m-9.42,9.42,4-4m-5.44,5.44,0,0m45.3-33.27,3.49-3.49m-8.9,8.9,4-4m-9.42,9.42,4-4m-9.42,9.42,4-4M66.93,61l4-4M61.52,66.4l4-4M56.1,71.82l4-4m-9.42,9.42,4-4m-9.42,9.42,4-4m-6,6,.63-.63M94.59,45.36l4-4m-9.42,9.42,4-4m-9.42,9.42,4-4m-9.42,9.42,4-4M72.94,67l4-4m-9.42,9.42,4-4m-9.42,9.42,4-4m-9.42,9.42,4-4m-9.42,9.42,4-4m-9.42,9.42,4-4M43.25,96.7l1.23-1.23M95.19,56.78l4-4m-9.42,9.42,4-4m-9.42,9.42,4-4M79,73l4-4m-9.42,9.42,4-4m-9.42,9.42,4-4m-9.42,9.42,4-4m-9.42,9.42,4-4m-9.42,9.42,4-4m-9.42,9.42,4-4m-7.24,7.24,1.83-1.83M95.79,68.21l4-4m-9.42,9.42,4-4"/><path class="cls-3" d="M-247,483.12l4-4m-9.42,9.42,4-4m-7.12,7.12,1.71-1.71m50.71-38.68,4-4m-9.42,9.42,4-4m-9.42,9.42,4-4m-9.42,9.42,4-4m-9.42,9.42,4-4m-9.42,9.42,4-4m-9.42,9.42,4-4m-9.42,9.42,4-4m-9.42,9.42,4-4m-9.27,9.27,3.86-3.86m45.3-33.27,3.67-3.67m-9.09,9.09,4-4m-9.42,9.42,4-4m-9.42,9.42,4-4m-9.42,9.42,4-4m-9.42,9.42,4-4m-9.42,9.42,4-4m-8.67,8.67,3.26-3.26m34.48-22.45,3.07-3.07m-8.48,8.48,4-4m-9.42,9.42,4-4m-9.42,9.42,4-4m-9.42,9.42,4-4m-8.07,8.07,2.66-2.66m23.65-11.63,2.47-2.47m-7.88,7.88,4-4m-9.42,9.42,4-4m-7.47,7.47,2.06-2.06m12.83-.8,1.87-1.87m-4.73,4.73,1.46-1.46m-53.42-133,7.29-7.29m-7.29,19.31,19.31-19.31m-19.31,31.34,31.34-31.34m-31.34,43.37,43.37-43.37m-43.37,55.39,55.39-55.39m-55.39,67.42,56.69-56.69m-56.69,68.72,56.69-56.69m-56.69,68.72,56.69-56.69m-56.69,68.72,56.69-56.69m-56.69,68.72,56.69-56.69m-56.69,68.72,56.69-56.69m-56.69,68.72L-198.79,441m-46.82,58.85L-198.79,453m-34.79,46.82L-198.79,465m-22.77,34.79L-198.79,477m-10.74,22.77,10.74-10.74m242-452.5.71-.71"/><path class="cls-3" d="M150.29,35.85H156m-13.32,0h5.67m-13.32,0h5.67m-13.32,0H133m-13.32,0h5.67m-13.32,0h5.67m-13.32,0H110m-13.32,0h5.67m-13.32,0h5.67m-13.32,0h5.67m-13.32,0h5.67m-13.32,0h5.67m-13.32,0h5.67m-13.32,0h5.67m-13.32,0h5.67m-13.32,0h5.67m-13.32,0H33.5m-13.32,0h5.67m-10.95,0h3.29"/><rect x="14.65" y="35.6" width="0.5" height="0.5" transform="translate(-21 21.06) rotate(-45.04)"/><rect x="156.38" y="35.6" width="0.5" height="0.5" transform="translate(20.46 121.16) rotate(-44.96)"/><path class="cls-3" d="M150.29,177.59H156m-13.32,0h5.67m-13.32,0h5.67m-13.32,0H133m-13.32,0h5.67m-13.32,0h5.67m-13.32,0H110m-13.32,0h5.67m-13.32,0h5.67m-13.32,0h5.67m-13.32,0h5.67m-13.32,0h5.67m-13.32,0h5.67m-13.32,0h5.67m-13.32,0h5.67m-13.32,0h5.67m-13.32,0H33.5m-13.32,0h5.67m-10.95,0h3.29"/><rect x="14.65" y="177.33" width="0.5" height="0.5" transform="translate(-121.36 62.73) rotate(-45.07)"/><rect x="156.38" y="177.33" width="0.5" height="0.5" transform="translate(-79.69 162.74) rotate(-44.99)"/><path class="cls-3" d="M100.08,42.94A6.94,6.94,0,0,0,107,49.88M107,36a6.94,6.94,0,0,0-6.94,6.94"/><path class="cls-3" d="M100.08,57.11A6.94,6.94,0,0,0,107,64.06m0-13.89a6.94,6.94,0,0,0-6.94,6.94"/><path class="cls-3" d="M100.08,71.29A6.94,6.94,0,0,0,107,78.23m0-13.89a6.94,6.94,0,0,0-6.94,6.94"/><path class="cls-3" d="M100.08,85.46A6.94,6.94,0,0,0,107,92.4m0-13.89a6.94,6.94,0,0,0-6.94,6.94"/><path class="cls-3" d="M100.08,99.63a6.94,6.94,0,0,0,6.94,6.94m0-13.89a6.94,6.94,0,0,0-6.94,6.95"/><path class="cls-3" d="M100.08,113.81a6.94,6.94,0,0,0,6.94,6.95m0-13.89a6.94,6.94,0,0,0-6.94,6.94"/><path class="cls-3" d="M100.08,128a6.94,6.94,0,0,0,6.94,6.94M107,121a6.94,6.94,0,0,0-6.94,6.94"/><path class="cls-3" d="M100.08,142.15A6.94,6.94,0,0,0,107,149.1m0-13.89a6.94,6.94,0,0,0-6.94,6.94"/><path class="cls-3" d="M100.08,156.33a6.94,6.94,0,0,0,6.94,6.94m0-13.89a6.94,6.94,0,0,0-6.94,6.94"/><path class="cls-3" d="M100.08,170.5a6.94,6.94,0,0,0,6.94,6.94m0-13.89a6.94,6.94,0,0,0-6.94,6.95"/><path class="cls-3" d="M128.15,35.85h0M121.2,42.8a6.94,6.94,0,0,0,6.94-6.94"/><path class="cls-3" d="M121.2,57A6.94,6.94,0,0,0,128.15,50"/><path class="cls-3" d="M121.2,71.14a6.94,6.94,0,0,0,6.94-6.94"/><path class="cls-3" d="M121.2,85.32a6.94,6.94,0,0,0,6.94-6.94"/><path class="cls-3" d="M121.2,99.49a6.94,6.94,0,0,0,6.94-6.94"/><path class="cls-3" d="M121.2,113.66a6.94,6.94,0,0,0,6.94-6.94"/><path class="cls-3" d="M121.2,127.84a6.94,6.94,0,0,0,6.94-6.94"/><path class="cls-3" d="M121.2,142a6.94,6.94,0,0,0,6.94-6.94"/><path class="cls-3" d="M121.2,156.18a6.94,6.94,0,0,0,6.94-6.94"/><path class="cls-3" d="M121.2,170.36a6.94,6.94,0,0,0,6.94-6.94"/><path class="cls-3" d="M128.15,50a6.94,6.94,0,0,0-6.94-6.94"/><path class="cls-3" d="M128.15,64.2a6.94,6.94,0,0,0-6.94-6.94"/><path class="cls-3" d="M128.15,78.37a6.94,6.94,0,0,0-6.94-6.95"/><path class="cls-3" d="M128.15,92.55a6.94,6.94,0,0,0-6.94-6.94"/><path class="cls-3" d="M128.15,106.72a6.94,6.94,0,0,0-6.94-6.94"/><path class="cls-3" d="M128.15,120.89a6.94,6.94,0,0,0-6.94-6.94"/><path class="cls-3" d="M128.15,135.07a6.94,6.94,0,0,0-6.94-6.94"/><path class="cls-3" d="M128.15,149.24a6.94,6.94,0,0,0-6.94-6.94"/><path class="cls-3" d="M128.15,163.41a6.94,6.94,0,0,0-6.94-6.94"/><path class="cls-3" d="M128.15,177.59a6.94,6.94,0,0,0-6.94-6.94"/><path class="cls-3" d="M-148.2,358.07h5.67m-13.32,0h5.67m-13.32,0h5.67m-13.32,0h5.67m-13.32,0h5.67m-13.32,0h5.67m-13.32,0h5.67m-13.32,0h5.67m-13.32,0h5.67m-13.32,0h5.67m-13.32,0h5.67m-13.32,0h5.67m-13.32,0h5.67m-13.32,0H-242m-13.32,0h5.67m-13.32,0h5.67m-13.32,0H-265m-13.32,0h5.67m-11.19,0h3.53M121.2,170.64,107,177.44m14.17-21L107,163.27m14.17-21L107,149.1m14.17-21L107,134.92m14.17-21L107,120.75m14.17-21L107,106.58m14.17-21L107,92.4m14.17-21L107,78.23m14.17-21L107,64.06m14.17-21L107,49.88m0,113.67,14.17,6.8m-14.17-21,14.17,6.8m-14.17-21L121.2,142M107,121l14.17,6.8m-14.17-21,14.17,6.8M107,92.69l14.17,6.8M107,78.51l14.17,6.8M107,64.34l14.17,6.8M107,50.17,121.2,57M107,36l14.17,6.8"/><path class="cls-3" d="M128.29,35.85V177.59M99.94,35.85V177.59M43.25,35.85V177.59m-198.14,59.53,13.61,28.35m-42-28.35,13.61,28.35m-42-28.35L-198,265.46m-42-28.35,13.61,28.35m-42-28.35,13.61,28.35m85.61,0,13.61-28.35m-42,28.35,13.61-28.35m-42,28.35,13.61-28.35m-42,28.35,13.61-28.35m-42,28.35,13.61-28.35"/><path class="cls-3" d="M128.29,21.68h4.25m-89.29,0H39m89.29,0v4.25m0-4.25V17.43M99.94,21.68v4.25m0-4.25V17.43M43.25,21.68v4.25m0-4.25V17.43m82.49,6.8,5.1-5.1m-33.45,5.1,5.1-5.1M40.7,24.23l5.1-5.1M-298.45,242.47V222.94m0,57.68V260.1m0,33.71v-1"/><g class="cls-4"><text class="cls-5" transform="translate(66.33 25.16)">20</text></g><g class="cls-4"><text class="cls-5" transform="translate(108.85 25.16)">10</text></g><path class="cls-3" d="M122.93,21.68h5.36m-47.88,0H105.3m-62.05,0H62.78"/></svg>