<svg id="Ebene_1" data-name="Ebene 1" xmlns="http://www.w3.org/2000/svg" xmlns:xlink="http://www.w3.org/1999/xlink" viewBox="0 0 177.33 142.29"><defs><style>.cls-1,.cls-2,.cls-3{fill:none;}.cls-1{clip-rule:evenodd;}.cls-2{fill-rule:evenodd;}.cls-3{stroke:#000;stroke-linecap:round;stroke-linejoin:round;stroke-width:0.71px;}.cls-4{clip-path:url(#clip-path);}.cls-5{font-size:9.9px;font-family:ArialMT, Arial;}</style><clipPath id="clip-path"><polyline class="cls-1" points="-53.01 833.01 -53.01 -8.9 542.28 -8.9 542.28 833.01 -53.01 833.01"/></clipPath></defs><title>const1-print</title><path class="cls-3" d="M62.54,483.12l4-4m-9.42,9.42,4-4M54,491.64l1.71-1.71m50.71-38.68,4-4M101,456.66l4-4m-9.42,9.42,4-4m-9.42,9.42,4-4m-9.42,9.42,4-4m-9.42,9.42,4-4M74,483.72l4-4m-9.42,9.42,4-4m-9.42,9.42,4-4m-9.27,9.27,3.86-3.86M107,462.67l3.67-3.67m-9.09,9.09,4-4m-9.42,9.42,4-4m-9.42,9.42,4-4m-9.42,9.42,4-4M80,489.73l4-4m-9.42,9.42,4-4m-8.67,8.67,3.26-3.26m34.48-22.45,3.07-3.07m-8.48,8.48,4-4m-9.42,9.42,4-4m-9.42,9.42,4-4M86,495.75l4-4m-8.07,8.07,2.66-2.66m23.65-11.63,2.47-2.47m-7.88,7.88,4-4m-9.42,9.42,4-4M94,499.81,96,497.75m12.83-.8,1.87-1.87M106,499.81l1.46-1.46M54,365.36l7.29-7.29M54,377.39l19.31-19.31M54,389.42l31.34-31.34M54,401.44l43.37-43.37M54,413.47l55.39-55.39M54,425.49l56.69-56.69M54,437.52l56.69-56.69M54,449.55l56.69-56.69M54,461.57l56.69-56.69M54,473.6l56.69-56.69M54,485.63l56.69-56.69M54,497.65,110.71,441M63.89,499.81,110.71,453M75.92,499.81,110.71,465M87.94,499.81,110.71,477M100,499.81l10.74-10.74m242-452.5.71-.71"/><path class="cls-3" d="M26.76,14.07V8.4m0,13.32V16.06m0,13.32V23.71m0,13.32V31.36m0,13.32V39m0,13.32V46.67m0,13.32V54.32m0,13.32V62m0,13.32V69.63m0,13.32V77.28m0,13.32V84.94m0,13.32V92.59m0,13.32v-5.67m0,13.32V107.9m0,13.32v-5.67m0,13.32V123.2m0,11.86v-4.21m0-24.14H168.5M26.76,92.55H168.5M26.76,35.85H168.5"/><rect x="26.51" y="134.82" width="0.5" height="0.5" transform="translate(-87.72 58.57) rotate(-45.04)"/><rect x="26.51" y="7.26" width="0.5" height="0.5" transform="translate(2.54 21.14) rotate(-45.04)"/><path class="cls-3" d="M168.5,14.07V8.4m0,13.32V16.06m0,13.32V23.71m0,13.32V31.36m0,13.32V39m0,13.32V46.67m0,13.32V54.32m0,13.32V62m0,13.32V69.63m0,13.32V77.28m0,13.32V84.94m0,13.32V92.59m0,13.32v-5.67m0,13.32V107.9m0,13.32v-5.67m0,13.32V123.2m0,11.86v-4.21"/><rect x="168.25" y="134.82" width="0.5" height="0.5" transform="translate(-46.15 158.7) rotate(-45)"/><rect x="168.25" y="7.26" width="0.5" height="0.5" transform="translate(44.04 121.34) rotate(-45)"/><path class="cls-3" d="M161.3,358.07H167m-13.32,0h5.67m-13.32,0h5.67m-13.32,0H144m-13.32,0h5.67m-13.32,0h5.67m-13.32,0H121m-13.32,0h5.67m-13.32,0h5.67m-13.32,0h5.67m-13.32,0h5.67m-13.32,0h5.67m-13.32,0h5.67m-13.32,0h5.67m-13.32,0h5.67m-13.32,0h5.67m-13.32,0h5.67m-13.32,0h5.67m-11.19,0H29.2M430.7,170.64l-14.17,6.8m14.17-21-14.17,6.8m14.17-21-14.17,6.8m14.17-21-14.17,6.8m14.17-21-14.17,6.8m14.17-21-14.17,6.8m14.17-21-14.17,6.8m14.17-21-14.17,6.8m14.17-21-14.17,6.8m14.17-21-14.17,6.8m0,113.67,14.17,6.8m-14.17-21,14.17,6.8m-14.17-21L430.7,142m-14.17-21,14.17,6.8m-14.17-21,14.17,6.8m-14.17-21,14.17,6.8m-14.17-21,14.17,6.8m-14.17-21,14.17,6.8m-14.17-21L430.7,57M416.53,36l14.17,6.8"/><path class="cls-3" d="M52.32,72.42l4-4M46.9,77.83l4-4m-9.42,9.42,4-4m-9.42,9.42,4-4m-7.9,7.9,2.49-2.49M73.36,39.34l3.49-3.49M68,44.76l4-4m-9.42,9.42,4-4m-9.42,9.42,4-4M51.71,61l4-4M46.3,66.4l4-4m-9.42,9.42,4-4m-9.42,9.42,4-4m-9.42,9.42,4-4m-7.31,7.31,1.9-1.9m33.27-45.3,2.89-2.89m-8.3,8.3,4-4m-9.42,9.42,4-4M45.7,55l4-4m-9.42,9.42,4-4M34.88,65.8l4-4m-9.42,9.42,4-4m-6.71,6.71,1.3-1.3M50.51,38.14l2.29-2.29m-7.7,7.7,4-4M39.69,49l4-4m-9.42,9.42,4-4m-9.42,9.42,4-4m-6.11,6.11.7-.7M39.09,37.54l1.69-1.69M33.68,43l4-4m-9.42,9.42,4-4m-5.51,5.51.1-.1m.8-12.83,1.09-1.09M158.46,92.55l10-10m-22.06,10L168.5,70.49M134.41,92.55,168.5,58.46M122.38,92.55,168.5,46.43M110.36,92.55l56.69-56.69M98.33,92.55,155,35.85M86.31,92.55,143,35.85M74.28,92.55,131,35.85M62.25,92.55l56.69-56.69M50.23,92.55l56.69-56.69M38.2,92.55,94.89,35.85M26.76,92l56.1-56.1M26.76,79.93,70.84,35.85m-44.08,32,32-32m-32,20,20-20m-20,8,8-8"/><path class="cls-3" d="M125.08,47.76l4-4m-9.42,9.42,4-4m-9.42,9.42,4-4M108.84,64l4-4m-9.42,9.42,4-4M98,74.82l4-4M92.6,80.23l4-4m-9.42,9.42,4-4m-9.42,9.42,4-4m-5.5,5.5.09-.09m44.1-56.12.48-.48m-5.9,5.9,4-4m-9.42,9.42,4-4m-9.42,9.42,4-4M102.83,58l4-4M97.42,63.4l4-4M92,68.81l4-4m-9.42,9.42,4-4m-9.42,9.42,4-4M75.77,85l4-4m-9.42,9.42,4-4m-6.1,6.1.69-.69m38.69-50.71,4-4m-9.42,9.42,4-4M96.81,52l4-4M91.4,57.38l4-4M86,62.8l4-4m-9.42,9.42,4-4m-9.42,9.42,4-4M69.75,79l4-4m-9.42,9.42,4-4m-9.42,9.42,4-4m-6.7,6.7,1.29-1.29M96.21,40.55l4-4M90.8,46l4-4m-9.42,9.42,4-4M80,56.78l4-4m-9.42,9.42,4-4m-9.42,9.42,4-4M63.74,73l4-4m-9.42,9.42,4-4m-9.42,9.42,4-4m-9.42,9.42,4-4m-7.3,7.3,1.89-1.89M84.79,39.95l4-4m-9.42,9.42,4-4M74,50.77l4-4m-9.42,9.42,4-4m-9.42,9.42,4-4M57.73,67l4-4"/><path class="cls-3" d="M155.74,89.25l4-4m-7.3,7.3,1.89-1.89M166,67l2.53-2.53m-7.94,7.94,4-4m-9.42,9.42,4-4m-9.42,9.42,4-4m-9.42,9.42,4-4m-7.9,7.9,2.49-2.49m22.45-34.48,3.13-3.13M160,61l4-4m-9.42,9.42,4-4m-9.42,9.42,4-4m-9.42,9.42,4-4m-9.42,9.42,4-4m-9.42,9.42,4-4m-8.5,8.5,3.09-3.09m33.27-45.3,3.73-3.73m-9.14,9.15,4-4M153.94,55l4-4m-9.42,9.42,4-4m-9.42,9.42,4-4m-9.42,9.42,4-4m-9.42,9.42,4-4M126.88,82l4-4m-9.42,9.42,4-4m-9.1,9.1,3.69-3.69m38.68-50.71L161,35.85m-7.7,7.7,4-4M147.93,49l4-4m-9.42,9.42,4-4m-9.42,9.42,4-4m-9.42,9.42,4-4m-9.42,9.42,4-4M120.87,76l4-4m-9.42,9.42,4-4M110,86.85l4-4m-9.42,9.42,4-4m38.69-50.71L149,35.85m-7.1,7.1,4-4m-9.42,9.42,4-4m-9.42,9.42,4-4m-9.42,9.42,4-4m-9.42,9.42,4-4M114.85,70l4-4m-9.42,9.42,4-4M104,80.83l4-4m-9.42,9.42,4-4m-9.42,9.42,4-4M135.9,36.94,137,35.85m-6.5,6.5,4-4"/><path class="cls-3" d="M167.17,89.86l1.33-1.33m-4,4,1.29-1.29m.8-12.83,1.93-1.93m-7.34,7.34,4-4"/><path class="cls-3" d="M30.31,106.65a3.47,3.47,0,0,0,3.47-3.47m-6.94,0a3.47,3.47,0,0,0,3.47,3.47"/><path class="cls-3" d="M37.39,106.65a3.47,3.47,0,0,0,3.47-3.47m-6.94,0a3.47,3.47,0,0,0,3.47,3.47"/><path class="cls-3" d="M44.48,106.65A3.47,3.47,0,0,0,48,103.18m-6.94,0a3.47,3.47,0,0,0,3.47,3.47"/><path class="cls-3" d="M51.57,106.65A3.47,3.47,0,0,0,55,103.18m-6.94,0a3.47,3.47,0,0,0,3.47,3.47"/><path class="cls-3" d="M58.65,106.65a3.47,3.47,0,0,0,3.47-3.47m-6.95,0a3.47,3.47,0,0,0,3.47,3.47"/><path class="cls-3" d="M65.74,106.65a3.47,3.47,0,0,0,3.47-3.47m-6.94,0a3.47,3.47,0,0,0,3.47,3.47"/><path class="cls-3" d="M72.83,106.65a3.47,3.47,0,0,0,3.47-3.47m-6.94,0a3.47,3.47,0,0,0,3.47,3.47"/><path class="cls-3" d="M79.91,106.65a3.47,3.47,0,0,0,3.47-3.47m-6.94,0a3.47,3.47,0,0,0,3.47,3.47"/><path class="cls-3" d="M87,106.65a3.47,3.47,0,0,0,3.47-3.47m-6.94,0A3.47,3.47,0,0,0,87,106.65"/><path class="cls-3" d="M94.09,106.65a3.47,3.47,0,0,0,3.47-3.47m-6.95,0a3.47,3.47,0,0,0,3.47,3.47"/><path class="cls-3" d="M101.17,106.65a3.47,3.47,0,0,0,3.47-3.47m-6.94,0a3.47,3.47,0,0,0,3.47,3.47"/><path class="cls-3" d="M108.26,106.65a3.47,3.47,0,0,0,3.47-3.47m-6.94,0a3.47,3.47,0,0,0,3.47,3.47"/><path class="cls-3" d="M115.35,106.65a3.47,3.47,0,0,0,3.47-3.47m-6.95,0a3.47,3.47,0,0,0,3.47,3.47"/><path class="cls-3" d="M122.43,106.65a3.47,3.47,0,0,0,3.47-3.47m-6.94,0a3.47,3.47,0,0,0,3.47,3.47"/><path class="cls-3" d="M129.52,106.65a3.47,3.47,0,0,0,3.47-3.47m-6.94,0a3.47,3.47,0,0,0,3.47,3.47"/><path class="cls-3" d="M136.61,106.65a3.47,3.47,0,0,0,3.47-3.47m-6.94,0a3.47,3.47,0,0,0,3.47,3.47"/><path class="cls-3" d="M143.69,106.65a3.47,3.47,0,0,0,3.47-3.47m-6.94,0a3.47,3.47,0,0,0,3.47,3.47"/><path class="cls-3" d="M150.78,106.65a3.47,3.47,0,0,0,3.47-3.47m-6.95,0a3.47,3.47,0,0,0,3.47,3.47"/><path class="cls-3" d="M157.87,106.65a3.47,3.47,0,0,0,3.47-3.47m-6.94,0a3.47,3.47,0,0,0,3.47,3.47"/><path class="cls-3" d="M165,106.65a3.47,3.47,0,0,0,3.47-3.47m-6.94,0a3.47,3.47,0,0,0,3.47,3.47"/><path class="cls-3" d="M30.24,96.09a3.47,3.47,0,0,0-3.47-3.47"/><path class="cls-3" d="M37.32,96.09a3.47,3.47,0,0,0-3.47-3.47"/><path class="cls-3" d="M44.41,96.09a3.47,3.47,0,0,0-3.47-3.47"/><path class="cls-3" d="M51.5,96.09A3.47,3.47,0,0,0,48,92.62"/><path class="cls-3" d="M58.58,96.09a3.47,3.47,0,0,0-3.47-3.47"/><path class="cls-3" d="M65.67,96.09a3.47,3.47,0,0,0-3.47-3.47"/><path class="cls-3" d="M72.76,96.09a3.47,3.47,0,0,0-3.47-3.47"/><path class="cls-3" d="M79.84,96.09a3.47,3.47,0,0,0-3.47-3.47"/><path class="cls-3" d="M86.93,96.09a3.47,3.47,0,0,0-3.47-3.47"/><path class="cls-3" d="M94,96.09a3.47,3.47,0,0,0-3.47-3.47"/><path class="cls-3" d="M101.1,96.09a3.47,3.47,0,0,0-3.47-3.47"/><path class="cls-3" d="M108.19,96.09a3.47,3.47,0,0,0-3.47-3.47"/><path class="cls-3" d="M115.28,96.09a3.47,3.47,0,0,0-3.47-3.47"/><path class="cls-3" d="M122.36,96.09a3.47,3.47,0,0,0-3.47-3.47"/><path class="cls-3" d="M129.45,96.09A3.47,3.47,0,0,0,126,92.62"/><path class="cls-3" d="M136.54,96.09a3.47,3.47,0,0,0-3.47-3.47"/><path class="cls-3" d="M143.62,96.09a3.47,3.47,0,0,0-3.47-3.47"/><path class="cls-3" d="M150.71,96.09a3.47,3.47,0,0,0-3.47-3.47"/><path class="cls-3" d="M157.8,96.09a3.47,3.47,0,0,0-3.47-3.47"/><path class="cls-3" d="M164.88,96.09a3.47,3.47,0,0,0-3.47-3.47"/><path class="cls-3" d="M33.85,92.62a3.47,3.47,0,0,0-3.47,3.47"/><path class="cls-3" d="M40.94,92.62a3.47,3.47,0,0,0-3.47,3.47"/><path class="cls-3" d="M48,92.62a3.47,3.47,0,0,0-3.47,3.47"/><path class="cls-3" d="M55.11,92.62a3.47,3.47,0,0,0-3.47,3.47"/><path class="cls-3" d="M62.2,92.62a3.47,3.47,0,0,0-3.47,3.47"/><path class="cls-3" d="M69.28,92.62a3.47,3.47,0,0,0-3.47,3.47"/><path class="cls-3" d="M76.37,92.62a3.47,3.47,0,0,0-3.47,3.47"/><path class="cls-3" d="M83.46,92.62A3.47,3.47,0,0,0,80,96.09"/><path class="cls-3" d="M90.54,92.62a3.47,3.47,0,0,0-3.47,3.47"/><path class="cls-3" d="M97.63,92.62a3.47,3.47,0,0,0-3.47,3.47"/><path class="cls-3" d="M104.72,92.62a3.47,3.47,0,0,0-3.47,3.47"/><path class="cls-3" d="M111.8,92.62a3.47,3.47,0,0,0-3.47,3.47"/><path class="cls-3" d="M118.89,92.62a3.47,3.47,0,0,0-3.47,3.47"/><path class="cls-3" d="M126,92.62a3.47,3.47,0,0,0-3.47,3.47"/><path class="cls-3" d="M133.06,92.62a3.47,3.47,0,0,0-3.47,3.47"/><path class="cls-3" d="M140.15,92.62a3.47,3.47,0,0,0-3.47,3.47"/><path class="cls-3" d="M147.24,92.62a3.47,3.47,0,0,0-3.47,3.47"/><path class="cls-3" d="M154.32,92.62a3.47,3.47,0,0,0-3.47,3.47"/><path class="cls-3" d="M161.41,92.62a3.47,3.47,0,0,0-3.47,3.47"/><path class="cls-3" d="M168.5,92.62A3.47,3.47,0,0,0,165,96.09"/><path class="cls-3" d="M165,96.09l3.4,7.09m-10.49-7.09,3.4,7.09m-10.49-7.09,3.4,7.09m-10.49-7.09,3.4,7.09m-10.49-7.09,3.4,7.09m-10.49-7.09,3.4,7.09M122.5,96.09l3.4,7.09m-10.49-7.09,3.4,7.09m-10.49-7.09,3.4,7.09m-10.49-7.09,3.4,7.09M94.16,96.09l3.4,7.09M87.07,96.09l3.4,7.09M80,96.09l3.4,7.09M72.9,96.09l3.4,7.09M65.81,96.09l3.4,7.09M58.72,96.09l3.4,7.09M51.64,96.09l3.4,7.09M44.55,96.09l3.4,7.09M37.46,96.09l3.4,7.09M30.38,96.09l3.4,7.09m127.7,0,3.4-7.09m-10.49,7.09,3.4-7.09m-10.49,7.09,3.4-7.09m-10.49,7.09,3.4-7.09m-10.49,7.09,3.4-7.09M126,103.18l3.4-7.09M119,103.18l3.4-7.09m-10.49,7.09,3.4-7.09m-10.49,7.09,3.4-7.09M97.7,103.18l3.4-7.09m-10.49,7.09L94,96.09m-10.49,7.09,3.4-7.09m-10.49,7.09,3.4-7.09m-10.49,7.09,3.4-7.09m-10.49,7.09,3.4-7.09m-10.49,7.09,3.4-7.09m-10.49,7.09,3.4-7.09M41,103.18l3.4-7.09m-10.49,7.09,3.4-7.09m-10.49,7.09,3.4-7.09"/><path class="cls-3" d="M437.79,35.85V177.59M409.44,35.85V177.59M352.75,35.85V177.59M154.61,237.11l13.61,28.35m-42-28.35,13.61,28.35m-42-28.35,13.61,28.35m-42-28.35,13.61,28.35m-42-28.35,13.61,28.35m85.61,0L154,237.11m-42,28.35,13.61-28.35m-42,28.35,13.61-28.35m-42,28.35L69,237.11M27,265.46l13.61-28.35"/><path class="cls-3" d="M11,35.85V31.6m0,75.12V111m0-75.12H15.3m-4.25,0H6.79M11,92.55H15.3m-4.25,0H6.79M11,106.72H15.3m-4.25,0H6.79M13.6,38.4,8.5,33.3m5.1,61.8L8.5,90m5.1,19.28-5.1-5.1"/><g class="cls-4"><text class="cls-5" transform="translate(14.53 102.19) rotate(-90)">5</text></g><g class="cls-4"><text class="cls-5" transform="translate(14.53 69.47) rotate(-90)">20</text></g><path class="cls-3" d="M11,222.94v-4.25m0,75.12v4.25m0-75.12H15.3m-4.25,0H6.79M11,279.63H15.3m-4.25,0H6.79M11,293.81H15.3m-4.25,0H6.79m6.8-68.31-5.1-5.1m5.1,61.79-5.1-5.1m5.1,19.28-5.1-5.1M11,55.39V35.85m0,57.68V73m0,33.71v-1"/><path class="cls-3" d="M437.79,21.68H442m-89.29,0H348.5m89.29,0v4.25m0-4.25V17.43m-28.35,4.25v4.25m0-4.25V17.43m-56.69,4.25v4.25m0-4.25V17.43m82.49,6.8,5.1-5.1m-33.45,5.1,5.1-5.1m-61.79,5.1,5.1-5.1M11,242.47V222.94m0,57.68V260.1m0,33.71v-1"/></svg>