<svg id="Ebene_1" data-name="Ebene 1" xmlns="http://www.w3.org/2000/svg" xmlns:xlink="http://www.w3.org/1999/xlink" viewBox="0 0 192.69 159"><defs><style>.cls-1,.cls-2,.cls-6{fill:none;}.cls-1{clip-rule:evenodd;}.cls-2{stroke:#000;stroke-width:0.71px;}.cls-2,.cls-6{stroke-linecap:round;stroke-linejoin:round;}.cls-3{clip-path:url(#clip-path);}.cls-4{font-size:18px;}.cls-4,.cls-7{fill:teal;}.cls-4,.cls-5{font-family:MyriadPro-Regular, Myriad Pro;}.cls-5{font-size:12px;}.cls-6{stroke:teal;stroke-width:2px;}</style><clipPath id="clip-path"><polyline class="cls-1" points="-38.8 442.34 -38.8 -399.56 556.49 -399.56 556.49 442.34 -38.8 442.34"/></clipPath></defs><title>convection-print</title><path class="cls-2" d="M51.49,132.12l4-4m-9.42,9.42,4-4M43,140.64l1.71-1.71m50.71-38.68,4-4M90,105.66l4-4m-9.42,9.42,4-4m-9.42,9.42,4-4m-9.42,9.42,4-4m-9.42,9.42,4-4m-9.42,9.42,4-4m-9.42,9.42,4-4m-9.42,9.42,4-4m-9.27,9.27,3.86-3.86M96,111.67,99.66,108m-9.09,9.09,4-4m-9.42,9.42,4-4m-9.42,9.42,4-4m-9.42,9.42,4-4m-9.42,9.42,4-4m-9.42,9.42,4-4m-8.67,8.67,3.26-3.26M96.59,123.1,99.66,120m-8.48,8.48,4-4m-9.42,9.42,4-4m-9.42,9.42,4-4m-9.42,9.42,4-4m-8.07,8.07,2.66-2.66m23.65-11.63,2.47-2.47m-7.88,7.88,4-4m-9.42,9.42,4-4m-7.47,7.47L85,146.75m12.83-.8,1.87-1.87m-4.73,4.73,1.46-1.46M43,14.36l7.29-7.29M43,26.39,62.29,7.07M43,38.42,74.31,7.07M43,50.44,86.34,7.07M43,62.47,98.36,7.07M43,74.49,99.66,17.8M43,86.52,99.66,29.83M43,98.55,99.66,41.85M43,110.57,99.66,53.88M43,122.6,99.66,65.91M43,134.63,99.66,77.93M43,146.65,99.66,90M52.84,148.81,99.66,102M64.87,148.81,99.66,114M76.9,148.81,99.66,126M88.92,148.81l10.74-10.74m242-452.5.71-.71"/><path class="cls-2" d="M76.15,59.36l4-4m-9.42,9.42,4-4m-9.42,9.42,4-4m-9.42,9.42,4-4M54.5,81l4-4m-9.42,9.42,4-4m-9.42,9.42,4-4M98.39,49.14l1.27-1.27M93,54.55l4-4M87.57,60l4-4m-9.42,9.42,4-4m-9.42,9.42,4-4M71.34,76.2l4-4m-9.42,9.42,4-4M60.51,87l4-4M55.1,92.43l4-4m-9.42,9.42,4-4m-9.42,9.42,4-4M99,60.56l.67-.67M93.58,66l4-4m-9.42,9.42,4-4M82.76,76.8l4-4m-9.42,9.42,4-4m-9.42,9.42,4-4M66.53,93l4-4m-9.42,9.42,4-4m-9.42,9.42,4-4m-9.42,9.42,4-4m-9.42,9.42,4-4M43,116.59l.5-.5M99.6,72l.07-.07M94.19,77.4l4-4m-9.42,9.42,4-4m-9.42,9.42,4-4M78,93.63l4-4M72.54,99l4-4m-9.42,9.42,4-4m-9.42,9.42,4-4m-9.42,9.42,4-4m-9.42,9.42,4-4m-9.42,9.42,4-4M43,128.61l1.11-1.1M94.79,88.82l4-4m-9.42,9.42,4-4M84,99.65l4-4m-9.42,9.42,4-4m-9.42,9.42,4-4m-9.42,9.42,4-4m-9.42,9.42,4-4m-9.42,9.42,4-4"/><path class="cls-2" d="M67.73,7.64l.57-.57m-6,6,4-4M56.9,18.47l4-4m-9.42,9.42,4-4m-9.42,9.42,4-4M43,32.4l1.71-1.71M79.15,8.25l1.17-1.17m-6.58,6.58,4-4m-9.42,9.42,4-4m-9.42,9.42,4-4m-9.42,9.42,4-4m-9.42,9.42,4-4m-9.42,9.42,4-4M43,44.43l2.31-2.31M90.58,8.85l1.77-1.77m-7.19,7.19,4-4m-9.42,9.42,4-4m-9.42,9.42,4-4m-9.42,9.42,4-4m-9.42,9.42,4-4m-9.42,9.42,4-4m-9.42,9.42,4-4m-9.42,9.42,4-4M43,56.45l2.91-2.91M96.59,14.86l3.07-3.07m-8.48,8.48,4-4m-9.42,9.42,4-4M80.36,31.1l4-4m-9.42,9.42,4-4m-9.42,9.42,4-4m-9.42,9.42,4-4m-9.42,9.42,4-4M53.3,58.16l4-4m-9.42,9.42,4-4M43,68.48,46.48,65M97.19,26.29l2.47-2.47M91.78,31.7l4-4m-9.42,9.42,4-4M81,42.52l4-4m-9.42,9.42,4-4m-9.42,9.42,4-4m-9.42,9.42,4-4m-9.42,9.42,4-4M53.9,69.58l4-4M48.49,75l4-4M43.07,80.4l4-4M97.79,37.71l1.87-1.87m-7.28,7.28,4-4M87,48.53l4-4m-9.42,9.42,4-4"/><path class="cls-2" d="M63.52,360.62l4-4M58.11,366l4-4m-9.42,9.42,4-4m-9.42,9.42,4-4M43,381.17l2.91-2.91m50.71-38.69,3.07-3.07M91.18,345l4-4m-9.42,9.42,4-4m-9.42,9.42,4-4m-9.42,9.42,4-4m-9.42,9.42,4-4M64.12,372l4-4m-9.42,9.42,4-4m-7.8,7.8,2.39-2.39M97.19,351l2.47-2.47m-7.88,7.88,4-4m-9.42,9.42,4-4M81,367.23l4-4m-9.42,9.42,4-4m-9.42,9.42,4-4m-7.2,7.2,1.79-1.79m29.06-17,1.87-1.87m-7.28,7.28,4-4M87,373.25l4-4m-9.42,9.42,4-4m-6.6,6.6,1.19-1.19m18.24-6.21,1.27-1.27M93,379.26l4-4m-6,6,.58-.58M43,242.86l3.35-3.35M43,254.89l15.37-15.37M43,266.92l27.4-27.4M43,278.94,82.4,239.51M43,291l51.45-51.45M43,303,99.66,246.3M43,315l56.69-56.69M43,327l56.69-56.69M43,339.07l56.69-56.69M43,351.1l56.69-56.69M43,363.13l56.69-56.69M43,375.15l56.69-56.69M48.9,381.25l50.76-50.76M60.93,381.25l38.73-38.73M73,381.25l26.71-26.71M85,381.25l14.68-14.68M97,381.25l2.65-2.65M43,8.35l.5-.5m7.42,4.61,4-4m-9.42,9.42,4-4M43,20.38l1.11-1.11"/><path class="cls-2" d="M150.25,7.07h5.67m-13.32,0h5.67m-13.32,0h5.67m-13.32,0H133m-13.32,0h5.67M112,7.07h5.67m-13.32,0H110m-13.32,0h5.67M89,7.07h5.67m-13.32,0H87m-13.32,0h5.67m-13.32,0h5.67m-13.32,0h5.67m-13.32,0h5.67m-13.32,0h5.67m-13.32,0h5.67m-13.32,0h5.67m-13.32,0h5.67m-11.19,0h3.53m401.5-187.43-14.17,6.8m14.17-21-14.17,6.8m14.17-21-14.17,6.8m14.17-21-14.17,6.8m14.17-21-14.17,6.8m14.17-21-14.17,6.8m14.17-21-14.17,6.8m14.17-21-14.17,6.8m14.17-21-14.17,6.8m14.17-21-14.17,6.8m0,113.67,14.17,6.8m-14.17-21,14.17,6.8m-14.17-21,14.17,6.8m-14.17-21,14.17,6.8m-14.17-21,14.17,6.8m-14.17-21,14.17,6.8m-14.17-21,14.17,6.8m-14.17-21,14.17,6.8m-14.17-21,14.17,6.8m-14.17-21,14.17,6.8"/><rect x="14.37" y="6.82" width="0.5" height="0.5" transform="translate(-0.72 12.41) rotate(-45)"/><rect x="156.11" y="6.82" width="0.5" height="0.5" transform="translate(40.79 112.63) rotate(-45)"/><path class="cls-2" d="M150.25,148.81h5.67m-13.32,0h5.67m-13.32,0h5.67m-13.32,0H133m-13.32,0h5.67m-13.32,0h5.67m-13.32,0H110m-13.32,0h5.67m-13.32,0h5.67m-13.32,0H87m-13.32,0h5.67m-13.32,0h5.67m-13.32,0h5.67m-13.32,0h5.67m-13.32,0h5.67m-13.32,0h5.67m-13.32,0h5.67m-13.32,0h5.67m-11.19,0h3.53"/><rect x="14.37" y="148.56" width="0.5" height="0.5" transform="translate(-101.01 54.01) rotate(-45.04)"/><rect x="156.11" y="148.56" width="0.5" height="0.5" transform="translate(-59.42 154.3) rotate(-45.04)"/><path class="cls-2" d="M99.81,14.16a6.94,6.94,0,0,0,6.94,6.94m0-13.89a6.94,6.94,0,0,0-6.94,6.94"/><path class="cls-2" d="M99.81,28.33a6.94,6.94,0,0,0,6.94,6.94m0-13.89a6.94,6.94,0,0,0-6.94,6.95"/><path class="cls-2" d="M99.81,42.51a6.94,6.94,0,0,0,6.94,6.94m0-13.89a6.94,6.94,0,0,0-6.94,6.94"/><path class="cls-2" d="M99.81,56.68a6.94,6.94,0,0,0,6.94,6.94m0-13.89a6.94,6.94,0,0,0-6.94,6.94"/><path class="cls-2" d="M99.81,70.85a6.94,6.94,0,0,0,6.94,6.95m0-13.89a6.94,6.94,0,0,0-6.94,6.95"/><path class="cls-2" d="M99.81,85A6.94,6.94,0,0,0,106.75,92m0-13.89A6.94,6.94,0,0,0,99.81,85"/><path class="cls-2" d="M99.81,99.2a6.94,6.94,0,0,0,6.94,6.94m0-13.89a6.94,6.94,0,0,0-6.94,6.95"/><path class="cls-2" d="M99.81,113.37a7,7,0,0,0,6.94,6.95m0-13.89a6.94,6.94,0,0,0-6.94,6.94"/><path class="cls-2" d="M99.81,127.55a6.94,6.94,0,0,0,6.94,6.95m0-13.89a6.94,6.94,0,0,0-6.94,6.94"/><path class="cls-2" d="M99.81,141.72a6.94,6.94,0,0,0,6.94,6.94m0-13.89a6.94,6.94,0,0,0-6.94,6.95"/><path class="cls-2" d="M120.92,14a6.94,6.94,0,0,0,6.94-6.94"/><path class="cls-2" d="M120.92,28.19a6.94,6.94,0,0,0,6.94-6.94"/><path class="cls-2" d="M120.92,42.37a6.94,6.94,0,0,0,6.94-6.94"/><path class="cls-2" d="M120.92,56.54a6.94,6.94,0,0,0,6.94-6.94"/><path class="cls-2" d="M120.92,70.71a7,7,0,0,0,6.94-6.95"/><path class="cls-2" d="M120.92,84.88a6.94,6.94,0,0,0,6.94-6.94"/><path class="cls-2" d="M120.92,99.06a7,7,0,0,0,6.94-6.95"/><path class="cls-2" d="M120.92,113.23a7,7,0,0,0,6.94-6.95"/><path class="cls-2" d="M120.92,127.4a6.94,6.94,0,0,0,6.94-6.94"/><path class="cls-2" d="M120.92,141.58a7,7,0,0,0,6.94-6.95"/><path class="cls-2" d="M127.87,21.25a6.94,6.94,0,0,0-6.94-6.94"/><path class="cls-2" d="M127.87,35.42a6.94,6.94,0,0,0-6.94-6.94"/><path class="cls-2" d="M127.87,49.59a6.94,6.94,0,0,0-6.94-6.94"/><path class="cls-2" d="M127.87,63.77a6.94,6.94,0,0,0-6.94-6.94"/><path class="cls-2" d="M127.87,77.94A7,7,0,0,0,120.92,71"/><path class="cls-2" d="M127.87,92.11a7,7,0,0,0-6.94-6.95"/><path class="cls-2" d="M127.87,106.29a6.94,6.94,0,0,0-6.94-6.94"/><path class="cls-2" d="M127.87,120.46a7,7,0,0,0-6.94-6.95"/><path class="cls-2" d="M127.87,134.63a6.94,6.94,0,0,0-6.94-6.94"/><path class="cls-2" d="M127.87,148.81a7,7,0,0,0-6.94-6.95"/><path class="cls-2" d="M479.35,7.07h.15m-7.8,0h5.67M464,7.07h5.67m-13.32,0h5.67m-13.32,0h5.67m-13.32,0h5.67m-13.32,0h5.67m-13.32,0h5.67m-13.32,0h5.67m-13.32,0h5.67m-13.32,0h5.67m-13.32,0h5.67m-13.32,0h5.67m-13.32,0h5.67m-13.32,0h5.67m-13.32,0h5.67m-13.32,0h5.67m-13.32,0h5.67m-13.32,0h5.67m-9.49,0h1.83M128,7.07V148.81M99.66,7.07V148.81M43,7.07V148.81m78-6.95-14.17,6.8m14.17-21-14.17,6.8m14.17-21-14.17,6.8m14.17-21-14.17,6.8m14.17-21L106.75,92m14.17-21-14.17,6.8m14.17-21-14.17,6.8m14.17-21-14.17,6.8m14.17-21-14.17,6.8m14.17-21-14.17,6.8m0,113.67,14.17,6.8m-14.17-21,14.17,6.8m-14.17-21,14.17,6.8m-14.17-21,14.17,6.8m-14.17-21,14.17,6.8m-14.17-21,14.17,6.8m-14.17-21,14.17,6.8m-14.17-21,14.17,6.8m-14.17-21,14.17,6.8m-14.17-21L120.92,14"/><g class="cls-3"><text class="cls-4" transform="translate(176.7 86.8)">h</text></g><text class="cls-5" transform="translate(135.85 142.54)">out</text><text class="cls-5" transform="translate(21.37 142.07)">in</text><path class="cls-6" d="M146,56.48A33.76,33.76,0,0,0,150.44,108"/><polygon class="cls-7" points="142.6 54.27 150.44 52.8 147.79 60.32 142.6 54.27"/><path class="cls-6" d="M156.36,53.81a33.76,33.76,0,0,1,4.41,51.54"/><polygon class="cls-7" points="159.01 101.5 156.36 109.02 164.2 107.55 159.01 101.5"/></svg>