<svg id="Ebene_1" data-name="Ebene 1" xmlns="http://www.w3.org/2000/svg" xmlns:xlink="http://www.w3.org/1999/xlink" viewBox="0 0 175 173.5"><defs><style>.cls-1,.cls-2,.cls-3,.cls-6,.cls-7,.cls-8,.cls-9{fill:none;}.cls-1{clip-rule:evenodd;}.cls-2{fill-rule:evenodd;}.cls-3,.cls-8,.cls-9{stroke:#000;}.cls-3{stroke-linecap:round;stroke-linejoin:round;stroke-width:0.71px;}.cls-4{clip-path:url(#clip-path);}.cls-5{font-size:12px;fill:red;font-family:MyriadPro-Regular, Myriad Pro;}.cls-6,.cls-7{stroke:red;}.cls-6,.cls-7,.cls-8,.cls-9{stroke-miterlimit:10;}.cls-7{stroke-dasharray:5.93 1.98;}.cls-9{stroke-dasharray:5.92 1.97;}</style><clipPath id="clip-path"><polyline class="cls-1" points="-386.01 258.01 -386.01 -583.9 209.28 -583.9 209.28 258.01 -386.01 258.01"/></clipPath></defs><title>interfaces-print</title><path class="cls-3" d="M45.65,157.25l3-3m50.71-38.69,1.51-1.51M93.94,121l4-4m-9.42,9.42,4-4m-9.42,9.42,4-4m-9.42,9.42,4-4m-9.42,9.42,4-4M66.88,148l4-4m-9.42,9.42,4-4m-7.8,7.8,2.39-2.39M100,127l.91-.91m-6.32,6.32,4-4m-9.42,9.42,4-4m-9.42,9.42,4-4m-9.42,9.42,4-4m-9.42,9.42,4-4m-7.2,7.2,1.79-1.79m29.06-17,.31-.31m-5.72,5.72,4-4m-9.42,9.42,4-4m-9.42,9.42,4-4m-6.6,6.6,1.19-1.19m12.83-.8,4-4m-6,6,.58-.58M44.17,20.43l4.91-4.91M44.17,32.45,61.1,15.51m-16.94,29,29-29m-29,41,41-41m-41,53,53-53m-53,65,56.69-56.69M44.17,92.58l56.69-56.69M44.17,104.61l56.69-56.69M44.17,116.64l56.69-56.69M44.17,128.66,100.86,72M44.17,140.69,100.86,84M44.17,152.72,100.86,96m-49.2,61.22,49.2-49.2m-37.17,49.2,37.17-37.17M75.71,157.25l25.14-25.14M87.74,157.25l13.12-13.12m-1.09,13.12,1.09-1.09M-270.46,16.36l.84-.84m-6.25,6.25,4-4M-279,24.88l1.71-1.71M-259,17l1.44-1.44m-6.85,6.85,4-4m-9.42,9.42,4-4m-9.42,9.42,4-4M-279,36.9l2.31-2.31m29.06-17,2-2"/><path class="cls-3" d="M74.7,80.09l4-4m-9.42,9.42,4-4m-9.42,9.42,4-4m-9.42,9.42,4-4M53,101.74l4-4m-9.42,9.42,4-4m-7.48,7.48,2.07-2.07M96.94,69.87,100.86,66m-9.33,9.33,4-4M86.12,80.7l4-4m-9.42,9.42,4-4M75.3,91.52l4-4m-9.42,9.42,4-4m-9.42,9.42,4-4m-9.42,9.42,4-4m-9.42,9.42,4-4m-9.42,9.42,4-4m-8.08,8.08L46.84,120M97.55,81.3,100.86,78m-8.73,8.73,4-4m-9.42,9.42,4-4m-9.42,9.42,4-4m-9.42,9.42,4-4m-9.42,9.42,4-4m-9.42,9.42,4-4m-9.42,9.42,4-4m-9.42,9.42,4-4M48.84,130l4-4m-8.68,8.68,3.27-3.27M98.15,92.72,100.86,90m-8.12,8.12,4-4m-9.42,9.42,4-4M81.91,109l4-4m-9.42,9.42,4-4m-9.42,9.42,4-4m-9.42,9.42,4-4m-9.42,9.42,4-4M54.85,136l4-4m-9.42,9.42,4-4m-9.28,9.28L48,142.83m50.71-38.68,2.11-2.11m-7.52,7.52,4-4M87.92,115l4-4m-9.42,9.42,4-4m-9.42,9.42,4-4m-9.42,9.42,4-4m-9.42,9.42,4-4M60.87,142l4-4m-9.42,9.42,4-4M50,152.85l4-4"/><path class="cls-3" d="M50,44.62l4-4M44.63,50l4-4M88.53,18.16l2.64-2.64m-8.06,8.06,4-4M77.7,29l4-4m-9.42,9.42,4-4m-9.42,9.42,4-4m-9.42,9.42,4-4m-9.42,9.42,4-4M50.64,56l4-4m-9.42,9.42,4-4M100,18.76l.91-.91m-6.32,6.32,4-4m-9.42,9.42,4-4M83.72,35l4-4M78.3,40.41l4-4m-9.42,9.42,4-4m-9.42,9.42,4-4m-9.42,9.42,4-4m-9.42,9.42,4-4m-9.42,9.42,4-4m-9.42,9.42,4-4m-5.67,5.67.26-.26m56.12-44.1.31-.31M95.14,35.6l4-4M89.73,41l4-4m-9.42,9.42,4-4m-9.42,9.42,4-4m-9.42,9.42,4-4m-9.42,9.42,4-4m-9.42,9.42,4-4m-9.42,9.42,4-4m-9.42,9.42,4-4M46.43,84.3l4-4m-6.28,6.28.86-.86M95.74,47l4-4m-9.42,9.42,4-4m-9.42,9.42,4-4m-9.42,9.42,4-4m-9.42,9.42,4-4m-9.42,9.42,4-4m-9.42,9.42,4-4m-9.42,9.42,4-4m-9.42,9.42,4-4M47,95.73l4-4M44.17,98.6l1.46-1.47M96.34,58.45l4-4m-9.42,9.42,4-4m-9.42,9.42,4-4m-9.42,9.42,4-4"/><path class="cls-3" d="M49.59-75.19l3.86-3.86m45.3-33.27,2.11-2.11m-7.52,7.52,4-4m-9.42,9.42,4-4m-9.42,9.42,4-4M77.1-90.68l4-4m-9.42,9.42,4-4m-9.42,9.42,4-4m-8.67,8.67,3.26-3.26M99.35-100.9l1.51-1.51m-6.92,6.92,4-4m-9.42,9.42,4-4m-9.42,9.42,4-4M77.7-79.25l4-4m-8.07,8.07,2.66-2.66M100-89.48l.91-.91m-6.32,6.32,4-4m-9.42,9.42,4-4m-7.47,7.47,2.06-2.06m12.83-.8.31-.31m-3.17,3.17,1.46-1.46m-55-131.43L53-216.93M44.17-196,65-216.93M44.17-184l32.9-32.9M44.17-172,89.1-216.93M44.17-160l56.69-56.69M44.17-147.94l56.69-56.69M44.17-135.92l56.69-56.69M44.17-123.89l56.69-56.69M44.17-111.86l56.69-56.69M44.17-99.84l56.69-56.69M44.17-87.81l56.69-56.69M44.17-75.79l56.69-56.69M55.6-75.19l45.26-45.26M67.63-75.19l33.23-33.23M79.65-75.19l21.21-21.2m-9.18,21.2,9.18-9.18M54.25,16.36l.84-.84m-6.25,6.25,4-4m-8.68,8.68,3.27-3.27M65.68,17l1.44-1.44m-6.85,6.85,4-4m-9.42,9.42,4-4m-9.42,9.42,4-4m-9.28,9.28L48,34.59m29.06-17,2-2M71.69,23l4-4m-9.42,9.42,4-4m-9.42,9.42,4-4m-9.42,9.42,4-4"/><path class="cls-3" d="M101,22.6a6.94,6.94,0,0,0,6.95,6.94m0-13.89A7,7,0,0,0,101,22.6"/><path class="cls-3" d="M101,36.77a7,7,0,0,0,6.95,6.95m0-13.89A6.94,6.94,0,0,0,101,36.77"/><path class="cls-3" d="M101,50.95a6.94,6.94,0,0,0,6.95,6.94m0-13.89A7,7,0,0,0,101,50.95"/><path class="cls-3" d="M101,65.12a7,7,0,0,0,6.95,6.95m0-13.89A7,7,0,0,0,101,65.12"/><path class="cls-3" d="M101,79.29a7,7,0,0,0,6.95,6.95m0-13.89A6.94,6.94,0,0,0,101,79.29"/><path class="cls-3" d="M101,93.47a6.94,6.94,0,0,0,6.95,6.94m0-13.89A7,7,0,0,0,101,93.47"/><path class="cls-3" d="M101,107.64a7,7,0,0,0,6.95,6.95m0-13.89a6.94,6.94,0,0,0-6.95,6.94"/><path class="cls-3" d="M101,121.81a6.94,6.94,0,0,0,6.95,6.94m0-13.89a7,7,0,0,0-6.95,6.95"/><path class="cls-3" d="M101,136a7,7,0,0,0,6.95,6.95m0-13.89A7,7,0,0,0,101,136"/><path class="cls-3" d="M101,150.16a7,7,0,0,0,6.95,6.95m0-13.89a6.94,6.94,0,0,0-6.95,6.94"/><path class="cls-3" d="M122.12,22.46a7,7,0,0,0,6.95-6.95"/><path class="cls-3" d="M122.12,36.63a6.94,6.94,0,0,0,6.95-6.94"/><path class="cls-3" d="M122.12,50.81a7,7,0,0,0,6.95-6.95"/><path class="cls-3" d="M122.12,65A7,7,0,0,0,129.06,58"/><path class="cls-3" d="M122.12,79.15a6.94,6.94,0,0,0,6.95-6.94"/><path class="cls-3" d="M122.12,93.33a7,7,0,0,0,6.95-6.95"/><path class="cls-3" d="M122.12,107.5a6.94,6.94,0,0,0,6.95-6.94"/><path class="cls-3" d="M122.12,121.67a6.94,6.94,0,0,0,6.95-6.94"/><path class="cls-3" d="M122.12,135.85a7,7,0,0,0,6.95-6.95"/><path class="cls-3" d="M122.12,150a6.94,6.94,0,0,0,6.95-6.94"/><path class="cls-3" d="M129.06,29.69a7,7,0,0,0-6.95-6.95"/><path class="cls-3" d="M129.06,43.86a7,7,0,0,0-6.95-6.95"/><path class="cls-3" d="M129.06,58a6.94,6.94,0,0,0-6.95-6.94"/><path class="cls-3" d="M129.06,72.21a7,7,0,0,0-6.95-6.95"/><path class="cls-3" d="M129.06,86.38a6.94,6.94,0,0,0-6.95-6.94"/><path class="cls-3" d="M129.06,100.55a7,7,0,0,0-6.95-6.95"/><path class="cls-3" d="M129.06,114.73a7,7,0,0,0-6.95-6.95"/><path class="cls-3" d="M129.06,128.9a6.94,6.94,0,0,0-6.95-6.94"/><path class="cls-3" d="M129.06,143.07a7,7,0,0,0-6.95-6.95"/><path class="cls-3" d="M129.06,157.25a6.94,6.94,0,0,0-6.95-6.94"/><path class="cls-3" d="M100.86,15.51V157.25m21.26-6.94-14.17,6.8m14.17-21-14.17,6.8m14.17-21-14.17,6.8m14.17-21-14.17,6.8m14.17-21-14.17,6.8m14.17-21-14.17,6.8m14.17-21-14.17,6.8m14.17-21-14.17,6.8m14.17-21-14.17,6.8m14.17-21-14.17,6.8m0,113.67,14.17,6.8m-14.17-21,14.17,6.8m-14.17-21,14.17,6.8m-14.17-21,14.17,6.8m-14.17-21,14.17,6.8m-14.17-21,14.17,6.8m-14.17-21L122.12,65M107.95,44l14.17,6.8m-14.17-21,14.17,6.8m-14.17-21,14.17,6.8"/><g class="cls-4"><text class="cls-5" transform="translate(39.47 108.25) rotate(-90)">InterfaceA</text></g><g class="cls-4"><text class="cls-5" transform="translate(133.74 59.78) rotate(90)">InterfaceB</text></g><line class="cls-6" x1="44.17" y1="15.25" x2="44.17" y2="18.25"/><line class="cls-7" x1="44.17" y1="20.23" x2="44.17" y2="153.6"/><line class="cls-6" x1="44.17" y1="154.58" x2="44.17" y2="157.58"/><line class="cls-6" x1="129.06" y1="15.27" x2="129.06" y2="18.27"/><line class="cls-7" x1="129.06" y1="20.25" x2="129.06" y2="153.62"/><line class="cls-6" x1="129.06" y1="154.61" x2="129.06" y2="157.61"/><line class="cls-8" x1="15.84" y1="15.25" x2="18.84" y2="15.25"/><line class="cls-9" x1="20.81" y1="15.25" x2="153.94" y2="15.25"/><line class="cls-8" x1="154.93" y1="15.25" x2="157.93" y2="15.25"/><line class="cls-8" x1="19.84" y1="157.58" x2="22.84" y2="157.58"/><line class="cls-9" x1="24.81" y1="157.58" x2="157.94" y2="157.58"/><line class="cls-8" x1="158.93" y1="157.58" x2="161.93" y2="157.58"/></svg>