<svg id="Ebene_1" data-name="Ebene 1" xmlns="http://www.w3.org/2000/svg" xmlns:xlink="http://www.w3.org/1999/xlink" viewBox="0 0 197.7 163.5"><defs><style>.cls-1,.cls-2,.cls-5,.cls-6{fill:none;}.cls-1{clip-rule:evenodd;}.cls-2{stroke:#000;stroke-linecap:round;stroke-linejoin:round;stroke-width:0.71px;}.cls-3{clip-path:url(#clip-path);}.cls-4{font-size:18px;font-family:Cambria, Cambria;}.cls-4,.cls-7{fill:#630;}.cls-6{stroke:#630;stroke-miterlimit:10;stroke-width:2px;}.cls-8{font-size:12px;font-family:MyriadPro-Regular, Myriad Pro;}</style><clipPath id="clip-path"><polyline class="cls-1" points="-68.3 254.01 -68.3 -587.9 526.98 -587.9 526.98 254.01 -68.3 254.01"/></clipPath></defs><title>longwaverad-print</title><path class="cls-2" d="M59.27,132.62l4-4M53.85,138l4-4m-9.42,9.42,4-4M43,148.85l4-4m-8.32,8.32,2.91-2.91m50.71-38.69,3.07-3.07M86.93,117l4-4m-9.42,9.42,4-4m-9.42,9.42,4-4m-9.42,9.42,4-4m-9.42,9.42,4-4M59.87,144l4-4m-9.42,9.42,4-4m-7.8,7.8,2.39-2.39M92.94,123l2.47-2.47m-7.88,7.88,4-4m-9.42,9.42,4-4m-9.42,9.42,4-4m-9.42,9.42,4-4m-9.42,9.42,4-4m-7.2,7.2,1.79-1.79m29.06-17,1.87-1.87m-7.28,7.28,4-4m-9.42,9.42,4-4m-9.42,9.42,4-4m-6.6,6.6,1.19-1.19m18.24-6.21,1.27-1.27m-6.68,6.68,4-4m-6,6,.58-.58M38.72,14.86l3.35-3.35M38.72,26.89,54.09,11.51M38.72,38.92l27.4-27.4M38.72,50.94,78.15,11.51M38.72,63,90.17,11.51M38.72,75,95.41,18.3M38.72,87,95.41,30.33M38.72,99,95.41,42.36M38.72,111.07,95.41,54.38M38.72,123.1,95.41,66.41M38.72,135.13,95.41,78.43M38.72,147.15,95.41,90.46M44.65,153.25l50.76-50.76M56.68,153.25l38.73-38.73M68.7,153.25l26.71-26.71M80.73,153.25l14.68-14.68m-2.65,14.68,2.65-2.65M38.72-219.65l.5-.5m7.42,4.61,4-4m-9.42,9.42,4-4m-6.52,6.52,1.11-1.1"/><path class="cls-2" d="M83.92,59.86l4-4m-9.42,9.42,4-4M73.1,70.68l4-4m-9.42,9.42,4-4m-9.42,9.42,4-4m-9.42,9.42,4-4m-9.42,9.42,4-4M46,97.74l4-4m-9.42,9.42,4-4m-5.92,5.92.5-.5m56.12-44.1.07-.07m-5.48,5.48,4-4m-9.42,9.42,4-4M79.11,76.7l4-4M73.7,82.11l4-4m-9.42,9.42,4-4m-9.42,9.42,4-4m-9.42,9.42,4-4m-9.42,9.42,4-4m-9.42,9.42,4-4m-9.42,9.42,4-4m-6.52,6.52L39.82,116M90.54,77.3l4-4m-9.42,9.42,4-4m-9.42,9.42,4-4M74.3,93.53l4-4m-9.42,9.42,4-4m-9.42,9.42,4-4m-9.42,9.42,4-4m-9.42,9.42,4-4m-9.42,9.42,4-4M41.83,126l4-4m-7.12,7.12,1.71-1.71M91.14,88.72l4-4m-9.42,9.42,4-4m-9.42,9.42,4-4M74.9,105l4-4m-9.42,9.42,4-4m-9.42,9.42,4-4m-9.42,9.42,4-4m-9.42,9.42,4-4M47.84,132l4-4m-9.42,9.42,4-4m-7.72,7.72L41,138.83m50.71-38.68,3.67-3.67m-9.09,9.09,4-4M80.91,111l4-4m-9.42,9.42,4-4m-9.42,9.42,4-4m-9.42,9.42,4-4"/><path class="cls-2" d="M64.68,19l4-4m-9.42,9.42,4-4m-9.42,9.42,4-4m-9.42,9.42,4-4M43,40.62l4-4m-8.32,8.32L41.63,42M81.52,14.16l2.64-2.64M76.1,19.57l4-4M70.69,25l4-4m-9.42,9.42,4-4m-9.42,9.42,4-4m-9.42,9.42,4-4M49,46.63l4-4M43.63,52l4-4M38.72,57l3.51-3.51M92.94,14.76l2.47-2.47m-7.88,7.88,4-4m-9.42,9.42,4-4M76.71,31l4-4m-9.42,9.42,4-4m-9.42,9.42,4-4m-9.42,9.42,4-4m-9.42,9.42,4-4m-9.42,9.42,4-4m-9.42,9.42,4-4m-9.42,9.42,4-4M93.54,26.19l1.87-1.87M88.13,31.6l4-4M82.72,37l4-4m-9.42,9.42,4-4m-9.42,9.42,4-4m-9.42,9.42,4-4m-9.42,9.42,4-4m-9.42,9.42,4-4m-9.42,9.42,4-4m-9.42,9.42,4-4M39.42,80.3l4-4M94.14,37.61l1.27-1.27M88.73,43l4-4m-9.42,9.42,4-4m-9.42,9.42,4-4M72.5,59.26l4-4m-9.42,9.42,4-4m-9.42,9.42,4-4m-9.42,9.42,4-4m-9.42,9.42,4-4m-9.42,9.42,4-4M40,91.73l4-4M94.74,49l.67-.67m-6.08,6.08,4-4"/><path class="cls-2" d="M363.35,153.25l3-3m50.71-38.69,1.51-1.51M411.64,117l4-4m-9.42,9.42,4-4m-9.42,9.42,4-4m-9.42,9.42,4-4M390,138.63l4-4M384.58,144l4-4m-9.42,9.42,4-4m-7.8,7.8,2.39-2.39M417.65,123l.91-.91m-6.32,6.32,4-4m-9.42,9.42,4-4m-9.42,9.42,4-4M396,144.65l4-4m-9.42,9.42,4-4m-7.2,7.2,1.79-1.79m29.06-17,.31-.31m-5.72,5.72,4-4m-9.42,9.42,4-4M402,150.66l4-4m-6.6,6.6,1.19-1.19m12.83-.8,4-4m-6,6,.58-.58M361.87,16.43l4.91-4.91m-4.91,16.94,16.94-16.94m-16.94,29,29-29m-29,41,41-41m-41,53,53-53m-53,65,56.69-56.69M361.87,88.58l56.69-56.69m-56.69,68.72,56.69-56.69m-56.69,68.72,56.69-56.69m-56.69,68.72L418.56,68m-56.69,68.72L418.56,80m-56.69,68.72L418.56,92m-49.2,61.22,49.2-49.2m-37.17,49.2,37.17-37.17m-25.14,37.17,25.14-25.14m-13.12,25.14,13.12-13.12m-1.09,13.12,1.09-1.09M47.24,12.36l.84-.84m-6.25,6.25,4-4m-7.12,7.12,1.71-1.71M58.67,13l1.44-1.44m-6.85,6.85,4-4m-9.42,9.42,4-4m-9.42,9.42,4-4M38.72,32.9,41,30.59m29.06-17,2-2"/><path class="cls-2" d="M146,11.51h5.67m-13.32,0H144m-13.32,0h5.67m-13.32,0h5.67m-13.32,0h5.67m-13.32,0h5.67m-13.32,0h5.67m-13.32,0H98.1m-13.32,0h5.67m-13.32,0h5.67m-13.32,0h5.67m-13.32,0h5.67m-13.32,0h5.67m-13.32,0h5.67m-13.32,0h5.67m-13.32,0h5.67m-13.32,0h5.67m-13.32,0h5.67m-11.19,0h3.53"/><rect x="10.12" y="11.26" width="0.5" height="0.5" transform="translate(-5.1 10.72) rotate(-45.03)"/><rect x="151.85" y="11.26" width="0.5" height="0.5" transform="translate(36.46 110.99) rotate(-45.03)"/><path class="cls-2" d="M146,153.25h5.67m-13.32,0H144m-13.32,0h5.67m-13.32,0h5.67m-13.32,0h5.67m-13.32,0h5.67m-13.32,0h5.67m-13.32,0H98.1m-13.32,0h5.67m-13.32,0h5.67m-13.32,0h5.67m-13.32,0h5.67m-13.32,0h5.67m-13.32,0h5.67m-13.32,0h5.67m-13.32,0h5.67m-13.32,0h5.67m-13.32,0h5.67m-11.19,0h3.53"/><rect x="10.12" y="153" width="0.5" height="0.5" transform="translate(-105.4 52.3) rotate(-45.04)"/><rect x="151.85" y="153" width="0.5" height="0.5" transform="translate(-63.81 152.59) rotate(-45.04)"/><path class="cls-2" d="M95.55,18.6a6.94,6.94,0,0,0,6.94,6.94m0-13.89a7,7,0,0,0-6.94,6.95"/><path class="cls-2" d="M95.55,32.77a6.94,6.94,0,0,0,6.94,6.95m0-13.89a6.94,6.94,0,0,0-6.94,6.94"/><path class="cls-2" d="M95.55,46.95a6.94,6.94,0,0,0,6.94,6.94m0-13.89a6.94,6.94,0,0,0-6.94,6.95"/><path class="cls-2" d="M95.55,61.12a6.94,6.94,0,0,0,6.94,6.95m0-13.89a6.94,6.94,0,0,0-6.94,6.95"/><path class="cls-2" d="M95.55,75.29a7,7,0,0,0,6.94,6.95m0-13.89a6.94,6.94,0,0,0-6.94,6.94"/><path class="cls-2" d="M95.55,89.47a6.94,6.94,0,0,0,6.94,6.94m0-13.89a6.94,6.94,0,0,0-6.94,6.95"/><path class="cls-2" d="M95.55,103.64a6.94,6.94,0,0,0,6.94,6.95m0-13.89a6.94,6.94,0,0,0-6.94,6.94"/><path class="cls-2" d="M95.55,117.81a6.94,6.94,0,0,0,6.94,6.94m0-13.89a7,7,0,0,0-6.94,6.95"/><path class="cls-2" d="M95.55,132a6.94,6.94,0,0,0,6.94,6.95m0-13.89A6.94,6.94,0,0,0,95.55,132"/><path class="cls-2" d="M95.55,146.16a6.94,6.94,0,0,0,6.94,6.95m0-13.89a6.94,6.94,0,0,0-6.94,6.94"/><path class="cls-2" d="M116.67,18.46a7,7,0,0,0,6.94-6.95"/><path class="cls-2" d="M116.67,32.63a6.94,6.94,0,0,0,6.94-6.94"/><path class="cls-2" d="M116.67,46.81a7,7,0,0,0,6.94-6.95"/><path class="cls-2" d="M116.67,61A7,7,0,0,0,123.62,54"/><path class="cls-2" d="M116.67,75.15a6.94,6.94,0,0,0,6.94-6.94"/><path class="cls-2" d="M116.67,89.33a7,7,0,0,0,6.94-6.95"/><path class="cls-2" d="M116.67,103.5a6.94,6.94,0,0,0,6.94-6.94"/><path class="cls-2" d="M116.67,117.67a6.94,6.94,0,0,0,6.94-6.94"/><path class="cls-2" d="M116.67,131.85a7,7,0,0,0,6.94-6.95"/><path class="cls-2" d="M116.67,146a6.94,6.94,0,0,0,6.94-6.94"/><path class="cls-2" d="M123.62,25.69a7,7,0,0,0-6.94-6.95"/><path class="cls-2" d="M123.62,39.86a7,7,0,0,0-6.94-6.95"/><path class="cls-2" d="M123.62,54a6.94,6.94,0,0,0-6.94-6.94"/><path class="cls-2" d="M123.62,68.21a7,7,0,0,0-6.94-6.95"/><path class="cls-2" d="M123.62,82.38a6.94,6.94,0,0,0-6.94-6.94"/><path class="cls-2" d="M123.62,96.55a7,7,0,0,0-6.94-6.95"/><path class="cls-2" d="M123.62,110.73a7,7,0,0,0-6.94-6.95"/><path class="cls-2" d="M123.62,124.9a6.94,6.94,0,0,0-6.94-6.94"/><path class="cls-2" d="M123.62,139.07a7,7,0,0,0-6.94-6.95"/><path class="cls-2" d="M123.62,153.25a6.94,6.94,0,0,0-6.94-6.94"/><g class="cls-3"><text class="cls-4" transform="translate(156.8 77.15)">Ɛ</text></g><path class="cls-2" d="M123.75,11.63V153.37M95.41,11.63V153.37M38.71,11.63V153.37m78-6.95-14.17,6.8m14.17-21-14.17,6.8m14.17-21-14.17,6.8m14.17-21-14.17,6.8m14.17-21-14.17,6.8m14.17-21-14.17,6.8m14.17-21-14.17,6.8m14.17-21L102.49,54m14.17-21-14.17,6.8m14.17-21-14.17,6.8m0,113.67,14.17,6.8m-14.17-21,14.17,6.8m-14.17-21,14.17,6.8m-14.17-21,14.17,6.8m-14.17-21,14.17,6.8m-14.17-21,14.17,6.8m-14.17-21,14.17,6.8m-14.17-21,14.17,6.8M102.49,26l14.17,6.8m-14.17-21,14.17,6.8"/><line class="cls-5" x1="141.41" y1="59.33" x2="152.79" y2="47.41"/><path class="cls-6" d="M133.45,68.42c1.68.47,3.36.86,5.18-.41,3.85-2.66.62-7.32,4.47-10s7.07,2,10.92-.66.62-7.32,4.47-10,7.07,2,10.92-.66.63-7.33,4.48-10c1.83-1.26,3.51-.88,5.19-.41"/><polygon class="cls-7" points="134.64 72.63 127.72 68.67 134.6 64.65 134.64 72.63"/><polygon class="cls-7" points="177.93 40.1 184.81 36.08 177.89 32.13 177.93 40.1"/><text class="cls-8" transform="translate(131.6 146.54)">out</text><text class="cls-8" transform="translate(17.12 146.06)">in</text></svg>