<svg id="Ebene_1" data-name="Ebene 1" xmlns="http://www.w3.org/2000/svg" viewBox="0 0 184 155.5"><defs><style>.cls-1,.cls-2{fill:none;stroke-linecap:round;stroke-linejoin:round;}.cls-1{stroke:#000;stroke-width:0.71px;}.cls-2{stroke:#e7be2b;stroke-width:2px;}.cls-3,.cls-4{fill:#e7be2b;}.cls-4{font-size:18px;}.cls-4,.cls-5{font-family:MyriadPro-Regular, Myriad Pro;}.cls-5{font-size:12px;}</style></defs><title>shortwaverad-print</title><path class="cls-1" d="M-277,132.12l4-4m-9.42,9.42,4-4m-7.12,7.12,1.71-1.71m50.71-38.68,4-4m-9.42,9.42,4-4m-9.42,9.42,4-4m-9.42,9.42,4-4m-9.42,9.42,4-4m-9.42,9.42,4-4m-9.42,9.42,4-4m-9.42,9.42,4-4m-9.42,9.42,4-4m-9.27,9.27,3.86-3.86m45.3-33.27,3.67-3.67m-9.09,9.09,4-4m-9.42,9.42,4-4m-9.42,9.42,4-4m-9.42,9.42,4-4m-9.42,9.42,4-4m-9.42,9.42,4-4m-8.67,8.67,3.26-3.26m34.48-22.45,3.07-3.07m-8.48,8.48,4-4m-9.42,9.42,4-4m-9.42,9.42,4-4m-9.42,9.42,4-4m-8.07,8.07,2.66-2.66m23.65-11.63,2.47-2.47m-7.88,7.88,4-4m-9.42,9.42,4-4m-7.47,7.47,2.06-2.06m12.83-.8,1.87-1.87m-4.73,4.73,1.46-1.46m-53.42-133,7.29-7.29m-7.29,19.31,19.31-19.31m-19.31,31.34,31.34-31.34m-31.34,43.37,43.37-43.37m-43.37,55.39,55.39-55.39m-55.39,67.42,56.69-56.69m-56.69,68.72,56.69-56.69m-56.69,68.72,56.69-56.69m-56.69,68.72,56.69-56.69m-56.69,68.72,56.69-56.69m-56.69,68.72,56.69-56.69m-56.69,68.72L-228.79,90m-46.82,58.85L-228.79,102m-34.79,46.82L-228.79,114m-22.77,34.79L-228.79,126m-10.74,22.77,10.74-10.74m242-452.5.71-.71"/><path class="cls-1" d="M43.09,148.81l3.86-3.86m45.3-33.27,2.11-2.11m-7.52,7.52,4-4m-9.42,9.42,4-4M76,127.91l4-4m-9.42,9.42,4-4m-9.42,9.42,4-4m-9.42,9.42,4-4m-8.67,8.67,3.26-3.26M92.85,123.1l1.51-1.51m-6.92,6.92,4-4M82,133.92l4-4m-9.42,9.42,4-4m-9.42,9.42,4-4m-8.07,8.07,2.66-2.66m23.65-11.63.91-.91M88,139.93l4-4m-9.42,9.42,4-4m-7.47,7.47,2.06-2.06m12.83-.8.31-.31m-3.17,3.17,1.46-1.46m-55-131.43,8.85-8.85M37.67,28,58.54,7.07M37.67,40l32.9-32.9M37.67,52,82.6,7.07M37.67,64,94.36,7.34M37.67,76.06,94.36,19.36M37.67,88.08,94.36,31.39M37.67,100.11,94.36,43.42M37.67,112.14,94.36,55.44M37.67,124.16,94.36,67.47M37.67,136.19,94.36,79.5M37.67,148.21,94.36,91.52M49.1,148.81l45.26-45.26M61.13,148.81l33.23-33.23M73.15,148.81l21.21-21.2m-9.18,21.2,9.18-9.18M47.75,240.36l.84-.84m-6.25,6.25,4-4m-8.68,8.68,3.27-3.27M59.18,241l1.44-1.44m-6.85,6.85,4-4m-9.42,9.42,4-4m-9.42,9.42,4-4m-9.28,9.28,3.87-3.87m29.06-17,2-2M65.19,247l4-4m-9.42,9.42,4-4m-9.42,9.42,4-4M49,263.21l4-4"/><path class="cls-1" d="M73,70.78l4-4M67.59,76.2l4-4m-9.42,9.42,4-4M56.77,87l4-4m-9.42,9.42,4-4m-9.42,9.42,4-4m-9.42,9.42,4-4m-6.88,6.88,1.46-1.47M89.84,66l4-4m-9.42,9.42,4-4M79,76.8l4-4m-9.42,9.42,4-4M68.2,87.62l4-4M62.78,93l4-4m-9.42,9.42,4-4M52,103.86l4-4m-9.42,9.42,4-4m-9.42,9.42,4-4m-7.48,7.48,2.07-2.07M90.44,77.4l3.92-3.92M85,82.81l4-4m-9.42,9.42,4-4m-9.42,9.42,4-4M68.8,99l4-4m-9.42,9.42,4-4M58,109.87l4-4m-9.42,9.42,4-4m-9.42,9.42,4-4m-9.42,9.42,4-4m-8.08,8.08,2.67-2.67M91,88.82l3.31-3.31m-8.73,8.73,4-4m-9.42,9.42,4-4m-9.42,9.42,4-4m-9.42,9.42,4-4M64,115.88l4-4m-9.42,9.42,4-4m-9.42,9.42,4-4m-9.42,9.42,4-4m-9.42,9.42,4-4m-8.68,8.68,3.27-3.27m50.71-38.68,2.71-2.71m-8.12,8.12,4-4m-9.42,9.42,4-4m-9.42,9.42,4-4M70,121.9l4-4m-9.42,9.42,4-4m-9.42,9.42,4-4m-9.42,9.42,4-4m-9.42,9.42,4-4"/><path class="cls-1" d="M42.94,40.72l4-4M37.67,46l3.87-3.87M86.84,8.85l1.77-1.77m-7.19,7.19,4-4M76,19.67l4-4M70.6,25.08l4-4m-9.42,9.42,4-4m-9.42,9.42,4-4m-9.42,9.42,4-4M49,46.73l4-4m-9.42,9.42,4-4m-9.42,9.42,4-4M92.85,14.86l1.51-1.51m-6.92,6.92,4-4M82,25.68l4-4M76.61,31.1l4-4M71.2,36.51l4-4m-9.42,9.42,4-4m-9.42,9.42,4-4M55,52.74l4-4m-9.42,9.42,4-4m-9.42,9.42,4-4M38.73,69l4-4M93.45,26.29l.91-.91M88,31.7l4-4m-9.42,9.42,4-4m-9.42,9.42,4-4M71.8,47.93l4-4m-9.42,9.42,4-4M61,58.76l4-4m-9.42,9.42,4-4m-9.42,9.42,4-4M44.74,75l4-4M39.33,80.4l4-4m-5.67,5.67.26-.26m56.12-44.1.31-.31m-5.72,5.72,4-4m-9.42,9.42,4-4m-9.42,9.42,4-4m-9.42,9.42,4-4M67,64.77l4-4m-9.42,9.42,4-4m-9.42,9.42,4-4M50.76,81l4-4m-9.42,9.42,4-4m-9.42,9.42,4-4M37.67,94.1l.86-.86M89.24,54.55l4-4M83.83,60l4-4m-9.42,9.42,4-4"/><path class="cls-1" d="M37.67,9.91l2.07-2.07m7.42,4.61,4-4m-9.42,9.42,4-4m-8.08,8.08,2.67-2.67M64,7.64l.57-.57m-6,6,4-4m-9.42,9.42,4-4m-9.42,9.42,4-4m-9.42,9.42,4-4M37.67,34l3.27-3.27M75.41,8.25l1.17-1.17M70,13.66l4-4m-9.42,9.42,4-4m-9.42,9.42,4-4m-9.42,9.42,4-4m-9.42,9.42,4-4"/><path class="cls-1" d="M-178.2,7.07h5.67m-13.32,0h5.67m-13.32,0h5.67m-13.32,0h5.67m-13.32,0h5.67m-13.32,0h5.67m-13.32,0h5.67m-13.32,0h5.67m-13.32,0h5.67m-13.32,0h5.67m-13.32,0h5.67m-13.32,0h5.67m-13.32,0h5.67m-13.32,0H-272m-13.32,0h5.67m-13.32,0h5.67m-13.32,0H-295m-13.32,0h5.67m-11.19,0h3.53M91.2-180.36,77-173.56m14.17-21L77-187.73m14.17-21L77-201.9m14.17-21L77-216.08m14.17-21L77-230.25m14.17-21L77-244.42m14.17-21L77-258.6m14.17-21L77-272.77m14.17-21L77-286.94m14.17-21L77-301.12m0,113.67,14.17,6.8M77-201.62l14.17,6.8M77-215.79,91.2-209M77-230l14.17,6.8M77-244.14l14.17,6.8M77-258.31l14.17,6.8M77-272.49l14.17,6.8M77-286.66l14.17,6.8M77-300.83,91.2-294M77-315l14.17,6.8"/><path class="cls-1" d="M150.9,7.07h.15m-7.8,0h5.67m-13.32,0h5.67m-13.32,0h5.67m-13.32,0H126m-13.32,0h5.67M105,7.07h5.67m-13.32,0H103m-13.32,0h5.67M82,7.07h5.67m-13.32,0H80m-13.32,0h5.67m-13.32,0h5.67m-13.32,0h5.67m-13.32,0h5.67m-13.32,0h5.67m-13.32,0h5.67m-13.32,0h5.67m-13.32,0h5.67m-9.49,0h1.83m-211.6,0V148.81M-228.79,7.07V148.81M-285.48,7.07V148.81m78-6.95-14.17,6.8m14.17-21-14.17,6.8m14.17-21-14.17,6.8m14.17-21-14.17,6.8m14.17-21L-221.7,92m14.17-21-14.17,6.8m14.17-21-14.17,6.8m14.17-21-14.17,6.8m14.17-21-14.17,6.8m14.17-21-14.17,6.8m0,113.67,14.17,6.8m-14.17-21,14.17,6.8m-14.17-21,14.17,6.8m-14.17-21,14.17,6.8m-14.17-21,14.17,6.8m-14.17-21,14.17,6.8m-14.17-21,14.17,6.8m-14.17-21,14.17,6.8m-14.17-21,14.17,6.8m-14.17-21,14.17,6.8"/><rect x="9.07" y="6.82" width="0.5" height="0.5" transform="translate(-2.27 8.65) rotate(-44.96)"/><rect x="150.8" y="6.82" width="0.5" height="0.5" transform="translate(39.17 108.8) rotate(-44.96)"/><path class="cls-1" d="M150.9,148.81h.15m-7.8,0h5.67m-13.32,0h5.67m-13.32,0h5.67m-13.32,0H126m-13.32,0h5.67m-13.32,0h5.67m-13.32,0H103m-13.32,0h5.67m-13.32,0h5.67m-13.32,0H80m-13.32,0h5.67m-13.32,0h5.67m-13.32,0h5.67m-13.32,0h5.67m-13.32,0h5.67m-13.32,0h5.67m-13.32,0h5.67m-13.32,0h5.67m-9.49,0h1.83"/><rect x="9.07" y="148.56" width="0.5" height="0.5" transform="translate(-102.49 50.17) rotate(-45)"/><rect x="150.8" y="148.56" width="0.5" height="0.5" transform="translate(-60.98 150.39) rotate(-45)"/><path class="cls-1" d="M94.36,7.07V148.81M122.71,7.07V148.81M37.67,7.07V148.81"/><path class="cls-1" d="M94.5,14.16a7,7,0,0,0,6.95,6.94m0-13.89a7,7,0,0,0-6.95,6.94"/><path class="cls-1" d="M94.5,28.33a7,7,0,0,0,6.95,6.94m0-13.89a7,7,0,0,0-6.95,6.95"/><path class="cls-1" d="M94.5,42.51a6.94,6.94,0,0,0,6.95,6.94m0-13.89a7,7,0,0,0-6.95,6.94"/><path class="cls-1" d="M94.5,56.68a7,7,0,0,0,6.95,6.94m0-13.89a6.94,6.94,0,0,0-6.95,6.94"/><path class="cls-1" d="M94.5,70.85a7,7,0,0,0,6.95,6.95m0-13.89a7,7,0,0,0-6.95,6.95"/><path class="cls-1" d="M94.5,85A7,7,0,0,0,101.45,92m0-13.89A6.94,6.94,0,0,0,94.5,85"/><path class="cls-1" d="M94.5,99.2a6.94,6.94,0,0,0,6.95,6.94m0-13.89A7,7,0,0,0,94.5,99.2"/><path class="cls-1" d="M94.5,113.37a7,7,0,0,0,6.95,6.95m0-13.89a6.94,6.94,0,0,0-6.95,6.94"/><path class="cls-1" d="M94.5,127.55a7,7,0,0,0,6.95,6.95m0-13.89a6.94,6.94,0,0,0-6.95,6.94"/><path class="cls-1" d="M94.5,141.72a6.94,6.94,0,0,0,6.95,6.94m0-13.89a7,7,0,0,0-6.95,6.95"/><path class="cls-1" d="M115.62,14a6.94,6.94,0,0,0,6.95-6.94"/><path class="cls-1" d="M115.62,28.19a7,7,0,0,0,6.95-6.94"/><path class="cls-1" d="M115.62,42.37a7,7,0,0,0,6.95-6.94"/><path class="cls-1" d="M115.62,56.54a7,7,0,0,0,6.95-6.94"/><path class="cls-1" d="M115.62,70.71a7,7,0,0,0,6.95-6.95"/><path class="cls-1" d="M115.62,84.88a6.94,6.94,0,0,0,6.95-6.94"/><path class="cls-1" d="M115.62,99.06a7,7,0,0,0,6.95-6.95"/><path class="cls-1" d="M115.62,113.23a7,7,0,0,0,6.95-6.95"/><path class="cls-1" d="M115.62,127.4a6.94,6.94,0,0,0,6.95-6.94"/><path class="cls-1" d="M115.62,141.58a7,7,0,0,0,6.95-6.95"/><path class="cls-1" d="M122.56,21.25a7,7,0,0,0-6.95-6.94"/><path class="cls-1" d="M122.56,35.42a7,7,0,0,0-6.95-6.94"/><path class="cls-1" d="M122.56,49.59a6.94,6.94,0,0,0-6.95-6.94"/><path class="cls-1" d="M122.56,63.77a7,7,0,0,0-6.95-6.94"/><path class="cls-1" d="M122.56,77.94A7,7,0,0,0,115.62,71"/><path class="cls-1" d="M122.56,92.11a7,7,0,0,0-6.95-6.95"/><path class="cls-1" d="M122.56,106.29a6.94,6.94,0,0,0-6.95-6.94"/><path class="cls-1" d="M122.56,120.46a7,7,0,0,0-6.95-6.95"/><path class="cls-1" d="M122.56,134.63a6.94,6.94,0,0,0-6.95-6.94"/><path class="cls-1" d="M122.56,148.81a7,7,0,0,0-6.95-6.95"/><path class="cls-1" d="M115.62,141.86l-14.17,6.8m14.17-21-14.17,6.8m14.17-21-14.17,6.8m14.17-21-14.17,6.8m14.17-21L101.45,92m14.17-21-14.17,6.8m14.17-21-14.17,6.8m14.17-21-14.17,6.8m14.17-21-14.17,6.8m14.17-21-14.17,6.8m0,113.67,14.17,6.8m-14.17-21,14.17,6.8m-14.17-21,14.17,6.8m-14.17-21,14.17,6.8m-14.17-21,14.17,6.8m-14.17-21,14.17,6.8m-14.17-21,14.17,6.8m-14.17-21,14.17,6.8m-14.17-21,14.17,6.8m-14.17-21L115.62,14"/><line class="cls-2" x1="171.34" y1="32.99" x2="132.07" y2="64.76"/><polygon class="cls-3" points="130.47 60.92 127.6 68.37 135.48 67.13 130.47 60.92"/><line class="cls-2" x1="171.34" y1="19.93" x2="132.07" y2="51.7"/><polygon class="cls-3" points="130.47 47.87 127.6 55.31 135.48 54.07 130.47 47.87"/><line class="cls-2" x1="171.34" y1="4.97" x2="132.07" y2="36.74"/><polygon class="cls-3" points="130.47 32.9 127.6 40.35 135.48 39.1 130.47 32.9"/><text class="cls-4" transform="translate(154.08 67.24)">a</text><text class="cls-5" transform="translate(130.97 141.82)">out</text><text class="cls-5" transform="translate(16.48 141.34)">in</text></svg>