<?xml version="1.0" encoding="UTF-8" standalone="no"?>
<svg width="213.431mm" height="160.161mm"
 viewBox="0 0 604.724 453.543"
 xmlns="http://www.w3.org/2000/svg" xmlns:xlink="http://www.w3.org/1999/xlink"  version="1.2" baseProfile="tiny">
<title>Qt SVG Document</title>
<desc>Generated with Qt</desc>
<defs>
</defs>
<g fill="none" stroke="black" stroke-width="1" fill-rule="evenodd" stroke-linecap="square" stroke-linejoin="bevel" >

<g fill="#ffffff" fill-opacity="1" stroke="none" transform="matrix(1,0,0,1,0,0)"
font-family="MS Shell Dlg 2" font-size="9" font-weight="400" font-style="normal" 
>
<rect x="0" y="0" width="604.724" height="453.543"/>
</g>

<g fill="none" stroke="#000000" stroke-opacity="1" stroke-width="1" stroke-linecap="square" stroke-linejoin="bevel" transform="matrix(1,0,0,1,0,0)"
font-family="MS Shell Dlg 2" font-size="9" font-weight="400" font-style="normal" 
>
</g>

<g fill="none" stroke="#000000" stroke-opacity="1" stroke-width="1" stroke-linecap="square" stroke-linejoin="bevel" transform="matrix(0.75,0,0,0.75,0,0)"
font-family="MS Shell Dlg 2" font-size="9" font-weight="400" font-style="normal" 
>
</g>

<g fill="none" stroke="#000000" stroke-opacity="1" stroke-width="1" stroke-linecap="square" stroke-linejoin="bevel" transform="matrix(0.75,0,0,0.75,0,0)"
font-family="MS Shell Dlg 2" font-size="9" font-weight="400" font-style="normal" 
>
</g>

<g fill="none" stroke="#a0a0a4" stroke-opacity="1" stroke-width="0.5" stroke-linecap="butt" stroke-linejoin="bevel" transform="matrix(0.75,0,0,0.75,0,0)"
font-family="MS Shell Dlg 2" font-size="9" font-weight="400" font-style="normal" 
>
<polyline fill="none" vector-effect="none" points="194.538,26 194.538,568.724 " />
<polyline fill="none" vector-effect="none" points="365.271,26 365.271,568.724 " />
<polyline fill="none" vector-effect="none" points="536.004,26 536.004,568.724 " />
<polyline fill="none" vector-effect="none" points="706.737,26 706.737,568.724 " />
<polyline fill="none" vector-effect="none" points="36,568.724 804.299,568.724 " />
<polyline fill="none" vector-effect="none" points="36,460.18 804.299,460.18 " />
<polyline fill="none" vector-effect="none" points="36,351.635 804.299,351.635 " />
<polyline fill="none" vector-effect="none" points="36,243.09 804.299,243.09 " />
<polyline fill="none" vector-effect="none" points="36,134.545 804.299,134.545 " />
<polyline fill="none" vector-effect="none" points="36,26 804.299,26 " />
</g>

<g fill="none" stroke="#000000" stroke-opacity="1" stroke-width="1" stroke-linecap="square" stroke-linejoin="bevel" transform="matrix(0.75,0,0,0.75,0,0)"
font-family="MS Shell Dlg 2" font-size="9" font-weight="400" font-style="normal" 
>
</g>

<g fill="none" stroke="#000000" stroke-opacity="1" stroke-width="1" stroke-linecap="square" stroke-linejoin="bevel" transform="matrix(0.75,0,0,0.75,0,0)"
font-family="MS Shell Dlg 2" font-size="9" font-weight="400" font-style="normal" 
>
</g>

<g fill="none" stroke="#000000" stroke-opacity="1" stroke-width="0.5" stroke-linecap="square" stroke-linejoin="bevel" transform="matrix(0.75,0,0,0.75,0,0)"
font-family="MS Shell Dlg 2" font-size="9" font-weight="400" font-style="normal" 
>
<polyline fill="none" vector-effect="none" points="109.171,568.724 109.171,564.724 " />
<polyline fill="none" vector-effect="none" points="279.905,568.724 279.905,564.724 " />
<polyline fill="none" vector-effect="none" points="450.638,568.724 450.638,564.724 " />
<polyline fill="none" vector-effect="none" points="621.371,568.724 621.371,564.724 " />
<polyline fill="none" vector-effect="none" points="792.104,568.724 792.104,564.724 " />
<polyline fill="none" vector-effect="none" points="194.538,568.724 194.538,560.724 " />
<polyline fill="none" vector-effect="none" points="365.271,568.724 365.271,560.724 " />
<polyline fill="none" vector-effect="none" points="536.004,568.724 536.004,560.724 " />
<polyline fill="none" vector-effect="none" points="706.737,568.724 706.737,560.724 " />
</g>

<g fill="none" stroke="#000000" stroke-opacity="1" stroke-width="0.5" stroke-linecap="square" stroke-linejoin="bevel" transform="matrix(0.75,0,0,0.75,0,0)"
font-family="MS Shell Dlg 2" font-size="9" font-weight="400" font-style="normal" 
>
</g>

<g fill="none" stroke="#000000" stroke-opacity="1" stroke-width="1" stroke-linecap="square" stroke-linejoin="bevel" transform="matrix(0.75,0,0,0.75,0,0)"
font-family="MS Shell Dlg 2" font-size="9" font-weight="400" font-style="normal" 
>
</g>

<g fill="none" stroke="#000000" stroke-opacity="1" stroke-width="1" stroke-linecap="square" stroke-linejoin="bevel" transform="matrix(0.75,0,0,0.75,0,0)"
font-family="MS Shell Dlg 2" font-size="9" font-weight="400" font-style="normal" 
>
</g>

<g fill="none" stroke="#000000" stroke-opacity="1" stroke-width="1" stroke-linecap="square" stroke-linejoin="bevel" transform="matrix(0.75,0,0,0.75,0,0)"
font-family="MS Shell Dlg 2" font-size="9" font-weight="400" font-style="normal" 
>
</g>

<g fill="none" stroke="#000000" stroke-opacity="1" stroke-width="0.5" stroke-linecap="square" stroke-linejoin="bevel" transform="matrix(0.75,0,0,0.75,0,0)"
font-family="MS Shell Dlg 2" font-size="9" font-weight="400" font-style="normal" 
>
<polyline fill="none" vector-effect="none" points="109.171,26.01 109.171,30.01 " />
<polyline fill="none" vector-effect="none" points="279.905,26.01 279.905,30.01 " />
<polyline fill="none" vector-effect="none" points="450.638,26.01 450.638,30.01 " />
<polyline fill="none" vector-effect="none" points="621.371,26.01 621.371,30.01 " />
<polyline fill="none" vector-effect="none" points="792.104,26.01 792.104,30.01 " />
<polyline fill="none" vector-effect="none" points="194.538,26.01 194.538,34.01 " />
<polyline fill="none" vector-effect="none" points="365.271,26.01 365.271,34.01 " />
<polyline fill="none" vector-effect="none" points="536.004,26.01 536.004,34.01 " />
<polyline fill="none" vector-effect="none" points="706.737,26.01 706.737,34.01 " />
</g>

<g fill="none" stroke="#000000" stroke-opacity="1" stroke-width="0.5" stroke-linecap="square" stroke-linejoin="bevel" transform="matrix(0.75,0,0,0.75,0,0)"
font-family="MS Shell Dlg 2" font-size="9" font-weight="400" font-style="normal" 
>
</g>

<g fill="none" stroke="#000000" stroke-opacity="1" stroke-width="1" stroke-linecap="square" stroke-linejoin="bevel" transform="matrix(0.75,0,0,0.75,0,0)"
font-family="MS Shell Dlg 2" font-size="9" font-weight="400" font-style="normal" 
>
</g>

<g fill="none" stroke="#000000" stroke-opacity="1" stroke-width="1" stroke-linecap="square" stroke-linejoin="bevel" transform="matrix(0.75,0,0,0.75,0,0)"
font-family="MS Shell Dlg 2" font-size="9" font-weight="400" font-style="normal" 
>
</g>

<g fill="none" stroke="#000000" stroke-opacity="1" stroke-width="1" stroke-linecap="square" stroke-linejoin="bevel" transform="matrix(0.75,0,0,0.75,0,0)"
font-family="MS Shell Dlg 2" font-size="9" font-weight="400" font-style="normal" 
>
</g>

<g fill="none" stroke="#000000" stroke-opacity="1" stroke-width="0.5" stroke-linecap="square" stroke-linejoin="bevel" transform="matrix(0.75,0,0,0.75,0,0)"
font-family="MS Shell Dlg 2" font-size="9" font-weight="400" font-style="normal" 
>
<polyline fill="none" vector-effect="none" points="36.01,541.588 40.01,541.588 " />
<polyline fill="none" vector-effect="none" points="36.01,487.316 40.01,487.316 " />
<polyline fill="none" vector-effect="none" points="36.01,433.043 40.01,433.043 " />
<polyline fill="none" vector-effect="none" points="36.01,378.771 40.01,378.771 " />
<polyline fill="none" vector-effect="none" points="36.01,324.498 40.01,324.498 " />
<polyline fill="none" vector-effect="none" points="36.01,270.226 40.01,270.226 " />
<polyline fill="none" vector-effect="none" points="36.01,215.954 40.01,215.954 " />
<polyline fill="none" vector-effect="none" points="36.01,161.681 40.01,161.681 " />
<polyline fill="none" vector-effect="none" points="36.01,107.409 40.01,107.409 " />
<polyline fill="none" vector-effect="none" points="36.01,53.1362 40.01,53.1362 " />
<polyline fill="none" vector-effect="none" points="36.01,514.452 42.01,514.452 " />
<polyline fill="none" vector-effect="none" points="36.01,405.907 42.01,405.907 " />
<polyline fill="none" vector-effect="none" points="36.01,297.362 42.01,297.362 " />
<polyline fill="none" vector-effect="none" points="36.01,188.817 42.01,188.817 " />
<polyline fill="none" vector-effect="none" points="36.01,80.2724 42.01,80.2724 " />
<polyline fill="none" vector-effect="none" points="36.01,568.724 44.01,568.724 " />
<polyline fill="none" vector-effect="none" points="36.01,460.18 44.01,460.18 " />
<polyline fill="none" vector-effect="none" points="36.01,351.635 44.01,351.635 " />
<polyline fill="none" vector-effect="none" points="36.01,243.09 44.01,243.09 " />
<polyline fill="none" vector-effect="none" points="36.01,134.545 44.01,134.545 " />
<polyline fill="none" vector-effect="none" points="36.01,26 44.01,26 " />
</g>

<g fill="none" stroke="#000000" stroke-opacity="1" stroke-width="0.5" stroke-linecap="square" stroke-linejoin="bevel" transform="matrix(0.75,0,0,0.75,0,0)"
font-family="MS Shell Dlg 2" font-size="9" font-weight="400" font-style="normal" 
>
</g>

<g fill="none" stroke="#000000" stroke-opacity="1" stroke-width="1" stroke-linecap="square" stroke-linejoin="bevel" transform="matrix(0.75,0,0,0.75,0,0)"
font-family="MS Shell Dlg 2" font-size="9" font-weight="400" font-style="normal" 
>
</g>

<g fill="none" stroke="#000000" stroke-opacity="1" stroke-width="1" stroke-linecap="square" stroke-linejoin="bevel" transform="matrix(0.75,0,0,0.75,0,0)"
font-family="MS Shell Dlg 2" font-size="9" font-weight="400" font-style="normal" 
>
</g>

<g fill="none" stroke="#000000" stroke-opacity="1" stroke-width="1" stroke-linecap="square" stroke-linejoin="bevel" transform="matrix(0.75,0,0,0.75,0,0)"
font-family="MS Shell Dlg 2" font-size="9" font-weight="400" font-style="normal" 
>
</g>

<g fill="none" stroke="#000000" stroke-opacity="1" stroke-width="0.5" stroke-linecap="square" stroke-linejoin="bevel" transform="matrix(0.75,0,0,0.75,0,0)"
font-family="MS Shell Dlg 2" font-size="9" font-weight="400" font-style="normal" 
>
<polyline fill="none" vector-effect="none" points="804.299,541.588 800.299,541.588 " />
<polyline fill="none" vector-effect="none" points="804.299,487.316 800.299,487.316 " />
<polyline fill="none" vector-effect="none" points="804.299,433.043 800.299,433.043 " />
<polyline fill="none" vector-effect="none" points="804.299,378.771 800.299,378.771 " />
<polyline fill="none" vector-effect="none" points="804.299,324.498 800.299,324.498 " />
<polyline fill="none" vector-effect="none" points="804.299,270.226 800.299,270.226 " />
<polyline fill="none" vector-effect="none" points="804.299,215.954 800.299,215.954 " />
<polyline fill="none" vector-effect="none" points="804.299,161.681 800.299,161.681 " />
<polyline fill="none" vector-effect="none" points="804.299,107.409 800.299,107.409 " />
<polyline fill="none" vector-effect="none" points="804.299,53.1362 800.299,53.1362 " />
<polyline fill="none" vector-effect="none" points="804.299,514.452 798.299,514.452 " />
<polyline fill="none" vector-effect="none" points="804.299,405.907 798.299,405.907 " />
<polyline fill="none" vector-effect="none" points="804.299,297.362 798.299,297.362 " />
<polyline fill="none" vector-effect="none" points="804.299,188.817 798.299,188.817 " />
<polyline fill="none" vector-effect="none" points="804.299,80.2724 798.299,80.2724 " />
<polyline fill="none" vector-effect="none" points="804.299,568.724 796.299,568.724 " />
<polyline fill="none" vector-effect="none" points="804.299,460.18 796.299,460.18 " />
<polyline fill="none" vector-effect="none" points="804.299,351.635 796.299,351.635 " />
<polyline fill="none" vector-effect="none" points="804.299,243.09 796.299,243.09 " />
<polyline fill="none" vector-effect="none" points="804.299,134.545 796.299,134.545 " />
<polyline fill="none" vector-effect="none" points="804.299,26 796.299,26 " />
</g>

<g fill="none" stroke="#000000" stroke-opacity="1" stroke-width="0.5" stroke-linecap="square" stroke-linejoin="bevel" transform="matrix(0.75,0,0,0.75,0,0)"
font-family="MS Shell Dlg 2" font-size="9" font-weight="400" font-style="normal" 
>
</g>

<g fill="none" stroke="#000000" stroke-opacity="1" stroke-width="1" stroke-linecap="square" stroke-linejoin="bevel" transform="matrix(0.75,0,0,0.75,0,0)"
font-family="MS Shell Dlg 2" font-size="9" font-weight="400" font-style="normal" 
>
</g>

<g fill="none" stroke="#000000" stroke-opacity="1" stroke-width="1" stroke-linecap="square" stroke-linejoin="bevel" transform="matrix(0.75,0,0,0.75,0,0)"
font-family="MS Shell Dlg 2" font-size="9" font-weight="400" font-style="normal" 
>
</g>

<g fill="none" stroke="#000000" stroke-opacity="1" stroke-width="1" stroke-linecap="square" stroke-linejoin="bevel" transform="matrix(0.75,0,0,0.75,0,0)"
font-family="MS Shell Dlg 2" font-size="9" font-weight="400" font-style="normal" 
>
</g>

<g fill="none" stroke="#7c00bf" stroke-opacity="1" stroke-width="1" stroke-linecap="square" stroke-linejoin="bevel" transform="matrix(0.75,0,0,0.75,0,0)"
font-family="MS Shell Dlg 2" font-size="9" font-weight="400" font-style="normal" 
>
<polyline fill="none" vector-effect="none" points="36.5081,568.724 39.5569,568.724 40.0651,428.257 40.5732,297.362 41.0813,184.96 41.5895,98.7113 42.0976,44.4929 42.6057,26 43.1139,44.4929 43.622,98.7113 44.1302,184.96 44.6383,297.362 45.1464,428.257 45.6546,568.724 50.7359,568.724 58.3579,59.9203 58.866,568.724 62.9311,568.724 70.5531,59.9203 71.0613,568.724 75.1263,568.724 82.7484,59.9203 83.2565,568.724 86.8134,568.724 87.3216,568.724 94.9436,59.9203 95.4517,568.724 96.9761,568.724 97.4843,297.362 121.367,297.362 121.875,568.724 124.924,568.724 125.432,428.257 125.94,297.362 126.448,184.96 126.956,98.7113 127.464,44.4929 127.972,26 128.48,44.4929 128.989,98.7113 129.497,184.96 130.005,297.362 130.513,428.257 131.021,568.724 136.102,568.724 137.627,466.964 138.135,433.043 143.724,59.9203 144.233,568.724 148.298,568.724 155.92,59.9203 156.428,568.724 160.493,568.724 168.115,59.9203 168.623,568.724 172.688,568.724 180.31,59.9203 180.818,568.724 182.343,568.724 182.851,297.362 188.44,297.362 188.948,297.362 206.733,297.362 207.241,568.724 210.29,568.724 210.798,428.257 211.306,297.362 211.815,184.96 212.323,98.7113 212.831,44.4929 213.339,26 213.847,44.4929 214.355,98.7113 214.863,184.96 215.371,297.362 215.88,428.257 216.388,568.724 221.469,568.724 229.091,59.9203 229.599,568.724 233.664,568.724 239.254,195.601 239.762,161.681 241.286,59.9203 241.794,568.724 245.86,568.724 253.482,59.9203 253.99,568.724 258.055,568.724 265.677,59.9203 266.185,568.724 267.709,568.724 268.217,297.362 290.067,297.362 290.575,297.362 292.1,297.362 292.608,568.724 295.657,568.724 296.165,428.257 296.673,297.362 297.181,184.96 297.689,98.7113 298.197,44.4929 298.705,26 299.214,44.4929 299.722,98.7113 300.23,184.96 300.738,297.362 301.246,428.257 301.754,568.724 306.836,568.724 314.458,59.9203 314.966,568.724 319.031,568.724 326.653,59.9203 327.161,568.724 331.226,568.724 338.848,59.9203 339.356,568.724 340.881,568.724 341.389,568.724 343.421,568.724 351.043,59.9203 351.551,568.724 353.076,568.724 353.584,297.362 377.466,297.362 377.974,568.724 381.023,568.724 381.531,428.257 382.04,297.362 382.548,184.96 383.056,98.7113 383.564,44.4929 384.072,26 384.58,44.4929 385.088,98.7113 385.596,184.96 386.105,297.362 386.613,428.257 387.121,568.724 391.694,568.724 392.202,568.724 399.824,59.9203 400.332,568.724 404.397,568.724 412.019,59.9203 412.528,568.724 414.052,568.724 414.56,297.362 442.508,297.362 443.016,297.362 462.833,297.362 463.341,568.724 466.39,568.724 466.898,428.257 467.406,297.362 467.914,184.96 468.422,98.7113 468.931,44.4929 469.439,26 469.947,44.4929 470.455,98.7113 470.963,184.96 471.471,297.362 471.979,428.257 472.487,568.724 475.028,568.724 475.536,297.362 493.321,297.362 493.829,297.362 544.134,297.362 544.643,297.362 548.199,297.362 548.708,568.724 551.756,568.724 552.265,428.257 552.773,297.362 553.281,184.96 553.789,98.7113 554.297,44.4929 554.805,26 555.313,44.4929 555.821,98.7113 556.33,184.96 556.838,297.362 557.346,428.257 557.854,568.724 560.395,568.724 560.903,297.362 594.948,297.362 595.456,297.362 633.566,297.362 634.074,568.724 637.123,568.724 637.631,428.257 638.139,297.362 638.647,184.96 639.156,98.7113 639.664,44.4929 640.172,26 640.68,44.4929 641.188,98.7113 641.696,184.96 642.204,297.362 642.712,428.257 643.221,568.724 645.761,568.724 646.269,297.362 696.575,297.362 697.083,297.362 718.933,297.362 719.441,568.724 722.49,568.724 722.998,428.257 723.506,297.362 724.014,184.96 724.522,98.7113 725.03,44.4929 725.538,26 726.047,44.4929 726.555,98.7113 727.063,184.96 727.571,297.362 728.079,428.257 728.587,568.724 731.128,568.724 731.636,297.362 747.388,297.362 747.896,297.362 798.202,297.362 798.71,297.362 804.299,297.362 " />
</g>

<g fill="none" stroke="#000000" stroke-opacity="1" stroke-width="1" stroke-linecap="square" stroke-linejoin="bevel" transform="matrix(0.75,0,0,0.75,0,0)"
font-family="MS Shell Dlg 2" font-size="9" font-weight="400" font-style="normal" 
>
</g>

<g fill="none" stroke="#000000" stroke-opacity="1" stroke-width="1" stroke-linecap="square" stroke-linejoin="bevel" transform="matrix(0.75,0,0,0.75,0,0)"
font-family="MS Shell Dlg 2" font-size="9" font-weight="400" font-style="normal" 
>
</g>

<g fill="none" stroke="#000000" stroke-opacity="1" stroke-width="1" stroke-linecap="square" stroke-linejoin="bevel" transform="matrix(0.75,0,0,0.75,0,0)"
font-family="MS Shell Dlg 2" font-size="9" font-weight="400" font-style="normal" 
>
</g>

<g fill="#ffffff" fill-opacity="1" stroke="#000000" stroke-opacity="1" stroke-width="0.5" stroke-linecap="square" stroke-linejoin="bevel" transform="matrix(0.75,0,0,0.75,0,0)"
font-family="MS Shell Dlg 2" font-size="9" font-weight="400" font-style="normal" 
>
<rect x="741" y="529" width="55" height="31"/>
</g>

<g fill="none" stroke="#000000" stroke-opacity="1" stroke-width="1" stroke-linecap="square" stroke-linejoin="bevel" transform="matrix(0.75,0,0,0.75,0,0)"
font-family="MS Shell Dlg 2" font-size="9" font-weight="400" font-style="normal" 
>
</g>

<g fill="none" stroke="#000000" stroke-opacity="1" stroke-width="1" stroke-linecap="square" stroke-linejoin="bevel" transform="matrix(0.75,0,0,0.75,0,0)"
font-family="MS Shell Dlg 2" font-size="9" font-weight="400" font-style="normal" 
>
</g>

<g fill="none" stroke="#000000" stroke-opacity="1" stroke-width="1" stroke-linecap="square" stroke-linejoin="bevel" transform="matrix(0.75,0,0,0.75,561.375,404.625)"
font-family="MS Shell Dlg 2" font-size="9" font-weight="400" font-style="normal" 
>
</g>

<g fill="#7c00bf" fill-opacity="1" stroke="none" transform="matrix(0.75,0,0,0.75,0,0)"
font-family="MS Shell Dlg 2" font-size="9" font-weight="400" font-style="normal" 
>
<path vector-effect="none" fill-rule="evenodd" d="M748.5,539.5 L757.5,539.5 L757.5,548.5 L748.5,548.5 L748.5,539.5"/>
</g>

<g fill="none" stroke="#000000" stroke-opacity="1" stroke-width="1" stroke-linecap="square" stroke-linejoin="bevel" transform="matrix(0.75,0,0,0.75,561.375,404.625)"
font-family="MS Shell Dlg 2" font-size="9" font-weight="400" font-style="normal" 
>
</g>

<g fill="none" stroke="#000000" stroke-opacity="1" stroke-width="1" stroke-linecap="square" stroke-linejoin="bevel" transform="matrix(0.75,0,0,0.75,0,0)"
font-family="Roboto Condensed" font-size="9" font-weight="400" font-style="normal" 
>
</g>

<g fill="none" stroke="#000000" stroke-opacity="1" stroke-width="1" stroke-linecap="square" stroke-linejoin="bevel" transform="matrix(0.75,0,0,0.75,0,0)"
font-family="Roboto Condensed" font-size="12" font-weight="400" font-style="normal" 
>
</g>

<g fill="none" stroke="#000000" stroke-opacity="1" stroke-width="1" stroke-linecap="square" stroke-linejoin="bevel" transform="matrix(0.75,0,0,0.75,0,0)"
font-family="Roboto Condensed" font-size="12" font-weight="400" font-style="normal" 
>
<text fill="#000000" fill-opacity="1" stroke="none" xml:space="preserve" x="766" y="549" font-family="Roboto Condensed" font-size="12" font-weight="400" font-style="normal" 
 >Year</text>
</g>

<g fill="none" stroke="#000000" stroke-opacity="1" stroke-width="1" stroke-linecap="square" stroke-linejoin="bevel" transform="matrix(0.75,0,0,0.75,0,0)"
font-family="Roboto Condensed" font-size="9" font-weight="400" font-style="normal" 
>
</g>

<g fill="none" stroke="#000000" stroke-opacity="1" stroke-width="1" stroke-linecap="square" stroke-linejoin="bevel" transform="matrix(0.75,0,0,0.75,0,0)"
font-family="Roboto Condensed" font-size="9" font-weight="400" font-style="normal" 
>
</g>

<g fill="none" stroke="#000000" stroke-opacity="1" stroke-width="1" stroke-linecap="square" stroke-linejoin="bevel" transform="matrix(0.75,0,0,0.75,0,0)"
font-family="Roboto Condensed" font-size="9" font-weight="400" font-style="normal" 
>
</g>

<g fill="none" stroke="#000000" stroke-opacity="1" stroke-width="1" stroke-linecap="square" stroke-linejoin="bevel" transform="matrix(0.75,0,0,0.75,0,0)"
font-family="Roboto Condensed" font-size="9" font-weight="400" font-style="normal" 
>
</g>

<g fill="none" stroke="#000000" stroke-opacity="1" stroke-width="1" stroke-linecap="square" stroke-linejoin="bevel" transform="matrix(0.75,0,0,0.75,0,0)"
font-family="MS Shell Dlg 2" font-size="9" font-weight="400" font-style="normal" 
>
</g>

<g fill="none" stroke="#000000" stroke-opacity="1" stroke-width="1" stroke-linecap="square" stroke-linejoin="bevel" transform="matrix(0.75,0,0,0.75,0,0)"
font-family="MS Shell Dlg 2" font-size="9" font-weight="400" font-style="normal" 
>
</g>

<g fill="none" stroke="#000000" stroke-opacity="1" stroke-width="1" stroke-linecap="square" stroke-linejoin="bevel" transform="matrix(0.75,0,0,0.75,0,0)"
font-family="MS Shell Dlg 2" font-size="9" font-weight="400" font-style="normal" 
>
</g>

<g fill="none" stroke="#000000" stroke-opacity="1" stroke-width="0.5" stroke-linecap="square" stroke-linejoin="bevel" transform="matrix(0.75,0,0,0.75,0,0)"
font-family="MS Shell Dlg 2" font-size="9" font-weight="400" font-style="normal" 
>
<rect x="36" y="26" width="768.299" height="542.724"/>
</g>

<g fill="none" stroke="#000000" stroke-opacity="1" stroke-width="1" stroke-linecap="square" stroke-linejoin="bevel" transform="matrix(0.75,0,0,0.75,0,0)"
font-family="MS Shell Dlg 2" font-size="9" font-weight="400" font-style="normal" 
>
</g>

<g fill="none" stroke="#000000" stroke-opacity="1" stroke-width="1" stroke-linecap="square" stroke-linejoin="bevel" transform="matrix(0.75,0,0,0.75,0,0)"
font-family="Roboto Condensed" font-size="9" font-weight="700" font-style="normal" 
>
</g>

<g fill="none" stroke="#000000" stroke-opacity="1" stroke-width="1" stroke-linecap="square" stroke-linejoin="bevel" transform="matrix(0.75,0,0,0.75,0,0)"
font-family="Roboto Condensed" font-size="12" font-weight="700" font-style="normal" 
>
</g>

<g fill="none" stroke="#000000" stroke-opacity="1" stroke-width="1" stroke-linecap="square" stroke-linejoin="bevel" transform="matrix(0.75,0,0,0.75,0,0)"
font-family="Roboto Condensed" font-size="12" font-weight="700" font-style="normal" 
>
<text fill="#000000" fill-opacity="1" stroke="none" xml:space="preserve" x="386.641" y="13" font-family="Roboto Condensed" font-size="12" font-weight="700" font-style="normal" 
 >YearSchedule</text>
</g>

<g fill="none" stroke="#000000" stroke-opacity="1" stroke-width="1" stroke-linecap="square" stroke-linejoin="bevel" transform="matrix(0.75,0,0,0.75,0,0)"
font-family="Roboto Condensed" font-size="9" font-weight="700" font-style="normal" 
>
</g>

<g fill="none" stroke="#000000" stroke-opacity="1" stroke-width="1" stroke-linecap="square" stroke-linejoin="bevel" transform="matrix(0.75,0,0,0.75,0,0)"
font-family="Roboto Condensed" font-size="9" font-weight="700" font-style="normal" 
>
</g>

<g fill="none" stroke="#000000" stroke-opacity="1" stroke-width="1" stroke-linecap="square" stroke-linejoin="bevel" transform="matrix(0,-0.75,0.75,0,0,430.293)"
font-family="Roboto Condensed" font-size="9" font-weight="400" font-style="normal" 
>
</g>

<g fill="none" stroke="#000000" stroke-opacity="1" stroke-width="1" stroke-linecap="square" stroke-linejoin="bevel" transform="matrix(0,-0.75,0.75,0,0,430.293)"
font-family="Roboto Condensed" font-size="9" font-weight="700" font-style="normal" 
>
</g>

<g fill="none" stroke="#000000" stroke-opacity="1" stroke-width="1" stroke-linecap="square" stroke-linejoin="bevel" transform="matrix(0,-1,1,0,0,430.293)"
font-family="Roboto Condensed" font-size="9" font-weight="700" font-style="normal" 
>
<text fill="#000000" fill-opacity="1" stroke="none" xml:space="preserve" x="176.766" y="9" font-family="Roboto Condensed" font-size="9" font-weight="700" font-style="normal" 
 >Schedule Value [-]</text>
</g>

<g fill="none" stroke="#000000" stroke-opacity="1" stroke-width="1" stroke-linecap="square" stroke-linejoin="bevel" transform="matrix(0,-0.75,0.75,0,0,430.293)"
font-family="Roboto Condensed" font-size="9" font-weight="700" font-style="normal" 
>
</g>

<g fill="none" stroke="#000000" stroke-opacity="1" stroke-width="1" stroke-linecap="square" stroke-linejoin="bevel" transform="matrix(0,-0.75,0.75,0,0,430.293)"
font-family="Roboto Condensed" font-size="9" font-weight="400" font-style="normal" 
>
</g>

<g fill="none" stroke="#000000" stroke-opacity="1" stroke-width="1" stroke-linecap="square" stroke-linejoin="bevel" transform="matrix(0.75,0,0,0.75,0,0)"
font-family="Roboto Condensed" font-size="9" font-weight="700" font-style="normal" 
>
</g>

<g fill="none" stroke="#000000" stroke-opacity="1" stroke-width="1" stroke-linecap="square" stroke-linejoin="bevel" transform="matrix(0.75,0,0,0.75,0,0)"
font-family="Roboto Condensed" font-size="9" font-weight="400" font-style="normal" 
>
</g>

<g fill="none" stroke="#000000" stroke-opacity="1" stroke-width="0.5" stroke-linecap="square" stroke-linejoin="bevel" transform="matrix(0.75,0,0,0.75,0,0)"
font-family="Roboto Condensed" font-size="9" font-weight="400" font-style="normal" 
>
</g>

<g fill="none" stroke="#000000" stroke-opacity="1" stroke-width="1" stroke-linecap="square" stroke-linejoin="bevel" transform="matrix(0.75,0,0,0.75,0,0)"
font-family="Roboto Condensed" font-size="9" font-weight="400" font-style="normal" 
>
</g>

<g fill="none" stroke="#000000" stroke-opacity="1" stroke-width="1" stroke-linecap="square" stroke-linejoin="bevel" transform="matrix(0.75,0,0,0.75,18.75,422.793)"
font-family="Roboto Condensed" font-size="9" font-weight="400" font-style="normal" 
>
</g>

<g fill="none" stroke="#000000" stroke-opacity="1" stroke-width="1" stroke-linecap="square" stroke-linejoin="bevel" transform="matrix(0.75,0,0,0.75,18.75,422.793)"
font-family="Roboto Condensed" font-size="12" font-weight="400" font-style="normal" 
>
</g>

<g fill="none" stroke="#000000" stroke-opacity="1" stroke-width="1" stroke-linecap="square" stroke-linejoin="bevel" transform="matrix(0.75,0,0,0.75,18.75,422.793)"
font-family="Roboto Condensed" font-size="12" font-weight="400" font-style="normal" 
>
<text fill="#000000" fill-opacity="1" stroke="none" xml:space="preserve" x="0" y="10" font-family="Roboto Condensed" font-size="12" font-weight="400" font-style="normal" 
 >0</text>
</g>

<g fill="none" stroke="#000000" stroke-opacity="1" stroke-width="1" stroke-linecap="square" stroke-linejoin="bevel" transform="matrix(0.75,0,0,0.75,18.75,422.793)"
font-family="Roboto Condensed" font-size="9" font-weight="400" font-style="normal" 
>
</g>

<g fill="none" stroke="#000000" stroke-opacity="1" stroke-width="1" stroke-linecap="square" stroke-linejoin="bevel" transform="matrix(0.75,0,0,0.75,18.75,422.793)"
font-family="Roboto Condensed" font-size="9" font-weight="400" font-style="normal" 
>
</g>

<g fill="none" stroke="#000000" stroke-opacity="1" stroke-width="1" stroke-linecap="square" stroke-linejoin="bevel" transform="matrix(0.75,0,0,0.75,0,0)"
font-family="Roboto Condensed" font-size="9" font-weight="400" font-style="normal" 
>
</g>

<g fill="none" stroke="#000000" stroke-opacity="1" stroke-width="1" stroke-linecap="square" stroke-linejoin="bevel" transform="matrix(0.75,0,0,0.75,12,341.385)"
font-family="Roboto Condensed" font-size="9" font-weight="400" font-style="normal" 
>
</g>

<g fill="none" stroke="#000000" stroke-opacity="1" stroke-width="1" stroke-linecap="square" stroke-linejoin="bevel" transform="matrix(0.75,0,0,0.75,12,341.385)"
font-family="Roboto Condensed" font-size="12" font-weight="400" font-style="normal" 
>
</g>

<g fill="none" stroke="#000000" stroke-opacity="1" stroke-width="1" stroke-linecap="square" stroke-linejoin="bevel" transform="matrix(0.75,0,0,0.75,12,341.385)"
font-family="Roboto Condensed" font-size="12" font-weight="400" font-style="normal" 
>
<text fill="#000000" fill-opacity="1" stroke="none" xml:space="preserve" x="0" y="10" font-family="Roboto Condensed" font-size="12" font-weight="400" font-style="normal" 
 >0.2</text>
</g>

<g fill="none" stroke="#000000" stroke-opacity="1" stroke-width="1" stroke-linecap="square" stroke-linejoin="bevel" transform="matrix(0.75,0,0,0.75,12,341.385)"
font-family="Roboto Condensed" font-size="9" font-weight="400" font-style="normal" 
>
</g>

<g fill="none" stroke="#000000" stroke-opacity="1" stroke-width="1" stroke-linecap="square" stroke-linejoin="bevel" transform="matrix(0.75,0,0,0.75,12,341.385)"
font-family="Roboto Condensed" font-size="9" font-weight="400" font-style="normal" 
>
</g>

<g fill="none" stroke="#000000" stroke-opacity="1" stroke-width="1" stroke-linecap="square" stroke-linejoin="bevel" transform="matrix(0.75,0,0,0.75,0,0)"
font-family="Roboto Condensed" font-size="9" font-weight="400" font-style="normal" 
>
</g>

<g fill="none" stroke="#000000" stroke-opacity="1" stroke-width="1" stroke-linecap="square" stroke-linejoin="bevel" transform="matrix(0.75,0,0,0.75,12,259.976)"
font-family="Roboto Condensed" font-size="9" font-weight="400" font-style="normal" 
>
</g>

<g fill="none" stroke="#000000" stroke-opacity="1" stroke-width="1" stroke-linecap="square" stroke-linejoin="bevel" transform="matrix(0.75,0,0,0.75,12,259.976)"
font-family="Roboto Condensed" font-size="12" font-weight="400" font-style="normal" 
>
</g>

<g fill="none" stroke="#000000" stroke-opacity="1" stroke-width="1" stroke-linecap="square" stroke-linejoin="bevel" transform="matrix(0.75,0,0,0.75,12,259.976)"
font-family="Roboto Condensed" font-size="12" font-weight="400" font-style="normal" 
>
<text fill="#000000" fill-opacity="1" stroke="none" xml:space="preserve" x="0" y="10" font-family="Roboto Condensed" font-size="12" font-weight="400" font-style="normal" 
 >0.4</text>
</g>

<g fill="none" stroke="#000000" stroke-opacity="1" stroke-width="1" stroke-linecap="square" stroke-linejoin="bevel" transform="matrix(0.75,0,0,0.75,12,259.976)"
font-family="Roboto Condensed" font-size="9" font-weight="400" font-style="normal" 
>
</g>

<g fill="none" stroke="#000000" stroke-opacity="1" stroke-width="1" stroke-linecap="square" stroke-linejoin="bevel" transform="matrix(0.75,0,0,0.75,12,259.976)"
font-family="Roboto Condensed" font-size="9" font-weight="400" font-style="normal" 
>
</g>

<g fill="none" stroke="#000000" stroke-opacity="1" stroke-width="1" stroke-linecap="square" stroke-linejoin="bevel" transform="matrix(0.75,0,0,0.75,0,0)"
font-family="Roboto Condensed" font-size="9" font-weight="400" font-style="normal" 
>
</g>

<g fill="none" stroke="#000000" stroke-opacity="1" stroke-width="1" stroke-linecap="square" stroke-linejoin="bevel" transform="matrix(0.75,0,0,0.75,12,178.567)"
font-family="Roboto Condensed" font-size="9" font-weight="400" font-style="normal" 
>
</g>

<g fill="none" stroke="#000000" stroke-opacity="1" stroke-width="1" stroke-linecap="square" stroke-linejoin="bevel" transform="matrix(0.75,0,0,0.75,12,178.567)"
font-family="Roboto Condensed" font-size="12" font-weight="400" font-style="normal" 
>
</g>

<g fill="none" stroke="#000000" stroke-opacity="1" stroke-width="1" stroke-linecap="square" stroke-linejoin="bevel" transform="matrix(0.75,0,0,0.75,12,178.567)"
font-family="Roboto Condensed" font-size="12" font-weight="400" font-style="normal" 
>
<text fill="#000000" fill-opacity="1" stroke="none" xml:space="preserve" x="0" y="10" font-family="Roboto Condensed" font-size="12" font-weight="400" font-style="normal" 
 >0.6</text>
</g>

<g fill="none" stroke="#000000" stroke-opacity="1" stroke-width="1" stroke-linecap="square" stroke-linejoin="bevel" transform="matrix(0.75,0,0,0.75,12,178.567)"
font-family="Roboto Condensed" font-size="9" font-weight="400" font-style="normal" 
>
</g>

<g fill="none" stroke="#000000" stroke-opacity="1" stroke-width="1" stroke-linecap="square" stroke-linejoin="bevel" transform="matrix(0.75,0,0,0.75,12,178.567)"
font-family="Roboto Condensed" font-size="9" font-weight="400" font-style="normal" 
>
</g>

<g fill="none" stroke="#000000" stroke-opacity="1" stroke-width="1" stroke-linecap="square" stroke-linejoin="bevel" transform="matrix(0.75,0,0,0.75,0,0)"
font-family="Roboto Condensed" font-size="9" font-weight="400" font-style="normal" 
>
</g>

<g fill="none" stroke="#000000" stroke-opacity="1" stroke-width="1" stroke-linecap="square" stroke-linejoin="bevel" transform="matrix(0.75,0,0,0.75,12,97.1587)"
font-family="Roboto Condensed" font-size="9" font-weight="400" font-style="normal" 
>
</g>

<g fill="none" stroke="#000000" stroke-opacity="1" stroke-width="1" stroke-linecap="square" stroke-linejoin="bevel" transform="matrix(0.75,0,0,0.75,12,97.1587)"
font-family="Roboto Condensed" font-size="12" font-weight="400" font-style="normal" 
>
</g>

<g fill="none" stroke="#000000" stroke-opacity="1" stroke-width="1" stroke-linecap="square" stroke-linejoin="bevel" transform="matrix(0.75,0,0,0.75,12,97.1587)"
font-family="Roboto Condensed" font-size="12" font-weight="400" font-style="normal" 
>
<text fill="#000000" fill-opacity="1" stroke="none" xml:space="preserve" x="0" y="10" font-family="Roboto Condensed" font-size="12" font-weight="400" font-style="normal" 
 >0.8</text>
</g>

<g fill="none" stroke="#000000" stroke-opacity="1" stroke-width="1" stroke-linecap="square" stroke-linejoin="bevel" transform="matrix(0.75,0,0,0.75,12,97.1587)"
font-family="Roboto Condensed" font-size="9" font-weight="400" font-style="normal" 
>
</g>

<g fill="none" stroke="#000000" stroke-opacity="1" stroke-width="1" stroke-linecap="square" stroke-linejoin="bevel" transform="matrix(0.75,0,0,0.75,12,97.1587)"
font-family="Roboto Condensed" font-size="9" font-weight="400" font-style="normal" 
>
</g>

<g fill="none" stroke="#000000" stroke-opacity="1" stroke-width="1" stroke-linecap="square" stroke-linejoin="bevel" transform="matrix(0.75,0,0,0.75,0,0)"
font-family="Roboto Condensed" font-size="9" font-weight="400" font-style="normal" 
>
</g>

<g fill="none" stroke="#000000" stroke-opacity="1" stroke-width="1" stroke-linecap="square" stroke-linejoin="bevel" transform="matrix(0.75,0,0,0.75,18.75,15.75)"
font-family="Roboto Condensed" font-size="9" font-weight="400" font-style="normal" 
>
</g>

<g fill="none" stroke="#000000" stroke-opacity="1" stroke-width="1" stroke-linecap="square" stroke-linejoin="bevel" transform="matrix(0.75,0,0,0.75,18.75,15.75)"
font-family="Roboto Condensed" font-size="12" font-weight="400" font-style="normal" 
>
</g>

<g fill="none" stroke="#000000" stroke-opacity="1" stroke-width="1" stroke-linecap="square" stroke-linejoin="bevel" transform="matrix(0.75,0,0,0.75,18.75,15.75)"
font-family="Roboto Condensed" font-size="12" font-weight="400" font-style="normal" 
>
<text fill="#000000" fill-opacity="1" stroke="none" xml:space="preserve" x="0" y="10" font-family="Roboto Condensed" font-size="12" font-weight="400" font-style="normal" 
 >1</text>
</g>

<g fill="none" stroke="#000000" stroke-opacity="1" stroke-width="1" stroke-linecap="square" stroke-linejoin="bevel" transform="matrix(0.75,0,0,0.75,18.75,15.75)"
font-family="Roboto Condensed" font-size="9" font-weight="400" font-style="normal" 
>
</g>

<g fill="none" stroke="#000000" stroke-opacity="1" stroke-width="1" stroke-linecap="square" stroke-linejoin="bevel" transform="matrix(0.75,0,0,0.75,18.75,15.75)"
font-family="Roboto Condensed" font-size="9" font-weight="400" font-style="normal" 
>
</g>

<g fill="none" stroke="#000000" stroke-opacity="1" stroke-width="1" stroke-linecap="square" stroke-linejoin="bevel" transform="matrix(0.75,0,0,0.75,0,0)"
font-family="Roboto Condensed" font-size="9" font-weight="400" font-style="normal" 
>
</g>

<g fill="none" stroke="#000000" stroke-opacity="1" stroke-width="0.5" stroke-linecap="square" stroke-linejoin="bevel" transform="matrix(0.75,0,0,0.75,0,0)"
font-family="Roboto Condensed" font-size="9" font-weight="400" font-style="normal" 
>
</g>

<g fill="none" stroke="#000000" stroke-opacity="1" stroke-width="1" stroke-linecap="square" stroke-linejoin="bevel" transform="matrix(0.75,0,0,0.75,0,0)"
font-family="Roboto Condensed" font-size="9" font-weight="400" font-style="normal" 
>
</g>

<g fill="none" stroke="#000000" stroke-opacity="1" stroke-width="1" stroke-linecap="square" stroke-linejoin="bevel" transform="matrix(0.75,0,0,0.75,0,0)"
font-family="Roboto Condensed" font-size="9" font-weight="700" font-style="normal" 
>
</g>

<g fill="none" stroke="#000000" stroke-opacity="1" stroke-width="1" stroke-linecap="square" stroke-linejoin="bevel" transform="matrix(0.75,0,0,0.75,27,455.043)"
font-family="Roboto Condensed" font-size="9" font-weight="400" font-style="normal" 
>
</g>

<g fill="none" stroke="#000000" stroke-opacity="1" stroke-width="1" stroke-linecap="square" stroke-linejoin="bevel" transform="matrix(0.75,0,0,0.75,27,455.043)"
font-family="Roboto Condensed" font-size="9" font-weight="700" font-style="normal" 
>
</g>

<g fill="none" stroke="#000000" stroke-opacity="1" stroke-width="1" stroke-linecap="square" stroke-linejoin="bevel" transform="matrix(0.75,0,0,0.75,27,455.043)"
font-family="Roboto Condensed" font-size="9" font-weight="700" font-style="normal" 
>
</g>

<g fill="none" stroke="#000000" stroke-opacity="1" stroke-width="1" stroke-linecap="square" stroke-linejoin="bevel" transform="matrix(0.75,0,0,0.75,27,455.043)"
font-family="Roboto Condensed" font-size="9" font-weight="400" font-style="normal" 
>
</g>

<g fill="none" stroke="#000000" stroke-opacity="1" stroke-width="1" stroke-linecap="square" stroke-linejoin="bevel" transform="matrix(0.75,0,0,0.75,0,0)"
font-family="Roboto Condensed" font-size="9" font-weight="700" font-style="normal" 
>
</g>

<g fill="none" stroke="#000000" stroke-opacity="1" stroke-width="1" stroke-linecap="square" stroke-linejoin="bevel" transform="matrix(0.75,0,0,0.75,0,0)"
font-family="Roboto Condensed" font-size="9" font-weight="400" font-style="normal" 
>
</g>

<g fill="none" stroke="#000000" stroke-opacity="1" stroke-width="0.5" stroke-linecap="square" stroke-linejoin="bevel" transform="matrix(0.75,0,0,0.75,0,0)"
font-family="Roboto Condensed" font-size="9" font-weight="400" font-style="normal" 
>
</g>

<g fill="none" stroke="#000000" stroke-opacity="1" stroke-width="1" stroke-linecap="square" stroke-linejoin="bevel" transform="matrix(0.75,0,0,0.75,0,0)"
font-family="Roboto Condensed" font-size="9" font-weight="400" font-style="normal" 
>
</g>

<g fill="none" stroke="#000000" stroke-opacity="1" stroke-width="1" stroke-linecap="square" stroke-linejoin="bevel" transform="matrix(0.75,0,0,0.75,125.653,433.293)"
font-family="Roboto Condensed" font-size="9" font-weight="400" font-style="normal" 
>
</g>

<g fill="none" stroke="#000000" stroke-opacity="1" stroke-width="1" stroke-linecap="square" stroke-linejoin="bevel" transform="matrix(0.75,0,0,0.75,125.653,433.293)"
font-family="Roboto Condensed" font-size="12" font-weight="400" font-style="normal" 
>
</g>

<g fill="none" stroke="#000000" stroke-opacity="1" stroke-width="1" stroke-linecap="square" stroke-linejoin="bevel" transform="matrix(0.75,0,0,0.75,125.653,433.293)"
font-family="Roboto Condensed" font-size="12" font-weight="400" font-style="normal" 
>
<text fill="#000000" fill-opacity="1" stroke="none" xml:space="preserve" x="0" y="10" font-family="Roboto Condensed" font-size="12" font-weight="400" font-style="normal" 
 >14.01.2001</text>
</g>

<g fill="none" stroke="#000000" stroke-opacity="1" stroke-width="1" stroke-linecap="square" stroke-linejoin="bevel" transform="matrix(0.75,0,0,0.75,125.653,433.293)"
font-family="Roboto Condensed" font-size="9" font-weight="400" font-style="normal" 
>
</g>

<g fill="none" stroke="#000000" stroke-opacity="1" stroke-width="1" stroke-linecap="square" stroke-linejoin="bevel" transform="matrix(0.75,0,0,0.75,125.653,433.293)"
font-family="Roboto Condensed" font-size="9" font-weight="400" font-style="normal" 
>
</g>

<g fill="none" stroke="#000000" stroke-opacity="1" stroke-width="1" stroke-linecap="square" stroke-linejoin="bevel" transform="matrix(0.75,0,0,0.75,0,0)"
font-family="Roboto Condensed" font-size="9" font-weight="400" font-style="normal" 
>
</g>

<g fill="none" stroke="#000000" stroke-opacity="1" stroke-width="1" stroke-linecap="square" stroke-linejoin="bevel" transform="matrix(0.75,0,0,0.75,253.703,433.293)"
font-family="Roboto Condensed" font-size="9" font-weight="400" font-style="normal" 
>
</g>

<g fill="none" stroke="#000000" stroke-opacity="1" stroke-width="1" stroke-linecap="square" stroke-linejoin="bevel" transform="matrix(0.75,0,0,0.75,253.703,433.293)"
font-family="Roboto Condensed" font-size="12" font-weight="400" font-style="normal" 
>
</g>

<g fill="none" stroke="#000000" stroke-opacity="1" stroke-width="1" stroke-linecap="square" stroke-linejoin="bevel" transform="matrix(0.75,0,0,0.75,253.703,433.293)"
font-family="Roboto Condensed" font-size="12" font-weight="400" font-style="normal" 
>
<text fill="#000000" fill-opacity="1" stroke="none" xml:space="preserve" x="0" y="10" font-family="Roboto Condensed" font-size="12" font-weight="400" font-style="normal" 
 >28.01.2001</text>
</g>

<g fill="none" stroke="#000000" stroke-opacity="1" stroke-width="1" stroke-linecap="square" stroke-linejoin="bevel" transform="matrix(0.75,0,0,0.75,253.703,433.293)"
font-family="Roboto Condensed" font-size="9" font-weight="400" font-style="normal" 
>
</g>

<g fill="none" stroke="#000000" stroke-opacity="1" stroke-width="1" stroke-linecap="square" stroke-linejoin="bevel" transform="matrix(0.75,0,0,0.75,253.703,433.293)"
font-family="Roboto Condensed" font-size="9" font-weight="400" font-style="normal" 
>
</g>

<g fill="none" stroke="#000000" stroke-opacity="1" stroke-width="1" stroke-linecap="square" stroke-linejoin="bevel" transform="matrix(0.75,0,0,0.75,0,0)"
font-family="Roboto Condensed" font-size="9" font-weight="400" font-style="normal" 
>
</g>

<g fill="none" stroke="#000000" stroke-opacity="1" stroke-width="1" stroke-linecap="square" stroke-linejoin="bevel" transform="matrix(0.75,0,0,0.75,381.753,433.293)"
font-family="Roboto Condensed" font-size="9" font-weight="400" font-style="normal" 
>
</g>

<g fill="none" stroke="#000000" stroke-opacity="1" stroke-width="1" stroke-linecap="square" stroke-linejoin="bevel" transform="matrix(0.75,0,0,0.75,381.753,433.293)"
font-family="Roboto Condensed" font-size="12" font-weight="400" font-style="normal" 
>
</g>

<g fill="none" stroke="#000000" stroke-opacity="1" stroke-width="1" stroke-linecap="square" stroke-linejoin="bevel" transform="matrix(0.75,0,0,0.75,381.753,433.293)"
font-family="Roboto Condensed" font-size="12" font-weight="400" font-style="normal" 
>
<text fill="#000000" fill-opacity="1" stroke="none" xml:space="preserve" x="0" y="10" font-family="Roboto Condensed" font-size="12" font-weight="400" font-style="normal" 
 >11.02.2001</text>
</g>

<g fill="none" stroke="#000000" stroke-opacity="1" stroke-width="1" stroke-linecap="square" stroke-linejoin="bevel" transform="matrix(0.75,0,0,0.75,381.753,433.293)"
font-family="Roboto Condensed" font-size="9" font-weight="400" font-style="normal" 
>
</g>

<g fill="none" stroke="#000000" stroke-opacity="1" stroke-width="1" stroke-linecap="square" stroke-linejoin="bevel" transform="matrix(0.75,0,0,0.75,381.753,433.293)"
font-family="Roboto Condensed" font-size="9" font-weight="400" font-style="normal" 
>
</g>

<g fill="none" stroke="#000000" stroke-opacity="1" stroke-width="1" stroke-linecap="square" stroke-linejoin="bevel" transform="matrix(0.75,0,0,0.75,0,0)"
font-family="Roboto Condensed" font-size="9" font-weight="400" font-style="normal" 
>
</g>

<g fill="none" stroke="#000000" stroke-opacity="1" stroke-width="1" stroke-linecap="square" stroke-linejoin="bevel" transform="matrix(0.75,0,0,0.75,509.803,433.293)"
font-family="Roboto Condensed" font-size="9" font-weight="400" font-style="normal" 
>
</g>

<g fill="none" stroke="#000000" stroke-opacity="1" stroke-width="1" stroke-linecap="square" stroke-linejoin="bevel" transform="matrix(0.75,0,0,0.75,509.803,433.293)"
font-family="Roboto Condensed" font-size="12" font-weight="400" font-style="normal" 
>
</g>

<g fill="none" stroke="#000000" stroke-opacity="1" stroke-width="1" stroke-linecap="square" stroke-linejoin="bevel" transform="matrix(0.75,0,0,0.75,509.803,433.293)"
font-family="Roboto Condensed" font-size="12" font-weight="400" font-style="normal" 
>
<text fill="#000000" fill-opacity="1" stroke="none" xml:space="preserve" x="0" y="10" font-family="Roboto Condensed" font-size="12" font-weight="400" font-style="normal" 
 >25.02.2001</text>
</g>

<g fill="none" stroke="#000000" stroke-opacity="1" stroke-width="1" stroke-linecap="square" stroke-linejoin="bevel" transform="matrix(0.75,0,0,0.75,509.803,433.293)"
font-family="Roboto Condensed" font-size="9" font-weight="400" font-style="normal" 
>
</g>

<g fill="none" stroke="#000000" stroke-opacity="1" stroke-width="1" stroke-linecap="square" stroke-linejoin="bevel" transform="matrix(0.75,0,0,0.75,509.803,433.293)"
font-family="Roboto Condensed" font-size="9" font-weight="400" font-style="normal" 
>
</g>

<g fill="none" stroke="#000000" stroke-opacity="1" stroke-width="1" stroke-linecap="square" stroke-linejoin="bevel" transform="matrix(0.75,0,0,0.75,0,0)"
font-family="Roboto Condensed" font-size="9" font-weight="400" font-style="normal" 
>
</g>

<g fill="none" stroke="#000000" stroke-opacity="1" stroke-width="0.5" stroke-linecap="square" stroke-linejoin="bevel" transform="matrix(0.75,0,0,0.75,0,0)"
font-family="Roboto Condensed" font-size="9" font-weight="400" font-style="normal" 
>
</g>

<g fill="none" stroke="#000000" stroke-opacity="1" stroke-width="1" stroke-linecap="square" stroke-linejoin="bevel" transform="matrix(0.75,0,0,0.75,0,0)"
font-family="Roboto Condensed" font-size="9" font-weight="400" font-style="normal" 
>
</g>

<g fill="none" stroke="#000000" stroke-opacity="1" stroke-width="1" stroke-linecap="square" stroke-linejoin="bevel" transform="matrix(0.75,0,0,0.75,0,0)"
font-family="Roboto Condensed" font-size="9" font-weight="700" font-style="normal" 
>
</g>

<g fill="none" stroke="#000000" stroke-opacity="1" stroke-width="1" stroke-linecap="square" stroke-linejoin="bevel" transform="matrix(1,0,0,1,0,0)"
font-family="MS Shell Dlg 2" font-size="9" font-weight="400" font-style="normal" 
>
</g>
</g>
</svg>
